<?xml version="1.0" encoding="UTF-8" standalone="no"?>
<!DOCTYPE svg PUBLIC "-//W3C//DTD SVG 1.1//EN" "http://www.w3.org/Graphics/SVG/1.1/DTD/svg11.dtd">
<svg width="100%" height="100%" viewBox="0 0 53 84" version="1.1" xmlns="http://www.w3.org/2000/svg" xmlns:xlink="http://www.w3.org/1999/xlink" xml:space="preserve" xmlns:serif="http://www.serif.com/" style="fill-rule:evenodd;clip-rule:evenodd;stroke-linecap:round;stroke-linejoin:round;stroke-miterlimit:1.5;">
    <g transform="matrix(-1,0,0,1,53,0)">
        <g id="Introduction">
            <g id="avatar-boy-4">
                <g id="BODY" transform="matrix(0.728129,0,0,0.780127,5.33672,44.5667)">
                    <path id="_--Skin" serif:id="âœ‹-Skin" d="M51.417,48.705C52.677,48.644 52.17,46.447 52.079,45.641C51.082,42.694 51.317,39.48 50.924,36.391C50.68,33.508 50.366,30.634 50.102,27.754C49.583,21.906 45.858,10.001 41.606,8.087C41.071,5.745 38.859,3.558 36.06,3.558C34.152,1.306 31.854,-0.279 28.908,0.041C27.69,0.096 26.509,1.384 25.342,1.632C24.689,1.722 18.891,1.491 17.73,2.179C16.921,2.593 16.19,3.358 16.428,4.332C16.808,5.512 15.628,4.235 13.168,5.495C8.151,8.498 11.149,12.516 11.282,12.641C8.151,16.983 5.414,20.506 4.148,25.813C3.328,29.753 3.42,33.821 2.733,37.781C2.49,39.154 2.117,40.481 1.714,41.814C1.278,43.56 1.065,47.91 0.824,47.948C0.386,48.057 1.078,48.954 1.543,48.955C14.425,51.085 27.511,49.043 40.463,48.71C44.113,48.583 47.767,48.554 51.417,48.705Z" style="fill:white;"/>
                    <path id="ðŸ§¥-Jacket" d="M25.358,5.456C25.358,6.822 30.119,11.901 31.762,11.566C32.857,11.342 34.512,9.886 36.727,7.196L36.727,5.456L36.249,3.561C38.958,3.657 41.083,5.797 41.606,8.087C45.815,9.982 49.508,21.669 50.085,27.576L50.102,27.754C50.366,30.634 50.68,33.508 50.924,36.391C51.317,39.48 51.082,42.694 52.079,45.641L52.085,45.691C52.189,46.534 52.651,48.645 51.417,48.705C47.767,48.554 44.113,48.583 40.463,48.71C27.511,49.043 14.425,51.085 1.543,48.955C1.078,48.954 0.386,48.057 0.824,47.948C1.065,47.91 1.278,43.56 1.714,41.814L1.797,41.538C2.168,40.298 2.507,39.06 2.733,37.781C3.42,33.821 3.328,29.753 4.148,25.813C5.414,20.506 8.151,16.983 11.282,12.641C11.149,12.516 8.151,8.498 13.168,5.495C15.628,4.235 16.808,5.512 16.428,4.332C16.19,3.358 16.921,2.593 17.73,2.179C18.891,1.491 24.689,1.722 25.342,1.632C25.646,1.568 25.95,1.433 26.256,1.267L26.203,1.443C25.64,3.324 25.358,4.662 25.358,5.456Z" style="fill:white;"/>
                    <path id="ðŸ–-Ink" d="M31.891,13.024C31.897,12.965 31.977,12.965 31.983,13.024L32.074,13.899C32.184,14.968 32.291,16.035 32.368,17.109C32.464,18.448 32.529,19.787 32.56,21.129C32.668,25.803 32.69,30.48 32.699,35.156C33.333,35.112 33.968,35.07 34.602,35.029C35.033,35.001 35.464,34.975 35.894,34.949L36.992,34.882L37.445,34.855C37.75,34.836 38.097,34.759 38.311,35.029C38.396,35.137 38.439,35.277 38.36,35.405C38.176,35.701 37.893,35.691 37.574,35.704C37.272,35.716 36.971,35.728 36.669,35.739C36.024,35.764 35.378,35.788 34.732,35.806C34.053,35.825 33.376,35.84 32.698,35.852C32.691,37.826 32.609,39.797 32.52,41.769L32.48,42.656C32.372,45.055 32.255,47.457 32.09,49.853C32.076,50.049 31.798,50.049 31.784,49.853C31.598,47.154 31.475,44.45 31.353,41.748C31.264,39.789 31.212,37.829 31.188,35.869C31.098,35.87 31.009,35.871 30.919,35.871C28.375,35.882 25.832,35.893 23.288,35.87C23.292,35.875 23.296,35.88 23.299,35.886C23.483,36.319 23.5,36.872 23.496,37.337C23.491,37.87 23.419,38.397 23.296,38.916C22.854,40.773 21.716,42.437 20.419,43.813L20.376,43.858C20.071,44.18 19.72,44.503 19.532,44.914C19.34,45.333 19.274,45.823 19.179,46.273L19.168,46.325L18.798,48.029C18.68,48.57 18.647,49.36 18.217,49.75C17.816,50.114 17.285,49.924 17.096,49.455C16.948,49.089 17.095,48.687 17.182,48.321L17.866,45.455C17.979,44.988 18.102,44.517 18.344,44.098C18.593,43.668 18.957,43.356 19.328,43.037C20.032,42.433 20.678,41.742 21.224,40.993C21.771,40.245 22.237,39.42 22.565,38.553C22.728,38.119 22.863,37.667 22.955,37.213C23.043,36.781 23.043,36.334 23.137,35.907C23.143,35.878 23.168,35.858 23.197,35.849C23.19,35.83 23.201,35.804 23.227,35.802L25.308,35.669C27.157,35.55 29.007,35.428 30.855,35.289L31.181,35.265C31.156,32.65 31.177,30.034 31.225,27.418C31.268,25.019 31.269,22.62 31.341,20.221C31.376,19.031 31.453,17.843 31.538,16.655C31.626,15.44 31.765,14.235 31.891,13.024ZM12.355,26.934C12.333,26.801 12.501,26.718 12.578,26.84C13.464,28.232 13.891,29.744 14.072,31.373C14.231,32.81 14.184,34.269 14.105,35.71C14.02,37.248 13.921,38.785 13.822,40.321L13.669,42.678L13.284,48.585C13.257,49.007 13.161,49.392 12.796,49.588C12.749,49.627 12.701,49.661 12.645,49.691C12.448,49.796 12.186,49.743 12.072,49.541L12.118,49.571C12.158,49.596 12.113,49.561 11.984,49.467L11.874,49.325C11.795,49.206 11.744,49.088 11.723,48.946C11.691,48.726 11.733,48.484 11.747,48.262L11.999,44.388C12.195,41.377 12.424,38.367 12.596,35.354C12.676,33.949 12.732,32.544 12.694,31.137C12.656,29.738 12.585,28.316 12.355,26.934ZM20.019,1.003L20.068,0.995C21.828,0.704 23.742,0.758 25.35,1.604C25.363,1.611 25.357,1.633 25.342,1.632L24.825,1.612C23.186,1.548 21.552,1.51 19.941,1.894L19.776,1.933C19.196,2.074 18.59,2.247 18.124,2.629C17.678,2.994 17.456,3.558 17.243,4.076L17.214,4.145C16.998,4.657 16.724,5.143 16.25,5.463C15.635,5.878 14.896,5.827 14.192,5.883C12.952,5.982 11.937,6.879 11.433,7.975C11.127,8.639 10.997,9.383 10.971,10.109C10.958,10.479 10.956,10.863 11.005,11.23C11.021,11.348 11.167,11.776 11.241,11.765C11.406,11.743 11.557,11.828 11.608,11.96C12.016,11.567 12.435,11.186 12.868,10.819C13.947,9.903 15.109,9.073 16.332,8.36C17.266,7.815 18.252,7.276 19.272,6.868C19.191,6.867 19.111,6.883 19.034,6.923C19,6.94 18.967,6.898 18.993,6.87C19.315,6.533 19.7,6.485 20.088,6.575C20.17,6.549 20.253,6.523 20.336,6.499C20.378,6.487 20.398,6.544 20.365,6.566L20.269,6.627C20.693,6.768 21.108,7.046 21.437,7.265C22.382,7.895 23.214,8.664 24.057,9.419L24.211,9.556C24.953,10.217 25.714,10.859 26.557,11.389C26.999,11.666 27.463,11.923 27.949,12.114C28.366,12.278 29.045,12.381 29.241,12.82C29.414,13.03 29.342,13.299 29.138,13.44C28.795,13.817 28.109,13.574 27.7,13.417C27.208,13.228 26.73,13.001 26.275,12.734C25.391,12.217 24.576,11.574 23.817,10.89C23.024,10.176 22.276,9.416 21.505,8.68C21.171,8.36 20.844,8.033 20.51,7.715L20.342,7.556C20.171,7.396 19.928,7.147 19.667,6.997C19.177,7.288 18.68,7.568 18.194,7.867C17.516,8.284 16.858,8.731 16.21,9.193C14.963,10.083 13.781,11.079 12.683,12.147C10.671,14.106 8.956,16.343 7.458,18.711L7.345,18.891C6.494,20.247 5.689,21.646 5.118,23.144C4.49,24.792 4.185,26.525 4.019,28.275C3.854,30.012 3.798,31.758 3.614,33.493C3.426,35.273 3.054,37.013 2.631,38.751L2.53,39.163C2.147,40.718 1.752,42.274 1.556,43.867C1.451,44.718 1.387,45.58 1.402,46.438C1.416,47.3 1.552,48.144 1.662,48.997C1.704,49.324 1.381,49.597 1.092,49.64C0.76,49.69 0.475,49.479 0.371,49.171C0.049,48.212 -0.009,47.152 0.001,46.146C0.011,45.124 0.142,44.109 0.326,43.105C0.688,41.13 1.247,39.195 1.714,37.244C2.126,35.523 2.403,33.8 2.552,32.038C2.706,30.21 2.799,28.376 3.081,26.561C3.36,24.769 3.884,23.057 4.674,21.423C5.394,19.936 6.291,18.535 7.232,17.178C8.374,15.53 9.628,13.962 11.03,12.533C10.904,12.527 10.775,12.487 10.656,12.413C10.293,12.187 10.124,11.745 10.072,11.342C9.95,10.398 9.979,9.412 10.223,8.489C10.616,7.001 11.635,5.678 13.113,5.141C13.494,5.003 13.898,4.952 14.301,4.943C14.684,4.933 15.101,4.983 15.471,4.862C16.058,4.669 16.31,3.98 16.53,3.457L16.541,3.433C16.823,2.767 17.163,2.196 17.776,1.78C18.429,1.336 19.248,1.134 20.019,1.003ZM36.74,3.638C37.269,3.455 37.93,3.621 38.447,3.781C39.023,3.959 39.555,4.287 40.012,4.676C40.493,5.087 40.891,5.594 41.172,6.161L41.199,6.215C41.456,6.741 41.749,7.462 41.619,8.039C41.615,8.056 41.611,8.072 41.606,8.087C42.656,8.602 43.625,9.247 44.468,10.064C45.451,11.015 46.283,12.098 46.987,13.268C49.783,17.915 50.275,23.495 50.605,28.794L50.688,30.138C50.867,33.039 51.077,35.933 51.622,38.795L51.662,39.001C52.244,41.997 53.079,45.015 52.994,48.088C52.969,49.009 51.604,49.003 51.564,48.088C51.415,44.646 50.609,41.323 50.063,37.935C49.103,31.973 49.584,25.828 48.224,19.926C47.69,17.61 46.863,15.364 45.682,13.296C45.099,12.275 44.431,11.288 43.649,10.407C42.977,9.649 42.277,8.919 41.491,8.282C41.24,8.533 40.738,8.405 40.607,8.039C40.517,7.788 40.543,7.494 40.485,7.231C40.432,6.987 40.358,6.745 40.259,6.515C40.063,6.056 39.774,5.616 39.441,5.245C39.082,4.844 38.668,4.511 38.206,4.236C37.74,3.959 37.231,3.876 36.74,3.673C36.723,3.667 36.722,3.645 36.74,3.638ZM38.794,35.497C38.795,35.473 38.824,35.462 38.841,35.478C39.027,35.648 39.139,35.892 39.275,36.101C39.433,36.342 39.598,36.579 39.771,36.809C40.118,37.27 40.505,37.704 40.894,38.13C41.257,38.526 41.643,38.905 42.043,39.263C42.477,39.65 42.964,39.996 43.358,40.425C44.181,41.32 44.314,42.549 44.487,43.702L44.506,43.827C44.612,44.512 44.707,45.198 44.793,45.886C44.834,46.22 44.876,46.555 44.91,46.89L44.92,46.996C44.95,47.324 44.958,47.657 44.769,47.944C44.567,48.251 44.107,48.358 43.833,48.064C43.363,47.559 43.451,46.661 43.39,46.011C43.339,45.474 43.282,44.937 43.218,44.4L43.185,44.132C43.11,43.523 43.048,42.901 42.908,42.301C42.785,41.773 42.55,41.375 42.164,40.993C41.775,40.608 41.372,40.248 41.013,39.833C40.632,39.393 40.289,38.922 39.98,38.43C39.715,38.008 39.503,37.55 39.309,37.093L39.277,37.016C39.089,36.57 38.78,35.989 38.794,35.497ZM45.581,16.325C45.585,16.263 45.678,16.262 45.679,16.325C45.691,16.861 45.702,17.396 45.713,17.932C45.803,22.247 45.747,26.571 46.182,30.871C46.386,32.899 46.764,34.896 47.2,36.886C47.423,37.904 47.658,38.919 47.88,39.937C48.097,40.929 48.33,41.926 48.502,42.928C48.671,43.912 48.823,44.904 48.891,45.901L48.899,46.031C48.928,46.513 49.068,47.224 48.801,47.652C48.512,48.115 47.959,48.124 47.649,47.681C47.358,47.265 47.431,46.526 47.379,46.031C47.327,45.525 47.272,45.02 47.209,44.516C47.087,43.533 46.925,42.552 46.758,41.576C46.409,39.543 45.902,37.536 45.528,35.506C45.145,33.426 44.873,31.331 44.861,29.213C44.85,27.078 45.077,24.946 45.191,22.815C45.307,20.651 45.44,18.488 45.581,16.325ZM25.133,2.905C25.249,2.515 25.659,2.271 26.059,2.381C26.426,2.481 26.729,2.925 26.586,3.304C26.429,3.718 26.156,4.072 25.925,4.448C25.712,4.796 25.402,5.07 25.185,5.411L25.424,5.668C25.543,5.796 25.663,5.924 25.785,6.049L26.201,6.479C26.526,6.814 26.853,7.146 27.189,7.469C28.176,8.419 29.18,9.338 30.286,10.151C30.538,10.336 30.792,10.52 31.052,10.692L31.15,10.756C31.329,10.873 31.528,10.988 31.745,10.968C32.27,10.92 32.745,10.364 33.106,10.018L33.125,10C34.019,9.151 34.848,8.224 35.572,7.226C35.733,7.004 35.889,6.779 36.04,6.551C35.69,6.143 35.774,5.347 35.754,4.853C35.741,4.505 35.74,4.157 35.738,3.809L35.737,3.739C35.733,3.514 35.722,3.298 35.869,3.113C35.878,3.102 35.895,3.102 35.906,3.108C36.107,3.213 36.169,3.388 36.255,3.585L36.264,3.606C36.368,3.842 36.468,4.081 36.569,4.319C36.675,4.568 36.772,4.82 36.87,5.072C36.916,5.19 36.959,5.307 37.002,5.426C37.028,5.501 37.055,5.576 37.083,5.651L37.089,5.657C37.126,5.688 37.157,5.721 37.183,5.754C37.295,5.81 37.384,5.912 37.426,6.062C37.517,6.387 37.329,6.653 37.161,6.911C36.479,7.961 35.702,8.962 34.838,9.87C34.409,10.32 33.957,10.751 33.487,11.16L33.405,11.231C32.983,11.592 32.524,11.935 31.961,12.019C31.301,12.118 30.764,11.791 30.259,11.415L30.208,11.377C29.729,11.015 29.26,10.641 28.805,10.25C27.878,9.452 26.997,8.596 26.214,7.656C25.453,6.742 24.7,5.72 24.231,4.621C24.203,4.554 24.278,4.483 24.337,4.539C24.566,4.757 24.786,4.986 25.004,5.218C25.01,4.877 24.947,4.532 24.982,4.188C25.025,3.77 25.013,3.308 25.133,2.905Z"/>
                    <g transform="matrix(-1.37338,0,0,1.28184,65.4599,-57.1275)">
                        <path d="M28.896,47.423L28.301,43.191C28.301,43.191 21.271,38.05 21.236,43.436C21.201,48.822 21.061,49.486 21.061,49.486" style="fill:white;stroke:black;stroke-width:1px;"/>
                    </g>
                </g>
                <g id="HEAD" transform="matrix(1,0,0,1,9.73367,8.35664)">
                    <path id="_--Skin1" serif:id="âœ‹-Skin" d="M31.941,22.541C31.789,20.507 32.025,18.375 31.264,16.442C29.937,13.235 26.216,12.166 23.332,10.945C22.176,10.593 18.287,10.544 16.934,10.078C13.871,9.024 13.14,7.769 10.706,9.775C10.295,10.118 10.038,10.491 9.851,11L9.859,11.002C9.805,11.214 9.863,11.426 9.983,11.587C8.928,12.699 8.487,14.364 9.028,15.844C10.795,19.693 10.712,21.774 10.142,25.912C9.399,29.775 11.098,31.186 13.911,33.288C13.796,33.517 13.772,33.821 13.922,34.023C17.175,38.733 23.308,40.981 28.564,38.591C30.697,37.613 31.649,35.272 32.193,33.16C32.826,30.795 33.02,28.304 32.505,25.895C32.297,24.781 32.026,23.675 31.941,22.541Z" style="fill:white;"/>
                    <path id="bandana" d="M8.642,16.772L10.576,18.099L17.5,10.579L15.196,8.711C12.409,10.833 10.742,12.174 10.194,12.734C9.646,13.294 9.129,14.64 8.642,16.772Z" style="fill:white;"/>
                    <path id="ðŸ–-Ink1" serif:id="ðŸ–-Ink" d="M13.177,0.009C13.572,-0.052 13.87,0.2 14.012,0.556L14.02,0.575C14.065,0.696 14.116,0.814 14.171,0.93C15.159,0.43 16.569,0.559 17.194,1.57C17.64,2.293 17.368,3.15 17.2,3.916L17.089,4.421C17.303,4.561 17.464,4.811 17.456,5.071L17.455,5.091L17.41,5.794C17.553,5.646 17.683,5.484 17.799,5.311C17.88,5.159 17.966,5.011 18.059,4.866C18.607,4.018 19.837,4.755 19.385,5.664C19.298,5.839 19.2,6.006 19.096,6.166C18.978,6.402 18.881,6.645 18.806,6.894C19.02,6.99 19.184,7.203 19.202,7.524C19.242,8.275 18.859,8.901 18.251,9.295C18.072,9.411 17.887,9.433 17.719,9.39C17.69,9.431 17.66,9.472 17.632,9.514C17.875,9.717 18.094,9.949 18.282,10.205C18.848,10.118 19.417,10.077 19.987,10.076C20.683,9.724 21.516,9.732 22.264,9.863C22.746,9.948 23.208,10.113 23.682,10.231C24.181,10.355 24.689,10.36 25.194,10.445C25.831,10.551 26.389,10.854 26.74,11.338C27.126,11.35 27.532,11.512 27.869,11.733C28.652,12.248 29.431,12.77 30.212,13.288C30.512,13.487 30.624,13.804 30.569,14.158L30.565,14.181L30.539,14.328L30.601,14.418C30.84,14.766 31.1,15.13 31.255,15.514C31.541,15.94 31.8,16.386 32.029,16.845C32.338,17.463 32.593,18.118 32.765,18.79C32.808,18.96 32.851,19.131 32.88,19.305C32.92,19.549 32.858,19.739 32.824,19.974C32.781,20.272 32.766,20.573 32.721,20.872C32.691,21.07 32.528,21.167 32.357,21.172C32.421,21.675 32.467,22.182 32.512,22.685C32.574,23.403 32.616,24.124 32.653,24.844C32.842,25.126 33.228,25.35 33.506,25.427C33.892,25.534 34.297,25.418 34.661,25.283C34.89,25.197 35.079,25.494 34.967,25.693C34.616,26.316 33.864,26.313 33.296,26.037C33.055,25.921 32.844,25.752 32.687,25.533C32.697,25.742 32.707,25.951 32.717,26.16L32.727,26.35C32.842,28.568 33.092,30.863 32.688,33.059C31.987,36.863 28.932,39.76 25.199,39.985C23.24,40.103 21.609,39.507 20.798,39.174C19.987,38.842 20.302,38.164 20.865,38.358C21.835,38.691 23.617,39.189 25.212,38.974C28.97,38.468 32.157,36.532 31.83,28.196C31.783,27.014 31.64,25.832 31.61,24.65C31.58,23.494 31.591,22.338 31.542,21.183L31.525,20.789C31.506,20.328 31.485,19.866 31.452,19.405C31.411,19.226 31.378,19.045 31.328,18.869C31.194,18.393 31.019,17.929 30.801,17.486C30.753,17.524 30.699,17.551 30.641,17.562C30.197,17.644 29.781,17.621 29.366,17.43C29.172,17.342 29.001,17.225 28.842,17.08C28.766,17.012 28.715,16.946 28.676,16.877C28.475,16.88 28.274,16.818 28.148,16.669C28.004,16.5 27.98,16.324 28.037,16.162L28.043,16.146L28.028,16.141C27.859,16.593 27.521,16.99 27.151,17.259C26.565,17.685 25.833,17.808 25.13,17.819C24.355,17.831 23.537,17.708 22.771,17.582C22.569,17.549 22.368,17.511 22.171,17.46C22.163,17.468 22.156,17.478 22.147,17.486C21.491,18.133 20.567,18.3 19.733,17.93C19.252,17.716 18.848,17.372 18.491,16.978C18.486,17.185 18.476,17.391 18.458,17.595L18.451,17.677C18.415,18.057 18.347,18.461 18.068,18.736C17.616,19.181 16.962,19.002 16.441,18.713C16.442,18.727 16.442,18.741 16.442,18.756C16.582,19.248 16.723,19.741 16.865,20.233L16.895,20.338C16.998,20.688 17.11,21.039 17.141,21.405C17.2,22.105 16.748,22.796 15.993,22.561C15.597,22.438 15.28,22.095 14.976,21.821L14.784,21.65C15.28,23.321 15.624,25.052 15.656,26.797C15.658,26.891 15.579,26.963 15.492,26.966C15.288,26.975 15.068,26.933 14.863,26.849C14.851,26.848 14.84,26.848 14.827,26.846C14.477,26.793 14.151,26.663 13.864,26.471C13.931,26.687 13.96,26.919 13.943,27.162C13.938,27.221 13.849,27.241 13.836,27.176C13.671,26.337 12.717,25.703 11.895,25.863C11.013,26.036 10.363,26.818 10.204,27.708C10.033,28.663 10.36,29.769 10.966,30.506C11.244,30.846 11.611,31.13 12.046,31.202C12.245,31.234 12.452,31.223 12.645,31.164C12.727,31.139 12.804,31.104 12.883,31.071C12.997,31.024 13.131,31.016 13.238,30.966C13.483,30.853 13.729,31.085 13.605,31.344C13.497,31.569 13.4,31.721 13.221,31.838C13.366,32.02 13.498,32.274 13.547,32.343C13.796,32.689 14.049,33.017 14.332,33.334C14.621,33.655 14.937,33.949 15.27,34.221L15.41,34.335C15.731,34.597 16.01,34.84 16.237,35.216C16.415,35.513 16.184,35.916 15.85,35.911C14.803,35.896 14.042,34.949 13.5,34.121C13.423,34.003 13.351,33.878 13.283,33.75C13.259,33.79 13.232,33.828 13.202,33.862L13.262,34.027C13.439,34.514 12.675,34.832 12.454,34.378C12.293,34.049 12.106,33.735 11.898,33.439C11.775,33.421 11.655,33.344 11.588,33.245C11.42,32.993 11.23,32.738 11.07,32.47C10.982,32.383 10.89,32.3 10.797,32.218C10.77,32.243 10.743,32.267 10.717,32.293C10.6,32.568 10.455,32.818 10.276,33.054L10.238,33.105C9.894,33.55 9.448,34.006 8.894,34.115C8.726,34.148 8.563,33.932 8.713,33.794C9.1,33.435 9.558,33.191 9.915,32.791C10.09,32.594 10.252,32.377 10.391,32.149L10.422,32.097C10.446,32.058 10.469,32.018 10.494,31.979C10.333,31.866 10.171,31.752 10.01,31.638C9.567,32.029 8.989,32.207 8.498,32.531L8.449,32.564C8.006,32.869 7.538,32.193 7.894,31.822C8.286,31.414 8.614,30.928 8.961,30.475C8.798,30.166 8.72,29.799 8.691,29.429C8.68,29.324 8.671,29.219 8.662,29.114C8.413,29.118 8.162,29.03 7.951,28.878L7.87,28.82C7.613,28.904 7.343,28.945 7.084,28.938C6.475,28.919 6.226,28.203 6.607,27.75C6.995,27.287 7.675,27.186 8.214,27.411C8.231,27.401 8.249,27.391 8.266,27.381C8.241,27.26 8.247,27.149 8.276,27.052L8.267,26.993C8.149,26.806 8.071,26.592 8.041,26.366C8.018,26.187 8.023,26.01 8.063,25.833C8.076,25.775 8.104,25.714 8.125,25.652C8.082,25.538 8.056,25.421 8.048,25.302C8.036,25.287 8.023,25.272 8.012,25.255C7.745,24.868 7.799,24.403 8.053,24.09C8.054,24.07 8.056,24.05 8.059,24.03C8.044,23.996 8.03,23.961 8.018,23.925C7.769,23.667 7.587,23.356 7.621,22.971C7.641,22.744 7.731,22.54 7.868,22.388C7.843,22.314 7.841,22.228 7.871,22.157C7.652,21.559 7.68,20.838 7.837,20.169C7.802,20.067 7.784,19.956 7.788,19.839C7.806,19.342 8.223,18.886 8.718,18.892C8.777,18.892 8.833,18.9 8.887,18.912L8.887,18.9C8.906,18.751 8.946,18.613 9.004,18.49C8.976,18.479 8.949,18.464 8.926,18.444C8.609,18.618 8.274,18.751 7.923,18.841C7.664,18.908 7.399,18.606 7.56,18.356C7.635,18.24 7.717,18.136 7.805,18.04C7.679,18.041 7.552,18.05 7.422,18.067C7.19,18.098 6.93,17.935 6.78,17.714C6.592,17.902 6.404,18.089 6.216,18.276C5.739,18.752 5.02,18.402 4.945,17.775C4.803,17.736 4.67,17.67 4.554,17.575C3.803,17.911 2.995,18.096 2.168,18.131C1.575,18.156 1.228,17.444 1.506,16.941C1.692,16.604 1.923,16.301 2.19,16.038C1.776,16.168 1.349,16.262 0.913,16.322C0.678,16.354 0.344,16.153 0.25,15.93C-0.111,15.073 -0.08,14.18 0.335,13.345C0.351,13.312 0.369,13.281 0.387,13.249C0.43,13.138 0.477,13.029 0.527,12.922C0.016,12.373 -0.028,11.557 0.247,10.873C0.137,10.689 0.095,10.467 0.17,10.265C0.384,9.687 0.692,9.152 1.081,8.693C1.044,8.619 1.011,8.54 0.983,8.456C0.764,7.771 1.018,6.945 1.53,6.468C1.851,6.168 2.221,5.988 2.616,5.873C2.782,5.57 2.996,5.296 3.245,5.066C3.255,5.044 3.264,5.023 3.275,5.001C3.663,4.248 4.369,3.844 5.126,3.751C5.156,3.457 5.348,3.176 5.628,3.084C5.705,2.83 5.82,2.586 5.978,2.365C6.227,2.017 6.64,1.853 7.029,2.082C7.242,2.207 7.446,2.35 7.637,2.509C7.723,2.467 7.821,2.441 7.931,2.432L7.958,2.43L8.591,2.397C8.857,2.276 9.121,2.149 9.386,2.025C9.545,1.89 9.723,1.777 9.917,1.693C10.137,1.598 10.361,1.544 10.587,1.527C10.77,1.465 10.954,1.411 11.142,1.368C11.582,1.269 12.043,1.214 12.5,1.218C12.509,1.096 12.514,0.973 12.513,0.848L12.512,0.786C12.502,0.386 12.812,0.066 13.177,0.009ZM12.734,32.028C12.671,32.042 12.607,32.054 12.544,32.061C12.563,32.11 12.582,32.159 12.601,32.208C12.652,32.238 12.704,32.267 12.756,32.293C12.741,32.203 12.732,32.112 12.734,32.028ZM9.435,31.019L9.393,31.099C9.386,31.113 9.379,31.126 9.372,31.139C9.463,31.131 9.554,31.133 9.644,31.144L9.643,31.134C9.632,31.13 9.62,31.126 9.609,31.121C9.547,31.09 9.49,31.056 9.435,31.019ZM11.218,27.324C11.786,27.358 12.267,27.448 12.784,27.704L12.828,27.726C13.285,27.96 14.04,28.391 13.976,29.009C13.958,29.185 13.834,29.371 13.639,29.357C13.104,29.319 12.799,28.763 12.437,28.417C12.071,28.067 11.622,27.708 11.18,27.468C11.118,27.434 11.142,27.327 11.21,27.324L11.218,27.324ZM8.654,19.175C8.499,19.181 8.551,19.37 8.631,19.213C8.637,19.2 8.645,19.187 8.654,19.175ZM15.989,10.078C14.7,10.113 13.403,10.897 12.437,11.69C11.597,12.38 10.872,13.2 10.229,14.084C10.064,14.524 9.922,14.974 9.802,15.426C9.723,15.725 9.674,16.028 9.608,16.329L9.587,16.422C9.535,16.522 9.497,16.629 9.469,16.741C9.586,16.862 9.737,16.948 9.905,16.989C9.958,17.002 10.003,17.031 10.039,17.069C10.173,16.838 10.291,16.593 10.359,16.335L10.362,16.323C10.62,15.886 10.901,15.463 11.203,15.055C12.033,13.927 12.948,12.899 14.048,12.044C14.882,11.395 15.814,10.887 16.806,10.557C16.563,10.356 16.287,10.196 15.989,10.078Z"/>
                </g>
                <g id="FACE" transform="matrix(1,0,0,1,26.7337,27.3566)">
                    <path id="ðŸ–-Ink2" serif:id="ðŸ–-Ink" d="M9.637,15.623C9.195,15.445 8.801,15.149 8.513,14.77C8.412,14.638 8.386,14.499 8.407,14.372C8.431,14.229 8.517,14.099 8.634,14.012C8.751,13.925 8.898,13.882 9.04,13.904C9.163,13.923 9.286,13.989 9.383,14.128L9.404,14.155C9.575,14.384 9.798,14.572 10.053,14.693C10.298,14.809 10.573,14.864 10.856,14.832C11.397,14.772 11.77,14.483 12.166,14.092C12.215,14.042 12.264,13.991 12.313,13.939C12.345,13.892 12.388,13.862 12.436,13.846C12.489,13.829 12.55,13.83 12.605,13.849C12.658,13.867 12.706,13.902 12.738,13.948C12.768,13.992 12.785,14.046 12.78,14.109C12.743,14.515 12.528,14.877 12.223,15.161C11.883,15.477 11.433,15.696 11.01,15.773C10.543,15.857 10.068,15.796 9.637,15.623ZM11.23,9.362C11.726,9.659 12.483,10.353 11.949,11.091C11.32,11.742 10.415,10.996 9.969,10.659C9.555,10.397 9.091,11.07 9.474,11.375C12.698,13.729 14.005,9.44 11.481,9.012C11.203,8.965 11.1,9.27 11.23,9.362ZM5.454,6.624C5.509,5.952 6.546,5.8 6.649,6.464C6.742,7.06 6.633,7.606 6.361,8.142C6.101,8.654 5.448,8.416 5.399,7.949C5.333,7.324 5.42,7.042 5.454,6.624ZM13.348,6.327C13.492,6.14 13.701,6.012 13.951,6.084C14.733,6.31 14.502,7.404 14.228,7.936C14.079,8.225 13.597,8.299 13.379,8.044C13.024,7.629 12.854,6.8 13.305,6.391C13.317,6.369 13.331,6.348 13.348,6.327ZM6.35,3.685L6.473,3.664C6.855,3.599 7.33,3.536 7.6,3.839C7.743,4 7.793,4.298 7.6,4.452C7.261,4.722 6.887,4.617 6.481,4.64C6.147,4.659 5.825,4.714 5.503,4.805C4.796,5.004 4.22,5.368 3.616,5.767C3.537,5.819 3.456,5.72 3.494,5.646C3.843,4.973 4.518,4.42 5.194,4.083C5.555,3.903 5.951,3.754 6.35,3.685ZM12.636,3.384L12.73,3.403C13.758,3.615 15.094,4.038 15.581,5.034C15.599,5.175 15.58,5.205 15.564,5.225L15.558,5.231C15.545,5.248 15.535,5.271 15.473,5.291C15.456,5.287 15.438,5.282 15.421,5.278C15.198,5.22 15.021,5.141 14.85,5.058L14.665,4.968C14.45,4.864 14.233,4.764 14.003,4.69C13.512,4.532 13.008,4.421 12.495,4.362C12.384,4.349 12.277,4.312 12.193,4.248C12.113,4.188 12.052,4.105 12.024,3.994C11.988,3.851 11.998,3.743 12.076,3.613C12.134,3.516 12.218,3.449 12.315,3.41C12.413,3.371 12.524,3.362 12.636,3.384Z"/>
                </g>
            </g>
        </g>
    </g>
</svg>
