<?xml version="1.0" encoding="UTF-8" standalone="no"?>
<!DOCTYPE svg PUBLIC "-//W3C//DTD SVG 1.1//EN" "http://www.w3.org/Graphics/SVG/1.1/DTD/svg11.dtd">
<svg width="100%" height="100%" viewBox="0 0 52 74" version="1.1" xmlns="http://www.w3.org/2000/svg" xmlns:xlink="http://www.w3.org/1999/xlink" xml:space="preserve" xmlns:serif="http://www.serif.com/" style="fill-rule:evenodd;clip-rule:evenodd;stroke-linejoin:round;stroke-miterlimit:2;">
    <g transform="matrix(-1,0,0,1,55.197,0.094028)">
        <g id="Introduction">
            <g id="avatar-girl-9">
                <g id="BODY" transform="matrix(0.618363,0,0,0.733378,8.65579,36.0335)">
                    <path id="_--Skin" serif:id="âœ‹-Skin" d="M5.796,50.712C9.839,50.826 13.658,50.952 17.693,50.712C24.15,50.31 43.1,51.035 47.266,50.712C47.58,50.688 48.661,51.035 48.684,50.712C48.867,48.465 48.986,25.73 48.442,24.165C47.898,22.601 45.212,15.081 41.791,11.575C40.837,10.627 39.385,10.26 38.583,9.166C37.891,7.972 37.945,7.271 37.262,6.643C36.966,6.371 36.267,6.26 35.748,5.882C35.226,5.359 35.72,4.209 35.506,3.482C35.064,1.666 33.437,0.5 31.658,0.226C29.186,-0.37 26.576,0.193 25.391,2.148C24.951,2.876 25.185,3.76 24.643,4.926C24.682,5.808 23.66,6.021 23.049,6.37L21.836,7.604C18.099,9.721 13.702,10.864 10.428,13.708C7.644,16.551 4.875,19.837 3.64,23.683C3.384,24.732 3.3,25.815 3.194,26.886C2.892,30.016 2.049,33.054 1.324,36.103C0.498,39.944 -0.273,44.021 0.841,47.899C1.162,48.72 5.064,50.674 5.796,50.712Z" style="fill:white;"/>
                    <path id="Path" d="M24.626,4.918L24.942,4.952L24.942,7.399L29.071,11.723L29.825,12.592C29.376,14.206 29.829,15.013 31.184,15.013C33.218,15.013 31.646,14.419 32.028,13.614L32.044,13.581C32.321,13.029 33.27,11.86 34.89,10.073L36.748,6.946L36.748,6.375L36.811,6.401C36.987,6.475 37.138,6.55 37.241,6.645C37.924,7.273 37.87,7.973 38.562,9.167C39.364,10.262 40.815,10.629 41.77,11.576C45.191,15.083 47.876,22.603 48.42,24.167C48.964,25.731 48.846,48.466 48.662,50.713C48.64,51.036 47.559,50.689 47.245,50.713C43.079,51.036 24.129,50.311 17.672,50.713C13.637,50.953 9.817,50.827 5.774,50.713C5.043,50.675 1.141,48.721 0.82,47.9C-0.294,44.023 0.476,39.945 1.303,36.104L1.375,35.804C2.071,32.906 2.853,30.014 3.158,27.041L3.173,26.887C3.279,25.816 3.363,24.733 3.618,23.685C4.853,19.838 7.623,16.552 10.407,13.709C13.648,10.894 17.99,9.745 21.702,7.669L21.815,7.605L23.028,6.371L23.065,6.35C23.679,6.013 24.66,5.791 24.622,4.928L24.626,4.918Z" style="fill:white;"/>
                    <path id="ðŸ–-Ink" d="M25.177,2.461C25.21,2.355 25.349,2.385 25.36,2.486C25.465,3.488 25.332,4.536 25.206,5.531C25.145,6.012 25.11,6.512 25.017,6.986C25.006,7.036 24.994,7.087 24.984,7.138C25.014,7.192 25.104,7.254 25.147,7.295L25.333,7.478L25.707,7.842C26.438,8.554 27.169,9.268 27.9,9.98L28.973,11.027C29.34,11.386 29.758,11.73 30.081,12.13C30.256,12.347 30.296,12.614 30.123,12.846C30.038,12.961 29.885,13.045 29.73,13.062C29.791,13.147 29.838,13.244 29.867,13.351C29.928,13.569 29.709,13.837 29.476,13.746C29.211,13.643 28.992,13.46 28.723,13.372C28.451,13.283 28.155,13.266 27.873,13.314C27.744,13.336 27.617,13.368 27.494,13.409C28.815,14.022 30.244,14.373 31.702,14.424C31.999,14.434 32.296,14.43 32.591,14.41C33.087,14.377 33.581,14.301 34.065,14.179C34.446,14.083 34.823,13.962 35.189,13.815C35.369,13.744 35.546,13.665 35.718,13.575L35.733,13.566C35.772,13.542 36.489,13.132 36.502,13.07C36.514,13.009 36.514,12.987 36.491,12.934C36.475,12.898 36.446,12.868 36.403,12.843C36.181,12.748 35.952,12.659 35.709,12.658C35.152,12.654 34.544,13.069 34.083,13.352C33.577,13.662 33.111,14.025 32.624,14.361C32.613,14.369 32.6,14.373 32.588,14.373C32.537,14.373 32.489,14.309 32.522,14.259C32.871,13.741 33.343,13.31 33.836,12.934L34.035,12.784C34.486,12.445 35.014,12.069 35.564,11.988C36.236,11.888 36.939,12.31 37.539,12.557L38.602,12.995C38.792,13.073 38.998,13.139 39.188,13.228L38.743,11.825C38.52,11.123 38.298,10.421 38.079,9.719L38.036,9.581C37.817,8.869 37.616,8.127 37.251,7.476C37.164,7.319 37.064,7.173 36.966,7.024C36.864,6.871 36.825,6.701 36.697,6.564C36.442,6.292 36.077,6.133 35.728,6.029C35.643,6.003 35.668,5.89 35.748,5.882C36.106,5.844 36.447,5.928 36.77,6.08L36.904,6.144C37.21,6.29 37.508,6.425 37.735,6.687C38.253,7.284 38.522,8.035 38.769,8.777L38.835,8.976C38.927,8.945 39.555,9.138 39.633,9.184C41.987,10.186 43.801,12.051 45.126,14.236C46.579,16.631 47.37,19.368 48.023,22.076C48.225,22.911 48.417,23.75 48.602,24.59C47.778,24.909 46.901,25.077 46.129,25.527C45.834,25.698 46.1,26.158 46.395,25.986C47.118,25.564 47.942,25.409 48.716,25.113C49.136,27.058 49.51,29.013 49.822,30.977C50.783,37.005 51.39,43.131 51.352,49.24C51.351,49.375 51.311,49.526 51.238,49.656C51.281,49.635 51.315,49.609 51.334,49.579C51.577,49.194 52.188,49.551 51.943,49.938L51.907,49.994C51.724,50.279 51.552,50.497 51.229,50.658C50.903,50.82 50.551,50.848 50.191,50.857C48.971,50.889 47.749,50.91 46.527,50.926C46.359,49.61 46.291,48.281 46.06,46.973C46.001,46.636 45.492,46.779 45.551,47.114C45.774,48.378 45.845,49.66 46.001,50.932C43.388,50.96 40.774,50.961 38.163,50.968C34.625,50.979 31.087,50.971 27.549,50.969L26.033,50.969C21.946,50.969 17.859,50.955 13.772,50.928L12.8,50.921C12.413,48.627 12.15,46.312 12.145,43.981C12.144,43.639 11.616,43.638 11.617,43.981C11.622,46.31 11.882,48.624 12.265,50.918C11.297,50.914 10.33,50.917 9.362,50.952L8.87,50.97C7.884,51.004 6.897,51.025 5.913,50.945C4.821,50.857 3.716,50.655 2.737,50.137C2.296,49.904 1.908,49.605 1.576,49.254C1.913,49.056 2.255,48.867 2.582,48.651C2.865,48.465 2.601,48.004 2.315,48.192C1.963,48.424 1.593,48.626 1.231,48.841C0.968,48.488 0.753,48.097 0.589,47.674C0.331,47.008 0.231,46.291 0.145,45.585C0.042,44.753 0,43.915 0,43.077C0,41.316 0.184,39.56 0.441,37.82C0.687,36.153 1.012,34.499 1.355,32.85L1.402,32.626C1.741,31.005 2.063,29.38 2.452,27.771C2.811,26.283 3.225,24.802 3.72,23.349C4.16,23.623 4.621,23.863 5.054,24.148C5.339,24.336 5.604,23.876 5.32,23.689C4.858,23.384 4.365,23.131 3.899,22.834C4.452,21.279 5.101,19.76 5.879,18.305C7.437,15.392 9.537,12.785 12.226,10.862C13.572,9.899 15.049,9.111 16.6,8.538C18.182,7.954 19.82,7.633 21.496,7.502C21.544,7.498 21.571,7.542 21.569,7.584L21.568,7.591L21.634,7.602C21.659,7.435 21.709,7.274 21.805,7.125C22.022,6.788 22.436,6.571 22.766,6.364L22.844,6.315C23.237,6.07 23.651,5.828 24.108,5.742C24.124,5.739 24.134,5.756 24.123,5.769C23.822,6.116 23.437,6.382 23.084,6.676L23.003,6.744C22.71,6.987 22.302,7.262 22.291,7.667C22.279,8.144 22.376,8.641 22.411,9.117C22.446,9.591 22.47,10.065 22.483,10.541C22.528,12.246 22.473,13.952 22.323,15.65L22.986,15.203C24.018,14.508 25.053,13.815 26.11,13.164C26.749,12.77 27.467,12.433 28.233,12.448C28.448,12.452 28.69,12.483 28.922,12.55C28.672,12.311 28.433,12.057 28.188,11.817C27.784,11.422 27.381,11.026 26.977,10.632L25.814,9.491L24.65,8.35C24.29,7.996 23.867,7.67 23.906,7.111C23.937,6.666 24.162,6.223 24.316,5.793C24.337,5.732 24.357,5.67 24.376,5.61C24.686,4.572 24.862,3.495 25.177,2.461ZM40.211,47.009C39.971,46.766 39.597,47.142 39.838,47.385L39.965,47.512C40.178,47.726 40.388,47.946 40.536,48.21L40.557,48.25C40.716,48.553 41.172,48.284 41.013,47.981C40.817,47.607 40.505,47.305 40.211,47.009ZM29.902,46.94C29.136,46.793 28.398,46.793 27.632,46.94C27.298,47.004 27.44,47.517 27.772,47.453C28.442,47.324 29.092,47.324 29.762,47.453C30.094,47.517 30.236,47.005 29.902,46.94ZM19.557,41.58C19.228,41.496 19.087,42.009 19.417,42.093L19.579,42.134C20.131,42.271 20.657,42.374 21.231,42.246C21.558,42.173 21.426,41.673 21.103,41.731L21.09,41.733C20.56,41.851 20.071,41.711 19.557,41.58ZM37.929,38.126C37.686,37.888 37.312,38.263 37.556,38.502C37.861,38.801 38.22,39.027 38.655,39.04C38.99,39.049 38.995,38.533 38.67,38.509L38.655,38.508C38.364,38.5 38.131,38.324 37.929,38.126ZM6.842,36.706C7.146,36.553 6.879,36.094 6.575,36.247L4.75,37.166C4.445,37.319 4.713,37.778 5.016,37.625L6.842,36.706ZM42.915,36.823C42.575,36.814 42.575,37.345 42.915,37.355C43.235,37.364 43.562,37.486 43.847,37.625C44.151,37.774 44.419,37.315 44.113,37.166C43.741,36.984 43.333,36.835 42.915,36.823ZM25.858,34.256C26.137,34.065 25.873,33.604 25.591,33.797C25.206,34.06 24.857,34.371 24.478,34.643L24.374,34.716C24.095,34.907 24.359,35.368 24.641,35.175C25.061,34.887 25.438,34.543 25.858,34.256ZM45.501,30.391C45.161,30.391 45.161,30.923 45.501,30.923L45.566,30.923C45.846,30.921 46.142,30.913 46.403,31.026L46.433,31.04C46.739,31.185 47.007,30.726 46.699,30.581C46.317,30.399 45.917,30.391 45.501,30.391ZM16.166,30.011L16.211,29.994C16.528,29.88 16.391,29.366 16.07,29.482C15.586,29.657 15.21,29.987 14.79,30.274C14.51,30.465 14.774,30.926 15.057,30.733C15.418,30.486 15.755,30.173 16.166,30.011ZM35.979,28.628L36.05,28.589C36.353,28.433 36.086,27.974 35.784,28.13C35.544,28.254 35.33,28.42 35.094,28.551L35.023,28.59C34.721,28.746 34.988,29.205 35.29,29.049C35.529,28.925 35.744,28.759 35.979,28.628ZM27.943,23.477L27.889,23.424C27.646,23.185 27.272,23.56 27.515,23.8C28.123,24.399 28.842,24.854 29.567,25.294L29.699,25.373C29.991,25.55 30.257,25.09 29.965,24.914L29.772,24.797C29.127,24.406 28.49,24.002 27.943,23.477ZM13.326,22.981C13.531,22.713 13.085,22.451 12.877,22.703L12.87,22.712C12.656,22.991 12.403,23.243 12.139,23.473L12.089,23.516C11.932,23.651 11.645,23.94 11.424,23.959C11.088,23.988 11.085,24.52 11.424,24.491C11.767,24.461 12.061,24.219 12.319,24.011C12.696,23.709 13.032,23.364 13.326,22.981ZM41.428,21.044C41.674,20.812 41.311,20.442 41.064,20.66L41.055,20.668C40.596,21.101 39.936,21.218 39.346,21.365C39.016,21.447 39.156,21.96 39.486,21.878L39.755,21.811C40.359,21.659 40.964,21.483 41.428,21.044ZM30.967,17.69C30.637,17.605 30.497,18.118 30.827,18.202C31.387,18.346 31.918,18.531 32.437,18.788C32.741,18.939 33.009,18.48 32.704,18.329C32.145,18.052 31.57,17.844 30.967,17.69ZM36.363,6.48C36.355,6.456 36.38,6.429 36.405,6.437C36.997,6.66 36.682,7.441 36.498,7.909L36.465,7.995C36.176,8.745 35.773,9.474 35.333,10.146C34.873,10.848 34.362,11.521 33.809,12.152C33.568,12.427 33.319,12.693 33.062,12.951L32.965,13.048C32.705,13.305 32.37,13.757 31.966,13.707C31.532,13.655 31.289,13.187 31.606,12.832C31.83,12.581 32.141,12.381 32.391,12.152C32.639,11.926 32.879,11.693 33.114,11.453C33.593,10.961 34.048,10.44 34.463,9.892C34.865,9.362 35.249,8.817 35.598,8.25L35.668,8.136C35.934,7.696 36.548,7.048 36.363,6.48ZM15.361,12.05C15.079,11.856 14.815,12.317 15.094,12.509C15.608,12.862 16.06,13.29 16.616,13.581C16.913,13.737 17.178,13.291 16.893,13.128L16.882,13.122C16.327,12.831 15.874,12.403 15.361,12.05Z"/>
                </g>
                <g id="HEAD" transform="matrix(1,0,0,1,12.906,10.9072)">
                    <path id="_--Skin1" serif:id="âœ‹-Skin" d="M26.988,7.39C23.073,4.756 15.23,5.042 10.92,6.656C6.715,8.011 5.243,11.787 4.545,15.867C3.696,20.452 3.811,27.063 9.913,26.983C10.771,27.404 11.721,27.587 12.609,27.936C13.824,28.363 15.015,28.859 16.248,29.233C18.677,30.027 21.379,29.958 23.682,28.795C24.955,28.171 25.481,27.198 26.314,26.161C28.735,23.145 29.953,18.828 29.844,14.993C29.653,12.293 29.213,9.167 26.988,7.39Z" style="fill:white;"/>
                    <path id="ðŸ–-Ink1" serif:id="ðŸ–-Ink" d="M31.942,18.506C31.54,15.972 31.429,13.395 30.903,10.88C30.408,8.514 29.483,6.279 27.866,4.475C26.42,2.861 24.549,1.676 22.541,0.925C18.63,-0.538 14.131,-0.207 10.347,1.501C6.806,3.099 3.981,6.055 2.334,9.603C1.265,11.908 0.727,14.359 0.488,16.888C0.223,19.698 0.194,22.537 0.086,25.357C0.073,25.705 0.054,26.053 0.05,26.401C0.045,26.782 0.196,27.117 0.32,27.471C0.328,27.496 0.341,27.52 0.356,27.543C0.263,27.555 0.17,27.568 0.076,27.584C-0.028,27.6 -0.023,27.772 0.076,27.793C0.92,27.967 1.786,27.992 2.643,28.035C3.532,28.08 4.422,28.104 5.312,28.135C6.18,28.165 7.048,28.194 7.916,28.224C8.371,28.24 8.827,28.256 9.283,28.271C9.5,28.278 9.716,28.286 9.934,28.294C10.042,28.298 10.151,28.301 10.259,28.305C10.347,28.308 10.49,28.364 10.499,28.299C10.515,28.309 10.533,28.317 10.552,28.323C10.573,28.335 10.593,28.348 10.612,28.362C10.718,28.437 10.879,28.427 10.987,28.362C10.996,28.356 11.007,28.35 11.017,28.343C11.097,28.295 11.153,28.225 11.185,28.145C11.63,28.692 12.418,28.078 11.963,27.5C11.718,27.189 9.283,19.565 10.291,13.757L14.332,13.213C14.825,13.162 15.53,13.086 16.446,12.985C16.671,12.241 16.815,11.749 16.879,11.51C16.886,11.483 16.894,11.456 16.901,11.43C16.998,11.602 17.095,11.774 17.192,11.946L17.691,12.977C22.598,12.893 25.653,12.855 26.857,12.863C26.887,12.863 27.032,15.093 26.967,16.075C26.834,18.047 26.692,20.017 26.496,21.984C26.37,23.243 26.068,24.477 25.617,25.638C24.906,27.471 22.839,29.214 20.824,29.214C19.57,29.214 16.735,28.181 16.323,27.973C15.91,27.764 15.664,28.333 16.04,28.561C16.802,29.022 18.902,30 20.824,30C23.615,30 25.721,27.309 25.98,26.923C28.521,26.782 31.12,26.847 33.657,27.103C33.87,27.124 34.054,26.864 33.985,26.665C33.074,24.013 32.381,21.279 31.942,18.506Z"/>
                </g>
                <g id="FACE" transform="matrix(1,0,0,1,27.3761,24.352)">
                    <path id="ðŸ–-Ink2" serif:id="ðŸ–-Ink" d="M6.608,12.805C6.134,12.619 5.71,12.309 5.401,11.913C5.293,11.775 5.265,11.63 5.288,11.497C5.313,11.347 5.405,11.211 5.531,11.121C5.657,11.029 5.815,10.984 5.967,11.007C6.1,11.027 6.231,11.097 6.336,11.241L6.358,11.27C6.542,11.509 6.782,11.705 7.055,11.832C7.318,11.954 7.613,12.01 7.918,11.977C8.499,11.914 8.899,11.613 9.324,11.204C9.377,11.152 9.43,11.099 9.483,11.045C9.516,10.995 9.563,10.964 9.614,10.947C9.672,10.929 9.736,10.93 9.796,10.95C9.853,10.969 9.904,11.005 9.939,11.054C9.971,11.1 9.99,11.156 9.984,11.222C9.945,11.646 9.714,12.025 9.385,12.322C9.021,12.652 8.538,12.88 8.083,12.961C7.582,13.049 7.071,12.986 6.608,12.805ZM8.319,6.26C8.852,6.571 9.665,7.297 9.091,8.068C8.416,8.748 7.444,7.968 6.965,7.616C6.521,7.342 6.022,8.045 6.434,8.364C9.895,10.824 11.3,6.342 8.589,5.894C8.29,5.845 8.179,6.164 8.319,6.26ZM2.116,3.399C2.175,2.697 3.288,2.537 3.399,3.232C3.498,3.854 3.382,4.426 3.09,4.986C2.811,5.521 2.109,5.271 2.056,4.784C1.985,4.131 2.079,3.835 2.116,3.399ZM10.594,3.088C10.749,2.893 10.973,2.759 11.242,2.835C12.081,3.07 11.834,4.214 11.539,4.77C11.379,5.073 10.861,5.149 10.627,4.883C10.246,4.449 10.063,3.582 10.548,3.155C10.561,3.133 10.576,3.11 10.594,3.088ZM3.078,0.327L3.21,0.305C3.621,0.237 4.13,0.172 4.421,0.488C4.574,0.656 4.627,0.968 4.421,1.128C4.057,1.411 3.655,1.302 3.219,1.325C2.859,1.345 2.514,1.402 2.168,1.497C1.409,1.706 0.79,2.086 0.142,2.503C0.057,2.558 -0.03,2.454 0.01,2.377C0.385,1.673 1.11,1.095 1.837,0.743C2.224,0.555 2.649,0.399 3.078,0.327ZM9.829,0.012L9.93,0.032C11.034,0.254 12.469,0.696 12.992,1.737C13.012,1.884 12.991,1.916 12.974,1.936L12.968,1.943C12.954,1.961 12.943,1.985 12.876,2.005C12.858,2.001 12.839,1.997 12.82,1.992C12.581,1.932 12.391,1.848 12.207,1.762L12.008,1.668C11.777,1.559 11.544,1.455 11.297,1.377C10.771,1.212 10.229,1.096 9.678,1.034C9.559,1.021 9.444,0.982 9.353,0.916C9.267,0.853 9.202,0.766 9.172,0.65C9.133,0.501 9.144,0.387 9.228,0.252C9.291,0.151 9.381,0.08 9.484,0.04C9.589,-0.001 9.709,-0.011 9.829,0.012Z"/>
                </g>
                <g id="ACCESORIES" transform="matrix(1,0,0,1,16.8717,24.7878)">
                    <path id="ðŸ–-Ink3" serif:id="ðŸ–-Ink" d="M24.694,6.226C23.889,7.044 22.545,7.278 21.473,6.84C18.722,5.71 20.069,2.185 22.19,1.238C22.455,1.173 22.809,1.019 23.132,0.984C23.161,0.97 23.225,1.011 23.302,0.972C25.641,1.229 26.174,4.8 24.694,6.226M15.821,6.435C14.918,7.613 13.239,7.976 11.867,7.429C9.157,6.379 10.118,3.253 11.972,2.028C15.889,0.581 17.507,4.263 15.821,6.435M9.956,3.844C9.952,3.843 9.948,3.842 9.944,3.84C9.966,3.83 9.987,3.821 10.009,3.811C10.002,3.83 9.994,3.848 9.987,3.866C9.977,3.859 9.968,3.85 9.956,3.844M26.559,2.552C26.338,2.552 26.018,2.588 25.835,2.739C25.384,1.242 23.717,-0.143 22.268,0.867C21.127,1.228 20.28,2.028 19.799,3.092C18.931,2.584 17.567,2.801 16.814,3.472C16.322,1.871 15.109,1.31 13.665,1.228C12.089,0.974 10.519,2.478 10.029,3.685C9.622,3.64 9.013,3.512 8.629,3.76C6.142,3.118 1.792,2.764 1.287,3.121C0.926,3.257 0.728,4.093 1.232,4.138C1.671,4.077 1.181,3.526 1.623,3.465C3.979,3.322 6.266,3.788 8.597,3.984C8.806,4.259 9.478,4.351 9.837,4.241C9.272,6.288 10.491,7.681 12.319,8.099C15.149,8.738 17.611,6.249 16.871,3.66C17.728,3.24 18.715,3.258 19.648,3.479C18.088,9.126 27.338,8.873 25.893,2.932C26.854,3.403 27.063,2.647 26.559,2.552"/>
                </g>
            </g>
        </g>
    </g>
</svg>
