<?xml version="1.0" encoding="UTF-8" standalone="no"?>
<!DOCTYPE svg PUBLIC "-//W3C//DTD SVG 1.1//EN" "http://www.w3.org/Graphics/SVG/1.1/DTD/svg11.dtd">
<svg width="100%" height="100%" viewBox="0 0 48 74" version="1.1" xmlns="http://www.w3.org/2000/svg" xmlns:xlink="http://www.w3.org/1999/xlink" xml:space="preserve" xmlns:serif="http://www.serif.com/" style="fill-rule:evenodd;clip-rule:evenodd;stroke-linejoin:round;stroke-miterlimit:2;">
    <g transform="matrix(-1,0,0,1,48,0)">
        <g id="Introduction">
            <g id="avatar-boy-8">
                <g id="BODY" transform="matrix(0.682656,0,0,0.8646,6.11182,30.77)">
                    <path id="_--Skin" serif:id="âœ‹-Skin" d="M46.801,30.133C46.357,28.759 46.886,27.171 46.54,25.689C46.422,25.103 46.196,22.925 45.97,21.651C45.843,20.939 46.601,20.718 46.717,20.434C47.537,17.88 41.559,11.871 41.194,11.65C40.647,11.332 40.163,11.058 39.629,10.733C38.07,10.182 36.201,8.65 34.788,9.634C32.34,5.968 33.308,1.45 31.98,0.913C30.651,0.376 26.728,-0.709 24.485,0.677C23.141,1.678 23.24,3.4 22.626,4.821C22.266,5.49 22.089,6.459 21.67,6.895C20.246,8.377 18.47,8.632 16.485,8.884C16.334,8.903 16.175,8.489 16.028,8.54C12.679,9.705 8.782,10.045 4.989,16.566C4.453,17.498 3.008,18.994 3.491,20.072C0.308,27.52 -2.825,44.284 5.911,48.465C6.19,48.644 8.084,47.681 8.393,47.69C8.907,47.705 7.922,48.961 8.393,48.738C11.853,49.002 30.893,48.32 38.192,49.002C43.211,48.964 46.389,49.849 47.548,48.964C47.085,47.837 47.107,46.631 47.253,45.44C48.32,44.642 47.001,39.014 47.113,37.366C48.111,36.162 47.316,31.646 46.801,30.133Z" style="fill:white;"/>
                    <path id="ðŸ‘•-Top" d="M16.289,8.873L16.257,8.894C16.252,8.897 16.246,8.901 16.241,8.905C16.207,8.931 16.213,8.977 16.253,8.993C16.307,9.014 16.363,9.03 16.421,9.042C16.597,9.299 16.735,9.617 16.831,9.778C17.107,10.241 19.477,13.15 19.831,13.523C20.406,14.131 23.24,16.414 23.279,16.369C23.735,16.643 24.207,16.888 24.698,17.098C27.601,18.339 31.325,18.452 33.82,16.39C34.006,16.441 35.77,13.886 36.043,12.97C36.176,13.008 36.341,12.027 36.249,12.042C36.329,11.487 35.363,9.495 35.271,9.399C35.285,9.395 35.299,9.391 35.313,9.387C35.321,9.404 35.339,9.418 35.361,9.412C35.545,9.364 35.732,9.338 35.918,9.342C36.06,9.345 37.073,9.809 37.113,9.828C37.137,9.84 37.161,9.852 37.186,9.864C45.292,13.784 46.541,20.155 46.821,20.141C46.703,20.291 43.5,24.847 43.328,25.25C43.292,24.379 43.884,47.589 43.926,48.074C43.943,48.274 43.944,48.746 43.972,48.936C43.768,48.947 36.64,48.457 23.385,48.538C20.563,48.555 15.665,48.718 8.691,49.026L8.687,48.998C8.657,48.713 8.683,48.162 8.679,47.879C9.081,47.645 9.475,47.397 9.865,47.153C10.752,46.598 16.228,41.552 20.252,37.038C22.637,34.361 25.613,32.56 25.774,32.385C25.778,32.382 25.779,32.378 25.781,32.374C25.79,32.38 25.8,32.386 25.813,32.384C27.667,32.118 30.433,32.691 32.469,31.631C33.378,31.158 36.462,27.935 37.371,27.044C37.398,27.017 37.418,26.989 37.432,26.96C38.038,26.589 40.4,24.705 40.567,24.472L40.617,24.402C40.801,24.139 41.079,23.862 40.757,23.609C40.418,23.343 39.768,23.663 39.41,23.816L39.361,23.837C39.187,23.909 39.016,23.987 38.848,24.071C38.636,23.472 38.118,23.46 37.56,23.543C37.163,23.602 36.777,23.738 36.389,23.843C35.897,23.975 35.403,24.099 34.908,24.216C34.015,24.426 32.983,24.811 32.08,24.97C32.056,24.942 32.023,24.92 31.978,24.909C31.669,24.831 31.328,24.891 31.011,24.897C30.739,24.902 30.467,24.902 30.195,24.898L30.032,24.896C29.449,24.884 28.668,24.611 28.085,24.601L28.05,24.579L28.016,24.557C27.866,24.46 27.703,24.329 27.658,24.165C27.653,24.144 28.248,22.765 28.257,21.649C28.262,21.029 28.05,20.448 28,20.141C27.876,19.389 27.601,19.873 27.202,20.609C26.802,21.345 26.27,22.014 25.871,22.549C25.357,23.239 24.853,23.448 24.59,23.848C24.546,23.915 24.502,23.985 24.46,24.057C24.357,23.954 23.492,26.004 23.644,26.398C23.538,26.363 19.287,31.85 10.043,35.798C10.102,35.429 11.705,25.694 11.306,24.088C10.907,22.482 5.63,16.547 5.081,16.416C5.136,16.325 2.993,17.799 6.85,13.985C10.708,10.171 13.278,9.525 15.199,8.816C15.306,8.782 15.413,8.749 15.519,8.714C15.493,8.762 15.554,8.815 15.6,8.776C15.866,8.555 16.096,8.659 16.289,8.873Z" style="fill:white;"/>
                    <path id="ðŸ–-Ink" d="M45.21,21.89C44.732,22.591 44.292,23.312 43.894,24.062C43.689,24.449 43.498,24.844 43.326,25.247C43.29,24.376 43.282,23.495 43.181,22.633C43.173,22.571 43.07,22.541 43.059,22.616C42.948,23.398 42.929,24.2 42.887,24.99C42.838,24.975 42.785,24.967 42.726,24.967C42.151,24.967 41.585,25.014 41.012,25.061C40.756,25.082 40.487,25.098 40.226,25.139C40.436,24.905 40.632,24.657 40.814,24.4C40.998,24.136 41.209,23.725 40.888,23.473C40.532,23.194 39.835,23.559 39.491,23.701C39.317,23.772 39.146,23.851 38.978,23.934C38.766,23.336 38.115,23.256 37.558,23.339C37.16,23.398 36.774,23.535 36.387,23.639C35.895,23.771 35.401,23.896 34.905,24.012C34.012,24.223 33.113,24.406 32.21,24.566C32.186,24.538 32.153,24.516 32.109,24.505C31.799,24.427 31.458,24.486 31.141,24.492C30.815,24.498 30.489,24.498 30.162,24.491C29.58,24.479 28.998,24.474 28.415,24.464C28.25,24.363 28.04,24.218 27.988,24.028C27.924,23.791 28.124,23.528 28.217,23.326C28.575,22.551 28.7,21.683 28.56,20.839C28.535,20.688 28.483,20.524 28.409,20.369C29.047,20.438 29.677,20.485 30.319,20.506C31.6,20.548 32.881,20.592 34.163,20.601C36.727,20.621 39.29,20.621 41.853,20.602C43.303,20.591 44.749,20.578 46.196,20.503C46.078,20.654 45.963,20.807 45.851,20.963C45.828,20.956 45.798,20.969 45.802,20.998C45.803,21.008 45.804,21.018 45.805,21.028C45.601,21.315 45.404,21.607 45.21,21.89M42.36,48.553C41.764,48.534 41.169,48.514 40.573,48.495C39.404,48.458 38.235,48.421 37.066,48.383C34.749,48.309 32.433,48.237 30.117,48.173C27.806,48.109 25.494,48.041 23.182,48.114C20.865,48.186 18.554,48.375 16.241,48.526C14.956,48.609 13.669,48.682 12.381,48.717C11.154,48.75 9.917,48.7 8.692,48.788C8.651,48.483 8.681,48.179 8.677,47.876C9.078,47.643 9.473,47.394 9.862,47.151C11.283,46.261 12.626,45.256 13.893,44.156C14.088,43.987 14.279,43.814 14.468,43.64C14.336,43.929 14.442,44.302 14.819,44.424C15.278,44.574 15.749,44.521 16.227,44.509C16.712,44.498 17.196,44.487 17.681,44.477C18.629,44.456 19.577,44.438 20.525,44.422C22.377,44.391 24.228,44.368 26.08,44.353C29.806,44.323 33.529,44.374 37.254,44.441C38.302,44.46 39.348,44.484 40.396,44.46C40.92,44.448 41.446,44.444 41.969,44.416C42.389,44.393 42.811,44.333 43.23,44.28C43.283,45.015 43.338,45.749 43.4,46.483C43.441,46.968 43.483,47.453 43.524,47.937C43.541,48.137 43.542,48.341 43.57,48.531C43.168,48.554 42.767,48.566 42.36,48.553M42.77,27.805C42.755,28.367 42.747,28.93 42.743,29.493C42.695,29.465 42.641,29.445 42.579,29.435C41.928,29.335 41.231,29.411 40.572,29.422C39.934,29.433 39.295,29.429 38.659,29.46C38.021,29.49 37.384,29.526 36.746,29.559C36.447,29.575 36.151,29.588 35.854,29.629C35.651,29.657 35.391,29.655 35.173,29.713C36.085,28.825 36.991,27.932 37.9,27.041C37.928,27.014 37.947,26.986 37.961,26.957C38.567,26.586 39.149,26.168 39.676,25.689C40.094,25.851 40.569,25.871 41.012,25.907C41.585,25.954 42.151,26.002 42.726,26.002C42.764,26.002 42.801,25.998 42.835,25.991C42.807,26.595 42.786,27.2 42.77,27.805M19.103,38.731C20.495,39.178 22.002,39.173 23.45,39.262C24.993,39.358 26.534,39.437 28.08,39.498C31.165,39.618 34.249,39.782 37.335,39.913C39.097,39.987 40.859,40.069 42.621,40.158C42.746,40.165 42.865,40.132 42.97,40.073C43.029,41.241 43.098,42.407 43.179,43.573C43.189,43.719 43.2,43.865 43.211,44.01C42.381,43.906 41.559,43.806 40.723,43.735C39.785,43.655 38.848,43.588 37.908,43.525C36.078,43.403 34.245,43.24 32.411,43.18C28.672,43.058 24.926,43.1 21.186,43.127C20.128,43.134 19.07,43.144 18.012,43.157C17.483,43.164 16.954,43.171 16.425,43.179C15.893,43.186 15.322,43.131 14.819,43.317C14.814,43.319 14.81,43.322 14.805,43.324C16.324,41.876 17.684,40.276 19.103,38.731M23.995,34.102C26.321,34.528 28.683,34.499 31.04,34.541C33.452,34.584 35.867,34.556 38.28,34.561C39.65,34.564 41.032,34.624 42.398,34.502C42.559,34.487 42.684,34.425 42.773,34.338C42.798,35.799 42.844,37.26 42.907,38.72C42.818,38.682 42.721,38.659 42.621,38.653C39.538,38.47 36.455,38.305 33.369,38.204C30.285,38.103 27.197,37.983 24.112,38.02C22.606,38.039 21.013,37.942 19.528,38.272C20.093,37.669 20.669,37.076 21.272,36.509C22.151,35.683 23.09,34.909 23.995,34.102M25.772,32.382C25.775,32.379 25.776,32.375 25.779,32.371C25.787,32.377 25.797,32.382 25.811,32.381C27.988,32.332 30.43,33.023 32.466,31.963C33.375,31.489 34.128,30.741 34.858,30.022C34.859,30.027 34.859,30.033 34.86,30.038C34.864,30.096 34.889,30.167 34.948,30.192C35.188,30.298 35.469,30.305 35.727,30.343C36.024,30.387 36.315,30.412 36.614,30.43C37.274,30.47 37.933,30.512 38.593,30.55C39.251,30.587 39.912,30.59 40.572,30.607C41.233,30.623 41.925,30.704 42.579,30.609C42.639,30.6 42.693,30.581 42.74,30.555C42.741,31.406 42.749,32.258 42.757,33.109C42.758,33.247 42.761,33.386 42.762,33.524C42.674,33.443 42.553,33.386 42.398,33.372C41.184,33.265 39.962,33.313 38.745,33.317C37.549,33.321 36.353,33.325 35.158,33.329C32.744,33.337 30.332,33.361 27.918,33.407C26.744,33.429 25.576,33.529 24.419,33.72C24.888,33.291 25.343,32.849 25.772,32.382M6.857,47.863C6.411,48.001 5.969,47.941 5.522,48.035C5.495,48.041 5.469,48.051 5.446,48.066C4.109,47.491 3.218,46.337 2.608,45.045C1.965,43.682 1.521,42.226 1.225,40.75C0.612,37.706 0.611,34.55 0.928,31.471C1.24,28.446 1.856,25.437 2.736,22.528C3.34,20.53 4.109,18.512 5.178,16.691C6.412,17.523 7.369,18.72 8.271,19.891C9.348,21.29 10.319,22.771 11.188,24.309C11.098,24.573 11.084,24.903 11.041,25.139C10.958,25.593 10.883,26.053 10.824,26.511C10.698,27.49 10.577,28.47 10.448,29.448C10.193,31.384 9.889,33.314 9.553,35.236C9.526,35.392 9.569,35.524 9.649,35.623C8.983,35.976 8.325,36.345 7.684,36.746C6.275,37.625 4.958,38.65 3.924,39.964C3.897,39.998 3.939,40.044 3.973,40.013C6.19,37.952 8.944,36.658 11.649,35.379C13.031,34.725 14.406,34.061 15.732,33.297C17.119,32.498 18.441,31.595 19.709,30.617C21.156,29.499 22.519,28.278 23.796,26.967C23.946,26.813 23.91,26.62 23.797,26.497C23.835,26.485 23.866,26.452 23.868,26.396C23.898,25.54 24.154,24.811 24.654,24.118C25.118,23.476 25.709,22.946 26.243,22.365C26.48,22.106 26.706,21.837 26.908,21.55C27.117,21.254 27.244,20.928 27.425,20.619C27.636,20.258 27.817,20.443 27.915,20.769C28.026,21.14 28.019,21.573 27.974,21.954C27.927,22.357 27.805,22.749 27.63,23.114C27.465,23.456 27.274,23.803 27.385,24.195C27.568,24.84 28.35,25.213 28.943,25.358C29.602,25.519 30.292,25.488 30.961,25.404C31.797,25.299 32.63,25.145 33.457,24.982C34.415,24.793 35.367,24.574 36.311,24.328C36.755,24.212 37.196,24.059 37.645,23.963C37.805,23.929 38.101,23.878 38.288,23.962C35.873,25.41 33.24,26.375 30.566,27.216C30.234,27.32 30.37,27.825 30.71,27.742C33.583,27.035 36.286,25.723 38.858,24.287C38.898,24.264 38.931,24.23 38.956,24.19C39.214,24.099 39.478,24.019 39.746,23.953C39.866,23.924 40.483,23.719 40.56,23.798C40.669,23.909 40.291,24.271 40.196,24.376C39.524,25.126 38.725,25.737 37.859,26.243C36.981,26.755 36.047,27.164 35.108,27.55C34.057,27.982 32.946,28.322 31.924,28.818C31.518,29.016 31.803,29.686 32.23,29.55C32.782,29.375 33.317,29.117 33.853,28.898C34.308,28.713 34.763,28.527 35.215,28.335C35.531,28.201 35.844,28.062 36.154,27.918C35.69,28.358 35.225,28.798 34.76,29.238C33.955,30 33.191,30.869 32.207,31.403C31.235,31.931 30.126,31.993 29.044,31.981C28.501,31.976 27.96,31.958 27.417,31.98C26.846,32.004 26.338,32.092 25.796,32.273C25.786,32.276 25.779,32.282 25.773,32.289C25.754,32.266 25.722,32.254 25.689,32.274C24.217,33.15 22.875,34.285 21.584,35.408C20.254,36.565 19.003,37.796 17.811,39.095C16.669,40.339 15.537,41.588 14.295,42.733C13.082,43.85 11.786,44.865 10.433,45.804C9.696,46.316 8.941,46.809 8.159,47.249C7.741,47.485 7.317,47.722 6.857,47.863M6.981,14.18C7.508,13.584 8.075,13.032 8.675,12.521C8.94,12.6 9.218,12.622 9.499,12.625C9.926,12.629 10.355,12.647 10.782,12.643C11.606,12.634 12.429,12.608 13.252,12.604C14.936,12.595 16.62,12.594 18.304,12.609C18.524,12.611 18.684,12.516 18.782,12.378C19.123,12.767 19.474,13.147 19.828,13.52C20.404,14.128 21.017,14.707 21.67,15.235C21.543,15.236 21.416,15.237 21.29,15.236C20.707,15.232 20.125,15.229 19.542,15.225C18.374,15.219 17.205,15.214 16.036,15.211C13.713,15.205 11.382,15.224 9.061,15.344C8.417,15.377 7.768,15.391 7.127,15.454C6.778,15.488 6.431,15.528 6.083,15.565C6.012,15.573 5.944,15.582 5.877,15.593C6.217,15.101 6.584,14.628 6.981,14.18M16.287,8.87C16.271,8.881 16.254,8.89 16.239,8.902C16.205,8.928 16.21,8.974 16.25,8.99C16.304,9.011 16.36,9.027 16.418,9.04C16.594,9.297 16.732,9.614 16.828,9.775C17.104,10.238 17.422,10.679 17.745,11.109C17.809,11.195 17.876,11.281 17.942,11.366C16.378,11.362 14.815,11.37 13.252,11.43C12.429,11.461 11.603,11.487 10.782,11.549C10.445,11.575 10.107,11.618 9.771,11.66C11.522,10.386 13.492,9.413 15.533,8.691C15.531,8.694 15.528,8.697 15.525,8.7C15.48,8.75 15.547,8.815 15.598,8.773C15.863,8.552 16.094,8.656 16.287,8.87M24.189,23.845C24.144,23.913 24.101,23.983 24.058,24.054C23.955,23.951 23.812,23.883 23.628,23.877C21.579,23.812 19.531,23.756 17.481,23.755C16.47,23.754 15.45,23.72 14.44,23.77C13.933,23.796 13.427,23.826 12.92,23.855C12.566,23.875 12.189,23.9 11.843,24.003C11.046,22.6 10.161,21.251 9.194,19.961C11.387,20.232 13.618,20.203 15.824,20.278C18.323,20.363 20.823,20.382 23.323,20.441C24.008,20.457 24.694,20.475 25.38,20.495C25.733,20.505 26.087,20.515 26.441,20.526C26.552,20.529 26.666,20.532 26.781,20.529C26.772,20.547 26.763,20.565 26.755,20.583C26.562,20.984 26.319,21.353 26.036,21.695C25.435,22.423 24.709,23.051 24.189,23.845M21.501,28.167C21.425,27.955 21.24,27.791 20.946,27.805C19.267,27.882 17.585,27.935 15.908,28.046C15.092,28.1 14.272,28.137 13.456,28.209C13.035,28.246 12.616,28.315 12.197,28.37C11.91,28.407 11.609,28.451 11.334,28.554C11.387,27.96 11.434,27.367 11.475,26.772C11.508,26.295 11.518,25.813 11.515,25.334C11.514,25.091 11.506,24.848 11.494,24.605C11.519,24.61 11.544,24.613 11.568,24.61C11.611,24.605 11.651,24.599 11.688,24.589C12.074,24.741 12.511,24.775 12.92,24.804C13.405,24.839 13.89,24.876 14.374,24.911C15.406,24.985 16.447,24.98 17.481,25.014C19.516,25.081 21.552,25.119 23.587,25.174C23.493,25.582 23.49,26.001 23.641,26.395C23.536,26.36 23.414,26.377 23.311,26.479C22.725,27.062 22.121,27.624 21.501,28.167M15.579,32.502C15.538,32.387 15.46,32.281 15.367,32.209C15.011,31.933 14.362,32.092 13.934,32.113C13.428,32.138 12.923,32.163 12.417,32.188C12.263,32.195 11.48,32.235 10.904,32.359C11.023,31.455 11.131,30.55 11.228,29.644C11.248,29.454 11.267,29.263 11.285,29.073C11.556,29.161 11.851,29.193 12.131,29.206C12.55,29.226 12.97,29.26 13.39,29.267C14.228,29.28 15.07,29.238 15.908,29.224C17.418,29.199 18.927,29.127 20.436,29.067C18.921,30.304 17.321,31.432 15.651,32.459C15.627,32.473 15.603,32.487 15.579,32.502M10.813,33.038C10.94,33.055 11.067,33.061 11.163,33.071C11.649,33.12 12.127,33.164 12.615,33.172C13.099,33.179 13.582,33.186 14.066,33.193C14.169,33.194 14.272,33.196 14.375,33.197C13.101,33.898 11.788,34.525 10.493,35.185C10.607,34.47 10.714,33.755 10.813,33.038M24.695,17.095C27.598,18.337 31.323,18.449 33.818,16.387C34.066,16.455 34.34,16.478 34.559,16.5C35.051,16.55 35.538,16.596 36.032,16.611C36.996,16.641 37.96,16.687 38.924,16.699C40.873,16.723 42.823,16.734 44.773,16.752C44.939,16.753 45.072,16.702 45.172,16.621C45.37,16.957 45.553,17.303 45.721,17.657C45.966,18.173 46.173,18.707 46.343,19.252C46.307,19.246 46.269,19.242 46.228,19.241C43.666,19.196 41.102,19.27 38.539,19.281C35.975,19.292 33.412,19.281 30.849,19.299C30.14,19.304 29.435,19.305 28.728,19.357C28.36,19.385 27.987,19.397 27.622,19.457C27.582,19.464 27.54,19.469 27.498,19.475C27.009,19.188 26.403,19.248 25.844,19.237C25.203,19.225 24.561,19.214 23.92,19.205C22.659,19.186 21.398,19.172 20.137,19.164C17.635,19.146 15.139,19.211 12.638,19.298C11.394,19.342 10.154,19.416 8.926,19.609C8.844,19.501 8.762,19.393 8.678,19.287C7.808,18.177 6.777,16.756 5.345,16.413C5.399,16.323 5.455,16.233 5.512,16.144C6.504,16.407 7.598,16.394 8.612,16.449C9.781,16.513 10.947,16.557 12.116,16.585C14.442,16.643 16.767,16.679 19.093,16.715C19.738,16.724 20.384,16.735 21.029,16.746C21.378,16.751 21.726,16.758 22.074,16.764C22.269,16.767 22.442,16.766 22.628,16.701C22.799,16.641 22.967,16.551 23.133,16.476C23.191,16.45 23.238,16.411 23.276,16.366C23.732,16.64 24.204,16.885 24.695,17.095M36.04,12.968C36.406,13.07 36.783,13.086 37.169,13.116C37.675,13.154 38.181,13.161 38.689,13.164C39.499,13.169 40.31,13.164 41.119,13.141C41.467,13.132 41.671,12.897 41.731,12.629C41.739,12.636 41.748,12.643 41.756,12.65C42.742,13.467 43.635,14.401 44.392,15.435C42.569,15.441 40.746,15.442 38.924,15.455C37.96,15.461 36.996,15.501 36.032,15.526C35.56,15.538 35.094,15.578 34.623,15.623C34.614,15.624 34.604,15.624 34.595,15.625C34.645,15.567 34.694,15.509 34.743,15.448C35.305,14.747 35.768,13.883 36.04,12.968M47.891,49.782C48.052,49.337 47.99,48.859 47.98,48.391C47.971,47.911 47.966,47.431 47.964,46.951C47.961,46.012 47.955,45.073 47.945,44.134C47.924,42.234 47.902,40.333 47.828,38.435C47.681,34.682 47.398,30.938 46.936,27.211C46.712,25.399 46.433,23.591 46.055,21.804C46.061,21.797 46.066,21.789 46.071,21.782C46.448,21.276 46.876,20.808 47.245,20.299C47.278,20.254 47.292,20.196 47.292,20.137C47.305,20.131 47.319,20.124 47.332,20.116C47.639,19.94 47.362,19.461 47.056,19.639C47.091,19.619 46.582,18.304 46.528,18.171C46.334,17.696 46.116,17.231 45.87,16.78C45.722,16.508 45.563,16.242 45.397,15.98C45.368,15.785 45.263,15.605 45.083,15.508C44.767,15.053 44.426,14.615 44.062,14.198C42.574,12.492 40.715,11.115 38.683,10.134C38.39,9.992 38.088,9.874 37.787,9.75C37.466,9.618 37.169,9.446 36.853,9.307C36.339,9.082 35.831,9.095 35.326,9.333C35.283,9.354 35.314,9.421 35.358,9.409C35.683,9.324 36.016,9.31 36.342,9.402C36.661,9.493 36.904,9.693 37.183,9.861C37.68,10.159 38.235,10.353 38.744,10.631C39.418,10.999 40.076,11.404 40.705,11.847C40.053,11.882 39.4,11.907 38.748,11.925C38.263,11.938 37.778,11.94 37.294,11.968C36.949,11.988 36.591,11.983 36.246,12.039C36.329,11.464 36.329,10.885 36.226,10.325C36.226,10.325 36.226,10.325 36.226,10.324C36.2,10.19 36.17,10.056 36.133,9.923C36.053,9.642 35.798,9.6 35.613,9.706C35.594,9.693 35.576,9.679 35.558,9.665C35.336,9.484 35.137,9.267 34.963,9.039C34.602,8.566 34.311,8.018 34.09,7.465C33.867,6.906 33.708,6.321 33.553,5.739C33.475,5.447 33.391,5.157 33.312,4.866C33.243,4.613 33.193,4.333 33.066,4.102C33.042,4.059 32.971,4.067 32.96,4.116C32.893,4.405 32.928,4.735 32.94,5.03C32.954,5.357 32.973,5.681 33.016,6.006C33.106,6.679 33.25,7.342 33.482,7.981C33.705,8.595 33.998,9.167 34.396,9.684C34.661,10.027 35.037,10.482 35.473,10.667C35.53,11.311 35.523,11.957 35.372,12.595C35.174,13.43 34.795,14.224 34.274,14.904C33.182,16.33 31.493,17.136 29.731,17.302C27.907,17.474 26.041,17.064 24.403,16.257C22.581,15.359 21.069,13.975 19.711,12.48C18.928,11.619 18.116,10.771 17.391,9.86C17.262,9.698 17.057,9.371 16.813,9.075C17.061,9.073 17.316,9.035 17.536,9.007C17.991,8.948 18.435,8.857 18.88,8.744C19.711,8.531 20.587,8.235 21.314,7.767C22.85,6.777 23.45,5.52 23.655,3.789C23.72,3.242 22.78,3.109 22.692,3.658C22.557,4.502 22.354,4.912 22.086,5.723C21.829,6.502 21.456,6.792 20.743,7.221C20.074,7.625 19.313,7.859 18.576,8.101C18.168,8.235 17.754,8.357 17.343,8.481C17.08,8.559 16.769,8.628 16.503,8.749C16.364,8.626 16.219,8.534 16.074,8.499C16.084,8.481 16.07,8.452 16.043,8.458C16.001,8.466 15.958,8.476 15.915,8.485C15.872,8.488 15.829,8.497 15.787,8.512C13.219,9.071 10.753,10.263 8.662,11.885C8.557,11.93 8.455,11.984 8.358,12.052C8.308,12.088 8.275,12.144 8.265,12.202C7.951,12.46 7.646,12.728 7.351,13.005C4.978,15.238 3.474,18.209 2.421,21.265C1.384,24.276 0.682,27.432 0.296,30.593C-0.097,33.815 -0.142,37.104 0.428,40.307C0.735,42.027 1.231,43.718 1.963,45.305C2.621,46.729 3.691,48.353 5.373,48.526C5.378,48.532 5.383,48.537 5.389,48.542C6.049,49.089 7.031,48.712 7.721,48.385C7.83,48.333 7.938,48.279 8.046,48.223C7.989,48.444 7.964,48.675 7.952,48.892C7.927,49.343 8.558,49.368 8.678,48.994C9.701,49.175 10.757,49.178 11.792,49.172C12.949,49.166 14.105,49.125 15.26,49.071C17.551,48.962 19.84,48.796 22.134,48.72C26.777,48.567 31.433,48.894 36.073,49.059C37.374,49.105 38.676,49.151 39.978,49.197C41.307,49.244 42.636,49.254 43.955,49.434C44.44,49.501 44.626,49.023 44.489,48.725C44.523,48.525 44.489,48.305 44.47,48.07C44.436,47.629 44.403,47.188 44.372,46.748C44.312,45.888 44.253,45.028 44.198,44.169C44.086,42.426 43.99,40.683 43.896,38.939C43.71,35.473 43.568,32.004 43.463,28.534C43.437,27.688 43.404,26.842 43.362,25.997C43.412,25.917 43.462,25.837 43.511,25.756C43.672,25.485 43.83,25.213 43.993,24.944C44.321,24.404 44.65,23.867 44.995,23.338C45.292,22.881 45.599,22.431 45.919,21.991C46.317,25.372 46.671,28.756 46.834,32.159C47.012,35.907 47.107,39.661 47.159,43.413C47.173,44.461 47.183,45.509 47.194,46.558C47.2,47.104 47.206,47.649 47.201,48.195C47.197,48.717 47.118,49.288 47.303,49.782C47.41,50.07 47.785,50.075 47.891,49.782Z"/>
                </g>
                <g id="HEAD" transform="matrix(1,0,0,1,14.4358,6.3939)">
                    <path id="_--Skin1" serif:id="âœ‹-Skin" d="M12.873,1.362C16.679,1.362 20.616,4.322 22.012,6.211C23.185,7.799 23.816,14.979 23.816,19.831C23.816,20.846 24.374,22.759 24.211,23.73C23.614,27.288 21.013,30.271 15.865,30.271C10.717,30.271 7.026,28.224 3.2,22.728C1.343,22.728 0.443,21.299 0.43,19.045C0.421,17.543 1.019,16.518 2.222,15.971C1.793,10.041 2.119,6.304 3.2,4.76C4.821,2.444 9.067,1.362 12.873,1.362Z" style="fill:white;"/>
                    <path id="ðŸ–-Ink1" serif:id="ðŸ–-Ink" d="M11.271,0.105C13.675,-0.139 16.03,0.066 18.398,0.49C18.579,0.523 18.681,0.642 18.72,0.785C19.835,0.836 20.952,0.918 22.066,0.98C22.47,1.002 22.699,1.403 22.515,1.764C22.478,1.836 22.44,1.906 22.401,1.976L22.45,1.96C22.785,1.852 23.147,1.799 23.474,1.97C23.889,2.188 24.052,2.669 23.96,3.111C23.937,3.224 23.897,3.333 23.852,3.438C23.944,3.432 24.035,3.434 24.127,3.446C24.612,3.511 24.972,3.884 24.998,4.381C25.035,5.131 24.554,5.893 23.986,6.43C24.068,6.6 24.1,6.801 24.065,7.004C23.997,7.405 23.702,7.645 23.361,7.802C23.503,8.256 23.57,8.731 23.531,9.216C23.517,9.378 23.376,9.512 23.227,9.544C23.783,11.079 24.064,12.726 24.266,14.331C24.41,15.473 24.481,16.621 24.49,17.772C24.494,18.291 24.485,18.811 24.464,19.331L24.455,19.526C24.428,20.087 24.427,20.677 24.326,21.232C24.669,21.818 24.808,22.545 24.866,23.201C24.938,24.014 24.824,24.852 24.568,25.624C23.604,28.544 20.695,30.387 17.773,30.865C15.068,31.309 11.938,30.712 10.358,28.247C10.333,28.208 10.386,28.176 10.417,28.202C11.548,29.124 12.859,29.536 14.285,29.736C16.749,30.082 19.519,29.496 21.496,27.941C22.445,27.194 23.13,26.108 23.431,24.938C23.584,24.341 23.637,23.717 23.577,23.102C23.515,22.478 23.24,21.945 23.066,21.355C23.008,21.156 23.069,20.971 23.191,20.84C23.225,20.361 23.305,19.878 23.336,19.401C23.37,18.858 23.391,18.315 23.399,17.772C23.413,16.645 23.366,15.516 23.271,14.393C23.098,12.338 22.639,10.333 22.37,8.295C22.27,8.385 22.127,8.422 21.977,8.344L21.961,8.335L21.88,8.288C21.875,8.288 21.869,8.289 21.865,8.289C21.305,8.344 20.725,8.266 20.188,8.098C19.627,7.924 19.106,7.655 18.641,7.296C18.553,7.746 18.516,8.201 18.515,8.659C18.514,8.946 18.212,9.094 17.972,8.972C16.908,8.43 15.892,7.805 14.927,7.103C14.815,7.682 14.702,8.261 14.589,8.841C14.545,9.064 14.262,9.154 14.08,9.048C13.358,8.626 12.733,8.074 12.225,7.418C12.124,7.612 12.022,7.807 11.92,8.001L11.765,8.292C11.613,8.578 11.41,8.894 11.076,8.985C10.724,9.082 10.429,8.853 10.311,8.533C10.275,8.433 10.241,8.331 10.21,8.228C9.91,8.916 9.571,9.589 9.187,10.23C8.612,11.192 7.922,12.05 7.233,12.929C7.024,13.196 6.666,12.941 6.637,12.682C6.621,12.529 6.607,12.376 6.594,12.223C6.193,13.035 5.775,13.84 5.319,14.621L5.384,14.878C5.572,15.636 5.728,16.4 5.898,17.162C5.953,17.408 5.823,17.76 5.536,17.802C5.194,17.852 4.87,18.027 4.52,17.907C4.137,17.775 4.062,17.443 3.881,17.129C3.845,17.067 3.803,17.009 3.758,16.955L3.747,16.97C3.719,17.007 3.652,16.966 3.669,16.924L3.688,16.875C3.533,16.71 3.348,16.572 3.177,16.424C2.772,16.355 2.315,16.43 2.036,16.596C1.4,16.972 1.108,17.748 1.102,18.462C1.094,19.297 1.352,20.236 1.788,20.95C1.98,21.264 2.243,21.548 2.59,21.687C2.934,21.825 3.308,21.782 3.658,21.913C3.89,22 4.033,22.258 3.893,22.492C3.884,22.508 3.873,22.523 3.863,22.538L3.967,22.677C4.039,22.773 4.114,22.876 4.183,22.983C4.362,23.189 4.549,23.388 4.731,23.59C5.067,23.963 5.393,24.347 5.723,24.725C6.035,25.082 6.365,25.418 6.704,25.748C7.026,26.061 7.426,26.324 7.721,26.657C8.008,26.983 8.086,27.551 7.614,27.739C7.092,27.948 6.63,27.458 6.278,27.132L6.263,27.118C5.619,26.524 5.037,25.844 4.575,25.095C4.117,25.408 3.455,25.438 3,25.125C2.76,24.961 2.576,24.685 2.486,24.384C2.402,24.403 2.318,24.414 2.236,24.413C2.193,24.437 2.151,24.461 2.108,24.484C1.768,24.661 1.35,24.582 1.195,24.205C1.053,23.862 1.199,23.473 1.327,23.143L1.353,23.075C1.426,22.887 1.505,22.682 1.605,22.489C1.328,22.28 1.092,22.021 0.893,21.727C0.222,20.735 -0.114,19.284 0.035,18.101C0.124,17.387 0.458,16.647 1.006,16.165L0.986,16.113C0.832,15.722 0.693,15.33 0.602,14.917C0.496,14.434 0.445,13.934 0.398,13.442C0.299,12.404 0.326,11.342 0.458,10.308C0.706,8.361 1.334,6.45 2.451,4.83C2.134,4.45 1.883,4.003 2.014,3.489C2.074,3.252 2.21,3.029 2.415,2.893C2.528,2.819 2.663,2.807 2.776,2.746L2.81,2.727C2.86,2.698 2.822,2.701 2.792,2.565C2.675,2.025 2.772,1.502 3.366,1.323C3.924,1.154 4.452,1.512 4.783,1.939C5.647,1.324 6.787,1.002 7.789,0.728C8.929,0.418 10.098,0.224 11.271,0.105ZM1.931,18.241C1.927,17.801 2.343,17.529 2.753,17.601C3.028,17.649 3.257,17.814 3.473,17.984L3.578,18.067C3.84,18.274 4.141,18.497 4.298,18.789C4.527,19.221 4.043,19.802 3.59,19.499C3.28,19.291 3.081,18.956 2.877,18.646L2.856,18.614C2.764,18.475 2.682,18.327 2.556,18.215L2.528,18.191C2.487,18.155 2.442,18.123 2.388,18.107C2.284,18.077 2.092,18.119 2.046,18.243L2.042,18.256C2.025,18.319 1.932,18.305 1.931,18.241Z"/>
                </g>
                <g id="FACE" transform="matrix(1,0,0,1,21.4358,15.3939)">
                    <path id="ðŸ–-Ink2" serif:id="ðŸ–-Ink" d="M9.637,16.445C9.195,16.258 8.801,15.946 8.513,15.547C8.412,15.409 8.386,15.262 8.407,15.128C8.431,14.978 8.517,14.841 8.634,14.75C8.751,14.658 8.898,14.612 9.04,14.635C9.163,14.656 9.286,14.726 9.383,14.871L9.404,14.9C9.575,15.141 9.798,15.338 10.053,15.466C10.298,15.589 10.573,15.646 10.856,15.612C11.397,15.549 11.77,15.245 12.166,14.833C12.215,14.781 12.264,14.727 12.313,14.673C12.345,14.624 12.388,14.592 12.436,14.575C12.489,14.557 12.55,14.558 12.605,14.578C12.658,14.597 12.706,14.634 12.738,14.682C12.768,14.729 12.785,14.786 12.78,14.851C12.743,15.279 12.528,15.66 12.223,15.959C11.883,16.292 11.433,16.522 11.01,16.603C10.543,16.692 10.068,16.628 9.637,16.445ZM11.23,9.854C11.726,10.168 12.483,10.898 11.949,11.675C11.32,12.36 10.415,11.575 9.969,11.22C9.555,10.944 9.091,11.652 9.474,11.974C12.698,14.451 14.005,9.936 11.481,9.486C11.203,9.436 11.1,9.757 11.23,9.854ZM5.454,6.972C5.509,6.266 6.546,6.105 6.649,6.805C6.742,7.431 6.633,8.007 6.361,8.571C6.101,9.11 5.448,8.858 5.399,8.368C5.333,7.71 5.42,7.412 5.454,6.972ZM13.348,6.659C13.492,6.463 13.701,6.329 13.951,6.405C14.733,6.642 14.502,7.793 14.228,8.354C14.079,8.658 13.597,8.736 13.379,8.468C13.024,8.03 12.854,7.157 13.305,6.727C13.317,6.705 13.331,6.682 13.348,6.659ZM6.35,3.879L6.473,3.857C6.855,3.788 7.33,3.722 7.6,4.041C7.743,4.21 7.793,4.524 7.6,4.686C7.261,4.971 6.887,4.86 6.481,4.884C6.147,4.904 5.825,4.962 5.503,5.057C4.796,5.267 4.22,5.65 3.616,6.071C3.537,6.126 3.456,6.021 3.494,5.944C3.843,5.235 4.518,4.653 5.194,4.298C5.555,4.108 5.951,3.951 6.35,3.879ZM12.636,3.562L12.73,3.582C13.758,3.805 15.094,4.251 15.581,5.299C15.599,5.447 15.58,5.479 15.564,5.5L15.558,5.507C15.545,5.524 15.535,5.549 15.473,5.569C15.456,5.565 15.438,5.56 15.421,5.556C15.198,5.495 15.021,5.411 14.85,5.324L14.665,5.23C14.45,5.12 14.233,5.015 14.003,4.937C13.512,4.771 13.008,4.654 12.495,4.591C12.384,4.578 12.277,4.539 12.193,4.472C12.113,4.409 12.052,4.321 12.024,4.204C11.988,4.054 11.998,3.94 12.076,3.803C12.134,3.701 12.218,3.631 12.315,3.59C12.413,3.548 12.524,3.539 12.636,3.562Z"/>
                </g>
            </g>
        </g>
    </g>
</svg>
