<?xml version="1.0" encoding="UTF-8" standalone="no"?>
<!DOCTYPE svg PUBLIC "-//W3C//DTD SVG 1.1//EN" "http://www.w3.org/Graphics/SVG/1.1/DTD/svg11.dtd">
<svg width="100%" height="100%" viewBox="0 0 51 77" version="1.1" xmlns="http://www.w3.org/2000/svg" xmlns:xlink="http://www.w3.org/1999/xlink" xml:space="preserve" xmlns:serif="http://www.serif.com/" style="fill-rule:evenodd;clip-rule:evenodd;stroke-linejoin:round;stroke-miterlimit:2;">
    <g transform="matrix(-1,0,0,1,51,0)">
        <g id="Introduction">
            <g id="avatar-boy-5">
                <g id="BODY" transform="matrix(0.662356,0,0,0.782168,8.12071,35.4473)">
                    <path id="_--Skin" serif:id="âœ‹-Skin" d="M25.132,0.205C26.054,-0.05 27.113,-0.02 28.059,0.045C29.019,0.112 30.05,0.225 30.951,0.583C31.734,0.895 32.395,1.418 32.797,2.168C33.128,2.785 33.283,3.462 33.38,4.149C33.42,4.43 33.454,4.712 33.485,4.994L33.55,5.581C33.576,5.805 33.598,5.973 33.643,6.224C33.766,6.916 33.939,7.495 34.323,7.999C35.254,9.218 36.774,9.627 38.157,10.147C39.041,10.481 39.742,11.08 39.936,12.043C40.124,12.972 47.254,20.766 47.953,21.423L47.973,21.44C48.516,21.929 48.452,22.847 48.528,23.517C48.609,24.235 48.687,24.955 48.76,25.674C48.91,27.135 49.043,28.598 49.159,30.062C49.616,35.789 49.823,41.536 49.779,47.28L49.776,47.605C49.77,48.334 49.775,49.067 49.742,49.795C49.711,50.495 49.499,51.196 48.85,51.561C48.248,51.9 47.487,51.87 46.815,51.904L46.775,51.906C46.053,51.945 45.332,51.978 44.61,52.005C41.676,52.113 38.739,52.125 35.803,52.111C29.978,52.084 24.148,51.956 18.329,52.282C16.846,52.365 12.117,51.861 10.639,52.005C9.225,52.142 10.438,52.834 9.565,52.789C6.694,52.639 3.97,51.999 1.219,51.228C0.875,51.131 0.613,50.798 0.617,50.438C0.668,46.483 0.78,42.529 0.954,38.577C1.11,35.057 1.315,31.539 1.569,28.024C1.68,26.496 1.8,24.969 1.929,23.443L1.985,22.789C2.058,21.946 2.1,21.087 2.266,20.255C2.43,19.433 2.803,18.719 3.343,18.082C3.828,17.51 9.317,13.034 10.639,12.186C11.904,11.375 13.232,10.69 14.531,9.939C15.072,9.626 15.591,9.738 16.053,9.354C16.296,9.152 19.827,7.788 20.78,7.338L20.808,7.325C21.538,6.975 22.209,6.596 22.713,5.992C22.882,5.789 23.213,4.513 23.213,4.105C23.215,3.377 23.159,2.609 23.379,1.904C23.642,1.06 24.277,0.442 25.132,0.205ZM26.695,18.989L21.052,29.967L24.721,29.967L22.091,36.066L27.867,36.066L25.818,44.61L37.536,29.967L33.139,29.967L37.536,24.202L34.486,24.202L37.536,19.319L26.695,18.989Z" style="fill:white;"/>
                    <path id="ðŸ‘•-Top" d="M39.729,18.345L37.536,43.288L19.273,43.74L19.273,17.122L39.729,18.345Z" style="fill:white;"/>
                    <path id="ðŸ–-Ink" d="M45.676,25.174C45.657,25.193 45.637,25.212 45.618,25.232C45.64,25.201 45.659,25.169 45.676,25.137L45.676,25.174ZM34.684,21.964C34.178,22.611 33.641,23.927 33.149,24.585C33.078,24.68 33.009,24.774 32.94,24.869C32.736,25.155 33.009,25.592 33.345,25.574C34.016,25.538 34.687,25.488 35.358,25.437C33.98,26.971 32.836,28.876 31.571,30.501C31.485,30.61 31.401,30.72 31.316,30.829C30.996,31.247 31.317,31.436 31.755,31.323C31.845,31.3 31.936,31.277 32.026,31.254C32.663,31.091 33.298,30.928 33.935,30.766C34.287,30.675 34.64,30.564 34.997,30.494C35.144,30.466 35.284,30.49 35.423,30.497C35.356,30.599 35.263,30.781 35.245,30.81C35.037,31.133 34.828,31.455 34.617,31.775C34.207,32.399 33.795,33.022 33.368,33.633C31.701,36.019 29.904,38.296 28.122,40.594C27.674,41.172 27.219,41.744 26.757,42.311C26.759,42.307 26.76,42.304 26.762,42.301C27.178,41.491 27.595,40.682 28.011,39.872C28.802,38.334 29.586,36.791 30.386,35.256C30.427,35.176 30.469,35.097 30.511,35.017C30.677,34.699 30.404,34.368 30.063,34.436C28.401,34.763 26.754,35.165 25.128,35.641C25.055,35.719 24.947,35.742 24.851,35.723C24.786,35.742 24.72,35.761 24.655,35.781C24.674,35.74 24.695,35.699 24.715,35.658C24.648,35.601 24.615,35.512 24.659,35.4C25.594,32.988 26.877,30.66 28.397,28.527C28.336,28.528 28.275,28.529 28.214,28.531C26.545,28.576 24.908,28.815 23.3,29.27C23.293,29.121 23.383,28.891 23.431,28.781C23.626,28.343 23.85,27.916 24.059,27.485C24.487,26.6 24.915,25.716 25.343,24.83C25.761,23.966 26.176,23.099 26.569,22.222C26.776,21.762 26.982,21.302 27.188,20.841C27.356,20.467 27.488,20.089 27.628,19.706C28.036,19.825 33.285,19.851 34.56,19.94C34.873,19.962 35.186,19.982 35.5,19.999C35.749,20.013 36.101,20.068 36.273,19.843L36.338,19.897C35.772,20.574 35.229,21.27 34.684,21.964ZM14.194,9.389C14.22,9.378 14.245,9.366 14.27,9.354C14.284,9.373 14.299,9.39 14.316,9.407C14.357,9.449 14.397,9.494 14.44,9.535C14.358,9.487 14.275,9.439 14.194,9.389ZM50.872,47.889C50.825,46.891 50.772,45.892 50.716,44.894C50.605,42.943 50.49,40.992 50.337,39.044C50.027,35.096 49.737,31.149 49.272,27.216C49.076,25.567 48.803,23.93 48.53,22.293C48.565,22.261 48.6,22.23 48.635,22.199C48.598,22.647 49.207,22.931 49.508,22.484C49.531,22.451 49.553,22.417 49.575,22.382C49.836,21.96 50.438,19.89 50.396,19.714C50.321,19.399 50.111,19.118 49.947,18.84C49.804,18.596 49.659,18.353 49.512,18.112C49.22,17.629 48.918,17.151 48.602,16.683C47.947,15.714 47.231,14.784 46.387,13.971C45.514,13.128 44.512,12.436 43.477,11.808C42.98,11.506 42.467,11.233 41.945,10.978C41.429,10.727 40.865,10.45 40.309,10.307C40.278,10.299 40.245,10.343 40.274,10.366C40.422,10.483 40.576,10.592 40.733,10.698C40.308,10.551 39.87,10.444 39.428,10.407C38.573,10.107 37.707,9.832 36.856,9.519C36.02,9.211 35.195,8.864 34.639,8.134C34.164,7.51 33.863,6.746 33.632,6.002C33.379,5.182 33.278,4.33 33.043,3.508C33.025,3.442 32.916,3.434 32.901,3.508C32.734,4.37 32.741,5.339 32.837,6.209C32.937,7.121 33.194,8.017 33.754,8.758C34.404,9.621 35.286,10.101 36.278,10.484C37.078,10.794 37.889,11.109 38.709,11.386C38.602,11.456 38.493,11.525 38.381,11.592C37.937,11.856 37.475,12.09 37.002,12.3C36.14,12.684 35.231,12.972 34.317,13.206C32.615,13.639 30.871,13.859 29.116,13.887C25.607,13.946 22.058,13.211 18.847,11.793C17.944,11.394 17.061,10.955 16.187,10.494C15.914,10.35 15.64,10.205 15.367,10.055C15.39,10.054 15.413,10.052 15.436,10.05C16.045,9.992 16.647,9.875 17.237,9.709C18.445,9.369 19.602,8.838 20.74,8.315C21.704,7.872 22.697,7.367 23.286,6.444C23.601,5.95 23.745,5.37 23.863,4.803C23.994,4.171 24.148,3.537 24.243,2.899C24.277,2.676 24.227,2.374 23.987,2.268C23.891,2.226 23.812,2.192 23.704,2.192C23.466,2.192 23.222,2.365 23.165,2.602C23.025,3.193 22.94,3.801 22.829,4.398C22.734,4.915 22.647,5.454 22.368,5.908C21.88,6.703 20.924,7.11 20.116,7.497C19.092,7.988 18.068,8.466 17.004,8.864C16.536,9.039 16.059,9.198 15.576,9.328C15.595,9.21 15.578,9.085 15.508,8.991C15.392,8.836 15.259,8.734 15.109,8.615C14.946,8.486 14.727,8.419 14.534,8.476C14.534,8.477 14.533,8.476 14.533,8.476C14.455,8.459 14.369,8.466 14.279,8.506C14.004,8.632 13.729,8.76 13.454,8.889C9.497,10.749 5.654,12.932 2.742,16.258C2.323,16.738 1.93,17.242 1.561,17.762C1.203,18.267 0.76,18.815 0.662,19.441C0.653,19.493 0.73,19.517 0.743,19.464C0.766,19.367 0.797,19.273 0.837,19.181C0.755,19.466 0.76,19.769 0.875,20.067C1.011,20.417 1.262,20.65 1.578,20.742C1.26,22.132 1.047,23.541 0.876,24.965C0.629,27.016 0.455,29.073 0.323,31.135C0.06,35.25 -0.058,39.386 0.027,43.508C0.051,44.674 0.091,45.839 0.151,47.004C0.182,47.586 0.215,48.167 0.252,48.75C0.289,49.322 0.259,49.953 0.759,50.256C0.765,50.278 0.772,50.3 0.778,50.323C0.9,50.745 1.441,50.61 1.492,50.226C1.492,50.222 1.493,50.217 1.494,50.213C1.902,49.901 1.841,49.382 1.81,48.884C1.778,48.346 1.744,47.809 1.715,47.272C1.66,46.242 1.614,45.211 1.572,44.18C1.49,42.142 1.444,40.1 1.429,38.06C1.399,33.979 1.635,29.905 1.915,25.835C2.032,24.133 2.169,22.438 2.211,20.737C2.43,20.623 2.497,20.3 2.387,20.082C4.978,21.848 7.382,23.959 9.313,26.413C9.635,26.823 9.943,27.245 10.238,27.674C10.334,27.814 10.425,27.959 10.517,28.104C10.428,28.509 10.359,28.921 10.268,29.309C10.082,30.112 10.003,30.944 9.896,31.759C9.678,33.415 9.526,35.086 9.396,36.75C9.141,40.038 8.952,43.325 8.892,46.622C8.859,48.487 8.815,50.363 8.897,52.227C8.836,52.591 9.165,52.948 9.508,52.994C9.809,53.034 10.091,52.878 10.222,52.626C11.16,52.743 12.123,52.796 13.055,52.803C14.311,52.812 15.567,52.811 16.822,52.784C19.334,52.729 21.846,52.665 24.357,52.59C29.38,52.442 34.402,52.294 39.426,52.145C40.819,52.104 42.212,52.063 43.604,52.022C44.233,52.003 45.016,52.184 45.511,51.7C45.596,51.616 45.662,51.518 45.708,51.413C45.856,51.45 46.038,51.414 46.136,51.299C46.317,51.085 46.451,50.886 46.444,50.589C46.438,50.311 46.361,50.018 46.321,49.742C46.246,49.225 46.173,48.708 46.104,48.19C45.968,47.167 45.84,46.142 45.723,45.116C45.483,43.019 45.265,40.917 45.095,38.814C44.757,34.653 44.662,30.471 44.673,26.298C44.675,25.925 44.677,25.551 44.679,25.178C44.695,25.198 44.712,25.216 44.73,25.232C44.746,25.245 44.761,25.258 44.776,25.272C44.951,25.426 45.243,25.505 45.454,25.359C45.712,25.192 45.891,24.941 46.092,24.715C46.304,24.477 46.522,24.245 46.743,24.015C47.169,23.57 47.61,23.143 48.06,22.721C48.096,22.688 48.133,22.653 48.169,22.62C48.172,23.949 48.17,25.276 48.206,26.604C48.259,28.576 48.366,30.547 48.465,32.516C48.659,36.416 48.861,40.315 49.055,44.214C49.109,45.303 49.161,46.392 49.215,47.48C49.242,48.025 49.269,48.57 49.295,49.114C49.309,49.409 49.322,49.704 49.336,49.999C49.351,50.315 49.331,50.653 49.438,50.954C49.682,51.642 50.734,51.739 50.936,50.954C51.063,50.462 50.966,49.892 50.943,49.386C50.92,48.887 50.896,48.388 50.872,47.889Z"/>
                </g>
                <g id="HEAD" transform="matrix(1,0,0,1,14.5108,8.80559)">
                    <path id="_--Skin1" serif:id="âœ‹-Skin" d="M16.676,31.574C15.18,31.583 13.908,31.148 12.938,30.429C11.727,29.987 10.267,29.305 9.38,28.589C9.034,28.679 8.62,28.303 8.355,28.105C6.709,26.846 5.417,25.003 5.034,23.157C4.443,23.921 3.602,23.953 2.796,23.573C1.107,22.593 1.17,20.527 1.778,18.984C0.5,16.047 -0.386,8.293 1.565,5.164C1.964,4.696 2.55,4.415 2.972,3.935C3.347,3.516 3.704,3.087 4.141,2.755C5.473,1.717 7.767,1.164 9.204,0.904C15.202,-0.424 19.81,1.963 25.243,3.976C24.93,4.776 24.497,5.507 24.002,6.187C25.35,6.703 24.731,7.862 23.685,8.449L23.062,8.139C24.033,11.697 26.268,20.544 25.303,23.385C24.534,27.817 21.16,31.606 16.676,31.574" style="fill:white;"/>
                    <path id="ðŸ’ˆ-Hair" d="M25.22,4.008C24.908,4.808 24.475,5.538 23.98,6.219C25.328,6.735 24.709,7.894 23.662,8.481L23.212,8.255C23.015,6.955 22.635,6.276 22.074,6.219C21.152,6.125 19.114,7.89 18.226,7.89C17.338,7.89 12.828,5.916 10.35,5.916C7.873,5.916 5.764,8.012 4.926,9.53C4.367,10.543 4.783,11.678 6.173,12.935C5.342,14.026 4.926,14.811 4.926,15.288C4.926,15.765 5.023,16.752 5.217,18.247C4.322,17.946 3.618,17.796 3.106,17.796C2.594,17.796 2.15,18.086 1.773,18.667L1.615,18.669C0.415,15.508 -0.336,8.208 1.543,5.196C1.942,4.727 2.528,4.447 2.949,3.967C3.325,3.548 3.682,3.119 4.118,2.787C5.451,1.749 7.745,1.196 9.182,0.936C15.18,-0.392 19.788,1.995 25.22,4.008Z" style="fill:white;"/>
                    <path id="ðŸ–-Ink1" serif:id="ðŸ–-Ink" d="M17.542,31.955C15.6,32.159 13.292,31.689 11.997,30.073C11.958,30.025 11.941,29.97 11.94,29.917C11.939,29.858 11.959,29.802 11.992,29.757C12.027,29.711 12.077,29.679 12.134,29.668C12.182,29.659 12.237,29.665 12.293,29.697L12.412,29.765C13.297,30.266 14.215,30.692 15.218,30.875C16.25,31.063 17.3,31.042 18.323,30.803C20.186,30.368 21.694,29.259 22.804,27.797C24.042,26.166 24.786,24.095 24.975,22.024C25.205,19.513 24.672,17.019 24.121,14.588C23.542,12.035 22.909,9.494 22.173,6.983C22.151,6.907 22.145,6.836 22.151,6.771C21.934,6.684 21.703,6.708 21.474,6.788C21.054,6.933 20.635,7.26 20.287,7.53C20.16,7.628 20.043,7.719 19.937,7.793C19.504,8.096 19.032,8.314 18.503,8.349C17.953,8.384 17.414,8.209 16.914,7.99C16.661,7.879 16.411,7.764 16.162,7.649C15.454,7.321 14.754,6.997 13.99,6.787C12.965,6.504 11.907,6.365 10.846,6.375C8.953,6.393 7.053,6.892 5.893,8.532C5.422,9.196 5.116,9.96 5.355,10.78C5.485,11.226 5.73,11.631 5.998,12.003L6.09,12.13C6.237,12.334 6.365,12.538 6.403,12.755C6.435,12.936 6.41,13.128 6.284,13.339C6.204,13.471 6.103,13.59 6.001,13.709C5.927,13.794 5.853,13.879 5.79,13.971C5.662,14.156 5.549,14.356 5.46,14.564C5.286,14.971 5.212,15.409 5.197,15.851C5.178,16.384 5.251,16.905 5.324,17.427C5.375,17.797 5.426,18.168 5.447,18.543C5.451,18.608 5.431,18.657 5.404,18.693C5.37,18.737 5.322,18.765 5.266,18.773C5.249,18.775 5.232,18.775 5.214,18.774C5.223,18.81 5.23,18.846 5.237,18.882C5.202,18.836 5.164,18.791 5.125,18.748C5.122,18.746 5.12,18.745 5.117,18.744C5.077,18.721 5.042,18.686 5.02,18.641C4.964,18.588 4.905,18.537 4.843,18.49C4.52,18.243 4.143,18.097 3.764,18.092C3.399,18.087 3.034,18.214 2.752,18.483C2.193,19.017 2.03,19.889 2.024,20.637C2.018,21.401 2.191,22.318 2.841,22.793C3.102,22.983 3.421,23.097 3.742,23.101C4.008,23.103 4.263,23.007 4.513,22.915C4.591,22.887 4.668,22.859 4.745,22.833C4.832,22.804 4.911,22.806 4.981,22.827C5.059,22.851 5.125,22.9 5.174,22.966C5.224,23.032 5.256,23.114 5.266,23.2C5.276,23.284 5.265,23.371 5.23,23.449C5.221,23.468 5.212,23.487 5.203,23.506L5.346,23.747C5.894,24.667 6.451,25.57 7.182,26.361C7.602,26.815 8.047,27.243 8.535,27.618L8.605,27.672C8.647,27.704 8.694,27.743 8.744,27.784C8.886,27.904 9.056,28.063 9.216,28.07C9.263,28.072 9.304,28.065 9.342,28.06C9.432,28.048 9.508,28.045 9.583,28.076C9.643,28.101 9.706,28.148 9.77,28.245C9.813,28.31 9.835,28.393 9.835,28.476C9.835,28.56 9.813,28.644 9.773,28.71C9.69,28.847 9.59,28.932 9.481,28.98C9.359,29.034 9.225,29.042 9.086,29.016C8.743,28.95 8.363,28.659 8.121,28.469L8.074,28.432C7.539,28.014 7.031,27.551 6.584,27.033C5.824,26.151 5.142,25.112 4.791,23.977C4.544,24.143 4.238,24.222 3.919,24.234C3.454,24.252 2.962,24.13 2.599,23.954C1.799,23.565 1.314,22.831 1.086,21.987C0.822,21.006 0.908,19.879 1.242,18.998C1.252,18.972 1.262,18.947 1.273,18.921C0.243,16.249 -0.074,13.281 0.014,10.43C0.055,9.095 0.144,7.694 0.452,6.393C0.589,5.809 0.829,5.253 1.211,4.794C1.429,4.532 1.697,4.328 1.966,4.125C2.198,3.949 2.432,3.773 2.629,3.553L2.722,3.448C2.742,3.426 2.762,3.403 2.782,3.38C3.121,2.997 3.452,2.625 3.864,2.311C4.342,1.947 4.869,1.662 5.417,1.425C6.597,0.915 7.867,0.609 9.124,0.372C11.843,-0.139 14.634,-0.165 17.319,0.555C18.568,0.889 19.779,1.347 20.989,1.804C21.101,1.847 21.214,1.889 21.326,1.931C22.266,2.286 23.206,2.639 24.147,2.992C24.584,3.156 25.021,3.32 25.458,3.484C25.553,3.519 25.646,3.596 25.699,3.692C25.75,3.785 25.766,3.893 25.724,4.001C25.456,4.697 25.118,5.35 24.706,5.959C24.849,6.059 24.971,6.192 25.063,6.347C25.179,6.543 25.248,6.775 25.253,7.022C25.269,7.847 24.535,8.407 23.926,8.812C23.87,8.85 23.813,8.872 23.759,8.882C24.349,11.191 24.914,13.508 25.393,15.843L25.426,16.005C25.92,18.449 26.239,20.944 25.772,23.42C25.369,25.553 24.435,27.611 22.974,29.199C21.542,30.756 19.621,31.737 17.542,31.955ZM4.751,17.895C4.497,17.069 4.362,16.17 4.46,15.332C4.521,14.805 4.676,14.298 4.927,13.834C5.072,13.568 5.247,13.322 5.439,13.09L5.505,13.012C5.539,12.973 5.572,12.936 5.582,12.89C5.588,12.864 5.582,12.834 5.567,12.8C5.532,12.723 5.466,12.648 5.406,12.576C5.367,12.53 5.329,12.485 5.297,12.441C4.74,11.668 4.324,10.748 4.459,9.768C4.591,8.812 5.203,7.921 5.854,7.249C7.289,5.771 9.512,5.431 11.46,5.512C12.594,5.56 13.727,5.764 14.807,6.122C15.339,6.298 15.86,6.513 16.366,6.759L16.478,6.814C16.538,6.844 16.599,6.874 16.659,6.905C17.055,7.103 17.452,7.304 17.881,7.412C18.72,7.623 19.288,7.179 19.886,6.731C20.091,6.577 20.299,6.422 20.52,6.285L20.566,6.258C20.965,6.021 21.442,5.862 21.9,5.869C22.298,5.875 22.682,6.005 22.995,6.313C23.059,6.376 23.096,6.445 23.113,6.514C23.148,6.563 23.176,6.622 23.194,6.692C23.306,7.123 23.418,7.553 23.529,7.984L23.62,7.924C23.889,7.745 24.181,7.541 24.314,7.241C24.364,7.126 24.357,6.934 24.293,6.793C24.271,6.743 24.241,6.699 24.2,6.672C24.17,6.652 24.134,6.643 24.093,6.646C23.991,6.66 23.898,6.644 23.819,6.61C23.728,6.571 23.655,6.506 23.608,6.428C23.56,6.348 23.538,6.254 23.55,6.156C23.56,6.072 23.595,5.984 23.665,5.902C24.124,5.36 24.511,4.762 24.805,4.113L22.861,3.376C22.167,3.114 21.474,2.852 20.78,2.591L20.401,2.448C19.139,1.974 17.87,1.511 16.559,1.206C13.952,0.6 11.233,0.742 8.634,1.313L8.477,1.348C7.386,1.591 6.28,1.886 5.279,2.398C4.787,2.65 4.32,2.955 3.919,3.342C3.742,3.512 3.581,3.699 3.421,3.886C3.197,4.147 2.972,4.408 2.705,4.628L2.457,4.831C2.088,5.135 1.756,5.432 1.548,5.903C1.33,6.397 1.226,6.942 1.141,7.473C0.928,8.81 0.843,10.169 0.852,11.524C0.865,13.798 1.203,16.027 1.629,18.247C1.971,17.746 2.452,17.357 3.068,17.274C3.47,17.22 3.869,17.297 4.215,17.479C4.415,17.584 4.597,17.725 4.751,17.895ZM4.105,20.597C3.655,20.418 3.182,20.359 2.706,20.445C2.656,20.454 2.608,20.443 2.568,20.419C2.527,20.395 2.495,20.357 2.478,20.315C2.458,20.266 2.457,20.213 2.475,20.166C2.49,20.126 2.519,20.086 2.573,20.06C3.089,19.808 3.663,19.697 4.232,19.776L4.288,19.784C4.579,19.828 4.988,19.921 5.295,20.104C5.536,20.248 5.713,20.446 5.757,20.705C5.78,20.84 5.747,20.981 5.671,21.083C5.597,21.182 5.485,21.248 5.34,21.244C5.083,21.236 4.932,21.125 4.749,20.982C4.727,20.964 4.704,20.946 4.68,20.928C4.504,20.793 4.311,20.678 4.105,20.597Z"/>
                </g>
                <g id="FACE" transform="matrix(1,0,0,1,22.5108,17.8056)">
                    <path id="ðŸ–-Ink2" serif:id="ðŸ–-Ink" d="M11.837,16.393C11.327,16.539 10.78,16.552 10.26,16.401C9.789,16.265 9.305,15.965 8.958,15.567C8.65,15.214 8.45,14.786 8.458,14.328C8.459,14.275 8.478,14.232 8.507,14.198C8.538,14.161 8.582,14.136 8.629,14.126C8.678,14.114 8.729,14.118 8.772,14.138C8.811,14.155 8.845,14.185 8.866,14.229C8.92,14.298 8.973,14.366 9.026,14.432C9.455,14.955 9.87,15.345 10.514,15.485C10.864,15.561 11.213,15.527 11.534,15.411C11.877,15.287 12.187,15.069 12.43,14.79C12.54,14.664 12.669,14.612 12.796,14.611C12.94,14.61 13.082,14.676 13.189,14.782C13.294,14.885 13.364,15.026 13.371,15.173C13.376,15.302 13.334,15.436 13.22,15.557C12.846,15.953 12.361,16.243 11.837,16.393ZM11.821,9.854C12.344,10.168 13.14,10.898 12.578,11.675C11.916,12.36 10.963,11.575 10.494,11.22C10.058,10.944 9.569,11.652 9.973,11.974C13.366,14.451 14.743,9.936 12.085,9.486C11.793,9.436 11.684,9.757 11.821,9.854ZM6.933,8.476C6.765,8.37 6.567,8.333 6.348,8.432C6.177,8.508 5.877,8.764 5.668,9.101C5.525,9.331 5.424,9.601 5.445,9.882C5.45,9.947 5.425,9.995 5.387,10.031C5.356,10.059 5.312,10.08 5.26,10.086C5.217,10.092 5.167,10.087 5.127,10.075C5.051,10.051 5.011,10.002 4.996,9.963C4.85,9.58 4.913,9.152 5.077,8.767C5.298,8.246 5.7,7.81 5.963,7.67C6.413,7.429 6.944,7.418 7.395,7.663C7.779,7.872 8.019,8.208 8.258,8.552C8.309,8.625 8.359,8.697 8.411,8.768C8.516,8.911 8.526,9.052 8.486,9.174C8.441,9.308 8.327,9.422 8.184,9.481C8.052,9.536 7.899,9.543 7.764,9.487C7.649,9.439 7.544,9.347 7.478,9.189C7.366,8.924 7.179,8.631 6.933,8.476ZM15.463,9.066C15.348,9.125 15.258,9.143 15.13,9.105C15.06,9.084 14.99,9.044 14.935,8.99C14.881,8.937 14.842,8.87 14.827,8.797C14.79,8.615 14.689,8.445 14.545,8.334C14.423,8.239 14.268,8.189 14.096,8.217C13.91,8.248 13.733,8.365 13.612,8.504C13.571,8.55 13.539,8.603 13.507,8.655C13.447,8.752 13.389,8.843 13.306,8.915C13.275,8.942 13.228,8.961 13.182,8.961C13.163,8.961 13.144,8.958 13.126,8.953C12.942,8.77 12.906,8.631 12.912,8.494C12.918,8.349 12.976,8.203 13.069,8.067C13.288,7.748 13.703,7.486 13.983,7.426C14.366,7.345 14.747,7.442 15.052,7.654C15.366,7.871 15.599,8.208 15.672,8.589C15.689,8.68 15.682,8.779 15.646,8.865C15.612,8.949 15.551,9.02 15.463,9.066ZM7.778,5.068C7.548,5.29 7.276,5.324 7,5.354C6.847,5.371 6.725,5.385 6.605,5.412C6.274,5.486 5.947,5.596 5.649,5.756C5.338,5.923 4.998,6.124 4.754,6.382C4.696,6.443 4.641,6.508 4.586,6.572C4.536,6.631 4.488,6.688 4.437,6.742C4.379,6.805 4.323,6.871 4.268,6.936C4.234,6.992 4.228,7.005 4.221,7.019C4.21,7.041 4.198,7.065 4.185,7.09C4.166,7.125 4.144,7.163 4.121,7.198C4.083,7.262 4.062,7.279 4.044,7.287C4.015,7.3 3.987,7.306 3.96,7.303C3.934,7.3 3.91,7.288 3.887,7.268C3.769,7.169 3.734,7.008 3.737,6.836C3.743,6.576 3.84,6.288 3.93,6.111C4.138,5.699 4.428,5.271 4.776,4.964C5.172,4.613 5.607,4.348 6.106,4.165C6.416,4.051 6.774,3.947 7.112,3.96C7.355,3.97 7.587,4.041 7.779,4.219C7.897,4.328 7.953,4.484 7.953,4.639C7.953,4.797 7.895,4.957 7.778,5.068ZM15.931,7.093C15.916,7.117 15.896,7.133 15.874,7.143C15.85,7.153 15.824,7.156 15.798,7.152C15.773,7.148 15.749,7.137 15.73,7.119C15.712,7.103 15.698,7.081 15.692,7.054C15.539,6.392 15.242,5.9 14.609,5.583C14.298,5.426 13.94,5.327 13.601,5.248C13.502,5.225 13.398,5.21 13.293,5.195C12.965,5.148 12.634,5.093 12.419,4.831C12.29,4.674 12.236,4.472 12.267,4.287C12.296,4.114 12.399,3.954 12.586,3.859C13.052,3.621 13.631,3.854 14.101,4.053C14.136,4.068 14.17,4.082 14.204,4.096C14.664,4.288 15.084,4.54 15.429,4.902C15.702,5.189 15.956,5.613 16.058,6.049C16.143,6.412 16.123,6.783 15.931,7.093Z"/>
                </g>
            </g>
        </g>
    </g>
</svg>
