<?xml version="1.0" encoding="UTF-8" standalone="no"?>
<!DOCTYPE svg PUBLIC "-//W3C//DTD SVG 1.1//EN" "http://www.w3.org/Graphics/SVG/1.1/DTD/svg11.dtd">
<svg width="100%" height="100%" viewBox="0 0 50 71" version="1.1" xmlns="http://www.w3.org/2000/svg" xmlns:xlink="http://www.w3.org/1999/xlink" xml:space="preserve" xmlns:serif="http://www.serif.com/" style="fill-rule:evenodd;clip-rule:evenodd;stroke-linejoin:round;stroke-miterlimit:2;">
    <g transform="matrix(-1,0,0,1,50,0.270648)">
        <g id="Introduction">
            <g id="avatar-girl-1">
                <g id="BODY" transform="matrix(0.585006,0,0,0.729352,7.3075,35.2694)">
                    <path id="_--Skin" serif:id="âœ‹-Skin" d="M47.695,42.875C47.541,41.445 47.446,40.004 47.391,38.567C47.337,37.131 47.408,35.677 47.439,34.241C47.503,31.319 47.607,28.39 47.374,25.473C47.153,22.715 46.647,19.977 45.849,17.328C45.46,16.038 45.05,14.696 44.411,13.503C43.768,12.305 42.75,11.507 41.631,10.775C40.44,9.995 39.258,9.201 38.072,8.415C37.076,7.754 35.284,6.986 34.466,6.103C33.607,5.174 33.445,2.872 32.872,1.772C32.315,0.7 30.736,0.001 29.521,0.001C27.509,0.001 25.985,-0.102 24.33,1.755C23.505,2.681 24.162,3.618 23.296,4.507C22.501,5.324 20.467,6.165 19.442,6.639C18.214,7.207 16.955,7.709 15.678,8.155C14.375,8.611 13.04,8.951 11.73,9.381C10.474,9.793 8.835,11.493 7.86,12.392C6.953,13.228 6.729,13.134 6.04,14.15C4.527,16.379 3.014,18.633 1.81,21.047C1.21,22.249 0.629,23.513 0.411,24.848C0.179,26.272 0.409,27.648 0.786,29.027C1.169,30.43 2.386,31.765 2.782,33.165C2.965,33.81 2.338,34.514 2.626,35.121C2.77,35.425 2.952,35.695 3.158,35.96C3.317,36.163 3.938,36.118 4.018,36.368C4.099,36.619 3.65,37.142 3.644,37.403C3.634,37.776 3.619,38.149 3.607,38.522L3.535,40.728C3.487,42.177 3.439,43.627 3.392,45.076C3.376,45.549 3.353,46.011 3.467,46.46C3.426,46.422 3.387,46.381 3.351,46.335C3.247,46.199 3.026,46.314 3.114,46.473C3.262,46.738 3.475,46.925 3.724,47.059C4.014,47.485 47.946,48.438 48.162,47.191C48.284,46.491 48.063,45.742 47.975,45.046C47.883,44.322 47.774,43.601 47.695,42.875Z" style="fill:white;"/>
                    <path id="ðŸ‘•-Top" d="M1.913,22.056L47.287,24.531C47.32,24.845 47.349,25.159 47.374,25.473C47.607,28.39 47.503,31.319 47.439,34.241C47.431,34.628 47.419,35.017 47.408,35.406L42.932,36.143L11.111,36.906L3.158,35.96L2.828,35.389L2.6,34.395C2.698,33.987 2.895,33.565 2.782,33.165C2.749,33.048 2.711,32.932 2.667,32.817L2.708,32.019L1.913,22.056Z" style="fill:white;"/>
                    <path id="ðŸ–-Ink" d="M3.069,24.851C3.176,24.543 3.668,24.676 3.56,24.986C3.003,26.576 3.398,28.306 3.999,29.823C4.12,30.128 3.628,30.259 3.509,29.958C2.876,28.362 2.484,26.52 3.069,24.851M6.799,33.932C8.369,34.153 9.939,34.288 11.519,34.398C11.589,34.403 11.651,34.393 11.703,34.37C11.656,35.091 11.618,35.814 11.588,36.536C11.157,36.524 10.718,36.553 10.291,36.541C9.733,36.526 9.175,36.498 8.619,36.456C7.541,36.374 6.465,36.245 5.399,36.066C5.001,35.999 4.495,35.959 4.041,35.827C3.612,35.702 3.23,35.495 3.03,35.105C2.859,34.775 2.828,34.37 2.828,34.005C2.828,33.754 2.871,33.499 2.898,33.245C2.93,33.223 2.959,33.195 2.983,33.165C3.456,33.314 3.947,33.419 4.429,33.52C5.212,33.687 6.007,33.821 6.799,33.932M5.914,28.063C5.923,28.548 6.058,28.989 6.319,29.397C6.497,29.674 6.056,29.928 5.88,29.653C5.572,29.172 5.416,28.633 5.405,28.063C5.4,27.735 5.909,27.736 5.914,28.063M46.137,33.356C46.349,33.368 46.563,33.375 46.776,33.386C46.964,33.547 47.225,33.629 47.462,33.578C47.47,33.598 47.478,33.621 47.485,33.648C47.527,33.811 47.548,33.986 47.572,34.153C47.596,34.316 47.614,34.481 47.627,34.646C47.634,34.73 47.674,34.917 47.623,34.99C47.577,35.055 47.476,35.05 47.406,35.058C47.217,35.078 47.027,35.088 46.837,35.104C46.479,35.135 46.12,35.166 45.763,35.197C45.412,35.227 45.027,35.218 44.684,35.31C44.626,34.624 44.572,33.937 44.523,33.25C45.054,33.329 45.609,33.327 46.137,33.356M1.588,32.218C1.802,32.63 1.999,33.035 2.408,33.282C2.462,33.314 2.522,33.331 2.583,33.336C2.537,33.532 2.508,33.732 2.483,33.918C2.427,34.326 2.415,34.748 2.517,35.15C2.617,35.542 2.782,35.892 3.107,36.143C3.258,36.26 3.423,36.348 3.596,36.419C3.566,36.501 3.549,36.582 3.558,36.672C3.517,36.879 3.489,37.091 3.459,37.293C3.394,37.742 3.328,38.192 3.277,38.644C3.174,39.543 3.093,40.442 3.025,41.344C2.957,42.244 2.908,43.145 2.867,44.046C2.846,44.507 2.828,44.968 2.81,45.429C2.793,45.904 2.716,46.388 2.926,46.828C3.095,47.184 3.667,47.164 3.843,46.828C4.066,46.402 4,45.897 4.006,45.429C4.012,44.989 4.019,44.549 4.029,44.109C4.048,43.208 4.076,42.308 4.098,41.407C4.12,40.528 4.147,39.649 4.164,38.77C4.173,38.31 4.174,37.85 4.177,37.389C4.178,37.134 4.189,36.862 4.17,36.596C4.329,36.633 4.489,36.665 4.647,36.697C5.857,36.945 7.079,37.125 8.309,37.237C8.927,37.293 9.547,37.332 10.167,37.355C10.622,37.371 11.094,37.403 11.557,37.386C11.521,38.488 11.504,39.59 11.506,40.693C11.507,41.488 11.518,42.284 11.538,43.079C11.549,43.498 11.558,43.916 11.57,44.334C11.576,44.522 11.576,44.712 11.589,44.899C11.593,44.958 11.601,45.014 11.612,45.07C11.57,45.189 11.535,45.306 11.506,45.416C11.366,45.949 11.366,46.462 11.428,47.005C11.482,47.466 11.871,47.893 12.384,47.731C12.468,47.705 12.551,47.678 12.634,47.65C13.39,47.736 14.15,47.755 14.917,47.77C16.037,47.791 17.158,47.798 18.28,47.804C20.479,47.816 22.678,47.821 24.878,47.828C29.298,47.84 33.719,47.852 38.139,47.865C39.366,47.869 40.593,47.872 41.82,47.876C42.455,47.878 43.088,47.878 43.723,47.903C44.019,47.914 44.315,47.93 44.611,47.934C44.954,47.94 45.258,47.842 45.585,47.752C45.77,47.701 45.844,47.515 45.804,47.359C46.101,47.429 46.46,47.279 46.561,46.946C46.635,46.704 46.608,46.442 46.498,46.218L46.498,46.217C46.285,44.878 46.015,43.546 45.804,42.206C45.571,40.739 45.348,39.269 45.151,37.796C45.004,36.684 44.882,37.473 44.777,36.355C45.235,36.391 45.752,36.252 46.205,36.193C46.53,36.151 46.858,36.117 47.184,36.073C47.16,36.4 47.167,36.734 47.158,37.049C47.14,37.673 47.148,38.294 47.164,38.918C47.195,40.122 47.263,39.421 47.371,40.621C47.482,41.829 47.616,43.032 47.78,44.235C47.864,44.854 47.954,45.472 48.048,46.09C48.092,46.378 48.138,46.665 48.184,46.954C48.239,47.293 48.257,47.615 48.512,47.87C48.706,48.064 49.103,48.047 49.231,47.777C49.394,47.437 49.32,47.145 49.26,46.787C49.211,46.499 49.164,46.211 49.117,45.924C49.018,45.307 48.924,44.69 48.836,44.073C48.665,42.883 48.504,41.69 48.36,40.497C48.215,39.294 48.065,39.997 47.922,38.794C47.851,38.187 47.779,37.581 47.695,36.976C47.652,36.665 47.625,36.334 47.569,36.013C47.587,36.011 47.605,36.007 47.623,36.004C48.01,35.934 48.34,35.716 48.437,35.319C48.53,34.938 48.419,34.501 48.341,34.128C48.274,33.81 48.214,33.404 48.009,33.132C48.732,32.213 49.202,31.057 49.502,29.946C49.828,28.735 49.965,27.472 49.994,26.221C50.028,24.771 49.918,23.33 49.669,21.913C49.663,21.613 49.649,21.312 49.627,21.013C49.408,18.07 48.489,14.586 45.576,13.211C45.565,13.206 45.553,13.201 45.541,13.196C45.312,12.923 45.027,12.678 44.797,12.449C44.389,12.043 43.963,11.654 43.511,11.296C42.616,10.587 41.635,10.021 40.615,9.511C39.584,8.995 38.537,8.511 37.529,7.948C36.651,7.456 35.861,6.865 35.11,6.197C34.267,5.446 33.667,4.433 33.432,3.328C33.42,3.27 33.334,3.286 33.333,3.341C33.271,5.367 34.642,7.157 36.219,8.29C38.105,9.643 40.382,10.283 42.295,11.595C42.77,11.92 43.215,12.288 43.638,12.678C42.99,12.612 42.33,12.654 41.722,12.833C41.483,12.818 41.243,12.814 41.003,12.803C40.454,12.775 39.905,12.75 39.356,12.726C38.237,12.676 37.117,12.631 35.997,12.592C33.8,12.514 31.602,12.456 29.404,12.417C24.988,12.339 20.565,12.324 16.149,12.452C14.952,12.486 8.655,12.248 8.072,12.315C8.929,11.575 9.87,10.971 10.904,10.474C12.197,9.853 13.534,9.439 14.915,9.061C17.76,8.282 20.715,7.531 22.991,5.552C23.557,5.06 24.06,4.495 24.471,3.868C24.865,3.27 25.302,2.505 25.313,1.775C25.32,1.257 24.597,1.069 24.34,1.513C24.181,1.787 24.102,2.089 23.971,2.377C23.842,2.663 23.688,2.938 23.516,3.202C23.18,3.72 22.762,4.182 22.308,4.599C21.34,5.489 20.166,6.141 18.952,6.634C16.196,7.753 13.181,8.226 10.569,9.701C9.426,10.347 8.332,11.237 7.646,12.373C7.535,12.391 7.425,12.411 7.315,12.434C7.397,12.33 7.48,12.227 7.563,12.124C7.618,12.057 7.533,11.968 7.466,12.028C6.168,13.18 4.971,14.425 3.887,15.782C2.85,17.081 1.883,18.442 1.198,19.963C-0.033,22.696 -0.304,25.821 0.332,28.742C0.505,29.538 0.749,30.318 1.061,31.071C1.221,31.46 1.395,31.844 1.588,32.218"/>
                </g>
                <g id="HEAD" transform="matrix(1,0,0,1,9.01525,10.2846)">
                    <path id="_--Skin1" serif:id="âœ‹-Skin" d="M30.44,23.381C30.186,23.009 29.572,20.313 29.18,19.898C29.21,18.305 29.656,12.79 28.381,10.31C28.649,10.043 29.362,7.738 29.18,6.867C29.781,5.043 25.921,2.145 24.452,1.362C17.626,-2.249 7.733,1.737 4.628,8.425C2.763,12.453 2.728,16.963 2.517,21.298C2.492,22.225 2.406,23.16 2.407,24.087C2.542,24.901 3.196,25.73 2.7,26.407C2.152,26.781 1.044,27.692 1.537,28.209C1.826,28.446 2.288,28.309 2.602,28.537C2.762,28.625 2.861,28.818 3.048,28.848C4.754,28.784 5.958,28.778 7.669,28.71C8.419,28.686 9.559,28.998 10.419,28.376C13.423,30.024 12.167,27.633 12.774,25.931C14.624,26.548 18.309,28.515 20.28,28.579C21.882,28.774 23.381,27.854 24.956,28.063C26.913,28.78 29.206,28.939 30.998,27.726C31.446,27.409 31.943,27.777 32.507,27.434C33.603,26.917 30.993,23.954 30.44,23.381Z" style="fill:white;"/>
                    <path id="ðŸ’ˆ-Hair" d="M4.628,8.425C7.733,1.737 17.626,-2.249 24.452,1.362C25.921,2.145 29.781,5.043 29.18,6.867C29.318,7.526 28.944,9.003 28.637,9.801C27.214,10.839 23.057,10.623 16.168,9.155L15.904,9.098L13.551,10.473L12.585,14.055C11.936,14.688 11.412,15.461 11.012,16.374C10.364,15.671 9.559,15.365 8.598,15.454C7.66,15.848 6.97,16.277 6.527,16.741C6.092,17.196 6.083,18.216 6.5,19.8L6.527,19.898L8.598,20.534L9.559,20.534L12.199,23.717L12.585,26.991C12.498,28.424 12.826,29.696 10.419,28.376C9.559,28.998 8.419,28.686 7.669,28.71C5.958,28.778 4.754,28.784 3.048,28.848C2.861,28.818 2.762,28.625 2.602,28.537C2.288,28.309 1.826,28.446 1.537,28.209C1.044,27.692 2.152,26.781 2.7,26.407C3.196,25.73 2.542,24.901 2.407,24.087C2.406,23.16 2.492,22.225 2.517,21.298L2.536,20.907C2.732,16.693 2.819,12.332 4.628,8.425ZM28.605,21.394L29.206,19.147L29.193,19.485C29.187,19.642 29.182,19.781 29.18,19.898C29.572,20.313 30.186,23.009 30.44,23.381L30.495,23.439C31.147,24.13 33.57,26.932 32.507,27.434C31.943,27.777 31.446,27.409 30.998,27.726C29.206,28.939 26.913,28.78 24.956,28.063C24.726,28.033 24.499,28.026 24.272,28.036L24.178,27.748L26.32,25.931L28.605,21.394Z" style="fill:white;"/>
                    <path id="ðŸ–-Ink1" serif:id="ðŸ–-Ink" d="M28.203,10.099C28.179,9.961 28.371,9.859 28.446,9.998C28.986,11.011 29.202,12.184 29.393,13.303C29.587,14.434 29.714,15.569 29.721,16.717C29.727,17.6 29.646,18.493 29.493,19.377L29.512,19.44C29.546,19.555 29.58,19.671 29.615,19.786L29.668,19.959C29.77,20.291 29.867,20.625 29.971,20.956C30.19,21.647 30.42,22.34 30.702,23.009C30.977,23.662 31.311,24.292 31.709,24.88C32.092,25.447 32.701,25.927 32.971,26.557C33.065,26.776 32.925,27.066 32.666,27.031C32.649,27.051 32.623,27.066 32.588,27.069C32.386,27.086 32.197,27.07 31.996,27.051C31.883,27.041 31.883,26.889 31.996,26.879C32.081,26.871 32.164,26.864 32.248,26.859C31.672,26.523 31.261,25.866 30.933,25.328C30.51,24.636 30.192,23.881 29.932,23.117C29.665,22.333 29.476,21.533 29.324,20.72C29.306,20.626 29.29,20.533 29.274,20.439C29.082,21.244 28.835,22.034 28.542,22.793L28.501,22.898C27.826,24.625 26.911,26.368 25.39,27.509C25.321,27.56 25.251,27.61 25.18,27.658L25.266,27.707C25.352,27.755 25.437,27.802 25.52,27.84C25.828,27.981 26.161,28.089 26.491,28.165C27.173,28.323 27.889,28.278 28.584,28.3C28.812,28.307 28.942,28.644 28.709,28.754C27.941,29.115 27.111,29.038 26.318,28.784C25.926,28.659 25.558,28.483 25.217,28.253C25.076,28.158 24.913,28.041 24.775,27.906C23.254,28.745 21.363,28.839 19.67,28.539C18.79,28.383 17.938,28.098 17.188,27.61C16.466,27.142 15.952,26.548 15.585,25.779C15.552,25.711 15.643,25.626 15.698,25.693C16.852,27.075 18.836,27.651 20.583,27.761C21.514,27.819 22.467,27.771 23.363,27.496C24.213,27.235 24.942,26.757 25.551,26.121C26.785,24.831 27.524,23.078 28.055,21.409C28.633,19.593 28.908,17.683 28.964,15.783C28.993,14.82 28.957,13.849 28.804,12.897C28.652,11.953 28.369,11.039 28.203,10.099ZM10.911,1.92C10.993,1.879 11.05,1.985 10.981,2.038C9.543,3.125 8.255,4.505 7.213,5.965C5.29,8.657 4.057,11.773 3.489,15.011C3.154,16.923 3.067,18.864 3.1,20.801C3.113,21.571 3.158,22.338 3.207,23.106L3.263,23.957C3.289,24.353 3.311,24.746 3.294,25.144L3.29,25.236C3.263,25.7 3.309,26.167 3.191,26.619C3.131,26.851 2.799,26.888 2.679,26.685C2.656,26.646 2.634,26.605 2.613,26.564C2.331,27.016 1.967,27.421 1.562,27.782C1.756,27.742 1.951,27.716 2.151,27.739C2.469,27.777 2.754,27.898 2.955,28.11C3.155,28.021 3.361,27.96 3.597,27.958C3.772,27.958 3.902,28.161 3.803,28.312C3.605,28.613 3.328,28.782 3.013,28.949C2.791,29.067 2.525,28.966 2.442,28.732L2.438,28.718C2.345,28.422 1.852,28.47 1.62,28.515L1.552,28.529C1.119,28.618 0.697,28.732 0.256,28.614C-0.028,28.539 -0.103,28.117 0.171,27.977C1.037,27.534 1.764,26.94 2.511,26.343C2.346,25.944 2.252,25.499 2.144,25.093C1.992,24.522 1.948,23.908 1.893,23.322C1.789,22.207 1.749,21.08 1.76,19.961C1.798,16.182 2.453,12.39 4.127,8.967C4.861,7.468 5.824,6.081 6.963,4.853C8.096,3.632 9.418,2.668 10.911,1.92ZM9.571,20.43C9.526,20.369 9.613,20.289 9.674,20.329C10.99,21.181 11.904,22.476 12.493,23.899C13.077,25.307 13.435,27.032 12.859,28.501C12.768,28.735 12.329,28.821 12.284,28.501C12.084,27.068 12.053,25.634 11.611,24.241C11.174,22.861 10.426,21.597 9.571,20.43ZM8.55,25.08C8.557,25.055 8.599,25.059 8.598,25.087C8.565,25.592 8.542,26.103 8.478,26.605C8.447,26.849 8.405,27.092 8.37,27.335C8.334,27.585 8.339,27.837 8.192,28.051C7.997,28.333 7.478,28.254 7.496,27.865C7.508,27.596 7.633,27.424 7.75,27.188C7.825,27.037 7.891,26.881 7.954,26.724L8.048,26.489C8.234,26.022 8.413,25.564 8.55,25.08ZM6.193,23.742C6.201,23.703 6.266,23.712 6.264,23.752C6.229,24.467 6.147,25.174 6.019,25.878C5.961,26.199 5.893,26.518 5.821,26.837L5.79,26.973C5.713,27.308 5.663,27.703 5.491,28.002C5.318,28.302 4.909,28.084 4.962,27.782C5.024,27.43 5.243,27.076 5.371,26.737C5.488,26.425 5.591,26.107 5.687,25.788C5.889,25.115 6.055,24.43 6.193,23.742ZM10.583,25.727L10.598,25.712C10.658,25.647 10.747,25.69 10.776,25.758C10.893,26.036 10.834,26.363 10.826,26.658L10.824,26.722C10.818,27.021 10.822,27.301 10.685,27.576C10.518,27.911 10.079,27.703 10.045,27.405C10.008,27.08 10.164,26.762 10.264,26.458C10.328,26.264 10.375,26.063 10.472,25.887C10.389,25.902 10.306,25.93 10.23,25.95C10.196,25.959 10.183,25.91 10.216,25.899C10.341,25.855 10.483,25.822 10.583,25.727ZM28.106,26.713C28.066,26.668 28.116,26.609 28.168,26.633C28.794,26.922 29.38,27.109 30.071,27.171C30.37,27.197 30.372,27.661 30.071,27.634C29.35,27.57 28.594,27.251 28.106,26.713ZM6.083,16.97C6.634,15.747 8.377,14.663 9.546,15.8C9.568,15.821 9.546,15.867 9.514,15.854C8.787,15.557 7.897,15.935 7.393,16.476C6.994,16.905 6.754,17.455 6.707,18.036C6.659,18.617 6.8,19.223 7.191,19.673C7.396,19.908 7.673,20.131 7.999,20.16C8.329,20.188 8.603,19.96 8.914,19.898C9.149,19.851 9.326,19.996 9.349,20.224C9.4,20.728 8.892,21.066 8.451,21.148C7.977,21.236 7.493,21.139 7.085,20.886C5.766,20.068 5.482,18.304 6.083,16.97ZM18.458,4.985C18.697,4.759 19.105,4.984 19.016,5.306C18.828,5.992 18.429,6.572 17.986,7.122C17.56,7.651 17.103,8.16 16.614,8.634C16.128,9.104 15.6,9.539 15.045,9.928L14.878,10.045C14.485,10.318 14.068,10.595 13.628,10.792C13.521,11.695 13.313,12.586 12.999,13.44C12.696,14.261 12.31,15.055 11.843,15.798L11.776,15.905C11.346,16.584 10.83,17.342 10.102,17.714C10.08,17.725 10.058,17.732 10.036,17.736C10.199,17.843 10.337,17.978 10.419,18.172C10.509,18.384 10.321,18.584 10.141,18.654C9.761,18.802 9.39,18.552 9.048,18.284C9.034,18.316 9.02,18.348 9.009,18.381C8.932,18.595 8.91,18.813 8.713,18.955C8.619,19.022 8.504,18.962 8.445,18.886C8.252,18.635 8.452,18.294 8.621,18.089C8.645,18.061 8.669,18.034 8.694,18.009C8.623,17.956 8.552,17.91 8.485,17.875C8.086,17.666 7.494,17.63 7.264,18.091C7.247,18.126 7.191,18.108 7.191,18.071C7.192,17.505 7.78,17.197 8.291,17.155C8.665,17.124 9.026,17.254 9.361,17.404L9.424,17.432C9.549,17.489 9.678,17.543 9.801,17.604C9.781,17.552 9.781,17.49 9.813,17.43C10.199,16.685 10.863,16.08 11.341,15.391C11.816,14.707 12.223,13.976 12.548,13.212C12.864,12.47 13.111,11.705 13.284,10.925C13.227,10.937 13.163,10.887 13.167,10.828C13.176,10.686 13.247,10.558 13.37,10.504C13.506,9.77 13.576,9.024 13.572,8.272C13.572,8.213 13.657,8.215 13.662,8.272C13.722,8.94 13.727,9.616 13.677,10.287C13.998,9.995 14.337,9.718 14.647,9.419C15.113,8.968 15.563,8.506 15.998,8.026C16.441,7.536 16.86,7.029 17.244,6.492L17.444,6.21C17.753,5.778 18.07,5.351 18.458,4.985ZM17.853,0.166C20.498,0.003 23.323,0.324 25.699,1.549C27.004,2.221 28.012,3.237 28.733,4.502C29.163,5.258 29.49,6.094 29.613,6.954C29.74,7.838 29.591,8.626 29.019,9.328C28.792,9.607 28.409,9.295 28.465,9.01C28.808,7.264 28.252,5.539 27.267,4.093C25.838,1.996 23.341,1.064 20.911,0.648C19.717,0.444 18.506,0.359 17.294,0.4C16.371,0.432 15.423,0.517 14.547,0.824C14.51,0.836 14.495,0.78 14.53,0.766C15.576,0.372 16.743,0.234 17.853,0.166ZM21.776,4.114C21.912,4.029 22.078,4.116 22.125,4.255C22.29,4.742 21.944,5.385 21.713,5.806C21.451,6.283 21.114,6.729 20.767,7.148C20.071,7.985 19.157,8.684 18.154,9.124C18.092,9.151 18.021,9.077 18.077,9.026C18.853,8.313 19.557,7.548 20.166,6.691C20.466,6.27 20.715,5.825 20.954,5.369C21.167,4.96 21.368,4.369 21.776,4.114ZM26.224,4.688C26.311,4.388 26.807,4.439 26.787,4.763C26.733,5.599 26.333,6.439 25.899,7.147C25.451,7.877 24.884,8.528 24.235,9.089C24.203,9.117 24.159,9.074 24.188,9.043C24.748,8.438 25.201,7.748 25.537,6.998C25.871,6.249 25.998,5.467 26.224,4.688ZM23.761,4.552C23.856,4.292 24.309,4.311 24.282,4.622C24.205,5.476 23.697,6.372 23.226,7.077C22.726,7.826 22.089,8.486 21.376,9.04C21.349,9.06 21.311,9.026 21.337,9.002C21.978,8.407 22.497,7.72 22.908,6.953C23.118,6.562 23.294,6.155 23.432,5.734C23.561,5.345 23.621,4.936 23.761,4.552Z"/>
                </g>
                <g id="FACE" transform="matrix(1,0,0,1,22.0152,18.2846)">
                    <path id="ðŸ–-Ink2" serif:id="ðŸ–-Ink" d="M10.653,15.573C10.194,15.712 9.702,15.724 9.234,15.581C8.81,15.452 8.374,15.166 8.062,14.789C7.785,14.454 7.605,14.046 7.612,13.611C7.613,13.562 7.63,13.52 7.656,13.488C7.685,13.453 7.724,13.43 7.766,13.419C7.81,13.409 7.856,13.412 7.895,13.431C7.93,13.448 7.961,13.476 7.98,13.518C8.028,13.583 8.075,13.648 8.123,13.711C8.509,14.207 8.883,14.577 9.463,14.71C9.778,14.783 10.092,14.751 10.38,14.64C10.689,14.523 10.968,14.315 11.187,14.05C11.286,13.931 11.403,13.882 11.517,13.881C11.646,13.88 11.774,13.942 11.87,14.042C11.965,14.141 12.028,14.274 12.034,14.414C12.039,14.537 12,14.665 11.898,14.779C11.562,15.155 11.125,15.431 10.653,15.573ZM10.639,9.362C11.109,9.659 11.826,10.353 11.32,11.091C10.724,11.742 9.867,10.996 9.444,10.659C9.053,10.397 8.612,11.07 8.976,11.375C12.029,13.729 13.268,9.44 10.877,9.012C10.614,8.965 10.516,9.27 10.639,9.362ZM6.239,8.052C6.088,7.951 5.91,7.917 5.713,8.01C5.559,8.083 5.289,8.326 5.101,8.646C4.973,8.864 4.881,9.121 4.9,9.388C4.905,9.45 4.883,9.496 4.848,9.529C4.821,9.556 4.781,9.576 4.734,9.582C4.695,9.587 4.651,9.582 4.615,9.571C4.546,9.549 4.51,9.502 4.496,9.465C4.365,9.101 4.422,8.695 4.569,8.328C4.768,7.834 5.13,7.42 5.367,7.286C5.772,7.057 6.25,7.047 6.656,7.28C7.001,7.478 7.217,7.798 7.432,8.124C7.478,8.194 7.523,8.262 7.57,8.33C7.664,8.465 7.673,8.6 7.637,8.715C7.597,8.843 7.494,8.95 7.366,9.007C7.247,9.059 7.109,9.066 6.987,9.013C6.884,8.968 6.79,8.879 6.73,8.73C6.629,8.478 6.461,8.2 6.239,8.052ZM13.917,8.613C13.813,8.669 13.732,8.686 13.617,8.65C13.554,8.63 13.491,8.592 13.442,8.541C13.393,8.49 13.358,8.427 13.344,8.357C13.311,8.184 13.22,8.023 13.091,7.917C12.98,7.827 12.841,7.78 12.686,7.807C12.519,7.836 12.36,7.947 12.251,8.078C12.214,8.122 12.185,8.172 12.156,8.222C12.102,8.315 12.05,8.401 11.976,8.469C11.947,8.495 11.905,8.513 11.864,8.513C11.847,8.513 11.83,8.51 11.814,8.505C11.648,8.331 11.616,8.2 11.621,8.069C11.627,7.932 11.678,7.793 11.762,7.664C11.959,7.36 12.332,7.111 12.584,7.055C12.929,6.978 13.272,7.07 13.547,7.271C13.83,7.477 14.039,7.798 14.104,8.159C14.12,8.246 14.113,8.34 14.082,8.422C14.051,8.501 13.996,8.569 13.917,8.613ZM7,4.815C6.793,5.025 6.548,5.058 6.3,5.087C6.162,5.103 6.052,5.116 5.944,5.141C5.647,5.211 5.353,5.317 5.084,5.468C4.804,5.627 4.498,5.818 4.278,6.063C4.226,6.121 4.177,6.182 4.127,6.244C4.082,6.299 4.039,6.353 3.993,6.405C3.941,6.465 3.891,6.527 3.842,6.589C3.811,6.642 3.805,6.655 3.799,6.668C3.789,6.689 3.779,6.711 3.766,6.736C3.749,6.769 3.73,6.805 3.709,6.838C3.674,6.899 3.656,6.915 3.64,6.923C3.613,6.935 3.588,6.941 3.564,6.938C3.541,6.935 3.519,6.923 3.498,6.904C3.392,6.811 3.36,6.657 3.364,6.494C3.368,6.247 3.456,5.973 3.537,5.805C3.724,5.414 3.985,5.008 4.298,4.716C4.655,4.383 5.046,4.131 5.495,3.957C5.774,3.849 6.097,3.75 6.401,3.762C6.62,3.771 6.829,3.839 7.001,4.008C7.107,4.112 7.158,4.259 7.158,4.407C7.158,4.557 7.105,4.709 7,4.815ZM14.338,6.739C14.325,6.761 14.307,6.777 14.286,6.786C14.265,6.796 14.241,6.799 14.218,6.795C14.196,6.791 14.174,6.78 14.157,6.763C14.141,6.748 14.128,6.727 14.123,6.702C13.985,6.073 13.718,5.605 13.148,5.303C12.868,5.155 12.546,5.061 12.241,4.986C12.152,4.964 12.058,4.95 11.964,4.935C11.668,4.89 11.37,4.839 11.178,4.59C11.061,4.44 11.013,4.248 11.04,4.073C11.066,3.908 11.159,3.756 11.327,3.666C11.747,3.44 12.268,3.662 12.691,3.85C12.723,3.864 12.753,3.878 12.784,3.891C13.198,4.073 13.575,4.313 13.886,4.657C14.132,4.929 14.36,5.332 14.452,5.747C14.529,6.092 14.511,6.444 14.338,6.739Z"/>
                </g>
            </g>
        </g>
    </g>
</svg>
