<?xml version="1.0" encoding="UTF-8" standalone="no"?>
<!DOCTYPE svg PUBLIC "-//W3C//DTD SVG 1.1//EN" "http://www.w3.org/Graphics/SVG/1.1/DTD/svg11.dtd">
<svg width="100%" height="100%" viewBox="0 0 51 80" version="1.1" xmlns="http://www.w3.org/2000/svg" xmlns:xlink="http://www.w3.org/1999/xlink" xml:space="preserve" xmlns:serif="http://www.serif.com/" style="fill-rule:evenodd;clip-rule:evenodd;stroke-linejoin:round;stroke-miterlimit:2;">
    <g transform="matrix(-1,0,0,1,50.6384,0.213306)">
        <g id="Introduction">
            <g id="avatar-girl-10">
                <g id="BODY" transform="matrix(0.623906,0,0,0.852586,6.40407,37.2956)">
                    <path id="_--Skin" serif:id="âœ‹-Skin" d="M39.084,16.323C38.535,16.127 38.006,15.901 37.523,15.568C36.133,14.533 35.226,12.975 34.369,11.499C33.163,9.352 32.303,7.064 31.709,4.677C31.454,3.652 31.367,2.463 30.787,1.553C29.472,-0.35 25.615,-0.104 23.568,0.231C22.196,0.473 21.913,2.009 21.602,3.144C21.342,4.088 21.172,5.043 21.03,6.01C20.691,6.233 20.308,6.414 19.943,6.572C15.968,7.792 15.269,10.053 13.75,13.545C11.185,18.622 4.226,20.609 3.174,26.617C2.497,30.584 4.423,34.315 6.409,37.613C8.258,41.214 10.84,42.943 14.952,42.092C18.809,41.227 22.515,39.779 26.304,38.66C28.139,38.209 29.971,37.035 31.902,37.444C35.879,38.338 39.966,38.758 44.042,38.642C49.765,38.873 49.764,33.378 49.177,29.123C48.765,22.5 45.426,18.248 39.084,16.323Z" style="fill:white;"/>
                    <path id="ðŸ–-Ink" d="M39.467,25.906C39.945,26.222 40.347,26.702 40.67,27.207C39.322,27.067 37.977,26.905 36.634,26.721C36.81,26.608 36.987,26.498 37.169,26.395C37.831,26.021 38.728,25.417 39.467,25.906ZM17.071,29.892C16.824,29.795 16.728,29.419 16.632,29.203C16.33,28.526 16.055,27.837 15.768,27.153C16.856,26.843 17.915,26.498 19.042,26.333C20.254,26.155 21.484,26.112 22.707,26.152C25.185,26.233 27.64,26.638 30.076,27.073C32.509,27.506 34.942,27.923 37.392,28.25C39.792,28.571 42.201,28.805 44.613,29.011C45.082,29.051 45.864,29.22 46.241,28.851C46.539,28.559 46.549,28.02 46.175,27.782C45.943,27.634 45.605,27.632 45.34,27.598C45.005,27.555 44.669,27.526 44.332,27.504C44.195,27.495 44.058,27.486 43.921,27.478C45.022,27.062 46.173,26.836 47.367,26.899C47.435,27.309 47.739,27.732 47.905,28.07C48.196,28.661 48.423,29.259 48.572,29.902C48.883,31.245 48.896,32.639 48.809,34.009C48.728,35.151 48.554,36.415 47.659,37.224C46.981,37.836 46.024,38.063 45.136,38.134C44.105,38.217 43.057,38.129 42.034,37.99C40.6,37.796 39.158,37.54 37.752,37.196C35.027,36.53 32.416,35.47 30.007,34.032C28.832,33.332 27.711,32.543 26.52,31.869C25.307,31.182 24.015,30.649 22.659,30.318C21.142,29.948 19.556,29.79 17.996,29.881C17.725,29.897 17.334,29.995 17.071,29.892ZM15.313,29.205C15.472,29.722 15.594,30.313 15.934,30.748C16.271,31.179 16.78,31.331 17.307,31.37C17.942,31.416 18.585,31.386 19.222,31.41C20.527,31.458 21.815,31.671 23.064,32.06C24.227,32.423 25.307,32.988 26.347,33.616C27.309,34.196 28.243,34.82 29.205,35.398C28.949,35.516 28.695,35.643 28.441,35.753C27.907,35.985 27.37,36.209 26.83,36.427C25.766,36.858 24.697,37.278 23.618,37.668C21.441,38.454 19.228,39.141 16.989,39.726C15.921,40.006 14.837,40.332 13.728,40.378C12.744,40.419 11.832,40.141 11.039,39.556C9.393,38.342 8.084,36.59 7.025,34.862C6.396,33.835 5.847,32.756 5.393,31.641C5.164,31.076 4.956,30.504 4.768,29.924C4.68,29.652 4.597,29.379 4.518,29.104C4.483,28.983 4.45,28.862 4.417,28.74C6.1,28.226 7.803,27.763 9.546,27.505C10.477,27.368 11.42,27.298 12.36,27.308C12.827,27.313 13.294,27.338 13.759,27.387C14.009,27.413 14.258,27.446 14.506,27.487C14.608,27.504 14.713,27.53 14.819,27.548C14.98,28.101 15.143,28.654 15.313,29.205ZM50.103,27.005C50.193,26.822 50.232,26.641 50.264,26.441C50.289,26.289 50.355,26.075 50.297,25.877C50.233,25.655 50.057,25.457 49.931,25.268C49.791,25.059 49.652,24.85 49.513,24.64C49.235,24.222 48.957,23.803 48.68,23.384C47.549,21.673 46.425,19.957 45.3,18.243C44.301,16.721 43.319,15.185 42.29,13.684C41.41,12.4 40.451,11.137 39.247,10.139C37.724,8.877 35.91,8.282 34.016,7.818C33.809,7.603 33.533,7.486 33.237,7.509C32.82,7.036 32.488,6.705 32.338,6.103C32.266,5.815 32.288,5.004 32.008,4.834C31.674,4.631 31.5,4.899 31.408,5.202C31.1,6.213 31.453,7.574 32.266,8.587C31.924,9.771 31.47,11.454 30.66,12.402C29.793,13.418 28.593,13.734 27.299,13.755C24.831,13.794 22.366,12.877 20.483,11.287C19.911,10.803 19.38,10.264 18.899,9.69C18.539,9.259 18.112,8.594 17.83,8.092C17.83,7.896 17.599,7.691 19.951,7.533C22.304,7.375 22.482,4.152 22.535,3.714C22.577,3.358 22.758,2.805 22.507,2.515C22.4,2.391 22.182,2.371 22.047,2.455C21.793,2.613 21.709,3.018 21.629,3.292C21.517,3.677 21.15,6.064 20.456,6.34C20.131,6.47 19.758,6.472 19.414,6.496C18.99,6.526 18.564,6.548 18.141,6.597C17.986,6.615 17.815,6.666 17.661,6.667C17.561,6.668 17.458,6.619 17.361,6.585C17.035,6.47 16.708,6.556 16.372,6.602C13.397,7.002 10.334,7.914 7.796,9.557C5.559,11.005 3.984,13.087 2.944,15.521C1.883,18.005 1.275,20.692 0.765,23.336C0.595,24.223 0.445,25.113 0.317,26.006C0.194,26.869 0.039,27.752 0.002,28.623C-0.013,28.968 0.069,29.289 0.196,29.604C0.339,29.959 0.677,30.098 1,30.264C1.711,30.628 2.461,30.91 3.233,31.11C3.705,31.968 4.102,32.861 4.422,33.787C4.303,34.022 4.301,34.372 4.278,34.6C4.221,35.168 4.197,35.739 4.192,36.31C4.182,37.453 4.251,38.596 4.305,39.738C4.359,40.896 4.541,45.466 4.571,46.024C4.594,46.457 4.563,47.064 4.791,47.448C5.142,48.04 6.007,48.02 6.408,47.54C16.372,49.683 35.1,49.038 42.643,47.96C43.624,47.819 43.316,47.975 43.566,47.727C43.753,47.541 43.912,47.222 43.964,46.965C44.033,46.623 43.922,46.314 43.726,46.037C43.52,45.746 43.483,45.274 43.406,44.928C43.225,44.11 43.135,40.517 43.051,40.118C43.025,39.994 42.999,39.863 42.968,39.732C44.352,39.863 45.794,39.863 47.11,39.4C47.856,39.138 48.552,38.725 49.088,38.136C49.737,37.424 50.098,36.526 50.284,35.589C50.523,34.381 50.574,33.13 50.527,31.902C50.462,30.451 50.221,28.979 49.624,27.647C49.82,27.464 49.985,27.244 50.103,27.005Z"/>
                </g>
                <g id="HEAD" transform="matrix(1,0,0,1,9.37626,6.81067)">
                    <path id="_--Skin1" serif:id="âœ‹-Skin" d="M9.495,5.854C13.472,5.637 16.996,4.516 19.795,7.023C22.815,4.763 24.576,4.063 25.08,4.924C25.586,5.789 24.884,6.951 25.073,8.019C26.3,10.117 26.231,13.669 26.3,14.501C26.475,16.599 27.577,24.493 27.577,26.367C27.577,27.324 26.79,29.83 26.3,31.225C25.209,34.329 23.127,35.91 19.713,35.91C16.298,35.91 10.725,33.049 8.937,30.509C8.78,30.286 7.767,30.936 6.708,29.809C5.56,28.589 4.923,26.261 4.923,24.873C4.923,23.112 3.788,21.891 3.92,19.637C4.215,14.603 5.239,6.087 9.495,5.854Z" style="fill:white;"/>
                    <path id="bandana" d="M25.084,4.912C25.59,5.777 24.888,6.939 25.076,8.007C25.55,8.816 25.831,9.843 26.001,10.845L25.073,11.339L24.729,11.39C19.159,12.213 15.604,12.954 14.064,13.612C12.509,14.278 10.621,16.614 8.4,20.622L8.333,20.744L7.893,23.735L5.876,24.355L4.927,24.806C4.904,23.075 3.793,21.855 3.924,19.625C4.219,14.59 5.243,6.075 9.499,5.842C13.476,5.624 17,4.504 19.799,7.011C22.819,4.751 24.58,4.051 25.084,4.912Z" style="fill:white;"/>
                    <path id="ðŸ–-Ink1" serif:id="ðŸ–-Ink" d="M9.05,0.001C9.102,-0.002 9.155,0.001 9.207,0.006C9.264,0.008 9.322,0.014 9.379,0.026C9.671,0.082 9.932,0.237 10.134,0.455C10.14,0.461 10.144,0.467 10.149,0.473C10.244,0.544 10.332,0.625 10.411,0.711C10.424,0.698 10.438,0.685 10.452,0.672C10.494,0.635 10.537,0.6 10.583,0.567C10.773,0.404 10.996,0.285 11.236,0.217L11.269,0.208C11.275,0.206 11.282,0.205 11.288,0.204C11.458,0.147 11.638,0.118 11.818,0.118C12.034,0.111 12.25,0.147 12.452,0.23C12.692,0.33 12.9,0.487 13.075,0.675C13.19,0.769 13.29,0.872 13.396,0.985C13.615,1.22 13.788,1.495 13.897,1.797C13.912,1.84 13.926,1.883 13.938,1.927C14.204,1.896 14.473,1.874 14.741,1.863C15.042,1.845 15.343,1.838 15.645,1.848C16.476,1.876 17.289,2.022 18.076,2.291C18.234,2.338 18.387,2.398 18.535,2.471C18.767,2.563 18.986,2.681 19.192,2.823L19.368,2.928C19.456,2.981 19.544,3.034 19.63,3.089C19.834,3.22 20.027,3.366 20.21,3.525C20.403,3.681 20.586,3.851 20.759,4.029C20.806,4.078 20.852,4.127 20.897,4.176C21.297,4.392 21.652,4.669 21.984,5C22.247,4.848 22.519,4.711 22.8,4.589C23.089,4.463 23.457,4.333 23.761,4.248C24.034,4.171 24.303,4.119 24.576,4.08C24.701,4.059 24.826,4.041 24.951,4.027L24.946,4.029C25.035,4.019 25.122,4.011 25.211,4.004L25.209,4.003C25.247,4 25.285,3.997 25.323,3.994L25.415,3.986C25.443,3.984 25.483,4.049 25.486,4.072L25.489,4.095C25.51,4.119 25.529,4.145 25.542,4.16C25.559,4.159 25.575,4.158 25.591,4.157C25.641,4.153 25.697,4.241 25.726,4.274L25.753,4.305C25.783,4.341 25.812,4.383 25.817,4.428C25.849,4.691 25.88,4.954 25.908,5.217C25.918,5.416 25.908,5.614 25.875,5.809C25.85,5.999 25.825,6.189 25.8,6.378C25.759,6.511 25.719,6.644 25.68,6.777C25.664,6.828 25.646,6.877 25.629,6.927C25.528,7.261 25.41,7.586 25.269,7.901C25.372,8.015 25.468,8.133 25.557,8.255C25.578,8.277 25.6,8.299 25.62,8.322C25.625,8.313 25.634,8.305 25.642,8.3C25.673,8.287 25.695,8.303 25.714,8.329C25.913,8.519 26.057,8.742 26.147,8.995L26.203,9.128C26.212,9.15 26.221,9.172 26.23,9.194C26.301,9.386 26.356,9.584 26.402,9.784C26.442,9.941 26.472,10.1 26.49,10.262C26.627,10.72 26.734,11.19 26.836,11.653C26.852,11.726 26.845,11.791 26.821,11.847L26.881,11.905L26.982,12.006C27.153,12.177 27.327,12.356 27.454,12.559C27.585,12.77 27.682,12.995 27.789,13.218L27.812,13.266L27.859,13.361C27.91,13.465 27.935,13.522 27.98,13.648C28.055,13.857 28.096,14.068 28.115,14.29C28.142,14.613 28.139,14.966 27.997,15.266C27.997,15.269 27.995,15.271 27.994,15.273C27.93,15.563 27.771,15.833 27.529,16.005C27.477,16.054 27.422,16.097 27.362,16.132C27.22,16.216 27.089,16.223 26.934,16.185L26.914,16.179C26.895,16.174 26.877,16.17 26.86,16.166C26.885,16.187 26.898,16.212 26.86,16.229C26.823,16.247 26.791,16.257 26.76,16.261C26.773,16.278 26.774,16.297 26.746,16.312C26.686,16.344 26.637,16.354 26.586,16.345L26.597,16.433C26.679,17.099 26.754,17.23 26.818,17.946C26.861,18.678 26.929,19.408 27.023,20.135L27.056,20.399C27.16,21.236 27.276,22.08 27.455,22.904C27.545,23.264 27.623,23.626 27.689,23.991C27.781,24.269 27.846,24.553 27.882,24.843C27.935,25.138 27.971,25.435 27.992,25.735C28.064,25.927 28.1,26.122 28.098,26.32C28.107,26.587 28.098,26.854 28.07,27.119C28.054,27.395 28.016,27.668 27.956,27.939C27.903,28.311 27.805,28.669 27.665,29.017C27.552,29.406 27.415,29.787 27.258,30.159C27.015,30.736 26.722,31.272 26.388,31.801C26.075,32.296 25.739,32.773 25.355,33.217C24.859,33.79 24.294,34.315 23.674,34.758C23.32,35.02 22.947,35.255 22.557,35.457C22.08,35.703 21.595,35.926 21.078,36.076C20.756,36.169 20.428,36.234 20.096,36.283C19.444,36.38 18.768,36.365 18.113,36.252C17.69,36.195 17.274,36.096 16.881,35.955C16.557,35.839 16.249,35.705 15.941,35.555C15.783,35.478 15.63,35.39 15.484,35.29C15.238,35.13 15.007,34.949 14.793,34.749C14.723,34.689 14.655,34.628 14.588,34.563C14.555,34.535 14.573,34.492 14.61,34.482L14.622,34.481C14.607,34.468 14.592,34.454 14.578,34.441C14.574,34.438 14.572,34.435 14.569,34.432C14.562,34.425 14.555,34.419 14.548,34.413C14.524,34.391 14.548,34.343 14.57,34.332C14.578,34.327 14.589,34.327 14.601,34.328C14.598,34.325 14.596,34.323 14.594,34.322C14.591,34.32 14.591,34.315 14.591,34.31L14.582,34.302C14.55,34.273 14.566,34.232 14.604,34.221C14.623,34.215 14.653,34.218 14.685,34.225L14.697,34.228L14.675,34.208C14.637,34.175 14.649,34.138 14.696,34.127C14.731,34.129 14.765,34.134 14.799,34.142L14.825,34.149C14.838,34.152 14.85,34.156 14.862,34.16C14.841,34.14 14.819,34.121 14.798,34.101C14.778,34.083 14.8,34.03 14.819,34.02C14.844,34.005 14.895,34.025 14.918,34.043C14.976,34.049 15.052,34.074 15.079,34.098C15.156,34.172 15.235,34.242 15.315,34.31C15.363,34.325 15.409,34.346 15.445,34.376C15.536,34.463 15.63,34.546 15.727,34.625L15.8,34.676C15.813,34.684 15.825,34.693 15.837,34.701C15.976,34.782 16.115,34.863 16.253,34.945C16.76,35.117 17.267,35.289 17.773,35.461L17.84,35.481L18.332,35.541C18.655,35.576 18.979,35.574 19.302,35.536C19.544,35.54 19.785,35.516 20.021,35.466C20.423,35.398 20.818,35.297 21.202,35.157C21.643,34.995 22.064,34.783 22.475,34.554C22.623,34.471 22.768,34.383 22.911,34.29C22.957,34.257 23.003,34.223 23.049,34.189C23.353,33.961 23.643,33.717 23.923,33.46C24.054,33.339 24.18,33.213 24.302,33.083C24.32,33.064 24.337,33.045 24.354,33.026C24.47,32.899 24.583,32.766 24.691,32.63L24.794,32.513C25.209,31.995 25.579,31.438 25.911,30.864C26.24,30.295 26.512,29.696 26.727,29.077C26.797,28.856 26.857,28.632 26.908,28.405C27.001,28.133 27.063,27.854 27.091,27.57C27.1,27.514 27.108,27.458 27.116,27.402L27.12,27.315C27.121,27.3 27.121,27.285 27.121,27.271C27.134,27.182 27.145,27.094 27.153,27.005C27.158,26.916 27.161,26.827 27.162,26.737L27.155,26.19C27.153,26.173 27.151,26.155 27.15,26.138L27.136,26.017C27.105,25.767 27.082,25.518 27.052,25.268C27.052,25.267 27.052,25.265 27.051,25.263C27.04,25.17 27.028,25.076 27.014,24.983C27.007,24.927 26.998,24.871 26.99,24.816L26.974,24.718C26.945,24.549 26.909,24.381 26.866,24.214L26.847,24.143L26.738,23.59L26.614,23.045C26.534,22.68 26.467,22.312 26.414,21.941C26.318,21.35 26.236,20.759 26.164,20.164C26.161,20.136 26.157,20.107 26.154,20.078C26.081,19.527 26.029,18.974 25.995,18.419C25.949,17.873 25.922,17.325 25.915,16.776C25.914,16.751 25.931,16.731 25.95,16.72L25.949,16.614C25.946,16.521 25.945,16.633 25.944,16.527L25.943,16.234C25.943,16.21 25.943,16.193 25.944,16.191C25.606,16.215 25.379,16.196 25.054,16.178L24.999,16.176C24.7,16.162 24.403,16.129 24.109,16.079C24.107,16.095 24.097,16.105 24.08,16.109C24.05,16.11 24.022,16.11 23.993,16.111L24.003,16.152C24.004,16.173 23.994,16.186 23.974,16.191L23.89,16.195C23.778,16.2 23.665,16.202 23.553,16.187C23.453,16.174 23.355,16.15 23.258,16.123C23.198,16.112 23.137,16.099 23.074,16.081C22.914,16.035 22.755,15.973 22.594,15.923C22.43,15.888 22.263,15.877 22.089,15.919C21.905,15.962 21.749,16.042 21.556,15.993C21.517,15.984 21.48,15.969 21.443,15.954L21.408,15.952C21.402,15.951 21.396,15.951 21.39,15.95C21.189,15.921 21.01,15.793 20.818,15.725C20.751,15.708 20.684,15.712 20.619,15.739L20.603,15.747L20.539,15.794C20.514,15.825 20.488,15.855 20.463,15.886L20.426,15.932C20.357,16.017 20.284,16.094 20.195,16.15C20.088,16.249 19.96,16.307 19.808,16.311C19.721,16.314 19.636,16.295 19.552,16.269C19.238,16.366 18.902,16.386 18.588,16.291C18.464,16.272 18.342,16.238 18.225,16.186C18.17,16.161 18.115,16.132 18.062,16.1C17.841,16.193 17.631,16.318 17.417,16.426L17.369,16.45C17.15,16.559 16.908,16.666 16.661,16.65C16.349,16.629 16.043,16.588 15.738,16.535C15.735,16.535 15.732,16.534 15.729,16.534L15.687,16.527L15.535,16.5L15.411,16.477L15.348,16.501C14.842,16.693 14.288,16.843 13.78,16.708C13.558,16.681 13.351,16.607 13.163,16.479C13.157,16.475 13.15,16.471 13.144,16.465C13.114,16.45 13.087,16.433 13.062,16.415L13.052,16.407L13.049,16.405C12.772,16.278 12.613,16.005 12.641,15.701C12.624,15.604 12.625,15.509 12.644,15.408C12.553,15.514 12.461,15.62 12.368,15.725C12.026,16.138 11.692,16.558 11.382,16.996L11.311,17.098C11.14,17.339 10.982,17.588 10.835,17.845C10.687,18.099 10.535,18.35 10.378,18.598C10.173,18.824 9.976,19.056 9.785,19.294L9.704,19.396L9.43,19.757C9.237,19.987 9.076,20.239 8.949,20.512C8.845,20.707 8.749,20.905 8.662,21.108C8.634,21.169 8.608,21.231 8.582,21.293C8.493,21.536 8.418,21.782 8.359,22.037C8.312,22.222 8.278,22.409 8.258,22.599L8.252,22.662C8.244,22.737 8.239,22.811 8.236,22.886C8.254,22.897 8.269,22.907 8.28,22.918L8.326,22.935L8.364,22.946C8.422,22.964 8.522,23.001 8.498,23.047L8.376,23.28C8.389,23.293 8.395,23.307 8.386,23.323C8.305,23.479 8.223,23.635 8.141,23.791C8.138,23.797 8.134,23.802 8.13,23.805C8.2,23.837 8.268,23.872 8.333,23.911C8.46,23.987 8.553,24.075 8.64,24.177C8.73,24.232 8.816,24.291 8.897,24.36C8.997,24.465 9.084,24.58 9.158,24.704C9.226,24.822 9.281,24.945 9.324,25.073C9.343,25.141 9.352,25.211 9.351,25.283C9.275,25.823 8.658,25.453 8.646,25.406C8.562,25.079 8.465,24.873 8.246,24.63L8.241,24.626C8.114,24.57 7.989,24.515 7.859,24.472C7.839,24.476 7.819,24.479 7.799,24.482C7.822,24.514 7.81,24.546 7.764,24.551C7.565,24.591 7.365,24.601 7.163,24.584L6.856,24.541C6.729,24.59 6.607,24.652 6.492,24.727L6.454,24.753L6.447,24.758C6.151,24.996 5.923,25.313 5.766,25.659C5.753,25.689 5.739,25.72 5.726,25.752L5.708,25.799L5.706,25.802C5.502,26.607 5.684,27.492 6.058,28.223C6.262,28.55 6.475,28.87 6.697,29.185L6.913,29.468C7.04,29.588 7.165,29.711 7.287,29.838C7.306,29.857 7.326,29.876 7.346,29.894C7.411,29.937 7.476,29.974 7.543,30.006C7.569,30.014 7.596,30.023 7.622,30.03C7.751,30.092 7.886,30.125 8.028,30.128C8.215,30.141 8.398,30.119 8.573,30.063L8.609,30.051L8.634,30.042C8.73,29.98 8.819,29.904 8.904,29.814C8.923,29.794 8.958,29.794 8.999,29.805C9.021,29.782 9.043,29.758 9.064,29.732C9.078,29.716 9.101,29.716 9.119,29.728C9.179,29.721 9.341,29.813 9.298,29.862C9.292,29.873 9.283,29.883 9.275,29.894C9.303,29.909 9.332,29.925 9.357,29.942C9.49,29.979 9.685,30.112 9.67,30.152L9.668,30.155C9.637,30.213 9.597,30.262 9.548,30.301L9.531,30.313L9.494,30.339C9.546,30.372 9.591,30.41 9.569,30.436C9.558,30.456 9.548,30.475 9.535,30.492C9.642,30.625 9.749,30.759 9.855,30.893C9.961,31.124 10.092,31.339 10.249,31.538C10.38,31.754 10.537,31.949 10.72,32.122C10.736,32.137 10.751,32.152 10.767,32.166C10.902,32.267 11.043,32.361 11.191,32.451L11.254,32.489C11.288,32.509 11.344,32.535 11.318,32.583C11.314,32.59 11.311,32.595 11.306,32.599C11.399,32.659 11.495,32.717 11.594,32.77L11.603,32.776C11.641,32.8 11.692,32.843 11.638,32.879C11.593,32.909 11.472,32.827 11.415,32.789C11.405,32.789 11.392,32.786 11.379,32.782C11.398,32.792 11.417,32.803 11.436,32.814L11.465,32.83C11.487,32.843 11.595,32.915 11.52,32.945C11.482,32.948 11.448,32.939 11.417,32.917C11.379,32.899 11.343,32.88 11.307,32.859C11.319,32.879 11.319,32.899 11.288,32.911C11.277,32.912 11.266,32.911 11.256,32.91C11.33,32.957 11.407,33.002 11.485,33.043L11.498,33.051C11.532,33.073 11.585,33.114 11.546,33.15C11.502,33.189 11.383,33.105 11.352,33.086L11.259,33.031C11.253,33.035 11.245,33.036 11.237,33.037C11.265,33.054 11.29,33.072 11.319,33.088L11.357,33.109C11.406,33.136 11.474,33.18 11.449,33.224C11.425,33.268 11.351,33.232 11.304,33.204L11.252,33.172C11.25,33.171 11.248,33.169 11.246,33.168L11.244,33.176C11.243,33.177 11.243,33.178 11.242,33.179C11.218,33.221 11.159,33.194 11.118,33.17L11.085,33.15C11.029,33.116 10.973,33.082 10.918,33.049L10.836,32.998L10.835,32.998C10.55,32.826 10.287,32.656 10.039,32.435C9.89,32.304 9.752,32.165 9.621,32.016C9.357,31.718 9.161,31.377 8.972,31.029C8.968,31.023 8.973,31.008 8.98,30.993C8.96,30.95 8.939,30.906 8.919,30.861C8.725,30.916 8.508,30.931 8.308,30.918C8.2,30.911 8.094,30.892 7.989,30.864C7.652,30.817 7.328,30.663 7.048,30.479C7.03,30.467 7.014,30.455 6.998,30.444C6.882,30.378 6.773,30.302 6.668,30.216C6.465,30.047 6.271,29.86 6.095,29.665C5.968,29.513 5.847,29.355 5.734,29.192C5.619,29.031 5.503,28.869 5.387,28.708C5.065,28.202 4.858,27.619 4.778,27.023C4.739,26.804 4.719,26.582 4.723,26.36C4.726,26.2 4.744,26.038 4.775,25.877C4.757,25.859 4.738,25.842 4.72,25.823C4.71,25.841 4.7,25.854 4.693,25.847L4.549,25.702C4.446,25.598 4.377,25.522 4.259,25.354C4.071,25.087 3.931,24.792 3.827,24.482C3.752,24.261 3.702,24.009 3.682,23.766C3.676,23.725 3.67,23.684 3.665,23.642C3.624,23.312 3.662,22.997 3.711,22.671C3.715,22.65 3.725,22.637 3.74,22.63C3.743,22.604 3.748,22.577 3.752,22.551C3.334,22.107 3.033,21.573 3.058,20.927C3.065,20.723 3.107,20.523 3.187,20.336L3.196,20.314C2.847,20.261 2.57,20.015 2.362,19.71C2.344,19.696 2.326,19.681 2.309,19.666C1.937,19.348 1.679,18.897 1.503,18.421C1.376,18.144 1.293,17.849 1.257,17.542C1.255,17.52 1.253,17.499 1.251,17.477C1.165,16.992 1.143,16.503 1.183,16.021C1.096,15.722 1.025,15.418 0.977,15.108C0.954,14.96 0.939,14.811 0.927,14.663L0.925,14.655L0.924,14.629L0.918,14.562C0.917,14.551 0.917,14.54 0.916,14.529C0.809,13.174 1.112,11.84 1.611,10.585C1.655,10.472 1.7,10.359 1.746,10.247L1.796,10.131C2.297,9.32 3.051,8.663 3.689,7.971C3.909,7.732 3.553,7.373 3.332,7.613C2.908,8.073 2.453,8.514 2.042,8.987C1.97,8.993 1.897,8.994 1.825,8.991C1.699,8.984 1.576,8.964 1.457,8.932C1.161,8.888 0.892,8.769 0.647,8.593C0.32,8.44 0.04,8.151 0.012,7.775C0.009,7.737 0.01,7.699 0.012,7.662C-0.018,7.478 0.009,7.285 0.086,7.107C0.099,7.058 0.116,7.01 0.138,6.963C0.2,6.822 0.303,6.686 0.429,6.595C0.432,6.593 0.434,6.592 0.437,6.59C0.45,6.576 0.463,6.562 0.477,6.549C0.499,6.529 0.521,6.511 0.545,6.494C0.46,6.354 0.383,6.209 0.318,6.056C0.246,5.888 0.21,5.719 0.189,5.54C0.181,5.469 0.178,5.399 0.177,5.329C0.173,5.296 0.171,5.263 0.168,5.23C0.152,4.98 0.181,4.72 0.275,4.486C0.282,4.468 0.29,4.45 0.299,4.432C0.316,4.379 0.336,4.326 0.36,4.274C0.453,4.074 0.586,3.905 0.749,3.767C0.838,3.678 0.937,3.599 1.045,3.531C1.108,3.492 1.181,3.456 1.257,3.427C1.394,3.355 1.569,3.289 1.711,3.284C1.728,3.283 1.743,3.285 1.759,3.285C1.772,2.922 1.819,2.527 1.962,2.198C2.046,1.959 2.171,1.747 2.359,1.595C2.468,1.481 2.602,1.388 2.77,1.327L2.8,1.317L2.811,1.314C2.962,1.24 3.125,1.211 3.292,1.212C3.487,1.202 3.686,1.238 3.856,1.328C3.891,1.347 3.929,1.371 3.965,1.396C3.992,1.342 4.023,1.287 4.057,1.232C4.179,1.036 4.326,0.866 4.497,0.711C4.517,0.692 4.539,0.676 4.56,0.658C4.643,0.583 4.731,0.513 4.822,0.45C5.018,0.313 5.233,0.212 5.459,0.146C5.72,0.049 5.995,0.004 6.271,0.014L6.328,0.016C6.34,0.017 6.353,0.018 6.365,0.018C6.638,0.036 6.908,0.103 7.165,0.205C7.432,0.31 7.658,0.47 7.868,0.654C7.917,0.585 7.974,0.521 8.042,0.46C8.062,0.443 8.083,0.428 8.102,0.412C8.118,0.397 8.133,0.382 8.15,0.368C8.225,0.301 8.304,0.244 8.391,0.192C8.489,0.135 8.595,0.095 8.704,0.07C8.815,0.032 8.932,0.009 9.05,0.001ZM7.753,26.086C7.765,26.086 8.349,26.306 8.64,26.448L8.655,26.455C8.99,26.622 9.152,26.742 9.454,26.956C9.474,26.971 9.495,26.993 9.495,27.015C9.495,27.327 9.419,27.709 9.157,27.54C9.119,27.515 9.081,27.491 9.043,27.468L8.985,27.433L8.983,27.433C8.984,27.433 8.984,27.433 8.985,27.432C8.414,27.084 7.811,26.81 7.175,26.615C7.132,26.599 7.454,26.11 7.543,26.138C7.492,26.117 7.745,26.087 7.753,26.086ZM13.748,12.287C13.369,12.328 12.99,12.368 12.61,12.407C12.368,12.435 12.126,12.46 11.884,12.48C11.52,12.508 11.155,12.512 10.792,12.462C10.664,12.444 10.537,12.419 10.412,12.388C10.327,12.451 10.239,12.51 10.149,12.566L9.146,13.335C8.474,13.864 7.816,14.425 7.224,15.045C6.19,16.127 5.348,17.393 4.819,18.796C4.771,18.824 4.734,18.874 4.721,18.95C4.628,19.525 4.354,20.049 4.255,20.621C4.158,21.185 4.288,21.665 4.641,22.112C4.716,22.207 4.871,22.202 4.966,22.138C4.988,22.181 5.083,22.179 5.117,21.987C5.274,21.817 5.408,21.638 5.499,21.417C5.566,21.254 5.453,21.141 5.317,21.119C5.373,20.914 5.438,20.71 5.51,20.509C5.723,19.912 5.994,19.341 6.336,18.806C6.636,18.335 6.984,17.925 7.358,17.514C7.362,17.508 7.37,17.506 7.378,17.505L7.455,17.419C7.466,17.407 7.488,17.408 7.513,17.415C7.536,17.39 7.559,17.365 7.583,17.34C7.606,17.315 7.632,17.322 7.647,17.342C7.686,17.334 7.759,17.377 7.781,17.391C7.819,17.416 7.831,17.444 7.799,17.48C7.793,17.487 7.787,17.493 7.782,17.499C7.825,17.517 7.868,17.542 7.902,17.566C8.018,17.592 8.183,17.701 8.154,17.733C8.094,17.795 8.036,17.859 7.979,17.925C8.029,17.96 8.062,17.995 8.049,18.01C7.803,18.27 7.575,18.545 7.367,18.837C7.209,19.055 7.065,19.281 6.937,19.517C6.747,19.851 6.585,20.195 6.442,20.548C6.422,20.602 6.402,20.655 6.383,20.709C6.174,21.297 6.017,21.907 5.951,22.528L5.948,22.57C5.936,22.794 5.931,23.393 5.908,23.536C6.047,23.605 6.192,23.664 6.343,23.712C6.372,23.721 6.401,23.728 6.43,23.735C6.446,23.728 6.463,23.722 6.48,23.717C6.619,23.661 6.764,23.621 6.913,23.601C7.013,23.588 7.112,23.583 7.212,23.586L7.254,23.588C7.298,23.589 7.342,23.592 7.386,23.597C7.383,23.571 7.382,23.547 7.38,23.521C7.368,23.513 7.358,23.502 7.358,23.486C7.328,23.202 7.327,22.917 7.356,22.632C7.375,22.484 7.397,22.335 7.421,22.187C7.445,22.066 7.474,21.946 7.505,21.827C7.587,21.491 7.696,21.164 7.828,20.844C8.206,19.931 8.747,19.108 9.291,18.289C9.688,17.691 10.063,17.08 10.474,16.492C10.824,15.992 11.191,15.499 11.583,15.03C11.975,14.563 12.388,14.113 12.834,13.697C12.906,13.63 12.979,13.566 13.053,13.502C13.475,13.122 13.935,12.81 14.413,12.504C14.432,12.492 14.465,12.505 14.492,12.528L14.569,12.48C14.582,12.472 14.595,12.465 14.608,12.457C14.62,12.449 14.633,12.462 14.64,12.473C14.673,12.456 14.706,12.439 14.738,12.423C14.762,12.403 14.787,12.385 14.811,12.366C14.456,12.348 14.102,12.322 13.748,12.287ZM18.198,8.069C17.911,8.011 17.624,8.003 17.334,8.046C17.213,8.064 17.093,8.085 16.973,8.111C17.245,8.348 17.463,8.652 17.605,9.002C17.758,9.379 17.147,9.542 16.996,9.17C16.85,8.811 16.575,8.535 16.242,8.37C16.17,8.41 16.1,8.454 16.034,8.502C15.947,8.573 15.864,8.65 15.787,8.734C15.62,8.917 15.466,9.161 15.365,9.403C15.325,9.534 15.296,9.67 15.278,9.809C15.274,9.841 15.271,9.873 15.267,9.905C15.205,10.56 15.392,11.197 15.713,11.761L15.726,11.761C16.013,11.605 16.313,11.474 16.622,11.367C16.869,11.2 17.126,11.045 17.391,10.906C17.953,10.608 18.547,10.379 19.159,10.222L19.229,10.204C19.373,10.168 19.519,10.135 19.665,10.107L19.752,10.09L19.754,10.09L19.744,9.996C19.695,9.625 19.55,9.282 19.364,8.964C19.224,8.724 19.012,8.479 18.777,8.283L18.776,8.282C18.669,8.221 18.557,8.171 18.442,8.13L18.399,8.114L18.198,8.069ZM10.504,7.506C9.908,7.45 9.312,7.456 8.717,7.504C8.327,7.543 7.94,7.597 7.555,7.665C7.295,7.71 7.039,7.773 6.788,7.852L6.931,8.143C7.171,8.628 7.417,9.11 7.707,9.569C7.857,9.805 8.019,10.029 8.196,10.245C8.315,10.399 8.446,10.542 8.59,10.674C8.628,10.72 8.669,10.764 8.71,10.806C8.841,10.919 8.982,11.018 9.137,11.099C9.261,11.19 9.39,11.269 9.525,11.338L9.576,11.364L10.05,11.546C10.075,11.553 10.1,11.56 10.126,11.567L10.164,11.577L10.236,11.592L10.29,11.563C10.299,11.558 10.309,11.553 10.318,11.548C10.333,11.54 10.344,11.556 10.347,11.567C10.348,11.572 10.346,11.578 10.343,11.584L10.412,11.547C10.531,11.595 10.656,11.634 10.791,11.659C10.853,11.671 10.914,11.68 10.975,11.687L10.983,11.693C10.985,11.694 10.986,11.695 10.987,11.696L11.054,11.696C11.526,11.741 12.005,11.681 12.476,11.596C13.143,11.529 13.809,11.455 14.475,11.386C14.488,11.385 14.493,11.39 14.493,11.399L14.534,11.395C14.593,11.389 14.663,11.488 14.618,11.524C14.654,11.546 14.689,11.577 14.714,11.601L14.73,11.6C14.638,11.42 14.567,11.232 14.517,11.037L14.453,10.709C14.435,10.587 14.425,10.456 14.423,10.328C14.418,10.269 14.415,10.214 14.415,10.166C14.415,10.12 14.416,10.075 14.418,10.029C14.292,9.977 14.165,9.932 14.035,9.893C13.665,9.848 13.297,9.802 12.928,9.757C12.706,9.765 12.485,9.781 12.264,9.806C12.013,9.828 11.763,9.856 11.514,9.891C11.49,9.893 11.449,9.861 11.424,9.825L11.317,9.839C11.261,9.846 11.203,9.735 11.277,9.712C11.303,9.702 11.33,9.692 11.356,9.682L11.396,9.668L11.373,9.67C11.366,9.671 11.356,9.669 11.345,9.665C11.287,9.673 11.228,9.681 11.17,9.687C11.096,9.697 11.113,9.599 11.165,9.576L11.189,9.567C11.146,9.54 11.107,9.465 11.161,9.441L11.169,9.438C11.194,9.428 11.218,9.42 11.244,9.41C11.242,9.402 11.242,9.395 11.244,9.388L11.14,9.401C11.131,9.402 11.176,9.335 11.198,9.322L11.201,9.32L11.251,9.305C11.259,9.284 11.299,9.236 11.313,9.232C11.496,9.174 11.667,9.122 11.845,9.083C11.853,9.072 11.864,9.064 11.875,9.061C11.986,9.034 12.098,9.014 12.211,8.996C12.218,8.984 12.226,8.976 12.235,8.976C12.513,8.94 12.792,8.932 13.072,8.951C13.126,8.956 13.179,8.962 13.233,8.969C13.336,8.98 13.439,8.995 13.541,9.014C13.797,9.058 14.047,9.125 14.291,9.216L14.347,9.237C14.408,9.26 14.469,9.284 14.529,9.31C14.559,9.202 14.597,9.095 14.642,8.991C14.649,8.971 14.656,8.951 14.665,8.931L14.603,8.895C14.59,8.92 14.563,8.94 14.545,8.929C14.107,8.632 13.643,8.385 13.154,8.187C12.88,8.066 12.599,7.963 12.312,7.877C12.169,7.83 12.024,7.789 11.879,7.749C11.807,7.734 11.734,7.718 11.66,7.706C11.281,7.603 10.895,7.537 10.504,7.506ZM24.958,8.511C24.905,8.603 24.85,8.694 24.791,8.785C24.506,9.222 24.164,9.633 23.776,9.991C23.877,9.991 23.978,9.995 24.077,10.004C24.249,10.021 24.418,10.049 24.582,10.089C24.595,10.079 24.61,10.073 24.622,10.082L24.665,10.111C25.017,10.207 25.347,10.356 25.646,10.557L25.641,10.517C25.64,10.511 25.639,10.504 25.638,10.497C25.643,10.42 25.644,10.342 25.642,10.265C25.58,9.808 25.425,9.388 25.249,8.963C25.245,8.955 25.248,8.944 25.253,8.933C25.164,8.787 25.066,8.646 24.958,8.511ZM25.04,4.924C24.908,4.948 24.777,4.979 24.647,5.018C24.403,5.055 24.166,5.119 23.938,5.211C23.623,5.323 23.317,5.453 23.013,5.591C22.422,5.859 21.868,6.199 21.364,6.607C21.332,6.632 21.301,6.657 21.27,6.683C21.157,6.781 21.047,6.883 20.943,6.991C20.834,7.11 20.724,7.229 20.615,7.349C20.481,7.489 20.327,7.616 20.206,7.768C20.181,7.799 20.16,7.834 20.14,7.868L20.211,7.892C20.271,7.913 20.261,8.025 20.202,8.009C20.182,8.003 20.163,7.996 20.144,7.989C20.152,7.999 20.158,8.01 20.159,8.02C20.163,8.05 20.139,8.092 20.102,8.081C20.085,8.077 20.068,8.07 20.051,8.063C20.046,8.083 20.042,8.102 20.042,8.121C20.045,8.123 20.048,8.124 20.052,8.125C20.094,8.139 20.172,8.204 20.184,8.249C20.192,8.283 20.163,8.319 20.126,8.309C20.098,8.302 20.071,8.29 20.045,8.278C20.062,8.295 20.076,8.313 20.077,8.329C20.08,8.358 20.055,8.399 20.02,8.39C19.956,8.372 19.904,8.345 19.861,8.311C19.85,8.326 19.833,8.338 19.82,8.334L19.795,8.326C19.802,8.333 19.808,8.339 19.814,8.346L19.823,8.356C19.997,8.544 20.149,8.753 20.271,8.978C20.277,8.971 20.284,8.966 20.293,8.959C20.35,8.91 20.408,8.864 20.467,8.818L20.485,8.803L20.503,8.787L20.371,8.831L20.374,8.827C20.383,8.815 20.412,8.775 20.426,8.762L20.429,8.759C20.61,8.597 20.808,8.459 21.021,8.346C21.159,8.256 21.304,8.18 21.457,8.118C21.819,7.949 22.189,7.82 22.569,7.701C22.626,7.683 22.683,7.663 22.74,7.646C22.756,7.64 22.759,7.647 22.757,7.658L22.786,7.649C22.839,7.632 22.93,7.726 22.894,7.77C22.915,7.787 22.937,7.807 22.955,7.826L22.969,7.839L22.984,7.835C23.029,7.821 23.105,7.891 23.153,7.941L23.189,7.979C23.216,8.008 23.269,8.068 23.204,8.092L23.123,8.12C23.125,8.136 23.118,8.15 23.093,8.159C23.065,8.169 23.037,8.179 23.009,8.189C23.026,8.204 23.043,8.219 23.059,8.235L23.083,8.258C23.112,8.287 23.179,8.352 23.12,8.38L23.112,8.383L23.034,8.411C23.045,8.434 23.042,8.456 23.008,8.468C22.555,8.623 22.112,8.804 21.68,9.009C21.356,9.189 21.014,9.323 20.654,9.411C20.624,9.421 20.56,9.376 20.533,9.331L20.479,9.347C20.47,9.349 20.461,9.352 20.452,9.354L20.444,9.356C20.511,9.536 20.561,9.732 20.589,9.921C20.592,9.938 20.594,9.956 20.596,9.973C20.667,9.967 20.737,9.962 20.808,9.958C21.297,9.932 21.792,9.948 22.282,10.006C22.48,9.888 22.671,9.758 22.853,9.618C22.909,9.575 22.964,9.531 23.018,9.486C23.344,9.202 23.639,8.884 23.9,8.54C24.142,8.222 24.352,7.88 24.528,7.522C24.685,7.186 24.814,6.837 24.912,6.476C25.002,6.147 25.033,5.826 25.055,5.485C25.063,5.429 25.068,5.373 25.073,5.318L25.072,5.294L25.071,5.282C25.065,5.163 25.053,5.043 25.04,4.924ZM20.423,9.162C20.406,9.169 20.388,9.176 20.37,9.182C20.381,9.209 20.39,9.235 20.4,9.262L20.401,9.261L20.47,9.196C20.456,9.189 20.439,9.177 20.423,9.162ZM24.951,4.057C25.065,3.99 25.151,3.977 25.209,4.019C25.123,4.029 25.037,4.042 24.951,4.057Z"/>
                </g>
                <g id="FACE" transform="matrix(1,0,0,1,21.3265,22.7559)">
                    <path id="ðŸ–-Ink2" serif:id="ðŸ–-Ink" d="M9.272,15.245C8.846,15.071 8.467,14.782 8.19,14.412C8.093,14.283 8.068,14.148 8.088,14.023C8.111,13.884 8.194,13.757 8.306,13.672C8.419,13.587 8.561,13.545 8.697,13.567C8.816,13.585 8.934,13.65 9.027,13.785L9.047,13.812C9.212,14.035 9.427,14.218 9.672,14.336C9.908,14.45 10.171,14.503 10.445,14.472C10.965,14.414 11.323,14.132 11.704,13.75C11.752,13.702 11.799,13.652 11.846,13.601C11.876,13.556 11.918,13.526 11.964,13.511C12.015,13.494 12.073,13.494 12.127,13.513C12.178,13.531 12.224,13.565 12.255,13.61C12.284,13.653 12.3,13.706 12.295,13.767C12.26,14.163 12.053,14.516 11.759,14.794C11.433,15.102 11,15.315 10.592,15.39C10.143,15.473 9.686,15.414 9.272,15.245ZM10.804,9.135C11.282,9.425 12.009,10.102 11.496,10.822C10.891,11.457 10.02,10.729 9.591,10.4C9.193,10.145 8.746,10.801 9.115,11.099C12.216,13.396 13.474,9.211 11.046,8.793C10.778,8.747 10.679,9.045 10.804,9.135ZM5.247,6.463C5.3,5.808 6.298,5.659 6.397,6.308C6.486,6.888 6.381,7.422 6.12,7.945C5.87,8.445 5.242,8.212 5.194,7.757C5.131,7.147 5.215,6.871 5.247,6.463ZM12.841,6.173C12.981,5.991 13.181,5.867 13.422,5.937C14.174,6.157 13.952,7.224 13.688,7.744C13.545,8.026 13.081,8.098 12.871,7.849C12.53,7.444 12.366,6.635 12.801,6.236C12.812,6.215 12.825,6.194 12.841,6.173ZM6.109,3.596L6.228,3.575C6.595,3.512 7.052,3.451 7.312,3.746C7.45,3.903 7.497,4.194 7.312,4.344C6.986,4.608 6.626,4.505 6.235,4.528C5.913,4.546 5.604,4.599 5.294,4.688C4.614,4.883 4.06,5.238 3.479,5.627C3.403,5.678 3.325,5.581 3.361,5.51C3.697,4.853 4.347,4.313 4.997,3.984C5.345,3.808 5.725,3.663 6.109,3.596ZM12.156,3.302L12.247,3.32C13.236,3.527 14.521,3.94 14.989,4.912C15.007,5.049 14.988,5.079 14.973,5.098L14.968,5.105C14.955,5.121 14.945,5.144 14.886,5.162C14.869,5.158 14.853,5.154 14.836,5.15C14.621,5.094 14.451,5.016 14.287,4.936L14.108,4.848C13.902,4.746 13.693,4.648 13.472,4.576C13,4.422 12.514,4.314 12.021,4.256C11.914,4.243 11.812,4.207 11.73,4.145C11.653,4.087 11.594,4.005 11.568,3.897C11.533,3.758 11.543,3.652 11.618,3.526C11.674,3.431 11.755,3.365 11.847,3.328C11.942,3.289 12.049,3.28 12.156,3.302Z"/>
                </g>
            </g>
        </g>
    </g>
</svg>
