<?xml version="1.0" encoding="UTF-8" standalone="no"?>
<!DOCTYPE svg PUBLIC "-//W3C//DTD SVG 1.1//EN" "http://www.w3.org/Graphics/SVG/1.1/DTD/svg11.dtd">
<svg width="100%" height="100%" viewBox="0 0 66 74" version="1.1" xmlns="http://www.w3.org/2000/svg" xmlns:xlink="http://www.w3.org/1999/xlink" xml:space="preserve" xmlns:serif="http://www.serif.com/" style="fill-rule:evenodd;clip-rule:evenodd;stroke-linejoin:round;stroke-miterlimit:2;">
    <g transform="matrix(-1,0,0,1,66,0)">
        <g id="Introduction">
            <g id="avatar-boy-6">
                <g id="BODY" transform="matrix(0.728129,0,0,0.780127,8.08767,34.3177)">
                    <path id="_--Skin" serif:id="âœ‹-Skin" d="M51.417,48.705C52.677,48.644 52.17,46.447 52.079,45.641C51.082,42.694 51.317,39.48 50.924,36.391C50.68,33.508 50.366,30.634 50.102,27.754C49.583,21.906 45.858,10.001 41.606,8.087C41.071,5.745 38.859,3.558 36.06,3.558C34.152,1.306 31.854,-0.279 28.908,0.041C27.69,0.096 26.509,1.384 25.342,1.632C24.689,1.722 18.891,1.491 17.73,2.179C16.921,2.593 16.19,3.358 16.428,4.332C16.808,5.512 15.628,4.235 13.168,5.495C8.151,8.498 11.149,12.516 11.282,12.641C8.151,16.983 5.414,20.506 4.148,25.813C3.328,29.753 3.42,33.821 2.733,37.781C2.49,39.154 2.117,40.481 1.714,41.814C1.278,43.56 1.065,47.91 0.824,47.948C0.386,48.057 1.078,48.954 1.543,48.955C14.425,51.085 27.511,49.043 40.463,48.71C44.113,48.583 47.767,48.554 51.417,48.705Z" style="fill:white;"/>
                    <path id="ðŸ§¥-Jacket" d="M25.358,5.456C25.358,6.822 30.119,11.901 31.762,11.566C32.857,11.342 34.512,9.886 36.727,7.196L36.727,5.456L36.249,3.561C38.958,3.657 41.083,5.797 41.606,8.087C45.815,9.982 49.508,21.669 50.085,27.576L50.102,27.754C50.366,30.634 50.68,33.508 50.924,36.391C51.317,39.48 51.082,42.694 52.079,45.641L52.085,45.691C52.189,46.534 52.651,48.645 51.417,48.705C47.767,48.554 44.113,48.583 40.463,48.71C27.511,49.043 14.425,51.085 1.543,48.955C1.078,48.954 0.386,48.057 0.824,47.948C1.065,47.91 1.278,43.56 1.714,41.814L1.797,41.538C2.168,40.298 2.507,39.06 2.733,37.781C3.42,33.821 3.328,29.753 4.148,25.813C5.414,20.506 8.151,16.983 11.282,12.641C11.149,12.516 8.151,8.498 13.168,5.495C15.628,4.235 16.808,5.512 16.428,4.332C16.19,3.358 16.921,2.593 17.73,2.179C18.891,1.491 24.689,1.722 25.342,1.632C25.646,1.568 25.95,1.433 26.256,1.267L26.203,1.443C25.64,3.324 25.358,4.662 25.358,5.456Z" style="fill:white;"/>
                    <path id="ðŸ–-Ink" d="M31.891,13.024C31.897,12.965 31.977,12.965 31.983,13.024L32.074,13.899C32.184,14.968 32.291,16.035 32.368,17.109C32.464,18.448 32.529,19.787 32.56,21.129C32.668,25.803 32.69,30.48 32.699,35.156C33.333,35.112 33.968,35.07 34.602,35.029C35.033,35.001 35.464,34.975 35.894,34.949L36.992,34.882L37.445,34.855C37.75,34.836 38.097,34.759 38.311,35.029C38.396,35.137 38.439,35.277 38.36,35.405C38.176,35.701 37.893,35.691 37.574,35.704C37.272,35.716 36.971,35.728 36.669,35.739C36.024,35.764 35.378,35.788 34.732,35.806C34.053,35.825 33.376,35.84 32.698,35.852C32.691,37.826 32.609,39.797 32.52,41.769L32.48,42.656C32.372,45.055 32.255,47.457 32.09,49.853C32.076,50.049 31.798,50.049 31.784,49.853C31.598,47.154 31.475,44.45 31.353,41.748C31.264,39.789 31.212,37.829 31.188,35.869C31.098,35.87 31.009,35.871 30.919,35.871C28.375,35.882 25.832,35.893 23.288,35.87C23.292,35.875 23.296,35.88 23.299,35.886C23.483,36.319 23.5,36.872 23.496,37.337C23.491,37.87 23.419,38.397 23.296,38.916C22.854,40.773 21.716,42.437 20.419,43.813L20.376,43.858C20.071,44.18 19.72,44.503 19.532,44.914C19.34,45.333 19.274,45.823 19.179,46.273L19.168,46.325L18.798,48.029C18.68,48.57 18.647,49.36 18.217,49.75C17.816,50.114 17.285,49.924 17.096,49.455C16.948,49.089 17.095,48.687 17.182,48.321L17.866,45.455C17.979,44.988 18.102,44.517 18.344,44.098C18.593,43.668 18.957,43.356 19.328,43.037C20.032,42.433 20.678,41.742 21.224,40.993C21.771,40.245 22.237,39.42 22.565,38.553C22.728,38.119 22.863,37.667 22.955,37.213C23.043,36.781 23.043,36.334 23.137,35.907C23.143,35.878 23.168,35.858 23.197,35.849C23.19,35.83 23.201,35.804 23.227,35.802L25.308,35.669C27.157,35.55 29.007,35.428 30.855,35.289L31.181,35.265C31.156,32.65 31.177,30.034 31.225,27.418C31.268,25.019 31.269,22.62 31.341,20.221C31.376,19.031 31.453,17.843 31.538,16.655C31.626,15.44 31.765,14.235 31.891,13.024ZM12.355,26.934C12.333,26.801 12.501,26.718 12.578,26.84C13.464,28.232 13.891,29.744 14.072,31.373C14.231,32.81 14.184,34.269 14.105,35.71C14.02,37.248 13.921,38.785 13.822,40.321L13.669,42.678L13.284,48.585C13.257,49.007 13.161,49.392 12.796,49.588C12.749,49.627 12.701,49.661 12.645,49.691C12.448,49.796 12.186,49.743 12.072,49.541L12.118,49.571C12.158,49.596 12.113,49.561 11.984,49.467L11.874,49.325C11.795,49.206 11.744,49.088 11.723,48.946C11.691,48.726 11.733,48.484 11.747,48.262L11.999,44.388C12.195,41.377 12.424,38.367 12.596,35.354C12.676,33.949 12.732,32.544 12.694,31.137C12.656,29.738 12.585,28.316 12.355,26.934ZM20.019,1.003L20.068,0.995C21.828,0.704 23.742,0.758 25.35,1.604C25.363,1.611 25.357,1.633 25.342,1.632L24.825,1.612C23.186,1.548 21.552,1.51 19.941,1.894L19.776,1.933C19.196,2.074 18.59,2.247 18.124,2.629C17.678,2.994 17.456,3.558 17.243,4.076L17.214,4.145C16.998,4.657 16.724,5.143 16.25,5.463C15.635,5.878 14.896,5.827 14.192,5.883C12.952,5.982 11.937,6.879 11.433,7.975C11.127,8.639 10.997,9.383 10.971,10.109C10.958,10.479 10.956,10.863 11.005,11.23C11.021,11.348 11.167,11.776 11.241,11.765C11.406,11.743 11.557,11.828 11.608,11.96C12.016,11.567 12.435,11.186 12.868,10.819C13.947,9.903 15.109,9.073 16.332,8.36C17.266,7.815 18.252,7.276 19.272,6.868C19.191,6.867 19.111,6.883 19.034,6.923C19,6.94 18.967,6.898 18.993,6.87C19.315,6.533 19.7,6.485 20.088,6.575C20.17,6.549 20.253,6.523 20.336,6.499C20.378,6.487 20.398,6.544 20.365,6.566L20.269,6.627C20.693,6.768 21.108,7.046 21.437,7.265C22.382,7.895 23.214,8.664 24.057,9.419L24.211,9.556C24.953,10.217 25.714,10.859 26.557,11.389C26.999,11.666 27.463,11.923 27.949,12.114C28.366,12.278 29.045,12.381 29.241,12.82C29.414,13.03 29.342,13.299 29.138,13.44C28.795,13.817 28.109,13.574 27.7,13.417C27.208,13.228 26.73,13.001 26.275,12.734C25.391,12.217 24.576,11.574 23.817,10.89C23.024,10.176 22.276,9.416 21.505,8.68C21.171,8.36 20.844,8.033 20.51,7.715L20.342,7.556C20.171,7.396 19.928,7.147 19.667,6.997C19.177,7.288 18.68,7.568 18.194,7.867C17.516,8.284 16.858,8.731 16.21,9.193C14.963,10.083 13.781,11.079 12.683,12.147C10.671,14.106 8.956,16.343 7.458,18.711L7.345,18.891C6.494,20.247 5.689,21.646 5.118,23.144C4.49,24.792 4.185,26.525 4.019,28.275C3.854,30.012 3.798,31.758 3.614,33.493C3.426,35.273 3.054,37.013 2.631,38.751L2.53,39.163C2.147,40.718 1.752,42.274 1.556,43.867C1.451,44.718 1.387,45.58 1.402,46.438C1.416,47.3 1.552,48.144 1.662,48.997C1.704,49.324 1.381,49.597 1.092,49.64C0.76,49.69 0.475,49.479 0.371,49.171C0.049,48.212 -0.009,47.152 0.001,46.146C0.011,45.124 0.142,44.109 0.326,43.105C0.688,41.13 1.247,39.195 1.714,37.244C2.126,35.523 2.403,33.8 2.552,32.038C2.706,30.21 2.799,28.376 3.081,26.561C3.36,24.769 3.884,23.057 4.674,21.423C5.394,19.936 6.291,18.535 7.232,17.178C8.374,15.53 9.628,13.962 11.03,12.533C10.904,12.527 10.775,12.487 10.656,12.413C10.293,12.187 10.124,11.745 10.072,11.342C9.95,10.398 9.979,9.412 10.223,8.489C10.616,7.001 11.635,5.678 13.113,5.141C13.494,5.003 13.898,4.952 14.301,4.943C14.684,4.933 15.101,4.983 15.471,4.862C16.058,4.669 16.31,3.98 16.53,3.457L16.541,3.433C16.823,2.767 17.163,2.196 17.776,1.78C18.429,1.336 19.248,1.134 20.019,1.003ZM36.74,3.638C37.269,3.455 37.93,3.621 38.447,3.781C39.023,3.959 39.555,4.287 40.012,4.676C40.493,5.087 40.891,5.594 41.172,6.161L41.199,6.215C41.456,6.741 41.749,7.462 41.619,8.039C41.615,8.056 41.611,8.072 41.606,8.087C42.656,8.602 43.625,9.247 44.468,10.064C45.451,11.015 46.283,12.098 46.987,13.268C49.783,17.915 50.275,23.495 50.605,28.794L50.688,30.138C50.867,33.039 51.077,35.933 51.622,38.795L51.662,39.001C52.244,41.997 53.079,45.015 52.994,48.088C52.969,49.009 51.604,49.003 51.564,48.088C51.415,44.646 50.609,41.323 50.063,37.935C49.103,31.973 49.584,25.828 48.224,19.926C47.69,17.61 46.863,15.364 45.682,13.296C45.099,12.275 44.431,11.288 43.649,10.407C42.977,9.649 42.277,8.919 41.491,8.282C41.24,8.533 40.738,8.405 40.607,8.039C40.517,7.788 40.543,7.494 40.485,7.231C40.432,6.987 40.358,6.745 40.259,6.515C40.063,6.056 39.774,5.616 39.441,5.245C39.082,4.844 38.668,4.511 38.206,4.236C37.74,3.959 37.231,3.876 36.74,3.673C36.723,3.667 36.722,3.645 36.74,3.638ZM38.794,35.497C38.795,35.473 38.824,35.462 38.841,35.478C39.027,35.648 39.139,35.892 39.275,36.101C39.433,36.342 39.598,36.579 39.771,36.809C40.118,37.27 40.505,37.704 40.894,38.13C41.257,38.526 41.643,38.905 42.043,39.263C42.477,39.65 42.964,39.996 43.358,40.425C44.181,41.32 44.314,42.549 44.487,43.702L44.506,43.827C44.612,44.512 44.707,45.198 44.793,45.886C44.834,46.22 44.876,46.555 44.91,46.89L44.92,46.996C44.95,47.324 44.958,47.657 44.769,47.944C44.567,48.251 44.107,48.358 43.833,48.064C43.363,47.559 43.451,46.661 43.39,46.011C43.339,45.474 43.282,44.937 43.218,44.4L43.185,44.132C43.11,43.523 43.048,42.901 42.908,42.301C42.785,41.773 42.55,41.375 42.164,40.993C41.775,40.608 41.372,40.248 41.013,39.833C40.632,39.393 40.289,38.922 39.98,38.43C39.715,38.008 39.503,37.55 39.309,37.093L39.277,37.016C39.089,36.57 38.78,35.989 38.794,35.497ZM45.581,16.325C45.585,16.263 45.678,16.262 45.679,16.325C45.691,16.861 45.702,17.396 45.713,17.932C45.803,22.247 45.747,26.571 46.182,30.871C46.386,32.899 46.764,34.896 47.2,36.886C47.423,37.904 47.658,38.919 47.88,39.937C48.097,40.929 48.33,41.926 48.502,42.928C48.671,43.912 48.823,44.904 48.891,45.901L48.899,46.031C48.928,46.513 49.068,47.224 48.801,47.652C48.512,48.115 47.959,48.124 47.649,47.681C47.358,47.265 47.431,46.526 47.379,46.031C47.327,45.525 47.272,45.02 47.209,44.516C47.087,43.533 46.925,42.552 46.758,41.576C46.409,39.543 45.902,37.536 45.528,35.506C45.145,33.426 44.873,31.331 44.861,29.213C44.85,27.078 45.077,24.946 45.191,22.815C45.307,20.651 45.44,18.488 45.581,16.325ZM25.133,2.905C25.249,2.515 25.659,2.271 26.059,2.381C26.426,2.481 26.729,2.925 26.586,3.304C26.429,3.718 26.156,4.072 25.925,4.448C25.712,4.796 25.402,5.07 25.185,5.411L25.424,5.668C25.543,5.796 25.663,5.924 25.785,6.049L26.201,6.479C26.526,6.814 26.853,7.146 27.189,7.469C28.176,8.419 29.18,9.338 30.286,10.151C30.538,10.336 30.792,10.52 31.052,10.692L31.15,10.756C31.329,10.873 31.528,10.988 31.745,10.968C32.27,10.92 32.745,10.364 33.106,10.018L33.125,10C34.019,9.151 34.848,8.224 35.572,7.226C35.733,7.004 35.889,6.779 36.04,6.551C35.69,6.143 35.774,5.347 35.754,4.853C35.741,4.505 35.74,4.157 35.738,3.809L35.737,3.739C35.733,3.514 35.722,3.298 35.869,3.113C35.878,3.102 35.895,3.102 35.906,3.108C36.107,3.213 36.169,3.388 36.255,3.585L36.264,3.606C36.368,3.842 36.468,4.081 36.569,4.319C36.675,4.568 36.772,4.82 36.87,5.072C36.916,5.19 36.959,5.307 37.002,5.426C37.028,5.501 37.055,5.576 37.083,5.651L37.089,5.657C37.126,5.688 37.157,5.721 37.183,5.754C37.295,5.81 37.384,5.912 37.426,6.062C37.517,6.387 37.329,6.653 37.161,6.911C36.479,7.961 35.702,8.962 34.838,9.87C34.409,10.32 33.957,10.751 33.487,11.16L33.405,11.231C32.983,11.592 32.524,11.935 31.961,12.019C31.301,12.118 30.764,11.791 30.259,11.415L30.208,11.377C29.729,11.015 29.26,10.641 28.805,10.25C27.878,9.452 26.997,8.596 26.214,7.656C25.453,6.742 24.7,5.72 24.231,4.621C24.203,4.554 24.278,4.483 24.337,4.539C24.566,4.757 24.786,4.986 25.004,5.218C25.01,4.877 24.947,4.532 24.982,4.188C25.025,3.77 25.013,3.308 25.133,2.905Z"/>
                </g>
                <g id="HEAD" transform="matrix(1,0,0,1,19.6328,9.4028)">
                    <path id="_--Skin1" serif:id="âœ‹-Skin" d="M12.873,1.362C16.679,1.362 20.616,4.322 22.012,6.211C23.185,7.799 23.816,14.979 23.816,19.831C23.816,20.846 24.374,22.759 24.211,23.73C23.614,27.288 21.013,30.271 15.865,30.271C10.717,30.271 7.026,28.224 3.2,22.728C1.343,22.728 0.443,21.299 0.43,19.045C0.421,17.543 1.019,16.518 2.222,15.971C1.793,10.041 2.119,6.304 3.2,4.76C4.821,2.444 9.067,1.362 12.873,1.362Z" style="fill:white;"/>
                    <path id="ðŸ–-Ink1" serif:id="ðŸ–-Ink" d="M11.271,0.105C13.675,-0.139 16.03,0.066 18.398,0.49C18.579,0.523 18.681,0.642 18.72,0.785C19.835,0.836 20.952,0.918 22.066,0.98C22.47,1.002 22.699,1.403 22.515,1.764C22.478,1.836 22.44,1.906 22.401,1.976L22.45,1.96C22.785,1.852 23.147,1.799 23.474,1.97C23.889,2.188 24.052,2.669 23.96,3.111C23.937,3.224 23.897,3.333 23.852,3.438C23.944,3.432 24.035,3.434 24.127,3.446C24.612,3.511 24.972,3.884 24.998,4.381C25.035,5.131 24.554,5.893 23.986,6.43C24.068,6.6 24.1,6.801 24.065,7.004C23.997,7.405 23.702,7.645 23.361,7.802C23.503,8.256 23.57,8.731 23.531,9.216C23.517,9.378 23.376,9.512 23.227,9.544C23.783,11.079 24.064,12.726 24.266,14.331C24.41,15.473 24.481,16.621 24.49,17.772C24.494,18.291 24.485,18.811 24.464,19.331L24.455,19.526C24.428,20.087 24.427,20.677 24.326,21.232C24.669,21.818 24.808,22.545 24.866,23.201C24.938,24.014 24.824,24.852 24.568,25.624C23.604,28.544 20.695,30.387 17.773,30.865C15.068,31.309 11.938,30.712 10.358,28.247C10.333,28.208 10.386,28.176 10.417,28.202C11.548,29.124 12.859,29.536 14.285,29.736C16.749,30.082 19.519,29.496 21.496,27.941C22.445,27.194 23.13,26.108 23.431,24.938C23.584,24.341 23.637,23.717 23.577,23.102C23.515,22.478 23.24,21.945 23.066,21.355C23.008,21.156 23.069,20.971 23.191,20.84C23.225,20.361 23.305,19.878 23.336,19.401C23.37,18.858 23.391,18.315 23.399,17.772C23.413,16.645 23.366,15.516 23.271,14.393C23.098,12.338 22.639,10.333 22.37,8.295C22.27,8.385 22.127,8.422 21.977,8.344L21.961,8.335L21.88,8.288C21.875,8.288 21.869,8.289 21.865,8.289C21.305,8.344 20.725,8.266 20.188,8.098C19.627,7.924 19.106,7.655 18.641,7.296C18.553,7.746 18.516,8.201 18.515,8.659C18.514,8.946 18.212,9.094 17.972,8.972C16.908,8.43 15.892,7.805 14.927,7.103C14.815,7.682 14.702,8.261 14.589,8.841C14.545,9.064 14.262,9.154 14.08,9.048C13.358,8.626 12.733,8.074 12.225,7.418C12.124,7.612 12.022,7.807 11.92,8.001L11.765,8.292C11.613,8.578 11.41,8.894 11.076,8.985C10.724,9.082 10.429,8.853 10.311,8.533C10.275,8.433 10.241,8.331 10.21,8.228C9.91,8.916 9.571,9.589 9.187,10.23C8.612,11.192 7.922,12.05 7.233,12.929C7.024,13.196 6.666,12.941 6.637,12.682C6.621,12.529 6.607,12.376 6.594,12.223C6.193,13.035 5.775,13.84 5.319,14.621L5.384,14.878C5.572,15.636 5.728,16.4 5.898,17.162C5.953,17.408 5.823,17.76 5.536,17.802C5.194,17.852 4.87,18.027 4.52,17.907C4.137,17.775 4.062,17.443 3.881,17.129C3.845,17.067 3.803,17.009 3.758,16.955L3.747,16.97C3.719,17.007 3.652,16.966 3.669,16.924L3.688,16.875C3.533,16.71 3.348,16.572 3.177,16.424C2.772,16.355 2.315,16.43 2.036,16.596C1.4,16.972 1.108,17.748 1.102,18.462C1.094,19.297 1.352,20.236 1.788,20.95C1.98,21.264 2.243,21.548 2.59,21.687C2.934,21.825 3.308,21.782 3.658,21.913C3.89,22 4.033,22.258 3.893,22.492C3.884,22.508 3.873,22.523 3.863,22.538L3.967,22.677C4.039,22.773 4.114,22.876 4.183,22.983C4.362,23.189 4.549,23.388 4.731,23.59C5.067,23.963 5.393,24.347 5.723,24.725C6.035,25.082 6.365,25.418 6.704,25.748C7.026,26.061 7.426,26.324 7.721,26.657C8.008,26.983 8.086,27.551 7.614,27.739C7.092,27.948 6.63,27.458 6.278,27.132L6.263,27.118C5.619,26.524 5.037,25.844 4.575,25.095C4.117,25.408 3.455,25.438 3,25.125C2.76,24.961 2.576,24.685 2.486,24.384C2.402,24.403 2.318,24.414 2.236,24.413C2.193,24.437 2.151,24.461 2.108,24.484C1.768,24.661 1.35,24.582 1.195,24.205C1.053,23.862 1.199,23.473 1.327,23.143L1.353,23.075C1.426,22.887 1.505,22.682 1.605,22.489C1.328,22.28 1.092,22.021 0.893,21.727C0.222,20.735 -0.114,19.284 0.035,18.101C0.124,17.387 0.458,16.647 1.006,16.165L0.986,16.113C0.832,15.722 0.693,15.33 0.602,14.917C0.496,14.434 0.445,13.934 0.398,13.442C0.299,12.404 0.326,11.342 0.458,10.308C0.706,8.361 1.334,6.45 2.451,4.83C2.134,4.45 1.883,4.003 2.014,3.489C2.074,3.252 2.21,3.029 2.415,2.893C2.528,2.819 2.663,2.807 2.776,2.746L2.81,2.727C2.86,2.698 2.822,2.701 2.792,2.565C2.675,2.025 2.772,1.502 3.366,1.323C3.924,1.154 4.452,1.512 4.783,1.939C5.647,1.324 6.787,1.002 7.789,0.728C8.929,0.418 10.098,0.224 11.271,0.105ZM1.931,18.241C1.927,17.801 2.343,17.529 2.753,17.601C3.028,17.649 3.257,17.814 3.473,17.984L3.578,18.067C3.84,18.274 4.141,18.497 4.298,18.789C4.527,19.221 4.043,19.802 3.59,19.499C3.28,19.291 3.081,18.956 2.877,18.646L2.856,18.614C2.764,18.475 2.682,18.327 2.556,18.215L2.528,18.191C2.487,18.155 2.442,18.123 2.388,18.107C2.284,18.077 2.092,18.119 2.046,18.243L2.042,18.256C2.025,18.319 1.932,18.305 1.931,18.241Z"/>
                </g>
                <g id="FACE" transform="matrix(1,0,0,1,26.6328,18.4028)">
                    <path id="ðŸ–-Ink2" serif:id="ðŸ–-Ink" d="M11.76,14.974C11.314,15.147 10.786,15.188 10.326,15.041C9.885,14.9 9.486,14.586 9.244,14.191C9.028,13.84 8.938,13.423 9.065,13.007C9.072,12.987 9.091,12.974 9.11,12.969C9.215,13.063 9.279,13.156 9.343,13.248C9.452,13.404 9.56,13.558 9.71,13.692C9.927,13.886 10.219,14.043 10.509,14.095C10.794,14.146 11.084,14.101 11.339,13.967C11.494,13.885 11.619,13.776 11.743,13.667C11.878,13.548 12.01,13.427 12.196,13.359C12.345,13.305 12.501,13.351 12.622,13.441C12.751,13.538 12.844,13.69 12.838,13.849C12.83,14.095 12.721,14.3 12.563,14.469C12.349,14.698 12.046,14.863 11.76,14.974ZM11.23,8.843C11.726,9.141 12.483,9.835 11.949,10.573C11.32,11.223 10.415,10.477 9.969,10.14C9.555,9.878 9.091,10.551 9.474,10.856C12.698,13.21 14.005,8.921 11.481,8.493C11.203,8.446 11.1,8.751 11.23,8.843ZM6.008,4.719C6.685,4.687 7.281,4.987 7.926,5.123C8.522,5.249 9.109,5.173 9.688,5.013C10.629,4.753 11.018,6.173 10.09,6.45C9.415,6.651 8.703,6.665 8.01,6.562C7.394,6.469 6.878,6.173 6.291,6.001C5.787,5.854 5.194,5.915 4.662,5.985L4.455,6.012C4.148,6.053 3.84,6.094 3.536,6.153C3.272,6.204 3.009,6.298 2.739,6.309C2.709,6.311 2.683,6.271 2.702,6.245C3.015,5.822 3.618,5.488 4.097,5.265L4.13,5.25C4.721,4.978 5.349,4.75 6.008,4.719ZM5.76,7.841L5.76,7.827C5.761,7.413 6.005,6.469 6.609,6.469C6.986,6.469 7.215,7.112 7.254,7.774L7.256,7.801C7.273,8.213 7.159,9.113 6.609,9.113C6.053,9.113 5.766,8.261 5.76,7.841ZM14.646,7.841L14.646,7.827C14.645,7.413 14.401,6.469 13.797,6.469C13.43,6.469 13.203,7.08 13.155,7.725L13.152,7.774C13.128,8.172 13.235,9.113 13.797,9.113C14.353,9.113 14.64,8.261 14.646,7.841ZM14.637,4.215L14.68,4.216C15.385,4.24 16.111,4.652 16.299,5.345C16.309,5.38 16.264,5.405 16.237,5.38C15.657,4.844 14.877,5.356 14.297,5.624L14.083,5.722C13.335,6.065 12.483,6.469 11.652,6.213C11.257,6.091 11.006,5.691 11.119,5.287C11.219,4.928 11.659,4.625 12.04,4.755L12.058,4.761C12.367,4.878 12.748,4.76 13.068,4.643L13.331,4.546C13.753,4.388 14.177,4.211 14.637,4.215Z"/>
                </g>
            </g>
        </g>
    </g>
</svg>
