<?xml version="1.0" encoding="UTF-8" standalone="no"?>
<!DOCTYPE svg PUBLIC "-//W3C//DTD SVG 1.1//EN" "http://www.w3.org/Graphics/SVG/1.1/DTD/svg11.dtd">
<svg width="100%" height="100%" viewBox="0 0 52 84" version="1.1" xmlns="http://www.w3.org/2000/svg" xmlns:xlink="http://www.w3.org/1999/xlink" xml:space="preserve" xmlns:serif="http://www.serif.com/" style="fill-rule:evenodd;clip-rule:evenodd;stroke-linejoin:round;stroke-miterlimit:2;">
    <g transform="matrix(-1,0,0,1,52,0)">
        <g id="Introduction">
            <g id="avatar-girl-7">
                <g id="BODY" transform="matrix(0.612061,0,0,0.712018,8.53875,45.6226)">
                    <path id="ðŸ‘•-Top" d="M23.613,4.495L22.787,6.565L23.242,13.129L23.581,13.183C27.161,13.745 29.593,14.029 30.878,14.035L30.918,14.035C32.212,14.035 33.763,13.742 35.57,13.156L35.652,13.129L35.861,8.214L35.369,8.214L34.479,6.1L34.48,6.099C34.49,6.116 34.5,6.133 34.51,6.149C34.881,6.705 35.097,6.256 35.968,6.452C37.012,6.688 37.475,7.757 38.394,8.556C38.821,8.926 39.717,9.101 40.145,9.356L40.595,9.624C42.006,10.467 43.627,11.491 44.478,12.825C45.476,14.389 46.164,15.873 46.799,17.613C48.168,21.363 49.118,25.189 49.797,29.124C50.486,33.112 50.899,37.15 51.215,41.184C51.361,43.054 51.486,44.925 51.589,46.798L51.614,47.266C51.668,48.285 51.621,49.282 50.707,49.909C50.052,50.359 49.182,50.427 48.414,50.473L48.372,50.476C42.69,50.814 37.008,51.149 31.326,51.485L22.802,51.989C21.384,52.074 19.966,52.157 18.548,52.24L15.086,52.443C13.455,52.537 11.821,52.618 10.188,52.609C8.132,52.597 6.085,52.443 4.049,52.165L3.869,52.14C2.588,51.961 0.73,51.508 0.5,49.951C0.467,49.727 0.661,49.588 0.824,49.62C0.771,49.366 0.737,49.112 0.706,48.892C0.569,47.95 0.483,47.002 0.441,46.051C0.356,44.148 0.428,42.236 0.615,40.341C0.926,37.206 1.361,34.077 1.811,30.958L1.912,30.265C2.39,26.961 2.96,23.663 3.852,20.445C4.675,17.472 5.96,14.379 7.728,12.499C9.496,10.619 12.017,8.986 14.607,7.985C14.832,7.899 19.288,6.91 19.589,7.054L19.643,7.011C20.531,6.3 21.799,5.052 23.104,5.445L23.107,5.44C23.138,5.383 23.258,4.999 23.425,4.495L23.613,4.495Z" style="fill:white;"/>
                    <path id="_--Skin" serif:id="âœ‹-Skin" d="M24.556,1.739C25.635,0.352 26.773,-0.089 28.455,0.014C29.595,-0.027 30.732,0.273 31.698,0.935C32.582,1.404 33.367,2.049 33.927,2.878C34.405,3.588 34.042,5.341 34.479,6.1C34.475,6.183 34.472,6.258 34.472,6.326C34.472,6.982 34.923,7.715 35.825,8.524L35.861,8.556L35.861,13.326C34.345,13.798 32.468,14.035 30.23,14.035C28.025,14.035 25.732,13.66 23.351,12.909L23.242,12.875L22.787,7.69L23.242,6.256L23.242,5.054L23.418,4.516C23.73,3.571 24.207,2.187 24.556,1.739Z" style="fill:white;"/>
                    <path id="ðŸ‘•-Top1" serif:id="ðŸ‘•-Top" d="M23.242,12.875C25.911,13.662 28.156,14.056 29.978,14.056C31.8,14.056 33.691,13.662 35.652,12.875L35.175,51.756L27.494,51.852L23.242,12.875Z"/>
                    <path id="ðŸ–-Ink" d="M10.065,29.852C10.035,29.796 10.104,29.745 10.149,29.786C11.184,30.706 11.726,32.183 11.839,33.549C11.96,34.997 11.789,36.497 11.724,37.944C11.651,39.557 11.586,41.17 11.497,42.782C11.407,44.417 11.311,46.051 11.227,47.687L11.041,51.366C11.021,51.758 11.064,52.24 10.915,52.606C10.685,53.173 10.002,53.086 9.858,52.612L9.853,52.596L9.84,52.606C9.714,52.179 9.808,51.671 9.83,51.23L10.026,47.21C10.164,44.369 10.287,41.527 10.436,38.687L10.486,37.74C10.556,36.465 10.609,35.194 10.652,33.919L10.666,33.495C10.706,32.215 10.674,31.007 10.065,29.852ZM35.147,6.265C35.723,6.21 36.158,6.403 36.682,6.607C36.91,6.696 37.125,6.799 37.344,6.905C37.618,7.038 37.794,7.273 37.963,7.522L38.053,7.656C38.755,8.698 39.227,9.901 39.76,11.036C40.383,12.363 41.013,13.688 41.623,15.021L41.924,15.678C42.075,16.007 42.225,16.336 42.373,16.666L42.628,17.24C42.885,17.822 43.115,18.438 42.749,19.038C42.409,19.597 41.806,20.029 41.329,20.461C40.93,20.821 40.532,21.181 40.134,21.541C40.957,22.377 41.51,23.429 41.835,24.557C42.297,24.362 42.86,24.325 43.338,24.241C44.006,24.123 44.088,25.148 43.457,25.135C42.992,25.126 42.445,25.174 41.967,25.075C42.05,25.446 42.111,25.822 42.149,26.2C42.35,28.178 41.911,30.168 41.453,32.082L41.416,32.239C40.919,34.311 40.447,36.388 40.026,38.477C39.603,40.57 39.223,42.672 38.886,44.781C38.543,46.928 38.3,49.087 38.038,51.245C37.999,51.572 37.796,51.852 37.44,51.852C37.143,51.852 36.804,51.571 36.841,51.245C37.111,48.895 37.493,46.557 37.872,44.223C38.526,40.203 39.349,36.218 40.296,32.26L40.462,31.57C40.888,29.782 41.274,27.94 41.061,26.096C40.886,24.594 40.267,22.993 39.042,22.06L39.005,22.032C38.719,21.82 38.609,21.413 38.89,21.133C39.07,20.955 39.249,20.777 39.429,20.599L40.507,19.533L40.724,19.317C40.906,19.138 41.088,18.96 41.275,18.787C41.389,18.683 41.696,18.483 41.719,18.312C41.734,18.199 41.603,18.002 41.549,17.899L41.306,17.401C41.168,17.118 41.034,16.832 40.899,16.546C40.619,15.955 40.336,15.366 40.062,14.771L38.419,11.204C37.955,10.197 37.542,9.134 36.936,8.204L36.817,8.023C36.717,7.87 36.629,7.723 36.566,7.536C36.505,7.356 36.429,7.159 36.317,7.006C36.055,6.646 35.553,6.441 35.133,6.366C35.072,6.355 35.094,6.27 35.147,6.265ZM22.508,5.328C22.544,5.328 22.55,5.381 22.516,5.391C22.01,5.545 21.526,5.794 21.131,6.154C20.942,6.326 20.752,6.521 20.635,6.753C20.59,6.841 20.566,6.935 20.548,7.032L20.542,7.064C20.512,7.24 20.469,7.337 20.381,7.478L20.366,7.501C19.864,8.287 19.512,9.159 19.191,10.032L18.49,11.936L17.79,13.84C17.565,14.454 17.339,15.068 17.114,15.681C16.989,16.02 16.861,16.357 16.733,16.695C16.678,16.841 16.618,16.986 16.567,17.134C16.56,17.154 16.538,17.276 16.522,17.305L16.527,17.315C16.668,17.556 17.045,17.757 17.258,17.932L17.993,18.534C18.517,18.963 19.054,19.38 19.562,19.828C19.881,20.11 19.683,20.614 19.327,20.732C18.73,20.929 18.146,21.164 17.558,21.387C17.321,21.477 17.074,21.555 16.839,21.655L16.697,21.717C16.641,21.742 16.668,21.742 16.67,21.846C16.672,21.956 16.703,22.07 16.72,22.177C16.918,23.39 17.128,24.6 17.349,25.809C18.133,30.082 19.068,34.323 20.136,38.532C20.675,40.658 21.253,42.773 21.804,44.895C22.353,47.012 23.076,49.099 23.767,51.172C23.962,51.756 23.047,52.008 22.857,51.426C22.061,48.988 21.333,46.528 20.581,44.076C19.246,39.719 18.193,35.267 17.262,30.805C16.801,28.593 16.379,26.373 15.997,24.146C15.925,23.724 15.854,23.303 15.784,22.88L15.683,22.26C15.613,21.817 15.574,21.356 15.913,21.006C16.245,20.664 16.814,20.543 17.25,20.382L17.282,20.371C17.56,20.266 17.839,20.164 18.118,20.06C17.707,19.733 17.302,19.398 16.893,19.071C16.563,18.808 16.227,18.549 15.902,18.279C15.634,18.056 15.415,17.771 15.387,17.409C15.358,17.039 15.515,16.695 15.641,16.356L15.653,16.323C15.777,15.984 15.901,15.646 16.029,15.308L16.817,13.219C17.318,11.891 17.798,10.552 18.325,9.235C18.534,8.714 18.761,8.201 19.03,7.708C19.159,7.47 19.298,7.238 19.449,7.013C19.618,6.762 19.771,6.639 20.033,6.5C20.452,6.278 20.781,5.906 21.201,5.678C21.614,5.453 22.039,5.333 22.508,5.328ZM23.867,2.959C23.883,2.931 23.926,2.944 23.926,2.976C23.937,3.635 23.783,4.31 23.687,4.962C23.592,5.617 23.561,6.308 23.423,6.956C23.42,6.986 23.414,7.016 23.406,7.045L23.4,7.067C23.341,7.249 23.189,7.403 23.003,7.451C23.062,7.78 23.117,8.109 23.163,8.44C23.243,9.01 23.316,9.58 23.387,10.15L23.473,10.835C23.554,11.48 23.632,12.125 23.71,12.77C23.908,12.854 24.11,12.923 24.317,12.983C24.793,13.121 25.28,13.177 25.771,13.226C26.772,13.326 27.78,13.372 28.784,13.428L28.999,13.44C30.127,13.506 31.262,13.518 32.388,13.4C32.946,13.342 33.5,13.244 34.045,13.106C34.321,13.036 34.59,12.931 34.866,12.862C34.958,12.839 35.039,12.787 35.131,12.73C35.172,12.678 35.229,12.639 35.304,12.623L35.324,12.62L35.344,12.617L35.351,12.614L35.35,12.616C35.407,12.608 35.46,12.608 35.511,12.615C35.531,12.112 35.553,11.609 35.58,11.106C35.654,9.755 35.856,8.345 35.586,7.006C35.577,6.961 35.637,6.945 35.653,6.987C36.184,8.405 36.124,9.955 36.151,11.448C36.177,12.907 36.161,14.368 36.154,15.827C36.257,15.872 36.349,15.932 36.422,16.017C36.568,16.186 36.61,16.48 36.422,16.643C36.339,16.716 36.247,16.766 36.15,16.801C36.145,18.069 36.136,19.337 36.123,20.605C36.361,20.792 36.383,21.234 36.114,21.418C36.069,25.525 35.996,29.632 35.935,33.738L35.807,42.354C35.79,43.502 35.761,44.649 35.751,45.797L35.759,45.8L35.788,45.814C35.835,45.836 35.906,45.873 35.921,45.911C35.925,45.92 35.926,45.927 35.925,45.932C36.003,45.943 36.081,45.981 36.148,46.045C36.313,46.204 36.279,46.444 36.148,46.606L36.113,46.649C36.03,46.75 35.875,46.789 35.747,46.769C35.749,47.485 35.753,48.201 35.751,48.918C35.75,49.137 35.747,49.355 35.743,49.574L35.734,50.099C35.728,50.398 35.702,50.779 35.4,50.913C35.058,51.065 34.752,50.941 34.614,50.589C34.576,50.494 34.584,50.405 34.598,50.311C34.594,50.17 34.572,50.006 34.575,49.875L34.586,49.328C34.588,49.244 34.591,49.159 34.593,49.075L34.584,49.076C33.37,49.136 32.149,49.107 30.934,49.106L30.393,49.107C29.942,49.107 29.49,49.105 29.04,49.087L28.871,49.08C28.534,49.064 28.18,49.059 27.83,49.028C27.875,49.392 27.916,49.755 27.953,50.12C27.989,50.465 27.637,50.758 27.323,50.758C26.951,50.758 26.738,50.461 26.693,50.12C26.482,48.507 26.396,46.879 26.195,45.265C26.015,43.82 25.859,42.371 25.7,40.923L25.647,40.44C25.066,35.17 24.502,29.898 23.962,24.624L23.711,22.158C23.457,19.673 23.202,17.187 22.986,14.698C22.863,13.275 22.75,11.852 22.643,10.428C22.565,9.381 22.516,8.341 22.483,7.296C22.357,7.165 22.294,6.973 22.35,6.774C22.383,6.658 22.421,6.543 22.461,6.428C22.458,6.315 22.456,6.202 22.453,6.089C22.451,5.982 22.559,5.927 22.645,5.944C22.801,5.561 22.973,5.182 23.116,4.803C23.348,4.189 23.54,3.527 23.867,2.959ZM10.902,9.594C13.328,8.052 16.217,6.943 19.111,7.063C19.177,7.066 19.195,7.167 19.127,7.183C17.584,7.532 16.023,7.957 14.562,8.576C13.097,9.197 11.703,10.033 10.462,11.037C8.172,12.891 6.393,15.302 5.221,18.019C4.534,19.611 4.053,21.292 3.633,22.973C3.188,24.752 2.822,26.551 2.517,28.36C1.916,31.934 1.565,35.547 1.379,39.167C1.189,42.849 1.267,46.533 1.132,50.215C1.109,50.853 0.209,50.841 0.163,50.215C-0.143,46.029 0.026,41.775 0.31,37.592C0.565,33.831 1.01,30.078 1.726,26.377L1.789,26.056C2.459,22.633 3.267,19.126 4.887,16.026C6.27,13.379 8.404,11.179 10.902,9.594ZM44.604,25.956C44.616,25.92 44.664,25.92 44.677,25.956C44.954,26.741 44.964,27.626 45.037,28.454L45.043,28.517C45.113,29.272 45.167,30.027 45.216,30.783L45.234,31.067C45.432,34.151 45.68,37.232 46.053,40.3C46.425,43.356 46.928,46.392 47.472,49.421C47.533,49.758 47.385,50.102 47.036,50.199C46.729,50.284 46.334,50.092 46.269,49.757C45.931,48.018 45.658,46.277 45.414,44.524C44.985,41.435 44.665,38.333 44.46,35.221C44.356,33.658 44.293,32.096 44.268,30.53C44.256,29.803 44.275,29.075 44.313,28.349L44.322,28.182C44.364,27.44 44.36,26.664 44.604,25.956ZM18.379,45.601C18.411,45.584 18.451,45.62 18.431,45.654C17.961,46.428 17.325,47.095 16.711,47.753C16.068,48.44 15.442,49.149 14.786,49.822C14.313,50.309 13.551,49.524 14.051,49.077C14.754,48.449 15.488,47.853 16.203,47.239L16.516,46.97C17.102,46.468 17.706,45.971 18.379,45.601ZM40.699,45.214C40.664,45.146 40.744,45.091 40.799,45.136C41.178,45.448 41.518,45.821 41.884,46.151C42.246,46.477 42.622,46.782 43.008,47.079C43.396,47.377 43.793,47.663 44.2,47.934C44.537,48.159 44.885,48.339 45.239,48.525C45.403,48.547 45.554,48.628 45.676,48.782C45.867,49.027 45.888,49.487 45.622,49.699L45.574,49.737C45.263,49.984 44.895,50.014 44.589,49.737C44.247,49.427 43.925,49.086 43.597,48.759L43.498,48.661C43.146,48.314 42.802,47.956 42.478,47.582L42.185,47.244C41.641,46.615 41.074,45.937 40.699,45.214ZM38.953,8.96C38.89,8.918 38.929,8.804 39.007,8.831L39.15,8.881C39.746,9.091 40.36,9.324 40.902,9.647C41.483,9.995 42.021,10.409 42.534,10.853C43.597,11.772 44.501,12.902 45.269,14.08C46.811,16.444 47.764,19.151 48.534,21.86C49.355,24.749 49.987,27.699 50.503,30.658C51.027,33.665 51.431,36.699 51.697,39.741C51.828,41.239 51.916,42.739 51.96,44.242C51.983,45.016 51.982,45.789 51.976,46.562C51.974,46.761 51.976,46.96 51.978,47.159L51.985,47.756C51.989,48.133 52.034,48.53 51.945,48.898C51.803,49.492 50.835,49.381 50.866,48.775C50.837,48.573 50.836,48.364 50.844,48.155C50.839,48.128 50.834,48.101 50.829,48.073C50.813,47.993 50.826,47.919 50.857,47.855C50.862,47.755 50.867,47.655 50.868,47.557C50.875,47.159 50.874,46.762 50.863,46.364C50.841,45.524 50.808,44.684 50.774,43.845C50.708,42.167 50.615,40.489 50.481,38.816C50.014,32.992 49.028,27.134 47.372,21.531C46.603,18.929 45.543,16.375 44.022,14.126C43.347,13.128 42.586,12.206 41.741,11.35C40.892,10.489 39.955,9.633 38.953,8.96ZM27.494,46.505L27.609,47.347C27.667,47.767 27.723,48.188 27.777,48.609C28.144,48.558 28.518,48.537 28.871,48.505C29.489,48.45 30.111,48.423 30.731,48.397C32.013,48.343 33.301,48.25 34.584,48.257C34.597,48.257 34.609,48.258 34.622,48.259L34.685,46.599L33.784,46.598C33.02,46.597 32.257,46.59 31.493,46.584C30.805,46.578 30.117,46.577 29.43,46.562L29.135,46.555C28.613,46.541 28.038,46.57 27.494,46.505ZM34.761,44.097C34.724,44.101 34.687,44.105 34.647,44.107C34.468,44.114 34.288,44.109 34.11,44.11C33.729,44.114 33.349,44.116 32.968,44.116C32.208,44.116 31.447,44.121 30.686,44.13C29.903,44.14 29.121,44.153 28.337,44.155C27.958,44.156 27.58,44.146 27.2,44.135C27.262,44.681 27.326,45.227 27.397,45.771C27.986,45.691 28.619,45.731 29.195,45.726L29.27,45.725C30.055,45.711 30.842,45.721 31.628,45.722C32.436,45.723 33.245,45.726 34.053,45.732L34.718,45.738L34.719,45.704C34.738,45.169 34.751,44.633 34.761,44.097ZM26.908,41.484C26.982,42.128 27.051,42.774 27.121,43.42C27.168,43.413 27.216,43.406 27.264,43.401C27.644,43.361 28.023,43.326 28.404,43.302C29.165,43.255 29.925,43.229 30.686,43.209C31.469,43.188 32.252,43.171 33.036,43.16C33.416,43.155 33.796,43.155 34.177,43.158C34.355,43.159 34.536,43.153 34.714,43.165C34.735,43.167 34.755,43.169 34.776,43.171L34.789,42.202C34.791,42.041 34.794,41.879 34.796,41.718C34.208,41.754 33.61,41.74 33.023,41.741L32.887,41.741C32.149,41.744 31.41,41.734 30.672,41.718C29.91,41.702 29.15,41.677 28.389,41.628C28.081,41.608 27.776,41.581 27.469,41.547L27.316,41.529C27.183,41.513 27.045,41.5 26.908,41.484ZM34.857,38.748C33.441,38.862 32.032,38.91 30.611,38.924L30.398,38.926C29.143,38.936 27.878,38.988 26.62,38.954C26.695,39.615 26.77,40.276 26.846,40.936C27.026,40.928 27.207,40.928 27.383,40.921C27.741,40.908 28.098,40.905 28.457,40.904C29.195,40.902 29.933,40.909 30.672,40.907C31.433,40.906 32.193,40.893 32.954,40.878C33.571,40.867 34.194,40.82 34.813,40.821L34.857,38.748ZM34.917,35.929C34.753,35.985 34.559,35.988 34.347,35.998L33.798,36.026C33.544,36.038 33.29,36.05 33.036,36.06C32.188,36.091 31.341,36.12 30.493,36.148C29.625,36.176 28.752,36.192 27.884,36.164C27.458,36.151 27.036,36.128 26.612,36.092C26.507,36.083 26.4,36.077 26.293,36.07C26.392,36.945 26.491,37.82 26.591,38.696C27.843,38.54 29.104,38.443 30.355,38.282L31.485,38.136C32.615,37.99 33.744,37.846 34.879,37.725L34.917,35.929ZM34.977,33.079C34.736,33.14 34.462,33.137 34.231,33.151L34.188,33.154C33.75,33.188 33.31,33.205 32.871,33.216C32.01,33.237 31.149,33.248 30.288,33.253L29.77,33.257C29.08,33.261 28.39,33.263 27.699,33.246C27.256,33.236 26.815,33.214 26.372,33.191C26.239,33.185 26.104,33.18 25.968,33.173C26.06,34.002 26.154,34.831 26.247,35.659C26.393,35.636 26.539,35.618 26.678,35.594C27.035,35.533 27.391,35.485 27.75,35.441C28.528,35.346 29.31,35.278 30.092,35.221C30.894,35.162 31.698,35.112 32.5,35.055L33.069,35.015C33.258,35.001 33.448,34.988 33.638,34.977C33.961,34.957 34.338,34.979 34.659,34.908C34.746,34.871 34.842,34.863 34.939,34.884L34.977,33.079ZM35.05,29.743C34.967,29.85 34.842,29.907 34.694,29.926C33.921,30.028 33.128,30.044 32.349,30.092L32.211,30.101C31.407,30.154 30.601,30.197 29.796,30.24C28.969,30.284 28.141,30.321 27.313,30.35C26.962,30.362 26.608,30.364 26.256,30.359L26.106,30.357C25.961,30.355 25.81,30.355 25.658,30.35C25.742,31.125 25.827,31.9 25.913,32.675C26.067,32.658 26.222,32.645 26.372,32.628C26.814,32.581 27.256,32.534 27.699,32.499C28.539,32.432 29.38,32.391 30.222,32.349C31.083,32.306 31.944,32.277 32.805,32.237C33.223,32.217 33.64,32.192 34.056,32.153C34.348,32.126 34.695,32.025 34.999,32.062C35.016,31.289 35.033,30.516 35.05,29.743ZM35.118,26.755C35.105,26.776 35.089,26.796 35.071,26.814C34.73,27.155 34.311,27.129 33.86,27.164L33.832,27.167C33.391,27.204 32.948,27.24 32.506,27.272C31.622,27.337 30.735,27.382 29.85,27.423C28.943,27.464 28.031,27.492 27.124,27.474C26.543,27.461 25.934,27.464 25.342,27.406C25.433,28.26 25.524,29.113 25.616,29.967C25.783,29.935 25.951,29.91 26.11,29.885C26.51,29.821 26.911,29.757 27.313,29.71C28.118,29.616 28.923,29.529 29.729,29.449C30.418,29.382 31.107,29.313 31.797,29.251L32.211,29.215C33.035,29.144 33.868,29.029 34.694,29.012C34.83,29.009 34.984,29.084 35.062,29.202C35.08,28.386 35.099,27.571 35.118,26.755ZM35.175,24.336C34.965,24.361 34.739,24.347 34.545,24.353C34.054,24.369 33.563,24.384 33.073,24.399L30.13,24.487C29.128,24.517 28.122,24.539 27.119,24.525C26.678,24.519 26.235,24.518 25.795,24.494L25.648,24.485C25.466,24.473 25.244,24.471 25.026,24.448L25.283,26.857C25.873,26.771 26.481,26.739 27.065,26.688L27.19,26.677C28.053,26.597 28.919,26.545 29.783,26.485C30.669,26.425 31.554,26.351 32.44,26.275C32.882,26.238 33.324,26.2 33.766,26.159L33.821,26.153C34.238,26.109 34.631,26.015 35.001,26.265C35.055,26.301 35.097,26.35 35.126,26.405C35.142,25.715 35.158,25.025 35.175,24.336ZM35.244,21.524C33.451,21.597 31.658,21.653 29.865,21.677C28.855,21.691 27.846,21.681 26.837,21.66C26.399,21.65 25.958,21.629 25.52,21.595L25.356,21.582C25.148,21.564 24.93,21.551 24.712,21.53C24.802,22.358 24.891,23.187 24.98,24.015C25.194,23.975 25.418,23.956 25.605,23.932L25.648,23.926C26.114,23.861 26.584,23.823 27.053,23.782C27.964,23.7 28.881,23.648 29.795,23.603C30.731,23.558 31.668,23.519 32.605,23.477L33.541,23.434C33.697,23.427 33.853,23.42 34.009,23.414C34.232,23.404 34.455,23.395 34.678,23.386C34.788,23.381 34.903,23.366 35.013,23.372L35.044,23.367C35.059,23.366 35.071,23.364 35.083,23.363C35.113,23.34 35.145,23.321 35.179,23.306L35.2,23.298L35.244,21.524ZM24.418,18.86C24.502,19.605 24.584,20.351 24.665,21.097C24.921,21.068 25.18,21.051 25.424,21.029C25.916,20.984 26.41,20.945 26.904,20.922L27.891,20.876C28.549,20.845 29.206,20.815 29.865,20.791C31.666,20.724 33.468,20.648 35.268,20.555C35.281,20.049 35.294,19.543 35.307,19.037C35.221,19.131 35.096,19.192 34.932,19.192C33.042,19.187 31.15,19.198 29.26,19.166C28.314,19.151 27.369,19.127 26.424,19.078C25.962,19.054 25.497,19.005 25.038,18.941C24.842,18.913 24.628,18.894 24.418,18.86ZM24.116,16.203C24.205,16.966 24.292,17.731 24.378,18.495C24.612,18.452 24.855,18.43 25.074,18.4C25.544,18.335 26.018,18.283 26.492,18.256C27.414,18.203 28.337,18.176 29.26,18.157C31.15,18.116 33.042,18.116 34.932,18.101C35.109,18.1 35.241,18.171 35.328,18.277C35.341,17.8 35.355,17.323 35.369,16.846C35.186,16.827 35.005,16.799 34.838,16.787C34.323,16.751 33.808,16.717 33.293,16.687C32.218,16.625 31.142,16.572 30.066,16.524C28.99,16.477 27.913,16.43 26.837,16.39L26.366,16.373C25.617,16.344 24.856,16.309 24.116,16.203ZM23.777,13.326C23.87,14.1 23.961,14.873 24.052,15.647L24.079,15.887C24.98,15.709 25.929,15.657 26.837,15.618C27.913,15.572 28.988,15.548 30.066,15.551C31.142,15.555 32.217,15.58 33.293,15.625C33.83,15.648 34.368,15.674 34.905,15.704C35.053,15.712 35.226,15.707 35.404,15.71C35.408,15.588 35.411,15.467 35.415,15.345C35.432,14.853 35.448,14.36 35.464,13.868C35.101,14.057 34.629,14.133 34.264,14.214L34.222,14.223C33.619,14.36 33.003,14.449 32.388,14.503C31.179,14.61 29.958,14.57 28.751,14.467L28.54,14.449C27.479,14.355 26.38,14.237 25.352,13.971C24.863,13.845 24.357,13.668 23.918,13.411C23.872,13.384 23.825,13.356 23.777,13.326ZM33.986,4.133C33.996,4.091 34.058,4.082 34.079,4.121C34.221,4.396 34.275,4.725 34.374,5.02C34.48,5.336 34.58,5.655 34.698,5.968C34.943,6.622 35.234,7.249 35.579,7.855C35.922,8.454 34.963,8.882 34.711,8.226C34.451,7.549 34.237,6.849 34.107,6.133C34.044,5.784 33.988,5.43 33.97,5.075C33.954,4.771 33.912,4.43 33.986,4.133Z"/>
                </g>
                <g id="HEAD" transform="matrix(1,0,0,1,3.50572,12.8081)">
                    <path id="_--Skin1" serif:id="âœ‹-Skin" d="M30.857,12.846C26.381,9.208 19.208,8.026 14.417,11.697C10.694,15.143 9.153,24.933 9.812,29.853C9.995,33.008 12.405,36.585 15.943,35.587C16.544,35.528 17.128,35.297 17.734,35.249C18.459,35.165 19.19,35.164 19.914,35.266C21.491,35.489 22.889,36.327 24.42,36.719C27.261,37.445 30.43,36.957 32.875,35.32C40.955,30.006 37.295,17.989 30.857,12.846Z" style="fill:white;"/>
                    <path id="ðŸ–-Ink1" serif:id="ðŸ–-Ink" d="M30.261,36.806C30.344,36.777 30.427,36.748 30.509,36.717C30.515,36.736 30.524,36.754 30.534,36.772C30.545,36.801 30.557,36.829 30.57,36.856C30.467,36.857 30.363,36.839 30.261,36.806M30.095,1.544C30.058,1.461 30.016,1.382 29.968,1.306C30.084,1.343 30.2,1.395 30.305,1.462C30.234,1.486 30.164,1.513 30.095,1.544M12.415,12.31C12.41,12.309 12.405,12.308 12.401,12.308C12.461,12.146 12.569,11.993 12.689,11.883C12.71,11.863 12.733,11.845 12.756,11.826C12.629,11.977 12.514,12.138 12.415,12.31M44.765,29.215C44.705,28.648 44.629,28.082 44.53,27.52C44.436,26.981 44.356,26.405 44.082,25.928C43.809,25.452 43.537,24.989 43.213,24.571C43.259,24.357 43.32,24.156 43.373,23.994C43.679,23.062 43.981,21.877 43.345,21.011C43.197,20.81 43.017,20.656 42.81,20.517C42.723,20.458 42.577,20.404 42.51,20.323C42.462,20.265 42.478,20.296 42.476,20.267C42.465,20.114 42.825,19.789 42.91,19.667C43.068,19.442 43.185,19.188 43.275,18.928C43.63,17.902 43.389,16.771 43.175,15.743C43.062,15.197 42.938,14.651 42.897,14.094C42.859,13.571 42.93,13.061 42.972,12.541C43.013,12.027 43.002,11.498 42.783,11.023C42.675,10.791 42.512,10.587 42.314,10.428C42.121,10.272 41.88,10.181 41.692,10.026C41.504,9.871 41.558,9.663 41.607,9.449C41.674,9.159 41.759,8.871 41.767,8.571C41.782,8.049 41.569,7.541 41.236,7.146C40.893,6.738 40.403,6.462 39.874,6.4C39.632,6.372 39.393,6.42 39.152,6.403C38.914,6.387 38.863,6.268 38.818,6.05C38.714,5.551 38.756,5.058 38.511,4.593C38.293,4.179 37.906,3.898 37.478,3.733C36.693,3.429 35.78,3.492 34.953,3.671C34.464,2.233 32.939,1.29 31.438,1.279C31.204,0.881 30.807,0.584 30.355,0.41C29.606,0.121 28.813,0.29 28.034,0.29L28.03,0.29C27.952,0.285 27.874,0.283 27.795,0.284C27.722,0.279 27.648,0.273 27.575,0.265C26.687,0.16 25.809,-0.203 24.93,0.153C24.538,0.311 24.226,0.556 24.029,0.868C23.732,0.949 23.438,1.041 23.151,1.149C21.903,1.181 20.667,1.851 20.036,2.935C19.148,2.834 18.184,3.005 17.597,3.731C17.444,3.92 17.326,4.141 17.247,4.377C16.648,4.571 16.094,4.916 15.731,5.436C15.4,5.91 15.337,6.524 15.561,7.033C15.026,7.42 14.608,7.975 14.407,8.63C14.285,9.028 14.267,9.439 14.345,9.83C13.798,9.952 13.274,10.177 12.81,10.515C12.324,10.869 11.717,11.432 11.685,12.08C11.683,12.128 11.685,12.176 11.688,12.223C10.618,12.148 9.527,12.329 8.804,13.187C8.261,13.831 8.024,14.66 8.169,15.415C6.896,15.674 5.692,16.34 4.852,17.324C4.242,18.039 3.699,18.949 3.732,19.923C3.742,20.216 3.811,20.512 3.93,20.785L3.93,20.785C3.879,20.881 3.827,20.988 3.776,21.102C2.988,21.654 2.415,22.519 2.092,23.473C1.831,24.245 1.667,25.249 1.946,26.035C1.988,26.155 2.042,26.268 2.104,26.373C2.052,26.429 2.002,26.484 1.954,26.541C1.422,27.162 0.884,27.945 0.921,28.801C0.936,29.145 1.064,29.492 1.273,29.776C0.538,30.522 -0.054,31.463 0.004,32.513C0.054,33.427 0.556,34.356 1.342,34.795C1.211,35.499 1.386,36.243 1.935,36.793C2.208,37.068 2.531,37.249 2.873,37.345C2.949,38.175 3.685,38.843 4.467,39.035C4.613,39.071 4.758,39.093 4.903,39.103C5.607,39.448 6.446,39.408 7.164,39.092C7.376,39.361 7.651,39.58 7.973,39.737C8.103,39.801 8.24,39.854 8.384,39.897C9.398,40.197 10.438,39.79 11.324,39.315C11.353,39.3 11.405,39.281 11.452,39.26C11.574,39.397 11.797,39.532 11.914,39.599C12.309,39.826 12.791,39.931 13.244,39.901C13.776,39.866 14.245,39.69 14.679,39.441C14.742,39.451 14.806,39.458 14.87,39.461C15.279,39.483 15.643,39.353 15.97,39.149C16.186,39.178 16.408,39.175 16.633,39.136C17.128,39.261 17.609,39.061 17.997,38.743C18.168,38.603 18.313,38.437 18.468,38.279C18.63,38.115 18.752,38.077 18.941,37.967C19.386,37.706 19.44,37.045 19.247,36.567C19.284,36.483 19.305,36.39 19.305,36.287C19.303,35.384 18.888,34.556 18.377,33.834C18.149,33.512 17.901,33.197 17.63,32.911C17.411,32.682 17.104,32.309 16.781,32.216C16.761,32.202 16.741,32.187 16.721,32.174C16.783,31.955 16.82,31.731 16.804,31.503C16.788,31.269 16.712,31.047 16.591,30.858C16.998,30.07 17.169,29.207 17.087,28.305C17.418,27.836 17.669,27.318 17.798,26.751C17.877,26.399 17.923,26.03 17.917,25.67C17.914,25.497 17.851,25.278 17.85,25.099C17.859,25.156 17.933,24.945 17.961,24.892C18.289,24.283 18.71,23.808 18.781,23.09C18.821,22.67 18.722,22.205 18.47,21.861C18.632,21.225 18.63,20.542 18.376,19.936C18.308,19.774 18.229,19.615 18.14,19.465C18.181,19.338 18.219,19.21 18.268,19.095C18.287,19.05 18.306,19.003 18.325,18.957C18.51,18.794 18.681,18.617 18.826,18.442C19.145,18.056 19.39,17.614 19.42,17.104C19.435,16.849 19.375,16.604 19.301,16.362C19.269,16.253 19.249,16.131 19.21,16.024C19.188,15.965 19.136,15.904 19.118,15.848C19.113,15.836 19.11,15.826 19.107,15.818C19.11,15.809 19.112,15.792 19.112,15.76C19.113,15.516 19.145,15.277 19.146,15.042C19.37,15.268 19.64,15.436 19.946,15.535C20.563,15.733 21.207,15.643 21.753,15.338C22.341,15.741 23.002,16.105 23.695,16.252C24.107,16.339 24.519,16.303 24.932,16.357C25.343,16.41 25.739,16.589 26.126,16.729C26.986,17.04 27.844,17.359 28.707,17.662C29.404,17.907 30.158,18.101 30.888,17.963C31.093,18.279 31.359,18.546 31.7,18.742C31.944,18.881 32.212,18.976 32.489,19.023C32.734,19.065 33.021,19.048 33.22,19.216C33.414,19.38 33.535,19.623 33.709,19.807C33.903,20.013 34.143,20.191 34.394,20.319C34.595,20.422 34.801,20.496 35.01,20.544C34.992,21.009 34.974,21.474 34.968,21.939C34.958,22.951 34.962,23.962 34.949,24.974C34.935,25.982 34.903,26.99 34.85,27.997C34.8,28.942 34.729,29.89 34.504,30.812C33.756,33.87 30.957,36.06 27.824,36.172C26.894,36.205 25.973,36.074 25.083,35.801C24.162,35.517 23.339,34.933 22.394,34.753C22.147,34.707 21.915,34.955 22.056,35.194C22.3,35.605 22.596,35.855 23.001,36.102C23.425,36.36 23.897,36.552 24.363,36.719C25.221,37.027 26.128,37.205 27.038,37.255C27.732,37.293 28.429,37.245 29.109,37.115C29.156,37.261 29.241,37.403 29.305,37.539C29.314,37.558 29.346,37.545 29.34,37.524C29.33,37.49 29.323,37.46 29.32,37.436C29.549,37.734 29.902,37.94 30.265,38.04C30.521,38.111 30.793,38.133 31.056,38.103C31.141,38.093 31.222,38.079 31.302,38.061C31.57,38.296 31.913,38.453 32.258,38.531C32.199,38.891 32.376,39.283 32.788,39.385C32.961,39.428 33.127,39.428 33.293,39.413C33.427,39.475 33.571,39.524 33.724,39.558C33.924,39.601 34.162,39.545 34.312,39.401C34.395,39.459 34.472,39.499 34.548,39.591C34.862,39.969 35.538,39.668 35.568,39.23C35.667,39.23 35.767,39.232 35.867,39.235C35.891,39.246 35.915,39.257 35.939,39.268C36.377,39.472 36.83,39.65 37.314,39.49C37.403,39.46 37.485,39.423 37.559,39.379C37.9,39.41 38.236,39.411 38.582,39.299C38.786,39.233 38.978,39.128 39.138,38.991C39.672,39.147 40.235,39.218 40.765,39.024C41.163,38.879 41.483,38.65 41.708,38.349C42.052,38.361 42.402,38.278 42.717,38.114C43.256,37.835 43.634,37.304 43.897,36.773C44.477,35.6 44.82,34.34 44.955,33.04C45.088,31.761 44.898,30.488 44.765,29.215"/>
                </g>
                <g id="FACE" transform="matrix(1,0,0,1,21.5057,28.8081)">
                    <path id="ðŸ–-Ink2" serif:id="ðŸ–-Ink" d="M8.73,13.399C9.117,12.771 9.942,14.309 10.03,14.574C10.108,14.808 10.159,15.048 10.185,15.291C10.485,15.358 10.797,15.358 11.104,15.3C11.561,15.213 11.841,14.971 12.238,14.763C12.512,14.619 12.858,14.787 13.001,15.026C13.169,15.307 13.062,15.598 12.841,15.807C12.423,16.204 11.599,16.295 11.052,16.19C10.739,16.13 10.452,16.014 10.199,15.845C10.197,15.877 10.196,15.908 10.194,15.94L10.189,15.994C10.147,16.434 10.024,16.988 9.678,17.274C9.109,17.744 8.408,16.84 8.96,16.371L8.977,16.357C9.32,16.083 9.395,15.349 9.377,14.945C9.365,14.681 9.316,14.414 9.232,14.162L9.214,14.112C9.189,14.041 8.911,13.368 8.811,13.453L8.806,13.458C8.765,13.507 8.698,13.45 8.73,13.399ZM11.821,9.854C12.344,10.168 13.14,10.898 12.578,11.675C11.916,12.36 10.963,11.575 10.494,11.22C10.058,10.944 9.569,11.652 9.973,11.974C13.366,14.451 14.743,9.936 12.085,9.486C11.793,9.436 11.684,9.757 11.821,9.854ZM6.241,6.958C6.751,6.869 7.275,6.994 7.697,7.289L7.729,7.312C8.136,7.605 8.592,8.121 8.358,8.627C8.265,8.831 7.984,8.863 7.806,8.77C7.509,8.617 7.455,8.239 7.19,8.031C6.973,7.859 6.681,7.755 6.401,7.78C5.745,7.839 5.341,8.478 5.137,9.029C5.11,9.099 5.006,9.127 4.965,9.051C4.484,8.164 5.335,7.117 6.241,6.958ZM14.421,6.624C15.4,6.544 16.545,7.545 16.287,8.563C16.164,9.052 15.429,9.038 15.298,8.563C15.226,8.302 15.233,8.071 15.043,7.854C14.885,7.675 14.662,7.571 14.421,7.587C14.156,7.604 13.912,7.735 13.726,7.918C13.559,8.084 13.458,8.327 13.285,8.473C13.242,8.509 13.185,8.512 13.143,8.473C12.844,8.202 13.023,7.636 13.213,7.352C13.484,6.946 13.926,6.664 14.421,6.624ZM4.378,5.152C5.005,4.604 6.146,4.075 6.992,4.344C7.479,4.499 7.691,5.273 7.148,5.518C6.519,5.802 5.793,5.686 5.153,5.98C4.884,6.104 4.631,6.258 4.444,6.485C4.297,6.664 4.147,6.899 3.933,7.001C3.877,7.029 3.801,7.029 3.757,6.979C3.289,6.457 3.969,5.508 4.378,5.152ZM13.343,4.317C13.731,4.21 14.161,4.212 14.555,4.279C14.949,4.347 15.349,4.508 15.67,4.743L15.708,4.77C16.059,5.031 16.478,5.411 16.455,5.873C16.437,6.259 16.025,6.52 15.669,6.318C15.38,6.153 15.243,5.822 14.998,5.602C14.796,5.421 14.558,5.278 14.304,5.177C14.022,5.066 13.74,5.013 13.438,5.009C13.205,5.005 12.97,5.08 12.742,5.104C12.761,5.142 12.58,5.124 12.477,5.091C12.4,5.058 12.399,4.963 12.426,4.901C12.558,4.593 13.038,4.402 13.343,4.317Z"/>
                </g>
            </g>
        </g>
    </g>
</svg>
