<?xml version="1.0" encoding="UTF-8" standalone="no"?>
<!DOCTYPE svg PUBLIC "-//W3C//DTD SVG 1.1//EN" "http://www.w3.org/Graphics/SVG/1.1/DTD/svg11.dtd">
<svg width="100%" height="100%" viewBox="0 0 51 74" version="1.1" xmlns="http://www.w3.org/2000/svg" xmlns:xlink="http://www.w3.org/1999/xlink" xml:space="preserve" xmlns:serif="http://www.serif.com/" style="fill-rule:evenodd;clip-rule:evenodd;stroke-linejoin:round;stroke-miterlimit:2;">
    <g transform="matrix(-1,0,0,1,51,0)">
        <g id="Introduction">
            <g id="avatar-boy-10">
                <g id="BODY" transform="matrix(0.620201,0,0,0.810025,9.02668,33.6506)">
                    <path id="_--Skin" serif:id="âœ‹-Skin" d="M3.456,47.795C11.869,49.067 20.434,49.131 28.917,48.669C32.274,48.419 35.642,48.374 38.996,48.693C40.979,48.84 49.669,49.501 50.379,47.735C49.933,38.329 49.027,28.843 46.251,19.798C45.109,16.586 44.128,13.92 41.899,11.262C41.197,10.536 39.682,9.014 38.814,8.518C38.062,8.088 37.748,8.241 37.316,7.515C36.887,6.712 36.57,5.373 35.961,4.806C35.341,4.23 34.421,4.436 33.282,4.622C33.491,1.807 32.185,1.09 30.386,0.555C27.224,-0.646 24.101,-0.042 23.306,3.788C21.83,3.788 21.001,4.419 20.105,5.026C19.738,5.275 19.993,5.907 19.556,6.102C18.746,6.389 17.316,6.318 16.536,6.671C12.992,8.276 9.835,10.604 7.761,14.003C3.113,21.259 -0.08,36.546 0.473,45.147C0.231,45.525 0.565,46.066 0.651,46.472C0.758,46.826 1.106,47.061 1.469,47.02C1.975,47.562 2.759,47.683 3.456,47.795Z" style="fill:white;"/>
                    <path id="ðŸ‘•-Top" d="M20.959,4.363C21.477,3.825 22.29,3.503 23.059,3.521L23.095,3.523L23.357,3.534L23.182,4.386L23.173,4.427L23.138,4.575L23.09,4.769L23.073,4.84L23.056,4.919C23.053,4.931 23.05,4.944 23.047,4.957L23.04,4.994L22.965,5.356L22.979,5.388L22.975,5.47C22.964,5.768 23.028,5.931 23.17,5.984L23.181,5.988L23.262,6.014L23.328,6.156C23.48,6.482 23.622,6.767 23.768,7.036C24.192,7.818 24.699,8.6 25.283,9.386C25.838,10.133 26.416,10.846 27.017,11.523C27.287,11.828 27.573,12.133 27.876,12.444L28.138,12.711L28.221,12.795L28.277,12.85L28.347,12.918L28.447,13.013L28.52,13.085L28.544,13.107C28.574,13.135 28.597,13.153 28.617,13.166L28.625,13.171L28.648,13.185L29.861,14.454L30.289,14.688L30.492,14.8L30.533,14.718L30.542,14.692L30.993,13.708L31.268,13.104C31.833,11.864 32.272,10.877 32.674,9.937L32.724,9.82L32.872,9.47L32.95,9.283C33.31,8.427 33.575,7.766 33.812,7.124L33.846,7.032L33.896,6.895L33.971,6.688L33.984,6.653C34.048,6.489 33.89,5.891 33.734,5.564L33.725,5.546L33.685,5.465L33.641,5.38C33.537,5.179 33.463,4.957 33.4,4.688C33.39,4.644 33.38,4.6 33.371,4.556L33.358,4.489L33.338,4.384L33.322,4.297L33.671,4.238L33.862,4.207L33.946,4.194C34.054,4.178 34.151,4.164 34.241,4.153L34.275,4.148L34.336,4.141L34.338,4.153L34.463,4.165L34.555,4.175C35.011,4.223 35.362,4.276 35.612,4.334L35.637,4.34L35.681,4.351L35.701,4.357C35.928,4.417 36.103,4.549 36.242,4.743C36.337,4.876 36.398,5.003 36.496,5.244L36.531,5.331L36.647,5.617C36.661,5.651 36.682,5.707 36.71,5.783L36.809,6.05L37.302,7.407L37.808,7.671C38.042,7.793 38.214,7.882 38.299,7.923L38.329,7.938L38.351,7.948L38.525,8.016L38.506,8.07L38.527,8.082C40.607,9.273 42.211,11.104 43.46,13.536L43.498,13.609L43.537,13.686C44.532,15.666 45.245,17.876 45.941,20.827L45.984,21.011L46.018,21.156L46.2,21.944C46.882,24.917 47.351,27.134 47.739,29.309L47.764,29.451L47.828,29.82C48.316,32.636 48.723,35.426 49.05,38.189L49.104,38.654C49.24,39.841 49.363,41.068 49.497,42.541L49.514,42.739L49.573,43.401C49.636,44.115 49.693,44.826 49.745,45.537L49.77,45.892L49.822,46.663L49.853,47.103L49.857,47.163L49.869,47.392L49.873,47.446C49.877,47.515 49.883,47.573 49.889,47.627L49.895,47.666L49.901,47.705C49.918,47.81 49.952,47.904 50.008,48.009L50.023,48.035L50.119,48.207L49.944,48.299C49.03,48.778 47.231,48.989 44.764,49L44.534,49C43.335,48.999 42.064,48.953 40.738,48.875L40.438,48.856L40.188,48.841C40.08,48.834 39.975,48.827 39.866,48.819L39.699,48.807L39.002,48.757C35.866,48.458 32.576,48.463 28.952,48.733C19.503,49.247 11.347,49.03 3.681,47.892L3.449,47.857L3.278,47.829L3.176,47.812C2.363,47.674 1.852,47.497 1.454,47.125L1.433,47.106L1.416,47.089L1.408,47.089C1.007,47.087 0.64,46.826 0.503,46.441L0.496,46.42L0.487,46.392L0.481,46.363C0.475,46.335 0.467,46.306 0.457,46.273L0.45,46.248L0.386,46.041L0.6,46.003C0.618,45.999 0.637,45.986 0.656,45.96L0.674,45.934L0.704,45.892L0.779,45.791C0.858,45.68 0.897,45.611 0.916,45.541C0.933,45.48 0.939,45.401 0.938,45.291L0.936,45.237L0.928,45.042C0.927,45.027 0.927,45.013 0.927,45L0.926,44.98L0.926,44.706L0.927,44.405C0.927,44.273 0.928,44.145 0.929,44.019L0.931,43.832L0.933,43.681C0.943,42.846 0.967,42.012 1.006,41.18C1.083,39.554 1.213,37.931 1.398,36.314C1.78,32.976 2.365,29.738 3.16,26.609L3.24,26.297C4.1,22.953 4.929,20.375 5.983,17.991C7.323,14.959 8.957,12.464 11.015,10.469C12.146,9.372 13.399,8.446 14.731,7.736C15.343,7.41 15.994,7.12 16.692,6.859L16.792,6.822L16.953,6.763L17.077,6.718L17.476,6.57C17.56,6.538 17.651,6.503 17.759,6.461L17.826,6.435L18.541,6.151L18.66,6.105L18.792,6.054L18.889,6.017C19.047,5.956 19.191,5.904 19.324,5.858L19.403,5.831L19.474,5.807L19.779,5.702L19.773,5.978C19.769,6.161 19.817,6.3 19.923,6.4L19.93,6.406L19.933,6.408L19.951,6.407L20.024,6.407C20.031,6.403 20.038,6.398 20.045,6.393C20.147,6.306 20.195,6.19 20.241,5.923L20.253,5.849L20.275,5.71L20.283,5.657C20.314,5.473 20.341,5.37 20.393,5.254C20.469,5.085 20.569,4.92 20.686,4.769L20.713,4.734L20.823,4.603L20.84,4.582C20.879,4.533 20.898,4.499 20.906,4.467L20.908,4.458L20.919,4.403L20.959,4.363Z"/>
                    <path id="ðŸ–-Ink" d="M38.278,8.305C38.227,8.276 38.272,8.203 38.324,8.227C40.819,9.392 42.733,11.435 44.08,13.795C45.474,16.24 46.269,19.015 46.954,21.727L46.979,21.825C47.71,24.727 48.331,27.659 48.891,30.597C49.457,33.573 49.912,36.568 50.277,39.575C50.458,41.062 50.62,42.551 50.746,44.043C50.808,44.789 50.866,45.535 50.917,46.282C50.937,46.581 50.957,46.879 50.973,47.178L50.985,47.402C50.995,47.606 51.02,47.81 50.969,48.01C50.926,48.183 50.834,48.34 50.753,48.498C50.592,48.812 50.154,48.761 49.981,48.498L49.931,48.422C49.817,48.246 49.722,48.083 49.686,47.864C49.651,47.652 49.65,47.43 49.634,47.216C49.605,46.822 49.581,46.427 49.553,46.033C49.495,45.204 49.429,44.375 49.357,43.546C49.213,41.911 49.059,40.277 48.87,38.646C48.533,35.747 48.111,32.857 47.614,29.981C47.128,27.172 46.513,24.392 45.872,21.615L45.806,21.328C44.684,16.479 42.954,10.896 38.278,8.305ZM11.703,27.29C11.721,27.241 11.8,27.23 11.814,27.29C11.982,28.043 11.998,28.818 12.024,29.589C12.049,30.349 12.048,31.113 12.037,31.874C11.996,34.67 11.919,37.464 11.852,40.26C11.819,41.658 11.788,43.057 11.764,44.455C11.755,44.98 11.747,45.504 11.741,46.029L11.733,46.721C11.729,47.027 11.721,47.329 11.683,47.634C11.659,47.835 11.606,48.027 11.494,48.199C11.415,48.322 11.302,48.384 11.192,48.467L11.172,48.483C11.032,48.593 10.884,48.594 10.745,48.483L10.705,48.451C10.572,48.348 10.457,48.267 10.373,48.104C10.255,47.877 10.236,47.63 10.216,47.38C10.186,47.001 10.206,46.616 10.21,46.236C10.217,45.473 10.228,44.71 10.242,43.947C10.291,41.149 10.389,38.35 10.566,35.557C10.65,34.242 10.764,32.922 10.916,31.612L10.945,31.366C10.992,30.981 11.034,30.588 11.081,30.195C10.372,29.698 9.748,29.096 9.217,28.412C9.177,28.362 9.242,28.292 9.289,28.34C9.832,28.9 10.456,29.346 11.145,29.697C11.258,28.873 11.414,28.054 11.703,27.29ZM23.555,2.349C23.565,2.341 23.58,2.338 23.589,2.349C23.742,2.526 23.711,2.796 23.716,3.02L23.716,3.041C23.727,3.369 23.729,3.696 23.728,4.023L23.725,5.067C23.725,5.211 23.713,5.36 23.72,5.504L23.724,5.56C23.804,5.642 23.841,5.76 23.814,5.878C23.809,6.03 23.729,6.157 23.613,6.237L23.863,6.589L24.113,6.941C24.628,7.668 25.148,8.389 25.691,9.096C26.245,9.816 26.835,10.51 27.453,11.177C27.755,11.502 28.062,11.824 28.376,12.138C28.503,12.266 28.634,12.39 28.764,12.516L28.892,12.643C28.968,12.718 29.064,12.793 29.114,12.889C29.144,12.945 29.151,13.085 29.162,13.108C29.257,13.316 29.094,13.649 28.824,13.545L28.836,13.537C28.886,13.503 28.854,13.502 28.742,13.535C28.671,13.535 28.604,13.519 28.542,13.487L28.524,13.477C28.437,13.432 28.359,13.347 28.288,13.278L28.27,13.262C28.108,13.11 27.953,12.95 27.797,12.792C27.473,12.462 27.155,12.125 26.848,11.779C26.235,11.088 25.654,10.369 25.103,9.629C24.543,8.874 24.022,8.081 23.573,7.255C23.403,6.942 23.247,6.622 23.098,6.299C22.807,6.206 22.739,5.898 22.76,5.551C22.652,5.303 22.556,5.049 22.498,4.789C22.491,4.754 22.537,4.72 22.564,4.751C22.657,4.857 22.743,4.969 22.826,5.084C22.876,4.84 22.939,4.617 22.969,4.474L23.098,3.844C22.371,3.807 21.575,4.104 21.074,4.624C21.047,4.759 20.942,4.856 20.84,4.983C20.723,5.128 20.621,5.29 20.546,5.46C20.377,5.836 20.472,6.391 20.145,6.667C20.111,6.696 20.073,6.716 20.034,6.728C20.189,7.485 20.119,8.318 20.115,9.086L20.115,9.153C20.116,10.012 20.087,10.872 20.054,11.73L20.02,12.58C19.976,13.713 19.947,14.846 20.058,15.973C20.563,15.528 21.085,15.103 21.626,14.698C21.981,14.432 22.344,14.175 22.713,13.928L23.012,13.729C23.372,13.489 23.74,13.242 24.133,13.071C24.648,12.846 25.137,12.923 25.634,13.154C26.128,13.383 26.608,13.649 27.093,13.898C27.587,14.15 28.081,14.401 28.576,14.652C28.903,14.819 29.383,14.969 29.623,15.275C29.638,15.208 29.656,15.14 29.677,15.073C29.653,14.97 29.662,14.859 29.72,14.753C30.527,13.278 31.274,11.768 32.015,10.259C32.39,9.496 32.747,8.724 33.123,7.961L33.488,7.218C33.549,7.094 33.611,6.97 33.672,6.847C33.765,6.662 33.861,6.479 33.954,6.294C33.993,6.216 34.043,6.139 34.081,6.06L34.099,6.021C34.1,6.019 34.189,5.742 34.12,5.768L34.114,5.771C34.079,5.79 34.051,5.747 34.074,5.719C34.171,5.6 34.305,5.705 34.361,5.815C34.513,6.119 34.234,6.594 34.127,6.885L34.121,6.901C33.788,7.837 33.412,8.756 33.026,9.672C32.286,11.428 31.491,13.157 30.698,14.889L30.689,14.919C30.858,14.79 31.039,14.673 31.193,14.559C31.583,14.272 31.985,13.998 32.385,13.726C33.12,13.226 33.875,12.76 34.643,12.311L34.797,12.222C35.18,12 35.56,11.82 36.015,11.886C36.437,11.948 36.83,12.174 37.212,12.358L37.252,12.377L38.432,12.935C38.306,12.434 38.169,11.936 38.027,11.44C37.749,10.472 37.443,9.512 37.111,8.561C36.801,7.672 36.467,6.793 36.112,5.921L36.006,5.66C35.861,5.301 35.718,4.909 35.305,4.799C34.893,4.688 34.419,4.852 34.043,4.618C34.008,4.597 34.012,4.541 34.054,4.53L34.287,4.472C34.723,4.364 35.235,4.255 35.648,4.36C36.098,4.475 36.47,4.85 36.688,5.24C36.93,5.674 37.101,6.16 37.285,6.622L37.314,6.695C37.525,7.219 37.728,7.746 37.923,8.276C38.311,9.336 38.665,10.408 38.985,11.49C39.14,12.012 39.286,12.536 39.427,13.061C39.467,13.212 39.534,13.395 39.589,13.586C39.651,13.647 39.711,13.715 39.766,13.793C39.859,13.921 39.792,14.072 39.678,14.149C39.673,14.28 39.644,14.404 39.574,14.51C39.3,14.924 38.575,14.817 38.605,14.261C38.609,14.176 38.642,14.094 38.693,14.026L38.691,14.015L38.686,13.994C38.56,13.934 38.434,13.867 38.301,13.802L37.062,13.193C36.703,13.017 36.306,12.744 35.907,12.677C35.535,12.614 35.143,12.89 34.823,13.056L34.802,13.067C34.03,13.461 33.263,13.868 32.5,14.278C32.127,14.479 31.759,14.687 31.388,14.89C31.077,15.059 30.742,15.303 30.393,15.398C30.244,15.514 30.067,15.498 29.924,15.411C29.99,15.812 29.986,16.223 30.005,16.633C30.032,17.181 30.036,17.73 30.045,18.278L30.049,18.484C30.072,19.697 30.085,20.909 30.09,22.122C30.106,26.441 30.058,30.761 30.047,35.08C30.041,37.25 29.998,39.421 29.941,41.59C29.917,42.51 29.867,43.428 29.813,44.345L29.783,44.846C29.72,45.902 29.682,46.97 29.486,48.012C29.46,48.148 29.229,48.151 29.206,48.012C29.026,46.895 29.016,45.754 28.981,44.625L28.973,44.399C28.932,43.186 28.912,41.974 28.916,40.761C28.931,36.44 29.044,32.122 29.137,27.803C29.183,25.633 29.214,23.462 29.286,21.293C29.323,20.207 29.363,19.122 29.412,18.037C29.433,17.553 29.454,17.069 29.487,16.585L29.501,16.378C29.511,16.242 29.519,16.109 29.529,15.976C29.09,16.136 28.688,15.84 28.293,15.638C27.837,15.405 27.382,15.172 26.926,14.939L26.47,14.707L25.557,14.243C25.146,14.034 24.83,13.827 24.391,14.072C22.812,14.953 21.361,16.126 20.046,17.357C19.794,17.593 19.261,17.529 19.197,17.134C18.924,15.444 19.09,13.729 19.229,12.034L19.281,11.405C19.343,10.654 19.411,9.902 19.501,9.153C19.541,8.819 19.582,8.484 19.626,8.15L19.66,7.899C19.716,7.503 19.752,7.109 19.871,6.729C19.834,6.717 19.798,6.698 19.765,6.667C19.409,6.331 19.581,5.746 19.743,5.346C19.904,4.951 20.149,4.606 20.456,4.309C20.523,4.244 20.617,4.202 20.712,4.2C21.456,3.71 22.272,3.465 23.122,3.733C23.145,3.619 23.17,3.506 23.195,3.393L23.221,3.28C23.288,3 23.312,2.536 23.555,2.349ZM31.18,46.634C31.411,46.571 31.664,46.638 31.833,46.806C32.002,46.974 32.069,47.226 32.005,47.455C31.973,47.568 31.916,47.667 31.833,47.75C31.755,47.827 31.664,47.882 31.561,47.914L31.537,47.922L31.499,47.937C31.383,47.968 31.267,47.968 31.152,47.937C31.041,47.906 30.945,47.851 30.864,47.77C30.783,47.689 30.727,47.594 30.696,47.483C30.665,47.368 30.665,47.253 30.696,47.138L30.711,47.101C30.743,46.987 30.801,46.889 30.884,46.806C30.968,46.723 31.066,46.666 31.18,46.634ZM44.888,23.746C44.926,23.703 44.987,23.759 44.964,23.805C44.604,24.506 44.203,25.202 43.809,25.886C43.841,26.075 43.872,26.263 43.908,26.447C44.062,27.227 44.25,27.994 44.372,28.782C44.813,31.615 45.041,34.479 45.238,37.337C45.434,40.206 45.46,43.076 45.489,45.951C45.492,46.2 45.299,46.489 45.041,46.536C44.923,46.558 44.834,46.553 44.717,46.536C44.448,46.497 44.28,46.191 44.268,45.951C44.191,44.344 44.088,42.74 43.968,41.136C43.755,38.292 43.625,35.441 43.453,32.594L43.393,31.6C43.328,30.522 43.268,29.443 43.249,28.363C43.236,27.648 43.274,26.933 43.251,26.218C43.229,25.559 43.162,24.842 43.308,24.194C43.313,24.169 43.352,24.163 43.363,24.186C43.515,24.505 43.611,24.851 43.685,25.204C44.077,24.711 44.476,24.217 44.888,23.746ZM19.233,6.323C19.288,6.319 19.286,6.401 19.233,6.407C18.464,6.496 17.722,6.807 16.996,7.072L16.934,7.094C16.201,7.359 15.486,7.667 14.798,8.034C13.453,8.751 12.218,9.676 11.126,10.735C6.766,14.961 4.779,21.057 3.323,26.784C2.514,29.967 1.939,33.203 1.566,36.464C1.382,38.077 1.251,39.696 1.175,41.317C1.136,42.148 1.112,42.98 1.102,43.812C1.096,44.238 1.095,44.664 1.095,45.09C1.095,45.285 1.131,45.531 1.078,45.721C1.029,45.896 0.892,46.051 0.791,46.197C0.67,46.371 0.454,46.362 0.332,46.197L0.287,46.137C0.157,45.966 0.029,45.801 0.011,45.577C-0.009,45.336 0.005,45.088 0.004,44.846C0.002,44.359 0.008,43.872 0.018,43.385C0.037,42.452 0.074,41.519 0.129,40.588C0.24,38.697 0.424,36.809 0.687,34.933C1.154,31.599 1.854,28.296 2.772,25.055C3.637,21.997 4.662,18.949 6.123,16.117C7.479,13.488 9.258,11.042 11.606,9.204C12.698,8.35 13.886,7.637 15.167,7.101C15.813,6.831 16.492,6.61 17.182,6.484C17.865,6.359 18.544,6.377 19.233,6.323ZM31.312,41.23C31.434,41.229 31.57,41.256 31.675,41.323L31.814,41.431C31.852,41.479 31.89,41.528 31.928,41.576C32.015,41.69 32.027,41.873 32.008,42.008C32.004,42.098 31.977,42.182 31.928,42.259L31.821,42.397C31.719,42.479 31.634,42.539 31.51,42.579C31.445,42.599 31.383,42.604 31.321,42.601L31.3,42.599L31.312,42.601L31.291,42.599C31.27,42.597 31.25,42.595 31.23,42.592C31.216,42.59 31.202,42.589 31.188,42.587C31.175,42.586 31.162,42.586 31.148,42.587C30.991,42.602 30.833,42.513 30.721,42.411C30.62,42.319 30.53,42.124 30.544,41.986L30.55,41.928C30.561,41.83 30.569,41.792 30.611,41.694C30.651,41.599 30.708,41.515 30.784,41.444C30.931,41.308 31.111,41.232 31.312,41.23ZM30.825,34.101C31.034,33.874 31.393,33.857 31.652,33.994C31.715,34.028 31.773,34.081 31.829,34.126C31.969,34.239 32.024,34.442 32.032,34.614C32.039,34.783 31.949,34.984 31.829,35.101L31.799,35.13C31.727,35.2 31.624,35.26 31.523,35.279C31.36,35.309 31.223,35.308 31.071,35.244C30.941,35.189 30.829,35.101 30.752,34.982L30.74,34.962C30.735,34.953 30.73,34.945 30.725,34.936L30.718,34.923C30.573,34.645 30.612,34.331 30.825,34.101ZM30.933,26.933C31.028,26.904 31.122,26.9 31.216,26.921C31.28,26.921 31.34,26.937 31.395,26.969C31.455,26.985 31.507,27.016 31.551,27.059C31.604,27.091 31.647,27.133 31.678,27.186C31.741,27.254 31.783,27.334 31.805,27.426L31.83,27.613L31.805,27.8L31.734,27.969C31.714,27.994 31.694,28.02 31.674,28.045C31.643,28.098 31.6,28.141 31.547,28.172C31.512,28.206 31.472,28.232 31.428,28.25C31.27,28.362 31.06,28.399 30.873,28.348C30.762,28.317 30.665,28.261 30.584,28.18C30.503,28.099 30.446,28.003 30.415,27.893L30.402,27.804C30.386,27.686 30.383,27.621 30.417,27.47C30.432,27.404 30.475,27.311 30.497,27.272C30.593,27.104 30.749,26.989 30.933,26.933ZM39.114,21.777C39.384,21.775 39.655,21.775 39.925,21.778L40.128,21.781C40.468,21.786 40.759,21.752 41.026,21.986C41.22,22.156 41.134,22.442 40.95,22.57C40.671,22.764 40.322,22.666 40.001,22.645C39.663,22.622 39.325,22.604 38.987,22.589C38.332,22.56 37.676,22.541 37.021,22.538C36.366,22.535 35.711,22.541 35.057,22.552C34.391,22.563 33.698,22.624 33.036,22.556C32.945,22.546 32.925,22.427 33.014,22.397C33.638,22.182 34.34,22.112 34.994,22.03C35.668,21.945 36.342,21.885 37.021,21.847C37.718,21.807 38.416,21.782 39.114,21.777ZM30.932,19.668L30.954,19.669C31.074,19.669 31.185,19.697 31.289,19.752L31.311,19.764L31.454,19.874C31.541,19.962 31.602,20.065 31.636,20.184L31.661,20.371C31.665,20.468 31.644,20.558 31.6,20.642C31.571,20.729 31.523,20.804 31.454,20.868C31.39,20.937 31.314,20.985 31.227,21.013C31.149,21.054 31.066,21.074 30.977,21.074L30.954,21.074C30.827,21.074 30.708,21.042 30.598,20.978L30.455,20.868C30.367,20.78 30.307,20.677 30.273,20.558L30.248,20.371C30.244,20.274 30.265,20.184 30.309,20.1C30.337,20.013 30.386,19.938 30.455,19.874C30.519,19.806 30.595,19.757 30.682,19.729C30.76,19.688 30.843,19.668 30.932,19.668ZM33.026,3.159C33.178,2.94 33.454,3.135 33.415,3.311C33.425,3.807 33.451,4.287 33.564,4.772C33.616,4.994 33.684,5.217 33.788,5.42L33.832,5.506C33.968,5.772 34.073,6.024 33.891,6.316C33.805,6.454 33.649,6.558 33.48,6.55C32.732,6.518 32.63,5.482 32.584,4.904C32.537,4.309 32.683,3.654 33.026,3.159Z"/>
                </g>
                <g id="HEAD" transform="matrix(1,0,0,1,11.6836,9.02668)">
                    <path id="_--Skin1" serif:id="âœ‹-Skin" d="M16.489,0.496C19.331,0.496 22.74,1.893 23.03,1.921L23.038,1.922C23.191,1.922 23.786,2.382 24.826,3.303L23.7,5.53L23.791,5.618C24.227,6.042 24.599,6.428 24.893,6.733C27.292,9.22 27.723,18.984 27.158,22.389C26.592,25.794 25.545,29.126 20.671,29.126C15.797,29.126 10.374,26.154 9.538,25.228C8.982,24.611 8.356,24.316 7.662,24.341C7.633,24.305 7.605,24.268 7.577,24.232L7.475,24.217C6.514,24.076 5.826,23.886 5.41,23.648C4.597,23.181 3.704,20.73 3.704,20.19C3.704,19.656 2.37,15.767 2.344,15.355L2.343,15.344C2.343,15 0.601,13.419 0.601,12.916C0.601,12.414 0.25,12.445 0.601,10.675L0.703,10.155C1.077,8.271 1.808,5.15 4.597,3.795C7.662,2.305 13.619,0.496 16.489,0.496Z" style="fill:white;"/>
                    <path id="ðŸ§¢-Hat" d="M16.489,0.515C19.33,0.515 22.74,1.912 23.03,1.94L23.038,1.94C23.19,1.94 23.786,2.401 24.825,3.322L24.572,3.821C18.977,3.933 15.127,4.394 13.02,5.205C10.578,6.145 9.044,9.717 8.42,15.92C7.567,16.33 6.714,16.869 5.86,17.538C5.007,18.207 4.791,18.553 5.212,18.575C5.176,20.009 5.289,21.01 5.552,21.579C5.815,22.148 6.725,22.482 8.282,22.583L8.678,23.927L8.623,24.55C8.319,24.411 7.998,24.348 7.661,24.36C7.633,24.324 7.605,24.287 7.576,24.251L7.474,24.236C6.514,24.095 5.825,23.905 5.409,23.667C4.597,23.2 3.703,20.749 3.703,20.209C3.703,19.675 2.37,15.786 2.343,15.374L2.343,15.363C2.343,15.019 0.6,13.437 0.6,12.935C0.6,12.81 0.578,12.717 0.551,12.622L0.522,12.524C0.444,12.253 0.366,11.874 0.6,10.694L0.702,10.174C1.076,8.29 1.808,5.169 4.597,3.814C7.661,2.324 13.619,0.515 16.489,0.515Z" style="fill:white;"/>
                    <path id="ðŸ–-Ink1" serif:id="ðŸ–-Ink" d="M4.124,3.725C5.652,2.079 14.33,-0.466 18.72,0.074L18.852,0.091C19.202,0.136 19.548,0.204 19.888,0.297C20.99,0.558 22.128,0.953 23.038,1.613C23.797,2.153 26.194,3.034 25.488,4.446C25.75,4.95 25.848,5.571 25.67,6.067C25.648,6.238 25.596,6.396 25.53,6.56C26.089,7.397 26.532,8.344 26.891,9.245C27.518,11.512 27.908,13.872 27.965,16.185C28.155,20.58 27.68,25.829 23.906,28.671C21.626,30.472 18.055,30.532 15.493,28.299C15.347,28.125 14.663,27.654 14.892,27.571C14.959,27.644 15.029,27.715 15.1,27.784C15.097,27.777 15.096,27.769 15.098,27.761L15.031,27.699C14.905,27.581 14.742,27.41 14.928,27.443C14.936,27.453 14.945,27.461 14.954,27.471C14.993,27.495 15.023,27.516 15.046,27.534L15.058,27.544L15.054,27.54C14.947,27.424 14.883,27.306 15.043,27.381L15.064,27.392C15.135,27.468 15.208,27.541 15.281,27.611C15.28,27.603 15.281,27.595 15.286,27.586L15.217,27.518C15.15,27.452 15.16,27.451 15.193,27.398C15.051,27.195 15.316,27.315 15.335,27.394C15.501,27.354 15.648,27.671 15.755,27.71C20.451,31.372 27.267,28.122 27.157,17.918L27.155,17.718C27.123,14.456 26.852,11.102 25.521,8.148C25.392,7.864 25.247,7.587 25.088,7.319C24.978,7.118 24.861,6.923 24.734,6.732C24.381,6.703 24.032,6.637 23.688,6.536C23.57,6.506 23.453,6.472 23.336,6.433C21.63,6.527 19.962,6.63 18.251,6.727L17.717,6.761C16.268,6.855 14.769,7.007 13.599,7.916C12.452,8.744 12.447,10.376 11.464,11.284C10.063,12.249 10.053,13.118 9.783,14.539C9.803,15.61 10.536,17.166 9.192,17.617C9.419,17.945 9.103,17.787 9.078,17.673C9.075,17.673 9.073,17.674 9.071,17.674C9.273,18.055 8.976,17.815 8.95,17.692C8.934,17.688 8.918,17.676 8.902,17.66C9.106,17.994 8.776,17.76 8.796,17.7C8.403,17.086 7.593,16.991 7.023,17.154C7.016,17.176 6.99,17.177 6.974,17.166C4.548,17.699 5.174,22.793 7.661,22.301C7.767,22.279 7.764,22.331 7.786,22.336C7.728,22.183 7.89,22.245 7.888,22.277L7.898,22.276C7.906,22.276 7.903,22.275 7.909,22.277C7.853,21.964 8.166,22.417 8.141,22.436C8.15,22.43 8.161,22.427 8.171,22.426L8.16,22.396C8.108,22.256 8.113,22.314 8.113,22.234C8.074,22.135 8.071,22.178 8.08,22.113C8.217,22.006 8.258,22.332 8.303,22.356C8.225,22.245 8.287,22.155 8.361,22.215C8.921,23.41 9.645,24.532 10.579,25.416C10.682,25.498 10.785,25.578 10.892,25.654C11.29,26.006 11.9,26.232 12.272,26.543C12.272,26.548 12.27,26.554 12.266,26.561L12.274,26.569L12.283,26.577L12.412,26.64C12.451,26.673 12.485,26.709 12.515,26.75C12.548,26.788 12.576,26.83 12.6,26.874C12.612,26.928 12.586,26.951 12.535,26.928C12.513,26.92 12.491,26.911 12.468,26.903C12.47,26.905 12.47,26.906 12.471,26.907C12.479,26.918 12.528,27.034 12.471,27.015L12.464,27.013C12.433,27.001 12.402,26.988 12.372,26.976C12.408,27.022 12.441,27.071 12.47,27.113C12.501,27.146 12.52,27.185 12.528,27.228C12.527,27.253 12.513,27.263 12.489,27.26C12.452,27.248 12.416,27.235 12.38,27.221L12.39,27.241C12.416,27.292 12.452,27.378 12.388,27.349C12.332,27.332 12.279,27.312 12.226,27.29C12.221,27.299 12.213,27.302 12.195,27.294C12.025,27.233 11.862,27.158 11.705,27.07C11.567,26.968 11.428,26.868 11.29,26.767C11.159,26.688 11.034,26.6 10.914,26.501C10.111,25.975 9.409,25.307 8.851,24.563C7.919,25.382 6.055,24.6 4.902,23.959C3.882,23.386 3.481,22.327 3.377,21.185C3.162,19.647 1.923,19.121 2.009,15.747C2.007,15.748 2.005,15.748 2.003,15.748C1.958,15.734 1.914,15.716 1.873,15.693C1.83,15.673 1.79,15.648 1.753,15.618L1.706,15.553C1.682,15.54 1.661,15.526 1.644,15.512L1.636,15.523C1.609,15.556 1.627,15.506 1.628,15.496L1.548,15.385C1.357,15.121 1.148,14.824 0.977,14.587L0.972,14.597C0.968,14.604 0.966,14.609 0.968,14.612C0.562,14.02 0.18,13.306 0.074,12.614C-0.051,12.082 -0.002,11.533 0.107,11.039C0.575,9.311 2.11,5.401 4.124,3.725ZM15.152,27.632L15.113,27.599L15.148,27.64C15.165,27.661 15.184,27.68 15.213,27.699C15.211,27.693 15.211,27.687 15.212,27.679C15.193,27.665 15.172,27.649 15.152,27.632ZM18.701,0.942C15.724,0.682 12.795,1.348 9.954,2.153L9.758,2.21C8.143,2.677 6.435,3.098 5.07,4.099C3.162,5.58 2.177,7.937 1.318,10.113C0.567,11.73 0.951,13.554 2.082,14.682C2.2,13.561 2.4,12.471 2.714,11.391C2.779,11.222 2.73,11.167 2.871,11.145C3.084,14.056 2.035,16.207 4.111,19.658C5.012,21.286 3.969,22.477 6.513,23.334L6.582,23.361C7.112,23.563 7.69,23.723 8.209,23.61L8.163,23.533C8.116,23.454 8.101,23.416 8.17,23.382C8.168,23.378 8.166,23.374 8.163,23.37C8.107,23.263 8.053,23.155 8.002,23.046C7.981,23.053 7.96,23.058 7.938,23.064C7.952,23.09 7.954,23.116 7.915,23.125C7.775,23.174 7.632,23.194 7.485,23.184L7.453,23.182C7.287,23.172 7.182,23.141 7.089,23.112C7.058,23.107 7.026,23.102 6.996,23.096C6.695,23.028 6.376,22.856 6.17,22.685C3.818,21.33 4.061,16.718 6.96,16.282C7.019,13.378 8.381,8.479 10.641,5.712C12.684,3.167 18.261,2.064 22.142,2.453C22.198,2.472 22.255,2.491 22.311,2.51C22.91,2.564 23.481,2.835 24.08,2.96C23.65,2.633 23.162,2.415 22.659,2.23C21.658,1.609 20.51,1.273 19.4,1.036C19.171,0.979 18.938,0.947 18.701,0.942ZM6.827,18.615C6.983,18.529 6.965,18.612 7.001,18.588C8.122,18.495 9.331,19.491 9.958,20.321C9.909,20.373 9.775,20.218 9.751,20.194C9.748,20.197 9.744,20.2 9.74,20.201L9.758,20.226C10.012,20.596 9.508,20.161 9.461,20.071C9.453,20.075 9.445,20.078 9.435,20.076C9.475,20.116 9.597,20.219 9.618,20.293L9.65,20.32C9.955,20.585 9.93,20.784 9.584,20.408C9.592,20.426 9.595,20.442 9.589,20.455L9.601,20.463C9.771,20.583 9.911,20.919 9.556,20.574C9.593,20.826 9.203,20.339 9.191,20.343C8.517,19.806 7.525,19.284 6.679,19.214L6.65,19.211C6.495,19.191 6.422,19.144 6.476,19.041C6.285,18.995 6.33,18.9 6.42,18.903C6.286,18.813 6.407,18.727 6.485,18.76C6.431,18.609 6.647,18.71 6.667,18.689C6.778,18.514 6.809,18.66 6.827,18.615ZM4.477,9.259C5.015,9.059 6.606,9.657 6.479,10.451C6.403,10.633 6.153,10.737 5.978,10.634L5.749,10.478C5.35,10.208 4.991,9.97 4.563,9.734C4.33,9.617 4.23,9.368 4.477,9.259ZM7.541,8.08L7.333,7.943C6.21,7.198 4.624,6.069 7.438,7.237C7.758,7.376 8.185,7.459 8.36,7.769C8.634,8.339 7.911,8.378 7.541,8.08ZM7.667,4.737C7.577,4.391 8.698,4.797 9.024,4.905L9.073,4.924C9.391,5.044 9.755,5.155 9.944,5.433C10.167,5.816 9.717,5.896 9.438,5.722C8.866,5.344 8.239,5.058 7.667,4.737ZM10.517,3.123C9.886,2.424 11.574,3.093 11.827,3.279L11.834,3.284C12.023,3.419 11.985,3.709 11.807,3.795C11.303,3.804 10.932,3.378 10.517,3.123ZM13.387,2.357C12.384,1.626 13.705,1.974 14.164,2.26C14.477,2.54 14.155,3.012 13.387,2.357Z"/>
                </g>
                <g id="FACE" transform="matrix(1,0,0,1,22.6048,17.6175)">
                    <path id="ðŸ–-Ink2" serif:id="ðŸ–-Ink" d="M11.837,16.393C11.327,16.539 10.78,16.552 10.26,16.401C9.789,16.265 9.305,15.965 8.958,15.567C8.65,15.214 8.45,14.786 8.458,14.328C8.459,14.275 8.478,14.232 8.507,14.198C8.538,14.161 8.582,14.136 8.629,14.126C8.678,14.114 8.729,14.118 8.772,14.138C8.811,14.155 8.845,14.185 8.866,14.229C8.92,14.298 8.973,14.366 9.026,14.432C9.455,14.955 9.87,15.345 10.514,15.485C10.864,15.561 11.213,15.527 11.534,15.411C11.877,15.287 12.187,15.069 12.43,14.79C12.54,14.664 12.669,14.612 12.796,14.611C12.94,14.61 13.082,14.676 13.189,14.782C13.294,14.885 13.364,15.026 13.371,15.173C13.376,15.302 13.334,15.436 13.22,15.557C12.846,15.953 12.361,16.243 11.837,16.393ZM11.821,9.854C12.344,10.168 13.14,10.898 12.578,11.675C11.916,12.36 10.963,11.575 10.494,11.22C10.058,10.944 9.569,11.652 9.973,11.974C13.366,14.451 14.743,9.936 12.085,9.486C11.793,9.436 11.684,9.757 11.821,9.854ZM6.933,8.476C6.765,8.37 6.567,8.333 6.348,8.432C6.177,8.508 5.877,8.764 5.668,9.101C5.525,9.331 5.424,9.601 5.445,9.882C5.45,9.947 5.425,9.995 5.387,10.031C5.356,10.059 5.312,10.08 5.26,10.086C5.217,10.092 5.167,10.087 5.127,10.075C5.051,10.051 5.011,10.002 4.996,9.963C4.85,9.58 4.913,9.152 5.077,8.767C5.298,8.246 5.7,7.81 5.963,7.67C6.413,7.429 6.944,7.418 7.395,7.663C7.779,7.872 8.019,8.208 8.258,8.552C8.309,8.625 8.359,8.697 8.411,8.768C8.516,8.911 8.526,9.052 8.486,9.174C8.441,9.308 8.327,9.422 8.184,9.481C8.052,9.536 7.899,9.543 7.764,9.487C7.649,9.439 7.544,9.347 7.478,9.189C7.366,8.924 7.179,8.631 6.933,8.476ZM15.463,9.066C15.348,9.125 15.258,9.143 15.13,9.105C15.06,9.084 14.99,9.044 14.935,8.99C14.881,8.937 14.842,8.87 14.827,8.797C14.79,8.615 14.689,8.445 14.545,8.334C14.423,8.239 14.268,8.189 14.096,8.217C13.91,8.248 13.733,8.365 13.612,8.504C13.571,8.55 13.539,8.603 13.507,8.655C13.447,8.752 13.389,8.843 13.306,8.915C13.275,8.942 13.228,8.961 13.182,8.961C13.163,8.961 13.144,8.958 13.126,8.953C12.942,8.77 12.906,8.631 12.912,8.494C12.918,8.349 12.976,8.203 13.069,8.067C13.288,7.748 13.703,7.486 13.983,7.426C14.366,7.345 14.747,7.442 15.052,7.654C15.366,7.871 15.599,8.208 15.672,8.589C15.689,8.68 15.682,8.779 15.646,8.865C15.612,8.949 15.551,9.02 15.463,9.066ZM7.778,5.068C7.548,5.29 7.276,5.324 7,5.354C6.847,5.371 6.725,5.385 6.605,5.412C6.274,5.486 5.947,5.596 5.649,5.756C5.338,5.923 4.998,6.124 4.754,6.382C4.696,6.443 4.641,6.508 4.586,6.572C4.536,6.631 4.488,6.688 4.437,6.742C4.379,6.805 4.323,6.871 4.268,6.936C4.234,6.992 4.228,7.005 4.221,7.019C4.21,7.041 4.198,7.065 4.185,7.09C4.166,7.125 4.144,7.163 4.121,7.198C4.083,7.262 4.062,7.279 4.044,7.287C4.015,7.3 3.987,7.306 3.96,7.303C3.934,7.3 3.91,7.288 3.887,7.268C3.769,7.169 3.734,7.008 3.737,6.836C3.743,6.576 3.84,6.288 3.93,6.111C4.138,5.699 4.428,5.271 4.776,4.964C5.172,4.613 5.607,4.348 6.106,4.165C6.416,4.051 6.774,3.947 7.112,3.96C7.355,3.97 7.587,4.041 7.779,4.219C7.897,4.328 7.953,4.484 7.953,4.639C7.953,4.797 7.895,4.957 7.778,5.068ZM15.931,7.093C15.916,7.117 15.896,7.133 15.874,7.143C15.85,7.153 15.824,7.156 15.798,7.152C15.773,7.148 15.749,7.137 15.73,7.119C15.712,7.103 15.698,7.081 15.692,7.054C15.539,6.392 15.242,5.9 14.609,5.583C14.298,5.426 13.94,5.327 13.601,5.248C13.502,5.225 13.398,5.21 13.293,5.195C12.965,5.148 12.634,5.093 12.419,4.831C12.29,4.674 12.236,4.472 12.267,4.287C12.296,4.114 12.399,3.954 12.586,3.859C13.052,3.621 13.631,3.854 14.101,4.053C14.136,4.068 14.17,4.082 14.204,4.096C14.664,4.288 15.084,4.54 15.429,4.902C15.702,5.189 15.956,5.613 16.058,6.049C16.143,6.412 16.123,6.783 15.931,7.093Z"/>
                </g>
            </g>
        </g>
    </g>
</svg>
