<?xml version="1.0" encoding="UTF-8" standalone="no"?>
<!DOCTYPE svg PUBLIC "-//W3C//DTD SVG 1.1//EN" "http://www.w3.org/Graphics/SVG/1.1/DTD/svg11.dtd">
<svg width="100%" height="100%" viewBox="0 0 52 74" version="1.1" xmlns="http://www.w3.org/2000/svg" xmlns:xlink="http://www.w3.org/1999/xlink" xml:space="preserve" xmlns:serif="http://www.serif.com/" style="fill-rule:evenodd;clip-rule:evenodd;stroke-linejoin:round;stroke-miterlimit:2;">
    <g transform="matrix(-1,0,0,1,52,0)">
        <g id="Introduction">
            <g id="avatar-girl-8">
                <g id="BODY" transform="matrix(0.600825,0,0,0.785616,6.89835,34.0521)">
                    <path id="_--Skin" serif:id="âœ‹-Skin" d="M51.112,39.615C50.84,38.074 50.59,36.528 50.362,34.979C50.255,34.244 50.149,33.508 50.055,32.771C49.988,32.254 49.888,31.663 50.239,31.281C50.733,30.742 51.182,30.282 51.242,29.51C51.299,28.784 51.054,27.993 50.901,27.289C50.579,25.812 50.179,24.353 49.736,22.907C49.287,21.439 48.794,19.985 48.294,18.533C47.827,17.176 47.378,15.806 46.769,14.504C45.614,12.033 43.659,10.202 41.244,8.98C40.643,8.676 39.418,7.592 38.79,7.349C38.213,7.125 38.215,7.777 37.647,7.532C37.194,7.335 36.771,7.074 36.517,6.635C36.241,6.159 35.549,5.493 35.443,4.938C35.22,3.763 35.462,2.763 34.624,1.879C33.88,1.094 32.88,0.556 31.845,0.267C29.569,-0.368 26.533,0.076 25.16,2.192C24.504,3.203 24.275,4.425 23.389,5.25C22.617,5.97 22.79,6.462 21.788,6.833C21.732,6.855 20.195,6.525 20.138,6.546C19.043,6.311 17.997,6.968 16.992,7.349C15.494,7.916 14.068,8.655 12.728,9.534C10.027,11.305 7.713,13.605 5.806,16.207C3.882,18.831 2.39,21.772 1.328,24.846C1.07,25.593 0.838,26.349 0.633,27.112C0.519,27.539 0.397,27.982 0.536,28.419C0.65,28.777 0.903,29.043 1.201,29.258C1.605,29.549 2.414,29.738 2.398,30.323C2.386,30.768 2.235,31.236 2.162,31.676C2.074,32.199 2.002,32.726 1.93,33.252C1.603,35.646 1.348,38.053 1.235,40.467C1.124,42.844 1.032,45.269 1.197,47.646C1.207,47.802 1.254,47.946 1.33,48.068C1.259,48.095 1.254,48.226 1.341,48.244C1.403,48.257 1.464,48.27 1.525,48.283C1.652,48.38 1.811,48.439 1.994,48.445C2.118,48.449 2.242,48.454 2.366,48.461C3.672,48.734 4.978,48.992 6.301,49.187C7.909,49.425 9.523,49.619 11.141,49.776C14.466,50.099 17.765,49.992 21.094,49.818C24.419,49.644 27.741,49.603 31.069,49.69C34.4,49.776 37.729,49.921 41.061,49.981C44.783,50.047 48.499,49.945 52.21,49.649C52.719,49.609 53.034,49.203 52.934,48.698C52.332,45.668 51.651,42.658 51.112,39.615Z" style="fill:white;"/>
                    <path id="ðŸ‘•-Top" d="M16.992,7.349L17.065,7.321C18.047,6.937 19.07,6.317 20.138,6.546C20.176,6.532 20.872,6.674 21.348,6.763L20.896,7.236L20.098,7.389C22.85,11.935 26.106,14.208 29.864,14.208C33.623,14.208 36.474,11.935 38.42,7.389L38.685,7.316C38.718,7.323 38.753,7.334 38.79,7.349C39.418,7.591 40.643,8.676 41.244,8.98C43.659,10.202 45.614,12.032 46.769,14.504C47.357,15.763 47.797,17.084 48.248,18.397L48.294,18.533C48.794,19.985 49.287,21.439 49.736,22.907C50.16,24.29 50.544,25.685 50.858,27.096L50.901,27.289C51.054,27.993 51.299,28.784 51.242,29.51C51.221,29.785 51.15,30.02 51.045,30.234L45.601,32.194L48.195,49.895C45.819,49.997 43.441,50.023 41.061,49.981C37.729,49.921 34.4,49.776 31.069,49.69C27.842,49.606 24.62,49.641 21.397,49.802L20.578,49.844C17.424,50.002 14.294,50.083 11.141,49.776L10.926,49.755L10.926,47.166L12.034,32.748L6.42,31.691L0.91,29.013C0.744,28.846 0.61,28.652 0.536,28.419C0.407,28.014 0.502,27.604 0.608,27.206L0.633,27.112C0.838,26.349 1.07,25.593 1.328,24.846C2.39,21.772 3.882,18.831 5.806,16.207C7.713,13.605 10.027,11.305 12.728,9.534C14.068,8.655 15.494,7.916 16.992,7.349Z"/>
                    <path id="ðŸ–-Ink" d="M19.1,6.471C19.444,6.456 19.795,6.512 20.138,6.546C20.168,6.549 20.18,6.595 20.146,6.602C19.531,6.73 18.924,6.906 18.32,7.085L18.062,7.161C17.381,7.363 16.72,7.57 16.062,7.839C14.748,8.375 13.501,9.097 12.353,9.928C7.934,13.125 4.735,17.967 2.716,22.979C2.168,24.34 1.703,25.735 1.327,27.154C1.235,27.499 1.149,27.846 1.068,28.193C1.044,28.295 0.939,28.556 0.997,28.66C1.047,28.753 1.244,28.81 1.335,28.857L1.644,29.018C2.246,29.328 3.249,29.839 3.35,29.888L3.507,29.966C6.072,31.224 8.813,32.291 11.7,32.365L11.723,32.118C11.852,30.755 12.021,29.383 12.389,28.061C12.409,27.99 12.5,28.014 12.508,28.078C12.713,29.643 12.648,31.22 12.576,32.792C12.449,35.577 12.28,38.36 12.131,41.143C12.056,42.536 11.959,43.927 11.871,45.319C11.784,46.713 11.755,48.141 11.555,49.524C11.511,49.832 11.15,50 10.877,49.968C10.574,49.932 10.342,49.665 10.34,49.36C10.336,48.554 10.438,47.739 10.494,46.935C10.547,46.172 10.605,45.408 10.663,44.645C10.878,41.86 11.125,39.078 11.353,36.294C11.434,35.307 11.522,34.32 11.612,33.334C8.553,33.235 5.696,32.101 2.97,30.777C2.931,31.673 2.836,32.568 2.743,33.461C2.486,35.952 2.259,38.442 2.089,40.941C2.003,42.203 1.941,43.466 1.886,44.73C1.859,45.351 1.838,45.972 1.821,46.594C1.815,46.801 1.81,47.008 1.806,47.215L1.797,47.69C1.789,47.99 1.758,48.269 1.506,48.488C1.249,48.71 0.902,48.722 0.648,48.488C0.307,48.174 0.368,47.747 0.378,47.326C0.386,46.971 0.396,46.616 0.408,46.261C0.431,45.551 0.461,44.841 0.498,44.131C0.625,41.65 0.88,39.179 1.214,36.718L1.344,35.768C1.587,34.002 1.854,32.196 2.397,30.495C2.185,30.39 1.974,30.284 1.764,30.177C1.392,29.988 1.006,29.811 0.644,29.603C0.357,29.438 0.109,29.211 0.029,28.876C-0.06,28.503 0.076,28.096 0.167,27.732L0.175,27.7C0.264,27.334 0.359,26.969 0.46,26.606C0.87,25.134 1.376,23.691 1.968,22.283C3.155,19.464 4.686,16.785 6.556,14.364C8.24,12.184 10.229,10.207 12.56,8.725C13.7,8 14.914,7.405 16.199,6.984C16.799,6.787 17.452,6.616 18.081,6.546C18.42,6.508 18.759,6.486 19.1,6.471ZM25.198,2.004C25.607,1.565 26.42,2.019 26.223,2.601C25.761,3.97 25.026,5.219 23.878,6.119C22.799,6.965 21.512,7.514 20.126,7.397C20.115,7.396 20.106,7.393 20.098,7.389L20.217,7.551C21.155,8.82 22.144,10.072 23.336,11.109C25.765,13.223 29.072,14.363 32.266,13.552C34.779,12.914 36.992,10.926 37.643,8.392C37.55,8.434 37.439,8.448 37.317,8.422C36.796,8.309 36.281,7.76 35.945,7.367C35.581,6.942 35.297,6.483 35.089,5.964C34.709,5.014 34.587,3.791 35.106,2.871C35.171,2.758 35.319,2.822 35.331,2.932L35.351,3.105C35.451,3.967 35.576,4.801 35.982,5.587C36.181,5.972 36.419,6.348 36.71,6.67C36.865,6.842 37.033,7.007 37.215,7.151C37.392,7.292 37.606,7.394 37.765,7.555L37.794,7.586L37.795,7.581C37.835,7.239 38.074,7.089 38.308,7.098C38.535,7.108 38.801,7.207 38.904,7.255L38.914,7.26C40.494,8.019 41.949,9.008 43.319,10.106C46.152,12.376 48.274,15.344 49.302,18.838C49.807,20.554 50.097,22.321 50.402,24.08L50.591,25.158C50.876,26.782 51.195,28.438 51.839,29.948C52.005,30.339 51.877,30.705 51.468,30.859C50.958,31.051 50.446,31.237 49.933,31.42C50.185,32.501 50.339,33.62 50.527,34.706C50.928,37.015 51.42,39.309 51.841,41.615C52.057,42.794 52.251,43.977 52.466,45.157C52.57,45.725 52.678,46.292 52.783,46.859C52.84,47.165 52.891,47.472 52.945,47.779L52.955,47.83C52.985,47.991 53.024,48.159 52.98,48.32C52.929,48.505 52.785,48.635 52.657,48.768C52.551,48.876 52.398,48.877 52.269,48.818L52.226,48.798C51.994,48.69 51.813,48.582 51.731,48.32C51.679,48.155 51.66,47.969 51.626,47.798C51.561,47.471 51.499,47.144 51.441,46.816C51.324,46.16 51.21,45.503 51.099,44.846L50.995,44.23C50.639,42.109 50.3,39.974 50.129,37.83C50.053,36.879 49.972,35.929 49.891,34.978L49.83,34.265C49.753,33.363 49.659,32.438 49.645,31.523L49.339,31.632L47.842,32.162C47.471,32.293 46.999,32.562 46.6,32.513C46.404,32.489 46.255,32.427 46.14,32.315C46.278,34.261 46.464,36.203 46.713,38.136C46.939,39.894 47.19,41.65 47.486,43.398C47.633,44.264 47.783,45.128 47.947,45.991C48.029,46.422 48.113,46.853 48.2,47.283C48.244,47.498 48.295,47.713 48.329,47.929C48.368,48.177 48.3,48.329 48.161,48.533C48.048,48.701 47.82,48.787 47.636,48.671C47.392,48.518 47.265,48.385 47.193,48.106C47.128,47.853 47.088,47.588 47.038,47.331C46.944,46.857 46.854,46.383 46.767,45.908C46.586,44.914 46.418,43.918 46.268,42.919C45.741,39.4 45.406,35.852 45.237,32.297C45.154,30.544 45.128,28.788 45.143,27.033C45.15,26.133 45.179,25.231 45.243,24.333C45.308,23.425 45.442,22.534 45.561,21.634C45.565,21.603 45.61,21.601 45.612,21.634C45.669,22.643 45.757,23.651 45.801,24.662C45.842,25.628 45.861,26.594 45.894,27.56C45.937,28.829 45.997,30.099 46.077,31.368C46.221,31.21 46.438,31.119 46.656,31.154C46.971,31.088 47.31,30.923 47.611,30.822L48.743,30.444C49.338,30.245 49.934,30.047 50.531,29.856C49.997,28.058 49.631,26.233 49.319,24.381L49.179,23.549C48.903,21.91 48.606,20.27 48.107,18.683C47.581,17.014 46.795,15.463 45.753,14.058C44.725,12.673 43.475,11.454 42.187,10.314C41.085,9.337 39.906,8.456 38.782,7.507C38.793,7.57 38.796,7.639 38.786,7.715C38.547,9.465 37.634,11.095 36.362,12.308C33.807,14.744 30.025,15.249 26.755,14.107C23.592,13.002 20.795,10.385 19.807,7.147C19.79,7.092 19.864,7.07 19.894,7.111C19.949,7.186 20.004,7.261 20.059,7.336C20.055,7.306 20.071,7.274 20.108,7.26C21.26,6.814 22.393,6.182 23.257,5.289C23.678,4.853 24.046,4.36 24.336,3.827C24.475,3.572 24.6,3.308 24.699,3.036L24.725,2.965C24.845,2.623 24.946,2.275 25.198,2.004Z"/>
                </g>
                <g id="HEAD" transform="matrix(1,0,0,1,12.8463,9.96696)">
                    <path id="_--Skin1" serif:id="âœ‹-Skin" d="M12.919,1.63C23.096,1.138 23.807,4.049 25.205,5.905C25.898,6.826 27.689,8.19 27.986,11.34C28.192,13.526 26.879,16.046 26.879,18C26.879,18.998 28.12,21.139 27.543,22.592C26.257,25.827 23.535,29.418 20.066,29.418C16.597,29.418 10.194,27.537 6.361,22.136C5.106,20.367 2.741,2.123 12.919,1.63Z" style="fill:white;"/>
                    <path id="ðŸ–-Ink1" serif:id="ðŸ–-Ink" d="M27.732,18.195C27.51,17.954 27.337,17.756 27.28,17.424C27.256,17.286 27.245,17.144 27.24,17.001C28.132,15.773 29,12.873 29,11.287C29,9.049 28.161,6.896 26.785,5.115C24.102,1.646 19.635,-0.132 15.264,0.008C11.078,0.14 6.625,1.659 4.014,4.905C-4.649,15.675 2.622,27.438 7.947,29.886C8.411,30.099 9.908,30.025 9.7,29.57C9.1,28.263 8.628,25.856 8.518,25.314C8.689,25.427 8.861,25.537 9.033,25.651C9.339,25.853 9.748,26.083 10.132,26.017C10.151,26.013 10.162,25.994 10.163,25.978C10.18,25.623 9.922,25.258 9.695,25.005C9.38,24.653 9.081,24.293 8.742,23.964C8.597,23.823 8.451,23.683 8.305,23.544C8.286,22.707 8.343,21.867 8.495,21.026C8.759,19.567 9.215,18.146 9.738,16.748C10.175,16.431 10.599,16.097 10.992,15.732C11.938,14.854 12.66,13.78 13.279,12.65C13.286,12.646 13.294,12.642 13.302,12.639C14.502,12.09 15.691,11.52 16.872,10.932C17.481,10.628 18.086,10.318 18.691,10.007C19.02,9.838 19.359,9.684 19.695,9.525C19.605,9.982 19.483,10.433 19.334,10.876C19.212,11.24 19.585,11.509 19.916,11.449C21.04,11.244 22.128,10.832 23.106,10.25C23.591,9.961 24.052,9.627 24.48,9.261C24.907,9.888 25.427,10.476 25.952,10.983C26.305,11.324 26.675,11.649 27.059,11.957C26.886,13.135 26.736,14.316 26.548,15.492C26.449,16.106 26.33,16.721 26.256,17.339C26.174,18.012 26.401,18.492 26.851,18.984C27.481,19.672 27.48,20.667 27.239,21.522C27.21,21.628 27.173,21.731 27.135,21.833C27.127,21.854 27.103,21.912 27.094,21.934C27.094,21.935 27.094,21.936 27.094,21.937C27.094,21.937 27.093,21.938 27.093,21.939C27.092,21.939 27.092,21.939 27.092,21.94L27.092,21.942L27.091,21.943C27.063,22.008 27.033,22.071 27.002,22.134C26.865,22.421 26.711,22.7 26.551,22.975C25.766,24.332 24.773,25.574 23.642,26.67C23.116,27.18 22.569,27.654 21.95,28.043C21.82,28.124 21.687,28.203 21.551,28.275C21.478,28.314 21.402,28.35 21.327,28.387C21.217,28.441 21.263,28.419 21.196,28.446C21.074,28.493 20.95,28.534 20.823,28.566C20.755,28.583 20.687,28.598 20.617,28.61C20.617,28.61 20.615,28.611 20.613,28.611C20.613,28.611 20.612,28.612 20.611,28.611C20.611,28.612 20.609,28.612 20.608,28.612C20.582,28.614 20.537,28.618 20.528,28.618C19.564,28.621 18.608,28.494 17.674,28.258C17.169,28.129 16.664,27.974 16.188,27.761C15.947,27.652 15.71,27.531 15.484,27.394C15.383,27.332 15.287,27.258 15.18,27.205C15.02,27.124 14.864,27.133 14.691,27.126C14.428,27.115 14.241,27.386 14.306,27.624C14.384,27.914 14.508,28.085 14.762,28.258C14.964,28.395 15.179,28.517 15.398,28.627C15.875,28.868 16.379,29.064 16.889,29.225C17.845,29.525 18.851,29.709 19.851,29.777C20.58,29.826 21.211,29.73 21.874,29.428C22.575,29.109 23.203,28.632 23.783,28.138C25.084,27.032 26.215,25.69 27.175,24.289C28.077,22.973 28.776,21.54 28.546,19.905C28.454,19.25 28.183,18.686 27.732,18.195"/>
                </g>
                <g id="FACE" transform="matrix(1,0,0,1,26.906,22.0013)">
                    <path id="ðŸ–-Ink2" serif:id="ðŸ–-Ink" d="M6.608,12.805C6.134,12.619 5.71,12.309 5.401,11.913C5.293,11.775 5.265,11.63 5.288,11.497C5.313,11.347 5.405,11.211 5.531,11.121C5.657,11.029 5.815,10.984 5.967,11.007C6.1,11.027 6.231,11.097 6.336,11.241L6.358,11.27C6.542,11.509 6.782,11.705 7.055,11.832C7.318,11.954 7.613,12.01 7.918,11.977C8.499,11.914 8.899,11.613 9.324,11.204C9.377,11.152 9.43,11.099 9.483,11.045C9.516,10.995 9.563,10.964 9.614,10.947C9.672,10.929 9.736,10.93 9.796,10.95C9.853,10.969 9.904,11.005 9.939,11.054C9.971,11.1 9.99,11.156 9.984,11.222C9.945,11.646 9.714,12.025 9.385,12.322C9.021,12.652 8.538,12.88 8.083,12.961C7.582,13.049 7.071,12.986 6.608,12.805ZM8.319,6.26C8.852,6.571 9.665,7.297 9.091,8.068C8.416,8.748 7.444,7.968 6.965,7.616C6.521,7.342 6.022,8.045 6.434,8.364C9.895,10.824 11.3,6.342 8.589,5.894C8.29,5.845 8.179,6.164 8.319,6.26ZM2.116,3.399C2.175,2.697 3.288,2.537 3.399,3.232C3.498,3.854 3.382,4.426 3.09,4.986C2.811,5.521 2.109,5.271 2.056,4.784C1.985,4.131 2.079,3.835 2.116,3.399ZM10.594,3.088C10.749,2.893 10.973,2.759 11.242,2.835C12.081,3.07 11.834,4.214 11.539,4.77C11.379,5.073 10.861,5.149 10.627,4.883C10.246,4.449 10.063,3.582 10.548,3.155C10.561,3.133 10.576,3.11 10.594,3.088ZM3.078,0.327L3.21,0.305C3.621,0.237 4.13,0.172 4.421,0.488C4.574,0.656 4.627,0.968 4.421,1.128C4.057,1.411 3.655,1.302 3.219,1.325C2.859,1.345 2.514,1.402 2.168,1.497C1.409,1.706 0.79,2.086 0.142,2.503C0.057,2.558 -0.03,2.454 0.01,2.377C0.385,1.673 1.11,1.095 1.837,0.743C2.224,0.555 2.649,0.399 3.078,0.327ZM9.829,0.012L9.93,0.032C11.034,0.254 12.469,0.696 12.992,1.737C13.012,1.884 12.991,1.916 12.974,1.936L12.968,1.943C12.954,1.961 12.943,1.985 12.876,2.005C12.858,2.001 12.839,1.997 12.82,1.992C12.581,1.932 12.391,1.848 12.207,1.762L12.008,1.668C11.777,1.559 11.544,1.455 11.297,1.377C10.771,1.212 10.229,1.096 9.678,1.034C9.559,1.021 9.444,0.982 9.353,0.916C9.267,0.853 9.202,0.766 9.172,0.65C9.133,0.501 9.144,0.387 9.228,0.252C9.291,0.151 9.381,0.08 9.484,0.04C9.589,-0.001 9.709,-0.011 9.829,0.012Z"/>
                </g>
            </g>
        </g>
    </g>
</svg>
