<?xml version="1.0" encoding="UTF-8" standalone="no"?>
<!DOCTYPE svg PUBLIC "-//W3C//DTD SVG 1.1//EN" "http://www.w3.org/Graphics/SVG/1.1/DTD/svg11.dtd">
<svg width="100%" height="100%" viewBox="0 0 52 73" version="1.1" xmlns="http://www.w3.org/2000/svg" xmlns:xlink="http://www.w3.org/1999/xlink" xml:space="preserve" xmlns:serif="http://www.serif.com/" style="fill-rule:evenodd;clip-rule:evenodd;stroke-linecap:round;stroke-linejoin:round;stroke-miterlimit:1.5;">
    <g transform="matrix(-1,0,0,1,52,0)">
        <g id="Introduction">
            <g id="avatar-girl-4">
                <g transform="matrix(-1,0,0,1,52,0)">
                    <path d="M33.421,37.752C33.421,37.752 33.143,40.573 33.421,42.39C33.628,43.748 36.598,47.436 36.598,47.436C36.598,47.436 36.238,54.207 37.224,57.046C37.941,59.113 40.47,68.269 40.47,68.269C40.47,68.269 45.015,61.22 43.531,54.912C42.047,48.605 40.285,46.935 40.285,46.935C40.285,46.935 40.748,42.854 40.285,40.442C39.821,38.03 37.224,35.804 37.224,35.804" style="fill:white;stroke:black;stroke-width:1px;"/>
                </g>
                <g id="BODY" transform="matrix(0.595079,0,0,0.74028,9.09022,35.615)">
                    <path id="_--Skin" serif:id="âœ‹-Skin" d="M45.825,18.056C44.913,13.736 41.679,10.383 37.329,8.713C36.493,8.24 35.683,6.211 34.559,5.839C34.379,5.78 34.663,6.254 34.559,6.282C34.188,6.383 33.771,6.394 33.361,6.029C32.628,5.377 32.398,3.473 31.952,2.612C29.601,-1.927 23.73,-0.151 22.944,4.867C22.395,5.225 21.62,5.539 21.023,5.827C20.409,6.124 19.868,6.843 19.234,7.099C18.669,7.329 17.738,7.166 17.168,7.366C14.549,8.285 12.33,9.445 10.591,11.794C10.224,12.289 9.811,12.899 9.478,13.399C7.758,15.379 6.564,17.598 5.464,19.978C2.387,26.965 1.55,34.702 0.799,42.23C0.816,43.547 -0.058,47.2 1.234,47.831C1.157,47.912 1.185,48.072 1.328,48.071C4.606,48.038 7.876,48.331 11.103,48.902C12.66,49.177 14.208,49.554 15.794,49.616C19.086,49.594 22.366,49.042 25.654,49.564C29.606,49.564 34.409,49.449 38.806,49.28C42.915,49.122 47.047,49.479 51.105,48.78C51.426,48.729 51.583,48.337 51.516,48.056C51.04,46.321 50.806,44.535 50.539,42.759C50.592,41.62 50.497,40.431 50.075,39.37C48.974,32.207 47.563,25.092 45.825,18.056Z" style="fill:white;"/>
                    <path id="ðŸ§¥-Jacket" d="M34.559,6.308C34.664,6.28 34.379,5.806 34.559,5.866C35.683,6.237 36.493,8.266 37.329,8.739C41.679,10.409 44.913,13.762 45.825,18.083C47.563,25.118 48.974,32.234 50.075,39.396C50.497,40.457 50.592,41.646 50.539,42.785L50.581,43.066C50.831,44.749 51.065,46.439 51.516,48.082C51.583,48.363 51.426,48.755 51.105,48.806C47.093,49.497 43.009,49.156 38.946,49.301L38.099,49.333C33.899,49.487 29.395,49.59 25.654,49.59C22.366,49.068 19.086,49.62 15.794,49.643C14.208,49.581 12.66,49.203 11.103,48.928C7.876,48.358 4.606,48.064 1.328,48.097C1.185,48.099 1.157,47.938 1.234,47.858C-0.058,47.226 0.816,43.574 0.799,42.256L0.866,41.578C1.602,34.265 2.479,26.782 5.464,20.004L5.554,19.812C6.629,17.504 7.805,15.352 9.478,13.425L9.58,13.272C9.894,12.804 10.261,12.266 10.591,11.82C12.33,9.471 14.549,8.311 17.168,7.392C17.738,7.193 18.669,7.355 19.234,7.126C19.827,6.885 20.338,6.241 20.905,5.916L20.905,8.341L29.103,16.418L33.753,9.287L34.226,6.366C34.34,6.359 34.452,6.338 34.559,6.308Z" style="fill:white;"/>
                    <path id="ðŸ–-Ink" d="M44.499,27.471C44.412,27.892 44.29,28.313 44.129,28.712C43.973,29.097 43.738,29.442 43.577,29.822C43.555,29.874 43.52,29.912 43.477,29.942L43.49,30.045L43.503,30.149C43.583,30.847 43.674,31.544 43.752,32.242L43.79,32.591C43.945,34.049 44.188,35.5 44.378,36.954C44.563,38.377 44.751,39.801 44.953,41.223C45.161,42.688 45.374,44.152 45.621,45.612C45.726,46.229 45.835,46.845 45.949,47.46L46.036,47.931C46.94,48.149 47.187,49.409 46.267,49.874C45.849,50.084 45.313,50.034 44.968,49.703C44.61,49.359 44.596,48.738 44.513,48.272L44.433,47.838C43.834,44.579 43.315,41.283 43.072,37.978C43.009,37.124 42.957,36.27 42.923,35.415C42.89,34.611 42.906,33.808 42.893,33.003L42.889,32.784C42.87,31.927 42.886,31.071 42.908,30.213C42.911,30.109 42.915,30.004 42.921,29.899C42.89,29.864 42.869,29.822 42.86,29.781L42.848,29.727C42.818,29.589 42.852,29.426 42.958,29.327C43.004,28.743 43.064,28.16 43.081,27.576C43.082,27.528 43.151,27.53 43.155,27.576C43.194,28.073 43.271,28.571 43.349,29.068C43.847,28.667 44.216,28.006 44.433,27.453C44.449,27.413 44.508,27.428 44.499,27.471ZM32.701,4.251C32.784,4.63 32.948,4.969 33.167,5.285C33.272,5.437 33.39,5.577 33.533,5.695C33.655,5.795 33.794,5.861 33.924,5.948C34.114,5.919 34.311,5.99 34.444,6.13L34.423,5.926C34.417,5.86 34.526,5.847 34.538,5.911C35.113,8.81 35.637,11.71 36.091,14.63L36.29,15.92L36.477,17.13C36.787,19.147 37.088,21.163 37.314,23.195C37.616,25.907 37.869,28.625 38.055,31.348C38.241,34.09 38.355,36.833 38.436,39.58C38.457,40.273 38.478,40.965 38.499,41.657L38.64,40.829C38.78,40.001 38.917,39.172 39.035,38.34C39.457,35.364 39.795,32.366 39.96,29.363C40.111,26.616 40.06,23.814 39.361,21.137C39.185,20.463 38.97,19.801 38.71,19.155C38.457,18.527 38.113,17.944 37.842,17.326C37.526,16.606 37.432,15.926 37.594,15.151C37.736,14.476 37.985,13.84 38.03,13.145C38.113,11.855 37.693,10.605 37.1,9.476C36.944,9.178 36.779,8.884 36.607,8.593C36.086,7.714 35.499,6.866 34.889,6.053C34.856,6.01 34.926,5.962 34.961,5.998C35.517,6.547 36.125,7.087 36.625,7.687C36.868,7.978 37.105,8.276 37.329,8.582C39.794,8.994 41.912,10.529 43.36,12.556C45.003,14.857 45.834,17.627 46.449,20.354C47.133,23.385 47.71,26.443 48.324,29.489C48.96,32.64 49.592,35.792 50.232,38.943C50.55,40.507 50.868,42.072 51.185,43.637C51.346,44.429 51.515,45.219 51.692,46.009C51.783,46.414 51.88,46.818 51.964,47.224C52.058,47.682 51.97,47.975 51.66,48.311C51.546,48.436 51.365,48.434 51.224,48.368L51.179,48.347L51.136,48.326C50.961,48.24 50.823,48.15 50.714,47.958C50.594,47.747 50.574,47.514 50.533,47.279C50.457,46.847 50.381,46.416 50.305,45.983C50.191,45.337 50.068,44.692 49.942,44.048L49.309,40.827C49.141,39.968 48.972,39.109 48.802,38.251C48.196,35.182 47.589,32.113 46.982,29.044C46.399,26.097 45.883,23.13 45.22,20.201L45.182,20.036L45.144,19.871C44.551,17.345 43.722,14.902 42.218,12.762C41.06,11.116 39.453,9.647 37.559,8.903C37.693,9.095 37.821,9.291 37.943,9.49C38.71,10.744 39.271,12.232 39.139,13.725C39.075,14.454 38.798,15.171 38.824,15.906C38.848,16.559 39.252,17.132 39.531,17.701C40.165,18.989 40.624,20.357 40.92,21.761C41.513,24.58 41.511,27.481 41.306,30.343C41.084,33.454 40.663,36.564 40.183,39.645C39.936,41.225 39.608,42.792 39.357,44.369C39.233,45.147 39.064,45.923 38.917,46.697L38.846,47.067C38.807,47.272 38.766,47.476 38.718,47.679L38.689,47.8L38.689,47.822C38.688,47.971 38.647,48.094 38.581,48.193C38.492,48.481 38.38,48.762 38.231,49.033C38.155,49.17 38.045,49.248 37.925,49.276C37.804,49.553 37.53,49.766 37.203,49.764L32.9,49.748C30.401,49.738 27.902,49.722 25.403,49.708C24.773,49.705 24.143,49.693 23.513,49.676C22.922,49.66 22.356,49.589 21.772,49.515C21.112,49.433 20.755,48.966 20.854,48.307C20.875,48.161 20.899,48.017 20.921,47.872C20.79,47.916 20.633,47.895 20.528,47.792L20.429,47.695C20.291,47.559 20.168,47.426 20.081,47.244C19.991,47.058 19.918,46.86 19.839,46.67C19.667,46.26 19.5,45.849 19.338,45.435C19.013,44.609 18.688,43.779 18.385,42.944C17.787,41.29 17.257,39.612 16.797,37.914C15.976,34.885 15.382,31.798 15.007,28.683L14.918,27.941L14.892,27.722C14.75,26.514 14.63,25.288 14.687,24.084C14.722,23.329 14.839,22.569 15.121,21.865C15.381,21.215 15.782,20.659 16.164,20.078L16.207,20.011L16.251,19.943C16.585,19.415 16.851,18.864 16.864,18.223C16.877,17.573 16.688,16.94 16.476,16.332L16.424,16.182L16.388,16.082C15.938,14.824 15.425,13.584 15.594,12.215C15.844,10.2 17.066,8.575 18.603,7.322C17.236,7.593 15.883,8.128 14.688,8.806C13.278,9.607 12.008,10.665 10.913,11.859C8.843,14.115 7.366,16.822 6.157,19.617C4.891,22.542 3.952,25.606 3.244,28.711C2.533,31.834 2.057,35.007 1.731,38.192C1.569,39.777 1.442,41.367 1.336,42.957C1.282,43.771 1.241,44.587 1.178,45.401C1.115,46.213 1.087,47.038 0.889,47.83C0.796,48.198 0.171,48.236 0.104,47.83C-0.044,46.923 -0.003,45.985 0.039,45.067L0.043,44.983C0.083,44.069 0.137,43.155 0.2,42.241C0.328,40.373 0.5,38.508 0.725,36.649C1.513,30.122 2.965,23.63 5.814,17.672C7.156,14.866 8.878,12.139 11.273,10.113C12.413,9.149 13.699,8.38 15.084,7.823C16.323,7.324 17.582,7.088 18.899,7.089C19.559,6.583 20.268,6.142 20.976,5.766C21.018,5.743 21.063,5.798 21.028,5.833C21.009,5.851 20.991,5.869 20.973,5.887C21.053,5.892 21.136,5.929 21.21,6.007C21.47,6.28 21.69,6.621 21.886,6.975C22.185,7.348 22.47,7.734 22.769,8.103C23.246,8.695 23.735,9.277 24.23,9.855C25.06,10.827 25.918,11.78 26.813,12.695L26.962,12.847C27.426,13.317 27.896,13.88 28.444,14.251L28.474,14.271C28.705,14.422 28.869,14.449 29.066,14.224C29.246,14.019 29.395,13.781 29.549,13.555L29.584,13.503C30.368,12.365 31.094,11.184 31.752,9.969C32.052,9.415 32.337,8.854 32.607,8.287L32.688,8.116C32.835,7.804 32.995,7.497 33.116,7.175C33.145,7.099 33.172,7.024 33.199,6.949C32.785,6.678 32.465,6.09 32.349,5.63C32.228,5.153 32.289,4.663 32.504,4.226C32.545,4.144 32.682,4.164 32.701,4.251ZM12.285,23.661C12.227,25.477 12.193,27.295 12.107,29.11L12.078,29.729C12.211,29.878 12.289,30.049 12.227,30.284C12.202,30.374 12.131,30.456 12.041,30.486L12.014,31.062C11.887,33.654 11.738,36.24 11.467,38.825C11.127,42.06 10.734,45.29 10.342,48.519C10.286,48.976 9.968,49.339 9.473,49.272C8.973,49.204 8.77,48.768 8.836,48.314C9.094,46.533 9.342,44.751 9.56,42.964L9.807,40.928C10.118,38.383 10.436,35.838 10.802,33.301C10.955,32.241 11.114,31.181 11.273,30.121L11.218,30.049C10.99,29.753 10.754,29.463 10.521,29.171C10.073,28.609 9.631,28.051 9.22,27.462C9.2,27.433 9.241,27.39 9.27,27.412C9.846,27.837 10.391,28.292 10.938,28.754L11.418,29.16C11.694,27.328 11.967,25.497 12.211,23.661C12.217,23.615 12.286,23.612 12.285,23.661ZM20.563,6.282C20.216,6.609 19.862,6.928 19.513,7.253L19.386,7.372L19.258,7.492C18.645,8.073 18.058,8.679 17.568,9.374C16.67,10.651 16.134,12.207 16.508,13.765C16.818,15.056 17.529,16.226 17.721,17.55C17.817,18.213 17.77,18.879 17.52,19.505C17.265,20.144 16.858,20.691 16.492,21.267C15.697,22.519 15.589,23.894 15.668,25.344C15.751,26.859 15.925,28.375 16.139,29.876C16.574,32.918 17.23,35.929 18.098,38.877C18.532,40.353 19.045,41.798 19.555,43.248C19.81,43.97 20.106,44.675 20.411,45.377C20.572,45.746 20.737,46.113 20.905,46.48C20.843,45.962 20.843,45.431 20.813,44.916C20.769,44.179 20.714,43.443 20.664,42.707C20.561,41.212 20.469,39.716 20.386,38.22C20.095,32.885 19.881,27.546 19.897,22.203C19.905,19.531 19.959,16.859 20.074,14.189C20.128,12.932 20.233,11.676 20.327,10.421L20.347,10.152C20.431,9.025 20.53,7.896 20.702,6.779C20.651,6.664 20.607,6.548 20.574,6.429L20.563,6.385L20.571,6.386C20.563,6.351 20.561,6.316 20.563,6.282ZM23.557,1.691C23.564,1.66 23.608,1.663 23.616,1.691C23.811,2.348 23.742,3.071 23.574,3.732C23.483,4.09 23.355,4.437 23.199,4.772L23.144,4.89C23.011,5.175 22.861,5.469 22.601,5.647C22.493,5.721 22.299,5.726 22.19,5.647L22.135,5.605C22.126,5.598 22.117,5.591 22.108,5.583C22.007,5.498 21.957,5.311 22.004,5.188C22.124,4.869 22.397,4.635 22.585,4.351C22.752,4.099 22.9,3.833 23.023,3.556C23.287,2.958 23.406,2.322 23.557,1.691Z"/>
                </g>
                <g id="HEAD" transform="matrix(1,0,0,1,11.371,9.64676)">
                    <path id="_--Skin1" serif:id="âœ‹-Skin" d="M20.031,29.686C18.655,29.682 17.395,29.418 16.2,28.84C14.757,28.376 13.181,28.123 12.01,27.097C11.44,27.216 10.855,26.639 10.382,26.296C9.611,29.092 5.595,28.627 3.899,26.82C2.861,25.957 2.443,23.821 4.246,23.256C1.293,21.281 0.226,17.868 0.429,14.176C0.643,7.982 5.477,1.543 11.692,0.468C12.918,0.256 14.177,0.279 15.397,0.531C16.079,0.677 16.738,0.959 17.467,0.946C20.297,0.506 23.404,0.556 25.741,2.34C29.476,4.801 29.995,9.725 29.559,13.685L29.576,13.722C29.359,15.175 28.998,16.506 28.316,17.382C28.263,18.642 27.818,21.331 27.786,22.394C27.865,27.341 25.013,29.536 20.031,29.686" style="fill:white;"/>
                    <path id="ðŸ’ˆ-Hair" d="M10.364,1.398C12.913,0.549 14.521,0.988 16.9,1.457L17.047,1.486L17.277,1.53C19.664,1.372 21.72,0.856 24.024,1.982C28.819,3.968 29.706,9.449 29.376,14.026L29.357,14.111C29.2,14.779 28.981,15.469 28.519,15.999C27.744,12.241 25.251,9.76 22.187,7.392L22.077,7.261C21.697,6.809 21.282,6.34 20.78,6.021C20.796,5.875 20.805,5.729 20.802,5.584C20.798,5.385 20.509,5.217 20.358,5.39L20.33,5.425C20.133,5.661 19.099,6.792 18.576,7.372L18.511,7.444L18.353,7.621L18.086,7.935C15.21,11.322 12.177,14.721 7.887,16.347C6.859,15.707 5.612,16.27 4.97,17.172C3.144,19.268 5.26,23.219 8.066,22.147C8.236,23.596 8.972,25.23 9.971,26.323C8.877,27.827 7.126,28.098 5.488,27.247C3.889,26.543 2.854,25.066 3.835,23.433C3.856,23.421 3.877,23.409 3.899,23.398C4.651,23.893 5.528,24.217 6.435,24.283L6.504,24.287C7.071,24.313 7.062,23.435 6.487,23.39C2.684,22.914 0.996,18.637 0.992,15.283C0.831,9.379 4.568,3.305 10.364,1.398Z" style="fill:white;"/>
                    <path id="ðŸ–-Ink1" serif:id="ðŸ–-Ink" d="M3.595,23.188C-5.35,15.404 3.827,-2.114 15.466,0.211C16.643,0.599 17.84,0.734 19.059,0.446C25.207,-0.499 30.236,4.638 29.976,10.581C30.019,11.598 30.011,12.616 29.899,13.628C29.772,14.959 29.423,16.382 28.646,17.489C28.637,18.232 28.193,21.019 28.122,22.331L28.108,22.605C28.037,23.952 27.884,25.327 27.283,26.556C25.433,29.858 20.667,30.566 17.25,29.604L17.108,29.558C16.473,29.351 15.753,29.074 15.35,28.55C15.137,28.273 15.49,27.92 15.783,27.996C16.161,28.092 16.474,28.319 16.826,28.48C19.125,29.48 21.843,29.145 24.112,28.211L24.181,28.182C28.244,26.558 27.131,20.779 27.666,17.484C27.788,13.299 24.244,10.45 21.575,7.682L21.495,7.595C21.22,7.295 20.931,7.003 20.549,6.939C20.445,7.251 20.188,7.517 19.95,7.744L19.411,8.318C18.872,8.891 18.332,9.461 17.784,10.027C15.124,12.688 12.415,16.3 8.315,16.572C8.567,16.797 8.788,17.053 9.052,17.265C9.163,17.375 9.05,17.559 8.9,17.521C8.622,17.451 8.444,17.191 8.261,16.988C6.046,16.072 4.228,19.455 6.104,20.855C6.8,21.581 8.833,21.029 8.363,21.924C8.877,23.509 9.666,25.103 11.003,26.164C11.395,26.455 12.008,26.603 12.268,27.033C12.331,27.136 12.299,27.305 12.181,27.36C11.613,27.621 11.004,27.182 10.568,26.852C8.265,31.285 -0.178,26.387 3.595,23.188ZM17.277,1.529L17.046,1.485C14.586,1.005 12.965,0.531 10.364,1.397C4.567,3.304 0.831,9.378 0.992,15.282C0.996,18.636 2.684,22.913 6.486,23.389C7.061,23.434 7.07,24.312 6.504,24.286L6.487,24.285C5.549,24.227 4.642,23.893 3.868,23.377C2.831,25.033 3.871,26.534 5.487,27.246C7.125,28.097 8.877,27.826 9.971,26.322C8.972,25.229 8.236,23.595 8.066,22.146C5.26,23.218 3.144,19.267 4.969,17.171C5.612,16.269 6.859,15.705 7.887,16.346C12.309,14.67 15.397,11.109 18.353,7.62L18.51,7.443C19.028,6.868 20.218,5.567 20.35,5.399C20.498,5.21 20.798,5.38 20.802,5.583C20.804,5.727 20.796,5.874 20.78,6.02C21.33,6.37 21.776,6.9 22.187,7.39C25.251,9.759 27.743,12.24 28.519,15.998C29,15.445 29.218,14.719 29.376,14.025C29.706,9.448 28.819,3.967 24.024,1.981C21.72,0.855 19.664,1.371 17.277,1.529ZM6.404,18.719C6.204,18.543 7.523,18.522 7.648,18.659L7.676,18.669C8.148,18.832 9.013,19.36 8.588,19.907C7.983,20.469 7.561,18.801 6.404,18.719Z"/>
                </g>
                <g id="FACE" transform="matrix(1,0,0,1,26.371,21.6468)">
                    <path id="ðŸ–-Ink2" serif:id="ðŸ–-Ink" d="M6.1,12.805C5.662,12.619 5.271,12.309 4.985,11.913C4.886,11.775 4.86,11.63 4.881,11.497C4.904,11.347 4.989,11.211 5.105,11.121C5.222,11.029 5.367,10.984 5.508,11.007C5.63,11.027 5.752,11.097 5.848,11.241L5.869,11.27C6.039,11.509 6.26,11.705 6.512,11.832C6.755,11.954 7.027,12.01 7.309,11.977C7.845,11.914 8.214,11.613 8.607,11.204C8.656,11.152 8.704,11.099 8.753,11.045C8.784,10.995 8.827,10.964 8.875,10.947C8.928,10.929 8.988,10.93 9.042,10.95C9.095,10.969 9.142,11.005 9.174,11.054C9.204,11.1 9.221,11.156 9.216,11.222C9.18,11.646 8.966,12.025 8.663,12.322C8.327,12.652 7.881,12.88 7.461,12.961C6.998,13.049 6.527,12.986 6.1,12.805ZM7.679,6.26C8.171,6.571 8.921,7.297 8.392,8.068C7.769,8.748 6.871,7.968 6.429,7.616C6.019,7.342 5.558,8.045 5.939,8.364C9.134,10.824 10.431,6.342 7.928,5.894C7.653,5.845 7.55,6.164 7.679,6.26ZM1.953,3.399C2.007,2.697 3.035,2.537 3.138,3.232C3.229,3.854 3.122,4.426 2.852,4.986C2.594,5.521 1.947,5.271 1.898,4.784C1.833,4.131 1.919,3.835 1.953,3.399ZM9.779,3.088C9.922,2.893 10.129,2.759 10.377,2.835C11.152,3.07 10.923,4.214 10.651,4.77C10.504,5.073 10.026,5.149 9.81,4.883C9.458,4.449 9.289,3.582 9.737,3.155C9.749,3.133 9.762,3.11 9.779,3.088ZM2.841,0.327L2.963,0.305C3.342,0.237 3.813,0.172 4.081,0.488C4.223,0.656 4.271,0.968 4.081,1.128C3.745,1.411 3.373,1.302 2.971,1.325C2.639,1.345 2.321,1.402 2.001,1.497C1.3,1.706 0.729,2.086 0.131,2.503C0.052,2.558 -0.028,2.454 0.01,2.377C0.355,1.673 1.025,1.095 1.695,0.743C2.053,0.555 2.445,0.399 2.841,0.327ZM9.073,0.012L9.166,0.032C10.186,0.254 11.51,0.696 11.993,1.737C12.011,1.884 11.991,1.916 11.976,1.936L11.97,1.943C11.957,1.961 11.947,1.985 11.886,2.005C11.869,2.001 11.851,1.997 11.834,1.992C11.613,1.932 11.438,1.848 11.268,1.762L11.085,1.668C10.871,1.559 10.656,1.455 10.428,1.377C9.942,1.212 9.442,1.096 8.934,1.034C8.824,1.021 8.718,0.982 8.634,0.916C8.554,0.853 8.494,0.766 8.466,0.65C8.43,0.501 8.441,0.387 8.518,0.252C8.576,0.151 8.659,0.08 8.755,0.04C8.852,-0.001 8.963,-0.011 9.073,0.012Z"/>
                </g>
            </g>
        </g>
    </g>
</svg>
