<?xml version="1.0" encoding="UTF-8" standalone="no"?>
<!DOCTYPE svg PUBLIC "-//W3C//DTD SVG 1.1//EN" "http://www.w3.org/Graphics/SVG/1.1/DTD/svg11.dtd">
<svg width="100%" height="100%" viewBox="0 0 50 73" version="1.1" xmlns="http://www.w3.org/2000/svg" xmlns:xlink="http://www.w3.org/1999/xlink" xml:space="preserve" xmlns:serif="http://www.serif.com/" style="fill-rule:evenodd;clip-rule:evenodd;stroke-linejoin:round;stroke-miterlimit:2;">
    <g transform="matrix(-1,0,0,1,50.5565,-4.17408)">
        <g id="Introduction">
            <g id="avatar-boy-9">
                <g id="BODY" transform="matrix(0.662356,0,0,0.782168,7.12071,35.4473)">
                    <path id="_--Skin" serif:id="âœ‹-Skin" d="M25.132,0.205C26.054,-0.05 27.113,-0.02 28.059,0.045C29.019,0.112 30.05,0.225 30.951,0.583C31.734,0.895 32.395,1.418 32.797,2.168C33.128,2.785 33.283,3.462 33.38,4.149C33.42,4.43 33.454,4.712 33.485,4.994L33.55,5.581C33.576,5.805 33.598,5.973 33.643,6.224C33.766,6.916 33.939,7.495 34.323,7.999C35.254,9.218 36.774,9.627 38.157,10.147C39.041,10.481 39.742,11.08 39.936,12.043C40.124,12.972 47.254,20.766 47.953,21.423L47.973,21.44C48.516,21.929 48.452,22.847 48.528,23.517C48.609,24.235 48.687,24.955 48.76,25.674C48.91,27.135 49.043,28.598 49.159,30.062C49.616,35.789 49.823,41.536 49.779,47.28L49.776,47.605C49.77,48.334 49.775,49.067 49.742,49.795C49.711,50.495 49.499,51.196 48.85,51.561C48.248,51.9 47.487,51.87 46.815,51.904L46.775,51.906C46.053,51.945 45.332,51.978 44.61,52.005C41.676,52.113 38.739,52.125 35.803,52.111C29.978,52.084 24.148,51.956 18.329,52.282C16.846,52.365 12.117,51.861 10.639,52.005C9.225,52.142 10.438,52.834 9.565,52.789C6.694,52.639 3.97,51.999 1.219,51.228C0.875,51.131 0.613,50.798 0.617,50.438C0.668,46.483 0.78,42.529 0.954,38.577C1.11,35.057 1.315,31.539 1.569,28.024C1.68,26.496 1.8,24.969 1.929,23.443L1.985,22.789C2.058,21.946 2.1,21.087 2.266,20.255C2.43,19.433 2.803,18.719 3.343,18.082C3.828,17.51 9.317,13.034 10.639,12.186C11.904,11.375 13.232,10.69 14.531,9.939C15.072,9.626 15.591,9.738 16.053,9.354C16.296,9.152 19.827,7.788 20.78,7.338L20.808,7.325C21.538,6.975 22.209,6.596 22.713,5.992C22.882,5.789 23.213,4.513 23.213,4.105C23.215,3.377 23.159,2.609 23.379,1.904C23.642,1.06 24.277,0.442 25.132,0.205Z" style="fill:white;"/>
                    <path id="ðŸ‘•-Top" d="M39.729,18.345L37.536,43.288L19.273,43.74L19.273,17.122L39.729,18.345Z" style="fill:white;"/>
                    <path id="ðŸ–-Ink" d="M45.676,25.174C45.657,25.193 45.637,25.212 45.618,25.232C45.64,25.201 45.659,25.169 45.676,25.137L45.676,25.174ZM14.194,9.389C14.22,9.378 14.245,9.366 14.27,9.354C14.284,9.373 14.299,9.39 14.316,9.407C14.357,9.449 14.397,9.494 14.44,9.535C14.358,9.487 14.275,9.439 14.194,9.389ZM50.872,47.889C50.825,46.891 50.772,45.892 50.716,44.894C50.605,42.943 50.49,40.992 50.337,39.044C50.027,35.096 49.737,31.149 49.272,27.216C49.076,25.567 48.803,23.93 48.53,22.293C48.565,22.261 48.6,22.23 48.635,22.199C48.598,22.647 49.207,22.931 49.508,22.484C49.531,22.451 49.553,22.417 49.575,22.382C49.836,21.96 50.438,19.89 50.396,19.714C50.321,19.399 50.111,19.118 49.947,18.84C49.804,18.596 49.659,18.353 49.512,18.112C49.22,17.629 48.918,17.151 48.602,16.683C47.947,15.714 47.231,14.784 46.387,13.971C45.514,13.128 44.512,12.436 43.477,11.808C42.98,11.506 42.467,11.233 41.945,10.978C41.429,10.727 40.865,10.45 40.309,10.307C40.278,10.299 40.245,10.343 40.274,10.366C40.422,10.483 40.576,10.592 40.733,10.698C40.308,10.551 39.87,10.444 39.428,10.407C38.573,10.107 37.707,9.832 36.856,9.519C36.02,9.211 35.195,8.864 34.639,8.134C34.164,7.51 33.863,6.746 33.632,6.002C33.379,5.182 33.278,4.33 33.043,3.508C33.025,3.442 32.916,3.434 32.901,3.508C32.734,4.37 32.741,5.339 32.837,6.209C32.937,7.121 33.194,8.017 33.754,8.758C34.404,9.621 35.286,10.101 36.278,10.484C37.078,10.794 37.889,11.109 38.709,11.386C38.602,11.456 38.493,11.525 38.381,11.592C37.937,11.856 37.475,12.09 37.002,12.3C36.14,12.684 35.231,12.972 34.317,13.206C32.615,13.639 30.871,13.859 29.116,13.887C25.607,13.946 22.058,13.211 18.847,11.793C17.944,11.394 17.061,10.955 16.187,10.494C15.914,10.35 15.64,10.205 15.367,10.055C15.39,10.054 15.413,10.052 15.436,10.05C16.045,9.992 16.647,9.875 17.237,9.709C18.445,9.369 19.602,8.838 20.74,8.315C21.704,7.872 22.697,7.367 23.286,6.444C23.601,5.95 23.745,5.37 23.863,4.803C23.994,4.171 24.148,3.537 24.243,2.899C24.277,2.676 24.227,2.374 23.987,2.268C23.891,2.226 23.812,2.192 23.704,2.192C23.466,2.192 23.222,2.365 23.165,2.602C23.025,3.193 22.94,3.801 22.829,4.398C22.734,4.915 22.647,5.454 22.368,5.908C21.88,6.703 20.924,7.11 20.116,7.497C19.092,7.988 18.068,8.466 17.004,8.864C16.536,9.039 16.059,9.198 15.576,9.328C15.595,9.21 15.578,9.085 15.508,8.991C15.392,8.836 15.259,8.734 15.109,8.615C14.946,8.486 14.727,8.419 14.534,8.476C14.534,8.477 14.533,8.476 14.533,8.476C14.455,8.459 14.369,8.466 14.279,8.506C14.004,8.632 13.729,8.76 13.454,8.889C9.497,10.749 5.654,12.932 2.742,16.258C2.323,16.738 1.93,17.242 1.561,17.762C1.203,18.267 0.76,18.815 0.662,19.441C0.653,19.493 0.73,19.517 0.743,19.464C0.766,19.367 0.797,19.273 0.837,19.181C0.755,19.466 0.76,19.769 0.875,20.067C1.011,20.417 1.262,20.65 1.578,20.742C1.26,22.132 1.047,23.541 0.876,24.965C0.629,27.016 0.455,29.073 0.323,31.135C0.06,35.25 -0.058,39.386 0.027,43.508C0.051,44.674 0.091,45.839 0.151,47.004C0.182,47.586 0.215,48.167 0.252,48.75C0.289,49.322 0.259,49.953 0.759,50.256C0.765,50.278 0.772,50.3 0.778,50.323C0.9,50.745 1.441,50.61 1.492,50.226C1.492,50.222 1.493,50.217 1.494,50.213C1.902,49.901 1.841,49.382 1.81,48.884C1.778,48.346 1.744,47.809 1.715,47.272C1.66,46.242 1.614,45.211 1.572,44.18C1.49,42.142 1.444,40.1 1.429,38.06C1.399,33.979 1.635,29.905 1.915,25.835C2.032,24.133 2.169,22.438 2.211,20.737C2.43,20.623 2.497,20.3 2.387,20.082C4.978,21.848 7.382,23.959 9.313,26.413C9.635,26.823 9.943,27.245 10.238,27.674C10.334,27.814 10.425,27.959 10.517,28.104C10.428,28.509 10.359,28.921 10.268,29.309C10.082,30.112 10.003,30.944 9.896,31.759C9.678,33.415 9.526,35.086 9.396,36.75C9.141,40.038 8.952,43.325 8.892,46.622C8.859,48.487 8.815,50.363 8.897,52.227C8.836,52.591 9.165,52.948 9.508,52.994C9.809,53.034 10.091,52.878 10.222,52.626C11.16,52.743 12.123,52.796 13.055,52.803C14.311,52.812 15.567,52.811 16.822,52.784C19.334,52.729 21.846,52.665 24.357,52.59C29.38,52.442 34.402,52.294 39.426,52.145C40.819,52.104 42.212,52.063 43.604,52.022C44.233,52.003 45.016,52.184 45.511,51.7C45.596,51.616 45.662,51.518 45.708,51.413C45.856,51.45 46.038,51.414 46.136,51.299C46.317,51.085 46.451,50.886 46.444,50.589C46.438,50.311 46.361,50.018 46.321,49.742C46.246,49.225 46.173,48.708 46.104,48.19C45.968,47.167 45.84,46.142 45.723,45.116C45.483,43.019 45.265,40.917 45.095,38.814C44.757,34.653 44.662,30.471 44.673,26.298C44.675,25.925 44.677,25.551 44.679,25.178C44.695,25.198 44.712,25.216 44.73,25.232C44.746,25.245 44.761,25.258 44.776,25.272C44.951,25.426 45.243,25.505 45.454,25.359C45.712,25.192 45.891,24.941 46.092,24.715C46.304,24.477 46.522,24.245 46.743,24.015C47.169,23.57 47.61,23.143 48.06,22.721C48.096,22.688 48.133,22.653 48.169,22.62C48.172,23.949 48.17,25.276 48.206,26.604C48.259,28.576 48.366,30.547 48.465,32.516C48.659,36.416 48.861,40.315 49.055,44.214C49.109,45.303 49.161,46.392 49.215,47.48C49.242,48.025 49.269,48.57 49.295,49.114C49.309,49.409 49.322,49.704 49.336,49.999C49.351,50.315 49.331,50.653 49.438,50.954C49.682,51.642 50.734,51.739 50.936,50.954C51.063,50.462 50.966,49.892 50.943,49.386C50.92,48.887 50.896,48.388 50.872,47.889Z"/>
                </g>
                <g transform="matrix(-1,0,0,1,50,0)">
                    <path d="M9.499,50.867C9.499,50.867 8.048,59.951 9.446,60.467C10.845,60.984 12.273,60.072 12.881,60.71C13.489,61.349 14.34,62.23 14.34,62.23L15.221,53.203L9.499,50.867Z"/>
                    <path d="M9.499,50.867C9.499,50.867 8.048,59.951 9.446,60.467C10.845,60.984 12.273,60.072 12.881,60.71C13.489,61.349 14.34,62.23 14.34,62.23L15.221,53.203L9.499,50.867ZM13.556,59.972C13.191,59.617 12.709,59.461 12.112,59.474C11.796,59.482 11.431,59.542 11.038,59.591C10.718,59.63 10.368,59.67 10.016,59.594C9.967,59.34 9.851,58.679 9.841,58.147C9.807,56.304 10.102,53.772 10.305,52.276L14.154,53.847L13.556,59.972Z"/>
                </g>
                <g transform="matrix(1.26696,0,0,1.13877,-4.44905,-7.52282)">
                    <path d="M9.499,50.867C9.499,50.867 8.048,59.951 9.446,60.467C10.845,60.984 12.273,60.072 12.881,60.71C13.489,61.349 14.34,62.23 14.34,62.23L15.221,53.203L9.499,50.867Z"/>
                    <path d="M9.499,50.867C9.499,50.867 8.048,59.951 9.446,60.467C10.845,60.984 12.273,60.072 12.881,60.71C13.489,61.349 14.34,62.23 14.34,62.23L15.221,53.203L9.499,50.867ZM9.819,59.674C10.25,59.8 10.682,59.759 11.074,59.71C11.456,59.663 11.811,59.603 12.119,59.596C12.662,59.584 13.1,59.733 13.423,60.072C13.519,60.173 13.622,60.28 13.726,60.389C13.726,60.389 14.37,53.791 14.37,53.791L10.124,52.057C9.921,53.516 9.594,56.211 9.63,58.148C9.638,58.581 9.664,58.973 9.719,59.296C9.741,59.427 9.791,59.589 9.819,59.674Z"/>
                </g>
                <g id="HEAD" transform="matrix(1,0,0,1,12.7421,9.73952)">
                    <path id="_--Skin1" serif:id="âœ‹-Skin" d="M26.59,15.093C26.352,13.231 25.603,11.254 24.816,9.518C23.045,5.847 18.991,5.341 15.357,4.584C11.771,4.073 7.974,3.612 4.442,4.632C2.456,5.108 1.68,7.423 1.994,9.25C2.173,10.389 2.702,11.466 3.153,12.522C4.05,14.689 4.62,17.008 4.621,19.355C4.559,20.888 4.338,22.638 6.138,23.287C7.85,24.121 7.995,26.381 10.139,27.663C11.006,29.383 13.368,29.534 15.068,29.933C16.142,30.134 17.229,30.283 18.318,30.378C21.473,30.774 23.997,29.879 25.648,27.128C26.753,25.453 27.576,23.52 27.373,21.49C27.17,19.353 26.833,17.227 26.59,15.093Z" style="fill:white;"/>
                    <path id="ðŸ–-Ink1" serif:id="ðŸ–-Ink" d="M15.384,0.123C15.564,-0.077 15.842,-0.008 16.01,0.15C16.12,0.181 16.226,0.229 16.326,0.291C16.553,0.262 16.791,0.262 17.013,0.27C17.067,0.241 17.125,0.214 17.188,0.192C17.637,0.031 18.035,0.113 18.364,0.328C18.522,0.181 18.721,0.09 18.976,0.103C19.204,0.116 19.366,0.221 19.505,0.359C19.644,0.163 19.868,0.023 20.147,0.004C20.537,-0.023 20.913,0.13 21.224,0.367C21.405,0.164 21.652,0.047 21.927,0.046C22.108,0.014 22.299,0.026 22.472,0.077C22.722,0.151 22.943,0.29 23.118,0.471C23.395,0.211 23.735,0.023 24.126,0.051C24.633,0.087 25.053,0.451 25.248,0.9C25.591,1.035 25.908,1.227 26.172,1.5C26.186,1.514 26.2,1.53 26.214,1.545C26.356,1.596 26.491,1.669 26.609,1.765C26.983,2.07 27.067,2.512 26.943,2.944C26.96,3.013 26.975,3.084 26.988,3.154C27.339,3.206 27.657,3.404 27.839,3.727C28.086,4.17 28.038,4.753 27.769,5.176C27.654,5.357 27.507,5.51 27.343,5.644C27.529,6.058 27.44,6.552 27.14,6.886C27.067,7.002 26.977,7.106 26.876,7.2C26.987,7.628 26.789,8.069 26.394,8.298L26.36,8.381C26.354,8.394 26.348,8.408 26.342,8.422C26.338,8.439 26.333,8.456 26.327,8.473C26.318,8.625 26.267,8.774 26.165,8.914C25.958,9.202 25.701,9.39 25.564,9.725L25.551,9.761C25.492,9.919 25.303,10.032 25.142,9.983C26.037,11.783 26.507,13.787 26.829,15.751C26.99,16.73 27.114,17.713 27.214,18.7L27.313,19.683C27.4,20.556 27.477,21.432 27.478,22.309C27.479,24.291 26.9,26.198 25.656,27.775C24.481,29.267 22.817,30.348 20.937,30.773C18.997,31.212 16.72,31.039 14.98,30.034C14.467,29.739 14.916,29.028 15.438,29.266C16.427,29.716 17.431,30.051 18.527,30.126C19.594,30.199 20.665,30.068 21.678,29.726C23.353,29.16 24.779,27.974 25.695,26.496C26.146,25.768 26.473,24.978 26.647,24.143C26.864,23.102 26.831,22.026 26.752,20.972L26.746,20.9C26.589,18.87 26.381,16.826 26.046,14.816C25.75,13.038 25.294,11.296 24.703,9.592C24.471,9.393 24.212,9.228 23.935,9.102C21.904,9.019 19.869,9.043 17.841,9.18C16.111,9.298 14.389,9.497 12.681,9.788L12.498,9.819C12.12,9.885 11.7,9.923 11.343,10.072C11.038,10.2 10.914,10.447 10.837,10.75C10.643,11.516 10.613,12.355 10.58,13.141C10.548,13.909 10.621,14.684 10.558,15.449C10.505,16.09 10.337,16.746 9.852,17.209C9.599,17.452 9.286,17.585 8.994,17.769C8.804,17.888 8.724,18.01 8.748,18.23C8.801,18.712 9.197,19.319 8.752,19.731C8.674,19.803 8.538,19.813 8.461,19.731C8.278,19.535 8.024,19.386 7.806,19.229C7.715,19.163 7.791,19.036 7.894,19.081C8.03,19.141 8.169,19.212 8.311,19.273C7.998,19.021 7.552,18.897 7.181,18.823C6.994,18.787 6.797,18.776 6.603,18.793C6.459,18.86 6.312,18.922 6.165,18.983C5.978,19.06 5.789,19.13 5.599,19.196C4.94,19.722 4.625,20.578 4.762,21.415C4.838,21.877 5.055,22.379 5.466,22.649C5.952,22.968 6.603,22.831 7.128,23.068C7.62,23.29 7.919,23.738 8.143,24.202L8.237,24.396C8.445,24.823 8.659,25.24 8.943,25.629C9.272,26.08 9.674,26.485 10.114,26.832C10.327,27.001 10.554,27.152 10.789,27.29L10.853,27.327C11.09,27.464 11.26,27.594 11.277,27.882C11.282,27.983 11.217,28.075 11.133,28.127C10.774,28.35 10.416,28.071 10.117,27.876C9.794,27.666 9.485,27.43 9.199,27.172C8.656,26.683 8.186,26.102 7.824,25.471C7.549,24.991 7.392,24.315 6.957,23.943C6.691,23.716 6.315,23.714 5.983,23.672C5.674,23.633 5.382,23.571 5.107,23.422C3.989,22.814 3.673,21.342 3.939,20.204C3.984,20.013 4.046,19.826 4.124,19.646C3.708,19.714 3.241,19.293 3.409,18.868C3.422,18.836 3.437,18.806 3.451,18.775C3.177,18.598 2.961,18.33 2.858,17.98C2.805,17.799 2.797,17.616 2.825,17.439C2.692,17.352 2.582,17.232 2.512,17.084C2.291,16.984 2.095,16.835 1.978,16.621C1.816,16.326 1.837,16.054 1.96,15.81C1.943,15.779 1.926,15.747 1.91,15.715C1.457,15.434 1.141,14.95 1.177,14.413C1.189,14.235 1.234,14.075 1.303,13.93C1.297,13.912 1.292,13.893 1.286,13.875C0.908,13.686 0.594,13.377 0.482,12.963C0.371,12.547 0.502,12.132 0.766,11.812C0.38,11.536 0.149,11.151 0.289,10.568C0.346,10.331 0.461,10.115 0.617,9.934C0.616,9.928 0.615,9.922 0.613,9.917L0.577,9.889C0.102,9.522 -0.172,9.053 0.12,8.478C0.251,8.219 0.438,8.038 0.658,7.919L0.669,7.885C0.511,7.555 0.458,7.189 0.567,6.803C0.655,6.486 0.865,6.233 1.134,6.065C1.116,5.923 1.118,5.772 1.147,5.607C1.195,5.33 1.336,5.088 1.541,4.917C1.549,4.88 1.559,4.844 1.57,4.808C1.639,4.589 1.769,4.351 1.919,4.174C2.043,4.027 2.182,3.974 2.351,3.968C2.341,3.833 2.348,3.696 2.376,3.557C2.463,3.128 2.742,2.725 3.154,2.542C3.324,2.468 3.503,2.446 3.675,2.464C3.821,2.162 4.107,1.943 4.458,1.896C4.595,1.877 4.722,1.878 4.839,1.896C4.905,1.865 4.974,1.838 5.046,1.814C5.093,1.797 5.141,1.782 5.189,1.767C5.352,1.57 5.566,1.412 5.816,1.317C6.104,1.207 6.397,1.218 6.657,1.311L6.74,1.294C6.87,1.074 7.077,0.903 7.395,0.826C7.756,0.739 8.126,0.861 8.41,1.083C8.411,1.083 8.412,1.083 8.414,1.082C8.563,0.757 8.816,0.53 9.242,0.546C9.507,0.556 9.747,0.685 9.932,0.869C10.035,0.856 10.137,0.845 10.241,0.834C10.35,0.708 10.471,0.592 10.605,0.487C10.825,0.314 11.111,0.328 11.273,0.571C11.308,0.624 11.341,0.677 11.374,0.73L11.522,0.72C11.697,0.49 11.935,0.334 12.261,0.321C12.56,0.309 12.773,0.453 12.936,0.653C13.068,0.65 13.201,0.647 13.334,0.646C13.489,0.47 13.671,0.315 13.879,0.187C14.038,0.089 14.274,0.123 14.403,0.253C14.49,0.342 14.571,0.435 14.646,0.531C14.841,0.318 15.104,0.177 15.384,0.123ZM5.933,20.088C6.233,19.921 6.636,20.102 6.927,20.244C7.28,20.417 7.632,20.678 7.848,21.005C8.143,21.45 7.45,21.81 7.14,21.41C6.949,21.164 6.797,20.917 6.566,20.702C6.354,20.504 6.048,20.372 5.927,20.112C5.922,20.103 5.923,20.093 5.933,20.088ZM6.144,9.284L6.149,9.268C6.235,9.039 5.862,8.941 5.778,9.167C5.65,9.511 5.797,9.884 6.144,10.032C6.24,10.073 6.35,10.059 6.407,9.965C6.456,9.885 6.433,9.747 6.338,9.707C6.143,9.623 6.078,9.476 6.144,9.284ZM2.937,8.645C3.124,8.484 2.85,8.218 2.665,8.378C2.492,8.528 2.364,8.731 2.397,8.964C2.431,9.202 2.614,9.37 2.815,9.489C3.028,9.615 3.221,9.289 3.009,9.163L2.986,9.149C2.896,9.095 2.792,9.021 2.777,8.914C2.761,8.801 2.859,8.713 2.937,8.645ZM3.995,5.805L4.008,5.795C4.208,5.655 4.016,5.328 3.814,5.47C3.628,5.599 3.479,5.768 3.463,6C3.448,6.226 3.566,6.422 3.719,6.581C3.89,6.757 4.162,6.49 3.992,6.314C3.825,6.142 3.793,5.954 3.995,5.805Z"/>
                </g>
                <g id="FACE" transform="matrix(1,0,0,1,23.0648,19.939)">
                    <path id="ðŸ–-Ink2" serif:id="ðŸ–-Ink" d="M9.637,16.445C9.195,16.258 8.801,15.946 8.513,15.547C8.412,15.409 8.386,15.262 8.407,15.128C8.431,14.978 8.517,14.841 8.634,14.75C8.751,14.658 8.898,14.612 9.04,14.635C9.163,14.656 9.286,14.726 9.383,14.871L9.404,14.9C9.575,15.141 9.798,15.338 10.053,15.466C10.298,15.589 10.573,15.646 10.856,15.612C11.397,15.549 11.77,15.245 12.166,14.833C12.215,14.781 12.264,14.727 12.313,14.673C12.345,14.624 12.388,14.592 12.436,14.575C12.489,14.557 12.55,14.558 12.605,14.578C12.658,14.597 12.706,14.634 12.738,14.682C12.768,14.729 12.785,14.786 12.78,14.851C12.743,15.279 12.528,15.66 12.223,15.959C11.883,16.292 11.433,16.522 11.01,16.603C10.543,16.692 10.068,16.628 9.637,16.445ZM11.23,9.854C11.726,10.168 12.483,10.898 11.949,11.675C11.32,12.36 10.415,11.575 9.969,11.22C9.555,10.944 9.091,11.652 9.474,11.974C12.698,14.451 14.005,9.936 11.481,9.486C11.203,9.436 11.1,9.757 11.23,9.854ZM5.454,6.972C5.509,6.266 6.546,6.105 6.649,6.805C6.742,7.431 6.633,8.007 6.361,8.571C6.101,9.11 5.448,8.858 5.399,8.368C5.333,7.71 5.42,7.412 5.454,6.972ZM13.348,6.659C13.492,6.463 13.701,6.329 13.951,6.405C14.733,6.642 14.502,7.793 14.228,8.354C14.079,8.658 13.597,8.736 13.379,8.468C13.024,8.03 12.854,7.157 13.305,6.727C13.317,6.705 13.331,6.682 13.348,6.659ZM6.35,3.879L6.473,3.857C6.855,3.788 7.33,3.722 7.6,4.041C7.743,4.21 7.793,4.524 7.6,4.686C7.261,4.971 6.887,4.86 6.481,4.884C6.147,4.904 5.825,4.962 5.503,5.057C4.796,5.267 4.22,5.65 3.616,6.071C3.537,6.126 3.456,6.021 3.494,5.944C3.843,5.235 4.518,4.653 5.194,4.298C5.555,4.108 5.951,3.951 6.35,3.879ZM12.636,3.562L12.73,3.582C13.758,3.805 15.094,4.251 15.581,5.299C15.599,5.447 15.58,5.479 15.564,5.5L15.558,5.507C15.545,5.524 15.535,5.549 15.473,5.569C15.456,5.565 15.438,5.56 15.421,5.556C15.198,5.495 15.021,5.411 14.85,5.324L14.665,5.23C14.45,5.12 14.233,5.015 14.003,4.937C13.512,4.771 13.008,4.654 12.495,4.591C12.384,4.578 12.277,4.539 12.193,4.472C12.113,4.409 12.052,4.321 12.024,4.204C11.988,4.054 11.998,3.94 12.076,3.803C12.134,3.701 12.218,3.631 12.315,3.59C12.413,3.548 12.524,3.539 12.636,3.562Z"/>
                </g>
            </g>
        </g>
    </g>
</svg>
