<?xml version="1.0" encoding="UTF-8" standalone="no"?>
<!DOCTYPE svg PUBLIC "-//W3C//DTD SVG 1.1//EN" "http://www.w3.org/Graphics/SVG/1.1/DTD/svg11.dtd">
<svg width="100%" height="100%" viewBox="0 0 53 77" version="1.1" xmlns="http://www.w3.org/2000/svg" xmlns:xlink="http://www.w3.org/1999/xlink" xml:space="preserve" xmlns:serif="http://www.serif.com/" style="fill-rule:evenodd;clip-rule:evenodd;stroke-linejoin:round;stroke-miterlimit:2;">
    <g transform="matrix(-1,0,0,1,53,0)">
        <g id="Introduction">
            <g id="avatar-girl-2">
                <g id="BODY" transform="matrix(0.632639,0,0,0.778882,7.33799,37.4689)">
                    <path id="_--Skin" serif:id="âœ‹-Skin" d="M51.112,39.615C50.84,38.074 50.59,36.528 50.362,34.979C50.255,34.244 50.149,33.508 50.055,32.771C49.988,32.254 49.888,31.663 50.239,31.281C50.733,30.742 51.182,30.282 51.242,29.51C51.299,28.784 51.054,27.993 50.901,27.289C50.579,25.812 50.179,24.353 49.736,22.907C49.287,21.439 48.794,19.985 48.294,18.533C47.827,17.176 47.378,15.806 46.769,14.504C45.614,12.033 43.659,10.202 41.244,8.98C40.643,8.676 39.418,7.592 38.79,7.349C38.213,7.125 38.215,7.777 37.647,7.532C37.194,7.335 36.771,7.074 36.517,6.635C36.241,6.159 35.549,5.493 35.443,4.938C35.22,3.763 35.462,2.763 34.624,1.879C33.88,1.094 32.88,0.556 31.845,0.267C29.569,-0.368 26.533,0.076 25.16,2.192C24.504,3.203 24.275,4.425 23.389,5.25C22.617,5.97 22.79,6.462 21.788,6.833C21.732,6.855 20.195,6.525 20.138,6.546C19.043,6.311 17.997,6.968 16.992,7.349C15.494,7.916 14.068,8.655 12.728,9.534C10.027,11.305 7.713,13.605 5.806,16.207C3.882,18.831 2.39,21.772 1.328,24.846C1.07,25.593 0.838,26.349 0.633,27.112C0.519,27.539 0.397,27.982 0.536,28.419C0.65,28.777 0.903,29.043 1.201,29.258C1.605,29.549 2.414,29.738 2.398,30.323C2.386,30.768 2.235,31.236 2.162,31.676C2.074,32.199 2.002,32.726 1.93,33.252C1.603,35.646 1.348,38.053 1.235,40.467C1.124,42.844 1.032,45.269 1.197,47.646C1.207,47.802 1.254,47.946 1.33,48.068C1.259,48.095 1.254,48.226 1.341,48.244C1.403,48.257 1.464,48.27 1.525,48.283C1.652,48.38 1.811,48.439 1.994,48.445C2.118,48.449 2.242,48.454 2.366,48.461C3.672,48.734 4.978,48.992 6.301,49.187C7.909,49.425 9.523,49.619 11.141,49.776C14.466,50.099 17.765,49.992 21.094,49.818C24.419,49.644 27.741,49.603 31.069,49.69C34.4,49.776 37.729,49.921 41.061,49.981C44.783,50.047 48.499,49.945 52.21,49.649C52.719,49.609 53.034,49.203 52.934,48.698C52.332,45.668 51.651,42.658 51.112,39.615Z" style="fill:white;"/>
                    <path id="ðŸ‘•-Top" d="M16.992,7.349L17.065,7.321C18.047,6.937 19.07,6.317 20.138,6.546C20.176,6.532 20.872,6.674 21.348,6.763L20.896,7.236L20.098,7.389C22.85,11.935 26.106,14.208 29.864,14.208C33.623,14.208 36.474,11.935 38.42,7.389L38.685,7.316C38.718,7.323 38.753,7.334 38.79,7.349C39.418,7.591 40.643,8.676 41.244,8.98C43.659,10.202 45.614,12.032 46.769,14.504C47.357,15.763 47.797,17.084 48.248,18.397L48.294,18.533C48.794,19.985 49.287,21.439 49.736,22.907C50.16,24.29 50.544,25.685 50.858,27.096L50.901,27.289C51.054,27.993 51.299,28.784 51.242,29.51C51.221,29.785 51.15,30.02 51.045,30.234L45.601,32.194L48.195,49.895C45.819,49.997 43.441,50.023 41.061,49.981C37.729,49.921 34.4,49.776 31.069,49.69C27.842,49.606 24.62,49.641 21.397,49.802L20.578,49.844C17.424,50.002 14.294,50.083 11.141,49.776L10.926,49.755L10.926,47.166L12.034,32.748L6.42,31.691L0.91,29.013C0.744,28.846 0.61,28.652 0.536,28.419C0.407,28.014 0.502,27.604 0.608,27.206L0.633,27.112C0.838,26.349 1.07,25.593 1.328,24.846C2.39,21.772 3.882,18.831 5.806,16.207C7.713,13.605 10.027,11.305 12.728,9.534C14.068,8.655 15.494,7.916 16.992,7.349Z"/>
                    <path id="ðŸ–-Ink" d="M19.1,6.471C19.444,6.456 19.795,6.512 20.138,6.546C20.168,6.549 20.18,6.595 20.146,6.602C19.531,6.73 18.924,6.906 18.32,7.085L18.062,7.161C17.381,7.363 16.72,7.57 16.062,7.839C14.748,8.375 13.501,9.097 12.353,9.928C7.934,13.125 4.735,17.967 2.716,22.979C2.168,24.34 1.703,25.735 1.327,27.154C1.235,27.499 1.149,27.846 1.068,28.193C1.044,28.295 0.939,28.556 0.997,28.66C1.047,28.753 1.244,28.81 1.335,28.857L1.644,29.018C2.246,29.328 3.249,29.839 3.35,29.888L3.507,29.966C6.072,31.224 8.813,32.291 11.7,32.365L11.723,32.118C11.852,30.755 12.021,29.383 12.389,28.061C12.409,27.99 12.5,28.014 12.508,28.078C12.713,29.643 12.648,31.22 12.576,32.792C12.449,35.577 12.28,38.36 12.131,41.143C12.056,42.536 11.959,43.927 11.871,45.319C11.784,46.713 11.755,48.141 11.555,49.524C11.511,49.832 11.15,50 10.877,49.968C10.574,49.932 10.342,49.665 10.34,49.36C10.336,48.554 10.438,47.739 10.494,46.935C10.547,46.172 10.605,45.408 10.663,44.645C10.878,41.86 11.125,39.078 11.353,36.294C11.434,35.307 11.522,34.32 11.612,33.334C8.553,33.235 5.696,32.101 2.97,30.777C2.931,31.673 2.836,32.568 2.743,33.461C2.486,35.952 2.259,38.442 2.089,40.941C2.003,42.203 1.941,43.466 1.886,44.73C1.859,45.351 1.838,45.972 1.821,46.594C1.815,46.801 1.81,47.008 1.806,47.215L1.797,47.69C1.789,47.99 1.758,48.269 1.506,48.488C1.249,48.71 0.902,48.722 0.648,48.488C0.307,48.174 0.368,47.747 0.378,47.326C0.386,46.971 0.396,46.616 0.408,46.261C0.431,45.551 0.461,44.841 0.498,44.131C0.625,41.65 0.88,39.179 1.214,36.718L1.344,35.768C1.587,34.002 1.854,32.196 2.397,30.495C2.185,30.39 1.974,30.284 1.764,30.177C1.392,29.988 1.006,29.811 0.644,29.603C0.357,29.438 0.109,29.211 0.029,28.876C-0.06,28.503 0.076,28.096 0.167,27.732L0.175,27.7C0.264,27.334 0.359,26.969 0.46,26.606C0.87,25.134 1.376,23.691 1.968,22.283C3.155,19.464 4.686,16.785 6.556,14.364C8.24,12.184 10.229,10.207 12.56,8.725C13.7,8 14.914,7.405 16.199,6.984C16.799,6.787 17.452,6.616 18.081,6.546C18.42,6.508 18.759,6.486 19.1,6.471ZM25.198,2.004C25.607,1.565 26.42,2.019 26.223,2.601C25.761,3.97 25.026,5.219 23.878,6.119C22.799,6.965 21.512,7.514 20.126,7.397C20.115,7.396 20.106,7.393 20.098,7.389L20.217,7.551C21.155,8.82 22.144,10.072 23.336,11.109C25.765,13.223 29.072,14.363 32.266,13.552C34.779,12.914 36.992,10.926 37.643,8.392C37.55,8.434 37.439,8.448 37.317,8.422C36.796,8.309 36.281,7.76 35.945,7.367C35.581,6.942 35.297,6.483 35.089,5.964C34.709,5.014 34.587,3.791 35.106,2.871C35.171,2.758 35.319,2.822 35.331,2.932L35.351,3.105C35.451,3.967 35.576,4.801 35.982,5.587C36.181,5.972 36.419,6.348 36.71,6.67C36.865,6.842 37.033,7.007 37.215,7.151C37.392,7.292 37.606,7.394 37.765,7.555L37.794,7.586L37.795,7.581C37.835,7.239 38.074,7.089 38.308,7.098C38.535,7.108 38.801,7.207 38.904,7.255L38.914,7.26C40.494,8.019 41.949,9.008 43.319,10.106C46.152,12.376 48.274,15.344 49.302,18.838C49.807,20.554 50.097,22.321 50.402,24.08L50.591,25.158C50.876,26.782 51.195,28.438 51.839,29.948C52.005,30.339 51.877,30.705 51.468,30.859C50.958,31.051 50.446,31.237 49.933,31.42C50.185,32.501 50.339,33.62 50.527,34.706C50.928,37.015 51.42,39.309 51.841,41.615C52.057,42.794 52.251,43.977 52.466,45.157C52.57,45.725 52.678,46.292 52.783,46.859C52.84,47.165 52.891,47.472 52.945,47.779L52.955,47.83C52.985,47.991 53.024,48.159 52.98,48.32C52.929,48.505 52.785,48.635 52.657,48.768C52.551,48.876 52.398,48.877 52.269,48.818L52.226,48.798C51.994,48.69 51.813,48.582 51.731,48.32C51.679,48.155 51.66,47.969 51.626,47.798C51.561,47.471 51.499,47.144 51.441,46.816C51.324,46.16 51.21,45.503 51.099,44.846L50.995,44.23C50.639,42.109 50.3,39.974 50.129,37.83C50.053,36.879 49.972,35.929 49.891,34.978L49.83,34.265C49.753,33.363 49.659,32.438 49.645,31.523L49.339,31.632L47.842,32.162C47.471,32.293 46.999,32.562 46.6,32.513C46.404,32.489 46.255,32.427 46.14,32.315C46.278,34.261 46.464,36.203 46.713,38.136C46.939,39.894 47.19,41.65 47.486,43.398C47.633,44.264 47.783,45.128 47.947,45.991C48.029,46.422 48.113,46.853 48.2,47.283C48.244,47.498 48.295,47.713 48.329,47.929C48.368,48.177 48.3,48.329 48.161,48.533C48.048,48.701 47.82,48.787 47.636,48.671C47.392,48.518 47.265,48.385 47.193,48.106C47.128,47.853 47.088,47.588 47.038,47.331C46.944,46.857 46.854,46.383 46.767,45.908C46.586,44.914 46.418,43.918 46.268,42.919C45.741,39.4 45.406,35.852 45.237,32.297C45.154,30.544 45.128,28.788 45.143,27.033C45.15,26.133 45.179,25.231 45.243,24.333C45.308,23.425 45.442,22.534 45.561,21.634C45.565,21.603 45.61,21.601 45.612,21.634C45.669,22.643 45.757,23.651 45.801,24.662C45.842,25.628 45.861,26.594 45.894,27.56C45.937,28.829 45.997,30.099 46.077,31.368C46.221,31.21 46.438,31.119 46.656,31.154C46.971,31.088 47.31,30.923 47.611,30.822L48.743,30.444C49.338,30.245 49.934,30.047 50.531,29.856C49.997,28.058 49.631,26.233 49.319,24.381L49.179,23.549C48.903,21.91 48.606,20.27 48.107,18.683C47.581,17.014 46.795,15.463 45.753,14.058C44.725,12.673 43.475,11.454 42.187,10.314C41.085,9.337 39.906,8.456 38.782,7.507C38.793,7.57 38.796,7.639 38.786,7.715C38.547,9.465 37.634,11.095 36.362,12.308C33.807,14.744 30.025,15.249 26.755,14.107C23.592,13.002 20.795,10.385 19.807,7.147C19.79,7.092 19.864,7.07 19.894,7.111C19.949,7.186 20.004,7.261 20.059,7.336C20.055,7.306 20.071,7.274 20.108,7.26C21.26,6.814 22.393,6.182 23.257,5.289C23.678,4.853 24.046,4.36 24.336,3.827C24.475,3.572 24.6,3.308 24.699,3.036L24.725,2.965C24.845,2.623 24.946,2.275 25.198,2.004Z"/>
                </g>
                <g id="HEAD" transform="matrix(1,0,0,1,8.0432,8.60991)">
                    <path id="_--Skin1" serif:id="âœ‹-Skin" d="M13.818,2.481L14.406,3.182C14.081,3.412 13.773,3.643 13.484,3.875L13.484,3.875C14.823,2.998 16.306,2.481 17.908,2.481C20.993,2.481 27.26,5.139 28.677,7.056C29.38,8.007 30.686,10.928 31.364,14.104C31.909,16.655 32.719,23.864 31.909,26.572C30.872,30.039 27.462,33.243 23.946,33.243C20.429,33.243 14.97,30.697 11.085,25.117C10.907,24.862 8.867,24.566 7.411,23.609L7.793,27.831L8.084,30.287L8.02,30.462C6.977,33.289 6.151,34.764 5.542,34.887C4.92,35.012 3.653,33.989 1.741,31.819L1.497,30.79C0.876,28.167 0.566,26.759 0.566,26.566L0.566,26.531C0.575,26.087 0.728,23.574 0.731,22.898L0.731,12.763C2.787,5.908 4.749,2.481 6.617,2.481L13.818,2.481Z" style="fill:white;"/>
                    <path id="ðŸ–-Ink1" serif:id="ðŸ–-Ink" d="M8.947,0.146C9.551,-0.089 10.251,-0.044 10.825,0.309C11.952,0.261 13.072,0.921 13.66,1.886C13.672,1.9 13.685,1.913 13.696,1.927L13.821,2.073C13.939,2.211 14.063,2.365 14.162,2.523C13.679,2.534 13.277,2.731 12.997,3.129C12.796,3.414 13.255,3.684 13.46,3.415L13.467,3.405C13.635,3.166 13.89,3.073 14.173,3.068C14.254,3.067 14.316,3.036 14.359,2.99C14.377,3.053 14.392,3.117 14.406,3.182C15.832,2.626 17.368,2.478 18.899,2.61C18.832,2.719 18.776,2.836 18.733,2.959C18.684,3.098 18.788,3.257 18.923,3.295C19.068,3.335 19.2,3.249 19.253,3.117L19.258,3.104C19.316,2.937 19.412,2.793 19.541,2.682C20.262,2.78 20.977,2.936 21.675,3.137C22.514,3.378 23.345,3.673 24.157,4.011C24.02,4.065 23.901,4.156 23.818,4.309C23.651,4.614 24.108,4.887 24.282,4.595L24.288,4.585C24.305,4.553 24.32,4.535 24.331,4.524L24.335,4.52L24.359,4.509L24.403,4.496L24.421,4.492C24.436,4.489 24.442,4.489 24.482,4.487C24.535,4.484 24.588,4.484 24.641,4.484C24.765,4.484 24.845,4.414 24.881,4.325C25.282,4.507 25.678,4.698 26.067,4.898L26.159,4.946C27.36,5.575 28.497,6.401 29.156,7.616C29.2,7.698 29.213,7.786 29.203,7.871C29.343,8.04 29.48,8.215 29.61,8.392C30.009,8.936 30.301,9.554 30.578,10.166C31.134,11.397 31.508,12.662 31.8,13.981C32.083,15.252 32.311,16.537 32.522,17.822C32.757,19.249 32.952,20.689 32.993,22.137C33.065,24.718 32.562,27.314 31.117,29.487C29.828,31.426 27.887,32.965 25.585,33.458C23.243,33.959 20.766,33.47 18.921,31.906C18.623,31.654 18.664,31.145 18.921,30.887C19.211,30.596 19.64,30.637 19.936,30.887C21.674,32.361 24.203,32.588 26.297,31.838C28.233,31.143 29.749,29.54 30.68,27.74C31.815,25.544 32.006,23.022 31.832,20.594C31.737,19.26 31.539,17.937 31.334,16.616L31.211,15.821C31.077,14.959 30.935,14.099 30.751,13.247L30.708,13.048C30.483,12.02 30.219,10.966 29.811,9.999C29.597,9.492 29.34,9.003 29.077,8.521C29.026,8.427 28.973,8.332 28.919,8.237C28.847,8.262 28.765,8.266 28.678,8.239C27.935,8.007 27.17,7.851 26.392,7.799C26.038,7.775 25.683,7.772 25.328,7.786C24.721,7.75 24.097,7.804 23.519,7.99C23.463,7.942 23.405,7.894 23.348,7.846C23.333,7.845 23.317,7.844 23.302,7.84C23.154,7.811 23.05,7.706 22.988,7.573C22.985,7.566 22.982,7.559 22.979,7.552C22.905,7.496 22.83,7.44 22.755,7.385C22.571,7.432 22.411,7.279 22.367,7.112C22.327,7.084 22.285,7.057 22.244,7.03C22.211,7.038 22.179,7.044 22.148,7.047C22.013,7.057 21.882,7.036 21.763,6.971C21.611,6.889 21.514,6.757 21.449,6.607C21.22,6.621 20.988,6.547 20.783,6.412C20.617,6.302 20.49,6.151 20.363,6.001C18.819,5.31 17.141,4.902 15.459,4.798C15.294,4.83 15.129,4.868 14.967,4.912C14.928,4.923 14.874,4.943 14.811,4.968C15.186,4.923 15.566,4.918 15.951,4.974C17.779,5.239 19.202,6.611 20.428,7.907C20.719,7.848 21.014,8.226 20.744,8.477L18.641,10.432C18.692,10.65 18.442,10.866 18.223,10.813C17.856,10.725 17.489,10.639 17.12,10.554C16.737,10.74 16.254,10.708 15.906,10.438C15.889,10.426 15.854,10.406 15.824,10.386C15.795,10.41 15.757,10.433 15.741,10.443C15.618,10.526 15.467,10.55 15.322,10.527C15.173,10.503 15.039,10.427 14.923,10.333C14.85,10.273 14.678,10.022 14.582,10.004L14.573,10.003C14.637,10.005 14.432,10.196 14.377,10.235C14.248,10.327 14.106,10.376 13.946,10.358C13.667,10.327 13.428,10.073 13.292,9.837L13.281,9.819L13.277,9.808L13.273,9.82C13.273,9.822 13.272,9.825 13.271,9.827C13.251,9.883 13.186,9.946 13.143,9.984C13.019,10.094 12.865,10.143 12.701,10.114C12.562,10.09 12.445,10.006 12.351,9.904L12.337,9.887C12.309,9.856 12.126,9.609 12.155,9.55L12.158,9.545L12.149,9.543C12.037,9.571 11.944,9.543 11.876,9.486C11.493,9.402 11.116,9.304 10.751,9.18C10.723,9.26 10.695,9.341 10.667,9.422C10.867,9.545 11.051,9.722 11.221,9.847C11.542,10.085 11.863,10.322 12.184,10.561L13.454,11.5L13.599,11.461C13.785,11.411 13.944,11.52 14.012,11.685L14.018,11.7C14.045,11.772 14.078,11.839 14.116,11.903C14.433,11.891 14.702,12.086 14.789,12.367C14.868,12.365 14.947,12.368 15.028,12.377C15.25,12.401 15.399,12.567 15.359,12.793L15.356,12.809L15.351,12.834C15.479,12.889 15.572,12.995 15.593,13.155C15.628,13.207 15.655,13.263 15.673,13.326C15.766,13.653 15.585,14.056 15.489,14.369L15.482,14.394C15.42,14.599 15.356,14.804 15.292,15.008L15.131,15.516C14.684,16.932 14.249,18.424 14.61,19.907C14.687,20.221 14.287,20.363 14.114,20.118C13.693,19.523 13.238,18.962 12.761,18.424L12.738,18.42C12.403,18.353 12.274,18.116 12.12,17.875C12.03,17.901 11.933,17.908 11.839,17.889C11.703,17.863 11.581,17.785 11.485,17.687C11.403,17.603 11.328,17.389 11.232,17.336C11.112,17.27 10.87,17.365 10.726,17.344C10.609,17.326 10.499,17.286 10.393,17.235C10.199,17.502 10.069,17.815 10.038,18.152C10.025,18.281 9.987,18.389 9.932,18.479C10.135,18.472 10.339,18.486 10.539,18.524C11.283,18.662 11.816,19.122 12.115,19.808C12.128,19.838 12.089,19.862 12.072,19.834C11.627,19.148 10.66,19.113 9.957,19.355C9.211,19.611 8.793,20.27 8.644,21.022C8.48,21.846 8.69,22.734 9.137,23.435C9.345,23.762 9.628,24.059 10.004,24.18C10.452,24.322 10.865,24.067 11.323,24.199C11.635,24.288 11.772,24.59 11.716,24.893C11.693,25.012 11.652,25.115 11.596,25.206C11.761,25.533 11.913,25.87 12.107,26.18C12.406,26.659 12.769,27.055 13.163,27.454C13.571,27.867 13.986,28.271 14.423,28.653C14.841,29.02 15.32,29.28 15.758,29.616C16.066,29.852 16.218,30.182 16.066,30.56C15.941,30.873 15.519,31.139 15.177,30.998C14.523,30.728 13.951,30.267 13.43,29.794C12.946,29.354 12.526,28.828 12.208,28.258C11.908,27.72 11.687,27.109 11.5,26.52L11.477,26.447C11.39,26.167 11.297,25.852 11.237,25.535C10.878,25.731 10.392,25.76 10.008,25.707C9.388,25.621 8.822,25.308 8.395,24.851C8.195,24.639 8.019,24.396 7.867,24.134C7.881,24.294 7.889,24.448 7.898,24.589C8.253,24.979 8.396,25.543 8.27,26.057C8.567,26.364 8.651,26.824 8.495,27.217C8.821,27.54 8.809,28.055 8.668,28.523C9.053,28.955 9.089,29.626 8.789,30.113L8.78,30.148C9.083,30.657 9.014,31.315 8.634,31.764C8.894,32.269 8.854,32.948 8.205,33.144C7.969,33.215 7.74,33.155 7.568,33.022C7.725,33.803 7.795,34.595 7.586,35.38C7.503,35.691 7.199,35.918 6.88,35.918C6.613,35.918 6.419,35.784 6.285,35.586C6.301,35.98 6.277,36.376 6.193,36.775C6.143,37.016 5.92,37.204 5.683,37.263C5.768,37.359 5.802,37.499 5.721,37.644C5.373,38.261 4.534,38.005 4.478,37.415C4.241,37.237 4.131,36.946 4.085,36.631C4.019,36.173 3.995,35.721 3.919,35.268L3.891,35.295L3.876,35.308L3.871,35.341C3.828,35.565 3.702,35.722 3.538,35.815C3.574,36.206 3.508,36.604 3.261,36.9C3.096,37.098 2.816,37.176 2.576,37.133C2.561,37.134 2.545,37.134 2.529,37.131C1.985,37.059 1.67,36.541 1.813,36.066C1.594,35.796 1.502,35.455 1.567,35.117C1.142,34.835 1.151,34.217 1.298,33.72C0.853,33.368 0.686,32.71 0.91,32.187C0.509,31.688 0.453,30.992 0.725,30.424C0.284,30.061 0.287,29.36 0.724,28.988C0.491,28.524 0.351,27.969 0.584,27.545C0.419,27.363 0.329,27.104 0.348,26.854C0.376,26.486 0.619,26.232 0.92,26.063L0.94,25.948C1.011,25.957 1.086,25.937 1.153,25.873C1.218,25.81 1.286,25.759 1.356,25.717C1.435,25.716 1.503,25.68 1.551,25.626C1.682,25.581 1.823,25.562 1.979,25.56C2.317,25.556 2.329,25.05 2.015,25.017C1.965,24.967 1.897,24.935 1.823,24.935L1.765,24.935C1.629,24.937 1.492,24.945 1.366,24.999C1.284,25.034 1.221,25.087 1.175,25.152C1.166,25.25 1.113,25.347 0.998,25.428C0.865,25.521 0.684,25.532 0.542,25.448C0.343,25.33 0.341,25.146 0.364,24.946C0.414,24.508 0.163,24.096 0.223,23.648C0.249,23.45 0.315,23.279 0.422,23.141C0.196,22.801 0.156,22.363 0.33,21.991C-0.032,21.599 -0.095,20.996 0.136,20.525C0.139,20.514 0.142,20.502 0.146,20.491C0.172,20.411 0.208,20.339 0.247,20.27C0.044,19.917 0.046,19.485 0.252,19.133C-0.06,18.768 -0.07,18.187 0.208,17.793C0.209,17.76 0.213,17.728 0.216,17.695C0.088,17.363 0.119,16.985 0.28,16.677C0.223,16.543 0.178,16.399 0.15,16.246C0.077,15.852 0.114,15.468 0.223,15.083C0.241,15.022 0.261,14.962 0.282,14.901C0.285,14.637 0.295,14.375 0.308,14.113C0.257,13.891 0.248,13.647 0.247,13.421L0.247,13.274C0.244,12.9 0.218,12.353 0.454,12.036C0.303,11.693 0.365,11.261 0.617,10.989C0.44,10.684 0.403,10.308 0.581,9.97C0.609,9.915 0.643,9.864 0.679,9.816C0.664,9.506 0.729,9.186 0.894,8.877C1.001,8.676 1.161,8.502 1.352,8.363C1.349,8.322 1.347,8.281 1.347,8.241C1.351,8.06 1.391,7.879 1.458,7.709C1.337,7.503 1.281,7.27 1.352,7.019C1.431,6.735 1.638,6.491 1.898,6.353C1.919,6.085 1.96,5.819 2.02,5.556C1.861,5.2 1.987,4.731 2.348,4.521C2.301,4.237 2.343,3.942 2.549,3.72C2.628,3.635 2.72,3.572 2.819,3.529C2.771,3.243 2.825,2.946 3.022,2.713C3.183,2.523 3.422,2.407 3.665,2.39C3.758,1.893 4.232,1.521 4.732,1.551C4.794,1.332 4.944,1.141 5.175,1.044C5.235,1.019 5.294,1.003 5.354,0.994C5.761,0.582 6.366,0.304 6.89,0.161C7.415,0.018 7.948,0.005 8.399,0.17L8.432,0.183L8.469,0.178C8.628,0.16 8.787,0.15 8.947,0.146ZM4.953,33.851C4.813,33.807 4.656,33.903 4.618,34.042C4.578,34.188 4.667,34.334 4.808,34.378C4.984,34.433 5.168,34.446 5.351,34.446C5.498,34.447 5.624,34.321 5.624,34.173C5.624,34.025 5.499,33.9 5.351,33.9C5.202,33.9 5.093,33.895 4.953,33.851ZM3.705,30.951C3.495,30.951 3.315,31.002 3.159,31.149C3.055,31.248 3.053,31.438 3.159,31.535C3.267,31.634 3.422,31.64 3.533,31.546L3.554,31.527C3.556,31.524 3.558,31.523 3.56,31.521C3.569,31.515 3.578,31.509 3.587,31.505L3.569,31.516C3.556,31.526 3.587,31.51 3.605,31.502L3.61,31.5L3.612,31.5L3.626,31.499C3.652,31.497 3.678,31.497 3.705,31.497C3.847,31.497 3.983,31.372 3.977,31.224C3.97,31.076 3.857,30.951 3.705,30.951ZM7.665,29.219C7.959,29.038 7.696,28.574 7.4,28.741L7.39,28.747C7.238,28.84 7.052,28.828 6.88,28.828C6.53,28.828 6.529,29.374 6.88,29.374L6.938,29.374C7.19,29.372 7.444,29.354 7.665,29.219ZM5.345,27.226C5.123,27.183 4.873,27.146 4.639,27.172L4.6,27.176L4.528,27.176C4.465,27.176 4.405,27.202 4.356,27.241C4.279,27.274 4.206,27.317 4.139,27.374C3.874,27.605 4.261,27.99 4.524,27.761C4.539,27.748 4.556,27.737 4.575,27.729L4.589,27.723L4.881,27.723C4.907,27.723 4.933,27.717 4.958,27.709C5.053,27.722 5.141,27.741 5.2,27.752C5.543,27.817 5.69,27.291 5.345,27.226ZM5.097,21.984C4.67,21.786 4.197,21.787 3.802,22.063C3.52,22.26 3.782,22.725 4.067,22.541L4.077,22.534C4.113,22.51 4.149,22.489 4.186,22.47C4.386,22.528 4.588,22.531 4.782,22.459L4.807,22.45L4.822,22.456C5.138,22.603 5.415,22.132 5.097,21.984ZM9.744,21.128C9.313,21.08 9.309,20.397 9.744,20.446C10.662,20.549 11.494,20.958 12.104,21.661C12.388,21.987 11.921,22.465 11.632,22.153L11.623,22.143C11.138,21.585 10.483,21.212 9.744,21.128ZM4.914,17.621C4.818,17.611 4.723,17.606 4.628,17.61C4.402,17.621 4.127,17.772 4.226,18.046C4.306,18.265 4.567,18.273 4.695,18.157C4.749,18.158 4.802,18.162 4.856,18.167C4.998,18.182 5.139,18.209 5.279,18.237C5.621,18.304 5.768,17.778 5.424,17.71L5.271,17.68C5.22,17.67 5.168,17.66 5.116,17.651C5.085,17.635 5.052,17.625 5.016,17.622L4.998,17.621L4.914,17.621ZM2.209,13.385L2.177,13.38C1.717,13.321 0.979,13.376 0.923,13.962C0.892,14.288 1.361,14.308 1.453,14.03C1.792,13.969 2.135,13.957 2.472,13.994C2.601,13.863 2.602,13.611 2.388,13.548C2.357,13.467 2.294,13.397 2.209,13.385ZM12.719,12.393C12.612,12.295 12.438,12.282 12.333,12.393C12.273,12.457 12.223,12.528 12.183,12.606L12.157,12.658C12.152,12.667 12.148,12.676 12.143,12.684C12.134,12.7 12.124,12.715 12.114,12.731L12.108,12.737C12.105,12.74 12.102,12.743 12.098,12.747C12,12.851 11.988,13.032 12.098,13.133C12.204,13.231 12.379,13.244 12.483,13.133C12.543,13.069 12.594,12.999 12.634,12.921L12.66,12.868C12.665,12.859 12.669,12.851 12.674,12.842C12.683,12.826 12.693,12.811 12.703,12.795L12.713,12.785C12.715,12.783 12.717,12.781 12.719,12.779C12.816,12.676 12.829,12.495 12.719,12.393ZM7.135,11.682C6.752,11.409 6.295,11.397 5.943,11.725C5.688,11.961 6.062,12.341 6.319,12.119L6.328,12.111C6.337,12.102 6.347,12.094 6.356,12.087C6.402,12.126 6.461,12.151 6.527,12.151C6.545,12.152 6.562,12.151 6.58,12.152L6.606,12.153L6.62,12.154L6.622,12.154L6.634,12.16C6.656,12.17 6.687,12.185 6.645,12.159C6.654,12.164 6.663,12.17 6.672,12.175L6.688,12.19C6.79,12.287 6.968,12.3 7.07,12.192C7.25,12.131 7.346,11.832 7.135,11.682ZM10.886,10.787L10.893,10.785C11.229,10.689 11.086,10.162 10.748,10.259C10.389,10.361 10.218,10.696 10.146,11.039C10.116,11.183 10.188,11.334 10.336,11.375C10.472,11.412 10.641,11.329 10.671,11.184C10.693,11.082 10.717,10.996 10.756,10.916L10.78,10.87C10.791,10.849 10.794,10.845 10.832,10.813C10.838,10.807 10.866,10.794 10.886,10.787ZM5.188,8.037L5.136,8.025C4.808,7.953 4.373,7.915 4.175,8.241C3.995,8.538 4.45,8.808 4.637,8.528C4.64,8.527 4.643,8.527 4.647,8.528L4.653,8.528L4.737,8.522C4.842,8.521 4.942,8.539 5.044,8.564C5.384,8.644 5.53,8.118 5.188,8.037ZM16.953,5.937C17.201,5.689 16.816,5.302 16.568,5.551C16.372,5.748 16.182,5.946 16.055,6.196C15.988,6.328 16.021,6.493 16.152,6.57C16.274,6.641 16.458,6.604 16.525,6.472C16.635,6.255 16.775,6.116 16.953,5.937ZM13.822,5.284C13.577,5.43 13.418,5.67 13.322,5.947C13.274,6.086 13.377,6.246 13.512,6.283C13.657,6.323 13.79,6.238 13.842,6.105L13.847,6.092C13.873,6.018 13.914,5.93 13.965,5.864C14.009,5.808 14.076,5.751 14.127,5.732C14.25,5.687 14.337,5.576 14.326,5.445C14.124,5.515 13.937,5.431 13.822,5.284ZM6.485,4.096C6.237,3.866 5.906,3.836 5.606,3.975C5.472,4.037 5.439,4.23 5.508,4.349C5.588,4.486 5.747,4.509 5.881,4.447C5.846,4.463 5.908,4.442 5.935,4.434C5.939,4.435 5.984,4.433 5.999,4.434L6.018,4.435C6.018,4.435 6.013,4.435 6.004,4.435C6.017,4.438 6.03,4.441 6.043,4.445L6.059,4.451C6.051,4.449 6.088,4.473 6.098,4.481L6.1,4.483C6.356,4.721 6.742,4.336 6.485,4.096Z"/>
                </g>
                <g id="FACE" transform="matrix(1,0,0,1,22.0432,19.6099)">
                    <path id="ðŸ–-Ink2" serif:id="ðŸ–-Ink" d="M12.286,14.016C12.523,13.603 13.232,13.67 13.34,14.152C13.56,15.129 12.379,16.031 11.482,16.054C10.59,16.076 9.59,15.328 9.719,14.382C9.751,14.149 10.067,14.177 10.175,14.324L10.217,14.38C10.51,14.768 10.897,15.171 11.442,15.076C11.667,15.037 11.872,14.898 12.008,14.719C12.173,14.503 12.155,14.245 12.286,14.016ZM6.617,6.868C6.738,6.835 6.86,6.848 6.967,6.893C7.206,6.936 7.405,7.133 7.476,7.357C7.481,7.376 7.487,7.396 7.494,7.415L7.505,7.443L7.476,7.371C7.489,7.442 7.548,7.516 7.569,7.587C7.595,7.675 7.601,7.774 7.592,7.87C7.668,7.871 7.744,7.874 7.82,7.88L7.893,7.887C8.303,7.924 8.753,7.993 8.996,8.343C9.133,8.539 9.005,8.892 8.754,8.93C8.368,8.988 8.036,8.778 7.651,8.736C7.287,8.696 6.907,8.718 6.548,8.783C5.807,8.917 5.126,9.213 4.404,9.399L4.306,9.424L4.306,9.423C4.182,9.453 4.042,9.283 4.164,9.184C4.743,8.715 5.483,8.335 6.213,8.104C6.107,7.937 6.074,7.717 6.146,7.538C6.158,7.501 6.172,7.465 6.186,7.429L6.217,7.355C6.22,7.32 6.227,7.286 6.237,7.252L6.238,7.242L6.239,7.242C6.293,7.068 6.435,6.917 6.617,6.868ZM13.997,6.895C14.155,6.739 14.378,6.762 14.543,6.885L14.565,6.902C14.72,6.97 14.849,7.119 14.934,7.257C15.022,7.4 15.08,7.547 15.082,7.704C15.465,7.706 15.832,7.819 16.113,8.124C16.204,8.222 16.266,8.374 16.216,8.508L16.186,8.587C16.092,8.839 15.667,8.984 15.523,8.688L15.516,8.673C15.363,8.321 14.775,8.358 14.462,8.394C14.244,8.419 14.029,8.473 13.818,8.533C13.744,8.554 13.671,8.577 13.597,8.6L13.524,8.624C13.484,8.636 13.28,8.745 13.407,8.719C13.442,8.713 13.467,8.762 13.432,8.778C13.281,8.849 13.12,8.707 13.13,8.547C13.147,8.269 13.595,8.116 13.811,8.02L13.824,8.014C13.906,7.977 13.993,7.941 14.082,7.907C14.032,7.833 13.99,7.752 13.956,7.664C13.923,7.581 13.901,7.5 13.889,7.412C13.878,7.369 13.878,7.325 13.889,7.282L13.891,7.27C13.885,7.241 13.882,7.212 13.883,7.182L13.881,7.171L13.883,7.171C13.887,7.067 13.929,6.962 13.997,6.895ZM11.469,9.858C12.077,10.043 13.08,10.548 12.763,11.327C12.321,12.042 11.148,11.516 10.58,11.285C10.069,11.118 9.803,11.824 10.297,12.037C14.377,13.629 14.362,9.427 11.617,9.489C11.315,9.496 11.306,9.796 11.469,9.858ZM6.071,4.379L6.175,4.349C6.713,4.195 7.263,3.929 7.742,4.344C7.93,4.507 7.968,4.845 7.834,5.048C7.528,5.511 7.074,5.441 6.579,5.48C6.203,5.51 5.832,5.619 5.48,5.755C5.193,5.867 4.927,6.024 4.675,6.199C4.428,6.371 4.26,6.64 4.006,6.795C3.913,6.852 3.806,6.793 3.773,6.701C3.654,6.374 3.854,5.968 4.023,5.689C4.229,5.35 4.543,5.072 4.88,4.862C5.249,4.632 5.657,4.499 6.071,4.379ZM13.921,4.027C14.832,4.027 15.708,4.527 16.218,5.259C16.391,5.508 16.264,5.876 16.015,6.02C15.737,6.18 15.439,6.065 15.255,5.834L15.244,5.82C14.952,5.437 14.576,5.134 14.129,4.938C13.911,4.842 13.671,4.764 13.435,4.724L13.359,4.711C13.252,4.694 13.128,4.677 13.032,4.693C12.98,4.7 12.933,4.717 12.889,4.743C12.91,4.788 12.856,4.843 12.805,4.815C12.579,4.693 12.607,4.474 12.794,4.304C13.058,4.064 13.58,4.027 13.921,4.027Z"/>
                </g>
            </g>
        </g>
    </g>
</svg>
