<?xml version="1.0" encoding="UTF-8" standalone="no"?>
<!DOCTYPE svg PUBLIC "-//W3C//DTD SVG 1.1//EN" "http://www.w3.org/Graphics/SVG/1.1/DTD/svg11.dtd">
<svg width="100%" height="100%" viewBox="0 0 51 75" version="1.1" xmlns="http://www.w3.org/2000/svg" xmlns:xlink="http://www.w3.org/1999/xlink" xml:space="preserve" xmlns:serif="http://www.serif.com/" style="fill-rule:evenodd;clip-rule:evenodd;stroke-linejoin:round;stroke-miterlimit:1.5;">
    <g transform="matrix(-1,0,0,1,51,0)">
        <g id="Introduction">
            <g id="avatar-boy-7">
                <g id="BODY" transform="matrix(0.669258,0,0,0.788009,5.62262,36.197)">
                    <path id="_--Skin" serif:id="âœ‹-Skin" d="M25.21,0.491C26.613,-0.482 31.17,0.251 33.048,0.491C34.035,0.617 34.618,1.89 35.136,3.825C37.841,3.166 41.39,2.542 43.939,4.328C44.727,5.01 44.874,6.171 43.966,6.819C43.67,7.018 43.099,7.186 43.009,7.358C42.644,8.282 42.236,9.504 42.301,10.487C43.462,20.808 45.79,31.158 47.427,41.413L47.47,41.801C47.662,43.546 47.818,45.605 46.625,46.994C45.824,47.669 44.683,47.576 43.703,47.771C34.468,49.001 25.142,47.825 15.868,48.2C14.288,48.289 12.699,48.403 11.115,48.415L11.115,48.397C11.285,48.395 11.456,48.393 11.627,48.389C11.452,43.262 11.091,38.142 10.974,33.012C10.937,31.396 10.927,29.778 10.959,28.161C10.965,27.834 10.453,27.834 10.447,28.161C10.436,28.698 10.431,29.234 10.429,29.771C10.045,29.472 9.619,29.235 9.21,28.968C8.933,28.788 8.676,29.228 8.951,29.407C9.437,29.724 9.953,29.99 10.374,30.394C10.391,30.41 10.409,30.423 10.427,30.433C10.436,35.587 10.791,40.737 11.017,45.884C11.05,46.646 11.08,47.407 11.107,48.169L11.115,48.415C9.401,48.428 7.691,48.32 6.004,47.929C5.719,48.324 5.055,48.402 4.718,47.893C4.549,47.7 4.515,47.373 4.253,47.3C4.183,47.245 4.292,47.206 4.341,47.232C2.033,40.657 4.14,28.405 6.001,21.669C6.815,18.196 8.772,14.981 8.975,11.385C8.997,9.691 7.774,7.65 9.324,6.288C9.096,5.044 10.279,4.007 11.474,3.925C12.945,-1.355 19.455,4.802 22.98,4.865C23.463,4.066 24.538,0.956 25.21,0.491ZM45.027,35.052C45.026,34.725 44.514,34.724 44.515,35.052C44.518,38.536 44.819,42.706 45.252,46.161C45.292,46.482 45.805,46.486 45.764,46.161C45.331,42.706 45.03,38.536 45.027,35.052ZM21.008,39.524C21.299,39.369 21.04,38.929 20.75,39.084C18.615,40.22 16.621,41.578 14.703,43.042C14.445,43.239 14.7,43.682 14.961,43.482C16.88,42.017 18.874,40.66 21.008,39.524ZM39.528,38.873C39.326,38.632 38.894,38.883 39.093,39.139C39.556,39.736 40.132,40.206 40.807,40.55C41.096,40.697 41.353,40.27 41.076,40.116L41.065,40.11C40.49,39.817 39.97,39.428 39.567,38.922L39.528,38.873ZM13.899,23.977C13.971,23.658 13.477,23.522 13.405,23.842C13.255,24.515 13.364,25.231 13.521,25.897L13.531,25.942L13.553,26.03C13.581,26.145 13.689,26.209 13.8,26.217C15.683,26.355 17.547,25.719 19.352,25.25L19.486,25.215L19.62,25.181C19.939,25.101 19.804,24.61 19.483,24.69L19.341,24.727C17.605,25.171 15.817,25.798 14.005,25.719L13.986,25.636C13.867,25.109 13.783,24.545 13.89,24.019L13.899,23.977ZM42.815,22.737C42.817,22.409 42.305,22.409 42.303,22.737L42.302,22.801C42.296,23.318 42.253,24.051 41.744,24.325C41.291,24.568 40.69,24.386 40.21,24.199L40.113,24.161L39.972,24.104C39.667,23.98 39.534,24.472 39.836,24.595L39.911,24.625C40.563,24.884 41.401,25.131 42.045,24.74C42.675,24.357 42.796,23.546 42.813,22.864L42.814,22.812L42.815,22.737Z" style="fill:white;"/>
                    <path id="ðŸ§¥-Jacket" d="M41.392,3.104L41.445,3.114L42.894,3.382L41.424,3.492C41.356,3.497 41.288,3.503 41.219,3.511C41.078,3.526 40.94,3.546 40.803,3.569L40.715,3.585L40.753,3.583C41.29,3.558 41.827,3.602 42.357,3.712C42.879,3.821 43.343,3.969 43.758,4.171L43.807,4.195L43.871,4.228L43.902,4.243L43.926,4.254C44.04,4.306 44.086,4.333 44.134,4.398C44.229,4.526 44.189,4.671 44.066,4.781C43.974,4.863 43.855,4.904 43.699,4.928C43.676,4.931 43.653,4.934 43.627,4.937L43.489,4.95C43.232,4.977 43.063,5.115 43.037,5.33C43.012,5.54 43.136,5.753 43.314,5.805L43.327,5.809L43.344,5.813C43.366,5.818 43.387,5.823 43.407,5.831L43.421,5.836L43.453,5.849L43.455,5.85L43.456,5.85L43.486,5.863L43.494,5.878L43.499,5.882C43.517,5.896 43.525,5.907 43.537,5.929L43.547,5.949L43.556,5.979L43.558,5.988L43.56,5.998L43.568,6.051L43.57,6.069L43.571,6.081L43.571,6.897L43.361,6.479L43.354,6.485C43.251,6.566 43.121,6.633 42.954,6.698L42.921,6.712L42.833,6.744L42.66,6.805L42.62,6.82L42.584,6.834C42.556,6.845 42.532,6.855 42.51,6.865C42.477,6.88 42.448,6.897 42.422,6.916L42.408,6.927L42.324,6.996L42.119,6.925C42.095,6.916 42.073,6.908 42.052,6.901L41.853,6.827L41.682,6.765C41.46,6.684 41.261,6.614 41.068,6.549L40.833,6.472L40.661,6.416C40.602,6.397 40.539,6.377 40.47,6.355L39.501,6.051L39.314,5.991C39.21,5.957 39.115,5.927 39.018,5.894L38.837,5.834L38.661,5.774C38.091,5.577 37.545,5.366 36.573,4.976L36.784,5.095L36.94,5.183C37.128,5.288 37.334,5.402 37.564,5.529L38.61,6.103L38.819,6.219L39.288,6.481L39.535,6.619C39.979,6.863 40.293,7.029 40.629,7.191C40.888,7.317 41.154,7.438 41.432,7.555L41.536,7.599L41.697,7.666L41.823,7.72L41.909,7.758L41.965,7.782C42.268,7.908 42.445,7.94 42.643,7.889L42.656,7.885L42.67,7.88L43.054,7.734L42.92,8.121C42.905,8.165 42.89,8.209 42.875,8.254L42.848,8.336L42.826,8.379C42.698,8.634 42.57,8.896 42.443,9.17L42.374,9.318L42.334,9.347C42.32,9.358 42.307,9.374 42.296,9.395C42.245,9.494 42.195,9.592 42.148,9.69L42.098,9.795L42.046,9.906C41.82,10.389 41.615,10.886 41.348,11.579L40.998,12.503L40.945,12.641C40.515,13.77 40.109,14.902 39.728,16.036C38.975,18.275 38.309,20.546 37.732,22.844C36.573,27.459 35.8,32.145 35.421,36.86C35.349,37.749 35.298,38.634 35.266,39.515L35.258,39.744L35.234,39.947C35.215,40.106 35.197,40.261 35.18,40.413L35.17,40.504C35.047,41.626 34.988,42.509 34.994,43.355C34.997,43.775 35.01,44.166 35.034,44.542L35.039,44.629L35.135,46.014L34.667,44.706C34.634,44.613 34.602,44.519 34.566,44.41L34.52,44.27L34.498,44.2C34.479,44.135 34.46,44.069 34.436,43.981L34.354,43.67L34.333,43.596C34.312,43.519 34.294,43.459 34.273,43.396L34.248,43.322L34.23,43.271C34.197,43.178 34.158,43.08 34.096,42.931L34.001,42.701L33.982,42.654L33.982,42.617L33.985,42.494C33.992,42.199 33.99,41.889 33.981,41.541L33.973,41.269L33.965,41.035C33.964,41.011 33.963,40.986 33.962,40.961L33.918,39.91L33.833,37.576L33.82,37.182C33.811,36.889 33.803,36.623 33.796,36.365L33.79,36.128L33.789,36.048C33.737,33.733 33.756,31.351 33.842,28.873L33.851,28.633L33.859,28.397C34.004,24.549 34.253,21.273 34.846,14.824L34.944,13.757L35.092,12.178L35.125,11.807C35.194,11.053 35.243,10.464 35.285,9.888L35.303,9.631C35.373,8.612 35.415,7.554 35.435,6.392L35.439,6.183L35.346,6.503L35.266,5.441C35.242,5.12 35.201,4.823 35.141,4.546L35.128,4.487L35.102,4.374L35.082,4.299C35.059,4.215 35.119,3.979 35.263,3.592L35.385,3.563L35.532,3.528C37.881,2.983 39.71,2.804 41.392,3.104ZM18.24,2.16L18.311,2.179L18.355,2.192C18.715,2.294 19.096,2.44 19.536,2.634L19.662,2.69C19.718,2.715 20.044,2.843 20.173,2.898L20.195,2.907C20.672,3.115 20.957,3.334 21.019,3.656L21.023,3.678C21.163,3.811 21.324,3.938 21.508,4.061L21.554,4.091L21.598,4.119C21.795,4.244 21.982,4.355 22.158,4.45L22.206,4.475L22.239,4.493L22.556,4.601L22.947,4.736L23.026,4.762C23.434,4.901 23.675,4.973 23.963,5.044L24.125,5.083C24.739,5.231 25.282,5.346 25.806,5.437C26.34,5.528 26.888,5.608 27.454,5.679L27.645,5.702C27.834,5.724 28.018,5.741 28.306,5.763L28.772,5.799L29.087,5.824L28.919,6.091C28.48,6.788 28.142,7.565 27.763,8.664L27.72,8.787C27.377,9.797 27.135,10.707 26.718,12.453C26.088,15.103 25.569,17.777 25.163,20.466C24.883,22.32 24.656,24.169 24.483,26.012L24.459,26.275L24.076,26.275C24.026,25.708 23.963,25.125 23.888,24.512C23.652,22.602 23.311,20.727 22.866,18.898L22.824,18.726L22.806,18.653L22.844,18.587C22.867,18.547 22.876,18.502 22.869,18.463C22.823,18.175 22.737,17.912 22.575,17.514L22.409,17.116L22.371,17.024L22.369,17.015C22.193,16.401 22.005,15.794 21.806,15.194L21.739,14.994L21.736,14.985C21.447,13.957 21.162,13.108 20.828,12.313C20.567,11.692 20.269,11.083 19.938,10.488L19.875,10.377L19.87,10.366C19.45,9.498 19.003,8.678 18.529,7.909L18.453,7.787L18.446,7.767C18.43,7.72 18.405,7.679 18.373,7.644L18.361,7.631L18.345,7.616L18.31,7.562L18.032,7.492C17.251,7.298 16.438,7.281 15.531,7.416L15.47,7.425L15.409,7.435C14.743,7.542 14.171,7.689 13.131,8.003L12.108,8.314L11.962,8.358L11.825,8.398C11.326,8.542 10.89,8.651 10.466,8.733L10.408,8.744L10.251,8.773L10.174,8.787C9.706,8.87 9.379,8.892 9.07,8.834L9.042,8.828L9.008,8.82L8.977,8.813C8.616,8.717 8.483,8.457 8.649,8.095C8.786,7.795 9.084,7.582 9.523,7.396L9.586,7.369L9.602,7.363L9.619,7.359C9.723,7.337 9.823,7.298 9.918,7.24C10.109,7.124 10.19,6.885 10.103,6.688C10.013,6.486 9.768,6.353 9.598,6.421L9.469,6.472L9.328,6.527L9.241,6.404C9.236,6.397 9.232,6.39 9.227,6.382L9.221,6.37L9.216,6.361L9.206,6.352L9.195,6.341C9.169,6.313 9.155,6.282 9.147,6.25C9.145,6.238 9.143,6.227 9.143,6.216L9.142,6.205C9.142,6.182 9.144,6.164 9.151,6.101C9.182,5.826 9.362,5.604 9.676,5.349L9.726,5.309L9.741,5.297C10.341,4.825 11.101,4.582 11.747,4.731C11.778,4.738 11.809,4.746 11.841,4.755L11.873,4.765L11.91,4.777C12.109,4.846 12.264,4.762 12.336,4.574C12.409,4.385 12.36,4.176 12.206,4.063L12.192,4.053L12.145,4.022L12.09,3.985L12.029,3.942L12.002,3.922L11.961,3.892C11.652,3.66 11.482,3.443 11.532,3.186L11.535,3.17L11.54,3.15L11.548,3.132L11.574,3.077L11.601,3.022L11.609,3.007L11.619,2.993C11.725,2.851 11.904,2.742 12.159,2.637L12.189,2.625C12.295,2.583 12.593,2.479 12.638,2.462L12.641,2.46C13.524,2.104 14.483,1.899 15.447,1.857C16.393,1.816 17.342,1.918 18.24,2.16Z" style="fill:white;"/>
                    <path id="ðŸ‘•-Top" d="M34.769,11.966L34.757,12.053L34.746,12.139C34.433,14.621 34.168,17.744 33.938,20.234C33.478,25.198 33.196,30.182 33.236,35.168C33.246,36.458 33.293,37.743 33.352,39.031L33.365,39.307C33.433,40.71 33.536,42.192 33.929,43.546C33.972,43.695 34.069,43.781 34.18,43.812C34.185,43.97 34.194,44.128 34.205,44.285L34.213,44.402C34.258,45.035 34.388,46.351 34.666,46.925C34.937,47.485 35.388,47.929 35.964,48.173C36.125,48.242 36.289,48.29 36.455,48.325C32.961,48.396 28.371,48.284 24.871,48.2C25.235,48.143 25.441,47.857 25.489,47.492C25.585,46.76 25.404,46.004 24.996,45.389C24.954,45.325 24.904,45.268 24.848,45.22L24.858,44.815C24.865,44.511 24.868,44.208 24.851,43.904C24.814,43.235 24.758,42.565 24.709,41.896C24.611,40.557 24.535,39.215 24.504,37.872C24.443,35.187 24.488,32.499 24.641,29.818C24.947,24.46 25.661,18.501 26.829,13.261C26.914,12.879 27,12.497 27.089,12.116C27.998,12.585 29.614,12.754 30.607,12.76C31.852,12.768 33.645,12.483 34.769,11.966Z" style="fill:white;fill-rule:nonzero;"/>
                    <path id="ðŸ–-Ink" d="M45.243,46.18C44.81,42.725 44.509,38.554 44.506,35.07C44.505,34.742 45.018,34.743 45.018,35.07C45.021,38.554 45.322,42.725 45.755,46.18C45.796,46.504 45.283,46.5 45.243,46.18M42.036,24.758C41.367,25.165 40.489,24.883 39.827,24.613C39.525,24.491 39.658,23.998 39.963,24.122C40.467,24.327 41.203,24.629 41.735,24.343C42.266,24.058 42.29,23.273 42.294,22.755C42.296,22.427 42.808,22.427 42.806,22.755C42.8,23.46 42.705,24.351 42.036,24.758M40.798,40.568C40.123,40.224 39.547,39.754 39.084,39.157C38.882,38.898 39.328,38.645 39.526,38.9C39.934,39.426 40.465,39.827 41.057,40.129C41.35,40.278 41.091,40.717 40.798,40.568M37.554,22.802C36.396,27.414 35.619,32.11 35.238,36.849C35.161,37.811 35.106,38.772 35.076,39.734C35.045,39.984 35.016,40.236 34.988,40.487C34.884,41.438 34.804,42.404 34.811,43.361C34.814,43.79 34.827,44.218 34.857,44.646C34.806,44.503 34.758,44.359 34.712,44.216C34.618,43.923 34.556,43.619 34.46,43.327C34.381,43.086 34.278,42.855 34.183,42.621L34.183,42.621C34.212,41.664 34.146,40.699 34.113,39.747C34.07,38.514 34.017,37.282 33.989,36.048C33.934,33.58 33.962,31.111 34.052,28.644C34.231,23.675 34.686,18.729 35.144,13.779C35.272,12.403 35.409,11.027 35.503,9.648C35.599,8.254 35.637,6.858 35.648,5.461C35.649,5.36 35.495,5.334 35.467,5.431C35.442,5.1 35.398,4.769 35.324,4.449C36.428,5.149 37.593,5.754 38.734,6.39C39.335,6.725 39.934,7.066 40.553,7.367C40.894,7.532 41.237,7.684 41.588,7.828C41.952,7.977 42.299,8.182 42.699,8.078C42.734,8.069 42.767,8.057 42.798,8.04C42.753,8.126 42.707,8.211 42.664,8.298C42.513,8.596 42.369,8.896 42.229,9.198C42.192,9.226 42.159,9.263 42.134,9.312C42.066,9.444 42,9.577 41.936,9.712C41.923,9.7 41.91,9.688 41.897,9.675C41.844,9.625 41.769,9.701 41.817,9.756C41.839,9.78 41.86,9.805 41.881,9.829C41.463,10.722 41.124,11.661 40.775,12.577C40.345,13.703 39.938,14.838 39.555,15.98C38.799,18.227 38.132,20.503 37.554,22.802M20.999,39.542C18.865,40.678 16.871,42.036 14.952,43.5C14.691,43.7 14.436,43.258 14.694,43.061C16.612,41.596 18.606,40.238 20.741,39.102C21.031,38.948 21.29,39.387 20.999,39.542M13.791,26.235C13.68,26.227 13.572,26.163 13.544,26.048C13.371,25.345 13.236,24.578 13.396,23.86C13.468,23.54 13.962,23.676 13.89,23.996C13.763,24.562 13.864,25.173 13.996,25.738C15.857,25.819 17.694,25.155 19.474,24.709C19.795,24.629 19.93,25.12 19.611,25.2C17.722,25.673 15.768,26.381 13.791,26.235M50.847,45.004C50.849,45 50.851,44.995 50.852,44.99C50.961,44.661 50.964,44.278 50.976,43.932C50.997,43.318 50.975,42.702 50.919,42.089C50.801,40.799 50.548,39.53 50.245,38.272C49.645,35.78 48.798,33.356 48.338,30.83C47.434,25.873 47.649,20.711 45.876,15.929C45.14,13.941 44.087,12.03 42.657,10.45C42.762,10.135 42.863,9.819 42.963,9.501C43.136,8.949 43.313,8.379 43.42,7.81C43.423,7.794 43.426,7.779 43.428,7.763C44.037,7.502 44.59,7.01 44.685,6.356C44.726,6.073 44.679,5.76 44.556,5.487C44.807,5.257 44.968,4.958 44.93,4.557C44.858,3.802 43.971,3.608 43.354,3.46C42.653,3.293 41.925,3.247 41.207,3.325C40.845,3.365 40.487,3.431 40.136,3.53C39.832,3.616 39.501,3.705 39.258,3.912C39.229,3.936 39.252,3.983 39.287,3.983C39.781,3.982 40.272,3.801 40.771,3.778C41.293,3.754 41.814,3.796 42.326,3.903C42.827,4.008 43.326,4.16 43.781,4.396C43.909,4.463 44.097,4.508 43.946,4.643C43.836,4.742 43.62,4.75 43.478,4.765C43.165,4.797 42.895,4.979 42.856,5.311C42.82,5.605 42.996,5.937 43.31,6.003C43.327,6.007 43.343,6.011 43.358,6.017C43.366,6.033 43.379,6.046 43.377,6.025C43.377,6.025 43.378,6.024 43.378,6.025C43.386,6.071 43.388,6.09 43.388,6.093C43.386,6.089 43.383,6.073 43.381,6.06C43.382,6.072 43.386,6.09 43.391,6.118C43.384,6.088 43.39,6.161 43.384,6.172C43.218,6.478 42.726,6.564 42.439,6.695C42.383,6.721 42.335,6.751 42.294,6.785C42.226,6.761 42.157,6.737 42.088,6.711C41.744,6.583 41.401,6.459 41.052,6.344C40.38,6.121 39.7,5.922 39.028,5.698C37.755,5.274 36.525,4.739 35.276,4.254C35.236,4.108 35.19,3.964 35.136,3.825C35.125,3.796 35.073,3.786 35.067,3.825C35.048,3.948 35.032,4.073 35.019,4.197C35.014,4.209 35.013,4.221 35.016,4.234C34.943,4.959 34.962,5.702 34.925,6.426C34.879,7.33 34.751,8.227 34.714,9.131L34.714,9.148C34.58,9.92 34.458,10.694 34.348,11.471C34.224,11.433 34.083,11.441 33.938,11.518C32.915,12.06 31.766,12.363 30.609,12.43C30.027,12.464 29.45,12.445 28.871,12.378C28.49,12.335 28.115,12.256 27.739,12.181C27.937,11.357 28.149,10.536 28.389,9.724C28.587,9.057 28.807,8.393 29.079,7.751C29.354,7.102 29.696,6.483 30.014,5.854C30.16,5.563 29.988,5.119 29.607,5.149C29.494,5.158 29.381,5.165 29.268,5.17C28.166,5.222 27.019,5.1 25.931,4.991C24.693,4.867 23.437,4.737 22.21,4.535C22.119,4.52 22.082,4.643 22.171,4.673C22.754,4.867 23.329,5.087 23.926,5.233C24.541,5.384 25.159,5.521 25.783,5.629C26.38,5.732 26.98,5.817 27.581,5.89C27.974,5.938 28.371,5.962 28.766,5.994C28.234,6.839 27.867,7.792 27.547,8.73C27.137,9.936 26.836,11.176 26.541,12.414C25.909,15.066 25.389,17.746 24.982,20.442C24.69,22.375 24.454,24.316 24.276,26.262C24.224,25.671 24.16,25.082 24.088,24.493C23.846,22.539 23.492,20.597 23.02,18.685C23.062,18.611 23.082,18.523 23.068,18.437C22.983,17.911 22.759,17.454 22.562,16.966C22.367,16.286 22.156,15.609 21.93,14.938C21.672,14.023 21.384,13.123 21.014,12.244C20.732,11.574 20.41,10.921 20.052,10.288C19.624,9.402 19.153,8.536 18.636,7.709C18.61,7.632 18.566,7.56 18.504,7.499C18.41,7.352 18.314,7.206 18.217,7.061C18.154,6.967 17.972,7.024 18.02,7.144C18.042,7.2 18.065,7.256 18.088,7.312C15.984,6.788 13.921,7.588 11.917,8.179C11.411,8.328 10.9,8.463 10.382,8.561C9.974,8.637 9.499,8.73 9.092,8.646C8.82,8.59 8.7,8.467 8.833,8.178C8.97,7.879 9.343,7.682 9.668,7.55C9.79,7.524 9.91,7.478 10.026,7.408C10.296,7.245 10.415,6.905 10.287,6.615C10.172,6.354 9.834,6.129 9.535,6.248C9.492,6.265 9.45,6.282 9.407,6.298C9.403,6.292 9.398,6.283 9.393,6.27C9.35,6.154 9.332,6.293 9.35,6.127C9.381,5.854 9.671,5.607 9.87,5.451C10.363,5.062 11.076,4.774 11.713,4.921C11.761,4.932 11.809,4.946 11.856,4.962C12.513,5.188 12.832,4.249 12.308,3.899C12.276,3.878 12.235,3.851 12.191,3.82C11.973,3.669 11.653,3.415 11.741,3.186C11.848,2.902 12.482,2.738 12.722,2.641C13.59,2.291 14.528,2.093 15.464,2.052C16.406,2.011 17.359,2.115 18.268,2.367C18.713,2.491 19.171,2.678 19.592,2.868C19.97,3.038 20.794,3.262 20.846,3.738C20.858,3.844 21.008,3.879 21.041,3.765C21.299,2.851 20.298,2.261 19.637,1.884C19.204,1.635 18.712,1.481 18.236,1.329C17.781,1.182 17.315,1.075 16.84,1.01C15.821,0.871 14.789,0.889 13.777,1.084C12.856,1.261 11.831,1.564 11.087,2.153C10.63,2.515 10.423,3.09 10.607,3.651C10.613,3.67 10.62,3.689 10.626,3.707C9.804,3.854 9.025,4.322 8.505,4.975C8.077,5.511 7.853,6.258 8.236,6.882C8.22,6.893 8.204,6.905 8.189,6.918C7.824,7.208 7.552,7.63 7.472,8.09C7.314,8.999 7.866,9.635 8.639,9.878C8.447,10.064 8.263,10.261 8.084,10.458C7.681,10.9 7.296,11.382 6.957,11.873C6.27,12.869 5.682,13.952 5.168,15.044C4.111,17.287 3.445,19.7 3.091,22.147C2.913,23.381 2.794,24.62 2.749,25.865C2.696,27.284 2.75,28.704 2.722,30.123C2.695,31.488 2.543,32.819 2.237,34.149C1.943,35.421 1.551,36.667 1.197,37.923C0.797,39.337 0.356,40.744 0.145,42.202C0.038,42.944 -0.039,43.688 0.021,44.438C0.081,45.202 0.36,45.856 0.617,46.567C0.683,46.748 0.882,46.821 1.041,46.782C1.077,47.123 1.206,47.455 1.399,47.743C1.808,48.352 2.438,48.741 3.159,48.882C3.972,49.041 4.81,49.003 5.633,48.974C6.526,48.942 7.42,48.913 8.313,48.877C9.248,48.838 10.182,48.799 11.117,48.759C11.086,47.807 11.05,46.854 11.008,45.902C10.782,40.755 10.428,35.605 10.418,30.452C10.4,30.441 10.382,30.429 10.365,30.412C9.944,30.008 9.428,29.742 8.942,29.426C8.667,29.247 8.924,28.806 9.201,28.986C9.61,29.253 10.036,29.49 10.42,29.789C10.422,29.253 10.427,28.716 10.438,28.18C10.444,27.852 10.956,27.852 10.95,28.18C10.918,29.797 10.928,31.414 10.965,33.031C11.084,38.27 11.459,43.5 11.629,48.737C14.139,48.631 16.648,48.523 19.158,48.432C21.199,48.359 23.24,48.285 25.281,48.211C25.71,48.196 25.95,47.891 26.003,47.494C26.099,46.762 25.918,46.005 25.51,45.39C25.468,45.326 25.418,45.27 25.362,45.221C25.372,44.783 25.39,44.344 25.365,43.906C25.328,43.236 25.272,42.567 25.223,41.898C25.125,40.558 25.048,39.216 25.018,37.874C24.957,35.188 25.002,32.501 25.155,29.819C25.461,24.462 26.175,19.139 27.343,13.899C27.428,13.517 27.514,13.135 27.603,12.754C28.511,13.223 29.616,13.392 30.609,13.398C31.853,13.406 33.07,13.121 34.194,12.604C34.187,12.662 34.179,12.719 34.172,12.777C33.858,15.259 33.594,17.745 33.363,20.235C32.904,25.199 32.622,30.184 32.661,35.17C32.672,36.551 32.725,37.928 32.791,39.308C32.858,40.711 32.961,42.194 33.355,43.547C33.398,43.697 33.495,43.783 33.606,43.814C33.612,44.011 33.625,44.209 33.639,44.404C33.684,45.037 33.814,46.352 34.092,46.926C34.363,47.486 34.814,47.93 35.389,48.175C36.12,48.485 36.911,48.395 37.683,48.346C41.04,48.128 44.394,47.837 47.749,47.581C48.216,47.545 48.683,47.51 49.15,47.474C49.565,47.442 49.995,47.414 50.364,47.2C50.783,46.956 51.11,45.759 50.965,45.264C50.939,45.174 50.899,45.085 50.847,45.004"/>
                </g>
                <g id="HEAD" transform="matrix(1,0,0,1,13.9987,7.1474)">
                    <path id="_--Skin1" serif:id="âœ‹-Skin" d="M24.424,8.342C24.402,7.568 23.271,7.246 22.944,8.013C22.924,8.034 22.902,8.053 22.881,8.071C22.983,7.984 22.769,8.128 22.734,8.146C22.705,8.161 22.674,8.175 22.644,8.189C22.434,6.228 21.72,4.114 19.875,3.129C17.302,1.888 14.329,1.645 11.507,1.769C10.077,1.853 8.426,2.08 7.156,1.361C6.76,1.136 6.442,0.783 5.995,0.645C4.583,0.265 3.943,1.707 4.135,2.894C3.533,2.899 2.935,3.231 2.675,3.777C2.523,4.1 2.525,4.449 2.394,4.774C1.99,5.597 1.412,6.188 1.739,7.186C1.164,7.836 1.492,8.821 1.955,9.444C2.184,9.768 2.457,10.079 2.625,10.442C2.788,10.789 2.542,11.201 2.405,11.53C1.394,13.916 1.452,16.543 1.996,19.032C0.904,19.503 0.576,20.977 1.288,21.905C1.533,22.233 1.832,22.355 2.171,22.556C2.6,22.791 2.25,23.732 2.387,24.186C2.574,25.296 3.589,25.979 4.592,25.259C5.229,25.163 5.743,27.007 6.205,27.469C6.49,27.842 6.806,28.177 7.15,28.486C8.175,31.11 13.426,32.44 16.022,32.289C18.74,32.005 20.574,29.708 22.102,27.669C22.886,26.582 23.396,25.366 23.581,24.04C23.768,22.707 23.686,21.371 23.56,20.037C23.295,17.201 22.878,13.116 22.608,10.25C23.583,10.17 24.454,9.345 24.424,8.342Z" style="fill:white;"/>
                    <path id="ðŸ’ˆ-Hair" d="M5.004,1.022C5.193,0.836 5.503,1.027 5.708,1.176L5.753,1.21L5.883,1.308C6.178,1.534 6.454,1.78 6.772,1.975C7.119,2.189 7.496,2.358 7.88,2.498C8.623,2.768 9.422,2.889 10.21,2.927C13.432,3.084 17.184,1.398 20.109,3.411C20.802,3.888 21.281,4.585 21.527,5.383C21.806,6.282 21.711,7.214 21.938,8.116C22.037,8.508 22.719,8.563 22.795,8.132L22.8,8.099L22.859,8.062L22.883,8.048C22.907,8.034 22.918,8.03 22.897,8.049L22.892,8.053L22.902,8.045C22.909,8.039 22.916,8.033 22.923,8.026L22.944,8.006C23.089,7.665 23.393,7.539 23.688,7.572L23.68,7.593L23.592,7.818L23.564,7.889C23.46,8.146 23.347,8.391 23.15,8.612C22.872,8.925 22.527,9.179 22.137,9.336C22.057,9.369 22.069,9.477 22.157,9.485C23.028,9.572 24.008,9.046 24.417,8.248C24.421,8.276 24.423,8.305 24.424,8.335C24.427,8.432 24.421,8.527 24.408,8.621C24.36,8.638 24.313,8.665 24.269,8.701C23.987,8.935 23.848,9.317 23.582,9.577C23.304,9.851 22.962,10.104 22.591,10.231C22.585,10.233 22.58,10.236 22.576,10.239C22.548,10.133 22.518,10.028 22.484,9.925C22.471,9.884 22.417,9.894 22.413,9.934C22.405,10.006 21.384,9.284 20.598,9.4C19.12,9.62 18.779,10.479 16.656,10.352C15.619,10.29 13.43,9.324 11.516,9.251C9.779,9.185 6.674,10.172 5.855,10.74C5.43,11.036 6.632,12.012 6.414,12.455C5.796,13.714 6.047,15.379 5.401,16.374L5.376,16.411C4.962,17.016 5.22,18.626 5.059,19.122C4.768,20.018 4.287,19.625 4.359,19.745C4.382,19.783 4.444,19.759 4.432,19.715C4.233,18.996 3.69,18.454 2.999,18.256C3.029,18.086 2.974,17.872 2.868,17.732L2.824,17.53L2.784,17.34C2.692,16.899 2.609,16.458 2.564,16.004C2.497,15.324 2.495,14.639 2.539,13.957C2.597,13.061 2.782,12.198 2.986,11.335L3.008,11.243L3.168,10.572C3.569,10.685 3.98,10.757 4.38,10.793C4.845,10.834 5.306,10.83 5.763,10.793C6.168,11.889 6.153,13.136 5.652,14.205C5.066,15.456 3.631,16.652 4.025,18.169C4.197,18.83 5.202,18.695 5.226,18.027L5.226,18.007C5.23,17.347 5.455,16.804 5.753,16.237L5.794,16.159L5.862,16.033C6.219,15.369 6.521,14.714 6.621,13.96C6.767,12.863 6.538,11.731 5.993,10.772C7.936,10.571 9.818,9.805 11.715,9.394L11.802,9.375L11.89,9.357C13.292,9.076 14.837,9.043 16.108,9.777C16.133,9.791 16.152,9.756 16.13,9.74C14.285,8.416 11.896,8.604 9.78,9.071L9.658,9.098L9.539,9.125C7.582,9.575 5.532,10.236 3.532,9.654C3.012,9.502 2.507,9.254 2.1,8.894L2.066,8.864C1.894,8.709 1.698,8.509 1.665,8.275C1.653,8.192 1.657,8.135 1.706,8.07C1.757,8.002 1.846,8.002 1.794,7.978C2.394,8.265 2.907,7.439 2.344,7.082L2.305,7.057C1.585,6.603 1.944,5.57 2.77,5.575L2.813,5.576C3.28,5.577 3.424,5.027 3.172,4.706L3.148,4.676C2.682,4.079 3.466,3.359 4.076,3.697L4.109,3.716C4.398,3.875 4.703,3.698 4.812,3.416C5.047,2.813 4.927,2.19 4.913,1.565L4.912,1.524L4.911,1.456L4.911,1.403L4.912,1.367C4.915,1.236 4.932,1.093 5.004,1.022ZM22.607,10.325L22.616,10.326L22.636,10.327L22.653,10.448L22.631,10.387L22.607,10.325ZM2.624,10.426L2.602,10.381L2.672,10.41L2.638,10.457L2.624,10.426ZM15.373,6.933C15.325,6.919 15.29,6.994 15.338,7.016C16.535,7.561 17.442,8.43 18.151,9.519C18.218,9.623 18.319,9.653 18.436,9.635C18.493,9.626 18.525,9.598 18.556,9.56L18.563,9.551L18.587,9.519C18.637,9.45 18.631,9.336 18.587,9.266C17.867,8.123 16.664,7.3 15.373,6.933ZM18.222,6.576C18.169,6.576 18.141,6.656 18.181,6.69C18.525,6.981 18.861,7.304 19.105,7.685C19.223,7.87 19.322,8.067 19.394,8.274C19.472,8.501 19.497,8.736 19.609,8.95C19.796,9.309 20.297,9.108 20.322,8.757C20.36,8.228 19.916,7.634 19.564,7.273C19.207,6.907 18.769,6.655 18.264,6.581L18.229,6.576L18.222,6.576ZM5.03,6.162C4.883,6.125 4.763,6.311 4.879,6.42C5.512,7.021 6.369,7.3 7.221,7.421L7.264,7.427C8.063,7.536 9.224,7.598 9.826,6.952C9.953,6.815 9.913,6.553 9.708,6.511C9.428,6.453 9.141,6.474 8.857,6.509L8.776,6.519L8.574,6.546C8.176,6.598 7.776,6.629 7.375,6.617C6.57,6.594 5.804,6.357 5.03,6.162ZM18.972,4.251C18.888,4.218 18.799,4.334 18.852,4.407C19.094,4.742 19.385,5.035 19.634,5.364C19.883,5.695 20.092,6.043 20.387,6.338C20.545,6.495 20.815,6.335 20.759,6.122C20.547,5.316 19.741,4.546 18.972,4.251ZM6.341,4.614C6.253,4.583 6.191,4.705 6.252,4.766C7.069,5.578 8.539,6.003 9.621,5.534C9.865,5.429 9.715,5.09 9.496,5.076C8.955,5.043 8.411,5.105 7.872,5.023C7.346,4.943 6.842,4.791 6.341,4.614ZM7.715,3.526C7.598,3.478 7.549,3.652 7.635,3.715C8.097,4.055 8.664,4.202 9.23,4.08C9.414,4.04 9.374,3.744 9.185,3.752C8.674,3.772 8.191,3.724 7.715,3.526ZM11.507,1.761C12.207,1.731 12.917,1.722 13.627,1.747L13.312,1.788L13.102,1.815C12.296,1.919 11.489,2.006 10.675,2.003C10.125,2 9.576,1.956 9.039,1.848C9.862,1.898 10.718,1.808 11.507,1.761Z" style="fill:white;"/>
                    <path id="Fill-4" d="M3.206,6.652C3.205,6.658 3.207,6.663 3.208,6.669C3.209,6.667 3.209,6.666 3.209,6.664C3.208,6.659 3.207,6.656 3.206,6.652" style="fill:rgb(79,102,175);"/>
                    <path id="Fill-6" d="M3.21,6.699C3.205,6.693 3.197,6.689 3.189,6.683C3.189,6.683 3.189,6.683 3.189,6.684C3.196,6.688 3.203,6.694 3.21,6.699" style="fill:rgb(79,102,175);"/>
                    <path id="ðŸ–-Ink1" serif:id="ðŸ–-Ink" d="M24.269,8.708C24.589,8.444 25.093,8.687 24.985,9.123C24.867,9.597 24.356,9.921 23.934,10.116C23.5,10.317 23.078,10.356 22.604,10.334L22.598,10.332C22.73,10.857 22.804,11.402 22.905,11.93C23.032,12.6 23.158,13.27 23.282,13.94C23.401,14.588 23.553,15.236 23.644,15.887C23.737,16.545 23.826,17.202 23.917,17.86C24.069,18.958 24.192,20.061 24.321,21.162L24.383,21.683C24.513,22.786 24.617,23.891 24.371,24.989C24.141,26.018 23.623,26.978 23.022,27.837C22.433,28.678 21.775,29.486 21.053,30.218C19.66,31.629 17.942,32.759 15.928,32.968C15.061,33.059 14.135,32.958 13.319,32.644L13.265,32.623C12.44,32.299 11.429,31.744 11.215,30.833C11.083,30.274 11.661,29.838 12.169,30.103C12.404,30.226 12.581,30.366 12.774,30.542L12.808,30.574C12.966,30.719 13.026,30.764 13.208,30.878C13.582,31.112 13.861,31.222 14.285,31.329C15.067,31.524 15.911,31.493 16.704,31.262C18.389,30.771 19.696,29.489 20.815,28.203C21.423,27.505 22,26.773 22.445,25.96C22.912,25.106 23.128,24.21 23.115,23.239C23.1,22.143 22.948,21.043 22.848,19.952C22.746,18.84 22.652,17.729 22.569,16.615C22.492,15.571 22.484,14.522 22.457,13.475L22.452,13.279C22.436,12.723 22.425,12.166 22.412,11.61C22.4,11.056 22.355,10.494 22.413,9.942C22.417,9.902 22.471,9.892 22.485,9.932C22.518,10.036 22.548,10.141 22.576,10.246C22.58,10.243 22.585,10.24 22.591,10.238C22.962,10.111 23.304,9.858 23.582,9.585C23.848,9.324 23.987,8.942 24.269,8.708ZM3.965,0.939C4.198,-0.014 5.247,-0.226 6.023,0.232C6.396,0.453 6.695,0.771 7.044,1.024C7.39,1.276 7.773,1.478 8.177,1.62C8.98,1.904 9.827,2.007 10.675,2.01C12.74,2.019 14.763,1.442 16.831,1.506C18.431,1.556 20.13,2.027 21.291,3.178C21.916,3.798 22.319,4.595 22.535,5.442C22.636,5.837 22.711,6.242 22.771,6.647L22.785,6.748C22.819,6.984 22.872,7.234 22.877,7.473C22.881,7.687 22.827,7.912 22.797,8.124C22.735,8.571 22.039,8.52 21.939,8.124C21.711,7.221 21.806,6.29 21.528,5.39C21.281,4.593 20.802,3.895 20.109,3.418C17.184,1.406 13.433,3.091 10.21,2.934C9.422,2.896 8.623,2.775 7.88,2.505C7.497,2.366 7.119,2.196 6.772,1.983C6.454,1.787 6.178,1.541 5.883,1.315L5.754,1.217C5.552,1.066 5.208,0.829 5.004,1.03C4.915,1.117 4.91,1.313 4.912,1.464L4.913,1.532C4.922,2.17 5.052,2.807 4.812,3.424C4.703,3.705 4.399,3.882 4.109,3.723L4.094,3.715C3.482,3.352 2.678,4.08 3.148,4.683L3.163,4.701C3.427,5.021 3.286,5.585 2.813,5.583L2.796,5.583C1.952,5.557 1.578,6.606 2.305,7.065L2.327,7.078C2.918,7.43 2.4,8.275 1.795,7.985C1.846,8.01 1.757,8.009 1.706,8.077C1.657,8.143 1.653,8.199 1.665,8.282C1.7,8.532 1.921,8.743 2.101,8.902C2.508,9.261 3.012,9.51 3.532,9.661C5.615,10.267 7.751,9.526 9.78,9.078C11.896,8.612 14.285,8.424 16.13,9.748C16.152,9.763 16.133,9.798 16.108,9.784C14.784,9.019 13.163,9.087 11.716,9.401C9.818,9.812 7.936,10.578 5.993,10.78C6.538,11.738 6.767,12.871 6.621,13.967C6.521,14.722 6.219,15.377 5.862,16.04L5.794,16.166C5.476,16.762 5.23,17.325 5.226,18.014C5.222,18.7 4.198,18.844 4.025,18.176C3.631,16.659 5.066,15.464 5.652,14.213C6.153,13.143 6.168,11.896 5.763,10.801C5.306,10.837 4.845,10.841 4.38,10.8C3.98,10.764 3.569,10.693 3.168,10.579L3.008,11.25C2.796,12.144 2.599,13.036 2.539,13.964C2.495,14.646 2.498,15.332 2.564,16.012C2.622,16.599 2.744,17.166 2.868,17.739C2.975,17.879 3.029,18.093 2.999,18.263C3.69,18.461 4.233,19.004 4.432,19.722C4.444,19.766 4.383,19.791 4.36,19.753C3.888,18.975 2.675,18.689 1.908,19.203C1.175,19.693 0.886,20.684 1.301,21.468C1.519,21.88 1.843,22.17 2.26,22.37L2.344,22.409C2.562,22.512 2.763,22.624 2.903,22.831C3.086,23.099 3.092,23.382 3.075,23.689L3.067,23.813C3.056,24.019 3.053,24.23 3.115,24.428L3.129,24.471C3.145,24.521 3.162,24.564 3.191,24.611C3.2,24.625 3.283,24.706 3.31,24.736L3.344,24.746L3.383,24.747C3.425,24.748 3.48,24.73 3.462,24.743L3.467,24.74C3.483,24.73 3.498,24.719 3.51,24.71L3.534,24.692C3.589,24.612 3.659,24.546 3.743,24.496L3.825,24.46C4.035,24.239 4.396,24.355 4.547,24.576C4.656,24.735 4.715,24.896 4.719,25.055C4.736,25.028 4.774,25.013 4.798,25.043L4.941,25.225C5.489,25.922 6.028,26.623 6.651,27.258C6.994,27.608 7.363,27.937 7.749,28.24C8.078,28.499 8.703,28.748 8.712,29.219C8.715,29.372 8.606,29.48 8.473,29.532C8.038,29.701 7.501,29.126 7.187,28.847L7.162,28.824C6.778,28.489 6.427,28.122 6.104,27.729C5.475,26.965 4.95,26.087 4.718,25.12C4.708,25.289 4.635,25.454 4.493,25.61C4.305,25.818 4.047,25.963 3.771,26.023C3.147,26.159 2.537,25.935 2.166,25.418C1.852,24.98 1.76,24.402 1.8,23.874L1.805,23.81C1.811,23.725 1.818,23.57 1.84,23.504L1.644,23.396C1.403,23.269 1.179,23.101 0.979,22.917C0.173,22.178 -0.231,20.977 0.137,19.926C0.368,19.268 0.852,18.696 1.472,18.399C1.368,18.161 1.333,17.878 1.294,17.627L1.288,17.586C1.221,17.175 1.166,16.759 1.145,16.343C1.105,15.567 1.153,14.784 1.276,14.016C1.475,12.77 1.887,11.448 2.643,10.403C2.066,10.175 1.536,9.845 1.126,9.387C0.698,8.909 0.425,8.224 0.756,7.616C0.841,7.461 0.951,7.331 1.077,7.228C0.858,6.816 0.787,6.33 0.922,5.865C1.084,5.309 1.522,4.876 2.052,4.673C1.923,4.147 2.028,3.58 2.421,3.142C2.811,2.706 3.417,2.548 3.977,2.647C4.007,2.087 3.83,1.492 3.965,0.939ZM2.394,20.602C2.907,20.352 3.516,20.392 4.029,20.629L4.064,20.645C4.624,20.916 5.366,21.547 5.188,22.219C5.084,22.612 4.646,22.746 4.305,22.577C4.021,22.435 3.956,22.182 3.814,21.927C3.713,21.747 3.589,21.606 3.442,21.462C3.134,21.157 2.787,20.93 2.394,20.749C2.337,20.723 2.339,20.629 2.394,20.602ZM15.338,7.023C15.29,7.001 15.325,6.926 15.373,6.94C16.664,7.307 17.868,8.13 18.587,9.273C18.631,9.343 18.637,9.458 18.587,9.527L18.564,9.558C18.531,9.601 18.498,9.633 18.436,9.642C18.319,9.66 18.218,9.63 18.151,9.527C17.442,8.437 16.535,7.568 15.338,7.023ZM23.98,7.239C24.089,7.055 24.379,7.092 24.437,7.298L24.445,7.316C24.476,7.387 24.462,7.401 24.404,7.361C24.548,7.479 24.613,7.655 24.569,7.844C24.331,8.864 23.17,9.593 22.158,9.493C22.069,9.484 22.057,9.376 22.137,9.344C22.527,9.187 22.873,8.932 23.151,8.619C23.421,8.315 23.534,7.967 23.68,7.6C23.734,7.462 23.819,7.363 23.939,7.309C23.954,7.287 23.968,7.264 23.98,7.239ZM18.222,6.583L18.229,6.584C18.749,6.651 19.199,6.906 19.565,7.28C19.916,7.641 20.36,8.236 20.322,8.765C20.297,9.116 19.796,9.316 19.609,8.957C19.498,8.743 19.472,8.508 19.394,8.282C19.322,8.074 19.223,7.877 19.105,7.692C18.861,7.311 18.525,6.989 18.182,6.698C18.141,6.664 18.169,6.583 18.222,6.583ZM4.879,6.428C4.764,6.319 4.884,6.132 5.03,6.169C5.804,6.364 6.57,6.601 7.375,6.625C7.777,6.637 8.176,6.605 8.574,6.553L8.776,6.527C9.086,6.486 9.402,6.455 9.709,6.518C9.913,6.56 9.953,6.823 9.826,6.959C9.224,7.605 8.063,7.544 7.265,7.435C6.398,7.316 5.523,7.039 4.879,6.428ZM18.852,4.414C18.799,4.341 18.888,4.226 18.972,4.258C19.741,4.554 20.547,5.324 20.759,6.129C20.815,6.342 20.545,6.503 20.387,6.345C20.092,6.051 19.883,5.703 19.634,5.372C19.385,5.042 19.095,4.749 18.852,4.414ZM6.253,4.774C6.191,4.713 6.253,4.59 6.342,4.622C6.842,4.798 7.347,4.951 7.873,5.031C8.411,5.113 8.955,5.05 9.497,5.084C9.716,5.097 9.865,5.436 9.621,5.542C8.539,6.011 7.069,5.585 6.253,4.774ZM7.635,3.722C7.549,3.659 7.598,3.485 7.715,3.534C8.192,3.731 8.674,3.78 9.185,3.759C9.374,3.752 9.414,4.047 9.23,4.087C8.664,4.21 8.097,4.062 7.635,3.722Z"/>
                    <g transform="matrix(-1,0,0,1,37.0013,-7.1474)">
                        <path d="M28.84,36.358L29.921,40.039" style="fill:none;stroke:black;stroke-width:1px;"/>
                    </g>
                </g>
                <g id="FACE" transform="matrix(1,0,0,1,21.9987,18.1474)">
                    <path id="teeth" d="M6.591,14.989C6.875,14.075 9.966,12.729 10.487,13.12C10.834,13.381 10.784,14.443 10.336,16.307C8.414,16.514 7.385,16.566 7.248,16.463C7.041,16.307 6.306,15.903 6.591,14.989Z" style="fill:white;"/>
                    <path id="ðŸ–-Ink2" serif:id="ðŸ–-Ink" d="M11.854,13.191C11.873,13.212 11.831,13.241 11.811,13.225C11.574,13.046 11.2,13.148 10.971,13.229C10.915,15.101 10.918,16.06 10.98,16.104C11.073,16.171 12.378,16.131 12.378,16.298C12.378,16.843 11.593,17.047 11.167,17.015C10.496,16.964 9.804,16.864 9.135,16.945C8.465,17.026 7.041,17.471 6.313,16.856C5.444,16.122 5.562,14.916 6.285,14.129C6.74,13.633 7.411,13.335 8.072,13.115C9.04,12.792 11.32,12.583 11.854,13.191ZM10.069,15.253C9.718,15.395 7.974,15.995 7.56,16.104C8.044,16.068 9.698,16.028 10.069,15.841C10.111,15.666 10.138,15.225 10.069,15.253ZM10.336,13.306C9.386,13.466 7.336,14.19 7.041,14.576C7.489,14.502 9.986,14.19 10.268,14.19C10.309,13.964 10.282,13.566 10.336,13.306ZM10.639,8.908C11.109,9.205 11.826,9.899 11.32,10.637C10.724,11.288 9.867,10.542 9.444,10.205C9.053,9.943 8.612,10.616 8.976,10.921C12.029,13.275 13.268,8.986 10.877,8.558C10.614,8.511 10.516,8.816 10.639,8.908ZM11.682,4.565C11.958,4.562 12.119,4.749 12.326,4.915C12.539,5.086 12.796,5.223 13.046,5.327C13.305,5.436 13.583,5.522 13.857,5.584C14.14,5.648 14.401,5.618 14.683,5.672C15.429,5.815 15.252,7.111 14.504,7.047C13.831,6.989 13.107,6.558 12.597,6.111C12.353,5.898 12.147,5.653 11.946,5.398L11.909,5.35C11.731,5.121 11.564,4.887 11.654,4.587C11.657,4.574 11.669,4.565 11.682,4.565ZM5.457,8.346C5.458,7.932 5.689,6.988 6.261,6.988C6.618,6.988 6.835,7.631 6.873,8.293L6.874,8.32C6.891,8.732 6.782,9.632 6.261,9.632C5.735,9.632 5.463,8.779 5.457,8.36L5.457,8.346ZM13.875,8.346C13.874,7.932 13.643,6.988 13.071,6.988C12.723,6.988 12.508,7.599 12.463,8.243L12.46,8.293C12.437,8.691 12.539,9.632 13.071,9.632C13.598,9.632 13.87,8.779 13.875,8.36L13.875,8.346ZM7.328,4.626C7.685,4.466 8.093,4.512 8.308,4.894C8.511,5.255 8.373,5.691 8.051,5.914C7.735,6.133 7.311,6.251 6.947,6.376L6.907,6.39C6.555,6.514 6.202,6.615 5.838,6.694C5.498,6.767 5.156,6.822 4.811,6.865L4.708,6.878C4.439,6.91 4.064,7.019 3.822,6.86C3.801,6.846 3.793,6.817 3.805,6.793C3.946,6.539 4.32,6.438 4.56,6.31C4.868,6.144 5.172,5.969 5.472,5.79C5.777,5.609 6.08,5.425 6.381,5.238C6.693,5.044 6.996,4.776 7.328,4.626Z"/>
                </g>
            </g>
        </g>
    </g>
</svg>
