<?xml version="1.0" encoding="UTF-8" standalone="no"?>
<!DOCTYPE svg PUBLIC "-//W3C//DTD SVG 1.1//EN" "http://www.w3.org/Graphics/SVG/1.1/DTD/svg11.dtd">
<svg width="100%" height="100%" viewBox="0 0 50 74" version="1.1" xmlns="http://www.w3.org/2000/svg" xmlns:xlink="http://www.w3.org/1999/xlink" xml:space="preserve" xmlns:serif="http://www.serif.com/" style="fill-rule:evenodd;clip-rule:evenodd;stroke-linejoin:round;stroke-miterlimit:2;">
    <g transform="matrix(-1,0,0,1,49.7179,9.68488)">
        <g id="Introduction">
            <g id="avatar-boy-3">
                <g id="BODY" transform="matrix(0.638933,0,0,0.798232,7.42821,25.906)">
                    <path id="_--Skin" serif:id="âœ‹-Skin" d="M38.664,16.004C38.121,15.811 37.597,15.59 37.12,15.263C35.745,14.248 34.848,12.721 34,11.273C32.807,9.168 31.956,6.925 31.368,4.585C31.116,3.58 31.03,2.414 30.456,1.523C29.155,-0.343 25.34,-0.101 23.315,0.226C21.958,0.464 21.678,1.969 21.37,3.083C21.113,4.008 20.945,4.944 20.804,5.892C20.469,6.111 20.09,6.289 19.729,6.443C15.796,7.639 15.105,9.856 13.603,13.28C11.065,18.257 4.18,20.206 3.14,26.096C2.47,29.984 4.376,33.643 6.34,36.876C8.17,40.407 10.724,42.101 14.792,41.267C18.607,40.419 22.273,38.999 26.022,37.902C27.837,37.46 29.649,36.309 31.559,36.71C35.494,37.586 39.536,37.998 43.569,37.885C49.231,38.112 49.23,32.724 48.649,28.552C48.242,22.059 44.938,17.891 38.664,16.004Z" style="fill:white;"/>
                    <path id="ðŸ–-Ink" d="M39.043,25.398C39.516,25.709 39.914,26.179 40.233,26.674C38.9,26.536 37.569,26.378 36.24,26.197C36.414,26.087 36.59,25.979 36.769,25.877C37.424,25.512 38.312,24.919 39.043,25.398ZM16.888,29.306C16.643,29.212 16.549,28.842 16.454,28.63C16.155,27.967 15.882,27.291 15.599,26.621C16.675,26.317 17.722,25.979 18.837,25.817C20.036,25.643 21.253,25.601 22.463,25.64C24.914,25.719 27.343,26.116 29.753,26.542C32.16,26.967 34.566,27.376 36.99,27.697C39.365,28.011 41.747,28.241 44.134,28.443C44.598,28.482 45.371,28.647 45.744,28.286C46.039,27.999 46.049,27.471 45.679,27.238C45.449,27.092 45.116,27.09 44.853,27.057C44.522,27.015 44.189,26.987 43.856,26.965C43.72,26.956 43.585,26.948 43.449,26.939C44.539,26.532 45.677,26.31 46.858,26.372C46.925,26.774 47.226,27.188 47.391,27.52C47.679,28.099 47.903,28.686 48.05,29.316C48.358,30.633 48.371,32 48.284,33.343C48.204,34.463 48.033,35.701 47.147,36.494C46.476,37.095 45.53,37.317 44.652,37.387C43.631,37.468 42.595,37.382 41.583,37.246C40.163,37.056 38.737,36.804 37.346,36.467C34.651,35.814 32.068,34.775 29.685,33.366C28.522,32.679 27.413,31.906 26.235,31.245C25.035,30.571 23.757,30.049 22.416,29.724C20.915,29.361 19.345,29.206 17.803,29.296C17.535,29.311 17.148,29.407 16.888,29.306ZM15.148,28.632C15.306,29.14 15.426,29.719 15.763,30.146C16.097,30.568 16.6,30.717 17.121,30.755C17.749,30.8 18.385,30.771 19.015,30.794C20.307,30.842 21.581,31.05 22.816,31.432C23.967,31.787 25.035,32.342 26.064,32.957C27.016,33.526 27.939,34.137 28.891,34.705C28.638,34.82 28.387,34.944 28.135,35.053C27.607,35.28 27.076,35.5 26.542,35.714C25.489,36.136 24.432,36.547 23.364,36.93C21.21,37.701 19.021,38.374 16.806,38.948C15.75,39.222 14.678,39.541 13.58,39.587C12.607,39.627 11.705,39.354 10.92,38.781C9.292,37.591 7.997,35.873 6.95,34.179C6.327,33.172 5.784,32.114 5.335,31.021C5.108,30.468 4.902,29.906 4.717,29.338C4.63,29.071 4.547,28.803 4.469,28.533C4.435,28.415 4.402,28.296 4.37,28.177C6.034,27.673 7.719,27.219 9.443,26.966C10.364,26.831 11.297,26.763 12.228,26.773C12.69,26.778 13.151,26.803 13.611,26.85C13.858,26.875 14.104,26.908 14.35,26.949C14.451,26.965 14.555,26.99 14.66,27.008C14.819,27.551 14.98,28.092 15.148,28.632ZM49.564,26.476C49.654,26.296 49.692,26.119 49.724,25.923C49.749,25.774 49.814,25.564 49.757,25.37C49.693,25.152 49.519,24.958 49.394,24.772C49.256,24.568 49.119,24.363 48.981,24.158C48.706,23.747 48.432,23.337 48.157,22.926C47.038,21.249 45.927,19.566 44.813,17.885C43.825,16.393 42.854,14.888 41.836,13.416C40.965,12.157 40.017,10.919 38.825,9.94C37.318,8.703 35.524,8.12 33.65,7.665C33.446,7.454 33.172,7.339 32.88,7.362C32.467,6.898 32.139,6.574 31.99,5.983C31.919,5.701 31.942,4.906 31.664,4.739C31.334,4.54 31.162,4.803 31.071,5.1C30.766,6.092 31.116,7.425 31.92,8.419C31.581,9.58 31.132,11.229 30.33,12.159C29.472,13.155 28.286,13.465 27.006,13.485C24.564,13.524 22.126,12.625 20.263,11.066C19.697,10.592 19.172,10.063 18.696,9.5C18.339,9.077 17.917,8.426 17.638,7.933C17.638,7.741 17.41,7.54 19.737,7.385C22.064,7.23 22.241,4.071 22.292,3.641C22.335,3.292 22.513,2.75 22.265,2.465C22.16,2.344 21.944,2.325 21.81,2.407C21.558,2.562 21.476,2.959 21.397,3.228C21.286,3.605 20.923,5.945 20.236,6.216C19.915,6.343 19.546,6.345 19.206,6.369C18.786,6.398 18.365,6.419 17.947,6.468C17.792,6.486 17.624,6.535 17.472,6.536C17.373,6.537 17.271,6.49 17.175,6.456C16.852,6.343 16.529,6.428 16.196,6.472C13.253,6.864 10.223,7.759 7.712,9.37C5.5,10.789 3.941,12.83 2.912,15.217C1.863,17.653 1.261,20.286 0.757,22.879C0.588,23.748 0.441,24.621 0.314,25.496C0.192,26.343 0.038,27.208 0.002,28.063C-0.013,28.401 0.069,28.715 0.194,29.024C0.335,29.372 0.669,29.509 0.99,29.671C1.693,30.028 2.434,30.304 3.199,30.5C3.665,31.342 4.058,32.217 4.374,33.125C4.257,33.355 4.255,33.699 4.232,33.922C4.176,34.479 4.152,35.039 4.147,35.598C4.137,36.72 4.205,37.84 4.258,38.959C4.313,40.095 4.492,44.575 4.522,45.122C4.544,45.547 4.514,46.141 4.739,46.519C5.086,47.099 5.943,47.079 6.34,46.609C16.196,48.71 34.723,48.077 42.185,47.02C43.156,46.882 42.851,47.035 43.098,46.792C43.283,46.609 43.441,46.296 43.492,46.045C43.56,45.71 43.45,45.406 43.256,45.135C43.053,44.849 43.016,44.387 42.94,44.048C42.761,43.246 42.672,39.723 42.588,39.332C42.562,39.211 42.537,39.082 42.507,38.953C43.876,39.082 45.302,39.082 46.604,38.628C47.342,38.371 48.031,37.966 48.561,37.389C49.203,36.69 49.56,35.81 49.744,34.892C49.981,33.708 50.031,32.481 49.984,31.277C49.92,29.854 49.682,28.411 49.091,27.105C49.285,26.926 49.448,26.71 49.564,26.476Z"/>
                </g>
                <g id="HEAD" transform="matrix(1.05373,0,0,1.02123,13.5299,-0.47014)">
                    <path id="_--Skin1" serif:id="âœ‹-Skin" d="M21.312,10.708C21.075,9.264 21.852,8.964 21.312,7.592C20.11,5.048 16.837,5.158 14.435,4.962C11.755,4.859 9.043,5.215 6.573,6.297C5.983,6.556 5.416,6.86 4.872,7.205C4.401,7.504 4.466,8.072 4.763,8.381C2.624,11.433 3.847,15.53 2.141,18.743C1.825,19.317 1.408,19.832 1.134,20.429C0.718,21.338 0.691,22.639 1.636,23.242C2.966,23.962 3.709,22.537 4.362,24.602C7.627,31.803 14.19,32.209 20.421,28.454C20.961,28.152 21.511,27.811 21.918,27.336C22.842,26.288 22.733,24.815 22.753,23.506C22.765,22.739 22.767,21.972 22.759,21.205C22.73,18.099 21.708,13.789 21.312,10.708Z" style="fill:white;"/>
                    <path id="ðŸ–-Ink1" serif:id="ðŸ–-Ink" d="M8.04,2.071C11.802,0.352 16.069,-0.301 20.173,0.127C22.199,0.338 24.198,0.79 26.1,1.525L26.267,1.59C26.736,1.772 27.243,1.953 27.599,2.323C28.015,2.754 28.131,3.406 27.834,3.938C27.604,4.352 27.189,4.648 26.747,4.807C26.903,4.935 27.05,5.079 27.189,5.239C27.423,5.507 27.441,5.89 27.189,6.154C26.704,6.664 26.076,7.033 25.398,7.21C25.474,7.58 25.433,7.99 25.27,8.359C24.802,9.419 23.483,9.545 22.468,9.482L22.437,9.48L22.381,10.131C22.351,10.478 22.145,10.747 21.795,10.8C21.783,10.802 21.77,10.803 21.758,10.804C22.312,12.82 22.646,14.899 22.954,16.966C23.116,18.045 23.26,19.126 23.398,20.208L23.444,20.568C23.591,21.735 23.775,22.913 23.839,24.088C23.896,25.155 23.694,26.173 23.042,27.033C22.457,27.805 21.659,28.383 20.801,28.812C18.862,29.781 16.821,30.503 14.676,30.839L14.533,30.861C13.705,30.988 12.852,31.095 12.034,30.864C11.314,30.662 10.559,30.139 10.722,29.299C10.777,29.015 11.17,29.003 11.305,29.222L11.337,29.272C11.498,29.531 11.676,29.772 11.958,29.905C12.289,30.062 12.672,30.106 13.033,30.11C14.043,30.122 15.093,29.869 16.065,29.615C17.88,29.14 19.743,28.366 21.229,27.193C21.862,26.695 22.37,26.072 22.549,25.27C22.77,24.282 22.567,23.201 22.466,22.208C22.259,20.158 22.013,18.112 21.753,16.068L21.701,15.66C21.482,13.951 21.252,12.242 21.142,10.523C21.097,10.461 21.066,10.39 21.054,10.312L21.037,10.2C21.022,10.104 21.02,10.016 21.03,9.935C21.031,9.625 21.039,9.317 21.057,9.006C21.06,8.951 21.063,8.895 21.064,8.84C20.744,8.911 20.422,8.969 20.098,9.018C17.821,9.363 15.508,9.45 13.213,9.278C12.067,9.192 10.931,9.044 9.798,8.859C9.221,8.765 8.646,8.661 8.073,8.545C7.659,8.462 7.254,8.349 6.846,8.242C6.426,8.859 6.199,9.617 6.243,10.362C6.293,11.212 6.855,11.983 6.697,12.851C6.549,13.664 5.858,13.916 5.176,14.117L4.886,14.202C4.663,14.268 4.5,14.331 4.46,14.601C4.391,15.066 4.476,15.588 4.494,16.055C4.515,16.607 4.543,17.159 4.556,17.711C4.563,17.996 4.574,18.283 4.574,18.569C4.573,18.771 4.543,18.91 4.465,19.041C4.525,19.117 4.579,19.199 4.627,19.286C4.642,19.315 4.604,19.345 4.582,19.322C4.521,19.258 4.456,19.2 4.388,19.149C4.354,19.192 4.314,19.235 4.267,19.281L4.264,19.276C4.118,19.423 3.886,19.437 3.705,19.281L3.657,19.24C3.525,19.123 3.434,19.025 3.397,18.832C3.395,18.822 3.393,18.812 3.392,18.802C3.055,18.791 2.713,18.871 2.41,19.04C1.93,19.307 1.592,19.689 1.392,20.16C1.471,20.254 1.565,20.338 1.673,20.408C1.689,20.419 1.675,20.442 1.659,20.434C1.548,20.381 1.448,20.316 1.359,20.24C1.287,20.426 1.237,20.625 1.206,20.835C1.098,21.58 1.291,22.489 1.959,22.913C2.247,23.097 2.577,23.196 2.92,23.197C3.087,23.198 3.231,23.17 3.393,23.129C3.503,23.102 3.612,23.063 3.726,23.063C3.825,23.063 3.915,23.087 3.999,23.137L3.976,23.139C3.919,23.144 3.93,23.147 4.009,23.147C4.255,23.157 4.395,23.408 4.282,23.626L4.267,23.66C4.264,23.667 4.262,23.673 4.26,23.677L4.251,23.735C4.25,23.74 4.249,23.746 4.248,23.752L4.244,23.764C4.244,23.766 4.243,23.767 4.242,23.769L4.61,24.335C5.062,25.027 5.523,25.716 6.048,26.348C6.416,26.791 6.806,27.225 7.218,27.628C7.589,27.989 8.033,28.164 8.452,28.448C8.676,28.599 8.742,28.915 8.538,29.118C7.941,29.716 7.095,29.241 6.605,28.755C6.141,28.295 5.74,27.741 5.395,27.186C4.782,26.2 4.294,25.152 4.081,24.014C3.992,24.096 3.879,24.148 3.764,24.188C3.534,24.268 3.28,24.301 3.038,24.31C2.572,24.326 2.106,24.212 1.687,24.01C-0.018,23.191 -0.268,20.738 0.774,19.292C0.633,18.881 0.555,18.436 0.47,18.056L0.431,17.886C-0,15.989 -0.289,13.991 0.475,12.132C0.573,11.892 0.683,11.658 0.814,11.435C0.919,11.255 1.099,11.063 1.149,10.858C1.259,10.409 0.578,9.937 0.379,9.58C0.145,9.162 0.112,8.668 0.43,8.285C0.471,8.237 0.515,8.192 0.563,8.153C0.261,7.602 0.247,6.908 0.645,6.364C0.906,6.006 1.305,5.755 1.74,5.679C2.006,5.632 2.327,5.65 2.619,5.733C4.221,4.234 6.049,2.981 8.04,2.071ZM1.887,20.828C2.315,20.448 2.787,20.249 3.37,20.299C3.956,20.35 4.661,20.594 5.005,21.1C5.277,21.5 4.723,22.087 4.325,21.786C3.961,21.512 3.719,21.203 3.268,21.056C2.863,20.925 2.362,20.84 1.938,20.915C1.892,20.923 1.845,20.865 1.887,20.828Z"/>
                </g>
                <g id="FACE" transform="matrix(1,0,0,1,21.094,12.094)">
                    <path id="ðŸ–-Ink2" serif:id="ðŸ–-Ink" d="M9.13,14.801C8.711,14.632 8.338,14.351 8.065,13.992C7.97,13.868 7.945,13.736 7.965,13.615C7.987,13.48 8.069,13.357 8.179,13.275C8.291,13.192 8.43,13.151 8.564,13.172C8.681,13.19 8.797,13.253 8.89,13.384L8.909,13.41C9.071,13.627 9.283,13.805 9.524,13.919C9.756,14.03 10.016,14.081 10.285,14.051C10.797,13.994 11.15,13.721 11.526,13.35C11.572,13.303 11.619,13.255 11.665,13.206C11.695,13.161 11.736,13.133 11.781,13.118C11.832,13.101 11.889,13.102 11.941,13.12C11.992,13.137 12.037,13.17 12.067,13.214C12.096,13.256 12.112,13.307 12.107,13.366C12.073,13.751 11.869,14.094 11.579,14.363C11.258,14.663 10.832,14.87 10.43,14.942C9.988,15.022 9.538,14.965 9.13,14.801ZM10.639,8.869C11.109,9.151 11.826,9.808 11.32,10.508C10.724,11.124 9.867,10.417 9.444,10.098C9.053,9.85 8.612,10.487 8.976,10.776C12.029,13.006 13.268,8.943 10.877,8.537C10.614,8.493 10.516,8.782 10.639,8.869ZM5.167,6.275C5.219,5.639 6.202,5.495 6.299,6.124C6.387,6.688 6.284,7.206 6.026,7.714C5.78,8.199 5.162,7.973 5.115,7.531C5.052,6.939 5.135,6.671 5.167,6.275ZM12.645,5.994C12.782,5.817 12.98,5.696 13.217,5.764C13.957,5.977 13.739,7.014 13.479,7.519C13.338,7.793 12.881,7.862 12.675,7.621C12.338,7.227 12.177,6.442 12.605,6.054C12.617,6.034 12.629,6.014 12.645,5.994ZM6.016,3.491L6.133,3.471C6.495,3.409 6.944,3.35 7.2,3.637C7.336,3.789 7.383,4.072 7.2,4.217C6.879,4.474 6.525,4.374 6.14,4.396C5.823,4.414 5.519,4.466 5.213,4.552C4.544,4.74 3.998,5.085 3.426,5.464C3.351,5.513 3.274,5.419 3.31,5.349C3.64,4.711 4.28,4.187 4.921,3.868C5.263,3.698 5.637,3.556 6.016,3.491ZM11.97,3.206L12.06,3.224C13.034,3.424 14.299,3.826 14.761,4.769C14.778,4.903 14.76,4.931 14.744,4.95L14.739,4.956C14.727,4.972 14.717,4.994 14.658,5.012C14.642,5.008 14.626,5.004 14.609,5C14.398,4.945 14.23,4.87 14.068,4.792L13.893,4.707C13.689,4.608 13.484,4.513 13.266,4.443C12.801,4.294 12.323,4.188 11.838,4.132C11.732,4.12 11.631,4.085 11.551,4.025C11.475,3.968 11.417,3.889 11.391,3.784C11.357,3.648 11.366,3.546 11.44,3.423C11.496,3.331 11.575,3.267 11.666,3.231C11.759,3.194 11.865,3.185 11.97,3.206Z"/>
                </g>
            </g>
        </g>
    </g>
</svg>
