<?xml version="1.0" encoding="UTF-8" standalone="no"?>
<!DOCTYPE svg PUBLIC "-//W3C//DTD SVG 1.1//EN" "http://www.w3.org/Graphics/SVG/1.1/DTD/svg11.dtd">
<svg width="100%" height="100%" viewBox="0 0 53 77" version="1.1" xmlns="http://www.w3.org/2000/svg" xmlns:xlink="http://www.w3.org/1999/xlink" xml:space="preserve" xmlns:serif="http://www.serif.com/" style="fill-rule:evenodd;clip-rule:evenodd;stroke-linejoin:round;stroke-miterlimit:2;">
    <g transform="matrix(-1,0,0,1,53,0)">
        <g id="Introduction">
            <g id="avatar-girl-3">
                <g id="BODY" transform="matrix(0.633972,0,0,0.811745,7.85437,35.9235)">
                    <path id="_--Skin" serif:id="âœ‹-Skin" d="M1.41,25.704L49.515,29.453L49.565,29.774C50.371,34.929 50.778,38.426 50.787,40.266L50.787,40.322C50.787,42.146 51.357,45.047 52.497,49.025L52.568,49.27L1.343,49.357L0.739,37.384L1.41,25.704ZM29.889,0.012C31.845,0.107 33.816,0.93 33.969,1.456C34.308,2.628 34.853,7.645 36.646,8.416C38.44,9.187 42.268,8.484 43.363,10.325C44.457,12.165 48.052,19.668 48.052,21.417C48.052,22.582 36.337,22.987 12.907,22.63C13.207,13.242 14.454,8.308 16.648,7.826L16.844,7.783C20.018,7.102 21.915,7.08 22.998,5.983C24.103,4.863 24.304,2.941 24.762,1.456C25.015,0.639 27.489,-0.104 29.889,0.012Z" style="fill:white;"/>
                    <path id="ðŸ–-Ink" d="M34.179,2.946C34.186,2.941 34.193,2.939 34.201,2.943C34.354,3.015 34.385,3.158 34.438,3.308C34.514,3.527 34.603,3.741 34.685,3.957C34.848,4.393 35.004,4.827 35.186,5.255C35.372,5.695 35.566,6.128 35.787,6.553C35.894,6.759 36.009,6.96 36.126,7.161C36.206,7.3 36.281,7.491 36.388,7.622C36.396,7.58 36.407,7.54 36.42,7.504C36.406,7.51 36.393,7.517 36.38,7.525C36.353,7.542 36.321,7.509 36.337,7.483C36.395,7.39 36.47,7.326 36.556,7.283C36.794,7.024 42.033,8.261 43.465,9.649C46.059,12.165 47.81,15.274 48.961,18.582C49.597,20.408 50.182,22.251 50.787,24.087C51.427,26.027 52.094,27.96 52.734,29.899C52.875,30.326 52.569,30.713 52.182,30.854C51.461,31.115 50.736,31.361 50.004,31.588C50.359,32.927 50.607,34.294 50.786,35.666C51.155,38.493 51.201,41.378 51.782,44.176C51.915,44.818 52.084,45.451 52.262,46.083L52.303,46.228C52.409,46.599 52.506,46.973 52.636,47.335C52.749,47.647 52.894,47.962 52.972,48.283C53.064,48.662 52.928,49.075 52.568,49.27C52.279,49.426 51.864,49.361 51.69,49.068C51.654,49.008 51.633,48.943 51.624,48.877C51.598,48.822 51.574,48.766 51.552,48.709C51.544,48.686 51.536,48.664 51.529,48.641L51.508,48.572C51.457,48.409 51.41,48.244 51.363,48.079C51.287,47.814 51.21,47.551 51.125,47.289L51.081,47.158C50.871,46.528 50.682,45.892 50.517,45.249C49.929,42.942 49.804,40.553 49.642,38.188L49.634,38.066C49.487,35.947 49.4,33.833 49.579,31.719L49.555,31.727L49.53,31.734C49.298,31.804 49.064,31.872 48.829,31.939C48.822,31.942 48.815,31.944 48.808,31.946C48.658,31.992 48.504,32.035 48.347,32.075L48.253,32.099L48.186,32.117L48.116,32.137C47.894,32.2 47.668,32.272 47.438,32.265C47.056,32.325 46.668,32.362 46.287,32.363C46.404,34.249 46.54,36.134 46.702,38.017C46.864,39.909 47.08,41.795 47.303,43.68C47.413,44.612 47.532,45.541 47.662,46.47C47.728,46.94 47.796,47.408 47.883,47.875C47.973,48.353 48.133,48.863 48.037,49.345C48.035,49.345 48.033,49.344 48.031,49.344C47.998,49.484 47.912,49.609 47.763,49.695C47.488,49.853 47.104,49.761 46.946,49.485C46.933,49.462 46.92,49.438 46.908,49.414C46.746,49.482 46.569,49.508 46.351,49.51L43.401,49.539C42.06,49.552 40.72,49.566 39.378,49.585C35.166,49.646 30.955,49.717 26.743,49.767L25.164,49.784C22.795,49.809 20.425,49.857 18.056,49.856C16.871,49.856 15.687,49.852 14.502,49.824C13.928,49.81 13.355,49.788 12.782,49.765L12.681,49.761C12.223,49.739 11.737,49.697 11.29,49.798C11.166,50.034 10.85,50.082 10.685,49.841C10.308,49.289 10.205,48.519 10.135,47.844L10.111,47.601C10.033,46.845 9.966,46.089 9.915,45.331C9.737,42.647 9.671,39.961 9.753,37.272C9.795,35.901 9.923,34.538 10.075,33.176C10.123,32.751 10.172,32.326 10.226,31.902L10.227,31.751C10.227,31.703 10.227,31.657 10.225,31.614L10.212,31.205C10.201,30.864 10.191,30.523 10.186,30.182L10.184,29.977L10.182,29.596C9.851,29.565 9.497,29.457 9.211,29.405C8.747,29.32 8.284,29.228 7.823,29.131C6.899,28.936 5.985,28.705 5.078,28.45L4.885,28.396C4.047,28.159 3.198,27.906 2.405,27.552C2.095,27.412 1.786,27.256 1.514,27.05C1.498,27.266 1.473,27.482 1.458,27.696C1.429,28.12 1.394,28.542 1.365,28.966L1.337,29.37C1.292,30.042 1.251,30.713 1.232,31.387C1.151,34.327 1.136,37.28 1.295,40.219C1.373,41.689 1.486,43.16 1.647,44.625C1.727,45.346 1.811,46.068 1.914,46.786C2.021,47.524 2.213,48.257 2.272,49C2.329,49.717 1.213,49.821 1.03,49.165C0.81,48.38 0.754,47.532 0.639,46.724L0.626,46.634C0.497,45.776 0.395,44.914 0.306,44.052C-0,41.075 -0.079,38.083 0.081,35.095C0.157,33.665 0.338,32.239 0.557,30.823L0.583,30.66C0.682,30.026 0.776,29.392 0.888,28.761L0.932,28.524C1.033,27.981 1.111,27.391 1.275,26.849L1.227,26.805C1.135,26.721 1.036,26.624 0.964,26.52C0.715,26.487 0.504,26.312 0.53,25.993C0.615,24.947 1.005,23.883 1.352,22.895C1.7,21.902 2.105,20.928 2.563,19.979C4.173,16.642 6.493,13.613 9.33,11.186C10.834,9.899 12.483,8.757 14.306,7.944C15.204,7.542 16.133,7.232 17.107,7.065C17.589,6.981 18.075,6.917 18.566,6.903C18.963,6.672 19.435,6.769 19.82,7.022L19.841,7.036L19.842,7.036L19.941,7.055C19.965,7.06 19.964,7.097 19.941,7.103C19.939,7.103 19.937,7.103 19.936,7.104C19.999,7.153 20.059,7.205 20.115,7.261C20.299,7.446 20.298,7.668 20.203,7.848C20.767,8.361 21.122,9.02 21.495,9.684C21.894,10.394 22.418,11.009 23.054,11.527C25.387,13.427 28.819,14.268 31.742,13.37C33.892,12.711 35.728,10.926 36.236,8.778C36.116,8.82 35.985,8.827 35.862,8.783C35.282,8.58 35.061,7.958 34.839,7.437L34.828,7.412C34.611,6.908 34.429,6.395 34.285,5.867C34.14,5.333 34.055,4.769 34.02,4.218C34.006,4 34.012,3.782 34.023,3.564L34.033,3.384C34.041,3.221 34.039,3.054 34.179,2.946ZM24.739,1.477C24.747,1.457 24.779,1.446 24.791,1.47C25.305,2.51 24.968,3.936 24.482,4.928C23.974,5.966 23.208,6.753 22.301,7.434C22.177,7.527 22.048,7.62 21.918,7.71C21.161,8.235 20.487,6.82 21.361,6.55C22.271,6.095 23.011,5.286 23.525,4.435C23.803,3.976 24.05,3.497 24.238,2.995C24.426,2.494 24.539,1.972 24.739,1.477Z"/>
                </g>
                <g id="HEAD" transform="matrix(1,0,0,1,11.6086,8.90343)">
                    <path id="_--Skin1" serif:id="âœ‹-Skin" d="M29.898,18.995C30.305,16.055 29.435,13.218 28.308,10.532C28.246,10.368 28.148,10.226 28.022,10.126C24.841,3.716 20.167,3.135 13.646,3.577C13.453,3.573 13.442,3.576 13.295,3.511C13.271,0.907 10.296,-0.473 8.033,0.387C-2.007,5.051 1.15,18.182 3.148,26.754C3.861,30.073 4.574,33.391 5.286,36.709C5.31,36.82 5.361,36.916 5.428,36.997C5.324,37.036 5.221,37.073 5.119,37.108C4.887,37.187 4.979,37.532 5.221,37.476C5.457,37.421 5.685,37.348 5.911,37.268C6.263,37.344 6.557,37.114 6.833,36.931C10.066,35.653 11.423,31.453 12.252,28.359C15.623,30.737 21.01,32.518 24.864,30.379C28.476,28.205 29.776,23.669 29.52,19.666C29.783,19.545 29.89,19.28 29.897,19.005L29.898,19.005C29.898,19.002 29.898,18.998 29.898,18.995Z" style="fill:white;"/>
                    <path id="ðŸ’ˆ-Hair" d="M8.033,0.387C8.656,0.15 9.334,0.083 9.989,0.165C11.188,0.78 12.004,1.181 12.438,1.369C12.602,1.544 12.748,1.738 12.871,1.947C12.949,2.43 12.89,3.236 12.694,4.364C10.672,5.823 9.329,6.876 8.665,7.523C8.001,8.169 7.231,10.333 6.355,14.016L6.793,18.502C6.381,18.42 6.175,19.163 6.175,20.729C6.175,22.295 6.964,23.199 8.542,23.441L11.38,27.425L12.003,28.859C10.919,31.274 10.211,33.081 9.88,34.28C9.104,35.456 8.117,36.424 6.833,36.931C6.557,37.114 6.263,37.344 5.911,37.268C5.685,37.348 5.457,37.421 5.221,37.476C4.979,37.532 4.887,37.187 5.119,37.108C5.221,37.073 5.324,37.036 5.428,36.997C5.361,36.916 5.31,36.82 5.286,36.709C4.574,33.391 3.861,30.073 3.148,26.754C1.15,18.182 -2.007,5.051 8.033,0.387Z" style="fill:white;"/>
                    <path id="ðŸ–-Ink1" serif:id="ðŸ–-Ink" d="M7.106,0.631C7.852,0.149 8.808,-0.031 9.686,0.004C10.155,0.023 10.592,0.14 11.024,0.315C11.424,0.478 11.777,0.711 12.166,0.889C12.19,0.9 12.172,0.933 12.15,0.928C11.688,0.835 11.147,0.892 10.679,0.958L10.632,0.965C10.172,1.032 9.704,1.066 9.251,1.172C8.416,1.367 7.64,1.792 7.181,2.532C6.583,3.498 6.43,4.748 6.494,5.862C6.526,6.426 6.637,6.98 6.81,7.518C6.914,7.84 7.156,8.165 7.268,8.503C7.354,8.343 7.443,8.184 7.535,8.028C7.117,7.831 6.999,7.283 6.978,6.789C6.913,6.727 6.872,6.637 6.871,6.554C6.867,6.332 6.919,6.131 7.008,5.947C7.059,5.426 7.166,4.906 7.352,4.417C8.079,2.5 9.997,0.771 12.172,0.942C12.769,0.989 13.351,1.242 13.66,1.782C13.908,2.215 13.91,2.738 13.739,3.198C13.688,3.335 13.622,3.459 13.544,3.571C13.779,3.512 14.015,3.455 14.25,3.398C15.065,3.201 15.885,3.048 16.719,2.962C17.856,2.845 19.017,3.022 20.059,3.475C20.344,3.549 20.629,3.628 20.911,3.712C22.155,4.083 23.431,4.567 24.436,5.413C24.898,5.803 25.229,6.256 25.497,6.753C26.503,7.649 27.464,8.665 28.143,9.828C29.542,12.223 29.876,15.185 29.933,17.907C29.986,20.408 29.766,22.935 29.297,25.393C29.085,26.508 28.741,27.544 28.044,28.459C27.269,29.477 26.236,30.28 25.076,30.818C22.714,31.914 19.791,32.074 17.495,30.716C16.805,30.307 17.427,29.243 18.124,29.641C20.39,30.934 23.283,30.638 25.463,29.268C26.384,28.689 27.178,27.897 27.683,26.927C28.051,26.219 28.209,25.407 28.346,24.616L28.418,24.193C28.841,21.762 29.032,19.267 28.93,16.801C28.829,14.34 28.438,11.675 27.044,9.583C26.309,8.479 25.371,7.513 24.386,6.631C24.317,6.569 24.248,6.508 24.178,6.446C23.793,6.215 23.394,6.013 23.002,5.841L22.918,5.805C22.692,5.708 22.377,5.584 22.083,5.485C21.665,5.343 21.239,5.216 20.812,5.103C20.588,5.043 20.362,4.988 20.137,4.936C20.215,5.008 20.294,5.081 20.371,5.155C20.735,5.509 21.023,5.929 21.368,6.3C21.407,6.342 21.358,6.403 21.309,6.377C20.784,6.108 20.202,5.934 19.654,5.716C19.136,5.51 18.632,5.272 18.123,5.045C17.996,4.988 17.869,4.927 17.742,4.866C17.242,4.871 16.741,4.883 16.242,4.912C16.845,5.341 17.397,5.849 17.853,6.406C17.891,6.452 17.857,6.525 17.793,6.509C16.837,6.264 15.928,5.904 15.02,5.528L14.585,5.347C14.265,5.33 13.945,5.323 13.625,5.328L13.47,5.33C13.134,5.337 12.799,5.35 12.466,5.401C12.387,5.413 12.309,5.424 12.232,5.435C11.763,5.626 11.312,5.857 10.907,6.16L11.012,6.154C11.654,6.118 12.308,6.173 12.929,6.339C14.136,6.66 15.167,7.435 15.916,8.424C15.939,8.453 15.895,8.495 15.866,8.474C14.923,7.829 13.829,7.504 12.708,7.327C12.167,7.242 11.609,7.213 11.062,7.255C10.609,7.29 10.141,7.45 9.69,7.372C9.567,7.525 9.449,7.683 9.336,7.844C9.396,7.84 9.455,7.836 9.516,7.834C10.163,7.803 10.822,7.845 11.453,7.994C12.715,8.291 13.769,9.048 14.734,9.88C14.753,9.896 14.728,9.925 14.708,9.914C13.662,9.31 12.446,9.13 11.261,9.021C10.664,8.966 10.061,8.941 9.463,8.989C9.189,9.011 8.918,9.056 8.645,9.084C8.623,9.086 8.6,9.087 8.577,9.088C8.379,9.461 8.2,9.841 8.038,10.22C8.532,10.087 9.065,10.018 9.575,10.052C10.612,10.122 11.64,10.597 12.467,11.204C12.493,11.223 12.479,11.274 12.444,11.261C11.543,10.921 10.65,10.918 9.71,11.049C9.27,11.111 8.834,11.194 8.408,11.325C8.194,11.391 7.982,11.463 7.779,11.558C7.687,11.6 7.597,11.65 7.506,11.698C7.434,11.944 7.369,12.193 7.31,12.443C8.847,12.53 10.294,13.255 11.553,14.087C11.584,14.107 11.565,14.163 11.527,14.149C10.775,13.865 9.957,13.734 9.16,13.657C8.462,13.591 7.778,13.627 7.085,13.646C7.048,13.91 7.018,14.174 6.996,14.439C7.107,14.47 7.217,14.504 7.322,14.535C7.668,14.639 8.013,14.779 8.336,14.941C8.991,15.27 9.523,15.716 10.057,16.211C10.085,16.237 10.056,16.293 10.018,16.278C9.398,16.027 8.72,15.866 8.067,15.724C7.729,15.651 7.391,15.583 7.05,15.521C7.017,15.514 6.984,15.509 6.95,15.504C6.947,16.108 6.981,16.711 7.056,17.31L7.071,17.422C7.112,17.725 7.078,18.018 6.878,18.228C7.155,18.043 7.473,17.916 7.825,17.867C8.752,17.738 9.61,18.108 10.193,18.824C10.22,18.857 10.178,18.901 10.145,18.872C9.579,18.368 8.707,18.279 8.004,18.516C7.353,18.736 6.864,19.26 6.668,19.915C6.46,20.612 6.555,21.381 6.935,22.002C7.124,22.311 7.398,22.588 7.74,22.724C7.782,22.741 7.825,22.755 7.869,22.767C8.075,22.691 8.297,22.726 8.51,22.821L8.537,22.834C8.673,22.833 8.808,22.829 8.939,22.831C9.194,22.833 9.317,23.104 9.21,23.305C9.27,23.416 9.315,23.541 9.368,23.65C9.464,23.847 9.565,24.042 9.667,24.236C9.81,24.401 9.947,24.571 10.04,24.77C10.078,24.851 10.114,24.94 10.142,25.028C10.222,25.148 10.303,25.267 10.386,25.386C10.654,25.769 10.937,26.132 11.25,26.48C11.439,26.689 11.655,26.876 11.855,27.076C11.915,27.084 11.975,27.125 11.993,27.185L12.01,27.241C12.074,27.314 12.135,27.388 12.191,27.468C12.314,27.644 12.28,27.823 12.172,27.951C12.343,29.018 12.226,30.152 11.998,31.186C11.85,31.854 11.677,32.522 11.445,33.166C11.328,33.494 11.185,33.809 10.988,34.096C10.88,34.254 10.739,34.438 10.581,34.588C10.557,34.762 10.526,34.936 10.481,35.105C9.952,37.117 7.784,37.73 5.969,37.987C5.619,38.036 5.272,37.952 5.081,37.626C5.037,37.55 5.008,37.469 4.992,37.386C4.913,37.365 4.837,37.328 4.768,37.274C4.757,37.4 4.744,37.527 4.727,37.655C4.686,37.975 4.254,38.071 4.146,37.734C3.689,36.31 3.441,34.81 3.128,33.347C2.816,31.888 2.467,30.437 2.145,28.98L1.736,27.141C0.739,22.638 -0.194,18.077 0.035,13.446C0.16,10.918 0.624,8.397 1.617,6.061C2.444,4.115 3.841,1.928 6.096,1.53C6.111,1.528 6.125,1.529 6.138,1.533C6.406,1.184 6.726,0.878 7.106,0.631ZM8.467,25.108C8.649,25.711 8.779,26.33 8.85,26.961C8.967,28.013 8.909,29.09 8.858,30.145C8.811,31.113 8.699,32.091 8.509,33.042C8.327,33.956 8.041,34.851 7.616,35.682C7.547,35.817 7.473,35.948 7.396,36.076C7.631,35.998 7.843,35.906 8.064,35.78C8.342,35.621 8.597,35.416 8.736,35.199C8.959,34.852 9.034,34.467 9.067,34.053C9.151,32.989 9.19,31.921 9.244,30.856L9.256,30.624C9.342,28.958 9.456,27.25 9.286,25.583C9.047,25.52 8.832,25.397 8.633,25.243C8.578,25.2 8.523,25.155 8.467,25.108ZM6.651,23.091C6.701,23.598 6.749,24.105 6.793,24.612C6.947,26.412 7.042,28.221 6.954,30.028C6.909,30.968 6.817,31.911 6.659,32.84C6.587,33.258 6.501,33.677 6.404,34.091L6.372,34.229C6.274,34.639 6.211,35.151 5.898,35.449L5.9,35.511C6.12,35.177 6.324,34.802 6.47,34.452C7.12,32.894 7.238,31.199 7.356,29.538C7.428,28.514 7.482,27.489 7.565,26.466L7.606,25.974C7.653,25.401 7.693,24.833 7.687,24.26C7.562,24.074 7.461,23.878 7.397,23.676C7.387,23.644 7.38,23.611 7.375,23.578C7.111,23.453 6.862,23.282 6.651,23.091ZM10.208,26.656C10.338,27.09 10.445,27.53 10.521,27.972C10.642,28.675 10.714,29.382 10.746,30.092L10.813,29.841C10.981,29.214 11.159,28.586 11.38,27.977C11.031,27.732 10.738,27.348 10.484,27.026C10.389,26.906 10.297,26.782 10.208,26.656ZM5.198,7.34C5.063,7.774 4.946,8.213 4.824,8.65C4.539,9.678 4.354,10.733 4.225,11.791C3.712,16.014 4.139,20.254 4.698,24.449C4.93,26.187 5.181,27.923 5.397,29.663C5.403,29.492 5.408,29.322 5.411,29.151C5.476,25.457 4.855,21.815 4.606,18.14L4.591,17.916C4.478,16.198 4.409,14.448 4.613,12.736C4.718,11.855 4.903,10.992 5.15,10.141L5.296,9.641C5.396,9.304 5.501,8.959 5.626,8.624C5.609,8.592 5.593,8.56 5.579,8.528C5.406,8.147 5.285,7.747 5.198,7.34ZM5.631,2.362C4.34,4.026 3.257,5.794 2.601,7.827C1.101,12.479 1.436,17.455 2.305,22.197C2.715,24.432 3.243,26.64 3.725,28.859C3.209,24.875 2.544,20.898 2.438,16.875C2.38,14.68 2.494,12.473 2.899,10.312L2.922,10.184C3.096,9.271 3.311,8.303 3.75,7.482C3.989,7.036 4.253,6.62 4.565,6.222C4.697,6.054 4.845,5.919 5.002,5.796C4.956,4.649 5.13,3.405 5.631,2.362ZM7.737,20.09C8.379,20.116 9.021,20.295 9.527,20.712C9.922,21.038 9.358,21.59 8.966,21.273C8.539,20.928 8.156,20.536 7.701,20.223C7.647,20.185 7.662,20.087 7.737,20.09ZM6.672,18.38C6.529,18.453 6.387,18.468 6.225,18.428C6.219,18.427 6.214,18.425 6.208,18.424L6.175,18.413C6.189,18.566 6.204,18.719 6.219,18.872C6.349,18.688 6.501,18.522 6.672,18.38ZM6.032,9.141C5.975,9.616 5.938,10.093 5.919,10.571C5.9,11.036 5.892,11.503 5.889,11.97L5.889,12.171L5.89,12.167C6.11,11.225 6.423,10.298 6.822,9.411C6.753,9.423 6.683,9.421 6.615,9.413C6.457,9.394 6.307,9.324 6.172,9.242C6.123,9.213 6.077,9.178 6.032,9.141ZM12.583,3.638C12.309,3.762 12.044,3.905 11.768,4.026C11.222,4.267 10.687,4.546 10.182,4.863C9.67,5.184 9.177,5.522 8.724,5.923C8.671,5.97 8.618,6.017 8.566,6.065C8.555,6.168 8.548,6.272 8.544,6.377C8.542,6.433 8.542,6.492 8.543,6.553C9.398,5.494 10.432,4.658 11.744,4.132C11.971,4.041 12.203,3.96 12.436,3.885C12.491,3.808 12.541,3.726 12.583,3.638ZM12.559,2.622C12.406,2.42 11.968,2.436 11.691,2.482C11.244,2.555 10.851,2.711 10.467,2.937C10.015,3.204 9.624,3.566 9.318,3.992C9.469,3.907 9.622,3.827 9.778,3.753L9.886,3.702C10.478,3.425 11.12,3.161 11.769,3.074C12.069,3.035 12.391,2.977 12.694,3.009C12.679,2.862 12.635,2.724 12.559,2.622Z"/>
                </g>
                <g id="FACE" transform="matrix(1,0,0,1,27.4168,23.8602)">
                    <path id="ðŸ–-Ink2" serif:id="ðŸ–-Ink" d="M6.608,12.805C6.134,12.619 5.71,12.309 5.401,11.913C5.293,11.775 5.265,11.63 5.288,11.497C5.313,11.347 5.405,11.211 5.531,11.121C5.657,11.029 5.815,10.984 5.967,11.007C6.1,11.027 6.231,11.097 6.336,11.241L6.358,11.27C6.542,11.509 6.782,11.705 7.055,11.832C7.318,11.954 7.613,12.01 7.918,11.977C8.499,11.914 8.899,11.613 9.324,11.204C9.377,11.152 9.43,11.099 9.483,11.045C9.516,10.995 9.563,10.964 9.614,10.947C9.672,10.929 9.736,10.93 9.796,10.95C9.853,10.969 9.904,11.005 9.939,11.054C9.971,11.1 9.99,11.156 9.984,11.222C9.945,11.646 9.714,12.025 9.385,12.322C9.021,12.652 8.538,12.88 8.083,12.961C7.582,13.049 7.071,12.986 6.608,12.805ZM8.319,6.26C8.852,6.571 9.665,7.297 9.091,8.068C8.416,8.748 7.444,7.968 6.965,7.616C6.521,7.342 6.022,8.045 6.434,8.364C9.895,10.824 11.3,6.342 8.589,5.894C8.29,5.845 8.179,6.164 8.319,6.26ZM2.116,3.399C2.175,2.697 3.288,2.537 3.399,3.232C3.498,3.854 3.382,4.426 3.09,4.986C2.811,5.521 2.109,5.271 2.056,4.784C1.985,4.131 2.079,3.835 2.116,3.399ZM10.594,3.088C10.749,2.893 10.973,2.759 11.242,2.835C12.081,3.07 11.834,4.214 11.539,4.77C11.379,5.073 10.861,5.149 10.627,4.883C10.246,4.449 10.063,3.582 10.548,3.155C10.561,3.133 10.576,3.11 10.594,3.088ZM3.078,0.327L3.21,0.305C3.621,0.237 4.13,0.172 4.421,0.488C4.574,0.656 4.627,0.968 4.421,1.128C4.057,1.411 3.655,1.302 3.219,1.325C2.859,1.345 2.514,1.402 2.168,1.497C1.409,1.706 0.79,2.086 0.142,2.503C0.057,2.558 -0.03,2.454 0.01,2.377C0.385,1.673 1.11,1.095 1.837,0.743C2.224,0.555 2.649,0.399 3.078,0.327ZM9.829,0.012L9.93,0.032C11.034,0.254 12.469,0.696 12.992,1.737C13.012,1.884 12.991,1.916 12.974,1.936L12.968,1.943C12.954,1.961 12.943,1.985 12.876,2.005C12.858,2.001 12.839,1.997 12.82,1.992C12.581,1.932 12.391,1.848 12.207,1.762L12.008,1.668C11.777,1.559 11.544,1.455 11.297,1.377C10.771,1.212 10.229,1.096 9.678,1.034C9.559,1.021 9.444,0.982 9.353,0.916C9.267,0.853 9.202,0.766 9.172,0.65C9.133,0.501 9.144,0.387 9.228,0.252C9.291,0.151 9.381,0.08 9.484,0.04C9.589,-0.001 9.709,-0.011 9.829,0.012Z"/>
                </g>
            </g>
        </g>
    </g>
</svg>
