<svg width="107" height="73" viewBox="0 0 107 73" fill="none" xmlns="http://www.w3.org/2000/svg">
<path fill-rule="evenodd" clip-rule="evenodd" d="M47.4771 0.655431C46.5845 11.9685 46.2 45.6462 46.2248 45.667C46.5769 45.9646 80.1365 45.2829 80.2172 45.1896C81.1211 44.1469 82.4108 0.77445 82.182 0.410121C81.8153 -0.173072 47.4771 0.655431 47.4771 0.655431Z" fill="#212121"/>
<path fill-rule="evenodd" clip-rule="evenodd" d="M46.4566 45.4491C46.4566 45.6805 80.015 45.0689 80.0537 44.9261C80.8937 41.6798 82.1034 2.99014 81.9798 0.567447C79.5515 0.126086 50.0867 0.704318 47.5714 0.753909C46.9116 9.31599 46.5023 36.931 46.4566 45.4491ZM82.1573 0.16113C82.2287 0.175549 82.2939 0.211558 82.3441 0.26428C82.4245 0.363462 82.4271 0.470579 82.4284 1.32222C82.4284 6.8728 81.3744 43.6513 80.4547 45.2868C80.3433 45.4851 80.2871 45.4547 79.0837 45.4918C76.6636 45.5638 47.3704 46.2158 46.1809 45.9014C46.1237 45.8884 46.073 45.8554 46.038 45.8084C46.0029 45.7614 45.9859 45.7033 45.9898 45.6448C45.9746 43.7323 46.4527 11.9268 47.3754 0.649107C47.4938 0.658364 47.5268 0.661009 47.3754 0.649107C47.3959 0.519178 46.9397 0.560834 54.7645 0.368421C56.5785 0.323458 80.4597 -0.281554 82.1573 0.16113Z" fill="#212121"/>
<path fill-rule="evenodd" clip-rule="evenodd" d="M48.7792 2.08972C47.9553 12.6755 47.6013 44.1887 47.6241 44.2092C47.9491 44.4872 78.8969 43.8498 78.9713 43.7625C79.8048 42.7869 80.9943 2.2018 80.7834 1.86094C80.4452 1.31478 48.7792 2.08972 48.7792 2.08972Z" fill="white"/>
<path fill-rule="evenodd" clip-rule="evenodd" d="M47.8412 44.0217C49.5273 44.1258 58.654 43.9721 60.482 43.9423C81.3628 43.5876 77.4421 43.5406 78.8132 43.5406C79.5812 40.7966 80.7122 4.23998 80.5985 2.00541C78.4164 1.59016 51.0332 2.13765 48.869 2.18129C48.2085 11.0036 47.8412 39.9539 47.8412 44.0217ZM80.8028 1.6424C81.0177 1.72175 80.9965 1.87383 81.0041 2.1155C81.0831 5.16536 80.0887 41.9537 79.2053 43.8233C79.1888 43.8702 79.1593 43.9114 79.1202 43.9421C79.0812 43.9729 79.0342 43.9919 78.9848 43.9969C78.0796 44.0924 48.392 44.7136 47.5522 44.4151C47.376 44.3391 47.4048 44.1939 47.4054 44.0022C47.462 35.6563 47.9797 10.712 48.6842 2.08112C48.7801 2.08872 48.8353 2.09269 48.6842 2.08112C48.7027 1.96342 48.6842 1.99714 50.1363 1.95747C51.7407 1.91614 79.3504 1.15376 80.8044 1.6424H80.8028Z" fill="#212121"/>
<path fill-rule="evenodd" clip-rule="evenodd" d="M80.2624 23.645L80.2766 23.6523C80.2856 23.6584 80.2936 23.6658 80.3004 23.6741L80.309 23.6877C80.3139 23.6973 80.3171 23.7077 80.3186 23.7184V23.7343C80.2214 23.7307 80.1698 23.7287 80.3186 23.7343C80.2158 26.9699 79.7986 39.944 79.3242 43.141C79.2884 43.3754 79.2332 43.7976 79.0795 43.9265C78.7783 44.0891 48.2407 44.7352 47.5253 44.4224C47.3481 44.3265 47.3871 44.1748 47.3881 43.949C47.396 42.5469 47.5448 31.3594 47.5865 31.206C47.6506 31.0708 47.7015 31.0791 48.0596 30.9452C55.6665 28.1181 63.5981 26.1821 71.7066 24.6256C75.9986 23.8097 77.3891 23.9188 79.7341 23.689C80.272 23.6344 80.2188 23.6292 80.2624 23.645ZM80.1011 23.8407C78.1624 24.0801 77.2136 24.0203 74.6427 24.3972C71.7393 24.8319 63.9773 26.4955 57.6717 28.2871C54.3798 29.2267 51.2909 30.2175 48.0295 31.4464C47.8714 40.3728 47.8642 42.4417 47.8576 44.0095C51.0846 44.2234 78.8091 43.5797 78.8421 43.5797C79.3737 41.8483 80.154 23.8325 80.1011 23.8391V23.8407Z" fill="#212121"/>
<path fill-rule="evenodd" clip-rule="evenodd" d="M17.7216 53.1088C16.0355 52.6661 14.4112 51.2756 13.2451 50.0566C9.0613 45.6843 7.9045 40.0366 10.6942 34.5865C13.0005 30.0797 18.9924 27.2186 23.8011 27.0791C38.1072 26.6632 42.5671 37.0211 43.7672 40.9061C43.9351 41.4499 45.328 43.5787 45.4007 43.6091C45.5723 43.6805 52.9118 40.142 54.1506 40.4472C54.5103 40.5358 54.8657 40.8995 55.151 41.1173C55.3672 41.2826 55.8883 41.5418 55.9792 41.8238C56.0893 42.164 55.7762 42.6685 55.6558 42.9773C53.9482 47.3566 50.1423 49.5025 45.4893 50.0282C44.3342 50.1604 42.6891 50.1935 41.3164 49.2506C38.5938 47.3827 39.4032 46.7651 37.5673 43.7004C37.0248 42.7473 36.2898 41.9176 35.409 41.2643C34.5282 40.6109 33.521 40.1482 32.4515 39.9057C25.1288 38.3366 23.0206 43.2025 21.8271 43.7156C20.8118 44.152 19.5224 44.0792 18.4347 43.9639C17.987 43.9159 16.8944 43.6772 16.4811 43.8604C16.2851 43.947 16.178 44.392 16.1442 44.5904C16.0887 44.9154 17.022 45.4691 17.9375 46.6451C18.7574 47.6977 19.0817 48.8446 19.5852 50.0504C19.693 50.3086 20.1585 51.0385 20.0312 51.311C19.9224 51.5424 19.5634 51.6535 19.3624 51.7857C18.8622 52.1147 17.7216 53.1088 17.7216 53.1088Z" fill="white"/>
<path fill-rule="evenodd" clip-rule="evenodd" d="M13.8691 50.8342C8.65607 45.9548 7.77864 39.8111 10.5918 34.3984C12.1863 31.369 15.3029 29.188 18.4887 27.9737C21.2949 26.9157 23.6918 26.6926 26.7678 26.9332C35.3447 27.6335 41.2881 32.7543 43.8479 40.3992C43.9944 40.8426 43.9435 40.952 44.9214 42.4926C45.0781 42.7393 45.3159 43.1056 45.4858 43.3433C46.8459 42.8345 52.9463 39.905 54.2165 40.2224C54.6846 40.3434 55.043 40.7745 55.4847 41.0611C55.7646 41.2065 56.0022 41.4216 56.1747 41.6856C56.3598 42.0916 56.0755 42.5964 55.9003 42.9945C55.8391 43.1363 55.7495 43.3972 55.4956 43.9202C55.2047 44.5168 54.8635 45.0875 54.4757 45.6261C52.4107 48.4694 48.9972 49.8602 45.5142 50.2547C42.9513 50.5416 41.5168 49.924 39.9828 48.4876C38.9315 47.499 38.8435 46.7528 38.1645 45.2823C36.401 41.4945 34.1096 40.103 30.5486 39.8203C28.2747 39.6464 26.2755 40.1149 24.4505 41.5276C23.8261 42.0378 23.2411 42.5944 22.7006 43.1929C22.1131 43.7995 21.9548 43.865 21.5048 44.0002C19.5562 44.5741 17.15 43.7357 16.5374 43.988C16.4052 44.0511 16.3093 44.4508 16.2779 44.6161C16.2779 44.8614 17.2906 45.5534 18.1313 46.6957C19.0494 47.9566 19.3612 49.3769 19.7741 50.1895C19.8992 50.4165 20.0078 50.6521 20.0991 50.8947C20.3245 51.589 19.8171 51.5824 19.2649 51.9771C18.6186 52.4462 17.8037 53.1723 17.7564 53.1961L17.7422 53.2007L17.727 53.203C17.7169 53.2035 17.7069 53.2025 17.6972 53.2C17.722 53.1058 17.7356 53.0559 17.6972 53.2C16.2799 52.8301 14.9512 51.8399 13.8691 50.8342ZM20.7345 43.8428C21.1141 43.7965 21.4842 43.6921 21.8321 43.5334C22.8861 42.9152 24.8863 38.9502 30.7688 39.4504C34.3522 39.7655 36.6777 41.2152 38.4789 44.9335C39.2505 46.5413 39.27 47.2507 40.3825 48.2502C41.5949 49.3326 42.509 49.7227 43.7088 49.8387C45.2593 49.9783 47.361 49.5591 48.8504 49.0496C51.9816 47.9655 53.827 46.1902 55.0129 43.8445C55.3534 43.1674 55.3356 43.1003 55.5601 42.6163C55.6592 42.404 55.8503 42.0103 55.7254 41.8384C55.4966 41.6275 55.2469 41.4405 54.9802 41.2803C54.2155 40.674 54.228 40.5497 53.3566 40.7533C51.9335 41.1666 50.5398 41.6746 49.1846 42.2741C45.2742 43.9212 45.4177 44.03 45.1459 43.6679C44.8761 43.3006 44.4123 42.564 44.1739 42.17C43.1735 40.5047 43.717 40.992 42.6439 38.5769C39.512 31.5495 33.453 27.3343 24.7094 27.2834C23.7192 27.2624 22.7292 27.3364 21.7531 27.5045C17.5636 28.2378 13.0419 30.7283 10.9888 34.4099C8.11255 39.6114 8.87295 45.8526 14.0853 50.7301C15.092 51.6756 16.3632 52.6294 17.6995 53.0053C17.9951 52.7458 18.4579 52.353 18.8338 52.0535C19.0675 51.8455 19.329 51.6711 19.6108 51.5351C19.7282 51.4817 19.8321 51.4026 19.9149 51.3037C19.9309 51.2812 19.9418 51.2555 19.947 51.2284C19.9521 51.2013 19.9513 51.1734 19.9447 51.1466C19.909 50.9738 19.8491 50.8068 19.7668 50.6507C19.4921 50.1513 19.2628 49.6283 19.0815 49.0879C18.7647 48.1504 18.2847 47.2762 17.6635 46.5059C16.7708 45.4512 16.0666 45.0512 16.0104 44.6647C16.0245 44.4076 16.0961 44.1569 16.22 43.9311C16.6684 43.2077 18.5158 44.1427 20.7345 43.8428Z" fill="#212121"/>
<path fill-rule="evenodd" clip-rule="evenodd" d="M54.9175 44.7798L54.8699 44.9047L54.7453 44.8568C53.9882 43.6018 53.0514 42.4643 51.9648 41.4806C51.5972 41.1831 51.6977 41.3458 51.626 41.1418L51.7516 41.0991C53.1646 41.5706 54.4785 43.3687 54.9175 44.7798Z" fill="#212121"/>
<path fill-rule="evenodd" clip-rule="evenodd" d="M52.0131 43.8142C52.4454 44.8006 52.7219 45.8482 52.8326 46.9196C52.8482 47.0257 52.8588 46.9811 52.7761 47.1179C52.6389 47.0353 52.669 47.0697 52.6336 46.9685C51.9919 45.1359 51.6087 43.2968 50.2357 42.0917L50.2119 41.9614L50.3442 41.939C51.0909 42.3643 51.6772 43.0231 52.0131 43.8142Z" fill="#212121"/>
<path fill-rule="evenodd" clip-rule="evenodd" d="M48.0718 42.7327C48.6934 43.5165 48.9182 44.6396 48.9945 45.6331C49.0987 46.8783 49.0095 48.1322 48.73 49.3501L48.6236 49.4308L48.5429 49.3247C48.6196 47.6964 48.6606 44.6366 48.052 43.1241C47.8996 42.7545 47.9006 42.9102 47.9412 42.7056L48.0718 42.7327Z" fill="#212121"/>
<path fill-rule="evenodd" clip-rule="evenodd" d="M46.1962 43.4595C46.4306 45.0828 45.9175 46.8228 45.2516 48.33C45.0533 48.7741 44.6939 49.2078 44.486 49.6614C44.3008 50.077 44.4582 49.9318 44.2641 50.079C44.1715 49.9563 44.1828 49.9824 44.1854 49.9424C44.2492 49.1873 44.5898 48.9926 45.1835 47.2671C45.5518 46.2119 45.8153 45.1231 45.9704 44.0163C46.0464 43.3531 45.9512 43.5362 46.0983 43.3706L46.1962 43.4595Z" fill="#212121"/>
<path fill-rule="evenodd" clip-rule="evenodd" d="M30.4011 48.3923C26.9912 48.5732 23.8759 49.2817 20.5583 50.0702C17.563 50.7819 14.5521 51.6167 12.2084 53.7349C7.96311 57.57 6.48893 64.0201 12.1003 67.3474C14.9313 69.0259 18.3858 69.094 21.5603 68.5204C22.6239 68.3283 23.621 67.8889 24.6528 67.5897C24.8803 67.5236 25.4866 67.1622 25.7296 67.2393C26.0146 67.3295 26.0569 67.9666 26.0725 68.2007C26.1422 69.2299 26.2854 70.2326 26.4464 71.2502C26.4709 71.4039 26.6087 72.4272 26.8173 72.4255C27.2802 72.4219 27.5159 71.2459 27.6197 70.9236C28.027 69.6613 27.8511 67.5656 29.4959 67.3609C32.0955 67.0376 32.9491 67.357 35.5589 67.0677C36.2552 66.9907 38.5407 66.8128 39.1245 66.9923C39.514 67.112 39.5814 67.4072 40.2136 68.935C40.2582 69.0427 40.8602 70.9186 41.1918 70.3986C41.6216 69.7264 41.0543 67.1993 41.7334 66.7973C43.7868 65.5823 46.5983 65.5876 48.3763 63.4608C52.4315 58.6111 49.3717 51.539 44.3012 49.0463C42.6075 48.2135 40.6913 48.0776 38.8412 47.9715C36.1646 47.8177 30.4011 48.3923 30.4011 48.3923Z" fill="#212121"/>
<path fill-rule="evenodd" clip-rule="evenodd" d="M38.0156 47.817C39.4894 47.8263 41.5904 47.9771 43.0368 48.3956C48.8096 50.0817 52.7398 57.7125 48.9547 63.0663C47.2091 65.5082 45.1246 65.5713 42.78 66.5351C42.4537 66.6677 42.1378 66.8244 41.8347 67.0039C41.4208 67.3295 41.7303 69.3416 41.5184 70.1959C41.4417 70.5027 41.28 70.7804 40.9738 70.7083C40.597 70.6068 40.3063 69.8392 40.1645 69.4719C40.0534 69.1796 39.4306 67.4786 39.1862 67.2776C38.7495 66.9331 35.1069 67.357 34.4662 67.3966C32.8835 67.4918 32.0494 67.3695 30.4162 67.5004C29.6462 67.5636 29.1715 67.5732 28.8134 67.9091C28.1149 68.5723 28.2398 69.8302 27.6546 71.6449C27.5346 72.0086 27.3502 72.4857 27.002 72.6249C26.6754 72.7512 26.515 72.5376 26.4089 72.2139C26.1258 70.8807 25.9356 69.5295 25.8396 68.1699C25.8287 68.0182 25.7844 67.556 25.6647 67.4631C25.6112 67.4251 25.2058 67.6046 25.0881 67.6578C24.6018 67.8796 24.9744 67.7084 23.768 68.118C22.1202 68.7387 20.3747 69.0598 18.6138 69.0662C9.7886 69.2808 5.6451 62.6613 9.94697 56.0816C12.3002 52.548 15.3716 51.2137 19.4023 50.2047C23.1002 49.2866 26.8318 48.4773 30.3987 48.2994C30.3957 48.3311 34.7541 47.8068 38.0156 47.817ZM38.3039 66.6828C39.0034 66.6934 39.4378 66.699 39.7552 67.274C40.2029 68.1078 40.6892 69.7628 41.034 70.2025C41.3448 69.4051 40.8181 67.1635 41.5805 66.6253C42.4024 66.0633 44.3457 65.5343 45.3564 65.1617C46.0269 64.9292 46.6633 64.608 47.2488 64.2069C48.3431 63.3543 49.164 62.2001 49.6103 60.8866C51.0018 56.8807 48.9038 52.3474 45.521 49.9594C44.0518 48.9262 42.7033 48.4991 40.8747 48.2759C38.0612 47.9321 35.3687 48.0802 31.7016 48.3751C28.1549 48.6631 26.7554 48.7299 21.3638 50.0222C18.6628 50.6722 15.8774 51.3344 13.5684 52.8952C11.8081 54.1044 10.4005 55.7594 9.48941 57.691C7.67106 61.6398 8.75744 65.4801 12.8381 67.4991C15.4013 68.7584 18.3388 68.8146 21.1499 68.361C22.4562 68.1438 22.6463 67.9854 24.6021 67.3655C25.1724 67.1702 25.8915 66.5883 26.191 67.4859C26.3101 67.8638 26.2797 68.0972 26.3782 69.0397C26.4284 69.5122 26.6949 71.6615 26.8741 72.1336C26.8847 72.1607 26.8794 72.16 26.8979 72.1415C27.1515 71.877 27.3118 71.1249 27.4077 70.8247C27.7961 69.5525 27.658 67.5963 29.2002 67.1807C29.6414 67.1032 30.0865 67.0503 30.5336 67.0224C32.3919 66.8858 33.2717 67.0769 35.4739 66.8429C36.4138 66.7412 37.3584 66.6878 38.3039 66.6828Z" fill="#212121"/>
<path fill-rule="evenodd" clip-rule="evenodd" d="M25.8389 67.3099C25.9551 67.0313 26.1302 66.7812 26.3521 66.5765C26.574 66.3719 26.8375 66.2176 27.1246 66.1243C27.3213 66.0608 27.6205 66.3147 27.759 66.4219C28.2339 66.728 28.681 67.0752 29.095 67.4596C27.8774 67.935 27.9908 69.7739 27.6202 70.9231C27.5164 71.2454 27.28 72.4214 26.8178 72.425C26.6092 72.425 26.4713 71.4034 26.4469 71.2497C26.2859 70.2321 26.1427 69.2294 26.0733 68.2002C26.0788 67.8875 25.9977 67.5793 25.8389 67.3099Z" fill="white"/>
<path fill-rule="evenodd" clip-rule="evenodd" d="M27.2082 65.9541C27.4168 65.9843 27.6127 66.0732 27.7728 66.2103C28.2831 66.5238 28.766 66.8798 29.2163 67.2746C29.2517 67.3012 29.2788 67.3373 29.2945 67.3787C29.3102 67.4202 29.3138 67.4652 29.3049 67.5086C29.2387 67.7139 29.1194 67.6124 28.8225 67.8815C28.1573 68.5018 28.2086 69.7048 27.8234 71.058C27.6713 71.5933 27.4597 72.516 26.9265 72.6426C26.8426 72.666 26.753 72.6576 26.675 72.619C26.5969 72.5805 26.5358 72.5145 26.5033 72.4337C26.2947 72.037 26.1925 71.0121 26.1314 70.5185C25.8917 68.5256 25.9922 68.065 25.8818 67.6227C25.8027 67.3096 25.7095 67.3913 25.7535 67.2706C25.8883 66.9277 26.1027 66.6217 26.379 66.3779C26.6131 66.1659 26.8992 66.0197 27.2082 65.9541ZM26.8233 66.4103C26.4459 66.6058 26.1404 66.9162 25.9509 67.2967C26.1849 67.6052 26.1998 68.2412 26.2854 68.9058C26.3254 69.2099 26.7873 72.2476 26.8875 72.154C26.9794 72.0484 27.0517 71.9273 27.101 71.7963C27.8142 70.0844 27.5407 68.1398 28.7326 67.3992C28.5073 67.2036 28.2709 67.021 28.0248 66.8524C27.5847 66.5323 27.3563 66.2831 27.1913 66.2738C27.1884 66.2735 27.1856 66.2735 27.1827 66.2738C27.0583 66.3055 26.938 66.3513 26.824 66.4103H26.8233Z" fill="#212121"/>
<path fill-rule="evenodd" clip-rule="evenodd" d="M39.0342 66.9698C39.9012 66.8077 40.7866 66.7668 41.6648 66.8485C41.0932 67.3775 41.6047 69.7506 41.1914 70.3986C40.8608 70.9179 40.2578 69.0431 40.2131 68.935C39.5794 67.4033 39.5182 67.067 39.0342 66.9698Z" fill="white"/>
<path fill-rule="evenodd" clip-rule="evenodd" d="M41.7215 66.6473C41.7657 66.6594 41.8047 66.6857 41.8325 66.7221C41.8604 66.7585 41.8755 66.8031 41.8756 66.8489C41.8594 67.0446 41.6967 66.9441 41.6266 67.5911C41.5374 68.4606 41.7149 69.7252 41.4703 70.3616C41.3106 70.7623 41.0272 70.8023 40.7925 70.6142C40.3627 70.2462 40.1154 69.2005 39.5884 67.8136C39.5226 67.5813 39.4102 67.3649 39.2578 67.1776C39.1028 67.0453 38.9907 67.0932 38.9487 67.0017C38.9443 66.9891 38.9426 66.9758 38.9437 66.9626C38.9448 66.9493 38.9487 66.9365 38.9552 66.9249C38.9617 66.9133 38.9706 66.9032 38.9812 66.8953C38.9919 66.8874 39.0042 66.8818 39.0172 66.879C39.0261 66.922 39.0482 67.0251 39.0172 66.879C39.9009 66.6603 40.8135 66.5821 41.7215 66.6473ZM41.1013 70.2664L41.0977 70.2644L41.1013 70.2664ZM39.4086 67.0169C39.6747 67.2215 39.9174 67.7998 40.0718 68.1337C40.2463 68.4836 40.403 68.8421 40.5413 69.2078C40.6674 69.5558 40.8323 69.8885 41.0329 70.1996C41.2276 69.6879 41.0752 68.4444 41.1849 67.5386C41.2048 67.3613 41.2462 67.1871 41.3083 67.0198C40.6758 66.9661 40.0399 66.9651 39.4073 67.0169H39.4086Z" fill="#212121"/>
<path fill-rule="evenodd" clip-rule="evenodd" d="M44.7153 55.0836C45.0971 55.0805 45.4775 55.1285 45.8466 55.2261L45.9147 55.3392L45.801 55.407C45.0822 55.2831 44.3462 55.2994 43.6335 55.4549C41.4733 55.8387 40.6842 56.0589 38.5485 57.222C36.7004 58.23 35.5889 58.9355 30.6959 63.0701C26.4499 66.6738 27.5792 66.0859 27.1868 66.2046L27.1484 66.0767C27.1943 65.9946 27.2479 65.9171 27.3085 65.8452C28.5294 64.3509 32.7384 60.6435 35.4956 58.593C36.3813 57.9113 37.3308 57.3168 38.3309 56.8177C39.3005 56.2612 40.3363 55.8289 41.4138 55.5309C42.4993 55.2863 43.6039 55.1367 44.7153 55.0836Z" fill="white"/>
<path fill-rule="evenodd" clip-rule="evenodd" d="M44.9402 43.1792C44.0123 45.3766 42.4584 47.2524 40.4721 48.5731L40.3398 48.5565L40.356 48.4243C41.485 47.3707 42.5207 46.2215 43.4519 44.9896C45.0219 42.8859 44.6278 43.1422 44.9006 43.0532L44.9402 43.1792Z" fill="#212121"/>
<path fill-rule="evenodd" clip-rule="evenodd" d="M27.6543 60.0986C28.4734 60.2179 29.2787 60.4172 30.0588 60.6937C31.4781 61.2528 31.3092 61.3734 31.778 61.6032C31.9598 61.6885 31.8861 61.6105 31.986 61.7711C31.8557 61.8518 31.8831 61.8439 31.8378 61.8373C31.4533 61.7619 31.3059 61.5787 30.7068 61.3711C29.6926 60.9915 28.6417 60.7183 27.571 60.5558C26.2225 60.2933 25.6026 60.0292 24.8557 60.0027C24.7714 59.9997 24.8108 60.0196 24.6904 59.9138C24.7952 59.7968 24.7622 59.8146 24.8481 59.806C25.7097 59.7068 26.7061 59.933 27.6543 60.0986Z" fill="white"/>
<path fill-rule="evenodd" clip-rule="evenodd" d="M9.67607 44.0958C11.0385 48.7068 15.1807 52.4423 17.7211 53.1088C17.7211 53.1088 18.8617 52.1147 19.3619 51.7864C19.5629 51.6541 19.9219 51.544 20.0307 51.3116C20.158 51.0392 19.6925 50.3092 19.5847 50.051C19.0812 48.8453 18.7582 47.6984 17.937 46.6458C17.0341 45.486 16.0885 44.9144 16.1438 44.591C16.286 44.306 16.4661 44.0414 16.679 43.8045C16.679 43.8045 17.9866 43.9166 18.4342 43.9645C19.5219 44.0812 20.8113 44.1526 21.8266 43.7162C23.0201 43.2031 25.2037 38.2797 32.5264 39.8481C34.7232 40.3192 36.417 41.6513 37.7397 43.8789C38.3679 44.9368 38.7765 45.6572 39.3022 47.9844C39.5693 49.163 39.771 50.4415 39.4559 51.5447C38.7177 54.1274 36.1009 57.3379 30.7279 57.1406C25.4623 56.9472 25.9261 57.7281 24.2463 59.471C23.2399 60.5304 22.0649 61.4157 20.769 62.0908C9.8265 67.4866 -0.133392 52.1077 8.46241 44.9104C8.83626 44.5957 9.2432 44.3225 9.67607 44.0958Z" fill="white"/>
<path fill-rule="evenodd" clip-rule="evenodd" d="M17.6452 52.9272C17.7242 52.9494 17.8684 52.7289 18.8929 51.9262C19.1188 51.7353 19.3688 51.5751 19.6365 51.4494C19.7349 51.4032 19.8186 51.3305 19.8781 51.2395C19.878 51.0659 19.8301 50.8957 19.7396 50.7475C19.5293 50.3637 19.3471 49.9652 19.1944 49.555C18.5451 47.906 18.2767 47.1945 17.0895 45.9789C16.0547 44.9242 15.7065 44.8429 16.1049 44.229C16.2349 44.0373 16.375 43.8527 16.5244 43.6758C16.622 43.5767 16.6372 43.6008 17.1324 43.6428C18.7405 43.779 20.1248 44.0091 21.3483 43.6613C21.9104 43.4983 21.9765 43.4097 22.724 42.6212C23.3217 41.9603 23.9889 41.3658 24.7139 40.8478C26.9766 39.3006 29.4453 39.0625 32.1007 39.534C34.9109 40.0478 36.5755 41.4618 38.0516 43.9579C38.5432 44.7564 38.919 45.6206 39.1678 46.5247C39.4449 47.4755 39.653 48.445 39.7906 49.4258C39.8938 50.1157 39.8658 50.8189 39.708 51.4984C39.0864 53.9039 37.0423 56.2786 33.7699 57.0889C32.1361 57.4807 30.9598 57.3709 29.846 57.3475C24.6855 57.2483 26.4513 58.3089 22.6678 61.166C13.5374 67.9944 2.98969 58.0133 5.40478 49.356C6.0498 47.085 7.57044 45.1633 9.63227 44.0134C9.64442 44.007 9.65784 44.0034 9.67156 44.0028C9.68527 44.0023 9.69895 44.0047 9.71159 44.0101C9.72424 44.0154 9.73554 44.0235 9.74469 44.0337C9.75384 44.044 9.76061 44.0561 9.76451 44.0693C11.0836 48.3989 15.005 52.1867 17.6452 52.9272ZM28.0048 39.932C24.2081 40.6759 22.9465 43.5132 21.7821 43.9635C20.3208 44.5149 18.4645 44.1651 16.7648 44.0131C16.6009 44.2002 16.4579 44.4046 16.3383 44.6227C16.3383 44.755 16.8785 45.1755 17.586 45.9422C18.7884 47.2484 19.0314 48.2108 19.6755 49.8156C19.9505 50.4993 20.4088 51.0616 20.1337 51.464C19.9605 51.6489 19.7484 51.7932 19.5128 51.8865C19.0062 52.2409 18.5191 52.6223 18.0535 53.0291C17.7933 53.2506 17.8082 53.2529 17.7308 53.2641C17.4045 53.2053 17.0893 53.0961 16.7965 52.9405C14.1044 51.7172 10.7828 48.105 9.61772 44.2329C9.37989 44.364 9.15055 44.5098 8.93105 44.6697C3.76497 48.4578 4.49065 55.8796 9.26165 60.2271C13.3453 63.9226 18.9455 64.0512 23.4715 59.9103C25.2968 58.216 25.2237 57.3078 27.3476 56.9954C30.001 56.6135 31.906 57.365 34.6788 56.3199C36.3826 55.6895 37.799 54.461 38.6639 52.8634C39.3273 51.7517 39.549 50.4314 39.2851 49.1639C39.0991 47.9685 38.7987 46.7936 38.3882 45.6555C37.9456 44.6102 37.3676 43.6277 36.669 42.733C35.8628 41.6838 34.7862 40.8739 33.5547 40.3899C31.7717 39.7778 29.864 39.6204 28.0048 39.932Z" fill="#212121"/>
<path fill-rule="evenodd" clip-rule="evenodd" d="M58.792 35.0123C58.792 35.0123 59.5259 37.0932 59.8863 38.1009C59.9828 38.3713 60.046 38.6553 60.1531 38.9218C60.1759 38.9783 60.1987 39.1495 60.2523 39.1862C60.3554 39.258 60.6682 39.1502 60.768 39.1234C62.3186 38.7032 63.156 38.3191 63.8053 38.1018C64.3485 37.9203 64.9238 37.7144 65.2788 37.2327C65.5332 36.8758 65.6416 36.4353 65.582 36.0012C65.5443 34.8397 64.8216 33.8542 63.6073 33.797C62.0614 33.7236 59.8985 34.6708 58.792 35.0123Z" fill="#212121"/>
<path fill-rule="evenodd" clip-rule="evenodd" d="M58.702 35.0435C58.7929 35.0105 58.8448 34.993 58.702 35.0435C58.6957 35.0244 58.6957 35.0038 58.702 34.9847C58.735 34.905 58.6841 34.9721 59.6773 34.584C60.7596 34.1088 61.8999 33.7784 63.0686 33.6014C63.6736 33.5006 64.2943 33.6324 64.806 33.9704C65.4173 34.4058 65.8345 35.147 65.816 36.2847C65.8205 36.5739 65.7545 36.8598 65.6236 37.1178C65.2249 37.8693 64.5253 38.0994 63.7722 38.3546C63.2346 38.5401 62.7473 38.7513 62.1982 38.9166C62.2312 38.9166 60.8476 39.3345 60.5497 39.3943C60.3633 39.4294 60.1735 39.4363 60.0634 39.2809C60.016 39.1907 59.9832 39.0935 59.9662 38.993V38.998C59.8333 38.5936 58.7145 35.0786 58.702 35.0435ZM60.4026 39.0585L60.4006 39.0548L60.4026 39.0581L60.4003 39.0538V39.0558L60.398 39.0525L60.4026 39.0585ZM58.9159 35.0736C59.8885 37.6018 60.2112 38.4128 60.3821 39.0026C60.5749 38.9884 62.0666 38.4901 62.0682 38.4901C62.5813 38.3298 63.1553 38.0775 63.7814 37.8653C64.3838 37.6603 64.9584 37.4355 65.2321 36.8563C65.3844 36.387 65.3935 35.883 65.2583 35.4085C64.5458 32.9115 61.3991 34.3615 58.9159 35.0736Z" fill="#212121"/>
<path fill-rule="evenodd" clip-rule="evenodd" d="M32.1986 48.8143C31.6094 48.0496 30.8123 45.3885 30.9955 45.204C31.4312 44.765 59.2793 35.835 59.2793 35.835L60.1809 38.6256L32.1986 48.8143Z" fill="white"/>
<path fill-rule="evenodd" clip-rule="evenodd" d="M30.8437 45.2821C30.8416 45.2441 30.8494 45.2062 30.8662 45.172C30.8829 45.1379 30.9082 45.1086 30.9396 45.087C31.9499 44.4235 59.1153 35.5797 59.3275 35.6065C59.3677 35.6149 59.4049 35.6339 59.4354 35.6614C59.4658 35.6889 59.4884 35.7241 59.5008 35.7632C60.4711 38.7674 60.3977 38.5347 60.4113 38.5926C60.4183 38.6427 60.4088 38.6937 60.3843 38.738C60.3598 38.7823 60.3216 38.8175 60.2754 38.8382C60.154 38.8944 32.265 48.9879 32.1334 48.8817L32.1235 48.8708C32.2418 48.7802 32.2008 48.8116 32.1235 48.8708C31.5578 48.1405 30.8129 45.817 30.8437 45.2821ZM31.1164 45.2774C30.9617 45.3535 31.6104 47.7147 32.1936 48.6424C32.2994 48.8054 32.2511 48.5468 59.8879 38.4831C59.8879 38.5162 59.7765 38.1383 59.1275 36.1289C57.5783 36.6248 32.3562 44.683 31.1164 45.2774Z" fill="#212121"/>
<path d="M59.602 34.8893C59.5499 34.8893 59.4994 34.872 59.4583 34.8401C59.4172 34.8082 59.3878 34.7635 59.3748 34.7131C59.3008 34.4258 59.1973 34.1336 59.1371 33.8245C59.1252 33.7633 59.1381 33.7 59.1729 33.6484C59.2078 33.5968 59.2616 33.5611 59.3228 33.5492C59.3839 33.5374 59.4472 33.5502 59.4988 33.585C59.5504 33.6199 59.5861 33.6738 59.598 33.7349C59.6529 34.0172 59.753 34.2999 59.8294 34.5961C59.8383 34.6308 59.8392 34.6671 59.832 34.7021C59.8247 34.7372 59.8095 34.7702 59.7876 34.7985C59.7656 34.8268 59.7375 34.8497 59.7053 34.8654C59.6731 34.8812 59.6378 34.8894 59.602 34.8893Z" fill="#212121"/>
<path d="M60.965 34.4317C60.9185 34.4317 60.8731 34.4178 60.8345 34.3919C60.7959 34.366 60.7658 34.3292 60.7481 34.2862C60.6205 33.9798 60.5279 33.66 60.4721 33.3328C60.4633 33.2711 60.4794 33.2085 60.5168 33.1587C60.5542 33.1089 60.6098 33.0761 60.6714 33.0673C60.7331 33.0585 60.7957 33.0746 60.8455 33.112C60.8952 33.1494 60.9281 33.205 60.9369 33.2666C60.987 33.5553 61.0692 33.8374 61.1822 34.1077C61.1968 34.1434 61.2024 34.1821 61.1985 34.2204C61.1946 34.2587 61.1813 34.2955 61.1599 34.3275C61.1384 34.3595 61.1094 34.3858 61.0754 34.4039C61.0415 34.4221 61.0035 34.4316 60.965 34.4317Z" fill="#212121"/>
<path d="M61.3623 40.1054C61.3076 40.1056 61.2545 40.0866 61.2123 40.0519C61.17 40.0171 61.1412 39.9687 61.1308 39.915C61.0227 39.6377 60.9451 39.3495 60.8994 39.0554C60.8991 38.9931 60.9235 38.9333 60.9672 38.889C61.011 38.8448 61.0706 38.8197 61.1328 38.8193C61.1951 38.819 61.2549 38.8434 61.2992 38.8872C61.3435 38.9309 61.3685 38.9905 61.3689 39.0528C61.4305 39.3145 61.5052 39.5731 61.5927 39.8274C61.5991 39.8613 61.598 39.8961 61.5894 39.9295C61.5808 39.9629 61.5649 39.994 61.5429 40.0206C61.5209 40.0471 61.4933 40.0685 61.4621 40.0832C61.4308 40.0978 61.3968 40.1054 61.3623 40.1054Z" fill="#212121"/>
<path d="M62.7411 39.6572C62.691 39.6571 62.6423 39.641 62.602 39.6113C62.5618 39.5816 62.5321 39.5397 62.5172 39.4919C62.3924 39.2226 62.3072 38.9366 62.2643 38.6429C62.262 38.6115 62.266 38.5799 62.2761 38.5501C62.2862 38.5202 62.3022 38.4927 62.3232 38.4692C62.3441 38.4457 62.3696 38.4266 62.3981 38.4131C62.4266 38.3997 62.4575 38.3921 62.489 38.3908C62.5205 38.3895 62.5519 38.3946 62.5814 38.4058C62.6108 38.4169 62.6378 38.4339 62.6606 38.4556C62.6833 38.4774 62.7015 38.5035 62.714 38.5325C62.7264 38.5614 62.733 38.5926 62.7331 38.6241C62.7819 38.8747 62.8595 39.1187 62.9646 39.3514C62.9757 39.3866 62.9785 39.4239 62.9725 39.4603C62.9666 39.4967 62.9521 39.5312 62.9304 39.561C62.9086 39.5908 62.8801 39.615 62.8472 39.6317C62.8143 39.6485 62.778 39.6572 62.7411 39.6572Z" fill="#212121"/>
<path d="M62.3754 34.0017C62.3254 34.0015 62.2767 33.9854 62.2364 33.9556C62.1962 33.9259 62.1665 33.8841 62.1516 33.8364C62.0365 33.4707 61.6312 32.7169 62.0854 32.6763C62.1162 32.6735 62.1471 32.6767 62.1766 32.6859C62.206 32.6951 62.2333 32.71 62.257 32.7298C62.2806 32.7496 62.3002 32.7739 62.3144 32.8012C62.3287 32.8286 62.3374 32.8585 62.34 32.8892C62.4019 33.1653 62.4889 33.4352 62.5999 33.6955C62.6111 33.7308 62.6138 33.7682 62.6078 33.8047C62.6018 33.8412 62.5873 33.8758 62.5654 33.9056C62.5435 33.9354 62.5149 33.9597 62.4819 33.9764C62.4489 33.9931 62.4124 34.0017 62.3754 34.0017Z" fill="#212121"/>
<path d="M63.9973 39.2274C63.9524 39.2275 63.9083 39.2146 63.8705 39.1903C63.8326 39.1661 63.8025 39.1314 63.7838 39.0906C63.6322 38.8086 63.5263 38.5044 63.47 38.1893C63.4636 38.1274 63.482 38.0654 63.5212 38.017C63.5605 37.9687 63.6173 37.9379 63.6793 37.9314C63.7412 37.925 63.8032 37.9434 63.8516 37.9827C63.8999 38.0219 63.9307 38.0788 63.9372 38.1407C63.9911 38.4041 64.0832 38.6581 64.2106 38.8948C64.2269 38.9306 64.234 38.9699 64.2312 39.0091C64.2284 39.0483 64.2158 39.0862 64.1946 39.1192C64.1734 39.1523 64.1442 39.1796 64.1097 39.1985C64.0753 39.2174 64.0366 39.2273 63.9973 39.2274Z" fill="#212121"/>
<path fill-rule="evenodd" clip-rule="evenodd" d="M59.409 36.3575L59.3396 36.4716C58.6724 36.6369 14.2447 51.984 13.1081 52.5494L12.9824 52.5094L13.0224 52.3837C16.0971 50.7674 54.0508 37.6661 59.2044 36.3102C59.2374 36.3016 59.2602 36.2957 59.2946 36.2881L59.409 36.3575Z" fill="#212121"/>
<path fill-rule="evenodd" clip-rule="evenodd" d="M59.6854 37.0304L59.616 37.1444C58.9488 37.3097 14.5227 52.6572 13.3844 53.2222L13.2588 53.1822L13.2988 53.0566C16.3734 51.4402 54.3272 38.3389 59.4807 36.9831C59.5138 36.9748 59.5366 36.9685 59.571 36.9609L59.6854 37.0304Z" fill="#212121"/>
<path fill-rule="evenodd" clip-rule="evenodd" d="M59.9627 37.7623L59.8933 37.8764C59.2265 38.0417 14.8 53.3891 13.6618 53.9541L13.5361 53.9141L13.5761 53.7885C16.6508 52.1722 54.6046 39.0708 59.7581 37.715C59.7911 37.7068 59.8139 37.7005 59.8483 37.6929L59.9627 37.7623Z" fill="#212121"/>
<path fill-rule="evenodd" clip-rule="evenodd" d="M60.2043 38.4705L60.1345 38.5845C59.4677 38.7498 15.0396 54.0973 13.903 54.6626L13.7773 54.6223L13.8177 54.4967C16.893 52.8807 54.8468 39.779 59.9996 38.4235C60.0327 38.4153 60.0555 38.4093 60.0899 38.4014L60.2043 38.4705Z" fill="#212121"/>
<path fill-rule="evenodd" clip-rule="evenodd" d="M54.1768 40.4544C54.3391 40.299 54.5226 40.1548 54.6704 40.0275C54.7583 39.9522 54.9712 39.8513 54.9795 39.7187C54.9629 39.5573 54.911 39.4016 54.8274 39.2625C54.7123 38.9944 54.6201 38.7173 54.508 38.4479C54.4419 38.2859 54.3368 38.0479 54.4869 37.8997C54.5233 37.8655 54.5668 37.8396 54.6143 37.824C54.6618 37.8084 54.7122 37.8034 54.7618 37.8095C54.8115 37.8155 54.8592 37.8324 54.9016 37.8589C54.944 37.8854 54.9801 37.9209 55.0072 37.9629C55.2473 38.2985 55.3379 38.7468 55.5894 39.0684C55.6304 39.1207 55.6086 37.8121 56.0986 37.5073C56.245 37.4164 56.3356 37.5225 56.3836 37.671C56.4872 38.0494 56.5339 38.4412 56.5221 38.8334C56.5404 38.4232 56.6866 38.0291 56.9403 37.7063C57.0064 37.6161 57.1965 37.3956 57.3278 37.505C57.5767 37.713 57.5222 38.3573 57.5205 38.638C57.5549 39.079 57.5142 39.5227 57.4002 39.9502C57.2614 40.1828 57.0839 40.3901 56.8755 40.5631C56.537 40.9235 56.1991 41.2789 55.8543 41.632C55.634 41.4413 55.3984 41.2691 55.1497 41.1172C54.8654 40.8426 54.5364 40.6185 54.1768 40.4544Z" fill="white"/>
<path fill-rule="evenodd" clip-rule="evenodd" d="M54.7502 37.6139C54.8515 37.6225 54.949 37.6567 55.0336 37.7132C55.1181 37.7698 55.1869 37.8468 55.2335 37.9372C55.5883 38.4903 55.3681 38.5525 55.5598 37.9313C55.616 37.7243 55.7267 37.5362 55.8802 37.3864C55.9159 37.3438 55.9601 37.3092 56.0099 37.2846C56.0598 37.2601 56.1142 37.2463 56.1698 37.244C56.2253 37.2417 56.2807 37.2511 56.3324 37.2714C56.3841 37.2918 56.431 37.3228 56.47 37.3623C56.557 37.4671 56.6161 37.5922 56.6416 37.726C56.6568 37.6962 56.7603 37.5567 56.7808 37.5306C56.8373 37.4351 56.9203 37.3581 57.0197 37.3089C57.1191 37.2597 57.2307 37.2403 57.3408 37.2532L57.3607 37.2591L57.3802 37.2664C57.7174 37.4063 57.7574 37.9276 57.7574 38.2913C57.7574 38.3244 57.7465 39.1644 57.7432 39.2408C57.7048 40.1735 57.4509 40.2786 57.0363 40.6836C56.8763 40.8436 56.9461 40.7857 55.9701 41.7415C55.9458 41.7663 55.9142 41.7825 55.8799 41.7877C55.8457 41.793 55.8106 41.787 55.78 41.7706C55.7357 41.7425 55.7519 41.7491 55.6904 41.6883C55.5046 41.5075 55.2074 41.3445 54.9347 41.1044C54.7159 40.8796 54.4611 40.6927 54.1809 40.5517C54.1399 40.5361 54.1296 40.5375 54.1055 40.5103C54.0909 40.4921 54.0837 40.4691 54.0851 40.4458C54.0866 40.4225 54.0967 40.4006 54.1134 40.3844L54.1329 40.4049L54.1128 40.3834C54.5941 39.8905 54.7849 39.828 54.848 39.7192L54.8461 39.7228L54.85 39.7146L54.848 39.7185L54.8514 39.7106L54.8494 39.7152L54.852 39.708L54.85 39.7129V39.706V39.7116V39.705V39.7109C54.85 39.5787 54.7674 39.5056 54.5783 39.0577C54.2606 38.2883 54.3039 38.4189 54.2652 38.2992C54.231 38.2219 54.2174 38.1369 54.2258 38.0527C54.2342 37.9686 54.2643 37.888 54.3132 37.8189C54.3621 37.7499 54.428 37.6947 54.5046 37.6587C54.5812 37.6228 54.6658 37.6073 54.7502 37.6139ZM56.8991 38.2301C56.6892 38.7032 56.8373 38.8844 56.6548 39.0352C56.6052 39.0696 56.5442 39.0835 56.4846 39.0738C56.425 39.0642 56.3714 39.0319 56.3351 38.9836C56.2468 38.8461 56.3166 38.7214 56.269 38.2778C56.2516 38.0973 56.2166 37.9191 56.1645 37.7455C56.0446 37.8998 55.965 38.0816 55.9331 38.2744C55.8739 38.5409 55.819 38.9813 55.8164 39.0401C55.8191 39.0805 55.8114 39.121 55.7941 39.1575C55.7767 39.1941 55.7502 39.2256 55.7172 39.2491C55.7021 39.2594 55.6859 39.2679 55.6689 39.2745C55.6418 39.2844 55.6131 39.289 55.5843 39.2881C55.5626 39.287 55.5411 39.283 55.5205 39.2762C55.2296 39.1489 55.013 38.2275 54.8113 38.0404C54.7855 38.0138 54.7502 37.9985 54.7131 37.9976C54.676 37.9967 54.6401 38.0104 54.613 38.0357L54.6153 38.0331C54.5356 38.1075 54.6414 38.3075 54.8672 38.9462C55.0504 39.4855 55.2868 39.7314 54.9165 40.0009C54.7228 40.128 54.5376 40.2676 54.3621 40.4188C54.716 40.6242 55.0555 40.8535 55.3783 41.1051C55.539 41.1958 55.6937 41.2968 55.8412 41.4076C56.1149 41.1101 56.2981 40.9058 56.5576 40.6142C57.2866 39.8071 57.3051 40.0134 57.2909 38.7115C57.3205 38.3859 57.2958 38.0577 57.2178 37.7402C57.0861 37.8854 56.9784 38.0508 56.8991 38.2301Z" fill="#212121"/>
<path fill-rule="evenodd" clip-rule="evenodd" d="M63.8769 1.8055C64.1973 2.51134 64.0329 25.8737 63.626 36.5005C63.3056 44.8873 63.3525 44.0241 63.2712 44.2093L63.1426 44.2638H63.1403L63.0127 44.2076L62.9565 44.0754C62.9565 40.7306 62.7069 38.6392 63.0867 18.4374C63.3013 7.07175 63.5592 3.83212 63.5592 1.94237L63.6147 1.81012L63.744 1.75293H63.7463L63.8769 1.8055Z" fill="#212121"/>
<path fill-rule="evenodd" clip-rule="evenodd" d="M79.6769 36.1192C75.6071 36.6885 70.843 35.9165 69.6707 33.8049C68.0507 30.8913 69.1609 15.3593 72.833 10.6683C74.5915 8.42019 77.4615 6.12048 80.513 6.64152C80.588 6.65441 80.6664 6.66433 80.7474 6.67293C80.5897 13.8795 80.1483 27.5349 79.6769 36.1192Z" fill="white"/>
<path fill-rule="evenodd" clip-rule="evenodd" d="M76.5592 36.4126C74.1577 36.3663 70.2949 35.8082 69.3761 33.5822C68.1106 30.4676 68.7714 19.8339 71.0007 13.715C71.7281 11.7433 72.3592 10.8443 73.0888 9.99104C75.0335 7.73894 77.641 5.96093 80.6052 6.42048C80.7854 6.4466 80.868 6.42709 80.9547 6.56694C81.1279 6.98879 79.9671 36.0433 79.7208 36.2006C79.7113 36.2054 79.701 36.2086 79.6904 36.2102C79.6769 36.1137 79.6699 36.0628 79.6904 36.2102C78.6538 36.3619 77.6067 36.4296 76.5592 36.4126ZM77.5203 7.21989C75.6385 7.96012 73.8334 9.63828 72.8121 11.09C69.8132 15.3965 68.4309 28.1801 69.4932 32.7779C69.5589 33.2019 69.7206 33.6053 69.966 33.9573C70.2113 34.3093 70.5338 34.6006 70.9088 34.8091C73.1024 36.195 76.9821 36.3759 79.5883 36.036C80.0779 25.1302 80.5447 6.88366 80.4756 6.87242C79.4773 6.71489 78.4549 6.8351 77.5203 7.21989Z" fill="#212121"/>
<path fill-rule="evenodd" clip-rule="evenodd" d="M73.8821 22.0405C74.6623 23.2611 78.5589 28.9584 78.5827 28.9931C78.706 29.1733 78.6819 29.1135 78.6819 29.536C78.6819 30.5652 78.6772 31.8036 78.6521 32.8318C78.6171 34.1605 78.3602 38.512 78.0273 41.0914C77.904 42.0333 77.7396 42.9759 77.5948 43.6596L77.4864 43.7353L77.4117 43.6255C77.8494 40.8782 77.8917 38.3655 78.0709 35.081C78.1575 33.5357 78.1929 33.5013 78.2141 30.7189C78.2256 29.1244 78.227 29.2864 78.2032 29.2517C77.5988 28.359 73.3138 21.933 73.0695 20.9938C73.0615 20.9607 73.0572 20.9835 73.1372 20.8599C73.37 21.01 73.0156 20.6827 73.8821 22.0405Z" fill="#212121"/>
<path fill-rule="evenodd" clip-rule="evenodd" d="M80.207 26.2161C79.9095 27.2879 79.3633 28.2744 78.6129 29.0954L78.4833 29.1284L78.4502 28.9989C78.6863 28.3616 78.9883 27.7507 79.3514 27.1762C79.5574 26.815 79.7869 26.4676 80.0384 26.1364L80.1627 26.0908L80.207 26.2161Z" fill="#212121"/>
<path fill-rule="evenodd" clip-rule="evenodd" d="M48.1986 14.6695C48.9754 14.4156 49.8125 14.4135 50.5905 14.6636C51.8776 15.1264 52.8883 16.1388 53.6282 17.2575C54.3363 18.328 54.5208 19.7913 54.703 21.0334C54.916 22.8299 55.0264 24.6371 55.0336 26.4461C55.0775 27.6872 55.2462 28.9015 55.143 30.145C55.0699 31.0254 55.0438 32.3908 54.576 33.1694C54.1132 33.9417 53.0969 33.9251 52.3067 34.0339C50.8233 34.2385 49.2102 34.6227 47.7529 34.1804C47.8485 28.4618 47.9953 21.162 48.1986 14.6695Z" fill="white"/>
<path fill-rule="evenodd" clip-rule="evenodd" d="M53.056 16.2478C53.7597 16.9851 54.2576 17.8943 54.4998 18.8844C54.7547 19.9793 54.9389 21.0894 55.0513 22.208C55.2371 24.1298 55.1835 25.5802 55.3339 27.705C55.4259 28.608 55.4329 29.5176 55.3548 30.4219C55.3412 31.2681 55.2076 32.108 54.958 32.9167C54.5944 33.8262 53.9685 34.0682 52.9998 34.1899C51.0949 34.4246 50.2574 34.6388 49.1168 34.6173C48.6204 34.6139 48.1271 34.5373 47.6529 34.3902C47.6073 34.368 47.5702 34.3315 47.5471 34.2864C47.4172 33.9687 48.0377 15.2669 48.1072 14.6536C48.1103 14.6369 48.1179 14.6214 48.1292 14.6088C48.1405 14.5961 48.1551 14.5868 48.1713 14.5818C50.0825 13.9662 51.7029 14.7409 53.056 16.2478ZM48.2913 14.7415C48.1568 22.124 48.1991 20.9477 47.9901 34.0047C49.1013 34.2824 50.2713 34.1098 51.4285 33.93C53.3757 33.6281 54.1394 33.7806 54.5428 32.7067C54.7219 32.1409 54.8272 31.5543 54.8559 30.9615C54.9793 29.8126 54.9844 28.6542 54.8711 27.5043C54.7177 25.1431 54.8539 22.0876 54.1947 19.1548C54.0939 18.6805 53.9398 18.2191 53.7351 17.7795C53.2017 16.7681 52.431 15.9013 51.489 15.2533C51.0307 14.9289 50.5041 14.714 49.9497 14.6253C49.3953 14.5366 48.8279 14.5763 48.2913 14.7415Z" fill="#212121"/>
<path fill-rule="evenodd" clip-rule="evenodd" d="M50.4647 25.8238C50.3932 26.439 49.8411 37.0671 49.8557 37.9726L49.7694 38.0718L49.6702 37.9839C49.3727 35.3585 49.7294 28.4032 50.2785 25.7924L50.387 25.7144L50.4647 25.8238Z" fill="#212121"/>
<path fill-rule="evenodd" clip-rule="evenodd" d="M52.8405 27.4801C52.1051 28.6746 51.1598 29.7263 50.0502 30.5845H49.918V30.4522C50.3237 29.8881 50.764 29.3497 51.2364 28.8402C51.6876 28.3124 52.1765 27.8182 52.6994 27.3614L52.8316 27.3481L52.8405 27.4801Z" fill="#212121"/>
<path fill-rule="evenodd" clip-rule="evenodd" d="M48.4781 29.7846C49.116 30.6316 49.5763 31.5987 49.8313 32.6279C49.9169 32.9105 49.9123 32.8246 49.861 32.9826C49.7109 32.934 49.7619 32.9846 49.5926 32.7436C49.275 32.2691 49.0126 31.76 48.8104 31.2261C48.6144 30.7861 48.4487 30.3332 48.3145 29.8706L48.3525 29.7437L48.4781 29.7846Z" fill="#212121"/>
<path fill-rule="evenodd" clip-rule="evenodd" d="M86.4309 48.0505C88.4822 48.0439 90.5297 48.2275 92.5471 48.5989C96.1901 49.2972 98.1608 50.285 100.835 51.9126C103.276 53.4053 105.971 55.5265 106.069 58.3714C106.036 59.6158 105.691 60.832 105.067 61.9089C102.158 67.0333 94.7718 66.4951 88.9729 66.2554C85.821 66.2152 82.6748 65.9765 79.5529 65.5406C78.3597 65.3664 75.7142 64.9756 74.4807 64.7382C72.5354 64.3557 70.605 63.8165 68.912 62.7671C64.8756 60.2152 63.6632 56.8321 67.1928 53.6318C71.6269 49.6513 80.3728 48.0505 86.4309 48.0505ZM71.3783 51.6002C66.6939 53.8113 63.609 57.1326 67.2642 60.7696C69.3533 62.8369 71.8197 63.6621 74.7181 64.2169C75.8607 64.4331 79.3357 64.9492 79.9804 65.0411C82.711 65.4173 85.4615 65.6318 88.2175 65.6834C94.0468 65.8957 101.829 66.7996 104.756 61.6361C107.474 56.8069 103.924 53.9991 99.1305 51.1767C91.6694 46.9482 78.9816 48.0647 71.3783 51.6002Z" fill="#212121"/>
<path fill-rule="evenodd" clip-rule="evenodd" d="M98.7934 50.349C102.166 51.9303 106.871 54.3091 105.948 57.92C104.474 63.3895 97.9699 63.8613 92.3109 63.7512C82.7444 63.5413 81.5489 63.2867 76.5164 62.6433C73.168 62.2099 70.2097 61.6846 67.5655 59.8249C63.8875 57.192 64.4879 54.3438 68.3395 52.0305C75.1047 47.9753 90.1969 46.3579 98.7934 50.349ZM86.7494 48.447C82.4482 48.4556 78.1688 49.0564 74.0315 50.2323C68.8175 51.77 63.0223 54.9068 66.9476 58.6132C69.0817 60.6144 71.8406 61.348 74.7096 61.8201C75.9844 62.0261 80.1425 62.5653 81.8012 62.7234C84.3644 62.9654 86.354 63.0265 87.8371 63.0619C87.8701 63.0662 92.5753 63.2751 94.7547 63.2394C98.0919 63.1756 102.138 62.7528 104.316 60.2309C105.045 59.3853 105.523 58.3522 105.696 57.2488C105.958 54.2234 101.824 52.1115 99.1362 50.7606C99.0711 50.9167 95.692 48.447 86.7494 48.447Z" fill="#212121"/>
<path fill-rule="evenodd" clip-rule="evenodd" d="M72.0524 64.7221C71.9056 65.4934 71.2103 69.3539 71.3012 70.1331C71.4111 70.246 71.5416 70.3367 71.6857 70.4003C72.0773 70.5852 72.492 70.7168 72.9186 70.7914C73.1203 70.8351 73.3286 70.8391 73.5318 70.8033C74.0046 70.2413 75.0229 65.2435 75.535 63.5035C75.5476 63.4621 75.5214 63.4856 75.6798 63.3914C75.7717 63.5501 75.7611 63.517 75.7519 63.5597C75.5181 64.5231 74.9541 68.7562 74.2618 70.5729C73.9795 71.3088 73.7745 71.4698 72.9434 71.3574C72.3053 71.2685 70.8688 70.8588 70.7614 70.2251C70.6185 69.0726 71.6586 64.3485 72.263 62.6932C72.2815 62.6495 72.2448 62.676 72.4174 62.5903C72.5506 62.8618 72.4871 62.3559 72.0524 64.7221Z" fill="#212121"/>
<path fill-rule="evenodd" clip-rule="evenodd" d="M99.2088 63.9188C99.4495 65.233 100.72 70.0377 100.531 71.4765C100.522 71.6149 100.47 71.747 100.384 71.8556C100.298 71.9643 100.181 72.0443 100.048 72.0852C99.4406 72.3589 97.8907 72.5586 97.3458 72.1916C97.2493 72.1273 97.1748 72.035 97.1323 71.9271C96.5524 70.7148 95.7437 66.198 95.6634 64.5321C95.6594 64.4442 95.6415 64.4855 95.7645 64.3436C95.9586 64.5116 95.8207 64.259 96.0432 65.4347C96.2085 66.3032 97.2169 70.9661 97.6473 71.7321C97.8989 71.9043 99.2673 71.8643 99.8674 71.5542C99.9024 71.5367 99.9349 71.5144 99.9639 71.4881C100.107 71.0305 99.7596 68.9285 99.6842 68.4544C98.8908 63.4712 98.9427 64.0124 99.0842 63.8213L99.2088 63.9188Z" fill="#212121"/>
<path fill-rule="evenodd" clip-rule="evenodd" d="M13.5324 49.7108C12.6179 49.8311 12.4721 49.9038 12.2936 50.1872C12.1594 50.3997 14.5087 56.2221 14.7233 56.6208C14.8747 56.9028 15.8377 56.5391 16.054 56.2449C16.2417 55.99 13.9229 49.6595 13.5324 49.7108Z" fill="#212121"/>
<path fill-rule="evenodd" clip-rule="evenodd" d="M13.5834 49.6247C14.1051 49.8033 16.1291 54.9512 16.2888 56.0742C16.3037 56.1306 16.3057 56.1896 16.2946 56.2469C16.2834 56.3041 16.2595 56.3581 16.2246 56.4048C16.0416 56.5851 15.8236 56.726 15.5841 56.8188C15.3445 56.9115 15.0885 56.9541 14.8318 56.9441C14.5544 56.8908 14.5101 56.7262 14.397 56.4673C13.8826 55.2699 13.0346 53.1199 12.5006 51.5119C12.0765 50.2225 12.1089 50.1954 12.2335 50.0324C12.4921 49.7047 12.8656 49.6813 13.592 49.6099L13.5834 49.6247ZM12.6693 50.0096C12.5841 50.0456 12.5115 50.1062 12.4606 50.1835C12.4276 50.2327 12.4177 50.2109 12.4666 50.3772C12.704 51.1604 14.7696 56.2091 14.9164 56.4845C15.2488 56.4727 15.5685 56.3543 15.8285 56.147C15.8285 55.7906 13.9659 50.1934 13.5269 49.8079C13.2348 49.8456 12.9475 49.9132 12.6693 50.0096ZM12.4111 50.2622L12.4147 50.2559L12.4111 50.2622ZM13.5834 49.6247L13.592 49.6105C13.4835 49.6231 13.5388 49.6112 13.5834 49.6247Z" fill="#212121"/>
<path fill-rule="evenodd" clip-rule="evenodd" d="M12.7446 18.5184C12.6393 18.3963 12.4961 18.3129 12.3379 18.2817C12.1797 18.2505 12.0156 18.2732 11.8718 18.3462C11.7952 18.3811 11.7278 18.4334 11.675 18.4989C11.6221 18.5644 11.5852 18.6413 11.5672 18.7235C11.5492 18.8057 11.5506 18.891 11.5713 18.9725C11.592 19.0541 11.6313 19.1298 11.6863 19.1935C11.8074 19.3235 11.971 19.406 12.1476 19.4261C12.3242 19.4461 12.5021 19.4025 12.6493 19.3029C12.7518 19.2023 12.817 19.0699 12.8343 18.9273C12.8516 18.7848 12.82 18.6406 12.7446 18.5184Z" fill="#212121"/>
<path fill-rule="evenodd" clip-rule="evenodd" d="M12.1209 18.0786C12.2968 18.088 12.4664 18.147 12.6101 18.2487C12.7539 18.3503 12.866 18.4906 12.9335 18.6532C12.9931 18.7943 13.007 18.9506 12.9733 19.1C12.9396 19.2494 12.8599 19.3845 12.7454 19.4863C12.1725 19.9462 11.1139 19.4232 11.3489 18.6565C11.4024 18.4924 11.5052 18.3487 11.6434 18.2453C11.7816 18.1419 11.9484 18.0836 12.1209 18.0786ZM12.2479 18.4337C12.1436 18.4396 12.0435 18.477 11.9609 18.5409C11.8783 18.6048 11.817 18.6923 11.785 18.7917C11.7768 18.821 11.7737 18.8514 11.7758 18.8817C11.8049 18.9506 11.8483 19.0126 11.9029 19.0637C11.9576 19.1148 12.0223 19.1539 12.0931 19.1784C12.1638 19.2029 12.2388 19.2122 12.3134 19.2059C12.388 19.1995 12.4604 19.1776 12.5259 19.1415C12.6051 19.0742 12.6616 18.9841 12.6877 18.8836C12.7139 18.783 12.7084 18.6768 12.672 18.5795C12.5505 18.4855 12.4014 18.4343 12.2479 18.4337Z" fill="#212121"/>
<path fill-rule="evenodd" clip-rule="evenodd" d="M33.4086 11.2096C33.3034 11.0874 33.1602 11.004 33.002 10.9727C32.8438 10.9414 32.6796 10.9641 32.5358 11.0371C32.4592 11.072 32.3918 11.1243 32.3389 11.1898C32.2861 11.2553 32.2492 11.3322 32.2312 11.4144C32.2133 11.4966 32.2147 11.5819 32.2354 11.6635C32.2562 11.7451 32.2956 11.8207 32.3507 11.8844C32.4717 12.0144 32.6352 12.0969 32.8118 12.117C32.9883 12.1371 33.1661 12.0936 33.3134 11.9942C33.4158 11.8935 33.481 11.7611 33.4983 11.6186C33.5156 11.476 33.484 11.3318 33.4086 11.2096Z" fill="#212121"/>
<path fill-rule="evenodd" clip-rule="evenodd" d="M32.785 10.7695C32.961 10.779 33.1307 10.8381 33.2745 10.94C33.4184 11.0419 33.5304 11.1825 33.5976 11.3455C33.6572 11.4865 33.6711 11.6427 33.6373 11.7921C33.6036 11.9414 33.5239 12.0765 33.4095 12.1783C32.8365 12.6385 31.7779 12.1154 32.013 11.3488C32.0662 11.1844 32.1689 11.0405 32.3072 10.9368C32.4454 10.8331 32.6123 10.7746 32.785 10.7695ZM32.9119 11.1249C32.8076 11.1309 32.7076 11.1683 32.625 11.2322C32.5424 11.2961 32.481 11.3835 32.4491 11.483C32.4409 11.5122 32.4377 11.5426 32.4398 11.5729C32.4691 11.6418 32.5124 11.7037 32.5671 11.7547C32.6218 11.8058 32.6866 11.8448 32.7573 11.8693C32.8279 11.8937 32.903 11.9031 32.9775 11.8967C33.0521 11.8904 33.1244 11.8685 33.19 11.8324C33.2692 11.7652 33.3257 11.6751 33.3519 11.5745C33.378 11.4739 33.3725 11.3677 33.3361 11.2704C33.2145 11.1766 33.0655 11.1255 32.9119 11.1249Z" fill="#212121"/>
<path fill-rule="evenodd" clip-rule="evenodd" d="M38.1116 24.1273C38.0064 24.0051 37.8633 23.9218 37.7051 23.8906C37.547 23.8594 37.3829 23.8821 37.2392 23.955C37.1625 23.9899 37.0951 24.0422 37.0422 24.1076C36.9893 24.1731 36.9524 24.25 36.9344 24.3323C36.9164 24.4145 36.9178 24.4998 36.9385 24.5814C36.9592 24.663 36.9987 24.7387 37.0537 24.8024C37.1748 24.9324 37.3384 25.0149 37.515 25.0349C37.6916 25.055 37.8695 25.0113 38.0167 24.9118C38.1191 24.8111 38.1843 24.6787 38.2015 24.5361C38.2188 24.3936 38.1871 24.2494 38.1116 24.1273Z" fill="#212121"/>
<path fill-rule="evenodd" clip-rule="evenodd" d="M37.4894 23.687C37.6654 23.6965 37.8351 23.7557 37.9789 23.8576C38.1227 23.9595 38.2347 24.1 38.302 24.2629C38.3616 24.404 38.3754 24.5602 38.3416 24.7096C38.3078 24.859 38.2281 24.994 38.1136 25.0957C37.5406 25.5556 36.482 25.0329 36.7171 24.2662C36.7703 24.1018 36.8731 23.9578 37.0114 23.8541C37.1497 23.7504 37.3166 23.6921 37.4894 23.687ZM37.616 24.0421C37.5117 24.048 37.4117 24.0854 37.3291 24.1493C37.2465 24.2132 37.1851 24.3007 37.1532 24.4001C37.1447 24.4294 37.1415 24.46 37.1439 24.4904C37.1732 24.5592 37.2165 24.6212 37.2712 24.6722C37.3259 24.7233 37.3907 24.7623 37.4614 24.7867C37.5321 24.8112 37.6071 24.8206 37.6816 24.8142C37.7562 24.8079 37.8285 24.786 37.8941 24.7499C37.9732 24.6826 38.0297 24.5925 38.0558 24.492C38.082 24.3914 38.0765 24.2852 38.0402 24.1879C37.9185 24.0936 37.769 24.0422 37.615 24.0418L37.616 24.0421Z" fill="#212121"/>
<path fill-rule="evenodd" clip-rule="evenodd" d="M15.4583 17.0289C15.3531 16.9067 15.21 16.8233 15.0519 16.792C14.8937 16.7607 14.7296 16.7834 14.5858 16.8564C14.5092 16.8912 14.4418 16.9435 14.3889 17.009C14.336 17.0745 14.2991 17.1514 14.2811 17.2336C14.2631 17.3159 14.2645 17.4012 14.2852 17.4828C14.3059 17.5643 14.3453 17.64 14.4004 17.7037C14.5215 17.8337 14.6851 17.9162 14.8616 17.9364C15.0382 17.9565 15.2161 17.9129 15.3634 17.8135C15.4658 17.7128 15.531 17.5804 15.5482 17.4378C15.5654 17.2953 15.5337 17.1511 15.4583 17.0289Z" fill="#212121"/>
<path fill-rule="evenodd" clip-rule="evenodd" d="M14.8361 16.5889C15.0122 16.5984 15.1819 16.6576 15.3257 16.7597C15.4696 16.8617 15.5815 17.0024 15.6487 17.1654C15.7083 17.3065 15.7221 17.4628 15.6883 17.6121C15.6545 17.7615 15.5747 17.8965 15.4603 17.9982C14.8873 18.4585 13.8287 17.9354 14.0638 17.1688C14.1168 17.0042 14.2196 16.86 14.3579 16.7562C14.4962 16.6524 14.6632 16.5939 14.8361 16.5889ZM14.9627 16.9439C14.8584 16.9498 14.7583 16.9872 14.6757 17.0511C14.593 17.115 14.5317 17.2025 14.4999 17.302C14.4916 17.3312 14.4886 17.3616 14.4909 17.3919C14.5201 17.4608 14.5635 17.5228 14.6182 17.5739C14.6728 17.6249 14.7376 17.664 14.8083 17.6884C14.879 17.7129 14.9541 17.7222 15.0286 17.7159C15.1032 17.7095 15.1755 17.6875 15.2411 17.6514C15.3202 17.5841 15.3767 17.494 15.4028 17.3935C15.429 17.2929 15.4235 17.1868 15.3872 17.0894C15.2656 16.9955 15.1164 16.9444 14.9627 16.9439Z" fill="#212121"/>
<path fill-rule="evenodd" clip-rule="evenodd" d="M36.1235 9.71957C36.0182 9.59744 35.875 9.51411 35.7168 9.48289C35.5586 9.45167 35.3945 9.47435 35.2507 9.54733C35.1741 9.58227 35.1067 9.63456 35.0539 9.70005C35.001 9.76554 34.9641 9.84243 34.9461 9.92464C34.9281 10.0069 34.9295 10.0921 34.9502 10.1737C34.9709 10.2553 35.0102 10.3309 35.0652 10.3947C35.1863 10.5247 35.3499 10.6072 35.5265 10.6273C35.7031 10.6473 35.881 10.6036 36.0283 10.5041C36.1307 10.4035 36.1959 10.2711 36.2132 10.1285C36.2305 9.98597 36.1989 9.84178 36.1235 9.71957Z" fill="#212121"/>
<path fill-rule="evenodd" clip-rule="evenodd" d="M35.5009 9.27979C35.6769 9.28932 35.8466 9.34847 35.9904 9.45038C36.1342 9.55229 36.2462 9.69281 36.3135 9.8557C36.3731 9.99677 36.387 10.153 36.3532 10.3023C36.3195 10.4517 36.2398 10.5867 36.1254 10.6885C35.5524 11.1484 34.4935 10.6257 34.7289 9.85901C34.7821 9.69462 34.8849 9.55071 35.0231 9.44701C35.1613 9.34331 35.3282 9.2849 35.5009 9.27979ZM35.6278 9.63486C35.5236 9.64085 35.4235 9.67826 35.3409 9.74216C35.2583 9.80607 35.197 9.89348 35.165 9.99291C35.1566 10.0222 35.1535 10.0528 35.1557 10.0832C35.185 10.152 35.2283 10.214 35.283 10.265C35.3377 10.3161 35.4025 10.3551 35.4732 10.3795C35.5438 10.404 35.6189 10.4133 35.6934 10.407C35.768 10.4006 35.8403 10.3787 35.9059 10.3427C35.985 10.2754 36.0415 10.1853 36.0677 10.0848C36.0938 9.98418 36.0884 9.878 36.052 9.78066C35.9305 9.68669 35.7814 9.63544 35.6278 9.63486Z" fill="#212121"/>
<path fill-rule="evenodd" clip-rule="evenodd" d="M41.7846 10.1641C42.0529 10.1758 42.31 10.2748 42.5168 10.4461C42.7237 10.6174 42.8689 10.8515 42.9305 11.1129C43.1774 12.3074 41.9406 12.8278 41.0665 12.1127C40.1973 11.3764 40.9025 10.1641 41.7846 10.1641ZM41.5293 10.6292C41.3403 10.754 41.2033 10.9433 41.1438 11.1618C40.9858 11.6693 41.816 12.2624 42.4124 11.835C42.5387 11.7001 42.6233 11.5316 42.6561 11.3498C42.6889 11.168 42.6684 10.9805 42.5972 10.8101C42.4634 10.6674 42.2866 10.5724 42.0937 10.5398C41.9009 10.5071 41.7026 10.5385 41.5293 10.6292Z" fill="#212121"/>
<path fill-rule="evenodd" clip-rule="evenodd" d="M15.9654 8.19482C16.2337 8.2066 16.4907 8.30565 16.6976 8.47692C16.9044 8.64818 17.0497 8.88229 17.1113 9.14367C17.3579 10.3382 16.1214 10.8585 15.2473 10.1434C14.3778 9.40716 15.0833 8.19482 15.9654 8.19482ZM15.7098 8.65966C15.5211 8.78474 15.3842 8.97414 15.3247 9.1926C15.1663 9.70008 15.9968 10.2932 16.5932 9.86571C16.7194 9.73082 16.804 9.56232 16.8367 9.3805C16.8694 9.19868 16.8489 9.01128 16.7777 8.84083C16.6439 8.69818 16.4671 8.60324 16.2742 8.57053C16.0814 8.53781 15.8832 8.56912 15.7098 8.65966Z" fill="#212121"/>
<path fill-rule="evenodd" clip-rule="evenodd" d="M15.48 14.7847C15.6671 14.796 15.7296 14.9408 15.7558 15.1269C15.7658 15.8452 15.7251 16.5633 15.6338 17.2759L15.5382 17.3678L15.4476 17.2712C15.4146 16.5518 15.3944 15.599 15.3405 15.2486C15.0377 15.3051 13.54 15.6618 13.0544 15.8106C13.0527 15.8437 12.9291 18.6942 12.9277 18.8436L12.8395 18.9428L12.7403 18.8548C12.641 17.9866 12.5921 17.1133 12.5938 16.2394C12.5938 15.6499 12.5882 15.5782 12.6804 15.4826C12.8795 15.3054 15.1855 14.7781 15.48 14.7847ZM15.3154 15.1329L15.3131 15.1282L15.3164 15.1355L15.3193 15.1405C15.318 15.1365 15.3165 15.1327 15.3147 15.1289L15.3154 15.1329Z" fill="#212121"/>
<path fill-rule="evenodd" clip-rule="evenodd" d="M36.1454 7.47415C36.3325 7.48539 36.395 7.6302 36.4211 7.81633C36.4315 8.53464 36.3908 9.25277 36.2991 9.96528L36.2036 10.0572L36.113 9.96065C36.0799 9.24158 36.0598 8.28844 36.0059 7.93799C35.703 7.99453 34.2054 8.35125 33.7197 8.50003C33.7197 8.53309 33.5944 11.3833 33.5931 11.5327L33.5048 11.6319L33.4056 11.5436C33.3066 10.6754 33.2579 9.80228 33.2598 8.92849C33.2598 8.33935 33.2542 8.26728 33.3464 8.17206C33.5448 7.99684 35.8508 7.46952 36.1454 7.47415ZM35.9807 7.82261L35.9784 7.81798L35.9817 7.82493V7.82327L35.9847 7.82823C35.9847 7.82327 35.9824 7.82228 35.9801 7.81666L35.9807 7.82261Z" fill="#212121"/>
<path fill-rule="evenodd" clip-rule="evenodd" d="M38.2495 21.1744L38.2898 21.3L38.2954 21.2871L38.2977 21.2795V21.2815V21.2765V21.2792V21.2745C38.3001 21.299 38.3761 21.7622 38.382 21.8005C38.4532 22.4634 38.4601 23.1316 38.4025 23.7958C38.384 23.9611 38.3278 24.2983 38.2964 24.4543L38.2012 24.5476L38.1076 24.4523C37.9148 23.3831 37.9186 22.2876 38.1189 21.2197L38.1232 21.2124L38.2485 21.1714L38.2495 21.1744Z" fill="#212121"/>
<path fill-rule="evenodd" clip-rule="evenodd" d="M25.9748 5.86873C25.991 6.07616 25.9586 6.28452 25.8803 6.47727C25.802 6.67003 25.6798 6.84189 25.5235 6.97924C25.0931 7.41931 24.6117 7.80654 24.0897 8.13273C24.0729 8.1411 24.0541 8.14432 24.0355 8.14199C23.9215 8.12814 23.8125 8.08709 23.7177 8.02231C23.5686 7.92709 22.8691 7.32142 22.8211 7.27877C22.3689 6.87245 21.7794 6.26909 21.8624 5.62242C21.8805 5.50199 21.9284 5.38797 22.0016 5.29066C22.0749 5.19335 22.1712 5.1158 22.2819 5.06502C22.4289 4.95685 22.6032 4.89192 22.7851 4.87755C22.967 4.86318 23.1493 4.89994 23.3114 4.98369C23.4805 5.08138 23.6351 5.20223 23.7706 5.34273C23.8186 5.40618 23.8628 5.47242 23.9029 5.5411C24.5631 4.68284 25.8303 4.77574 25.9748 5.86873ZM22.8608 5.32951C22.6624 5.35848 22.4777 5.44782 22.3318 5.5854C22.2512 5.69284 22.3034 5.916 22.3467 6.04428C22.4506 6.30673 22.6007 6.54838 22.7901 6.75773C22.9689 6.96767 23.7244 7.75716 23.8675 7.86361C23.9076 7.89372 23.9512 7.91871 23.9974 7.938C24.0305 7.95057 23.9955 7.98561 24.3505 7.67352C24.7056 7.36142 25.4372 6.67475 25.5407 6.21686C25.5813 6.06643 25.5675 5.90649 25.5017 5.76525C25.4359 5.62401 25.3223 5.51055 25.181 5.44489C25.0357 5.418 24.8859 5.42725 24.745 5.47181C24.604 5.51638 24.4762 5.59489 24.3727 5.70045C24.3138 5.75434 24.1618 6.00791 23.9998 6.09718C23.6953 6.24529 23.5911 5.89088 23.4119 5.63895C23.2742 5.46956 23.0772 5.35892 22.8608 5.32951Z" fill="#212121"/>
<path fill-rule="evenodd" clip-rule="evenodd" d="M7.87334 24.8277C7.72192 25.0181 7.31924 27.9532 7.27295 27.9797C7.17708 28.0346 3.39261 24.1116 3.4379 24.0471C3.63957 23.7634 7.87334 24.8277 7.87334 24.8277Z" fill="#212121"/>
<path fill-rule="evenodd" clip-rule="evenodd" d="M7.94658 24.8881V24.8858C7.8332 25.416 7.74822 25.9519 7.69201 26.4912C7.48273 28.1012 7.50753 28.0893 7.35776 28.1684C7.19246 28.2451 7.04303 28.086 6.81226 27.8768C6.81226 27.8437 6.94913 28.0533 5.58141 26.6743C5.29411 26.3847 3.42254 24.4738 3.24434 24.1756C3.15706 24.0189 3.2331 23.8424 3.45329 23.7898C4.05136 23.6559 6.48694 24.3366 7.08072 24.5029C7.9803 24.7562 7.93401 24.739 7.95947 24.7962C7.96482 24.8107 7.96638 24.8263 7.964 24.8416C7.96163 24.8568 7.95541 24.8712 7.94592 24.8834C7.86855 24.8246 7.82723 24.7932 7.94592 24.8834L7.94426 24.8858L7.94658 24.8828V24.8854L7.94856 24.8824V24.8854V24.8828L7.94658 24.8881ZM7.08005 27.9062L7.08237 27.8996L7.08005 27.9062ZM7.14618 27.5997C7.23643 27.1346 7.56737 25.3701 7.7373 24.8944C6.99211 24.7443 4.64976 24.2963 3.89465 24.2361C4.5509 24.9512 6.45124 26.9292 7.14618 27.5997Z" fill="#212121"/>
<path fill-rule="evenodd" clip-rule="evenodd" d="M0.219727 22.5742C0.812176 22.7213 9.75875 23.9565 9.7571 24.0454C9.7528 24.3212 8.70643 25.3586 8.50905 25.4082C8.35995 25.4459 4.29612 24.3261 4.30637 24.3327C5.52715 25.1068 6.79113 25.8105 8.09216 26.4403C8.13315 26.4625 4.95138 27.1759 4.95138 27.1759L0.219727 22.5742Z" fill="white"/>
<path fill-rule="evenodd" clip-rule="evenodd" d="M9.45452 23.7529C9.76364 23.8061 9.92465 23.8084 9.97556 24.0064C9.97841 24.1356 9.93778 24.2619 9.86018 24.3652C9.57335 24.7655 9.23811 25.1289 8.86208 25.4469C8.70768 25.5719 8.60321 25.6529 8.43229 25.6327C8.19722 25.5996 7.46658 25.4129 7.23317 25.3533C5.6284 24.9431 5.72957 24.9345 5.90876 25.0353C7.16771 25.7435 8.09804 26.1799 8.21871 26.2523C8.24493 26.2701 8.26713 26.2932 8.2839 26.3202C8.30067 26.3471 8.31163 26.3772 8.31608 26.4086C8.32053 26.44 8.31837 26.472 8.30975 26.5025C8.30112 26.533 8.28622 26.5614 8.26599 26.5859C8.19094 26.6639 8.36881 26.6414 5.73387 27.216C4.88817 27.3995 4.96355 27.3843 4.89544 27.3704C4.81841 27.3406 4.86701 27.3767 4.38465 26.896C3.08206 25.5891 0.153536 22.6599 0.131386 22.5997C0.127016 22.5841 0.126786 22.5676 0.130718 22.5518C0.13465 22.5361 0.142609 22.5217 0.153813 22.5099C0.165017 22.4982 0.179082 22.4896 0.194625 22.4849C0.210168 22.4802 0.226656 22.4797 0.24247 22.4833C0.819711 22.6024 7.28508 23.3806 9.45452 23.7529ZM5.01314 26.9555L5.04256 26.9489C5.40623 26.8626 7.07448 26.4675 7.44807 26.3772C6.32139 25.8269 5.22846 25.21 4.17505 24.5298C4.13209 24.5007 4.10003 24.4581 4.08392 24.4087C4.06781 24.3594 4.06856 24.3061 4.08605 24.2572C4.10354 24.2083 4.13678 24.1667 4.18054 24.1388C4.2243 24.1108 4.2761 24.0983 4.32779 24.103C4.38862 24.1089 7.98497 25.1044 8.46535 25.1785C8.82885 24.8956 9.15451 24.5673 9.43436 24.2015C8.74306 24.0693 2.80204 23.1502 0.575722 22.7468C0.440834 22.7174 0.402154 22.5627 5.01413 26.9555H5.01314Z" fill="#212121"/>
<path fill-rule="evenodd" clip-rule="evenodd" d="M42.9924 39.061C42.3085 39.958 41.4513 40.7085 40.4718 41.2678C39.4922 41.8272 38.4102 42.184 37.2901 42.3171L37.1807 42.2407L37.257 42.1313C39.3413 41.5048 41.2555 40.4119 42.8545 38.9357L42.9868 38.9287L42.9924 39.061Z" fill="#212121"/>
<path fill-rule="evenodd" clip-rule="evenodd" d="M42.1214 37.29C41.8938 37.5478 41.6498 37.7908 41.391 38.0173C39.5165 39.6703 36.7034 41.1508 34.2866 40.5534C34.2536 40.5445 34.2744 40.5597 34.1914 40.438C34.3339 40.3408 34.2423 40.362 34.4817 40.3818C36.5473 40.5517 38.726 39.3741 40.4359 38.2808C42.3597 37.0394 41.7881 37.1835 42.1118 37.1567L42.1214 37.29Z" fill="#212121"/>
<path fill-rule="evenodd" clip-rule="evenodd" d="M38.624 36.8226C38.5043 37.3827 38.4917 37.6336 38.3182 38.2842C38.0722 39.201 37.5049 41.0901 37.2966 42.4254C37.2271 42.8817 37.2837 42.763 37.1495 42.8883L37.0585 42.7891C36.9822 41.0722 37.4139 39.6933 38.0689 37.4937C38.2095 36.9325 38.4245 36.3926 38.7083 35.8883L38.8346 35.8477C38.9149 36.1105 38.8448 35.8057 38.624 36.8226Z" fill="#212121"/>
<path fill-rule="evenodd" clip-rule="evenodd" d="M22.3406 27.2775C22.4139 28.4296 23.1588 29.4105 24.0574 30.1485C27.0263 32.5556 31.6677 32.4581 34.8137 29.5474H34.946V29.6797C31.6908 33.1748 26.3809 33.0294 23.535 30.2152C22.7475 29.4274 22.1339 28.3999 22.1528 27.2821L22.245 27.1855L22.3406 27.2775Z" fill="#212121"/>
<path fill-rule="evenodd" clip-rule="evenodd" d="M19.3812 27.957C19.7819 33.243 31.6441 36.0142 36.4475 31.5523C37.0154 31.0184 36.7999 31.0948 37.0307 31.0719C37.0439 31.2267 37.0498 31.1939 37.0187 31.2339C36.6076 31.75 36.1238 32.2036 35.5823 32.5805C32.3281 34.864 27.1733 34.6141 23.4933 32.9878C21.3443 32.0244 19.2416 30.3026 19.1924 27.9659L19.2823 27.8667L19.3812 27.957Z" fill="#212121"/>
<path fill-rule="evenodd" clip-rule="evenodd" d="M16.8238 29.1163C17.5613 30.3711 18.4798 31.5102 19.5496 32.4971C24.7974 37.2684 32.7101 36.9451 38.7844 33.6625C39.5778 33.2327 39.3821 33.272 39.5778 33.316C39.5411 33.47 39.56 33.4367 39.5081 33.4704C38.8696 33.8854 38.2072 34.2625 37.5244 34.5997C29.9535 38.3356 20.8552 37.0132 16.6631 29.2092L16.6985 29.0806L16.8238 29.1163Z" fill="#212121"/>
<path fill-rule="evenodd" clip-rule="evenodd" d="M15.1126 30.1404C15.3883 31.8288 16.7597 33.3932 18.0828 34.478C23.1698 38.6205 31.3623 39.8652 39.6933 35.9541C41.1744 35.2546 40.8636 35.2903 41.0878 35.3524C41.0431 35.5062 41.0633 35.4724 41.0048 35.5068C33.3724 39.9515 25.3419 39.5978 19.7041 36.1241C17.6288 34.8347 15.2157 32.5895 14.9258 30.1668L15.0058 30.0601L15.1126 30.1404Z" fill="#212121"/>
<path fill-rule="evenodd" clip-rule="evenodd" d="M79.8877 32.4455V32.4479L79.8415 32.5801C78.971 33.036 59.1907 32.8638 49.3505 31.7004C47.7636 31.5116 47.9272 31.506 47.8099 31.4359L47.7705 31.301V31.2987C47.918 31.0448 47.6442 31.1608 50.1753 31.2613C51.8717 31.3274 67.9713 31.7823 73.143 32.0108C76.7939 32.1695 78.3428 32.2753 79.689 32.2753L79.8236 32.3239L79.8877 32.4455Z" fill="#212121"/>
<path fill-rule="evenodd" clip-rule="evenodd" d="M53.4801 16.4253C59.6079 16.4937 74.0955 16.939 80.2745 17.5477C80.5093 17.5728 80.4501 17.5602 80.5903 17.6469L80.6256 17.7814V17.7837C80.4987 17.9884 80.6303 17.9319 79.5488 17.9193C74.0608 17.8644 73.7685 17.9523 65.5218 17.673C61.5992 17.5407 53.091 17.2485 48.3633 16.7258L48.2357 16.6597C48.078 16.2034 47.9391 16.3598 53.4801 16.4253Z" fill="#212121"/>
<path fill-rule="evenodd" clip-rule="evenodd" d="M23.5334 23.4394C23.5334 23.4394 22.615 23.125 22.2649 23.6794C22.1661 23.872 22.113 24.0847 22.1096 24.3012C22.1061 24.5176 22.1525 24.7319 22.2451 24.9275C22.4182 25.2515 22.7084 25.4972 23.0564 25.6148C23.1556 25.6459 23.546 25.6327 23.6052 25.7114C23.6576 25.8194 23.6934 25.9348 23.7113 26.0535C23.8072 26.3428 23.8865 26.6367 23.9781 26.9273C24.5428 28.7245 25.6384 29.841 26.6964 30.3018C28.0271 30.8814 31.6204 31.0811 32.524 28.0762C33.0265 26.4037 33.2239 19.8861 32.2486 19.4526C29.5776 18.2651 28.3749 18.4899 26.496 18.7557C25.4877 18.8985 24.3011 19.2123 23.7047 20.1241C23.0418 21.1384 23.2855 22.3511 23.5334 23.4394Z" fill="white"/>
<path fill-rule="evenodd" clip-rule="evenodd" d="M23.4055 23.3046C23.2197 22.6509 23.1409 21.9714 23.1724 21.2925C23.3103 19.8378 24.274 19.092 25.6774 18.733C26.3763 18.5817 27.0826 18.4666 27.7933 18.3881C28.6982 18.2776 29.6159 18.343 30.496 18.5805C31.1486 18.7609 31.7856 18.9936 32.4007 19.2765C33.5763 19.9962 33.1862 26.6999 32.7352 28.1801C32.034 30.3951 29.8418 31.1446 27.664 30.7919C26.9876 30.7022 26.347 30.4344 25.808 30.0159C23.9007 28.553 23.6829 26.2444 23.4908 25.8225C23.2508 25.7564 23.143 25.8361 22.8226 25.677C22.5931 25.5663 22.3961 25.3982 22.2508 25.1889C22.1054 24.9796 22.0167 24.7363 21.9931 24.4826C21.968 24.3057 21.9804 24.1255 22.0295 23.9537C22.0786 23.7819 22.1633 23.6223 22.2781 23.4854C22.4367 23.3649 22.6225 23.2854 22.8192 23.2538C23.0158 23.2223 23.2172 23.2397 23.4055 23.3046ZM28.519 18.7495C27.6903 18.7829 26.8647 18.8701 26.0474 19.0107C24.0161 19.3928 23.1585 20.4349 23.4547 22.5088C23.5814 23.3906 23.6601 23.4015 23.6111 23.4911C23.5999 23.508 23.5834 23.5208 23.5641 23.5275C23.5449 23.5341 23.524 23.5342 23.5047 23.5278C23.5348 23.4355 23.551 23.3863 23.5047 23.5278C23.3379 23.4784 23.1651 23.4528 22.9912 23.4517C22.8554 23.4362 22.7181 23.463 22.5982 23.5285C22.4782 23.594 22.3814 23.695 22.3211 23.8177C22.1973 24.1428 22.2046 24.5033 22.3416 24.8231C22.4848 25.105 22.7252 25.3255 23.0183 25.444C23.0352 25.4502 23.0884 25.4697 23.106 25.4731H23.1027C23.2478 25.5021 23.5493 25.4701 23.6918 25.5785C23.7758 25.6713 23.828 25.7886 23.8406 25.9131C23.8478 25.9462 24.1381 26.9347 24.3527 27.4385C25.0238 28.9993 26.0861 29.885 27.0032 30.1895C28.0597 30.516 29.1914 30.508 30.2431 30.1664C31.5609 29.6966 32.2092 28.7414 32.4393 27.3893C32.6649 25.7775 32.7503 24.1492 32.6946 22.5227C32.6767 22.0334 32.5772 19.9387 32.1656 19.6646C31.4215 19.3203 30.643 19.0559 29.8431 18.8761C29.4071 18.7892 28.9635 18.7468 28.519 18.7495ZM23.508 25.8294H23.506H23.508ZM23.5047 25.8275H23.5073H23.5047ZM23.1033 25.4744H23.0993H23.1033Z" fill="#212121"/>
<path fill-rule="evenodd" clip-rule="evenodd" d="M25.2631 20.0557C25.5607 20.3451 25.8899 20.6001 26.2444 20.8161C28.0006 21.6846 30.0464 21.599 31.9493 21.5061C32.6568 21.473 33.896 21.4776 34.3813 20.8525C34.6491 20.507 34.7294 19.5988 34.6835 19.1968C34.3053 15.8841 30.6633 14.3441 27.2908 15.4004C26.7018 15.6049 26.1705 15.9476 25.7413 16.3997C25.312 16.8518 24.9974 17.4002 24.8238 17.999C24.7864 18.1187 23.3218 17.5844 22.6332 18.8159C22.4478 19.2113 22.3401 19.6386 22.3158 20.0745C22.1449 21.1593 22.2812 22.2702 22.7092 23.2814C22.7786 23.4345 23.1753 23.3651 23.2983 23.3628C23.5013 23.3591 23.7255 23.49 23.9133 23.4732C24.0584 23.4603 24.3976 22.7581 24.4773 22.5987C24.8265 21.7805 25.0899 20.9283 25.2631 20.0557Z" fill="#212121"/>
<path fill-rule="evenodd" clip-rule="evenodd" d="M34.1119 17.0384C34.6055 17.7467 34.885 18.5821 34.917 19.4449C34.9157 19.8761 34.8443 20.3043 34.7057 20.7127C34.3784 21.4695 33.4425 21.6209 32.6156 21.6715C32.1286 21.6979 30.7708 21.7482 29.9046 21.7264C28.9352 21.721 27.9721 21.5696 27.0479 21.2771C26.3877 21.0926 25.791 20.73 25.3231 20.2291C25.1528 21.2172 24.8388 22.1751 24.3911 23.0723C24.3067 23.2519 24.1952 23.4175 24.0605 23.5632C23.8509 23.7203 23.5256 23.5136 23.3001 23.5179C23.0839 23.5295 22.7711 23.594 22.6058 23.4188C22.4998 23.2305 22.4136 23.0317 22.3486 22.8256C22.1533 22.2333 22.0548 21.6134 22.0567 20.9898C22.0566 20.37 22.1265 19.7521 22.265 19.148C22.3693 18.7611 22.5902 18.4157 22.8977 18.1588C23.436 17.7313 24.0373 17.729 24.6539 17.7822C24.8813 17.125 25.2585 16.5297 25.7555 16.0432C26.3094 15.5197 27.0029 15.1675 27.7524 15.0293C30.068 14.4804 32.7413 15.0888 34.1119 17.0384ZM23.8763 23.3298L23.8796 23.3278L23.8763 23.3298L23.88 23.3278L23.8763 23.3298ZM23.88 23.3275L23.877 23.3295L23.88 23.3275ZM23.8773 23.3275H23.88H23.8773ZM23.3206 23.2025C23.5302 23.2101 23.7451 23.3216 23.8859 23.3216C23.9741 23.214 24.0523 23.0986 24.1193 22.9767C24.3197 22.6439 24.4872 22.2923 24.6195 21.9271C25.0311 20.7977 25.1369 20.0677 25.1938 19.9923C25.208 19.9768 25.2269 19.9663 25.2477 19.9626H25.2632H25.2791C25.2894 19.9645 25.2993 19.9681 25.3085 19.9732L25.3214 19.9818C25.5782 20.2096 25.8468 20.4237 26.1261 20.6231C26.8583 20.9984 27.6546 21.2322 28.4734 21.3125C29.6734 21.4161 30.8801 21.414 32.0797 21.3062C32.6806 21.3146 33.2781 21.213 33.8425 21.0066C33.9939 20.9428 34.1251 20.8391 34.2222 20.7066C34.3194 20.5741 34.3789 20.4177 34.3943 20.2542C34.9114 17.6278 32.567 15.0425 28.8963 15.3242C28.1979 15.3727 27.513 15.5404 26.8713 15.8201C26.11 16.2214 25.5141 16.8777 25.1879 17.6741C25.0067 18.092 25.0596 18.137 24.9141 18.2137C24.6433 18.339 23.6717 17.9307 23.0088 18.6587C22.7302 19.0147 22.5685 19.4482 22.546 19.8998C22.3325 21.0064 22.4393 22.1509 22.8538 23.1989C23.0088 23.2199 23.1658 23.2215 23.3212 23.2035L23.3206 23.2025ZM22.8485 23.1939H22.8458H22.8485ZM22.8485 23.1939H22.8458H22.8485ZM22.8485 23.1939L22.8452 23.192L22.8485 23.1939ZM22.8485 23.1939L22.8458 23.1916L22.8485 23.1939ZM22.8485 23.1939L22.8452 23.1916L22.8485 23.1939ZM22.8485 23.1939L22.8455 23.1916L22.8485 23.1939Z" fill="#212121"/>
<path fill-rule="evenodd" clip-rule="evenodd" d="M29.7076 23.8808C29.9141 24.4244 30.0757 24.984 30.1907 25.554V25.5563V25.5511C30.2282 25.6397 30.2377 25.7378 30.2178 25.8321C30.1097 26.1845 29.6468 26.3045 29.3192 26.239L29.2236 26.1471C29.3942 25.9742 29.2726 26.1101 29.5704 25.9461C29.6503 25.9051 29.7185 25.8446 29.7688 25.7702C29.7716 25.766 29.7742 25.7616 29.7764 25.757V25.7544C29.7296 25.6274 29.6939 25.4967 29.6696 25.3636C29.5358 24.9192 29.4838 24.4542 29.5162 23.9912C29.5222 23.8838 29.5056 23.9251 29.6032 23.7988L29.7076 23.8808ZM29.7834 25.7216V25.7173L29.7807 25.7309V25.7263L29.7791 25.7388V25.7342V25.7411C29.7815 25.7317 29.7832 25.7221 29.7843 25.7124L29.7834 25.7216Z" fill="#212121"/>
<path fill-rule="evenodd" clip-rule="evenodd" d="M30.2911 28.0798C30.428 27.8927 30.5108 27.6715 30.5304 27.4404C29.8352 27.6161 29.1102 27.6397 28.4049 27.5095C28.1185 27.4517 27.8377 27.3692 27.5655 27.2629L27.5166 27.1389C27.7302 27.0546 27.5034 27.1022 28.037 27.1534C28.3187 27.1917 28.6031 27.2063 28.8873 27.1971C30.2213 27.1402 30.4838 26.9524 30.5886 26.9283C31.1718 26.8152 31.106 27.9449 30.536 28.4964C29.8087 29.194 28.4436 28.8815 28.2615 27.8963L28.3256 27.7803L28.4407 27.8464C28.7369 28.6187 29.8543 28.6481 30.2911 28.0798Z" fill="#212121"/>
<path fill-rule="evenodd" clip-rule="evenodd" d="M27.4239 23.5067C27.5812 23.5073 27.7351 23.5518 27.8683 23.6354C28.0014 23.719 28.1085 23.8382 28.1774 23.9795L28.1943 24.1117C28.0422 24.1296 28.1 24.1448 27.8739 24.0572C27.6447 23.9642 27.3906 23.9525 27.1538 24.0241C27.1274 24.0334 27.1112 24.0393 27.0824 24.0519C26.984 24.0941 26.889 24.1438 26.7981 24.2003C26.7484 24.2322 26.703 24.2701 26.6629 24.3134L26.5382 24.3607C26.4903 24.2341 26.4758 24.2522 26.5234 24.1021C26.5915 23.9206 26.7153 23.7653 26.8771 23.6583C27.0388 23.5514 27.2302 23.4983 27.4239 23.5067Z" fill="#212121"/>
<path fill-rule="evenodd" clip-rule="evenodd" d="M31.7862 23.5111C31.9054 23.5954 31.9945 23.7156 32.0404 23.8542L32.0223 23.9865L31.89 23.9666C31.8065 23.9172 31.7127 23.8879 31.6159 23.881C31.4637 23.852 31.307 23.8551 31.1561 23.8903C31.0275 23.9253 30.9029 23.9734 30.7841 24.0338C30.6797 24.0999 30.7745 24.0642 30.5911 24.1161L30.5547 23.9878C30.5689 23.9182 30.5925 23.8508 30.6248 23.7875C30.6887 23.6647 30.7894 23.5649 30.9127 23.5021C31.0464 23.4272 31.1974 23.3886 31.3507 23.3902C31.5039 23.3917 31.6541 23.4334 31.7862 23.5111Z" fill="#212121"/>
<path fill-rule="evenodd" clip-rule="evenodd" d="M25.5326 47.7023C26.978 49.3176 26.855 51.9294 25.7094 53.6863C24.6019 55.4917 21.6482 55.8918 19.7056 55.3261C17.6773 54.7148 16.5258 52.4614 16.7761 50.3266C17.3246 45.9355 23.1575 45.0782 25.5326 47.7023ZM20.3751 46.885C16.6786 47.9668 16.4111 52.0858 18.5128 54.1488C18.9193 54.5651 19.4349 54.8585 20.0005 54.9955C21.7937 55.4947 24.4888 55.1763 25.5319 53.6159C26.5267 51.9549 26.6067 49.6486 25.4142 48.1741C24.2686 46.765 22.0486 46.4023 20.3744 46.8867L20.3751 46.885Z" fill="#212121"/>
<path fill-rule="evenodd" clip-rule="evenodd" d="M17.7266 52.8443C18.0232 53.0381 18.3084 53.2488 18.5809 53.4754C19.1601 54.0543 19.6573 54.7096 20.2008 55.3192C20.3456 55.4815 20.829 56.1246 21.033 56.0393C21.4773 55.8548 20.8614 54.9152 20.6362 54.4758C20.5525 54.3012 20.4587 54.1317 20.3552 53.968C20.344 53.9515 20.3036 53.9085 20.3222 53.9184C20.4278 54.0046 20.5227 54.1032 20.6048 54.212C20.9282 54.5426 21.1444 54.9456 21.4938 55.2531C21.6135 55.3586 21.9388 55.5682 22.0959 55.4019C22.1789 55.3139 22.0793 55.1189 22.0493 55.0296C21.8986 54.6616 21.7219 54.3047 21.5206 53.9617C21.4315 53.7639 21.3188 53.5775 21.185 53.4066C21.1669 53.3835 21.1229 53.3098 21.1275 53.3389C21.1464 53.4592 21.3113 53.6034 21.392 53.6903C21.6045 53.9828 21.861 54.2407 22.1524 54.4547C22.277 54.5178 22.6245 54.7033 22.7049 54.4877C22.7268 54.3819 22.7265 54.2727 22.7042 54.1669C22.6819 54.0611 22.638 53.9611 22.5753 53.8731C22.3448 53.4737 22.0921 53.0876 21.8182 52.7167C21.7613 52.6386 21.4614 52.4231 21.4595 52.3229C21.4575 52.2227 21.7279 52.1887 21.7877 52.1761C22.1277 52.0952 22.4354 51.914 22.6711 51.6561C22.7015 51.6289 22.7252 51.5951 22.7403 51.5573C22.7555 51.5195 22.7617 51.4787 22.7585 51.4381C22.7553 51.3975 22.7428 51.3582 22.7219 51.3232C22.701 51.2883 22.6723 51.2586 22.6381 51.2365C22.2132 51.0008 21.8287 51.2782 20.2732 51.5295C20.1741 51.5457 20.0051 51.2091 19.6451 51.0087C19.5866 50.9754 17.7266 52.8443 17.7266 52.8443Z" fill="white"/>
<path fill-rule="evenodd" clip-rule="evenodd" d="M22.3078 50.9466C22.6384 50.9565 22.9495 51.0841 22.969 51.4167C22.9635 51.5314 22.9308 51.6431 22.8736 51.7427C22.8164 51.8423 22.7364 51.9268 22.6401 51.9893C22.4017 52.1907 22.1181 52.3314 21.8136 52.3993C21.9613 52.5199 22.0859 52.6664 22.1812 52.8317C22.4192 53.1652 22.6375 53.5123 22.8351 53.8711C23.1287 54.4854 22.8874 55.0405 22.1772 54.7271C22.2199 54.8263 22.2391 54.8801 22.2672 54.9605C22.3333 55.1502 22.4136 55.3324 22.2939 55.5179C22.1019 55.785 21.7544 55.7126 21.4704 55.5212C21.2862 55.3979 21.3018 55.3489 21.3365 55.4663C21.3955 55.628 21.399 55.8046 21.3464 55.9685C21.3296 56.0238 21.3001 56.0745 21.2604 56.1165C21.2207 56.1585 21.1718 56.1907 21.1176 56.2107C21.0633 56.2306 21.0052 56.2378 20.9477 56.2315C20.8903 56.2252 20.835 56.2057 20.7864 56.1745C20.5268 56.0237 20.2782 55.6891 19.7284 55.0173C19.2956 54.4473 18.826 53.9062 18.3227 53.3974C18.1094 53.2248 17.8896 53.0998 17.6684 52.917C17.5692 52.8238 17.6281 52.8059 18.405 52.0029C19.3998 50.978 19.5231 50.859 19.6524 50.854C19.8478 50.8814 20.2554 51.3218 20.2891 51.3539C21.6198 51.1122 21.8341 50.938 22.3078 50.9466ZM21.0003 55.8581H20.9956H21.0006H20.997H21.0019H20.9976H21.0023H20.9976H21.0019H20.9966H21.0003ZM20.9983 55.8581H20.9953H20.9983ZM20.9775 55.8505L20.9798 55.8482L20.9775 55.8505ZM20.9775 55.8505L20.9808 55.8455L20.9775 55.8505ZM20.3715 53.7062C20.5209 53.7425 20.6849 53.9749 20.7517 54.0467C21.2119 54.5357 21.4952 55.0769 21.8635 55.217C21.8797 55.223 21.8777 55.225 21.8708 55.2058C21.6957 54.752 21.4805 54.3148 21.2277 53.8992C21.1266 53.7088 21.0261 53.688 20.9335 53.4946C20.8403 53.2896 20.9203 53.1309 21.1034 53.0978C21.1564 53.0936 21.2093 53.1058 21.2551 53.1327C21.3009 53.1596 21.3373 53.1999 21.3593 53.2483C21.4596 53.4026 21.5727 53.5481 21.6975 53.6833C21.8862 53.983 22.1656 54.2146 22.4949 54.3446C22.4542 54.1252 22.363 53.9183 22.2285 53.7402C22.0357 53.42 21.8249 53.111 21.5973 52.8145C21.4595 52.6876 21.281 52.55 21.2406 52.3831C21.2269 52.3111 21.2394 52.2365 21.2758 52.1729C21.3121 52.1093 21.37 52.0607 21.439 52.0359C21.7326 51.9789 22.0143 51.8716 22.2715 51.7189C22.3409 51.6716 22.5578 51.5103 22.5439 51.4246L22.5412 51.4226C22.3187 51.2742 21.8427 51.4055 21.5888 51.4646C21.2439 51.542 20.3622 51.704 20.2478 51.6961C20.0445 51.6719 20.0098 51.4646 19.6468 51.1896C19.378 51.4015 18.0076 52.6971 17.8734 52.8314C18.6715 53.3855 18.2962 52.8905 20.5933 55.5063C20.7024 55.6398 20.8321 55.7551 20.9775 55.8478C21.0985 55.6663 20.6346 54.9185 20.3493 54.3799C20.2966 54.2792 20.2386 54.1814 20.1757 54.0867C20.134 54.0491 20.1077 53.9973 20.102 53.9414C20.0962 53.8855 20.1114 53.8295 20.1447 53.7842C20.1706 53.7505 20.2058 53.7251 20.246 53.7112C20.2862 53.6972 20.3296 53.6954 20.3708 53.7058L20.3715 53.7062ZM22.5455 51.4326V51.4283V51.4326ZM22.5455 51.4326V51.4283V51.4326ZM22.5478 51.4326L22.5459 51.4296L22.5478 51.4326ZM22.5478 51.4326L22.5459 51.4296L22.5478 51.4326ZM22.5478 51.4326L22.5452 51.4293L22.5478 51.4326ZM22.5455 51.4326V51.4289V51.4326ZM22.5455 51.4326L22.5439 51.4293L22.5455 51.4326ZM22.5455 51.4326V51.4289V51.4326ZM22.5475 51.4326L22.5449 51.4296L22.5475 51.4326ZM22.5475 51.4326L22.5442 51.4293L22.5475 51.4326ZM22.5435 51.4286L22.5465 51.4312L22.5435 51.4286ZM20.3156 51.377L20.3106 51.374H20.3136L20.31 51.3721H20.3123H20.3093L20.3156 51.377ZM20.3136 51.377L20.3093 51.3737L20.3136 51.377ZM20.309 51.3737H20.311H20.309ZM19.7059 51.1522L19.7092 51.1502L19.7059 51.1522ZM19.7079 51.1522L19.7116 51.1502L19.7079 51.1522Z" fill="#212121"/>
<path fill-rule="evenodd" clip-rule="evenodd" d="M19.6699 36.5488C19.4275 39.0539 16.8022 43.771 16.8022 43.771C16.8022 43.771 16.177 44.3918 16.1433 44.5902C16.0877 44.9152 17.021 45.469 17.9365 46.6449C18.7564 47.6976 19.0807 48.8445 19.5842 50.0502C19.692 50.3084 20.1575 51.0384 20.0302 51.3108C19.9214 51.5422 19.5624 51.6533 19.3614 51.7856C18.8612 52.1162 17.7206 53.108 17.7206 53.108C16.0345 52.6653 14.4102 51.2748 13.2442 50.0558C9.06032 45.6835 7.90353 40.0358 10.6932 34.5857C11.0899 33.819 11.5784 33.1033 12.1479 32.4546" fill="white"/>
<path fill-rule="evenodd" clip-rule="evenodd" d="M19.7618 36.5876C19.5912 38.4228 18.2456 41.3342 17.4188 42.9816C16.8277 44.1493 17.0412 43.744 16.5688 44.2977C16.4845 44.3937 16.4088 44.4969 16.3427 44.6062C16.3033 44.6845 16.6171 44.9613 16.6686 45.0089C18.7564 46.9614 18.7713 47.501 19.7691 49.9075C19.9751 50.4004 20.4885 51.0666 20.1787 51.507C19.9987 51.6985 19.7795 51.8488 19.536 51.9477C19.0392 52.3022 18.5609 52.6822 18.1031 53.0859C17.8496 53.3028 17.8506 53.3233 17.7362 53.3402C17.401 53.2685 17.0749 53.1592 16.7642 53.0145C15.8056 52.5608 14.921 51.9648 14.1405 51.2468C11.5207 48.917 9.58669 45.8784 9.0964 42.4463C8.86074 40.6553 9.00446 38.8348 9.51821 37.1029C10.032 35.3711 10.9043 33.7666 12.0785 32.3939L12.2107 32.3843L12.22 32.5165C11.1396 33.8086 10.3478 35.3167 9.89779 36.9397C8.6643 41.1189 9.59463 45.3702 12.6309 49.0208C13.8829 50.5174 15.7978 52.3057 17.6641 52.8525C18.0357 52.5309 18.763 51.9202 19.1849 51.6293C19.4236 51.4676 19.7086 51.3767 19.8104 51.2392C19.8765 51.144 19.6692 50.7198 19.617 50.6143C18.9369 49.2542 18.7244 48.0848 17.8608 46.8953C16.8174 45.4691 15.7896 45.0399 15.9687 44.503C16.1081 44.2494 16.2866 44.0193 16.4977 43.8213C16.6924 43.62 16.6204 43.7321 16.8541 43.3039C17.763 41.636 19.1515 38.8315 19.5145 36.9609C19.6137 36.4481 19.5241 36.5843 19.6825 36.455C19.7787 36.5751 19.7654 36.548 19.7618 36.5876ZM16.3311 44.63V44.6264V44.63Z" fill="#212121"/>
<path fill-rule="evenodd" clip-rule="evenodd" d="M12.3351 32.4829C12.7618 33.5941 13.4127 34.6055 14.2474 35.454C16.7861 38.084 22.2418 40.069 25.8246 40.1047C25.8639 40.1047 25.8382 40.0905 25.9496 40.1969C25.8415 40.3077 25.8669 40.2912 25.8272 40.2932C21.6596 40.5375 16.4287 38.3376 14.1568 35.951C13.233 34.9853 12.5473 33.8173 12.1543 32.5401L12.2158 32.4214L12.3351 32.4829Z" fill="#212121"/>
<path fill-rule="evenodd" clip-rule="evenodd" d="M10.4716 35.2552C12.3213 38.1315 15.1292 39.8507 18.346 41.0792C19.1262 41.3725 20.7333 41.9411 21.5529 42.1319C21.8681 42.2083 22.1886 42.2613 22.5117 42.2906C23.2476 42.3501 23.0185 42.2245 23.2116 42.3828C23.1124 42.5015 23.1355 42.482 23.0995 42.4883C21.8977 42.6265 20.6573 42.2823 19.4813 41.9296C15.6565 40.7394 12.2106 38.9025 10.3086 35.3505L10.3417 35.2212L10.4716 35.2552Z" fill="#212121"/>
<path fill-rule="evenodd" clip-rule="evenodd" d="M9.45391 39.9901C10.3135 40.7644 12.0449 41.5942 13.1237 41.9658C14.291 42.3864 16.0809 42.8363 17.3101 42.7137L17.4189 42.789L17.3422 42.8971C14.902 43.5025 10.8735 41.9562 9.31836 40.12L9.32067 39.9878L9.45391 39.9901Z" fill="#212121"/>
<path fill-rule="evenodd" clip-rule="evenodd" d="M16.1241 44.3006L16.0811 44.426C15.1506 44.9803 14.0896 45.2776 13.0065 45.2875C12.0694 45.3452 11.1302 45.2174 10.2426 44.9116L10.1729 44.7979L10.2866 44.7281C11.9138 44.9579 14.4172 44.8521 15.9582 44.2742C16.0111 44.2544 15.9793 44.253 16.1241 44.3006Z" fill="#212121"/>
<path fill-rule="evenodd" clip-rule="evenodd" d="M16.8509 45.6681L16.8288 45.7987C15.6287 46.8897 12.9382 48.223 11.5143 47.5661C11.4501 47.5364 11.4726 47.5589 11.4121 47.4197C11.5916 47.342 11.4736 47.3684 11.7097 47.4041C12.4701 47.5136 13.7479 47.0507 14.4511 46.7485C15.1748 46.4315 16.1418 45.9551 16.2049 45.922C16.8562 45.5977 16.6499 45.636 16.8509 45.6681Z" fill="#212121"/>
<path fill-rule="evenodd" clip-rule="evenodd" d="M17.8192 46.9634C17.4695 47.6927 16.9728 48.3417 16.3602 48.8697C15.6078 49.5413 14.701 50.0163 13.7206 50.2526L13.5986 50.1984C13.7034 49.9627 13.5018 50.2229 14.6857 49.4896C15.2363 49.1668 15.7529 48.7892 16.2276 48.3626C16.7252 47.901 17.1953 47.4107 17.6357 46.8943C17.6734 46.849 17.64 46.8652 17.7937 46.8335L17.8192 46.9634Z" fill="#212121"/>
<path fill-rule="evenodd" clip-rule="evenodd" d="M19.0517 48.7554C18.5085 50.1965 17.0621 51.5933 15.5443 51.8561C15.4748 51.868 15.5128 51.8766 15.376 51.7986C15.4533 51.6627 15.4262 51.6895 15.4887 51.6634C16.6977 51.1467 18.125 49.7383 18.8874 48.6674L19.014 48.6284L19.0517 48.7554Z" fill="#212121"/>
</svg>
