<?xml version="1.0" encoding="UTF-8" standalone="no"?>
<!DOCTYPE svg PUBLIC "-//W3C//DTD SVG 1.1//EN" "http://www.w3.org/Graphics/SVG/1.1/DTD/svg11.dtd">
<svg width="100%" height="100%" viewBox="0 0 556 659" version="1.1" xmlns="http://www.w3.org/2000/svg" xmlns:xlink="http://www.w3.org/1999/xlink" xml:space="preserve" xmlns:serif="http://www.serif.com/" style="fill-rule:evenodd;clip-rule:evenodd;stroke-linejoin:round;stroke-miterlimit:2;">
    <g transform="matrix(1,0,0,1,-14.1608,-5.81186)">
        <g id="Calque1">
            <path d="M569.444,313.284C569.444,291.735 551.949,274.241 530.401,274.241L53.204,274.241C31.655,274.241 14.161,291.735 14.161,313.284L14.161,625.631C14.161,647.179 31.655,664.674 53.204,664.674L530.401,664.674C551.949,664.674 569.444,647.179 569.444,625.631L569.444,313.284ZM257.733,472.352C241.667,461.43 231.104,443 231.104,422.123C231.104,388.623 258.302,361.425 291.802,361.425C325.302,361.425 352.5,388.623 352.5,422.123C352.5,444.002 340.899,463.193 323.522,473.872L323.522,531.379C323.522,540.457 316.152,547.827 307.075,547.827L274.18,547.827C265.103,547.827 257.733,540.457 257.733,531.379L257.733,472.352Z" style="fill:rgb(170,173,176);"/>
            <g transform="matrix(0.93028,0,0,0.93028,-264.471,-49.9776)">
                <path d="M379.279,422.341C379.266,421.363 380.196,279.172 380.196,278.197C380.196,157.755 477.98,59.971 598.423,59.971C718.865,59.971 816.649,157.755 816.649,278.197C816.649,279.172 815.706,421.363 815.693,422.341L757.936,422.341C757.954,421.36 758.9,279.171 758.9,278.197C758.9,189.627 686.992,117.72 598.423,117.72C509.853,117.72 437.946,189.627 437.946,278.197C437.946,279.171 437.018,421.36 437.035,422.341L379.279,422.341Z" style="fill:rgb(170,173,176);"/>
            </g>
            <g transform="matrix(0.787569,0,0,0.787569,-181.031,-15.562)">
                <path d="M379.279,422.341C379.266,421.363 380.196,279.172 380.196,278.197C380.196,157.755 477.98,59.971 598.423,59.971C718.865,59.971 816.649,157.755 816.649,278.197C816.649,279.172 815.706,421.363 815.693,422.341L757.936,422.341C757.954,421.36 758.9,279.171 758.9,278.197C758.9,189.627 686.992,117.72 598.423,117.72C509.853,117.72 437.946,189.627 437.946,278.197C437.946,279.171 437.018,421.36 437.035,422.341L379.279,422.341Z" style="fill:rgb(170,173,176);"/>
            </g>
        </g>
    </g>
</svg>
