<svg width="96" height="76" viewBox="0 0 96 76" fill="none" xmlns="http://www.w3.org/2000/svg">
<g clip-path="url(#clip0)">
<path d="M28.5 72L24.5 72.5L21.5 72L19.5 70.5L17 68L15.5 65.5L14.5 64L14 61.5L13.5 58.5L14 56L15 54.5L16 53.5L17.5 53H19L21 54L23.5 55.5L26.5 57.5L28.5 59L30 60.5L31.5 62.5L32.5 65.5L32 68L30.5 70L28.5 72Z" fill="white"/>
<path d="M5.5 32L6 33.5H5L3.5 34.5L2 36L1 37.5L0.5 39V40H1V41.5L1.5 43.5L2.5 45.5L4 47.5L5.5 49L7 50.5L8.5 51L10 52H11.5L13 51.5L14 50L15 48.5L15.5 46V43.5V40.5L15 38L14 35.5L14.5 34.5L13 33.5L11.5 33L10 32.5L8.5 33H7.5L7 32V30.5L6.5 28.5H6L5 29.5V30L5.5 32Z" fill="white"/>
<path d="M22.5 39.5H21V38L21.5 34.5V32L21 30L20.5 29H19.5H18L17 28L16.5 26.5L17.5 25L18.5 24V23.5V22L19.5 21L20.5 20.5L22 20L22.5 19L23.5 18H25L27 18.5L28 19.5L28.5 18.5H29H30L30.5 19L31 20V21.5H31.5H32.5H33L33.5 23V24.5L33 25.5V26L33.5 27L34 28.5L33 30L32 31.5L31 32.5H29.5L28 32L27.5 30.5L27 31L26.5 33.5L26 36.5L25.5 39L25 39.5H24H22.5Z" fill="white"/>
<path d="M38 17L34.5 16L32.5 15L31 13.5L30 11V8L31 4.5L33.5 2L36 1L39 0.5L42.5 1L44.5 2.5L46.5 5.5L47 8.5V11.5L45.5 14L43 16L40.5 17H38Z" fill="white"/>
<path d="M43 34.5L40.5 34L42 28.5L43.5 26L45 24.5L45.5 23L47 21L49 18.5L50 18L50.5 18.5L52.5 17.5H53.5H55L56.5 17L57 17.5H58H59L59.5 18L60 18.5H61V19L62.5 19.5L64 20L65 19.5L66 18.5L68.5 15.5L69 14.5L69.5 15.5L69 18L68.5 20L69 21L70.5 21.5L71.5 22.5L72.5 23.5H69.5H66.5L65 24L64.5 25L62.5 27.5L59.5 30L56.5 32L50 34L46.5 34.5H43Z" fill="white"/>
<path d="M49.5 39.5L26 48V49L26.5 52.5L28.5 55.5L31.5 57.5L35.5 59L39 59.5H43.5L47.5 58L49.5 56.5L51 54L52 51.5L52.5 49V46.5L52 44L51 41L50 39.5H49.5Z" fill="white"/>
<path d="M69.5 36.5L69 37.5H68L66.5 38L65 39.5L64 42L63 43.5L61.5 45.5L61 48L59.5 51L59 54L58.5 56.5L58 59L58.5 60.5H59.5L61 59L62 57.5L63.5 56L64 55L65.5 53.5L66.5 52.5L67.5 51L68.5 49L69.5 47.5L71.5 46.5L72.5 44.5L73 42.5L72.5 41L72 39.5L73.5 38L74.5 37L75 36L75.5 35V34.5H75L75.5 34L76 33.5L77.5 32L78.5 30L78 29.5L77 29L76 29.5L72.5 35L73.5 32.5L74.5 30L75 28L74.5 27.5L74 27L73.5 27.5L73 28V29L72.5 31.5H71L70.5 32.5L70 34.5L69.5 36.5Z" fill="white"/>
<path d="M89 21L90 23H89.5L89 24L88.5 26L88 28L87 29.5L84 33L81.5 36.5L80.5 38.5L80 42V44.5L81.5 46.5L84 48H86L88.5 47.5L91 45.5L93 42.5L94.5 38L95.5 33V29.5L94.5 25.5L93 24L91.5 23L91 20.5V19.5L90.5 18.5H90H88.5L87.5 19L88 19.5L89 21Z" fill="white"/>
<path d="M41 75.5H44.5H47L63.5 72L75 69.5L79 68L80.5 67L81 66L81.5 65L81 64L79 63L76 62H73H69L60.5 63.5L54.5 65L45 68L41.5 69.5L39.5 70.5L38.5 71.5L38 73L38.5 74L39 75L41 75.5Z" fill="white"/>
<path d="M33.8571 26.4781C33.5354 25.9264 33.1125 25.8828 33.3908 25.1315C33.5607 24.6814 33.7415 24.3149 33.8029 23.8249C33.915 22.9538 33.8824 22.1516 33.2426 21.4983C32.6606 20.903 31.981 20.9793 31.258 21.1027C31.3159 20.8813 31.4207 20.6308 31.4279 20.4276C31.4352 20.1808 31.4062 19.9231 31.3593 19.6799C31.2508 19.1318 30.9869 18.6128 30.4845 18.3333C29.7 17.8977 28.3047 18.003 27.9721 18.9394C26.8985 18.2534 25.7634 17.4949 24.4368 17.6582C23.8837 17.7235 23.3379 17.876 22.8679 18.1881C22.3655 18.522 22.1883 18.8487 21.9678 19.3822C21.7582 19.8976 21.3352 19.8722 20.84 19.9231C20.54 19.9521 20.2544 19.9775 19.9688 20.09C19.4338 20.3005 18.9386 20.6925 18.5699 21.1281C17.8577 21.9701 17.724 22.9901 18.0782 23.9882C17.9192 24.1297 17.6481 24.2495 17.5107 24.3693C17.283 24.5653 17.0733 24.7867 16.8962 25.0299C16.5238 25.5344 16.2997 26.1478 16.278 26.7794C16.231 28.0896 17.1854 29.2656 18.465 29.4979C18.7795 29.556 19.1193 29.5741 19.4374 29.556C19.6326 29.5451 20.0736 29.3636 20.2327 29.4253C20.3845 29.4834 20.6159 30.0024 20.7605 30.1404C20.8689 30.2456 20.9918 30.3291 21.122 30.4017C21.1509 31.8971 21.2557 33.3816 21.1328 34.8806C21.0569 35.8315 20.981 36.7825 20.8653 37.7298C20.8147 38.1363 20.7496 38.5247 20.6448 38.9203C20.587 39.1454 20.558 39.2397 20.6665 39.4575C20.7135 39.5519 20.84 39.6281 20.9484 39.6208C21.6425 39.5591 22.3185 39.6027 23.0089 39.7116C23.6162 39.8096 24.2416 40.0927 24.8597 40.1072C25.9948 40.1326 26.0346 38.7969 26.1755 37.9621C26.4033 36.6119 26.4864 35.2363 26.7503 33.8897C26.913 33.0513 27.1226 32.133 27.419 31.2873C27.4407 31.3563 27.466 31.4289 27.4986 31.4978C27.6649 31.839 27.9107 32.1366 28.2071 32.3689C28.8542 32.8734 29.7543 33.1965 30.5712 33.1057C31.5075 33.0005 32.0822 32.6121 32.4365 31.7555C32.61 31.3381 32.9498 31.0296 33.1848 30.6412C33.4378 30.2166 33.6728 29.7701 33.8607 29.3164C34.2403 28.409 34.3704 27.3565 33.8571 26.4781ZM26.4467 32.4887C26.1105 33.7336 25.9695 34.9967 25.796 36.2744C25.7128 36.895 25.6369 37.5193 25.5212 38.1363C25.4706 38.3977 25.4489 38.7062 25.355 38.953C25.1814 39.4176 24.8778 39.4902 24.4079 39.3813C23.3849 39.1417 22.3691 38.924 21.3208 38.9421C21.375 38.7824 21.4003 38.6082 21.4256 38.4412C21.4943 38.0311 21.5304 37.6137 21.563 37.1999C21.628 36.2961 21.6714 35.3924 21.7184 34.4886C21.7871 33.1602 21.6389 31.8463 21.4473 30.5396C22.1811 30.8155 22.8499 30.6013 23.3993 30.1766C23.3559 30.4235 23.3342 30.6703 23.3017 30.9171C23.2077 31.5994 23.0957 32.2818 23.0053 32.9642C22.8969 33.7845 23.1137 34.5975 24.0608 34.7064C24.4079 34.7463 24.8959 34.7064 25.1851 34.4922C25.514 34.249 25.5068 33.8534 25.5502 33.4796C25.6188 32.9206 25.6695 32.3689 25.7092 31.8063C25.7345 31.4434 25.7887 31.084 25.8574 30.7247C25.8683 30.6703 25.8719 30.536 25.8827 30.4198C26.1177 30.4815 26.3599 30.5251 26.6021 30.5287C26.8407 30.5323 27.0539 30.438 27.2708 30.3872C26.8118 30.9243 26.6129 31.8717 26.4467 32.4887ZM23.4933 33.0368C23.5186 32.6266 23.5981 32.2237 23.6487 31.8172C23.721 31.222 23.8114 30.5069 23.7391 29.8827C23.9199 29.7012 24.0861 29.4979 24.2307 29.2874C24.3934 29.4761 24.7187 29.9008 24.7983 29.9589C24.9718 30.0895 25.1634 30.1839 25.3622 30.2601C25.2357 30.7066 25.2248 31.2655 25.1923 31.6938C25.1634 32.0786 25.1345 32.456 25.0875 32.8371C25.0405 33.2328 25.1092 33.9224 24.6645 34.1365C24.303 34.3108 23.7716 34.1256 23.5873 33.8062C23.4355 33.5522 23.4752 33.3126 23.4933 33.0368ZM33.3944 28.7248C33.1848 29.4544 32.816 30.2928 32.3244 30.8772C31.887 31.3998 31.6954 32.0568 30.9905 32.2746C30.2242 32.5105 29.4687 32.3508 28.7927 31.937C28.4457 31.7229 28.1456 31.4434 27.9794 31.0623C27.8311 30.7211 27.8781 30.3472 27.7661 29.9988C27.7299 29.8863 27.6215 29.7847 27.495 29.7919C27.0467 29.8137 26.7214 30.0206 26.237 29.9335C25.5899 29.8137 25.0947 29.5487 24.7043 29.0188C24.5561 28.8192 24.4187 28.576 24.1331 28.6196C23.8042 28.6704 23.6596 29.1095 23.4355 29.3201C22.9945 29.7338 22.4125 30.1186 21.7871 29.9444C21.2051 29.7847 21.0641 29.3092 20.7099 28.9027C20.4966 28.6595 20.3086 28.6558 20.005 28.6994C19.3507 28.7974 18.7759 28.9317 18.1288 28.6377C16.9432 28.0969 16.748 26.6124 17.3625 25.5671C17.6083 25.1497 17.9698 24.823 18.3602 24.5472C18.5409 24.4201 18.7723 24.304 18.7795 24.0499C18.7831 23.9301 18.7 23.8176 18.6638 23.7051C18.5807 23.4329 18.5446 23.128 18.5626 22.8449C18.6024 22.2206 18.9675 21.6761 19.4266 21.2769C19.8893 20.874 20.3411 20.7034 20.9448 20.649C21.3497 20.6127 21.8269 20.5873 22.1775 20.3695C22.5643 20.1299 22.5534 19.7815 22.6655 19.3822C22.8571 18.7071 23.5367 18.3224 24.1729 18.1627C25.5791 17.8179 26.7575 18.5293 27.9107 19.2407C27.9107 19.2443 27.9107 19.248 27.9107 19.2516C27.8818 19.571 28.3661 19.5637 28.4023 19.2516C28.471 18.6527 29.4145 18.5547 29.8482 18.6817C30.3254 18.816 30.6037 19.1137 30.7375 19.5891C30.8423 19.9702 30.8568 20.384 30.7736 20.7687C30.7086 21.0591 30.5821 21.2696 30.6291 21.5673C30.658 21.7487 30.864 21.8104 31.0158 21.7887C31.3665 21.7342 31.7894 21.5854 32.1437 21.6362C32.6353 21.7052 33.0691 22.1444 33.1739 22.6271C33.3474 23.4111 33.0835 24.3003 32.7076 24.9718C32.4618 25.411 32.3859 25.7885 32.7184 26.2022C32.9787 26.5253 33.2751 26.7358 33.4053 27.1532C33.5643 27.6613 33.5426 28.2094 33.3944 28.7248Z" fill="black"/>
<path d="M23.6304 28.1839C23.287 28.3109 22.6399 28.427 22.4375 27.9697C22.311 27.6866 22.5278 27.222 22.5278 26.9171C22.5278 26.7647 22.358 26.6014 22.1989 26.6667C21.5301 26.9389 19.607 27.0732 20.4674 25.8609C20.6843 25.556 21.4651 25.106 21.1434 24.6414C21.0132 24.4527 20.7421 24.3764 20.5831 24.2131C20.0842 23.6977 20.1059 23.019 20.6987 22.5762C21.4072 22.0426 22.5134 21.6651 23.3412 22.1624C23.4243 22.2132 23.4858 22.0934 23.4135 22.0353C22.4881 21.3348 20.9301 21.7051 20.1601 22.4854C19.8059 22.8447 19.654 23.3601 19.795 23.8501C19.8565 24.0643 19.9649 24.2675 20.0987 24.4454C20.171 24.5434 20.424 24.714 20.5686 24.8483C19.9541 25.3855 19.1588 26.2203 19.7227 27.0297C20.1963 27.712 21.2265 27.6648 21.9748 27.3636C21.9025 27.7919 21.7868 28.2238 22.1519 28.5686C22.5929 28.9896 23.2689 28.9461 23.7894 28.7428C24.1292 28.6122 23.981 28.0532 23.6304 28.1839Z" fill="black"/>
<path d="M27.8673 27.3817C27.6323 28.1148 26.6672 28.485 26.3093 27.5849C26.2045 27.3236 26.3238 27.0114 26.1864 26.7791C26.1249 26.6775 25.9731 26.6267 25.8683 26.6957C25.4996 26.9461 24.9429 27.2002 24.5489 26.8735C24.0283 26.4452 24.5019 25.7266 24.7549 25.2801C24.8597 25.095 24.5886 24.9389 24.4729 25.1168C24.0428 25.7883 23.5005 26.6957 24.2524 27.3708C24.6537 27.7337 25.2357 27.6902 25.6911 27.4397C25.7128 27.6248 25.7815 27.8063 25.8466 27.9733C25.9948 28.3399 26.2334 28.6556 26.6202 28.779C27.5745 29.0839 28.4168 28.3907 28.5324 27.4688C28.5867 27.0768 27.9794 27.0332 27.8673 27.3817Z" fill="black"/>
<path d="M31.3337 25.302C31.2903 24.9245 31.0373 24.8592 30.8457 24.5761C30.4951 24.0606 31.1096 23.4073 30.8348 22.8084C30.5565 22.1914 29.7685 22.4419 29.2732 22.5653C29.1214 22.6016 29.1865 22.8266 29.3383 22.7976C29.7395 22.7177 30.4119 22.6197 30.4264 23.2222C30.4336 23.4581 30.336 23.6251 30.2312 23.8284C30.0974 24.0824 29.9384 24.3075 30.054 24.6015C30.1155 24.7539 30.2456 24.7938 30.3252 24.9172C30.5601 25.2983 30.5999 25.5415 30.2601 25.8391C29.8444 26.2057 29.3455 26.4525 28.8973 26.7756C28.6804 26.9317 28.8105 27.2583 29.078 27.2075C29.8335 27.0623 30.6107 26.6667 31.0807 26.0351C31.2469 25.8174 31.3662 25.5778 31.3337 25.302Z" fill="black"/>
<path d="M95.5592 28.0094C95.3025 26.8843 94.9555 25.7373 94.312 24.7682C93.6939 23.8427 92.6962 23.2329 91.637 22.9244C91.5937 21.6359 91.3153 20.3074 90.9719 19.0734C90.8851 18.7649 90.7514 18.2749 90.4297 18.1333C90.0212 17.9591 89.3958 18.2422 88.9982 18.3221C88.1957 18.4818 86.8835 18.656 87.6281 19.7049C88.0113 20.2457 88.5138 20.6813 88.8608 21.2511C89.1572 21.7411 89.4645 22.2892 89.6995 22.83C89.403 22.9244 89.1319 23.0877 88.9114 23.3527C88.0583 24.3798 88.2969 25.9478 87.9246 27.1601C87.4872 28.5938 86.5292 29.8133 85.546 30.9131C85.5171 30.9458 85.5026 30.9821 85.5026 31.0184C85.217 31.3523 84.9315 31.6862 84.6459 32.0201C82.9939 33.9474 81.3853 35.9873 80.4201 38.361C79.5742 40.4408 79.0175 43.163 80.0261 45.3008C81.0021 47.3733 83.2469 48.4077 85.4484 48.3025C87.6571 48.1972 89.6633 47.2717 91.2249 45.7037C92.9528 43.9651 93.8927 41.6966 94.5976 39.3882C95.3676 36.8838 95.8484 34.3104 95.9821 31.6898C96.0544 30.434 95.8375 29.2326 95.5592 28.0094ZM89.2585 20.9027C89.056 20.5833 88.8138 20.2965 88.5608 20.0134C88.427 19.861 87.9499 19.469 87.9679 19.2803C87.9933 19.0117 88.2391 18.9863 88.4596 18.9246C88.9078 18.7975 89.4753 18.6197 89.9344 18.6088C90.5128 18.5979 90.5526 19.3202 90.6502 19.7884C90.8562 20.7757 91.008 21.7811 91.037 22.7901C90.7152 22.7356 90.3863 22.7175 90.0682 22.7574C89.9995 22.1077 89.5766 21.4072 89.2585 20.9027ZM87.9932 28.4268C88.1342 28.1474 88.2427 27.8679 88.3186 27.5811C88.5066 27.1057 88.6439 26.6084 88.7198 26.0749C88.8789 24.9715 88.915 23.3418 90.3935 23.3309C90.6393 23.3273 90.8996 23.3599 91.1599 23.418C91.2213 23.4579 91.2936 23.4761 91.3695 23.4688C92.125 23.6757 92.8733 24.1004 93.3649 24.6121C94.1566 25.4288 94.5578 26.6411 94.8362 27.7191C94.8579 27.8062 94.8796 27.8933 94.9013 27.9804C93.9867 28.3397 93.7192 27.1238 93.5493 26.3979C93.5095 26.22 93.2565 26.1983 93.1697 26.3471C92.7866 26.9859 92.8552 27.8098 92.5335 28.4631C92.2841 28.9713 92.2479 28.1328 92.2516 27.9114C92.2552 27.4614 92.3094 26.946 92.3781 26.5031C92.4178 26.2418 92.0997 26.0821 91.9443 26.318C91.4057 27.1456 91.1093 28.1074 90.502 28.9059C90.4297 29.0039 90.2562 29.2834 90.1296 29.3125C89.8477 29.3742 89.8874 28.8624 89.9055 28.6374C89.9272 28.3651 89.9778 28.0965 90.0103 27.8279C90.032 27.6537 90.0031 27.269 90.0682 27.0149C90.1188 26.9351 90.1658 26.8516 90.2092 26.7681C90.3321 26.5249 90.0465 26.318 89.8441 26.485C89.7537 26.5612 89.6995 26.6592 89.6669 26.7717C89.1717 27.5594 88.4451 28.2272 87.7474 28.8733C87.8342 28.7281 87.9173 28.5793 87.9932 28.4268ZM94.3663 38.0344C93.7481 40.3609 92.9565 42.7056 91.4201 44.5967C90.1332 46.1792 88.3186 47.3515 86.2834 47.6274C85.0399 47.7943 83.9265 47.7 82.7842 47.1737C81.7395 46.6946 80.825 45.7835 80.4779 44.6584C79.7767 42.3717 80.4093 39.8419 81.4142 37.7513C82.5746 35.3376 84.4145 33.3304 86.0629 31.2543C86.5039 30.6953 86.9486 30.1255 87.3426 29.5266C87.9282 29.3415 88.409 28.8733 88.8138 28.4305C89.0488 28.1764 89.2946 27.9368 89.5296 27.6864C89.4717 28.0348 89.4103 28.3905 89.3886 28.739C89.3633 29.1745 89.4573 29.9912 90.0682 29.9186C90.5273 29.8642 90.8851 29.3016 91.1273 28.964C91.3731 28.6192 91.5647 28.2526 91.7383 27.8824C91.7202 28.5321 91.8286 29.1564 92.3275 29.2471C93.0071 29.3705 93.224 28.2635 93.3686 27.3924C93.4734 27.7662 93.6144 28.1219 93.9108 28.3942C94.2723 28.7281 94.6446 28.6882 95.035 28.5466C95.2338 29.385 95.3893 30.2416 95.3857 31.091C95.3893 33.432 94.9663 35.7731 94.3663 38.0344Z" fill="black"/>
<path d="M61.6988 58.9117C62.0856 58.3128 62.3386 57.6703 62.8736 57.1731C63.246 56.8283 63.7159 56.596 64.0232 56.1822C64.3883 55.6886 64.5835 55.0861 64.8835 54.5561C65.5089 53.4491 66.6692 52.8902 67.4175 51.8884C67.7067 51.5 67.9634 51.079 68.1549 50.6326C68.4044 50.0518 68.5237 49.4239 68.8635 48.8831C69.572 47.7615 70.9637 47.1518 71.824 46.1391C72.5289 45.3152 73.1362 44.426 73.2664 43.3189C73.3965 42.2192 73.2049 41.0867 72.7422 40.085C72.6482 39.8853 72.5542 39.6893 72.453 39.5042C72.9013 39.1413 73.2483 38.6912 73.6279 38.2629C74.1231 37.7076 74.6581 37.1777 75.0304 36.5243C75.2329 36.1723 75.4208 35.8238 75.6449 35.4826C75.7498 35.3229 75.8871 35.1596 75.9233 34.9636C75.9847 34.6297 75.8004 34.4845 75.5654 34.3647C75.6883 34.2377 75.8112 34.107 75.9305 33.98C76.7041 33.167 77.4777 32.3757 77.9802 31.3594C78.2332 30.8477 78.7682 29.8931 78.2874 29.3486C77.8572 28.8623 76.7294 28.9167 76.2089 29.1672C75.3413 29.5882 74.9039 30.9094 74.434 31.6825C73.9966 32.4011 73.523 33.0944 73.0784 33.8094C73.382 33.1307 73.6821 32.4556 74.0074 31.7877C74.5063 30.7606 74.8967 29.6717 75.1027 28.5429C75.2401 27.7843 75.3124 27.0729 74.3436 26.9749C73.458 26.8841 72.9302 27.5701 72.7928 28.3578C72.6265 29.3015 72.4747 30.227 72.2578 31.1562C71.8457 31.0364 71.3324 30.9747 71.0143 31.2469C70.5661 31.6317 70.3383 32.579 70.1395 33.1162C69.8792 33.8239 69.6623 34.5317 69.4599 35.2576C69.2864 35.8746 69.0623 36.4953 69.0659 37.145C68.0067 37.0688 66.8138 37.468 66.0222 37.9617C65.0932 38.5424 64.6051 39.3046 64.2256 40.3136C64.0232 40.8472 63.8749 41.3953 63.6906 41.9324C63.4556 42.6221 63.0038 43.0794 62.4688 43.5476C61.6554 44.259 61.0373 44.9268 60.7879 46.0157C60.5348 47.13 60.5927 48.2806 60.1155 49.3404C59.7215 50.2224 59.1106 51.0137 58.9768 51.9937C58.8177 53.1878 58.8828 54.3311 58.5141 55.5071C58.1924 56.5343 57.6718 57.4889 57.6899 58.5959C57.7008 59.3327 57.9357 60.3816 58.6406 60.77C59.3853 61.1765 60.2131 60.574 60.73 60.0731C61.0987 59.7247 61.4241 59.3363 61.6988 58.9117ZM75.4389 35.087C75.3738 35.2903 75.1316 35.5081 75.016 35.6859C74.7015 36.1723 74.4484 36.6586 74.058 37.0942C73.711 37.4826 73.3097 37.8201 72.9555 38.1976C72.6952 38.4734 72.4349 38.7456 72.1313 38.9743C72.0445 38.8436 71.9506 38.7202 71.853 38.6005C72.0915 38.4807 72.2 38.2774 72.3807 38.027C72.7133 37.566 73.0856 37.1232 73.4507 36.6877C74.0616 35.9581 74.7195 35.2576 75.3774 34.5644C75.4678 34.7168 75.5076 34.8656 75.4389 35.087ZM75.4064 31.08C75.6269 30.6843 75.8365 30.1399 76.1583 29.8132C76.4727 29.4938 77.4921 29.3523 77.8681 29.6789C78.4465 30.1834 77.2427 31.8422 76.8957 32.2886C76.3065 33.0472 75.5871 33.6896 74.9328 34.3901C74.2749 35.0907 73.5772 35.7658 72.9591 36.4989C72.4675 37.0797 72.0229 37.6894 71.5529 38.2847C71.4445 38.1831 71.3288 38.0851 71.2023 37.998C71.2457 37.9108 71.2854 37.8237 71.3288 37.7366C71.4987 37.508 71.759 37.0797 71.7843 37.0289C71.9903 36.6332 72.2108 36.2412 72.4494 35.8638C72.9302 35.0979 73.382 34.3175 73.8773 33.5553C74.4014 32.7423 74.9328 31.9293 75.4064 31.08ZM73.1796 29.3051C73.2555 28.8042 73.2302 28.2997 73.5303 27.875C73.7761 27.5266 74.2532 27.2798 74.6039 27.65C74.8858 27.944 74.7521 28.2852 74.6726 28.6844C74.5822 29.1599 74.4557 29.639 74.3111 30.1C74.0002 31.0981 73.5086 32.0345 73.0676 32.9782C72.6446 33.882 72.2217 34.7858 71.777 35.6786C71.4698 36.2957 70.9782 37.0397 70.7721 37.7439C70.7034 37.7076 70.6311 37.6749 70.5588 37.6459C70.5263 37.6314 70.4938 37.6205 70.4612 37.6096C71.4698 36.4409 71.8602 34.7059 72.2253 33.2577C72.4494 32.3612 72.7278 31.472 72.9266 30.5718C73.0169 30.1544 73.1145 29.7297 73.1796 29.3051ZM70.266 34.1905C70.4215 33.686 70.6094 33.1924 70.8083 32.706C70.9745 32.3031 71.1155 31.6934 71.5457 31.4828C71.6831 31.4139 71.9542 31.4066 72.1928 31.4139C72.1855 31.4465 72.1783 31.4792 72.1674 31.5155C71.8999 32.5645 71.6975 33.6279 71.3613 34.6587C71.1553 35.283 70.9673 35.9037 70.6854 36.4989C70.5299 36.8292 70.3202 37.1305 70.172 37.4571C70.013 37.37 69.8467 37.3011 69.6696 37.2539C69.666 37.243 69.6623 37.2285 69.6587 37.2176C69.8142 36.2013 69.966 35.1814 70.266 34.1905ZM59.1829 60.2074C58.5792 60.1348 58.4237 59.1694 58.4057 58.7011C58.3731 57.8119 58.7455 57.0388 59.0455 56.2294C59.6022 56.8355 60.3685 57.6703 61.2289 57.6377C61.4385 57.6304 61.4638 57.3582 61.2759 57.2892C60.8927 57.1477 60.5384 57.0969 60.1769 56.8682C59.8046 56.6323 59.4323 56.3637 59.0997 56.0733C59.1069 56.0552 59.1142 56.037 59.1214 56.0189C59.4142 55.1804 59.5769 54.3093 59.6383 53.4237C59.6709 52.9664 59.6383 52.4982 59.707 52.0481C59.7865 51.54 60.0179 51.079 60.2565 50.6289C60.3071 50.5346 60.3577 50.4366 60.4083 50.3422C61.059 51.4492 62.1254 52.2622 63.4303 52.4619C63.4918 52.4728 63.5098 52.3929 63.4556 52.3711C62.7254 52.0771 62.1109 51.5327 61.547 50.9991C61.3445 50.8068 61.2036 50.5636 61.012 50.3603C60.8818 50.2224 60.7409 50.0917 60.6035 49.9575C60.8529 49.4457 61.059 48.923 61.1566 48.3387C61.3084 47.4458 61.2361 46.5093 61.547 45.6455C61.7024 45.2136 61.9699 44.8688 62.2772 44.5603C62.288 44.8615 62.2663 45.1555 62.4109 45.4713C62.6531 45.9939 63.0255 46.5529 63.4339 46.9594C64.2292 47.7398 65.5595 48.1463 66.6367 48.2915C66.8138 48.3133 66.8247 48.0483 66.6765 47.9975C65.6679 47.6527 64.3883 47.228 63.6653 46.4005C63.3436 46.0339 63.0218 45.5874 62.7905 45.1519C62.6495 44.8869 62.6134 44.6002 62.5302 44.3243C62.9712 43.9251 63.452 43.5585 63.8063 43.0866C64.3015 42.4224 64.4569 41.555 64.7064 40.7601C64.7244 40.8907 64.7497 41.0214 64.7895 41.1593C64.9558 41.7401 65.2269 42.2591 65.6607 42.6874C66.4704 43.4895 67.8368 44.1864 68.9936 44.161C69.1635 44.1574 69.2177 43.8851 69.0334 43.8525C67.9489 43.6746 66.7235 43.0358 65.9535 42.2446C65.5378 41.8163 65.2992 41.2646 65.1365 40.6984C65.0715 40.4697 65.0679 40.1939 65.0172 39.9434C65.2233 39.497 65.4763 39.105 65.8812 38.7747C66.3873 38.3645 66.9584 38.0887 67.5693 37.8709C67.7356 37.8128 67.9128 37.7584 68.0899 37.7112C68.7912 37.7112 69.4961 37.8963 70.1467 38.1577C71.1119 38.5497 71.6071 39.3228 72.0626 40.2229C72.4856 41.0613 72.688 41.976 72.6518 42.916C72.4169 42.8652 72.153 42.9088 71.9108 42.887C71.3324 42.8398 70.689 42.6583 70.1323 42.4878C69.0261 42.1502 68.2381 41.0577 67.7465 40.0705C67.7392 40.0559 67.7139 40.0668 67.7212 40.0813C68.1296 41.2029 68.6755 42.4043 69.8142 42.956C70.2733 43.1774 71.7951 43.798 72.5687 43.573C72.3771 44.4187 71.8855 45.1265 71.3071 45.7979C70.9854 46.1754 70.6167 46.4985 70.2371 46.807C70.2227 46.7743 70.201 46.7453 70.1648 46.7199C69.713 46.3859 68.9466 46.3859 68.4224 46.2117C67.6344 45.954 66.8319 45.4459 66.2102 44.9014C66.1848 44.8797 66.1523 44.9123 66.174 44.9377C67.1609 46.1464 68.3827 46.7199 69.8395 47.13C69.5358 47.3732 69.2286 47.6164 68.9394 47.8813C68.2417 48.5238 67.9742 49.2969 67.6199 50.1426C67.3994 50.1353 67.1645 50.1607 66.9657 50.1426C66.5933 50.1099 66.2318 50.0881 65.8595 50.0337C65.2631 49.9502 64.6702 49.7433 64.1677 49.4094C63.5858 49.021 63.1737 48.4838 62.711 47.9648C62.6784 47.9285 62.617 47.9757 62.6423 48.0156C63.0833 48.698 63.4159 49.3912 64.0485 49.9139C64.5329 50.3168 65.1727 50.5309 65.78 50.6398C66.0258 50.6834 66.7451 50.8213 67.3018 50.7814C66.9042 51.4746 66.362 52.0662 65.7438 52.5853C65.0028 53.2059 64.4822 53.8556 64.0702 54.734C63.9509 54.9881 63.8352 55.2567 63.6978 55.5071C63.6725 55.4926 63.6436 55.4781 63.6111 55.4744C62.9712 55.3474 62.3133 55.3692 61.706 55.1042C60.9252 54.763 60.242 54.3565 59.7829 53.6125C59.7721 53.5907 59.7432 53.6088 59.7504 53.6306C60.4264 55.1224 61.7675 55.8338 63.311 56.037C63.3002 56.0479 63.293 56.0552 63.2821 56.0661C62.9025 56.429 62.4651 56.6867 62.1181 57.0969C61.4783 57.8591 61.124 58.7737 60.3974 59.4815C60.1155 59.761 59.6311 60.2619 59.1829 60.2074Z" fill="black"/>
<path d="M47.4599 7.9308C47.1454 5.58971 45.7212 3.28855 43.9174 1.78227C42.0883 0.257841 39.7784 -0.224895 37.4468 0.0908795C36.1346 0.268729 34.8802 0.686132 33.8102 1.48464C32.9137 2.15249 31.9666 2.90744 31.3087 3.81847C29.7977 5.91637 29.194 8.63131 29.7977 11.1466C30.7701 15.4695 35.8128 17.8142 39.9627 17.4403C42.2473 17.2371 44.2969 16.2244 45.7103 14.3915C46.4261 13.4659 46.9647 12.4787 47.2937 11.3535C47.6262 10.232 47.6154 9.08864 47.4599 7.9308ZM46.0754 12.6602C45.0741 14.5367 43.4583 16.0429 41.3725 16.5801C37.219 17.6508 31.7787 15.7635 30.4267 11.339C29.7399 9.09952 30.3472 6.33378 31.6702 4.45728C33.1487 2.363 35.2489 1.26687 37.6853 0.675244C37.6926 0.675244 37.6998 0.671614 37.7034 0.667984C39.2723 0.486505 40.9351 0.697021 42.2726 1.4302C44.0692 2.41745 45.4573 4.25765 46.2743 6.10874C47.1744 8.1522 47.1274 10.6929 46.0754 12.6602Z" fill="black"/>
<path d="M39.6991 5.05968C39.3954 4.63139 39.1135 4.18495 38.8134 3.75665C38.6616 3.53888 38.4303 3.33199 38.17 3.52073C37.87 3.73851 37.7217 4.34465 37.7145 4.68583C37.7037 5.17219 37.8266 5.61137 38.264 5.83641C38.3941 5.90174 38.5062 5.77108 38.452 5.64767C38.3218 5.34641 38.2314 5.01612 38.2098 4.68583C38.1953 4.48983 38.2459 4.30109 38.3001 4.11598C38.3218 4.04339 38.3435 3.97443 38.3652 3.90547C38.4483 3.80747 38.5134 3.82925 38.5532 3.96717C38.7411 4.14502 38.8532 4.47168 38.9942 4.68583C39.1388 4.9036 39.2834 5.11049 39.493 5.27019C39.6087 5.36093 39.7822 5.17945 39.6991 5.05968Z" fill="black"/>
<path d="M44.1128 4.25394C43.744 3.86195 42.9054 3.82565 42.3993 3.75669C41.8245 3.68047 41.2679 3.69862 40.7003 3.69862C40.8268 3.51714 41.0257 3.31751 41.1088 3.19047C41.3004 2.89648 41.5064 2.62789 41.633 2.2976C41.6944 2.13789 41.5426 2.01449 41.4052 1.99997C41.1124 1.9673 40.7726 2.19234 40.5232 2.323C40.1472 2.52263 39.7966 2.82026 39.4207 3.0344C39.4315 2.33026 39.3737 1.41923 38.8531 0.983683C38.7736 0.918351 38.6868 0.92198 38.6109 0.983683C38.1735 1.32849 38.0036 2.13426 37.8301 2.72226C37.3746 2.42826 36.9156 2.15241 36.3806 2.01086C36.2793 1.98545 36.1492 2.04352 36.1275 2.15604C36.0118 2.73678 36.724 3.30662 37.1108 3.76758C36.977 3.73491 36.8469 3.69862 36.7095 3.67684C36.3625 3.61514 36.0046 3.66958 35.654 3.6478C34.9708 3.60425 34.2948 3.42277 33.6116 3.35381C33.4344 3.33566 33.4019 3.58247 33.5284 3.66595C33.9767 3.95995 34.3165 4.38461 34.8117 4.60964C35.2491 4.80927 35.7154 4.89638 36.1817 4.98349C36.0625 5.03431 35.9432 5.08875 35.8311 5.14682C35.4335 5.35371 35.0467 5.60778 34.7141 5.90904C34.3707 6.21755 33.9984 6.56236 33.7489 6.95436C33.5899 7.2048 33.326 7.58954 33.3513 7.89805C33.3658 8.06501 33.5212 8.15575 33.673 8.08316C34.2406 7.80731 34.7575 7.43347 35.3286 7.15036C35.7841 6.92532 36.2468 6.7257 36.724 6.56236C36.2649 7.08865 35.9395 7.73109 35.6648 8.38805C35.4009 9.0196 34.7828 10.4351 35.2853 11.0848C35.8058 11.7599 36.4854 10.3771 36.6661 10.0685C37.024 9.46967 37.3891 8.87804 37.7542 8.28279C37.9964 7.88716 38.2386 7.32821 38.5603 6.93621C38.5639 7.09954 38.535 7.28102 38.5495 7.41169C38.582 7.71294 38.6543 8.00694 38.7266 8.30094C38.7881 8.55864 38.8495 8.81634 38.9146 9.07404C39.0483 9.58944 39.1965 10.4678 39.6448 10.8199C40.328 11.3571 40.4762 9.99233 40.5232 9.62937C40.6063 9.01234 40.5846 8.39894 40.534 7.78191C40.5015 7.37902 40.3678 7.01243 40.2774 6.63496C40.9967 6.80918 41.7378 7.15036 42.3559 7.52421C42.7174 7.74198 43.0789 8.02872 43.3247 8.38079C43.4368 8.54049 43.4621 8.6893 43.6681 8.72197C43.838 8.74738 43.9573 8.6276 43.932 8.45701C43.8091 7.69117 43.2994 7.00154 42.7753 6.45711C42.515 6.18852 42.233 5.93082 41.9258 5.7203C41.7269 5.58237 41.3004 5.46986 41.051 5.30653C41.586 4.99801 42.4138 4.96171 42.9668 4.88912C43.3428 4.83831 43.9573 4.90001 44.1489 4.52616C44.1959 4.43542 44.1851 4.33017 44.1128 4.25394ZM42.6921 4.49713C42.3559 4.54431 42.027 4.59513 41.6944 4.66772C41.2787 4.75846 40.8883 4.85646 40.5557 5.13231C40.487 5.19038 40.4726 5.32104 40.5232 5.39727C40.6208 5.53882 40.7076 5.58237 40.8558 5.6586C41.2895 5.88726 41.6944 6.07963 42.074 6.40629C42.4427 6.72207 42.815 7.1068 43.0934 7.53872C42.8692 7.35361 42.6234 7.19754 42.3704 7.05962C41.6727 6.68577 40.8558 6.31555 40.0713 6.18126C39.9051 6.15222 39.8002 6.272 39.8219 6.4317C39.8689 6.77651 40.0316 7.1068 40.0822 7.4625C40.1509 7.9525 40.1726 8.47153 40.1545 8.96878C40.1436 9.32448 40.093 9.67655 40.028 10.0286L39.9773 10.2791C39.9846 10.5186 39.9448 10.5658 39.8581 10.4206C39.7062 10.3335 39.605 9.90159 39.5472 9.74914C39.4026 9.34626 39.2941 8.92886 39.1893 8.51145C39.0881 8.11583 38.9507 7.70931 38.9218 7.29554C38.9001 6.99429 39.0086 6.71481 38.8423 6.44622C38.7881 6.36274 38.6579 6.30829 38.5676 6.37363C38.0759 6.74021 37.7759 7.44798 37.4506 7.95613C36.9228 8.7873 36.2685 9.60759 35.8094 10.4751C35.7154 10.6529 35.7913 10.8489 35.6829 10.6021C35.5889 10.3843 35.7118 10.0758 35.7552 9.84714C35.8419 9.41885 35.9648 8.99056 36.1203 8.58042C36.442 7.73835 36.8794 6.8491 37.606 6.29014C37.7687 6.16674 37.6855 5.85459 37.4542 5.92719C36.7312 6.15222 36.0371 6.40266 35.3503 6.72207C34.8587 6.95073 34.3924 7.23021 33.9152 7.48428C34.067 7.21932 34.3092 6.93984 34.4213 6.82007C34.7611 6.45711 35.1117 6.11592 35.5311 5.84371C35.8781 5.61867 36.2468 5.40815 36.6481 5.31379C36.8866 5.25934 37.0493 5.25571 37.2047 5.04882C37.2879 4.93631 37.2011 4.74757 37.071 4.72216C36.4131 4.58787 35.7227 4.59513 35.0828 4.37735C34.6743 4.23943 34.4105 3.99987 34.1357 3.74943C35.1515 3.88373 36.1709 4.07246 37.1975 3.98173C37.2264 4.02165 37.2734 4.04706 37.3421 4.0398C37.3638 4.03617 37.3819 4.03617 37.4036 4.03254C37.5337 4.01802 37.653 3.87647 37.5662 3.74943C37.4108 3.5244 37.2011 3.33566 37.0312 3.11788C36.9445 3.00537 36.7059 2.75492 36.5866 2.53352C37.0312 2.72952 37.4325 3.00174 37.841 3.26307C37.9675 3.34292 38.1265 3.26307 38.1699 3.12877C38.2675 2.82389 38.3615 2.519 38.4446 2.21411C38.4772 2.09071 38.5061 1.9673 38.5422 1.84753C38.5929 1.67694 38.5784 1.32849 38.7772 1.48457C38.9796 1.64064 38.9363 2.08708 38.9616 2.323C39.0013 2.68959 39.0049 3.01625 38.9833 3.38284C38.976 3.51351 39.1279 3.64054 39.2544 3.58973C39.605 3.4518 39.8978 3.20862 40.2195 3.01625C40.3931 2.911 40.6678 2.715 40.9353 2.58796C40.6136 3.03077 40.1545 3.43003 40.0966 3.93817C40.0822 4.07247 40.2195 4.18135 40.3388 4.18135C40.8991 4.19224 41.4414 4.14143 42.0017 4.1995C42.3089 4.23217 42.6126 4.27572 42.9162 4.33742C43.0391 4.36283 43.2524 4.38098 43.444 4.42091C43.1693 4.47535 42.7861 4.48624 42.6921 4.49713Z" fill="black"/>
<path d="M27.5561 72.5083C29.9781 71.6808 31.8722 69.5829 32.4506 67.0821C32.7398 65.8262 32.6097 64.5958 32.2446 63.369C32.0277 62.6395 31.6698 62.0442 31.2071 61.5252C30.2781 59.9935 28.9695 58.7703 27.4549 57.7758C26.3921 57.0753 25.3438 56.3385 24.3099 55.5944C23.3122 54.8758 22.3868 54.0446 21.3385 53.3985C19.5528 52.2951 16.9573 52.1536 15.2836 53.5328C13.4003 55.0826 13.0533 57.7431 13.3099 60.0479C13.5919 62.5923 14.651 64.9007 15.956 67.0748C18.2659 70.9367 22.9508 74.0836 27.5561 72.5083ZM17.0766 67.6592C16.3898 66.7482 15.8837 65.7065 15.3523 64.6974C14.839 63.7211 14.4414 62.6758 14.1956 61.5978C13.7292 59.5543 13.4979 56.7813 14.792 54.981C16.1693 53.061 18.7611 52.7416 20.7746 53.8631C21.6856 54.3712 22.4555 55.0826 23.2906 55.6997C24.1364 56.3276 25.0329 56.8829 25.8896 57.4891C26.7825 58.1206 27.7405 58.6614 28.5972 59.3474C29.0924 59.7467 29.5479 60.2076 29.9564 60.7085C29.96 60.7121 29.96 60.7158 29.9636 60.7194C29.9672 60.723 29.9672 60.723 29.9708 60.7267C30.2672 61.086 30.5384 61.4671 30.7842 61.8555C31.5505 63.0677 32.0458 64.4615 32.0891 65.8553C32.0783 66.0839 32.0566 66.309 32.0132 66.5413C31.6301 68.6718 30.1046 70.7588 28.0803 71.5973C26.0017 72.4575 23.8075 72.3813 21.7253 71.5646C19.8384 70.8205 18.2876 69.2671 17.0766 67.6592Z" fill="black"/>
<path d="M30.8058 63.594C30.1732 62.4543 29.4177 61.4888 28.4778 60.5778C27.5163 59.645 26.5728 58.7158 25.4269 58.0008C24.3605 57.3365 23.2544 56.8211 22.2711 56.0154C21.2083 55.1443 20.254 54.3058 18.8912 53.9755C18.7575 53.9429 18.7141 54.157 18.8334 54.2042C19.4949 54.4801 20.1275 54.7486 20.6914 55.2023C21.2083 55.6197 21.6783 56.0952 22.1988 56.509C23.0881 57.224 24.0677 57.7068 25.0654 58.2439C26.1354 58.8247 27.0861 59.6667 27.9754 60.4834C29.0417 61.467 29.9455 62.4035 30.701 63.6484C30.7371 63.7137 30.8383 63.652 30.8058 63.594Z" fill="black"/>
<path d="M27.1582 71.1761C27.2992 71.1181 27.2341 70.8749 27.0823 70.9148C25.17 71.383 22.8999 70.6172 21.2479 69.6626C19.6068 68.7116 18.1138 67.2997 17.1053 65.6918C16.0678 64.044 15.1749 62.251 14.8821 60.3055C14.7448 59.3945 14.7122 58.3346 14.8713 57.42C15.0773 56.2621 15.8148 55.2604 16.6679 54.4945C16.6896 54.4764 16.6643 54.4437 16.6426 54.4619C15.8545 55.0353 15.193 55.725 14.8026 56.636C14.405 57.5688 14.4122 58.6577 14.4556 59.6594C14.5496 61.8517 15.4497 63.9315 16.5667 65.7898C17.6583 67.6046 19.2091 69.0492 21.0635 70.0546C22.7625 70.9729 25.2387 71.9383 27.1582 71.1761Z" fill="black"/>
<path d="M26.0233 68.3704C27.0933 67.8659 27.5849 66.7589 27.8343 65.6591C28.1343 64.3561 27.5017 62.9405 26.8258 61.8553C26.1281 60.7337 25.0834 59.8481 23.8363 59.438C23.7278 59.3944 23.6194 59.3545 23.5109 59.3218C21.4071 58.654 19.1731 59.9861 18.8586 62.1928C18.6887 63.3906 19.1333 64.523 19.8021 65.4994C20.5287 66.5592 21.5372 67.6227 22.694 68.2034C23.7134 68.7152 24.9713 68.864 26.0233 68.3704ZM23.2145 67.7751C22.2349 67.3686 21.4468 66.5774 20.7709 65.7789C20.084 64.9658 19.4153 63.9423 19.3791 62.8389C19.3032 60.6103 21.4577 59.1004 23.529 59.8663C24.5339 60.2401 25.4666 60.9225 26.1606 61.7355C26.5149 62.1529 26.7896 62.5921 27.021 63.0494C27.1909 63.5068 27.321 63.9786 27.3933 64.4613C27.5487 65.4595 27.021 66.8315 26.251 67.4775C25.4015 68.1925 24.1978 68.1817 23.2145 67.7751Z" fill="black"/>
<path d="M52.1079 43.2865C51.7898 42.5097 51.5042 41.7076 51.1463 40.949C50.9475 40.528 50.7487 40.1323 50.5896 39.6932C50.5174 39.4935 50.4451 39.2177 50.2824 39.0689C49.8739 38.6841 49.0714 39.1524 48.6449 39.2939C47.8098 39.5734 46.9784 39.8674 46.147 40.1541C44.9179 40.5715 43.6853 40.9926 42.4562 41.4281C41.7477 41.6568 41.0392 41.8927 40.3307 42.1322C37.1713 43.1993 34.095 44.4697 30.9862 45.6675C29.562 46.2155 28.1233 46.7745 26.7749 47.4968C26.2724 47.7654 25.7627 47.9759 25.5314 48.524C25.2892 49.0938 25.4374 49.6491 25.5422 50.2335C26.0375 52.9448 27.7835 55.3911 30.0789 56.8575C32.7214 58.5453 35.7181 59.5543 38.8305 59.9281C41.8778 60.2947 44.8023 59.7938 47.47 58.2513C49.8414 56.8793 51.5259 54.3603 52.4115 51.8087C53.402 48.9813 53.2393 46.0413 52.1079 43.2865ZM31.3983 46.2409C34.424 45.0395 37.4135 43.7583 40.4825 42.6803C40.8512 42.5496 41.2199 42.419 41.5886 42.2883C42.5177 41.9653 43.4467 41.6459 44.3793 41.3446C45.5433 40.9671 46.7073 40.586 47.8749 40.2231C48.6955 40.9345 49.0244 42.154 49.2991 43.163C49.6281 44.3717 50.0691 45.5622 50.0546 46.8326C50.033 49.2862 49.0714 51.8813 47.1628 53.482C45.2288 55.1008 42.4381 55.736 39.9764 55.6271C37.605 55.5218 35.3819 54.3458 33.5347 52.9085C32.4213 52.041 31.3658 51.1518 30.5199 50.0085C29.8837 49.1446 29.2619 48.2699 28.6691 47.377C29.5728 46.9669 30.4874 46.6039 31.3983 46.2409ZM40.5801 59.4454C39.1124 59.42 37.6954 59.1405 36.2712 58.8175C34.8252 58.4908 33.372 58.0299 32.0562 57.3366C29.5837 56.0372 27.5413 54.2079 26.5906 51.5038C26.3881 50.9304 26.2833 50.346 26.2001 49.7435C26.1532 49.4023 26.1062 49.0974 26.258 48.8143C26.6303 49.464 27.0749 50.0593 27.5087 50.6763C28.1052 51.5256 28.6872 52.4004 29.4427 53.1227C30.2669 53.9103 31.232 54.5709 32.1683 55.2097C33.0503 55.8085 33.9179 56.422 34.8469 56.9519C36.6037 57.9536 38.5558 58.7884 40.5801 59.0207C41.7332 59.155 42.9153 59.1333 44.0648 58.999C44.1371 58.9917 44.213 58.9808 44.2853 58.9736C43.078 59.3147 41.8128 59.4672 40.5801 59.4454ZM52.2561 49.6891C51.8223 52.3205 50.4884 54.8903 48.5147 56.6905C47.9363 57.2168 47.2965 57.6596 46.6133 58.0299C44.4914 58.4799 42.3731 58.7776 40.2005 58.3493C38.2702 57.9682 36.4447 57.1951 34.7638 56.1824C33.0286 55.1371 31.12 53.9974 29.6813 52.5564C28.4739 51.3442 27.6533 49.7617 26.4893 48.5312C26.7388 48.3171 27.0822 48.1719 27.3569 48.0231C27.7365 47.8198 28.1269 47.6311 28.5173 47.4496C28.9041 48.3751 29.5186 49.1628 30.0897 49.9903C30.8669 51.1191 31.7923 52.012 32.837 52.8904C34.7276 54.4765 37.0158 55.8412 39.5137 56.0844C42.1345 56.3385 45.0951 55.7033 47.2278 54.099C49.2811 52.5528 50.3149 50.0774 50.5427 47.5694C50.6873 46.0123 50.2462 44.6258 49.8197 43.1522C49.5124 42.0887 49.1943 40.8655 48.399 40.0525C48.8509 39.8783 49.6679 39.508 49.8884 39.7766C50.0293 39.9509 50.0944 40.3719 50.1956 40.5897C50.3619 40.9454 50.5499 41.2829 50.6981 41.6495C51.7717 44.2628 52.7333 46.8108 52.2561 49.6891Z" fill="black"/>
<path d="M35.5587 46.1539C35.3346 46.3426 35.19 46.5568 35.002 46.7745C34.8429 46.9597 34.7237 47.1375 34.6477 47.3734C34.5574 47.6529 34.8719 47.8126 35.0924 47.7182C35.2153 47.6674 35.2731 47.5585 35.3563 47.4605C35.4141 47.3916 35.5189 47.2791 35.5876 47.1774C35.6744 47.0468 35.7394 46.9052 35.8081 46.7637C35.8623 46.6439 35.9491 46.5277 35.9708 46.3934C35.9997 46.1503 35.7503 45.9906 35.5587 46.1539Z" fill="black"/>
<path d="M37.2829 47.2137C37.1274 47.5984 36.8563 47.9142 36.719 48.3098C36.6322 48.5603 36.6322 49.0902 37.0407 49.0466C37.1925 49.0285 37.3552 48.8906 37.3552 48.7345C37.3588 48.72 37.3624 48.7091 37.3624 48.6946C37.3769 48.6401 37.3805 48.582 37.3913 48.5276C37.4094 48.4369 37.4275 48.3461 37.4528 48.259C37.5504 47.9251 37.6913 47.6275 37.7239 47.2754C37.7492 46.9995 37.3696 46.9995 37.2829 47.2137Z" fill="black"/>
<path d="M40.2911 48.9484C40.2586 48.8795 40.2767 48.5673 40.2658 48.4475C40.2441 48.2225 40.2224 48.0011 40.2008 47.7761C40.1791 47.5184 39.8067 47.4385 39.7308 47.7107C39.6874 47.8704 39.626 48.0156 39.6007 48.1826C39.579 48.3423 39.5682 48.502 39.5537 48.6617C39.5212 48.9593 39.5392 49.246 39.8357 49.4057C40.1393 49.5691 40.4357 49.2461 40.2911 48.9484Z" fill="black"/>
<path d="M43.2555 48.2409C43.0965 48.063 42.9519 47.8779 42.7928 47.7001C42.7169 47.6166 42.6301 47.5331 42.5325 47.475C42.4277 47.4097 42.3012 47.4061 42.1963 47.348C41.9939 47.2355 41.777 47.5041 41.9469 47.6747C42.0228 47.7473 42.1204 47.7945 42.1927 47.867C42.265 47.9469 42.3229 48.0521 42.3771 48.1465C42.5 48.3534 42.6048 48.5603 42.7639 48.7418C43.0603 49.0757 43.5555 48.5784 43.2555 48.2409Z" fill="black"/>
<path d="M45.3266 46.0087C45.0555 45.8853 44.7989 45.8853 44.506 45.8635C44.2422 45.8417 43.9963 45.7909 43.7397 45.7474C43.4469 45.6966 43.3168 46.1212 43.6132 46.2011C44.1662 46.3499 44.6579 46.6874 45.2579 46.5531C45.4929 46.5023 45.5616 46.114 45.3266 46.0087Z" fill="black"/>
<path d="M45.5937 43.5875C45.3479 43.5839 45.1382 43.6601 44.896 43.7255C44.5635 43.8162 44.22 43.8815 43.8803 43.9323C43.7248 43.9577 43.7248 44.2263 43.8803 44.2481C44.2779 44.3062 44.6791 44.3134 45.0804 44.2735C45.3407 44.2481 45.6841 44.2409 45.8106 43.965C45.8865 43.7944 45.7997 43.5875 45.5937 43.5875Z" fill="black"/>
<path d="M44.889 42.2083C44.6251 42.2446 44.3938 42.3426 44.1841 42.5059C44.1009 42.5713 43.9997 42.6257 43.9238 42.7019C43.8949 42.731 43.8696 42.76 43.8515 42.7927C43.8443 42.8036 43.8118 42.9125 43.8334 42.858C43.8081 42.9125 43.819 42.9669 43.8696 43.0032C43.9961 43.0939 44.2636 43.0649 44.4046 43.0214C44.6468 42.9488 44.8962 42.8762 45.1167 42.7491C45.4312 42.5713 45.2035 42.1648 44.889 42.2083Z" fill="black"/>
<path d="M34.8001 48.771C34.5976 49.0976 34.3554 49.3844 34.1422 49.7038C33.9686 49.9651 33.9325 50.3063 34.2578 50.466C34.5036 50.5894 34.8254 50.3353 34.6699 50.0667C34.6735 50.0631 34.6735 50.0595 34.6772 50.0522C34.6988 50.0159 34.7169 49.9796 34.7386 49.9433C34.7928 49.8489 34.8507 49.7509 34.9049 49.6566C35.0242 49.4533 35.1507 49.2501 35.27 49.0468C35.4471 48.7419 34.9844 48.4733 34.8001 48.771Z" fill="black"/>
<path d="M37.446 50.1792C37.2074 50.6147 36.8496 51.3951 37.1677 51.8597C37.3195 52.0847 37.7027 52.0158 37.6991 51.7145C37.6991 51.5149 37.7858 51.308 37.8256 51.112C37.869 50.8724 37.9015 50.6402 37.9955 50.4115C38.1292 50.0957 37.6087 49.8852 37.446 50.1792Z" fill="black"/>
<path d="M40.9561 51.7325C40.8839 51.3224 40.7899 50.8651 40.6091 50.4912C40.4718 50.2045 40.0561 50.415 40.1211 50.6981C40.2259 51.1845 40.0199 51.8451 40.6453 52.0447C40.8441 52.11 40.9887 51.9104 40.9561 51.7325Z" fill="black"/>
<path d="M44.0065 51.0902C43.9415 50.818 43.6668 50.6474 43.4535 50.4913C43.2583 50.3461 43.0667 50.1973 42.8642 50.063C42.6618 49.9287 42.4305 50.2336 42.604 50.4006C42.9799 50.7563 43.1137 51.4169 43.7137 51.4713C43.9198 51.4931 44.0463 51.2644 44.0065 51.0902Z" fill="black"/>
<path d="M46.4652 48.1683C46.0459 48.2372 45.6121 48.161 45.2 48.0884C44.8964 48.0376 44.7626 48.4949 45.0699 48.5566C45.623 48.6691 46.1652 49.043 46.7219 48.778C47.0906 48.6038 46.8123 48.1102 46.4652 48.1683Z" fill="black"/>
<path d="M47.6188 45.4172C47.2393 45.3519 46.8923 45.4136 46.5163 45.4535C46.2307 45.4826 46.2271 45.8746 46.5163 45.9036C46.8923 45.9399 47.2501 45.9218 47.6188 45.8564C47.8357 45.8201 47.8357 45.4572 47.6188 45.4172Z" fill="black"/>
<path d="M13.6031 33.4249C12.956 32.9132 12.1716 32.5502 11.3619 32.405C10.4292 32.2381 9.56529 32.2417 8.62904 32.4195C8.39769 32.4631 8.04343 32.6119 7.80846 32.5647C7.53373 32.5103 7.51566 32.3324 7.44336 32.0711C7.28792 31.4976 7.14333 30.9205 7.03488 30.3325C6.94812 29.8425 6.89752 29.3489 6.81437 28.8589C6.77461 28.6194 6.76738 28.3362 6.53964 28.1874C6.08417 27.8898 5.29975 28.6811 5.01056 28.9678C4.50086 29.4723 4.49363 30.0603 4.6563 30.7245C4.77198 31.1964 4.95633 31.6501 5.12262 32.1074C5.23829 32.4195 5.4335 32.8152 5.51664 33.1709C5.37927 33.1672 5.19491 33.1563 5.11177 33.1781C4.92741 33.2253 4.76113 33.3088 4.60569 33.4104C4.42495 33.4975 4.24782 33.6137 4.05262 33.7552C3.79596 33.9403 3.54292 34.1291 3.29711 34.3251C3.19589 34.4013 3.10191 34.4811 3.00792 34.5646C2.75849 34.7788 2.51991 35.0002 2.29579 35.2434C1.26917 36.354 0.495589 37.7369 0.0943387 39.1924C0.0220414 39.4573 -0.140628 39.9691 0.217244 40.1179C0.379913 40.1869 0.564271 40.1034 0.723325 39.9836C0.60042 40.7277 0.683562 41.5806 0.781163 42.2158C0.972751 43.4317 1.55474 44.5569 2.16204 45.6131C3.52846 47.9941 5.48049 49.867 7.86992 51.1845C8.88569 51.7435 10.0858 52.5275 11.2932 52.4367C12.4066 52.3496 13.3934 51.4459 14.0224 50.582C15.5154 48.5385 15.9817 45.82 16.0034 43.3446C16.0178 41.7911 15.9021 40.2812 15.5696 38.7641C15.2985 37.5155 14.9117 36.2633 14.2429 35.178C14.3658 35.2143 14.4887 35.2361 14.6153 35.2361C14.749 35.2361 14.843 35.08 14.8285 34.9602C14.7671 34.3795 14.0188 33.7552 13.6031 33.4249ZM15.284 41.6133C15.4105 43.8673 15.3057 46.2592 14.4164 48.3571C13.9429 49.475 13.4007 50.5239 12.3849 51.2426C11.8065 51.6527 11.257 51.856 10.5485 51.66C10.0244 51.5148 9.50745 51.2898 9.02306 51.043C7.99282 50.5167 6.96258 49.9722 6.0661 49.2318C5.13346 48.4587 4.28758 47.642 3.55015 46.6693C2.73319 45.5986 2.0066 44.3427 1.5439 43.076C1.31616 42.4481 1.18603 41.8129 1.13903 41.1451C1.1065 40.695 1.03782 40.1324 1.07758 39.6315C1.65235 38.9564 2.1765 38.285 2.87056 37.7151C3.18143 37.461 3.49954 37.2142 3.82127 36.971C3.72366 37.2723 3.64775 37.5808 3.57545 37.8603C3.40917 38.5064 3.01877 39.5916 3.48508 40.1869C3.59353 40.3284 3.7815 40.3393 3.92248 40.2449C4.61292 39.7876 4.95995 38.8621 5.32143 38.147C5.53471 37.7224 5.74799 37.3013 5.97573 36.8839C6.01549 36.815 6.10948 36.6299 6.20708 36.4375C6.24323 36.8767 6.30468 37.3195 6.35529 37.755C6.42035 38.3503 6.42035 39.0145 6.7963 39.5045C6.92282 39.6715 7.14694 39.646 7.27708 39.5045C7.65664 39.0871 7.63133 38.3176 7.66748 37.7913C7.68556 37.5445 7.56627 35.7733 7.66387 35.7334C7.77954 35.6862 8.329 36.3068 8.41576 36.3903C8.70856 36.6807 8.99052 36.9819 9.26887 37.2832C9.6159 37.657 9.99184 38.2632 10.4473 38.5027C10.6281 38.5971 10.8558 38.4047 10.8233 38.2124C10.704 37.5409 10.4184 36.9166 10.1654 36.2887C10.028 35.9439 9.87978 35.5991 9.74242 35.2542C9.68458 35.1091 9.60144 34.953 9.52914 34.7969C10.0822 35.0474 10.6136 35.3559 11.145 35.6462C11.7884 35.9983 12.356 36.5319 13.0247 36.8186C13.2235 36.9021 13.4766 36.6807 13.3717 36.4702C13.0898 35.9076 12.6741 35.3958 12.3054 34.8877C12.0523 34.5356 11.6655 34.2126 11.3836 33.8569C11.9475 33.944 12.6379 34.3541 13.0464 34.5574C13.2091 34.6372 13.3717 34.7388 13.5416 34.8405C14.514 36.9347 15.1575 39.2976 15.284 41.6133ZM13.6212 34.3468C13.238 34.1545 12.8584 33.9585 12.4644 33.7915C12.0126 33.5992 11.4197 33.287 10.9172 33.385C10.7763 33.414 10.657 33.5629 10.7293 33.708C10.9389 34.1472 11.3727 34.5066 11.6583 34.9022C11.8752 35.2034 12.1138 35.5156 12.3415 35.835C12.0017 35.6136 11.6691 35.3813 11.3221 35.1998C10.6353 34.8441 9.94485 34.4448 9.23272 34.1472C9.06282 34.0783 8.88931 34.2234 8.90738 34.3977C8.9616 34.9276 9.29417 35.5192 9.48938 36.0128C9.65927 36.4448 9.86171 36.8876 10.0208 37.3376C9.95569 37.2578 9.89424 37.1852 9.84002 37.1307C9.52191 36.8041 9.2038 36.4774 8.87123 36.1653C8.52421 35.835 7.88076 35.0437 7.33492 35.2071C7.25539 35.2325 7.21201 35.3123 7.19393 35.3885C7.06018 35.9656 7.1614 36.6335 7.13248 37.2251C7.11802 37.559 7.12887 38.1216 7.03488 38.5753C6.94812 38.2015 6.93728 37.7804 6.89029 37.4429C6.81076 36.8549 6.69508 36.256 6.71316 35.6571C6.72039 35.472 6.59748 35.3377 6.40589 35.3486C6.189 35.3595 6.11309 35.4902 6.00103 35.6644C5.7516 36.0491 5.54556 36.4919 5.32143 36.8948C4.90573 37.6498 4.52255 38.8076 3.87187 39.4682C3.83572 38.9455 4.10684 38.1216 4.18637 37.7986C4.32012 37.2614 4.46833 36.4956 4.9238 36.1399C5.19853 35.9257 4.87319 35.4974 4.59485 35.7116C3.6839 36.4121 2.71873 37.0908 1.90539 37.9111C1.54028 38.2813 1.18603 38.6661 0.87515 39.0798C0.806467 39.1851 0.73417 39.2867 0.658258 39.3847C0.383528 39.6715 0.354609 39.6715 0.571501 39.392C0.625724 39.1488 0.705251 38.902 0.788393 38.6661C1.16434 37.599 1.81863 36.5936 2.51991 35.7116C2.78741 35.3777 3.08383 35.08 3.39471 34.7933C3.71643 34.5864 4.05262 34.4013 4.3888 34.2089C4.80812 33.9694 5.09731 33.7843 5.58893 33.748C5.78775 33.7334 5.84921 33.7516 6.02633 33.6463C6.11671 33.5955 6.14924 33.4649 6.14201 33.3705C6.08056 32.7498 5.67208 32.0529 5.43711 31.4795C5.27444 31.0802 5.07562 30.6483 5.02502 30.2164C4.95995 29.6719 5.17323 29.407 5.56363 29.0694C5.80583 28.8589 6.18539 28.3943 6.36975 28.8335C6.51073 29.1674 6.47096 29.6719 6.51796 30.0313C6.63002 30.8697 6.8216 31.6972 7.01681 32.5175C7.12525 32.9821 7.26623 33.1346 7.74701 33.1273C8.62542 33.1128 9.46046 32.7498 10.3533 32.8261C11.1414 32.895 11.9113 33.0765 12.6162 33.4431C12.9705 33.6282 13.3067 33.8605 13.5995 34.1363C13.6935 34.2234 13.9104 34.4194 14.0839 34.6154C13.9248 34.5247 13.7585 34.4158 13.6212 34.3468Z" fill="black"/>
<path d="M4.49347 41.9835C4.41756 41.9218 4.28742 41.8855 4.18982 41.9036C4.07415 41.9218 3.991 41.9798 3.91148 42.0669C3.79942 42.1867 3.77411 42.3646 3.82472 42.5134C3.80665 42.6477 3.83918 42.7929 3.92232 42.8945C4.08861 43.1014 4.39948 43.105 4.56215 42.8945C4.64529 42.7892 4.68867 42.6549 4.69229 42.5206C4.69952 42.3138 4.65975 42.1178 4.49347 41.9835Z" fill="black"/>
<path d="M6.68075 41.9073C6.49639 41.8928 6.30842 41.9835 6.23612 42.165C6.15298 42.3755 6.18552 42.5933 6.31565 42.7747C6.42048 42.9236 6.63737 43.0579 6.82535 43.0107C6.9844 42.9707 7.08923 42.88 7.12177 42.713C7.129 42.6695 7.13261 42.6368 7.12538 42.586C7.12177 42.5606 7.11454 42.5352 7.10731 42.5134C7.11815 42.459 7.12177 42.4009 7.11815 42.3501C7.08923 42.125 6.91572 41.9218 6.68075 41.9073Z" fill="black"/>
<path d="M9.49253 41.5116C9.23226 41.3918 8.88162 41.6422 8.94307 41.9362C8.94669 41.9471 8.9503 41.958 8.9503 41.9725C8.84908 42.085 8.82739 42.2484 8.93223 42.379C9.03706 42.5097 9.22865 42.5533 9.3877 42.5351C9.62267 42.5061 9.78534 42.3028 9.79618 42.0705C9.80702 41.8346 9.71304 41.6132 9.49253 41.5116Z" fill="black"/>
<path d="M12.3959 40.0451C12.3344 39.998 12.2657 39.9726 12.1898 39.9617C12.1139 39.9508 12.0416 39.9617 11.9693 39.9907C11.8356 40.0451 11.7127 40.1867 11.7018 40.3391C11.6982 40.3718 11.7018 40.4045 11.7054 40.4371C11.6874 40.4662 11.6729 40.4988 11.6657 40.5388C11.6259 40.8255 11.926 40.9779 12.1718 40.9525C12.3489 40.9344 12.5224 40.8219 12.5911 40.6513C12.6381 40.5351 12.6345 40.3936 12.5839 40.2774C12.5477 40.1867 12.479 40.0923 12.3959 40.0451Z" fill="black"/>
<path d="M11.8426 42.7204C11.7884 42.6623 11.7414 42.6151 11.6763 42.5752C11.5534 42.5062 11.4269 42.5026 11.2931 42.5461C11.1594 42.5897 11.0509 42.7385 11.0365 42.8801C11.0473 42.8438 11.0545 42.8111 11.0654 42.7748C11.0509 42.8075 11.0401 42.8438 11.0365 42.8801C11.0328 42.9381 11.0365 42.989 11.0509 43.047C11.0762 43.1523 11.1341 43.2176 11.21 43.2938C11.1088 43.1922 11.1666 43.2612 11.21 43.312C11.2136 43.3483 11.2172 43.3846 11.2317 43.4209C11.3184 43.6931 11.6618 43.7875 11.8823 43.6096C12.0884 43.4427 12.0956 43.1668 11.998 42.9381C11.9583 42.8547 11.904 42.7857 11.8426 42.7204Z" fill="black"/>
<path d="M8.99751 44.4408C8.777 44.1904 8.38298 44.0524 8.13717 44.3609C7.91666 44.6368 8.05764 45.1558 8.40106 45.2684C8.4842 45.2938 8.56011 45.2938 8.62879 45.2792C8.71917 45.3518 8.824 45.3845 8.95052 45.3337C9.08788 45.2792 9.16741 45.1522 9.18548 45.007C9.2144 44.8001 9.13126 44.5896 8.99751 44.4408Z" fill="black"/>
<path d="M5.19873 44.5715C4.91677 44.6259 4.7541 44.8909 4.8517 45.1667C4.86255 45.1994 4.88062 45.2284 4.90231 45.2575C4.96376 45.3627 5.05413 45.439 5.16619 45.497C5.20596 45.5188 5.25295 45.5261 5.29994 45.5224C5.31079 45.5261 5.32886 45.5297 5.3614 45.5333C5.50238 45.5587 5.65782 45.5007 5.74457 45.3845C5.87471 45.2139 5.88555 44.9599 5.74457 44.7929C5.61444 44.6368 5.40478 44.5316 5.19873 44.5715Z" fill="black"/>
<path d="M7.79715 46.6658C7.57303 46.4843 7.21877 46.5787 7.11033 46.8473C7.09225 46.8945 7.08502 46.9417 7.08141 46.9925C6.9585 47.0977 6.94405 47.2538 7.0308 47.3845C7.06695 47.4425 7.09948 47.497 7.15009 47.5442C7.16817 47.5587 7.18263 47.5805 7.2007 47.595C7.21516 47.6059 7.21516 47.6022 7.20793 47.5986C7.25131 47.6385 7.28746 47.6712 7.34891 47.6966C7.62002 47.8091 7.90921 47.6676 8.01766 47.399C8.1261 47.1304 8.01404 46.8364 7.79715 46.6658Z" fill="black"/>
<path d="M10.5413 46.4336C10.3895 46.4735 10.2377 46.6151 10.2305 46.782C10.2268 46.8256 10.2268 46.8728 10.2268 46.9163C10.2268 46.9236 10.2305 46.9272 10.2305 46.9345C10.216 46.949 10.2015 46.9672 10.1871 46.9853C10.1437 47.0652 10.1509 47.1958 10.2377 47.2466C10.2702 47.2648 10.3028 47.2829 10.3317 47.3047C10.422 47.4209 10.5775 47.4644 10.7257 47.4027C10.8631 47.3483 10.9607 47.2067 11.0149 47.0579C11.0619 46.9853 11.0836 46.8946 11.0691 46.8111C11.051 46.7167 11.0221 46.6586 10.9715 46.5788C10.8956 46.4409 10.6859 46.3937 10.5413 46.4336Z" fill="black"/>
<path d="M13.112 44.3643C12.8734 44.3425 12.6999 44.5022 12.6168 44.7127C12.5445 44.8978 12.6168 45.1047 12.7867 45.2027C12.7975 45.21 12.8083 45.2136 12.8192 45.2172C12.83 45.2535 12.8409 45.2862 12.8626 45.3225C12.9313 45.4387 13.0542 45.4786 13.1735 45.4713C13.2421 45.4786 13.3108 45.4749 13.3903 45.4459C13.5205 45.4024 13.6217 45.2608 13.6362 45.1265C13.6506 45.0104 13.6398 44.9087 13.5928 44.7998C13.5602 44.72 13.5169 44.6365 13.4663 44.5676C13.3867 44.4659 13.2457 44.3752 13.112 44.3643Z" fill="black"/>
<path d="M10.2088 48.9521C10.0895 48.8433 9.86173 48.8541 9.73882 48.9521C9.68822 48.9957 9.64845 49.0501 9.62315 49.1082C9.59061 49.1191 9.56531 49.1373 9.54001 49.1627C9.45686 49.2461 9.4424 49.3877 9.51832 49.4821C9.56531 49.5401 9.61953 49.5982 9.67737 49.649C9.68822 49.6563 9.7099 49.6853 9.68822 49.6563C9.66291 49.6236 9.69183 49.6599 9.69906 49.6672C9.73521 49.7035 9.76774 49.7398 9.81112 49.7652C9.98825 49.8741 10.1762 49.8305 10.2811 49.6563C10.2811 49.6563 10.2847 49.6527 10.2883 49.649C10.31 49.6272 10.328 49.5873 10.3425 49.5583C10.3642 49.5111 10.3787 49.4603 10.3859 49.4095C10.3967 49.3441 10.3895 49.2788 10.3714 49.2135C10.3497 49.101 10.2919 49.0284 10.2088 48.9521Z" fill="black"/>
<path d="M12.8509 47.5512C12.7063 47.475 12.5111 47.5403 12.4062 47.6456C12.3375 47.7145 12.2869 47.8234 12.2833 47.9287C12.1821 47.9504 12.0917 48.0194 12.052 48.121C11.9869 48.2989 12.0664 48.4695 12.2327 48.553C12.4568 48.6619 12.7099 48.6691 12.9123 48.5058C13.0135 48.4223 13.0967 48.317 13.1364 48.1936C13.1834 48.0521 13.1834 47.9069 13.1075 47.7762C13.0461 47.6673 12.9593 47.6093 12.8509 47.5512Z" fill="black"/>
<path d="M9.69488 39.4864C9.61174 39.5735 9.56836 39.6715 9.56836 39.7913C9.56836 39.9437 9.63343 40.0417 9.73826 40.1434C9.76718 40.1724 9.79971 40.1869 9.83225 40.1978C9.9913 40.314 10.2552 40.2994 10.36 40.1252C10.4757 39.9365 10.4902 39.7042 10.3492 39.5227C10.1901 39.3158 9.87924 39.3013 9.69488 39.4864Z" fill="black"/>
<path d="M6.02288 40.1289C5.84214 40.2342 5.72646 40.4883 5.82768 40.6879C5.85298 40.7351 5.87467 40.7823 5.89997 40.8295C5.89997 40.8295 5.89997 40.8295 5.89997 40.8331C5.88913 40.8149 5.87829 40.7968 5.86744 40.7786C5.88552 40.8113 5.89998 40.844 5.91082 40.8803C5.9072 40.8694 5.90359 40.8585 5.90359 40.8476C5.91805 40.9021 5.93612 40.9492 5.97589 41.0037C5.98312 41.0146 5.99035 41.0218 5.99758 41.0291C5.99035 41.0182 5.98673 41.0073 5.9795 40.9964C6.0771 41.1597 6.25062 41.1997 6.42775 41.1489C6.78923 41.0472 6.81815 40.4883 6.60126 40.2415C6.45305 40.0709 6.22531 40.0128 6.02288 40.1289Z" fill="black"/>
<path d="M70.573 21.2838C69.9295 20.8591 68.8414 20.5506 68.9752 19.6287C69.0909 18.8229 69.2788 18.028 69.4018 17.2259C69.4921 16.6379 70.0018 14.2859 69.2065 14.0209C69.0945 13.9847 68.9535 14.0101 68.8848 14.1153C68.5812 14.5726 68.4221 15.1207 68.1149 15.5817C67.7642 16.108 67.3738 16.598 66.9726 17.0843C66.1122 18.126 65.1687 19.6686 63.5963 19.3601C63.2384 19.2911 62.8805 19.2185 62.5263 19.1496C62.125 19.0516 61.7238 18.9681 61.3189 18.8955C61.3442 18.6886 61.2538 18.4672 61.0731 18.3402C60.8598 18.1913 60.5381 18.1986 60.3031 18.1006C59.92 17.9409 59.6886 17.5852 59.3199 17.4074C59.0343 17.2694 58.7415 17.2948 58.4342 17.3239C57.8197 17.3819 57.5414 17.3565 57.0498 16.9537C56.4569 16.4673 55.9617 16.8048 55.3255 17.0734C54.7471 17.3166 54.3711 17.2912 53.8036 17.0698C53.4855 16.9464 53.1457 16.9464 52.8131 17.0226C52.4083 17.1134 52.0359 17.3275 51.6817 17.5308C51.3455 17.7231 50.6623 18.3583 50.2863 18.0861C50.0875 17.9409 50.055 17.7449 49.755 17.7631C49.4115 17.7848 49.1332 18.1623 48.9127 18.3801C48.2476 19.0334 47.6439 19.7811 47.1016 20.5397C46.4727 21.4144 45.7822 22.271 45.2038 23.1784C44.9436 23.5885 44.7086 24.0023 44.4881 24.4234C43.5627 25.4033 42.7746 26.5104 42.1601 27.7735C41.5384 29.0547 41.0865 30.3904 40.6274 31.7333C40.4394 32.2814 40.2442 32.8331 40.0852 33.3884C39.9948 33.7042 40.0237 33.9002 40.3238 34.0926C40.725 34.3503 41.3251 34.4846 41.7806 34.6116C42.3517 34.7713 42.9301 34.9092 43.5229 34.9709C44.8821 35.1089 46.2521 35.0036 47.6005 34.8221C48.7681 34.6661 49.9176 34.4156 51.0527 34.0998C51.1394 34.1833 51.2226 34.2958 51.284 34.3503C51.4829 34.5281 51.6925 34.6987 51.8877 34.8802C52.2456 35.2141 52.5456 35.4682 52.9903 35.6751C53.2867 35.813 53.565 35.9364 53.8506 35.715C54.1398 35.4936 54.2772 35.0943 54.3856 34.7532C54.9314 34.9201 55.593 35.0653 55.9653 34.7677C56.2147 34.5681 56.2075 34.1761 56.3702 33.9256C56.522 33.6933 56.7895 33.5481 56.7172 33.2178C56.6521 32.9275 56.2689 32.5936 55.9002 32.3903C55.9472 32.3722 55.9942 32.354 56.0376 32.3322C58.3981 31.3559 60.5851 29.777 62.3889 27.9586C63.3035 28.1509 64.2976 28.3578 64.9663 27.523C65.523 26.8261 64.9952 25.9623 64.5253 25.3162C64.706 25.0041 64.8832 24.6956 65.1073 24.427C65.5953 23.8426 66.5279 24.035 67.2184 24.0314C67.9775 24.0277 68.7402 24.0677 69.503 24.0785C70.2476 24.0858 70.9887 24.1439 71.7333 24.133C72.084 24.1294 72.7021 24.1983 72.7925 23.7265C72.8648 23.3417 72.3153 22.7429 72.0984 22.496C71.6827 22.006 71.1044 21.6358 70.573 21.2838ZM58.8427 17.9082C59.0307 17.9409 59.2078 18.0135 59.3669 18.1587C59.6416 18.4055 59.938 18.6124 60.2923 18.7285C60.3574 18.7503 60.7008 18.7648 60.7044 18.743C60.7116 18.7539 60.7152 18.7721 60.7188 18.7939C60.2851 18.7322 59.8513 18.6813 59.4139 18.6414C58.8861 18.5942 58.3583 18.5507 57.8342 18.5253C58.1595 18.3075 58.4849 18.0752 58.8427 17.9082ZM58.2499 17.8865C57.9932 18.0643 57.7727 18.3039 57.5305 18.518C56.9413 18.4999 56.3557 18.5108 55.7665 18.5797C56.1858 18.2531 56.616 17.9373 57.1004 17.7086C57.451 17.9336 57.8523 17.901 58.2499 17.8865ZM55.5207 17.5017C55.8858 17.3602 56.287 17.0444 56.71 17.3239C56.7642 17.3602 56.8112 17.411 56.8546 17.4691C56.7172 17.5453 56.5907 17.6433 56.4931 17.7122C56.1243 17.9845 55.799 18.3002 55.4737 18.6196C55.405 18.6305 55.3327 18.6378 55.264 18.6487C54.4687 18.783 53.6843 18.9935 52.9107 19.2512C53.6373 18.6559 54.4001 18.1478 55.2026 17.6142C55.311 17.5779 55.4194 17.5417 55.5207 17.5017ZM53.424 17.6687C53.4421 17.6542 53.4566 17.6324 53.4602 17.607C53.7458 17.6215 54.0133 17.7014 54.3205 17.7304C53.6409 18.1623 53.0553 18.7902 52.5276 19.3855C51.7865 19.6541 51.0599 19.9662 50.3514 20.3183C50.6912 19.9844 51.031 19.6504 51.378 19.3274C52.0323 18.7176 52.7372 18.2276 53.424 17.6687ZM50.6623 18.841C50.9695 18.7648 51.2624 18.5579 51.5118 18.4128C51.866 18.2059 52.2167 17.9845 52.5926 17.8139C52.1082 18.1551 51.6781 18.6559 51.2949 19.0298C50.796 19.5161 50.3478 20.0388 49.8851 20.5542C49.0681 20.9789 48.2801 21.4471 47.521 21.9335C47.4848 21.9589 47.4487 21.9806 47.4125 22.006C47.8788 21.5233 48.3307 21.0261 48.797 20.5397C49.3826 19.9263 50.0333 19.4 50.6623 18.841ZM45.5256 23.3998C46.1148 22.5505 46.8124 21.752 47.4487 20.9353C47.7993 20.4852 48.168 20.0606 48.5548 19.6396C48.8006 19.371 49.032 19.0951 49.2959 18.841C49.3429 18.7975 49.6863 18.4019 49.7513 18.4164C49.8453 18.4345 49.9682 18.7213 50.0948 18.7902C50.1201 18.8047 50.149 18.8156 50.1779 18.8265C50.1201 18.881 50.0622 18.9354 50.0044 18.9826C49.5959 19.3238 49.2019 19.6759 48.8368 20.0606C48.1644 20.772 47.5896 21.5596 46.9643 22.3109C46.4474 22.6703 45.9521 23.055 45.4858 23.4651C45.4966 23.4397 45.5111 23.418 45.5256 23.3998ZM53.3409 35.2795C52.9794 35.2577 52.5492 34.8548 52.2817 34.6443C52.1227 34.5172 51.7467 34.1724 51.4033 33.991C51.5154 33.9583 51.6311 33.9256 51.7431 33.893C51.9347 33.9837 52.1263 34.0708 52.3324 34.1361C52.8167 34.2922 53.3156 34.4047 53.8 34.5535C53.8506 34.5681 53.9084 34.5898 53.9699 34.608C53.8 34.8838 53.6988 35.2976 53.3409 35.2795ZM56.0267 33.657C55.9436 33.8095 55.8785 34.0018 55.7882 34.147C55.5496 34.5318 55.1375 34.4483 54.7507 34.3793C53.8831 34.2269 53.0336 33.9764 52.1769 33.7587C53.2216 33.4284 54.2555 33.0509 55.2712 32.6444C55.2857 32.6516 55.3002 32.6589 55.3182 32.6662C55.5243 32.7315 55.8135 32.8803 55.9653 33.0291C56.2183 33.2759 56.1822 33.3667 56.0267 33.657ZM64.1638 27.5593C63.777 27.7372 63.336 27.7227 62.9239 27.6827C62.8408 27.6755 62.7649 27.6682 62.6889 27.6609C63.1408 27.1891 63.5854 26.7027 63.9831 26.1801C64.0698 26.0639 64.153 25.9442 64.2289 25.8207C64.3554 26.0204 64.4783 26.2273 64.5831 26.4305C64.8326 26.9205 64.6663 27.3307 64.1638 27.5593ZM71.6936 23.4869C70.9923 23.4942 70.291 23.4361 69.5897 23.4252C68.3824 23.4071 67.175 23.349 65.964 23.3599C65.5194 23.3635 65.2157 23.3054 64.8832 23.6285C64.4349 24.064 64.1927 24.6847 63.8493 25.2001C62.4431 27.3234 60.3646 29.0438 58.2463 30.4122C56.0267 31.8459 53.4024 32.7315 50.8792 33.4429C50.6044 33.5191 50.3261 33.5953 50.0441 33.6679C50.1092 32.9275 50.2068 32.2488 50.1056 31.4902C50.2393 31.4829 50.3731 31.4611 50.5105 31.4502C50.89 31.4212 51.2696 31.4357 51.6491 31.3958C52.4336 31.3123 53.1927 31.1127 53.9554 30.9131C54.7435 30.7098 55.5243 30.5356 56.2473 30.1363C56.5726 29.9548 56.9919 29.7226 57.0498 29.316C57.0823 29.091 56.9738 28.9095 56.8943 28.7063C56.663 28.1292 56.8292 27.8642 57.0064 27.3343C57.216 26.7064 56.8365 26.5503 56.587 26.0349C56.3991 25.6393 56.6449 25.3489 56.5184 24.9605C56.4786 24.8335 56.3991 24.7282 56.2906 24.652C56.1966 24.5867 56.0774 24.5976 55.9906 24.5468C55.5821 24.3181 55.5966 24.1185 55.6942 23.7446C55.7809 23.4071 55.9002 23.0768 55.9906 22.7356C56.0448 22.5323 55.8822 22.3726 55.6833 22.4343C55.0435 22.6376 54.5121 23.2946 54.0494 23.7555C53.4638 24.3435 52.8927 24.9424 52.3251 25.5449C51.2768 26.6592 50.3442 27.8243 49.4224 29.0366C49.4007 28.9966 49.3826 28.9567 49.3609 28.9168C48.9525 28.2235 48.4897 27.5448 47.8282 27.073C47.2209 26.6374 46.6606 26.5648 45.9485 26.4632C45.8907 26.4559 45.8726 26.5394 45.9232 26.5612C46.5269 26.8044 47.1053 26.9278 47.6222 27.3561C48.2476 27.8715 48.7175 28.63 49.032 29.3741C49.3392 30.1073 49.4549 30.982 49.5308 31.7696C49.5742 32.2016 49.5525 32.6299 49.5128 33.0654C49.4911 33.3231 49.3971 33.5663 49.4224 33.8204C47.3583 34.2995 45.1352 34.5717 43.0928 34.2196C42.5433 34.1252 41.9902 33.9837 41.4661 33.7986C41.3323 33.7514 41.2022 33.697 41.072 33.6461C41.9252 33.795 42.8939 33.6679 43.7145 33.5373C44.3616 33.432 45.0303 33.3667 45.6593 33.1852C46.1798 33.0364 46.6715 32.8222 47.1776 32.6407C47.4234 32.5536 47.2607 32.2016 47.0185 32.2742C45.8184 32.6407 44.6508 32.9166 43.4036 33.0836C42.8144 33.1634 42.1746 33.2287 41.5817 33.2433C41.3034 33.2505 41.0214 33.2687 40.7756 33.3848C40.7829 33.363 40.7901 33.3413 40.7973 33.3267C41.1624 32.1145 41.5528 30.8768 42.03 29.708C43.0096 27.3016 44.3327 25.142 46.3859 23.5123C47.6222 22.5287 49.032 21.7084 50.4454 21.0115C51.8118 20.3401 53.2252 19.694 54.7182 19.3637C55.1519 19.2693 55.593 19.2584 56.0195 19.1786C56.5473 19.0806 56.7678 19.1169 57.263 19.1931C57.8667 19.2875 58.5933 19.1205 59.2114 19.1459C59.5115 19.1677 59.8115 19.1895 60.1115 19.2149C60.2489 19.233 60.3899 19.2476 60.5273 19.2693C61.2141 19.3819 61.8937 19.5089 62.5697 19.6795C63.1697 19.8319 63.8565 20.1041 64.4819 19.9662C65.7146 19.6976 66.4484 18.6741 67.1461 17.7304C67.5618 17.1678 68.01 16.6379 68.4185 16.068C68.6716 15.7123 68.8487 15.3131 69.0475 14.932C69.0222 15.3929 68.9354 16.1007 68.921 16.235C68.9065 16.3838 68.8884 16.529 68.8704 16.6778C68.8414 16.6778 68.8089 16.6851 68.78 16.7032C67.8365 17.284 67.3919 18.449 66.6653 19.2403C66.6364 19.273 66.687 19.3129 66.7159 19.2911C67.1858 18.9499 67.6196 18.4636 67.9883 18.0171C68.2125 17.7485 68.4077 17.4328 68.6716 17.2005C68.7185 17.1569 68.7655 17.1242 68.8089 17.0916C68.7692 17.3602 68.7258 17.6288 68.6716 17.901C68.6282 18.1188 68.5848 18.3402 68.545 18.5616C68.5016 18.5579 68.386 18.6342 68.3318 18.6705C68.0896 18.8338 67.8835 19.077 67.6775 19.2839C67.316 19.6468 66.9617 19.9771 66.6761 20.4018C66.6002 20.5143 66.7593 20.6304 66.846 20.5252C67.1678 20.1295 67.5582 19.8029 67.9377 19.4653C68.104 19.3165 68.292 19.1859 68.4619 19.037C68.4149 19.3165 68.3751 19.5924 68.3534 19.8718C68.339 20.0134 68.3462 20.1441 68.3679 20.2638C68.2125 20.311 68.057 20.3872 67.9197 20.4526C67.4027 20.703 67.0304 20.9244 66.6183 21.3309C66.5605 21.3854 66.6292 21.4725 66.6942 21.4289C67.1316 21.1386 67.6124 20.9244 68.1112 20.7575C68.245 20.7139 68.3896 20.6849 68.527 20.6486C68.5812 20.7248 68.6499 20.7974 68.733 20.8664C68.8848 20.9934 69.0547 21.0987 69.2282 21.1966C68.8812 21.2511 68.5523 21.3926 68.2125 21.5088C67.8618 21.6286 67.3377 21.6612 67.0774 21.9443C67.0123 22.0133 67.128 22.1222 67.1967 22.0605C67.4786 21.8064 68.1546 21.8681 68.5053 21.781C68.7366 21.7229 68.9571 21.6395 69.1921 21.5923C69.2391 21.585 69.5789 21.4798 69.6006 21.4834C69.6403 21.4943 69.6873 21.4906 69.7235 21.4689C69.8681 21.5451 70.009 21.6249 70.1428 21.7157C70.3019 21.8209 70.4645 21.9298 70.6272 22.0423C70.3525 22.0786 70.0777 22.144 69.7994 22.2057C69.1668 22.3436 68.5089 22.3581 67.8907 22.5577C67.7714 22.5977 67.8293 22.8009 67.9522 22.7719C68.6101 22.6267 69.2933 22.7211 69.9584 22.5977C70.3308 22.5287 70.8079 22.5723 71.1911 22.467C71.3502 22.6013 71.4984 22.7429 71.6321 22.8953C71.7623 23.0477 71.8671 23.3018 72.0045 23.4724C71.8707 23.4688 71.7261 23.4869 71.6936 23.4869ZM52.842 29.8786C52.4408 30.1109 51.7865 30.2488 51.3383 30.3577C50.9442 30.4521 50.2936 30.365 49.9538 30.6118C49.9321 30.5102 49.9104 30.4049 49.8851 30.3033C50.4888 30.1726 51.0382 29.8823 51.6022 29.6318C52.2962 29.3233 52.9577 28.9059 53.6445 28.5756C53.7675 28.5175 53.6879 28.3324 53.5614 28.3832C52.8963 28.6446 52.2528 28.8914 51.6202 29.2253C51.331 29.3777 51.0129 29.4467 50.7237 29.5955C50.4056 29.7552 50.1417 29.8859 49.7911 29.9621C49.7875 29.9476 49.7839 29.9331 49.7766 29.9186C49.9285 29.7516 50.3478 29.5483 50.496 29.4213C50.7997 29.16 51.0997 28.8914 51.4106 28.6373C52.0251 28.1328 52.5999 27.5303 53.1349 26.9387C53.1638 26.9096 53.1132 26.8624 53.0842 26.8878C52.4806 27.4541 51.8299 28.0167 51.1647 28.5103C50.6587 28.8878 50.2068 29.316 49.6971 29.6899C49.6537 29.5701 49.6067 29.4503 49.5561 29.3378C49.9863 29.062 50.3478 28.5792 50.6695 28.2163C51.1973 27.6247 51.7395 27.0475 52.2817 26.4704C52.871 25.8425 53.4602 25.2146 54.0639 24.6012C54.3567 24.3036 54.6531 24.0132 54.9459 23.7192C55.0724 23.5885 55.2134 23.4288 55.358 23.2728C55.2532 23.6067 55.1483 23.9406 55.1628 24.2745C55.1809 24.721 55.3652 24.7282 55.6942 24.9242C55.9002 25.0476 56.0629 25.1166 56.0701 25.4433C56.0737 25.563 56.0267 25.6937 56.0267 25.8171C56.0231 26.0204 56.0484 26.2055 56.1497 26.387C56.3123 26.681 56.5726 26.7608 56.5148 27.1528C56.4786 27.3996 56.3051 27.6247 56.2545 27.8715C56.1316 28.4595 56.6955 29.1309 56.2147 29.5883C55.658 30.1182 54.7146 30.2488 54.0024 30.4303C53.2758 30.6154 52.5601 30.7933 51.8154 30.9022C51.4467 30.9566 51.0744 30.9639 50.7057 30.9929C50.496 31.0111 50.2574 31.0728 50.0369 31.0728C50.0261 31.0038 50.0116 30.9385 50.0008 30.8695C50.4743 30.8949 51.0093 30.786 51.4503 30.6336C51.9203 30.4739 52.4842 30.2597 52.8637 29.9294C52.889 29.904 52.8674 29.8641 52.842 29.8786Z" fill="black"/>
<path d="M44.4878 29.8861C44.1082 29.5703 43.6021 29.8389 43.4575 30.2635C43.3852 30.4813 43.3889 30.7317 43.5298 30.9205C43.5407 30.935 43.5515 30.9423 43.5624 30.9568C43.6817 31.1492 43.9166 31.2508 44.1407 31.2181C44.7372 31.1346 44.936 30.2563 44.4878 29.8861Z" fill="black"/>
<path d="M40.2516 75.6334C41.9 76.1415 43.6966 76.029 45.3883 75.8294C49.2454 75.3793 53.0916 74.5082 56.8908 73.7024C60.7804 72.8785 64.6773 72.0945 68.5632 71.2488C72.16 70.4648 75.9773 69.8188 79.2741 68.0947C79.9754 67.7281 80.6803 67.2163 81.1864 66.6066C81.6021 66.1057 81.6852 65.5903 81.6816 64.9478C81.6744 63.663 80.1344 62.9153 79.115 62.5124C75.7532 61.184 72.0516 61.6231 68.5452 61.9244C66.7088 62.0805 64.9303 62.3999 63.1229 62.7483C61.3191 63.0931 59.508 63.4198 57.7295 63.8807C57.7042 63.888 57.6825 63.8953 57.6572 63.8989C56.0522 64.2546 54.4472 64.7047 52.8964 65.2019C51.0131 65.8044 49.0647 66.2146 47.2139 66.9115C45.2691 67.6446 43.205 68.2072 41.3614 69.1727C40.0817 69.8442 38.1152 70.9149 37.8694 72.5192C37.6308 74.0763 38.925 75.2232 40.2516 75.6334ZM38.7189 72.1671C39.0804 71.4412 39.7961 70.9403 40.4468 70.4975C41.8205 69.5647 43.3315 68.9948 44.8823 68.4395C46.4005 67.8951 47.8862 67.2526 49.4334 66.788C50.366 66.5086 51.2987 66.2182 52.2313 65.9242C52.3614 65.8879 52.4879 65.8516 52.6181 65.8117C54.505 65.2636 56.3848 64.6974 58.3043 64.2764C61.883 63.4851 65.5051 62.8318 69.1561 62.5196C72.4384 62.2402 75.9737 61.9607 79.0934 63.2492C79.7729 63.5287 80.6984 63.9787 80.9514 64.7301C81.208 65.4959 80.7887 66.1492 80.2429 66.6392C78.9704 67.7789 77.2389 68.3851 75.6375 68.8932C72.3336 69.9385 68.8886 70.5737 65.5087 71.3069C62.0456 72.0546 58.5718 72.7914 55.0979 73.4919C51.6854 74.1779 48.226 74.9873 44.7521 75.2813C43.1363 75.4192 41.3686 75.4628 39.8576 74.7731C38.9214 74.3521 38.2273 73.1507 38.7189 72.1671Z" fill="black"/>
<path d="M67.6274 63.5793C69.9156 63.8914 72.4315 64.2725 73.6787 66.4503C73.7004 66.4902 73.6425 66.5338 73.6136 66.4938C72.3629 64.7807 70.2554 64.3814 68.2708 64.0656C68.7733 64.5411 69.2035 65.0638 69.912 65.336C70.9314 65.7316 72.005 66.0256 73.0388 66.3922C73.2087 66.4503 73.122 66.6935 72.9521 66.6535C71.8459 66.3995 70.6675 66.0801 69.6264 65.6264C68.7371 65.238 68.2925 64.4322 67.5117 63.9277C67.3635 63.8297 67.4358 63.5539 67.6274 63.5793Z" fill="black"/>
<path d="M60.4113 65.3945C60.7294 65.536 61.0366 65.9353 61.3041 66.1639C61.55 66.3745 61.803 66.5813 62.0777 66.7556C62.5983 67.0895 63.1513 67.3581 63.7297 67.5759C65.1142 68.0949 66.4987 68.3054 67.9519 68.4941C68.1218 68.5159 68.1615 68.2546 68.0061 68.2038C67.988 68.1965 67.97 68.1929 67.9519 68.1856C67.9519 68.182 67.9519 68.182 67.9519 68.182C67.8471 67.6884 67.2831 67.2456 66.9144 66.937C66.365 66.4725 65.7685 66.1059 65.1106 65.8191C64.4672 65.5397 63.7912 65.3219 63.0971 65.2094C62.6706 65.1404 62.2368 65.0896 61.803 65.046C61.409 65.0061 60.939 65.0605 60.5631 64.9335C60.2631 64.8283 60.1329 65.2711 60.4113 65.3945ZM61.3258 65.5324C61.6439 65.5469 61.9657 65.5505 62.2585 65.5868C62.9381 65.6703 63.5996 65.7756 64.2503 66.0006C64.9154 66.2293 65.5588 66.5269 66.1553 66.9044C66.6469 67.2165 67.2578 67.6303 67.6446 68.1021C67.0518 67.9606 66.43 67.9243 65.8372 67.7791C65.1684 67.6158 64.5069 67.4198 63.8635 67.1766C63.1983 66.9225 62.5513 66.5995 61.9874 66.1639C61.756 65.9897 61.5427 65.7574 61.3258 65.5324Z" fill="black"/>
<path d="M54.2081 66.5412C54.9275 66.592 55.6215 66.8606 56.3553 66.9078C57.0892 66.955 57.7543 67.0675 58.4339 67.3615C59.4135 67.7861 61.0474 68.5193 61.1956 69.7497C61.2029 69.8187 61.1125 69.8913 61.0583 69.8187C60.2847 68.7806 58.9942 68.0402 57.7796 67.6373C57.1145 67.4159 56.4313 67.445 55.748 67.347C55.4697 67.307 55.2022 67.2381 54.9347 67.1655C55.1516 67.3179 55.3793 67.4558 55.5456 67.572C56.0951 67.9567 56.6481 68.3741 57.2518 68.6681C58.423 69.2416 59.6955 69.2888 60.9065 69.6989C61.1197 69.7715 61.0113 70.0909 60.798 70.0292C59.5003 69.6554 58.1917 69.5683 56.9663 68.944C56.3626 68.6355 55.7987 68.2108 55.2456 67.8188C54.8769 67.5575 54.3057 67.2707 54.0418 66.8969C53.937 66.7553 54.0057 66.5267 54.2081 66.5412Z" fill="black"/>
<path d="M47.4018 68.3924C47.8392 69.4704 48.9128 70.1999 49.9466 70.6064C51.2299 71.1146 52.6361 71.3832 53.9844 71.6518C54.1652 71.688 54.2772 71.4775 54.1796 71.3686C55.0074 70.9839 52.9072 69.2526 52.6831 69.1364C51.7288 68.6247 50.6371 68.6174 49.596 68.4142C49.0899 68.3162 48.5766 68.2581 48.0705 68.1565C47.8681 68.1165 47.6837 68.0439 47.4813 68.1238C47.3801 68.1674 47.3656 68.3016 47.4018 68.3924ZM47.8717 68.5158C48.0452 68.563 48.244 68.6537 48.3561 68.6791C48.7176 68.759 49.0899 68.7953 49.4514 68.8642C50.1346 68.9949 50.8431 69.0348 51.5191 69.1981C52.2891 69.3833 52.9831 69.7716 53.529 70.3524C53.6663 70.4975 54.2736 71.1037 54.0676 71.3033C52.9867 70.9766 51.8444 70.8424 50.76 70.5121C49.7261 70.1999 48.3452 69.6047 47.8717 68.5158Z" fill="black"/>
</g>
<defs>
<clipPath id="clip0">
<rect width="96" height="76" fill="white"/>
</clipPath>
</defs>
</svg>
