<svg width="25" height="25" viewBox="0 0 25 25" fill="none" xmlns="http://www.w3.org/2000/svg">
<g clip-path="url(#clip0)">
<rect x="4.05273" y="6.74316" width="16.0428" height="16.0395" fill="#96E4FC"/>
<path d="M20.2457 4.77849C20.1326 4.75542 20.031 4.69405 19.9579 4.60474C19.8849 4.51544 19.8449 4.40366 19.8446 4.28828V2.73345C19.8446 2.20171 19.6334 1.69175 19.2573 1.31575C18.8812 0.93975 18.3711 0.728516 17.8393 0.728516L5.30587 0.728516C4.5081 0.728516 3.74299 1.04537 3.17888 1.60937C2.61477 2.17336 2.29785 2.93831 2.29785 3.73592V21.7804C2.29785 22.578 2.61477 23.3429 3.17888 23.9069C3.74299 24.4709 4.5081 24.7878 5.30587 24.7878H19.8446C20.3765 24.7878 20.8866 24.5765 21.2626 24.2005C21.6387 23.8245 21.85 23.3146 21.85 22.7828V6.74333C21.8501 6.28113 21.6905 5.8331 21.3981 5.47505C21.1058 5.117 20.6987 4.87093 20.2457 4.77849ZM4.3032 3.73592C4.3032 3.47005 4.40884 3.21507 4.59688 3.02707C4.78491 2.83907 5.03995 2.73345 5.30587 2.73345H17.5886C17.6551 2.73345 17.7189 2.75986 17.7659 2.80686C17.8129 2.85386 17.8393 2.9176 17.8393 2.98407V4.48778C17.8393 4.55424 17.8129 4.61799 17.7659 4.66499C17.7189 4.71199 17.6551 4.73839 17.5886 4.73839H5.30587C5.03995 4.73839 4.78491 4.63278 4.59688 4.44478C4.40884 4.25678 4.3032 4.0018 4.3032 3.73592ZM18.0198 19.3805C17.719 20.8391 14.8172 21.0035 14.0702 21.0035C13.0235 21.0057 11.9867 20.8009 11.0194 20.4009C10.0521 20.0009 9.17356 19.4135 8.43422 18.6727C5.02512 15.2974 5.8403 9.4911 7.73234 9.09412C7.94634 9.05181 8.16738 9.06161 8.3768 9.12267C8.58621 9.18374 8.77786 9.29429 8.93555 9.44499L10.6561 11.1742C10.8206 11.3371 10.951 11.531 11.0398 11.7447C11.1286 11.9584 11.1741 12.1877 11.1735 12.4191C11.173 12.6505 11.1264 12.8795 11.0366 13.0927C10.9467 13.306 10.8153 13.4993 10.6501 13.6614L10.2571 14.0543C10.036 14.2999 9.76783 14.4985 9.46846 14.6383C9.16909 14.7782 8.84465 14.8564 8.51443 14.8683C8.42984 14.8676 8.3454 14.8609 8.26176 14.8483C8.21919 14.8418 8.17565 14.8463 8.13538 14.8616C8.0951 14.8768 8.05946 14.9022 8.03191 14.9353C8.00436 14.9684 7.98584 15.0081 7.97815 15.0504C7.97046 15.0928 7.97386 15.1364 7.98803 15.1771C8.29977 16.0949 8.81861 16.9286 9.50437 17.6137C10.1901 18.2988 11.0244 18.8169 11.9426 19.1278C11.9829 19.1417 12.0262 19.145 12.0682 19.1375C12.1102 19.1299 12.1495 19.1118 12.1826 19.0848C12.2156 19.0578 12.2412 19.0228 12.2569 18.9832C12.2727 18.9435 12.278 18.9005 12.2725 18.8582C12.2354 18.4854 12.2877 18.1091 12.4249 17.7605C12.5621 17.4118 12.7803 17.1009 13.0616 16.8532L13.4626 16.4522C13.7977 16.1311 14.2442 15.9524 14.7084 15.9537C15.1725 15.955 15.618 16.1362 15.9513 16.4593L17.6558 18.1564C17.8117 18.3153 17.9264 18.5099 17.9899 18.7233C18.0533 18.9366 18.0636 19.1622 18.0198 19.3805Z" fill="#1A3972"/>
</g>
<defs>
<clipPath id="clip0">
<rect width="24.0642" height="24.0593" fill="white" transform="translate(0.0419922 0.728516)"/>
</clipPath>
</defs>
</svg>
