<svg width="25" height="24" viewBox="0 0 25 24" fill="none" xmlns="http://www.w3.org/2000/svg">
<path d="M19.4826 4C19.4454 3.99999 19.4087 4.00823 19.3751 4.02412C19.3415 4.04001 19.3119 4.06315 19.2884 4.09187C19.2649 4.12058 19.248 4.15416 19.2391 4.19015C19.2302 4.22615 19.2295 4.26367 19.2369 4.3C19.3246 4.72377 19.3693 5.15529 19.3703 5.588C19.3703 8.781 15.3265 12.564 14.0862 13.647C13.7205 13.9665 13.2509 14.1427 12.7647 14.1427C12.2785 14.1427 11.8088 13.9665 11.4431 13.647C10.2028 12.564 6.15904 8.781 6.15904 5.588C6.15999 5.15529 6.20467 4.72377 6.2924 4.3C6.29983 4.26367 6.29907 4.22615 6.29018 4.19015C6.28128 4.15416 6.26446 4.12058 6.24095 4.09187C6.21743 4.06315 6.18781 4.04001 6.15422 4.02412C6.12063 4.00823 6.08392 3.99999 6.04674 4H4.74327C4.34438 4 3.96183 4.15804 3.67977 4.43934C3.39772 4.72064 3.23926 5.10218 3.23926 5.5V22C3.23926 22.3978 3.39772 22.7794 3.67977 23.0607C3.96183 23.342 4.34438 23.5 4.74327 23.5H20.786C21.1849 23.5 21.5675 23.342 21.8495 23.0607C22.1316 22.7794 22.2901 22.3978 22.2901 22V5.5C22.2901 5.10218 22.1316 4.72064 21.8495 4.43934C21.5675 4.15804 21.1849 4 20.786 4H19.4826Z" fill="#1A3972"/>
<path d="M12.7647 0.5C11.4121 0.501588 10.1155 1.03815 9.15907 1.99199C8.20268 2.94584 7.66468 4.23907 7.66309 5.588C7.66309 8.271 11.9465 12.088 12.4338 12.519C12.5253 12.5992 12.6429 12.6434 12.7647 12.6434C12.8865 12.6434 13.0041 12.5992 13.0956 12.519C13.5829 12.092 17.8663 8.271 17.8663 5.588C17.8647 4.23907 17.3267 2.94584 16.3703 1.99199C15.4139 1.03815 14.1172 0.501588 12.7647 0.5ZM12.7647 4C13.0126 4 13.2549 4.07331 13.461 4.21066C13.6671 4.34801 13.8278 4.54324 13.9226 4.77165C14.0175 5.00005 14.0423 5.25139 13.9939 5.49386C13.9456 5.73634 13.8262 5.95907 13.6509 6.13388C13.4757 6.3087 13.2523 6.42775 13.0092 6.47598C12.7661 6.52421 12.5141 6.49946 12.2851 6.40485C12.056 6.31024 11.8603 6.15002 11.7226 5.94446C11.5849 5.7389 11.5113 5.49723 11.5113 5.25C11.5113 4.91848 11.6434 4.60054 11.8784 4.36612C12.1135 4.1317 12.4323 4 12.7647 4Z" fill="#96E4FC"/>
</svg>
