<svg width="20" height="25" viewBox="0 0 20 25" fill="none" xmlns="http://www.w3.org/2000/svg">
<path d="M9.29508 7.00879H2.49121V7.68906H9.29508V7.00879Z" fill="#F5F5F5"/>
<path d="M9.63505 7.00879H0.790039V7.68903H9.63505V7.00879Z" fill="#F5F5F5"/>
<path d="M0.109375 2.24805C0.109375 3.37045 1.0279 4.28879 2.15053 4.28879H17.119H19.1602V6.32953C19.1602 6.32953 19.1602 18.9141 19.1602 23.3357C19.1602 23.6758 18.82 24.016 18.4798 24.016C14.0573 24.0139 2.15053 24.016 2.15053 24.016C1.0279 24.016 0.109375 23.0976 0.109375 21.9752V6.32953V2.24805Z" fill="#96E4FC"/>
<path d="M4.19211 4.28906H3.51172V24.0162H4.19211V4.28906Z" fill="#1A3972"/>
<path d="M19.1602 0.887767C19.1602 0.547643 18.82 0.20752 18.4798 0.20752C18.1396 0.20752 17.119 0.20752 17.119 0.20752H2.15053C1.0279 0.20752 0.109375 1.12585 0.109375 2.24826C0.109375 3.37067 1.0279 4.289 2.15053 4.289H17.119H19.1602C19.1602 4.289 19.1602 1.73808 19.1602 0.887767Z" fill="#1A3972"/>
<path d="M2.15053 4.289H3.5113V0.20752H2.15053C1.02789 0.20752 0.109375 1.12585 0.109375 2.24826C0.109375 3.37067 1.02789 4.289 2.15053 4.289Z" fill="#1A3972"/>
<path d="M2.15081 3.6087C1.41327 3.6087 0.790039 2.98559 0.790039 2.2482C0.790039 1.51081 1.41327 0.887695 2.15081 0.887695H19.1605V3.6087H2.15081Z" fill="#EDEDED"/>
<path d="M2.15053 24.016H3.5113V4.28879H2.15053C1.02789 4.28879 0.109375 3.37045 0.109375 2.24805V6.32953V21.9752C0.109375 23.0976 1.02789 24.016 2.15053 24.016Z" fill="#1A3972"/>
<path d="M14.0583 11.7705H8.61523V12.4508H14.0583V11.7705Z" fill="#EDEDED"/>
<path d="M15.7591 13.1309H6.91406V13.8111H15.7591V13.1309Z" fill="#EDEDED"/>
</svg>
