<svg width="33" height="18" viewBox="0 0 33 18" fill="none" xmlns="http://www.w3.org/2000/svg">
<path fill-rule="evenodd" clip-rule="evenodd" d="M26.0334 15.3424V6.6665H6.40527V15.3424C6.40527 16.5403 10.7992 17.5114 16.2193 17.5114C21.6395 17.5114 26.0334 16.5403 26.0334 15.3424Z" fill="#1A3972"/>
<path d="M29.6483 7.18262H28.6152V15.4454H29.6483V7.18262Z" fill="#EDEDED"/>
<path d="M29.1326 17.5111C29.9884 17.5111 30.6822 16.8175 30.6822 15.9619C30.6822 15.1062 29.9884 14.4126 29.1326 14.4126C28.2768 14.4126 27.583 15.1062 27.583 15.9619C27.583 16.8175 28.2768 17.5111 29.1326 17.5111Z" fill="#1A3972"/>
<path fill-rule="evenodd" clip-rule="evenodd" d="M0.0771484 6.66221L16.3561 0.469238L32.3602 6.66221L16.3561 11.8032L0.0771484 6.66221Z" fill="#96E4FC"/>
</svg>
