<svg width="25" height="24" viewBox="0 0 25 24" fill="none" xmlns="http://www.w3.org/2000/svg">
<g clip-path="url(#clip0)">
<path d="M8.25212 0C6.86395 0 5.50695 0.410543 4.35273 1.17971C3.19851 1.94888 2.2989 3.04213 1.76767 4.32122C1.23644 5.6003 1.09745 7.00776 1.36826 8.36563C1.63908 9.7235 2.30755 10.9708 3.28914 11.9497C4.27072 12.9287 5.52134 13.5954 6.88283 13.8655C8.24433 14.1356 9.65556 13.997 10.9381 13.4672C12.2206 12.9373 13.3167 12.0401 14.088 10.889C14.8592 9.73785 15.2708 8.38447 15.2708 7C15.2684 5.14422 14.5282 3.36512 13.2125 2.05288C11.8967 0.740644 10.1129 0.00238142 8.25212 0ZM9.34403 6.216C9.54347 6.216 9.73475 6.29502 9.87578 6.43567C10.0168 6.57632 10.096 6.76709 10.096 6.966C10.096 7.16491 10.0168 7.35568 9.87578 7.49633C9.73475 7.63698 9.54347 7.716 9.34403 7.716H7.30359C7.26162 7.71606 7.22035 7.72662 7.18354 7.74672C7.14673 7.76682 7.11557 7.79582 7.09292 7.83105C7.07027 7.86628 7.05685 7.90662 7.05389 7.94837C7.05093 7.99012 7.05852 8.03194 7.07598 8.07C7.39299 8.67984 7.87698 9.18745 8.47175 9.53387C9.06651 9.88029 9.74761 10.0513 10.4359 10.027C10.6354 10.027 10.8267 10.106 10.9677 10.2467C11.1087 10.3873 11.1879 10.5781 11.1879 10.777C11.1879 10.9759 11.1087 11.1667 10.9677 11.3073C10.8267 11.448 10.6354 11.527 10.4359 11.527C9.31847 11.5653 8.22023 11.2299 7.31583 10.5742C6.41144 9.91842 5.7528 8.97996 5.44463 7.908C5.43156 7.85335 5.40041 7.80468 5.35621 7.76984C5.312 7.73501 5.25732 7.71604 5.20098 7.716H4.97538C4.77594 7.716 4.58466 7.63698 4.44363 7.49633C4.3026 7.35568 4.22337 7.16491 4.22337 6.966C4.22337 6.76709 4.3026 6.57632 4.44363 6.43567C4.58466 6.29502 4.77594 6.216 4.97538 6.216H5.19797C5.25496 6.21659 5.31045 6.19779 5.35529 6.1627C5.40013 6.12762 5.43164 6.07834 5.44463 6.023C5.75206 4.95029 6.41038 4.01094 7.31484 3.35443C8.2193 2.69791 9.31794 2.36195 10.4359 2.4C10.6354 2.4 10.8267 2.47902 10.9677 2.61967C11.1087 2.76032 11.1879 2.95109 11.1879 3.15C11.1879 3.34891 11.1087 3.53968 10.9677 3.68033C10.8267 3.82098 10.6354 3.9 10.4359 3.9C9.74711 3.8763 9.06568 4.04809 8.47089 4.39541C7.8761 4.74273 7.39238 5.25131 7.07598 5.862C7.05852 5.90006 7.05093 5.94188 7.05389 5.98363C7.05685 6.02538 7.07027 6.06572 7.09292 6.10095C7.11557 6.13618 7.14673 6.16518 7.18354 6.18528C7.22035 6.20538 7.26162 6.21594 7.30359 6.216H9.34403Z" fill="#1A3972"/>
<path d="M24.2946 11C24.2946 10.8674 24.2418 10.7402 24.1477 10.6464C24.0537 10.5527 23.9262 10.5 23.7932 10.5H18.7799C18.6806 10.4998 18.5835 10.5291 18.5009 10.584C18.4183 10.6389 18.3539 10.7171 18.3158 10.8085C18.2778 10.9 18.2679 11.0007 18.2873 11.0978C18.3067 11.1949 18.3546 11.2841 18.4249 11.354L19.8437 12.768C19.8675 12.7919 19.8863 12.8203 19.8989 12.8516C19.9115 12.8828 19.9177 12.9163 19.917 12.95C19.9163 12.9837 19.9089 13.0169 19.8951 13.0476C19.8813 13.0784 19.8614 13.1061 19.8367 13.129L15.2414 17.354C15.1976 17.3946 15.1405 17.4182 15.0807 17.4204C15.0209 17.4226 14.9623 17.4033 14.9156 17.366L12.0078 15.049C11.6104 14.7328 11.1139 14.5666 10.6056 14.5796C10.0974 14.5925 9.61007 14.7839 9.2294 15.12L9.00981 15.314L1.67626 21.814C1.55314 21.923 1.45276 22.0551 1.38084 22.2028C1.30892 22.3505 1.26687 22.5109 1.2571 22.6748C1.24732 22.8386 1.27001 23.0029 1.32386 23.158C1.37772 23.3132 1.46169 23.4562 1.57098 23.579C1.79169 23.827 2.10214 23.9774 2.43403 23.997C2.59836 24.0068 2.76301 23.9842 2.91858 23.9305C3.07415 23.8767 3.21758 23.793 3.34069 23.684L10.5148 17.324C10.5591 17.2847 10.6159 17.2623 10.6751 17.2606C10.7344 17.259 10.7923 17.2782 10.8387 17.315L13.7464 19.639C14.1507 19.9584 14.6558 20.1238 15.1712 20.1054C15.6865 20.0871 16.1785 19.8863 16.5589 19.539L21.6194 14.886C21.6672 14.8422 21.73 14.8186 21.7948 14.8199C21.8596 14.8212 21.9214 14.8474 21.9674 14.893L23.4323 16.355C23.5021 16.4273 23.5921 16.4769 23.6906 16.4975C23.7891 16.518 23.8916 16.5086 23.9846 16.4703C24.0776 16.432 24.1569 16.3666 24.2122 16.2828C24.2675 16.1989 24.2962 16.1004 24.2946 16V11Z" fill="#96E4FC"/>
</g>
<defs>
<clipPath id="clip0">
<rect width="24.0642" height="24" fill="white" transform="translate(0.732422)"/>
</clipPath>
</defs>
</svg>
