<svg width="25" height="24" viewBox="0 0 25 24" fill="none" xmlns="http://www.w3.org/2000/svg">
<g clip-path="url(#clip0)">
<path d="M23.4794 2.1742C23.2432 2.01392 22.9681 1.92005 22.683 1.90245C22.3978 1.88486 22.1132 1.94418 21.859 2.0742C20.5424 2.60788 19.1423 2.90741 17.722 2.9592C16.1019 2.8403 14.5042 2.51119 12.9693 1.9802C9.60336 1.0002 8.43725 0.7682 5.85637 1.1002C5.49379 1.14736 5.16086 1.32464 4.91985 1.59888C4.67883 1.87312 4.54624 2.22553 4.54688 2.5902V17.6102C4.54689 17.8217 4.59175 18.0308 4.6785 18.2238C4.76526 18.4167 4.89195 18.5892 5.05026 18.73C5.20858 18.8707 5.39493 18.9764 5.5971 19.0402C5.79928 19.104 6.01269 19.1245 6.22335 19.1002C8.48438 18.8412 9.53719 19.0612 12.6826 19.9792C14.3094 20.5414 16.0042 20.8848 17.722 21.0002C19.4769 20.9353 21.2043 20.5446 22.8156 19.8482C23.4894 19.5922 24.099 19.2482 24.099 18.3202V3.4002C24.101 3.16141 24.0459 2.92558 23.9381 2.71234C23.8303 2.4991 23.673 2.31461 23.4794 2.1742ZM13.8216 6.4382C13.8216 6.23929 13.9008 6.04852 14.0419 5.90787C14.1829 5.76722 14.3742 5.6882 14.5736 5.6882C14.7731 5.6882 14.9643 5.76722 15.1054 5.90787C15.2464 6.04852 15.3256 6.23929 15.3256 6.4382V10.9382C15.3256 11.1371 15.2464 11.3279 15.1054 11.4685C14.9643 11.6092 14.7731 11.6882 14.5736 11.6882C14.3742 11.6882 14.1829 11.6092 14.0419 11.4685C13.9008 11.3279 13.8216 11.1371 13.8216 10.9382V6.4382ZM14.5736 15.6882C14.3257 15.6882 14.0834 15.6149 13.8773 15.4775C13.6712 15.3402 13.5105 15.145 13.4157 14.9166C13.3208 14.6881 13.296 14.4368 13.3444 14.1943C13.3927 13.9519 13.5121 13.7291 13.6874 13.5543C13.8627 13.3795 14.086 13.2604 14.3291 13.2122C14.5722 13.164 14.8242 13.1887 15.0532 13.2833C15.2823 13.378 15.478 13.5382 15.6157 13.7437C15.7535 13.9493 15.827 14.191 15.827 14.4382C15.8264 14.7696 15.6942 15.0872 15.4593 15.3215C15.2243 15.5558 14.9059 15.6877 14.5736 15.6882Z" fill="#96E4FC"/>
<path d="M1.53917 0C1.14028 0 0.757727 0.158035 0.475671 0.43934C0.193614 0.720644 0.0351563 1.10218 0.0351562 1.5L0.0351563 22.5C0.0351563 22.8978 0.193614 23.2794 0.475671 23.5607C0.757727 23.842 1.14028 24 1.53917 24C1.93806 24 2.32061 23.842 2.60266 23.5607C2.88472 23.2794 3.04318 22.8978 3.04318 22.5V1.5C3.04318 1.10218 2.88472 0.720644 2.60266 0.43934C2.32061 0.158035 1.93806 0 1.53917 0V0Z" fill="#1A3972"/>
</g>
<defs>
<clipPath id="clip0">
<rect width="24.0642" height="24" fill="white" transform="translate(0.0351562)"/>
</clipPath>
</defs>
</svg>
