<svg width="25" height="24" viewBox="0 0 25 24" fill="none" xmlns="http://www.w3.org/2000/svg">
<g clip-path="url(#clip0)">
<path d="M24.1521 7.5C24.1521 6.96957 23.9408 6.46086 23.5647 6.08579C23.1886 5.71071 22.6786 5.5 22.1467 5.5H20.392C20.3256 5.5 20.2618 5.47366 20.2148 5.42678C20.1678 5.37989 20.1414 5.3163 20.1414 5.25V3.5C20.1414 3.23478 20.0357 2.98043 19.8477 2.79289C19.6597 2.60536 19.4046 2.5 19.1387 2.5H2.09324C1.56139 2.5 1.05132 2.71071 0.675243 3.08579C0.299168 3.46086 0.0878906 3.96957 0.0878906 4.5L0.0878906 16.5C0.0878906 16.7652 0.193529 17.0196 0.381567 17.2071C0.569605 17.3946 0.824639 17.5 1.09056 17.5H2.84524C2.91172 17.5 2.97548 17.5263 3.02249 17.5732C3.0695 17.6201 3.09591 17.6837 3.09591 17.75V19.5C3.09591 20.0304 3.30719 20.5391 3.68326 20.9142C4.05934 21.2893 4.56941 21.5 5.10126 21.5H8.10928C8.37521 21.5 8.63024 21.3946 8.81828 21.2071C9.00632 21.0196 9.11195 20.7652 9.11195 20.5C9.11195 20.3011 9.19118 20.1103 9.33221 19.9697C9.47324 19.829 9.66452 19.75 9.86396 19.75C10.0634 19.75 10.2547 19.829 10.3957 19.9697C10.5367 20.1103 10.616 20.3011 10.616 20.5C10.616 20.7652 10.7216 21.0196 10.9096 21.2071C11.0977 21.3946 11.3527 21.5 11.6186 21.5H15.6293C15.8953 21.5 16.1503 21.3946 16.3383 21.2071C16.5264 21.0196 16.632 20.7652 16.632 20.5C16.632 20.3011 16.7112 20.1103 16.8523 19.9697C16.9933 19.829 17.1846 19.75 17.384 19.75C17.5835 19.75 17.7747 19.829 17.9158 19.9697C18.0568 20.1103 18.136 20.3011 18.136 20.5C18.136 20.7652 18.2417 21.0196 18.4297 21.2071C18.6177 21.3946 18.8728 21.5 19.1387 21.5H22.1467C22.6786 21.5 23.1886 21.2893 23.5647 20.9142C23.9408 20.5391 24.1521 20.0304 24.1521 19.5V7.5ZM22.1467 19C22.1467 19.1326 22.0939 19.2598 21.9999 19.3536C21.9059 19.4473 21.7783 19.5 21.6454 19.5H20.2747C20.1831 19.4999 20.0933 19.4748 20.015 19.4274C19.9366 19.38 19.8729 19.312 19.8305 19.231C19.5977 18.7844 19.2465 18.4101 18.8151 18.1488C18.3837 17.8876 17.8887 17.7494 17.384 17.7494C16.8793 17.7494 16.3843 17.8876 15.9529 18.1488C15.5215 18.4101 15.1703 18.7844 14.9375 19.231C14.8952 19.312 14.8314 19.38 14.7531 19.4274C14.6748 19.4748 14.5849 19.4999 14.4933 19.5H12.7547C12.6631 19.4999 12.5732 19.4748 12.4949 19.4274C12.4166 19.38 12.3528 19.312 12.3105 19.231C12.0777 18.7844 11.7265 18.4101 11.2951 18.1488C10.8637 17.8876 10.3687 17.7494 9.86396 17.7494C9.35926 17.7494 8.86425 17.8876 8.43285 18.1488C8.00145 18.4101 7.65022 18.7844 7.41744 19.231C7.37511 19.312 7.31133 19.38 7.23302 19.4274C7.15471 19.4748 7.06487 19.4999 6.97325 19.5H5.6026C5.46963 19.5 5.34212 19.4473 5.2481 19.3536C5.15408 19.2598 5.10126 19.1326 5.10126 19V8C5.10126 7.86739 5.15408 7.74021 5.2481 7.64645C5.34212 7.55268 5.46963 7.5 5.6026 7.5H21.6454C21.7783 7.5 21.9059 7.55268 21.9999 7.64645C22.0939 7.74021 22.1467 7.86739 22.1467 8V19Z" fill="#1A3972"/>
<path d="M14.877 10.75C14.877 10.9489 14.9562 11.1397 15.0972 11.2803C15.2382 11.421 15.4295 11.5 15.629 11.5H20.141C20.3404 11.5 20.5317 11.421 20.6727 11.2803C20.8138 11.1397 20.893 10.9489 20.893 10.75C20.893 10.5511 20.8138 10.3603 20.6727 10.2197C20.5317 10.079 20.3404 10 20.141 10H15.629C15.4295 10 15.2382 10.079 15.0972 10.2197C14.9562 10.3603 14.877 10.5511 14.877 10.75Z" fill="#96E4FC"/>
<path d="M18.1356 13H15.629C15.4295 13 15.2382 13.079 15.0972 13.2197C14.9562 13.3603 14.877 13.5511 14.877 13.75C14.877 13.9489 14.9562 14.1397 15.0972 14.2803C15.2382 14.421 15.4295 14.5 15.629 14.5H18.1356C18.3351 14.5 18.5264 14.421 18.6674 14.2803C18.8084 14.1397 18.8876 13.9489 18.8876 13.75C18.8876 13.5511 18.8084 13.3603 18.6674 13.2197C18.5264 13.079 18.3351 13 18.1356 13Z" fill="#96E4FC"/>
<path d="M7.77832 10.5C7.77832 11.0304 7.9896 11.5391 8.36567 11.9142C8.74175 12.2893 9.25182 12.5 9.78367 12.5C10.3155 12.5 10.8256 12.2893 11.2017 11.9142C11.5777 11.5391 11.789 11.0304 11.789 10.5C11.789 9.96957 11.5777 9.46086 11.2017 9.08579C10.8256 8.71071 10.3155 8.5 9.78367 8.5C9.25182 8.5 8.74175 8.71071 8.36567 9.08579C7.9896 9.46086 7.77832 9.96957 7.77832 10.5Z" fill="#96E4FC"/>
<path d="M9.78334 13.5C9.06392 13.5137 8.365 13.7414 7.77631 14.1541C7.18763 14.5668 6.73604 15.1455 6.47953 15.816C6.44924 15.8923 6.43825 15.9749 6.44754 16.0564C6.45682 16.138 6.48609 16.216 6.53276 16.2836C6.57943 16.3512 6.64207 16.4063 6.71515 16.444C6.78823 16.4818 6.8695 16.501 6.95179 16.5H12.6139C12.6962 16.501 12.7774 16.4818 12.8505 16.444C12.9236 16.4063 12.9862 16.3512 13.0329 16.2836C13.0796 16.216 13.1089 16.138 13.1181 16.0564C13.1274 15.9749 13.1164 15.8923 13.0861 15.816C12.8297 15.1457 12.3783 14.567 11.7898 14.1544C11.2013 13.7417 10.5026 13.5138 9.78334 13.5Z" fill="#96E4FC"/>
</g>
<defs>
<clipPath id="clip0">
<rect width="24.0642" height="24" fill="white" transform="translate(0.0878906)"/>
</clipPath>
</defs>
</svg>
