<?xml version="1.0" encoding="UTF-8" standalone="no"?><!DOCTYPE svg PUBLIC "-//W3C//DTD SVG 1.1//EN" "http://www.w3.org/Graphics/SVG/1.1/DTD/svg11.dtd"><svg width="100%" height="100%" viewBox="0 0 546 868" version="1.1" xmlns="http://www.w3.org/2000/svg" xmlns:xlink="http://www.w3.org/1999/xlink" xml:space="preserve" xmlns:serif="http://www.serif.com/" style="fill-rule:evenodd;clip-rule:evenodd;stroke-linecap:round;stroke-linejoin:round;stroke-miterlimit:1.5;"><g id="Calque1"><g id="Calque2"><path d="M0,552.556l0,-22.749l272.727,135.778l272.727,-135.778l-0,22.749c-0,11.38 -248.537,135.778 -272.727,135.778c-24.191,-0 -272.727,-123.626 -272.727,-135.778Z" style="fill:#dd5436;"/><clipPath id="_clip1"><path d="M0,552.556l0,-22.749l272.727,135.778l272.727,-135.778l-0,22.749c-0,11.38 -248.537,135.778 -272.727,135.778c-24.191,-0 -272.727,-123.626 -272.727,-135.778Z"/></clipPath><g clip-path="url(#_clip1)"><rect x="0" y="496.837" width="545.454" height="218.879" style="fill:url(#_Linear2);"/></g><path d="M272.727,444.384c-0,0 -272.727,76.229 -272.727,85.471c0,6.869 248.311,135.73 272.727,135.73c20.364,-0 272.727,-121.713 272.727,-135.73c-0,-14.017 -272.727,-85.471 -272.727,-85.471Z" style="fill:#dd5436;"/><clipPath id="_clip3"><path d="M272.727,444.384c-0,0 -272.727,76.229 -272.727,85.471c0,6.869 248.311,135.73 272.727,135.73c20.364,-0 272.727,-121.713 272.727,-135.73c-0,-14.017 -272.727,-85.471 -272.727,-85.471Z"/></clipPath><g clip-path="url(#_clip3)"><path d="M152.419,347.168c90.2,-4.78 166.058,40.926 169.294,102.002c3.237,61.076 -67.366,114.542 -157.566,119.321c-90.2,4.78 -166.058,-40.925 -169.294,-102.001c-3.237,-61.076 67.367,-114.542 157.566,-119.322Z" style="fill-opacity:0.4;"/></g><path d="M463.682,531.727c-127.426,88.156 -254.737,85.795 -381.911,-0l152.765,-515.18c-0,-0 6.285,-16.547 38.191,-16.547c31.905,-0 38.191,16.547 38.191,16.547l152.764,515.18Z" style="fill:#dd5436;"/><clipPath id="_clip4"><path d="M463.682,531.727c-127.426,88.156 -254.737,85.795 -381.911,-0l152.765,-515.18c-0,-0 6.285,-16.547 38.191,-16.547c31.905,-0 38.191,16.547 38.191,16.547l152.764,515.18Z"/></clipPath><g clip-path="url(#_clip4)"><path d="M93.691,339.832c119.357,71.381 238.715,71.031 358.072,0" style="fill:none;stroke:#fff;stroke-width:100px;"/><path d="M93.691,147.226c119.357,71.381 238.715,71.031 358.072,0" style="fill:none;stroke:#fff;stroke-width:100px;"/><path d="M306.723,23.464c-1.846,-6.57 -2.666,-9.87 -8.229,-9.87c-4.432,2.17 -6.29,1.961 -11.396,2.834c-3.308,0.565 -4.534,2.834 -4.534,8.397l47.18,567.7c12.143,30.3 112.912,-7.656 100.972,-37.541l-123.993,-531.52Z" style="fill:#fff;fill-opacity:0.4;"/><path d="M69.414,549.916c-0,-0 149.1,-492.596 173.426,-534.997c1.191,-2.076 6.368,-0.082 6.926,0c5.391,2.17 -103.814,560.346 -103.814,560.346c-18.263,28.337 -94.852,3.338 -76.538,-25.349Z" style="fill-opacity:0.4;"/></g><ellipse cx="272.727" cy="6.924" rx="23.373" ry="5.032" style="fill-opacity:0.47;"/></g><path d="M276.525,867.659l-106.544,-198.575c0,0 82.598,41.27 106.544,41.27c23.947,-0 106.545,-41.27 106.545,-41.27l-106.545,198.575Z" style="fill:#dd5436;"/></g><defs><linearGradient id="_Linear2" x1="0" y1="0" x2="1" y2="0" gradientUnits="userSpaceOnUse" gradientTransform="matrix(545.454,0,0,218.879,1.7053e-13,606.276)"><stop offset="0" style="stop-color:#000;stop-opacity:0.29"/><stop offset="0.48" style="stop-color:#000;stop-opacity:0.29"/><stop offset="1" style="stop-color:#fff;stop-opacity:0.29"/></linearGradient></defs></svg>