<?xml version="1.0" encoding="UTF-8" standalone="no"?>
<!DOCTYPE svg PUBLIC "-//W3C//DTD SVG 1.1//EN" "http://www.w3.org/Graphics/SVG/1.1/DTD/svg11.dtd">
<svg width="100%" height="100%" viewBox="0 0 52 75" version="1.1" xmlns="http://www.w3.org/2000/svg" xmlns:xlink="http://www.w3.org/1999/xlink" xml:space="preserve" xmlns:serif="http://www.serif.com/" style="fill-rule:evenodd;clip-rule:evenodd;stroke-linecap:round;stroke-linejoin:round;stroke-miterlimit:1.5;">
    <path d="M3.126,74.06C3.126,74.06 18.532,73.104 25.698,73.104C32.863,73.104 48.031,74.776 48.031,74.776C48.031,74.776 55.082,41.805 44.089,34.171C39.79,31.186 33.686,31.833 29.997,30.827C28.683,30.469 28.206,30.111 28.086,26.528C27.951,22.463 22.354,24.617 22.354,24.617L18.174,27.603L18.054,29.275C18.054,29.275 18.532,29.394 18.293,30.947C18.054,32.499 10.053,33.813 7.664,36.799C5.276,39.784 1.573,51.608 1.812,59.609C2.051,67.611 3.126,74.06 3.126,74.06Z" style="fill:white;"/>
    <clipPath id="_clip1">
        <path d="M3.126,74.06C3.126,74.06 18.532,73.104 25.698,73.104C32.863,73.104 48.031,74.776 48.031,74.776C48.031,74.776 55.082,41.805 44.089,34.171C39.79,31.186 33.686,31.833 29.997,30.827C28.683,30.469 28.206,30.111 28.086,26.528C27.951,22.463 22.354,24.617 22.354,24.617L18.174,27.603L18.054,29.275C18.054,29.275 18.532,29.394 18.293,30.947C18.054,32.499 10.053,33.813 7.664,36.799C5.276,39.784 1.573,51.608 1.812,59.609C2.051,67.611 3.126,74.06 3.126,74.06Z"/>
    </clipPath>
    <g clip-path="url(#_clip1)">
        <path d="M41.635,73.822C41.635,73.822 41.6,71.54 41.496,68.316C41.377,64.603 41.165,59.643 40.897,55.479C40.656,51.732 40.36,48.632 40.029,47.667C40.319,48.643 40.481,51.746 40.575,55.494C40.68,59.66 40.689,64.618 40.695,68.329C40.7,71.55 40.701,73.829 40.701,73.829C40.703,74.087 40.914,74.295 41.172,74.292C41.43,74.29 41.637,74.079 41.635,73.822Z"/>
        <g transform="matrix(-0.887173,0,0,1.16892,43.2963,-12.4707)">
            <path d="M40.641,73.828C40.641,73.828 40.642,71.55 40.644,68.331C40.646,64.623 40.649,59.668 40.555,55.503C40.47,51.75 40.317,48.642 40.029,47.667C40.362,48.635 40.667,51.741 40.918,55.493C41.196,59.657 41.42,64.613 41.547,68.322C41.657,71.543 41.695,73.823 41.695,73.823C41.696,74.043 41.462,74.224 41.171,74.225C40.881,74.226 40.643,74.048 40.641,73.828Z"/>
        </g>
    </g>
    <path d="M3.126,74.06C3.126,74.06 18.532,73.104 25.698,73.104C32.863,73.104 48.031,74.776 48.031,74.776C48.031,74.776 55.082,41.805 44.089,34.171C39.79,31.186 33.686,31.833 29.997,30.827C28.683,30.469 28.206,30.111 28.086,26.528C27.951,22.463 22.354,24.617 22.354,24.617L18.174,27.603L18.054,29.275C18.054,29.275 18.532,29.394 18.293,30.947C18.054,32.499 10.053,33.813 7.664,36.799C5.276,39.784 1.573,51.608 1.812,59.609C2.051,67.611 3.126,74.06 3.126,74.06Z" style="fill:none;stroke:black;stroke-width:0.93px;"/>
    <g transform="matrix(1,0,0,1,-4.77707,0.238853)">
        <path d="M27.31,1.21C33.209,1.21 39.762,5.622 39.432,13.69C38.954,25.347 29.029,29.394 23.13,29.394C17.231,29.394 16.098,25.473 16.144,15.72C16.201,3.471 21.411,1.21 27.31,1.21Z" style="fill:white;stroke:black;stroke-width:0.93px;"/>
    </g>
</svg>
