<svg width="54" height="81" viewBox="0 0 54 81" fill="none" xmlns="http://www.w3.org/2000/svg">
<g clip-path="url(#clip0)">
<path fill-rule="evenodd" clip-rule="evenodd" d="M2.37989 69.4752C2.65527 67.9291 2.90768 66.3789 3.13708 64.8253C3.24598 64.0877 3.3522 63.3494 3.44771 62.61C3.51459 62.0919 3.61644 61.4994 3.26189 61.1157C2.763 60.5756 2.3098 60.1134 2.24873 59.3397C2.19127 58.6118 2.43885 57.8183 2.59365 57.1118C2.91827 55.6301 3.32242 54.1667 3.76899 52.7172C4.22266 51.2445 4.72012 49.7856 5.22476 48.3296C5.69654 46.9682 6.15007 45.5946 6.76456 44.2885C7.93075 41.8097 9.90366 39.9741 12.3419 38.7484C12.9483 38.4436 14.1852 37.3554 14.8187 37.1118C15.4012 36.8878 15.3991 37.5419 15.9723 37.2955C16.4306 37.0986 16.8573 36.8359 17.1139 36.396C17.3925 35.9184 18.0911 35.2503 18.1974 34.6943C18.4228 33.5158 18.1787 32.5128 19.0247 31.6258C19.7757 30.8382 20.7852 30.2986 21.8297 30.0089C24.1275 29.3717 27.192 29.8172 28.5783 31.94C29.2405 32.9538 29.4719 34.1791 30.3654 35.0065C31.1456 35.7289 30.971 36.2228 31.9815 36.5951C32.0387 36.6162 33.59 36.2854 33.6472 36.3066C34.7527 36.0714 35.8092 36.7297 36.8234 37.1118C38.3354 37.6813 39.7749 38.4225 41.1274 39.3035C43.8544 41.0799 46.19 43.3866 48.1156 45.997C50.0571 48.6288 51.5635 51.5787 52.6361 54.6617C52.8966 55.4106 53.1306 56.1686 53.3369 56.934C53.4524 57.3623 53.5759 57.8066 53.4352 58.2452C53.3202 58.6039 53.0643 58.8711 52.7638 59.0863C52.3564 59.3782 51.5393 59.5678 51.5552 60.1548C51.5674 60.6011 51.7197 61.0707 51.794 61.5117C51.8825 62.0368 51.9551 62.5651 52.0278 63.0926C52.3585 65.4935 52.6158 67.9079 52.7296 70.3293C52.8417 72.7133 52.9346 75.1461 52.7683 77.5295C52.7573 77.6867 52.7101 77.8309 52.6341 77.9529C52.7051 77.9799 52.7106 78.1114 52.6222 78.13C52.5603 78.1431 52.4986 78.1561 52.4367 78.1691C52.3081 78.2659 52.1478 78.3252 51.9633 78.3309C51.8382 78.3349 51.7132 78.3405 51.5882 78.3469C50.2697 78.6209 48.9514 78.8797 47.6156 79.0757C45.9919 79.314 44.3635 79.5082 42.7299 79.6661C39.3733 79.9905 36.0431 79.883 32.6821 79.7081C29.3262 79.5334 25.9724 79.4926 22.613 79.5795C19.2507 79.6665 15.8897 79.8119 12.5266 79.8714C8.76944 79.9378 5.01797 79.8358 1.27163 79.5388C0.757977 79.4981 0.440182 79.0919 0.541489 78.5846C1.14846 75.5458 1.83632 72.5272 2.37989 69.4752Z" fill="white"/>
<path fill-rule="evenodd" clip-rule="evenodd" d="M36.8234 37.1116L36.75 37.0835C35.7583 36.6983 34.726 36.0768 33.6472 36.3063C33.6091 36.2922 32.9071 36.4345 32.4263 36.5247L32.8826 36.9983L33.688 37.1524C30.9095 41.7116 27.6233 43.9912 23.8293 43.9912C20.0354 43.9912 17.1566 41.7116 15.1928 37.1524L14.9248 37.0787C14.8917 37.0863 14.8564 37.0971 14.8187 37.1116C14.1852 37.3552 12.9483 38.4434 12.3419 38.7482C9.90366 39.9739 7.93075 41.8095 6.76456 44.2882C6.17056 45.5509 5.72695 46.8765 5.27188 48.1932L5.22475 48.3294C4.72012 49.7854 4.22265 51.2443 3.76898 52.717C3.34183 54.1035 2.95349 55.5026 2.63643 56.9184L2.59364 57.1115C2.43884 57.8181 2.19127 58.6116 2.24872 59.3395C2.27048 59.6151 2.342 59.8512 2.44764 60.0654L7.94326 62.0314L5.32507 79.785C7.72335 79.8872 10.1238 79.9136 12.5266 79.8712C15.8897 79.8117 19.2507 79.6663 22.613 79.5793C25.8706 79.495 29.123 79.5309 32.377 79.6924L33.2034 79.7344C36.3877 79.8927 39.5469 79.9735 42.7299 79.6659L42.9468 79.6447L42.9469 77.0478L41.8288 62.5871L47.4951 61.5267L53.0573 58.8408C53.2254 58.6738 53.3602 58.4788 53.4352 58.2449C53.5655 57.8388 53.4692 57.4277 53.3625 57.0289L53.3369 56.9338C53.1306 56.1684 52.8966 55.4104 52.6361 54.6615C51.5635 51.5785 50.0571 48.6286 48.1156 45.9967C46.19 43.3864 43.8544 41.0797 41.1274 39.3033C39.7749 38.4223 38.3354 37.6811 36.8234 37.1116Z" fill="black"/>
<path fill-rule="evenodd" clip-rule="evenodd" d="M34.6959 36.232C34.3485 36.217 33.9942 36.2729 33.6476 36.3067C33.6174 36.3097 33.6059 36.356 33.6399 36.3631C34.2603 36.4919 34.8738 36.6682 35.4831 36.8472L35.7439 36.9239C36.431 37.126 37.0978 37.3344 37.763 37.6039C39.0885 38.141 40.3475 38.866 41.5062 39.6989C45.9679 42.9061 49.1971 47.7618 51.2349 52.7893C51.7883 54.1546 52.2572 55.5538 52.637 56.9766C52.7294 57.3228 52.8163 57.6704 52.8987 58.019C52.9229 58.1212 53.0283 58.383 52.9705 58.4876C52.9194 58.58 52.7207 58.6371 52.6284 58.6852L52.3168 58.8458C51.7091 59.1573 50.6967 59.6692 50.5951 59.7191L50.4368 59.7966C47.847 61.0589 45.0798 62.1292 42.1654 62.2033L42.1426 61.9559C42.0126 60.5879 41.8421 59.2127 41.4699 57.8868C41.4499 57.8156 41.3587 57.8396 41.3504 57.9029C41.1431 59.4726 41.2093 61.0545 41.2817 62.6314C41.4098 65.4244 41.5799 68.2158 41.731 71.0076C41.8067 72.4042 41.9046 73.7999 41.9929 75.1958C42.0814 76.5944 42.11 78.0267 42.312 79.4138C42.357 79.723 42.7213 79.8911 42.9971 79.8585C43.3023 79.8224 43.5371 79.5551 43.5386 79.2488C43.5423 78.4407 43.4401 77.623 43.3834 76.817C43.3295 76.0511 43.2716 75.2857 43.2123 74.5202C42.9956 71.7267 42.7463 68.9364 42.5158 66.144C42.4341 65.1536 42.3458 64.1641 42.2549 63.1747C45.3423 63.0757 48.2265 61.9389 50.9781 60.6105C51.0179 61.5095 51.1141 62.4069 51.2072 63.3023C51.4672 65.8007 51.6964 68.2982 51.8679 70.8044C51.9545 72.0702 52.0176 73.3376 52.0725 74.6051C52.0995 75.228 52.1215 75.8511 52.1383 76.4744C52.144 76.6821 52.1491 76.8899 52.1536 77.0977L52.163 77.5737C52.1707 77.8753 52.2015 78.1547 52.4568 78.3742C52.716 78.5972 53.0662 78.6091 53.3228 78.3742C53.6663 78.0598 53.6055 77.6313 53.5954 77.209C53.5869 76.8528 53.5767 76.4966 53.5649 76.1405C53.5412 75.4283 53.5109 74.7162 53.4741 74.0045C53.3452 71.5162 53.0878 69.0379 52.7514 66.5695L52.62 65.6167C52.3748 63.8454 52.1055 62.0338 51.5572 60.3274C51.7707 60.2219 51.9835 60.1156 52.1956 60.0088C52.5717 59.8195 52.9606 59.6418 53.3263 59.4328C53.6163 59.267 53.8665 59.0396 53.9472 58.704C54.0373 58.3301 53.8996 57.9212 53.8081 57.5565L53.8002 57.5244C53.7105 57.1571 53.6139 56.7914 53.5119 56.4273C53.0986 54.9508 52.5876 53.5031 51.9895 52.0908C50.7919 49.2632 49.2462 46.5769 47.3581 44.1481C45.6585 41.9618 43.6507 39.9791 41.2976 38.4921C40.1472 37.7651 38.9212 37.1682 37.6247 36.7461C37.0187 36.5489 36.3593 36.3773 35.7248 36.3067C35.3825 36.2686 35.0398 36.2468 34.6959 36.232ZM28.5399 31.7514C28.127 31.3106 27.3067 31.7667 27.5049 32.3504C27.9712 33.7237 28.7138 34.9763 29.8727 35.8787C30.962 36.727 32.261 37.2779 33.66 37.1603C33.6708 37.1594 33.6801 37.1566 33.6884 37.1528L33.5678 37.3153C32.6214 38.5882 31.6229 39.8435 30.4194 40.8839C27.9674 43.0037 24.6289 44.147 21.4052 43.3337C18.8688 42.6938 16.6343 40.6998 15.9771 38.1586C16.0713 38.2005 16.1832 38.2149 16.3061 38.1883C16.832 38.0748 17.3525 37.525 17.6916 37.1308C18.0585 36.7044 18.345 36.2439 18.555 35.7233C18.9393 34.7707 19.0625 33.5442 18.5378 32.6214C18.473 32.5076 18.3237 32.5714 18.311 32.6824L18.291 32.8558C18.1898 33.7206 18.0638 34.5572 17.6536 35.3456C17.4529 35.7314 17.2123 36.1079 16.9195 36.431C16.7628 36.6038 16.5929 36.769 16.4094 36.914C16.2307 37.0552 16.0144 37.1573 15.8542 37.3193L15.8248 37.3504L15.824 37.3448C15.7835 37.0025 15.542 36.8516 15.3057 36.8611C15.077 36.8702 14.8084 36.9703 14.7044 37.0182L14.6945 37.0228C13.0993 37.7842 11.63 38.7765 10.2474 39.8775C7.38802 42.1544 5.24562 45.131 4.20758 48.6361C3.69811 50.3564 3.40577 52.129 3.09717 53.8934L2.90718 54.9744C2.61914 56.6032 2.29739 58.264 1.64717 59.7792C1.47898 60.1712 1.60864 60.5387 2.02106 60.6928C2.53601 60.8853 3.05287 61.0717 3.57056 61.2557C3.31636 62.3399 3.16135 63.4617 2.9709 64.5512C2.56607 66.8672 2.07004 69.1683 1.64472 71.4812C1.42727 72.6638 1.23107 73.8504 1.01383 75.0331C0.909245 75.6027 0.800079 76.1714 0.69392 76.7407C0.636742 77.0477 0.584892 77.3557 0.530308 77.6631L0.520809 77.7141C0.489544 77.8763 0.450253 78.044 0.495125 78.2063C0.546291 78.3914 0.691597 78.5221 0.821323 78.6548C0.928101 78.7641 1.08242 78.7648 1.21325 78.7052L1.25628 78.6854C1.48993 78.5767 1.67296 78.4683 1.75586 78.2063C1.80833 78.0404 1.82725 77.8535 1.86155 77.6825C1.92733 77.3548 1.9897 77.0267 2.04859 76.6976C2.16636 76.0393 2.2814 75.3805 2.39371 74.7211L2.49861 74.1037C2.85865 71.9759 3.20056 69.8351 3.3734 67.6848C3.45008 66.7308 3.53135 65.7777 3.61335 64.8244L3.67494 64.1093C3.75282 63.2043 3.84798 62.2764 3.86144 61.3592L4.17099 61.4685L5.68146 61.9993C6.05596 62.1309 6.53279 62.4005 6.93585 62.3515C7.13314 62.3274 7.28356 62.2657 7.3997 62.1535C7.26061 64.105 7.07233 66.0531 6.82142 67.9913C6.59311 69.7549 6.34001 71.5161 6.04107 73.2693C5.89303 74.1374 5.74089 75.0047 5.57564 75.8697C5.49305 76.3023 5.40779 76.7343 5.31994 77.1658C5.27615 77.3811 5.22403 77.5966 5.18987 77.8137C5.1508 78.0623 5.21966 78.2153 5.35936 78.4198C5.47406 78.5877 5.70353 78.674 5.88955 78.558C6.13589 78.4043 6.26439 78.2712 6.33687 77.9913C6.40272 77.7371 6.44276 77.4717 6.49372 77.2142C6.58779 76.7389 6.67871 76.2631 6.76649 75.7865C6.95005 74.79 7.11927 73.7911 7.27038 72.7892C7.80289 69.2595 8.14077 65.7003 8.31142 62.1353C8.39565 60.3764 8.42168 58.616 8.40672 56.8552C8.39906 55.9527 8.36942 55.0476 8.3052 54.1474C8.24016 53.2361 8.1049 52.343 7.98412 51.4405C7.97989 51.4088 7.9348 51.4069 7.93289 51.4405C7.87571 52.4524 7.78608 53.4631 7.74216 54.4776C7.70021 55.4456 7.68184 56.4152 7.64849 57.3836C7.60471 58.6565 7.54398 59.9302 7.46357 61.203C7.31799 61.0447 7.09857 60.9534 6.87901 60.989C6.56094 60.9227 6.21855 60.7567 5.9153 60.656L4.77213 60.2764C4.17118 60.0768 3.57021 59.8786 2.96714 59.6864C3.50633 57.8829 3.87569 56.0526 4.19109 54.1956L4.33174 53.3604C4.61017 51.7165 4.91038 50.0718 5.4147 48.4799C5.94488 46.8062 6.73828 45.2502 7.7908 43.8411C8.82828 42.4524 10.0905 41.2296 11.3901 40.0858C12.5028 39.1067 13.693 38.2227 14.8278 37.2705C14.8159 37.3336 14.8134 37.403 14.8239 37.4794C15.0652 39.2351 15.9864 40.8701 17.2702 42.0862C19.8494 44.5293 23.6673 45.0362 26.9683 43.8905C30.1615 42.7823 32.9848 40.1578 33.9822 36.9102C33.9993 36.8546 33.9244 36.8325 33.8944 36.8733C33.839 36.9487 33.7834 37.0241 33.7277 37.0995C33.7315 37.0696 33.7158 37.037 33.6787 37.0227C32.5149 36.5759 31.3721 35.9423 30.4997 35.046C30.0745 34.6091 29.7034 34.1141 29.4105 33.5802C29.2702 33.3245 29.1441 33.0597 29.0436 32.7861L29.018 32.7153C28.8962 32.3725 28.7943 32.0229 28.5399 31.7514Z" fill="black"/>
<path fill-rule="evenodd" clip-rule="evenodd" d="M35.2697 7.69512C34.9162 7.31716 34.464 7.03557 33.9697 6.94557C34.4215 7.17045 34.8632 7.40484 35.2697 7.69512ZM35.9622 10.9541C36.0247 10.6661 36.0667 10.3753 36.0799 10.0845C36.0009 10.2042 35.8747 10.2841 35.733 10.3254C35.8245 10.5296 35.9024 10.7401 35.9622 10.9541ZM12.3058 15.4703C12.7139 13.7779 14.6177 10.5228 15.0677 9.89627C15.5563 8.34494 12.8913 7.10084 14.3407 5.88774C14.9969 5.34038 15.8642 5.14668 16.6777 4.95257C22.3106 3.60479 28.3626 4.28452 33.5869 6.76294C34.3815 6.59634 35.2094 6.92194 35.7873 7.49381C38.5022 10.2125 34.8023 15.1177 33.9933 18.1826C32.6052 21.6001 35.4645 22.1749 35.1579 25.0664C34.9197 26.5602 33.401 26.955 32.1195 27.1808C31.9141 27.2287 31.6395 27.2359 31.5733 27.4522C31.3656 28.7149 30.6538 29.9182 29.6981 30.7348C29.7817 30.9815 29.7179 31.281 29.4232 31.4976C26.7531 33.4746 23.3864 34.4639 20.0561 34.286C16.0874 34.0741 14.035 31.8078 13.5398 31.2242C10.8014 27.5398 11.1287 22.6786 11.6872 18.2877C12.0764 15.229 11.5829 18.4682 12.3058 15.4703Z" fill="white"/>
<path fill-rule="evenodd" clip-rule="evenodd" d="M24.544 1.3878C24.4192 0.999305 24.0661 0.765664 23.6618 0.813887C23.3039 0.855996 22.9208 1.20985 22.9645 1.60039C22.9726 1.67577 22.9836 1.74641 22.9965 1.81297L22.9948 1.81357L22.9931 1.81365L23.002 1.83946C23.0285 1.96375 23.0654 2.07514 23.1199 2.18041C23.1894 2.38213 23.2562 2.58453 23.3224 2.7876C23.2269 2.78353 23.1294 2.78896 23.0306 2.8073C22.9283 2.54649 22.8254 2.28636 22.7231 2.02488C22.6134 1.74573 22.5364 1.38712 22.3196 1.17114C22.0421 0.895389 21.5608 0.838337 21.2227 1.0353C20.8655 1.24313 20.738 1.61261 20.8157 2.00858C20.8552 2.21055 20.9907 2.35111 21.1583 2.43943L21.1764 2.44869L21.3052 2.75297C21.2657 2.73599 21.2248 2.72036 21.1805 2.70746C21.1109 2.68708 21.0427 2.67418 20.9759 2.66875C20.7919 2.33662 20.5894 2.01401 20.3801 1.69751C20.1395 1.33346 19.6691 1.17861 19.2744 1.40885C18.9213 1.61465 18.7318 2.15528 18.9847 2.5105C19.1769 2.78013 19.359 3.0552 19.5382 3.33299C19.5076 3.33843 19.4769 3.34522 19.4476 3.35405C19.4339 3.33571 19.4196 3.31737 19.4046 3.29903C19.209 3.05724 18.9813 2.8759 18.7475 2.67486C18.5286 2.48605 18.4277 2.18924 18.1401 2.04593C17.7781 1.86595 17.3418 1.9522 17.1264 2.31081C16.6642 3.07898 17.44 3.63998 17.9362 4.10523C17.5047 3.83695 17.0555 3.59176 16.5947 3.37986C16.3356 3.261 16.0725 3.14621 15.8053 3.04705C15.4092 2.90035 15.0888 2.94728 14.7636 3.22025C14.6184 3.3425 14.5462 3.60949 14.613 3.78737C14.7425 4.12832 14.947 4.33547 15.3056 4.43395C15.5578 4.50323 15.8162 4.55009 16.0684 4.62277C16.491 4.74366 16.9014 4.89105 17.2995 5.07511C17.2709 5.09276 17.2436 5.11178 17.2184 5.13352C16.9212 5.03775 16.6185 4.95489 16.3145 4.88425C15.8102 4.76646 15.297 4.68687 14.7815 4.63708L14.6103 4.6212C13.9923 4.56211 13.2491 4.45307 12.8699 5.04251C12.7451 5.23675 12.7315 5.55733 12.8699 5.74954C13.1344 6.11902 13.3975 6.19237 13.8351 6.19916C13.4043 6.24467 12.9742 6.30104 12.546 6.36692C12.251 6.41175 11.9559 6.46256 11.6621 6.51894L11.5153 6.54758C11.1574 6.6189 10.7579 6.66033 10.4505 6.8668C9.77971 7.31778 10.0947 8.19597 10.8377 8.2897C11.197 8.33453 11.5958 8.18307 11.9482 8.11243C12.2904 8.04383 12.634 7.98339 12.9789 7.93041C13.1575 7.90256 13.3361 7.87811 13.5154 7.8557C13.1507 7.908 12.7887 7.98203 12.4363 8.08662L12.3384 8.11605C11.657 8.32294 10.7374 8.65245 10.5248 9.37776C10.396 9.81855 10.7484 10.203 11.1751 10.2288C11.5719 10.2525 11.9025 10.0169 12.2393 9.843C12.4847 9.71667 12.7342 9.62226 12.9987 9.54144C13.2721 9.4579 13.5509 9.38862 13.8317 9.33225C13.5944 9.46253 13.3632 9.60572 13.1413 9.7659L13.0393 9.84098C12.4496 10.2788 11.5502 10.9566 11.758 11.7773C11.8234 12.0361 12.1132 12.2833 12.3913 12.2568C13.1153 12.1896 13.5147 11.4214 14.0608 11.0098C14.2033 10.9025 14.3594 10.7966 14.523 10.6933C13.6954 11.6768 13.0369 12.8138 12.5358 13.9881C11.4346 16.5716 11.0968 18.9641 11.0887 21.7419L11.0886 21.8279C11.0872 23.3602 11.122 24.9203 11.2719 26.4457C11.411 27.855 11.666 29.246 12.3075 30.5223C13.3825 32.6623 15.4774 34.3291 17.7876 34.9634C20.3583 35.6698 23.2317 35.1176 25.3375 33.4875C25.8746 33.0719 25.1623 32.1693 24.6135 32.553C22.4218 34.0845 19.5873 34.5695 17.0719 33.533C15.0765 32.7112 13.4697 30.9433 12.7887 28.9078C12.3553 27.6128 12.2291 26.2321 12.0744 24.8825L12.0641 24.7926C11.9005 23.3812 11.8057 21.9604 11.8071 20.5395C11.8091 17.9009 12.1895 15.7288 13.3545 13.3354C13.9026 12.2079 14.6136 11.1654 15.463 10.2505C15.7207 10.3028 15.9948 10.2295 16.2552 10.2016C16.3881 10.1873 16.521 10.1738 16.654 10.1615C16.5182 10.249 16.385 10.34 16.2541 10.4331L16.0824 10.5564C15.5451 10.9398 14.8634 11.3764 15.0015 12.1176C15.039 12.318 15.2394 12.502 15.4337 12.5475C16.1379 12.7146 16.6219 12.0327 17.0978 11.6279C17.5115 11.2761 17.9444 10.9609 18.3855 10.6451C18.4857 10.5738 18.5866 10.5025 18.6882 10.4319C18.5927 10.5427 18.4999 10.6553 18.4093 10.7689L18.2755 10.938C17.8704 11.443 17.2864 12.0994 17.6472 12.754C17.7495 12.9387 17.9676 13.0617 18.1789 13.0576C18.9056 13.0427 19.1947 12.2208 19.5355 11.7019C19.8286 11.2571 20.147 10.838 20.4763 10.419C20.5669 10.3042 20.6583 10.1894 20.751 10.0746C22.2773 10.1534 23.7982 10.3544 25.2925 10.6757C26.3191 10.8964 27.3287 11.1824 28.3308 11.4955L28.4141 11.5219C28.9564 11.6958 29.5152 11.9185 29.9062 12.3003C29.962 12.5634 29.9192 12.8408 29.8658 13.1035L29.8242 13.3046C29.6527 14.1455 29.5359 14.9708 29.6233 15.8341C29.714 16.7245 29.9832 17.5253 30.3118 18.3525C30.4672 18.7424 30.6281 18.6718 30.6833 19.0901C30.7256 19.4088 30.6995 19.7378 30.6706 20.0591L30.6464 20.3316C30.5858 21.0452 30.5554 21.8232 31.0249 22.412C31.0978 22.5024 31.2539 22.4664 31.3057 22.376C31.3262 22.34 31.348 22.3054 31.3719 22.2721C31.5982 21.9454 31.9452 21.7593 32.3419 21.6873C32.3924 21.6785 32.3726 21.6113 32.3303 21.6058C31.9949 21.5664 31.6773 21.65 31.4073 21.8225C31.5353 21.3815 32.5264 21.5959 32.8522 21.6817L32.8634 21.6846C33.2697 21.7933 33.6542 21.9699 33.993 22.2198C34.6747 22.7224 35.0687 23.5062 35.049 24.3504C35.0292 25.1804 34.599 25.9472 33.8601 26.3445C33.5035 26.5361 33.0979 26.6284 32.6944 26.6244C32.2731 26.6203 31.8981 26.4362 31.4762 26.462C31.2321 26.477 31.0453 26.7378 31.1864 26.9653C31.2805 27.1174 31.4032 27.237 31.545 27.3287C31.1994 28.1226 30.7583 28.8799 30.2498 29.5788C29.9682 29.9666 29.6492 30.3246 29.2981 30.6513C29.0241 30.9066 28.4303 31.2021 28.4637 31.6279C28.4753 31.7814 28.5551 31.8751 28.6955 31.9322C29.1321 32.11 29.663 31.4977 29.955 31.2025L29.9785 31.179C30.3425 30.8177 30.6745 30.4183 30.9635 29.9945C31.4762 29.2419 31.7945 28.3936 31.9261 27.5025C32.6262 27.7124 33.5533 27.5154 34.1246 27.258C35.9202 26.4498 36.5071 24.0407 35.4157 22.4365C35.2044 22.1261 34.9399 21.8605 34.6386 21.6459C34.7047 21.6099 34.7667 21.5637 34.8219 21.5053C35.1274 21.1821 35.3434 20.7602 35.5577 20.3714L35.5834 20.3249C35.7737 19.9826 35.9532 19.6349 36.1214 19.2819L36.184 19.1492C36.5596 18.3444 36.8889 17.9926 37.1568 17.1463C37.4145 16.3299 37.6176 15.4979 37.7492 14.6516L37.7841 14.4276C37.8602 13.9366 37.9322 13.4115 37.8766 12.9129C38.2591 13.0372 38.6436 13.114 39.0219 12.9272C39.2714 12.8043 39.4091 12.4456 39.3239 12.1882C39.2619 11.9987 39.1582 11.85 39.0267 11.7332C39.1051 11.6938 39.1787 11.6435 39.2435 11.5878L39.3 11.539C39.5291 11.3406 39.5454 10.9637 39.4064 10.7151C39.3927 10.6913 39.3791 10.6669 39.3662 10.6431C39.2339 10.4074 38.9605 10.2532 38.6906 10.2573C38.647 10.258 38.6033 10.258 38.559 10.2573C38.6851 10.2295 38.8085 10.1867 38.9258 10.1147C39.4548 9.7907 39.388 8.91251 38.7479 8.75766C38.4793 8.69314 38.1827 8.71962 37.8869 8.7889C37.8978 8.78279 37.9087 8.77668 37.9196 8.76988C38.1432 8.63337 38.3307 8.36645 38.3095 8.09273C38.2863 7.78982 38.1882 7.57383 37.9196 7.41491C37.6864 7.27771 37.3565 7.2648 37.1247 7.41491C36.9236 7.54599 36.7266 7.69066 36.5371 7.84619C36.7273 7.61323 36.8923 7.35989 36.9591 7.09093C37.0416 6.75609 36.9039 6.39137 36.6012 6.21478C36.3599 6.07419 36.1049 6.08981 35.8772 6.19848C35.8895 6.02257 35.8465 5.84327 35.7293 5.68434C35.4893 5.3584 35.053 5.17087 34.6733 5.40859C34.6236 5.43983 34.5568 5.49349 34.492 5.55937C34.6181 5.15933 34.5043 4.73959 34.0741 4.55892C33.8117 4.44822 33.4565 4.50391 33.2288 4.69476C33.3733 3.91573 32.2192 3.34318 31.7707 4.14802C31.6689 4.33034 31.5681 4.52232 31.4781 4.71872L31.4448 4.79256L31.4414 4.79121L31.4643 4.73721L31.4878 4.68322C31.6125 4.39456 31.7713 4.09436 31.815 3.78125C31.879 3.31805 31.6718 2.87862 31.166 2.8107C30.9049 2.77538 30.6145 2.89356 30.4393 3.1001C30.5341 2.38145 29.7283 1.85916 29.1482 2.39571C28.8734 2.64973 28.7269 3.02124 28.5524 3.34725C28.4535 3.53131 28.3526 3.71469 28.2538 3.89943C28.2285 3.86955 28.2013 3.83966 28.1726 3.81046C28.3192 3.37306 28.4331 2.9248 28.5292 2.47382C28.6205 2.04865 28.4072 1.60718 27.9668 1.48703C27.5666 1.37693 27.0656 1.62287 26.9763 2.04736C26.9135 2.34613 26.8392 2.64165 26.7574 2.93567C26.7015 2.92208 26.6463 2.91257 26.5918 2.90578C26.5872 2.85054 26.5821 2.795 26.5763 2.73976L26.5549 2.54329C26.5072 2.09439 26.4591 1.58194 26.2237 1.20034C25.8221 0.548324 24.7928 0.818641 24.7819 1.58952C24.7757 1.9882 24.9387 2.38349 24.9952 2.7781C25.0198 2.94993 25.0341 3.1238 25.0423 3.29767C24.9325 2.72036 24.7819 2.15053 24.6074 1.58952C24.5869 1.52228 24.5651 1.45504 24.544 1.3878ZM33.4252 23.6502C32.5219 23.511 31.6964 24.0129 31.1612 24.7159C31.0637 24.8442 31.1278 25.0256 31.2158 25.1336C31.2792 25.213 31.3644 25.2225 31.4605 25.2348C31.5709 25.249 31.7107 25.16 31.7591 25.0643C32.1033 24.3797 32.7175 23.947 33.4252 23.6808C33.4381 23.676 33.4422 23.6529 33.4252 23.6502ZM32.173 11.3838L32.1457 11.3545C31.9629 11.1656 32.2517 10.8771 32.4349 11.0664C32.6278 11.2657 32.7559 11.5078 32.8792 11.7531C32.9966 11.987 32.6439 12.1936 32.526 11.9588L32.4723 11.8521C32.388 11.6861 32.2981 11.5222 32.173 11.3838ZM34.7097 10.9961C34.4506 10.9527 34.5604 10.5599 34.8184 10.6032C35.1526 10.6593 35.4854 10.7231 35.8197 10.7793C36.0787 10.8227 35.9688 11.2155 35.7109 11.1722C35.3767 11.1161 35.0438 11.0523 34.7097 10.9961ZM19.2782 8.31462C19.5284 8.23142 19.6358 8.62488 19.3869 8.7076C19.043 8.82191 18.7019 8.93907 18.3756 9.09779C18.1399 9.21244 17.9324 8.8611 18.1692 8.74591C18.5273 8.5717 18.9006 8.44014 19.2782 8.31462ZM34.7686 7.78649C35.013 7.68909 35.1191 8.08309 34.8773 8.17947L33.9938 8.53149C33.7494 8.62888 33.6433 8.23496 33.8851 8.13858L34.7686 7.78649ZM16.1932 6.82968L16.2255 6.80941C16.447 6.66637 16.6523 7.01901 16.4319 7.1613C16.3026 7.24478 16.1453 7.30141 16.0269 7.40086L16.0021 7.42285C15.8108 7.60284 15.5211 7.31527 15.7129 7.13467C15.8532 7.00268 16.0309 6.92918 16.1932 6.82968Z" fill="black"/>
<path fill-rule="evenodd" clip-rule="evenodd" d="M17.3579 29.684C17.8612 29.8289 18.4013 29.8419 18.9143 29.6922C19.3796 29.5565 19.8573 29.2577 20.1997 28.8624C20.5039 28.5113 20.701 28.0845 20.6932 27.629C20.6923 27.5769 20.6736 27.5335 20.6448 27.4998C20.6139 27.4635 20.5706 27.4386 20.5242 27.4278C20.4765 27.4167 20.4261 27.4206 20.3832 27.44C20.3443 27.4575 20.3111 27.4873 20.2902 27.5309C20.2376 27.5996 20.1852 27.6673 20.1326 27.7332C19.7094 28.2526 19.2997 28.6408 18.6634 28.7801C18.3182 28.8556 17.9734 28.8221 17.657 28.7068C17.3184 28.5834 17.0123 28.3665 16.7724 28.0888C16.664 27.9633 16.536 27.9121 16.4108 27.9112C16.269 27.9103 16.1288 27.9758 16.0232 28.0805C15.9194 28.1834 15.8499 28.3233 15.8436 28.4696C15.8381 28.5981 15.8802 28.7322 15.9923 28.8519C16.3616 29.2461 16.8401 29.5349 17.3579 29.684ZM17.3735 23.178C16.8576 23.4897 16.0716 24.2167 16.6265 24.9895C17.2798 25.671 18.2203 24.8897 18.6837 24.5363C19.1135 24.2624 19.5963 24.9668 19.1976 25.2866C15.8486 27.7517 14.4895 23.2595 17.1125 22.8114C17.4013 22.7621 17.5086 23.0815 17.3735 23.178ZM22.1991 21.8062C22.3649 21.7008 22.56 21.6646 22.7761 21.7624C22.945 21.8388 23.2413 22.0934 23.4475 22.428C23.5885 22.657 23.6886 22.9256 23.6677 23.2054C23.6629 23.2704 23.687 23.3183 23.7251 23.3537C23.7552 23.3817 23.7987 23.4023 23.8497 23.4087C23.8931 23.4141 23.9416 23.4092 23.981 23.397C24.056 23.3737 24.0957 23.3253 24.1107 23.2858C24.255 22.9047 24.1929 22.4793 24.0311 22.0955C23.8127 21.5777 23.4162 21.1439 23.1564 21.004C22.7118 20.7646 22.1874 20.7536 21.7422 20.9975C21.3632 21.2051 21.1262 21.5402 20.8905 21.8818C20.8404 21.9545 20.7907 22.0266 20.7393 22.0974C20.6363 22.2393 20.6261 22.38 20.666 22.5007C20.7102 22.6344 20.8228 22.7473 20.9637 22.8063C21.0939 22.8609 21.2451 22.8686 21.3788 22.8125C21.4918 22.7651 21.5954 22.6728 21.661 22.5161C21.7715 22.2522 21.9556 21.961 22.1991 21.8062ZM13.7783 22.3933C13.8919 22.4522 13.9807 22.4699 14.1067 22.4324C14.1763 22.4116 14.2452 22.3717 14.2991 22.3181C14.3525 22.265 14.391 22.199 14.406 22.1257C14.4429 21.9449 14.5424 21.7756 14.6842 21.6653C14.8054 21.571 14.9584 21.521 15.1281 21.5492C15.3112 21.5796 15.4856 21.6963 15.6058 21.834C15.6459 21.88 15.6774 21.9324 15.7091 21.9843C15.7683 22.0815 15.8258 22.1718 15.9075 22.2432C15.9384 22.2703 15.9851 22.2891 16.0302 22.2891C16.0486 22.2891 16.0672 22.2862 16.085 22.2806C16.2672 22.0988 16.3023 21.9608 16.2964 21.824C16.2902 21.6805 16.2333 21.5352 16.1414 21.3996C15.9257 21.0816 15.5161 20.8209 15.2397 20.7619C14.8612 20.681 14.4853 20.7781 14.184 20.9882C13.8739 21.2045 13.6441 21.5403 13.5725 21.9186C13.5552 22.0098 13.5626 22.1081 13.5975 22.1934C13.6316 22.2768 13.691 22.3481 13.7783 22.3933ZM21.3644 18.4159C21.5915 18.6359 21.8604 18.67 22.1323 18.7003C22.2834 18.7173 22.4041 18.731 22.5228 18.7576C22.8491 18.8309 23.1716 18.9412 23.4659 19.1C23.7735 19.266 24.1087 19.4663 24.3498 19.7228C24.4072 19.7839 24.4612 19.8479 24.5154 19.9121C24.5647 19.9707 24.6123 20.027 24.6624 20.0814C24.7199 20.1438 24.7746 20.2092 24.8289 20.2744C24.8626 20.3295 24.8692 20.343 24.876 20.3571C24.8862 20.3783 24.898 20.402 24.9115 20.4274C24.9301 20.4623 24.9518 20.5004 24.9745 20.5349C25.0123 20.5981 25.0326 20.6155 25.0502 20.6233C25.0793 20.6362 25.1069 20.6425 25.1337 20.6391C25.1588 20.6359 25.1824 20.6239 25.2058 20.6043C25.3224 20.5063 25.3568 20.3455 25.3533 20.1749C25.3479 19.9159 25.2519 19.6292 25.1633 19.453C24.9574 19.0434 24.6718 18.6177 24.3284 18.3121C23.9365 17.9632 23.5078 17.699 23.0154 17.517C22.7094 17.4039 22.3551 17.3 22.0217 17.3131C21.7818 17.3226 21.5527 17.3935 21.3635 17.5706C21.2473 17.6793 21.1916 17.834 21.1916 17.9885C21.1916 18.1461 21.2495 18.3046 21.3644 18.4159ZM13.3164 20.4307C13.3308 20.4542 13.3508 20.4705 13.3731 20.4802C13.3964 20.4904 13.4224 20.4934 13.4474 20.4892C13.4723 20.485 13.4959 20.4738 13.5147 20.4567C13.5326 20.4402 13.5463 20.4185 13.5525 20.3918C13.7033 19.7333 13.9961 19.2433 14.6211 18.9274C14.9285 18.772 15.2821 18.6732 15.6167 18.5945C15.714 18.5716 15.8168 18.5568 15.9202 18.5418C16.2446 18.4947 16.5713 18.4408 16.7827 18.1801C16.9101 18.0231 16.9636 17.8223 16.9334 17.6386C16.9049 17.4657 16.8033 17.3072 16.6185 17.2122C16.1586 16.9758 15.5871 17.2078 15.1226 17.4054C15.0882 17.42 15.0543 17.4344 15.0213 17.4483C14.5671 17.6389 14.1528 17.8905 13.8123 18.2503C13.5421 18.5358 13.2918 18.9578 13.1909 19.3919C13.1071 19.7531 13.1268 20.1218 13.3164 20.4307Z" fill="black"/>
</g>
<defs>
<clipPath id="clip0">
<rect width="54" height="79.6963" fill="white" transform="matrix(-1 0 0 1 54 0.726074)"/>
</clipPath>
</defs>
</svg>
