<svg width="52" height="75" viewBox="0 0 52 75" fill="none" xmlns="http://www.w3.org/2000/svg">
<path fill-rule="evenodd" clip-rule="evenodd" d="M6.90863 39.9147C7.48896 37.6445 8.02267 36.682 9.05358 35.8929C10.0179 35.1548 11.4255 34.535 13.4794 34.0822C15.6186 33.7049 15.6792 32.5835 16.2156 30.7812C16.3721 30.2393 17.1475 30.0952 17.4822 30.4857C17.5294 30.4343 17.5786 30.3873 17.6295 30.3448C17.5839 30.0864 17.957 29.3457 17.9445 29.0986C17.8144 26.5185 18.6511 25.2229 20.7395 24.7413C21.1936 24.6365 24.2785 24.5748 24.7213 24.6983C26.6572 25.2381 28.563 26.9521 28.2714 29.0169C28.879 29.8179 29.4738 30.3067 30.4113 30.5648C31.8713 30.7518 31.1379 51.6137 28.6022 64.1122C27.5143 69.4747 1.50025 60.3474 2.67574 57.6617C2.50911 57.1693 2.81283 56.6283 2.67574 56.1199C2.57654 55.752 2.32247 55.5998 2.19458 55.2355C2.01462 54.7229 2.21033 54.0351 2.41294 53.512C2.49597 53.2512 2.26012 52.9706 2.19458 52.7045C1.8837 51.4497 2.59556 51.5603 3.10875 50.7214C3.10111 50.7188 2.96766 50.1199 2.96826 50.1229C2.88968 49.6953 3.08653 49.1476 3.25824 48.7907C3.37429 48.5494 3.62289 48.3985 3.86991 48.4261C3.62115 47.5744 3.30655 46.8657 2.96826 46.0451C2.36996 44.5986 1.80099 43.0854 0.941872 41.7762C0.590046 41.24 0.874199 40.7469 1.44355 40.7104C3.28638 40.5923 5.10903 40.3247 6.90863 39.9147Z" fill="white"/>
<path fill-rule="evenodd" clip-rule="evenodd" d="M9.78562 40.0898L13.9922 47.2705C13.3269 47.3375 12.8596 47.4362 12.5904 47.5667C12.3212 47.6971 11.5684 48.5549 10.3322 50.1401L10.0376 51.4494L10.7358 52.505L10.4635 53.1678C10.334 52.8684 10.108 52.6026 9.78562 52.3702C9.4632 52.1378 8.94647 51.8309 8.23543 51.4494C8.47172 51.3219 8.58987 51.1833 8.58987 51.0336C8.58987 50.8091 8.90207 49.8511 8.23543 49.4893C7.791 49.248 6.42052 48.8451 4.12399 48.2805L0.632774 40.8525L9.78562 40.0898Z" fill="white"/>
<path fill-rule="evenodd" clip-rule="evenodd" d="M28.5507 30.6138L15.1936 32.9784L9.05356 35.8931L8.05124 36.672L13.992 47.271L23.1649 48.9591L25.5019 55.082L25.0249 61.9837L10.1023 60.1891L3.66541 59.4176L2.15225 65.5792L2.42562 68.114L2.8232 69.3994L18.7807 73.745C24.1979 73.2153 27.3867 72.9505 28.3469 72.9505C29.3072 72.9505 33.3077 73.3031 40.3484 74.0084L42.7919 73.745C46.3961 69.9134 48.4777 67.3158 49.0367 65.9521C49.5958 64.5884 50.4797 59.7618 51.6885 51.4723L51.4888 49.5618L46.8179 37.4372C46.4021 37.0563 45.932 36.5416 45.4078 35.8931C44.8835 35.2446 39.2645 33.4848 28.5507 30.6138Z" fill="white"/>
<path fill-rule="evenodd" clip-rule="evenodd" d="M4.37598 48.1277C5.5831 48.1896 6.79155 48.4791 7.88348 49.0036C8.33025 49.2185 8.73506 49.5288 8.85358 50.0393C8.9135 50.3 8.89885 50.5693 8.86696 50.8326C8.84292 51.032 8.83693 51.2866 8.66515 51.4216C8.63586 51.4444 8.60456 51.4619 8.57194 51.4746C8.97475 51.658 9.35833 51.8784 9.69922 52.1053C10.0108 52.3129 10.331 52.6326 10.4748 52.9933C10.4868 52.9523 10.4988 52.9141 10.5108 52.8777C10.7558 52.147 11.1333 51.5486 11.7279 51.1462C11.7954 50.898 12.52 49.8298 13.1931 49.8701C13.9301 49.9137 14.523 49.9681 15.1895 50.31C15.4325 50.3046 15.6749 50.308 15.9145 50.3187C15.9558 50.32 15.9538 50.3765 15.9145 50.3812C15.7201 50.4061 15.5257 50.4336 15.3313 50.4658C14.8692 50.5404 14.4085 50.6351 13.9578 50.7526C13.4171 50.8937 12.8578 51.0354 12.3524 51.2819C11.3724 51.7608 10.7658 53.0128 10.8903 54.1022C10.9109 54.2808 10.9795 54.8209 11.2253 54.7651C11.4329 54.7181 11.5155 54.2808 11.5881 54.119C11.7825 53.6891 12.1327 53.4084 12.5528 53.2183C13.0462 52.9946 13.5742 52.8435 14.0856 52.6676C14.3752 52.5675 14.6648 52.4674 14.9551 52.3679C15.252 52.2652 15.5343 52.1235 15.8506 52.1953C16.0417 52.239 16.0637 52.4687 15.9565 52.6004C15.7933 52.8012 15.551 52.8603 15.316 52.9429C15.0057 53.0517 14.6961 53.1606 14.3865 53.2693C13.9078 53.4372 13.4064 53.579 12.9397 53.7845L12.9543 53.8181C12.9923 53.8073 13.0369 53.8456 13.0296 53.8926C12.9596 54.3272 12.8624 54.8296 12.9704 55.2649C13.0555 55.6101 13.3559 55.9923 13.746 55.8908C13.6847 55.8344 13.6621 55.737 13.7034 55.647C13.8579 55.3139 15.8819 53.9987 16.0623 54.4871C16.0683 54.5045 16.0498 54.5173 16.035 54.5147C15.8812 54.4823 15.6236 54.747 15.5005 54.8309C15.3227 54.9519 15.1422 55.0701 14.9664 55.1943C14.774 55.3301 14.5862 55.4724 14.4031 55.6195C14.2593 55.7351 14.1508 55.8552 13.9857 55.9137C14.0722 55.9553 14.1409 56.0325 14.1701 56.1313C14.2447 56.3885 14.3885 56.6068 14.6382 56.7204C14.8998 56.8385 15.1948 56.764 15.4704 56.7929C15.8459 56.8312 16.1735 57.0112 16.4472 57.2685C17.0218 57.8098 17.3101 58.7636 18.1137 59.0194C18.5938 59.172 19.1264 59.0759 19.6124 59.0067C20.1551 58.9294 20.6837 58.8683 21.2304 58.9489C21.7537 59.0262 22.2484 59.2088 22.7265 59.4318C23.1745 59.6407 23.6699 59.8772 24.0674 60.1888C24.1493 59.9342 24.2319 59.6824 24.2945 59.4224C24.4423 58.8079 24.5222 58.1819 24.5415 57.5505C24.5594 56.9494 24.5261 56.3456 24.4749 55.7471C24.4496 55.4482 24.4096 55.1507 24.3843 54.8518C24.3777 54.7765 24.3644 54.6959 24.3544 54.6154C23.6446 54.1929 22.899 53.8692 22.1473 53.536C22.1452 53.5354 22.1432 53.534 22.1412 53.5334C22.1179 53.5225 22.0953 53.5125 22.072 53.5025C22.0726 53.501 22.0733 53.4998 22.0746 53.4984C21.9887 53.4454 21.9288 53.3748 21.8929 53.2955C20.8096 52.5708 19.9041 51.5815 19.2289 50.4275C18.946 49.9439 18.6737 49.4422 18.3035 49.0184C17.9093 48.5663 17.4412 48.2977 16.862 48.158C16.1848 47.9941 15.4871 47.896 14.7933 47.8403C14.4144 47.8101 13.9911 47.763 13.5782 47.7651C13.2906 47.767 13.009 47.7919 12.7506 47.8638C12.3677 47.9699 12.144 48.2635 11.9037 48.5603C11.674 48.8451 11.4456 49.1306 11.2312 49.4275C11.0282 49.7088 10.8364 49.9997 10.6699 50.3046C10.57 50.4873 10.4775 50.6754 10.3996 50.8695C10.3723 50.938 10.3363 51.0159 10.3197 51.0871C10.3031 51.159 10.3337 51.2349 10.2538 51.2349C10.5834 51.2396 10.8024 52.0686 10.4748 52.0491C10.0142 52.0221 9.78268 51.4651 9.87293 50.9709C10.034 50.0892 10.9035 49.0243 11.0755 48.7987C11.4556 48.3004 11.8477 47.6502 12.4563 47.4185C12.4649 47.4151 12.4743 47.4118 12.4829 47.409C12.3058 47.2398 12.166 47.037 12.0322 46.8307C11.8943 46.6185 11.73 46.3754 11.6846 46.1235C11.656 45.963 11.8537 45.8716 11.9476 46.012C12.0841 46.2168 12.15 46.4761 12.2519 46.7012C12.3558 46.9295 12.4823 47.1451 12.5821 47.3755C12.8225 47.3009 13.0822 47.2667 13.3465 47.2553C13.0129 46.7999 12.443 45.9213 12.3744 45.8085C12.0588 45.2859 11.7585 44.7473 11.4715 44.2079C11.1614 43.6236 10.8956 43.015 10.5987 42.424C10.4302 42.0889 10.2604 41.751 10.0733 41.4259C10.0088 41.3144 9.93951 41.2029 9.86095 41.1015C9.84563 41.0814 9.82633 41.0646 9.80835 41.0457C9.78771 41.0343 9.7664 41.0215 9.75442 41.0149C9.64663 40.9524 9.60861 40.8073 9.53277 40.7152C9.41153 40.5669 9.26904 40.5494 9.08661 40.5473C8.69784 40.5433 8.30761 40.5587 7.91944 40.5695C7.34883 40.5856 6.7789 40.6085 6.20897 40.6387C6.03652 40.6481 5.86474 40.6575 5.6923 40.6682C4.86336 40.718 4.03509 40.7831 3.20881 40.8631C2.47775 40.9335 1.74669 41.0485 1.01496 41.1035C2.00569 43.4779 3.10428 45.8092 4.34809 48.0593C4.36067 48.0821 4.37006 48.1049 4.37598 48.1277ZM9.87293 54.2446C10.0327 54.3185 10.1879 54.4105 10.3323 54.5153C10.3084 54.3521 10.3024 54.1801 10.309 54.0075C10.1899 54.1364 10.0374 54.2103 9.87293 54.2446ZM3.05168 50.1603C3.063 50.1615 3.07365 50.1676 3.07898 50.179C3.30003 50.6391 3.20755 51.1529 2.84661 51.5136C2.65752 51.7017 2.24538 51.9139 2.25877 52.2229C2.27008 52.4727 2.53967 52.6823 2.65485 52.8885C2.76205 53.0806 2.802 53.2915 2.71611 53.4998C2.60625 53.7664 2.29931 53.8725 2.19411 54.1345C2.06095 54.4669 2.27734 54.8679 2.42915 55.1574C2.5703 55.4254 2.7528 55.6934 2.87391 55.9768C3.68553 56.4007 5.52718 57.1703 5.74895 57.2134C6.01921 57.2664 6.2902 57.3168 6.56191 57.3639C7.08324 57.4551 7.60584 57.5398 8.12984 57.6143C8.42812 57.6566 8.72707 57.6983 9.02602 57.7312C9.28702 57.7594 9.58131 57.7977 9.79171 57.5996C10.2158 57.1992 9.97813 56.5282 9.70981 56.1239C9.70449 56.1159 9.70448 56.1084 9.70648 56.1017C9.45347 56.042 9.20113 55.9721 8.94945 55.9231C8.4654 55.829 7.97803 55.7498 7.48999 55.6793C6.48727 55.5348 5.4779 55.4395 4.46993 55.3435C4.22025 55.3192 4.21758 54.923 4.46993 54.9465C5.91807 55.0802 7.37347 55.2071 8.80231 55.4886C9.16051 55.5583 9.51612 55.6376 9.86961 55.7269C10.0367 55.7686 10.2158 55.8338 10.3909 55.8358C10.4016 55.8358 10.4123 55.8358 10.4229 55.8351C10.7658 55.8244 10.8157 55.5282 10.6273 55.2817C10.604 55.2514 10.58 55.2212 10.5554 55.1924C10.2225 54.792 9.80775 54.5247 9.3803 54.2479C8.90152 54.1821 8.42413 54.0357 7.95539 53.9282C6.79821 53.6622 5.64103 53.3963 4.48318 53.131C4.2562 53.0786 4.35268 52.7266 4.57972 52.7783C5.4586 52.9792 6.33746 53.18 7.2164 53.3808L8.50269 53.6751C8.75969 53.7334 9.08068 53.851 9.38296 53.8934C9.53204 53.9141 9.67652 53.9168 9.80702 53.886C10.2285 53.7852 10.2498 53.2539 10.068 52.9382C9.86428 52.5836 9.47944 52.3619 9.13788 52.1611C8.54597 51.8125 7.91611 51.5619 7.3009 51.2731C7.19171 51.249 7.08251 51.2248 6.97332 51.2006C6.33813 51.0595 5.61239 50.9904 5.0145 50.7318C4.83539 50.6552 4.93333 50.3704 5.11037 50.3744C5.57444 50.3846 6.05983 50.5511 6.51324 50.6498C7.00395 50.7573 7.49532 50.8641 7.98602 50.9709C8.03529 50.9816 8.32692 51.0757 8.37086 51.0548C8.39883 51.0414 8.40881 50.9434 8.41813 50.8789C8.44816 50.6666 8.47007 50.4437 8.43744 50.2307C8.36554 49.7532 7.97071 49.5288 7.57122 49.3455C6.68169 48.9378 5.70628 48.6826 4.73552 48.5804C4.51181 48.5569 4.28809 48.5422 4.06305 48.5348C3.79879 48.5267 3.581 48.4797 3.44717 48.7423C3.23677 49.156 3.12092 49.6881 3.05168 50.1603ZM4.28703 65.1615C4.48085 64.4852 4.42812 63.7632 4.56088 63.0735C4.62939 62.7176 4.72294 62.3646 4.82507 62.0172C4.9075 61.7366 5.04499 61.4381 5.06057 61.1453C5.0615 61.1257 5.03867 61.1144 5.02295 61.1234C4.7495 61.2814 4.53951 61.6229 4.38357 61.8909C4.19688 62.2117 4.05433 62.5475 3.93934 62.9006C3.71017 63.604 3.52201 64.4525 3.81757 65.1615C3.90552 65.3725 4.21445 65.4147 4.28703 65.1615ZM11.8512 70.2806C12.14 70.0773 12.3505 69.7931 12.5954 69.5422C12.8363 69.2955 12.4598 68.9155 12.2188 69.1623C12.0098 69.3762 11.8284 69.6435 11.5824 69.8166C11.464 69.8999 11.4092 70.0504 11.4868 70.1842C11.5554 70.3024 11.7332 70.3637 11.8512 70.2806ZM13.4619 62.466C12.9347 62.236 12.4161 61.9856 11.8643 61.8199C11.5345 61.7209 11.3949 62.2396 11.7227 62.338C12.2309 62.4907 12.7076 62.7182 13.1931 62.9299C13.5048 63.0659 13.7757 62.6028 13.4619 62.466ZM19.0301 62.3051C19.1591 61.9842 18.6436 61.8459 18.5165 62.1623C18.3702 62.5265 18.2026 62.8813 18.0563 63.2455C17.9275 63.5664 18.4429 63.7048 18.5699 63.3883C18.7162 63.0242 18.8839 62.6693 19.0301 62.3051ZM24.5261 68.714C24.612 68.8296 24.7552 68.8922 24.8905 68.8105C25.0038 68.742 25.073 68.5598 24.986 68.4429C24.7322 68.1015 24.4749 67.7643 24.1774 67.46C23.9362 67.2133 23.5597 67.5935 23.8007 67.8399C24.0665 68.1117 24.2993 68.4092 24.5261 68.714ZM25.3119 32.7537C25.0675 32.9222 24.8533 33.1269 24.6444 33.3374C24.4016 33.5822 24.7783 33.9621 25.0211 33.7173C25.1971 33.5399 25.3746 33.3597 25.5808 33.2177C25.6999 33.1357 25.7534 32.983 25.6763 32.8501C25.6073 32.7311 25.4308 32.6719 25.3119 32.7537ZM17.3161 41.4005C17.4543 41.6798 17.5788 41.9535 17.5866 42.2708C17.595 42.6165 18.1277 42.6167 18.1192 42.2708C18.109 41.8555 17.9572 41.4954 17.7761 41.1293C17.6228 40.8195 17.1635 41.092 17.3161 41.4005ZM14.3824 34.456C14.0961 34.2634 13.8297 34.7291 14.1135 34.92C14.3436 35.0747 14.5738 35.2295 14.8039 35.3842C15.0901 35.5767 15.3565 35.1112 15.0727 34.9203C14.8426 34.7655 14.6125 34.6108 14.3824 34.456ZM27.1071 46.5979C27.156 46.9394 27.6692 46.7933 27.6208 46.4551C27.5459 45.9324 27.4545 45.4166 27.3139 44.9075C27.2219 44.5744 26.7082 44.7168 26.8003 45.0504C26.9409 45.5595 27.0323 46.0753 27.1071 46.5979ZM28.9746 52.753C29.3175 52.7457 29.3175 52.2084 28.9746 52.2157C28.6644 52.2223 28.3594 52.3047 28.0601 52.38C27.7272 52.4639 27.8691 52.982 28.2017 52.8982C28.4547 52.8344 28.7123 52.7587 28.9746 52.753ZM29.664 65.1519C29.7818 65.2098 29.9027 65.2618 30.0217 65.3168C30.2601 65.4267 30.4984 65.5368 30.7367 65.6471C31.2329 65.877 31.729 66.1076 32.2245 66.339C33.2166 66.8022 34.2163 67.2491 35.2108 67.7073C36.2249 68.1747 37.2363 68.6482 38.2465 69.1241C38.7224 69.3483 39.2019 69.5642 39.6805 69.7825C40.0897 69.9692 40.5955 70.2953 41.0448 70.326C41.0679 70.3276 41.0756 70.2982 41.0624 70.283C40.8927 70.0883 40.622 69.9751 40.3989 69.8485C40.1711 69.7192 39.939 69.5975 39.708 69.4742C39.2263 69.2167 38.7441 68.9613 38.2577 68.713C37.285 68.2164 36.3104 67.7234 35.3356 67.231C34.3414 66.7288 33.3484 66.2232 32.3455 65.7389C31.8733 65.5108 31.4007 65.2834 30.9277 65.0568C30.6715 64.934 30.4152 64.8114 30.1589 64.689C30.0481 64.6362 29.9385 64.5791 29.8254 64.5318C29.6749 64.469 29.5606 64.4819 29.4055 64.4432C29.1525 64.3802 29.043 64.7047 29.2372 64.8461C29.3971 64.9625 29.4813 65.062 29.664 65.1519ZM33.2199 70.6617C33.2746 70.5277 33.1601 70.3647 33.0339 70.3311C32.8827 70.291 32.7615 70.3837 32.7063 70.5188C32.5602 70.8771 32.3522 71.2059 32.0845 71.4836C31.8452 71.7317 32.2217 72.1118 32.4612 71.8635C32.7967 71.5155 33.0377 71.1087 33.2199 70.6617ZM35.836 62.0368C36.0788 61.7919 35.7021 61.412 35.4593 61.6569L34.769 62.3532C34.5262 62.5981 34.903 62.978 35.1457 62.7331L35.836 62.0368ZM42.9182 60.9014C43.4145 61.0483 43.9934 61.1833 44.3318 61.6104C44.3483 61.6313 44.376 61.6045 44.3661 61.5836C43.9329 60.6777 42.6907 60.3599 41.8306 60.0426C41.2222 59.818 40.598 59.6319 39.9686 59.4656C40.0315 58.7412 39.858 57.9648 39.7976 57.244C39.7333 56.4744 39.6809 55.7028 39.654 54.9307C39.6265 54.1432 39.6198 53.3504 39.6455 52.5627C39.6711 51.7778 39.7721 51.0026 39.8163 50.2204C39.8205 50.1447 39.7161 50.1411 39.6936 50.2036C39.4322 50.9295 39.3206 51.7336 39.2355 52.4989C39.1479 53.2874 39.1188 54.0736 39.13 54.8666C39.1415 55.682 39.1886 56.4955 39.2531 57.3082C39.2836 57.6935 39.3191 58.0782 39.3526 58.4632C39.3782 58.757 39.39 59.0485 39.4494 59.3329C39.0698 59.2389 38.6893 59.15 38.3099 59.0636C37.1004 58.7882 35.8859 58.5327 34.6814 58.235C34.0902 58.0889 33.5074 57.9139 32.9188 57.7585C32.3646 57.6121 31.7796 57.4346 31.2106 57.3694C31.0075 57.346 30.9817 57.6262 31.1161 57.7213C31.5786 58.0489 32.1928 58.277 32.727 58.4603C33.2631 58.6443 33.8204 58.7767 34.3699 58.913C35.5158 59.1973 36.6726 59.4298 37.8276 59.6719C38.9811 59.9138 40.1367 60.1538 41.2772 60.4522C41.8264 60.596 42.3738 60.7402 42.9182 60.9014ZM45.6379 46.5263C45.9344 46.7019 46.2022 46.2373 45.9067 46.0623C45.52 45.8334 45.108 45.6614 44.6926 45.4936C44.3738 45.3649 44.2366 45.8848 44.5509 46.0118C44.9243 46.1625 45.2905 46.3206 45.6379 46.5263ZM46.7117 66.4891C47.0091 66.6631 47.277 66.1986 46.9805 66.0252C46.5641 65.7817 46.1081 65.6193 45.6766 65.4062C45.3696 65.2546 45.0999 65.7182 45.4078 65.8702C45.8392 66.0833 46.2953 66.2457 46.7117 66.4891ZM47.1947 55.1573C46.9072 55.4328 46.5235 55.5625 46.1617 55.7073C45.8462 55.8333 45.9846 56.3528 46.3033 56.2254C46.7541 56.045 47.2132 55.8804 47.5713 55.5372C47.8205 55.2985 47.4432 54.9192 47.1947 55.1573ZM44.014 39.7678C43.698 39.8929 43.8364 40.4123 44.1556 40.286C44.5097 40.1459 44.8754 40.0392 45.2295 39.8991C45.5455 39.774 45.4071 39.2546 45.0879 39.3809C44.7338 39.521 44.3681 39.6277 44.014 39.7678ZM38.403 33.6551C38.0672 33.598 37.9242 34.1159 38.2614 34.1733C38.6798 34.2446 39.0918 34.3279 39.4886 34.4828C39.8091 34.6079 39.9466 34.0881 39.6303 33.9647C39.2334 33.8098 38.8214 33.7264 38.403 33.6551ZM36.5491 48.5381C36.857 48.3853 36.5868 47.9221 36.2803 48.0741C35.9572 48.2343 35.6225 48.3582 35.27 48.4339C34.9344 48.506 35.0774 49.0239 35.4117 48.9521C35.8084 48.8668 36.1858 48.7183 36.5491 48.5381ZM34.798 40.1547C34.4665 40.0631 34.3263 40.5815 34.6564 40.6729C35.2374 40.8334 35.8354 40.9169 36.4206 41.0597C36.7541 41.1411 36.8952 40.6229 36.5623 40.5416C35.9771 40.3987 35.3789 40.3153 34.798 40.1547ZM27.3698 37.5239C27.0327 37.5868 27.1764 38.1046 27.5114 38.0421C27.8681 37.9755 28.2295 37.9745 28.5911 37.9743C28.9344 37.9741 28.9338 37.4368 28.5911 37.4369C28.1803 37.4371 27.7748 37.4483 27.3698 37.5239ZM3.14356 40.3311C4.01378 40.2472 4.88533 40.18 5.75821 40.1296C5.79889 40.1275 5.83877 40.1249 5.87946 40.1228C5.88405 40.1135 5.89004 40.1047 5.8961 40.0953C6.181 39.6735 6.39073 39.2518 6.5725 38.7748C6.74627 38.3208 6.91473 37.8527 7.18238 37.443C7.48766 36.9762 7.8998 36.6109 8.35149 36.2944C8.62547 36.4802 8.87974 36.6978 9.11238 36.9285C9.3572 37.1711 9.73391 36.7913 9.48903 36.5485C9.28229 36.3435 9.06164 36.1542 8.82841 35.9831C9.09773 35.818 9.37251 35.6629 9.64056 35.5085C10.6453 34.9303 11.674 34.3956 12.7239 33.9067C13.212 33.6789 13.706 33.4767 14.2034 33.2719C14.4711 33.1618 14.7354 33.02 15.003 32.8924C14.9837 32.7016 15.0403 32.488 15.1855 32.3624C15.2927 32.2704 15.3759 32.2362 15.5037 32.1711C15.5323 32.1609 15.5497 32.1549 15.5576 32.1515C15.5517 32.1529 15.5343 32.1582 15.5058 32.1677C15.4378 32.1993 15.4325 32.1898 15.4897 32.1401C15.4931 32.0314 15.7055 31.8017 15.7541 31.6895C15.9232 31.3046 15.9758 30.8975 16.2255 30.5469C16.5697 30.064 17.1476 29.8814 17.6863 30.0452C17.7422 29.4642 17.7568 28.8578 17.9739 28.3392C17.9799 28.3251 17.9992 28.319 18.0078 28.3345C18.2342 28.7234 18.2535 29.1566 18.2708 29.6053C18.2875 30.0264 18.2716 30.4569 18.2169 30.8754C18.2515 30.9022 18.2868 30.9278 18.3234 30.9526C18.4952 31.0668 18.6803 31.1548 18.8747 31.22C19.2449 31.3435 19.6331 31.3973 20.0213 31.4161C21.0233 31.4644 22.056 31.3623 23.0414 31.189C24.0381 31.0137 25.5661 30.7504 26.453 30.2474C27.0383 29.9156 27.5782 29.5105 28.1256 29.1183C27.9271 28.4735 27.8765 27.7803 28.0763 27.2356C28.1002 27.1705 28.2014 27.1584 28.2207 27.2356C28.3459 27.7555 28.3825 28.278 28.549 28.7919C28.5517 28.7993 28.5543 28.8074 28.557 28.8147C28.6089 28.7792 28.6608 28.7442 28.7128 28.7093C28.8326 28.6293 28.9958 28.6892 29.0677 28.8033C30.2176 30.6309 32.0385 30.7357 33.9507 31.0622C36.0435 31.4194 38.1467 31.805 40.1588 32.5042C42.083 33.1732 43.9219 34.1471 45.3787 35.6019C45.7085 35.9313 46.0169 36.2823 46.308 36.6487C46.0264 36.6845 45.7471 36.7402 45.4714 36.8276C45.1449 36.931 45.2852 37.4496 45.613 37.3457C45.9673 37.2334 46.3256 37.1779 46.6875 37.1502C47.6774 38.5162 48.4492 40.0651 49.1166 41.5898C50.3968 44.5129 51.23 47.6259 51.6135 50.7953C51.403 50.668 51.1886 50.5468 50.969 50.434C50.6638 50.2775 50.3946 50.7412 50.7001 50.898C51.0394 51.0721 51.369 51.264 51.6883 51.4721C51.8278 52.8594 51.8819 54.2557 51.8491 55.6497C51.7712 58.9731 51.3265 62.3939 50.3204 65.5648C49.827 67.121 49.1732 68.6646 48.1991 69.9797C47.7584 70.5754 47.2577 71.1127 46.6678 71.5607C46.3821 71.7784 46.0798 71.9725 45.7609 72.1364C45.3501 72.3486 44.8148 72.4185 44.4606 72.7187C44.3441 72.8175 44.2542 72.9477 44.1863 73.0948C44.2256 73.3742 44.2302 73.6543 44.1543 73.9337C44.1303 74.0211 44.0651 74.0922 43.9845 74.1265C43.9832 74.1507 43.9832 74.1742 43.9832 74.197C43.9832 74.2078 43.9672 74.2105 43.9652 74.1998C43.9619 74.1789 43.9586 74.1581 43.9552 74.1366C43.9293 74.1453 43.902 74.1494 43.874 74.1494C42.8626 74.1532 41.85 74.1284 40.8373 74.0937C40.9156 73.8517 41.0004 73.6118 41.0819 73.3698C41.1924 73.0411 40.6778 72.9013 40.5682 73.227C40.473 73.5099 40.3734 73.7903 40.2847 74.0742C39.1997 74.0335 38.1149 73.9846 37.0321 73.9486C34.7291 73.8713 32.4267 73.8457 30.123 73.7968C26.5456 73.7203 22.942 73.5636 19.359 73.7169C19.2351 73.4515 19.0964 73.1924 18.9649 72.9307C18.8098 72.6218 18.3504 72.8941 18.505 73.2019C18.5964 73.3837 18.6911 73.5632 18.781 73.7447C18.0554 73.7827 17.3304 73.833 16.607 73.9016C15.3726 74.0184 14.1501 74.2259 12.917 74.3549C11.6634 74.4865 10.4369 74.4631 9.19314 74.2542C8.96943 74.2166 8.83759 74.0802 8.783 73.9109C8.78107 73.9102 8.77967 73.909 8.7784 73.9069C8.71449 73.8316 8.6545 73.7692 8.59264 73.7148C8.51867 73.6665 8.43877 73.6254 8.34489 73.5892C8.16978 73.522 7.98735 73.481 7.80225 73.4535C7.59851 73.4227 7.39211 73.4199 7.18837 73.3945C7.01666 73.3723 6.84881 73.3393 6.6811 73.2991C6.37941 73.2265 6.09311 73.1318 5.80814 73.0062C5.5598 72.8968 5.33548 72.7396 5.12369 72.5682C4.68559 72.2452 4.30614 71.8328 3.9745 71.4043C3.78141 71.1537 3.59965 70.8938 3.43452 70.6232C3.14689 70.1543 2.90187 69.6673 2.65419 69.1763C2.5643 69.0309 2.48228 68.8819 2.40731 68.7298C2.89135 68.5859 3.38006 68.4686 3.8932 68.4603C4.23623 68.4547 4.23616 67.9174 3.8932 67.9229C3.30469 67.9324 2.748 68.0711 2.19491 68.2363C2.16795 68.1641 2.14211 68.0914 2.11821 68.0177C2.05229 67.864 1.9977 67.7061 1.95242 67.5462C1.92586 67.4737 1.89916 67.4011 1.87252 67.3286C1.8126 67.0774 1.75268 66.8255 1.69209 66.5736C1.57158 66.1706 1.47643 65.7616 1.40646 65.3472C1.34787 65.0745 1.30259 64.7998 1.27196 64.5217C1.17875 63.848 1.10284 63.1757 1.09752 62.4946C1.10551 62.0748 1.13214 61.6557 1.17742 61.2386C1.19673 60.9552 1.22935 60.6731 1.27329 60.393C1.33055 59.9766 1.38715 59.5642 1.48236 59.1531C1.5536 58.8751 1.62484 58.597 1.69608 58.3189C1.87386 57.7393 2.08359 57.171 2.32534 56.6156C2.33859 56.5807 2.40591 56.5041 2.44645 56.5034C2.47708 56.5027 2.51976 56.5309 2.50578 56.5686C2.50438 56.5719 2.50312 56.5759 2.50172 56.5793C2.5157 56.5477 2.52902 56.5155 2.543 56.4839C2.55499 56.4544 2.60159 56.3953 2.63754 56.396C2.63954 56.396 2.64161 56.396 2.6442 56.3966C2.63488 56.3899 2.62623 56.3811 2.61757 56.3711C2.37854 56.0857 2.22341 55.7101 2.05229 55.3797C1.91048 55.107 1.77665 54.8195 1.73803 54.5112C1.70414 54.2406 1.75002 53.9739 1.91847 53.7549C2.11022 53.5057 2.47109 53.3889 2.27068 53.0289C2.04297 52.6191 1.70807 52.2638 2.04164 51.7984C2.21142 51.5613 2.48042 51.431 2.68016 51.2248C2.90986 50.9863 3.01912 50.6673 3.01307 50.3415C2.99908 50.3496 2.98044 50.3456 2.97378 50.3254C2.78069 49.737 2.92052 49.091 3.11826 48.518C3.22612 48.2071 3.45456 48.1217 3.72015 48.1063C2.56969 45.8394 1.49308 43.5362 0.533573 41.18C0.501614 41.1028 0.470322 41.0256 0.439095 40.9483C0.392422 40.8328 0.490963 40.679 0.604816 40.6535C1.43442 40.4701 2.29865 40.4117 3.14356 40.3311Z" fill="black"/>
<path fill-rule="evenodd" clip-rule="evenodd" d="M12.2646 16.3016C12.4077 15.0311 12.2226 12.3757 12.2102 12.2143C12.1318 11.1944 12.6045 7.1669 13.4981 7.538C14.9972 6.33834 16.9938 6.07344 18.8608 5.94689C22.7387 5.684 26.8642 6.2875 29.8587 8.92579C31.3396 10.2959 32.7813 12.2887 32.6654 14.3636C34.0109 16.3303 35.9078 19.0282 34.2313 21.3275C33.6615 22.0621 32.7558 22.3357 32.04 22.892C30.6001 24.0661 29.6967 25.751 28.2432 26.9181C24.3922 30.4164 17.8533 31.1471 14.0698 27.1682C11.1441 24.2865 11.6171 19.9753 12.1318 16.3016C12.4778 13.8317 11.9856 18.7801 12.2646 16.3016Z" fill="white"/>
<path fill-rule="evenodd" clip-rule="evenodd" d="M24.0416 0.559152C23.0044 0.347578 21.9395 0.215932 20.8803 0.25556L20.7987 0.258766C20.0018 0.290964 18.9926 0.362187 18.2974 0.830639C18.2574 0.79007 18.1931 0.769249 18.1347 0.797392C17.3086 1.19602 16.4 1.48424 15.5301 1.77063C14.6643 2.05562 13.766 2.24375 12.8585 2.31958C12.517 2.34813 12.2248 2.72084 12.441 3.05512C12.4924 3.13478 12.5425 3.21525 12.5924 3.29591C12.509 3.28712 12.4255 3.27805 12.3421 3.26952C12.0675 3.24158 11.7931 3.53785 11.8094 3.80813C11.8196 3.97812 11.8377 4.14611 11.8646 4.31208C11.76 4.30986 11.656 4.32571 11.5556 4.36863C11.0469 4.58578 11.0823 5.19827 11.1204 5.66427C11.1731 6.31095 11.4124 6.99591 11.8566 7.47991C11.5249 7.82817 11.2901 8.24406 11.1501 8.73801C11.0485 9.09869 10.9919 9.48288 11.0198 9.85834L11.0287 9.97075C11.0632 10.3782 11.1319 10.8293 11.4218 11.1224C11.5706 11.2735 11.754 11.3286 11.9288 11.3112C11.8231 12.2501 11.7553 13.1945 11.6916 14.1355L11.6616 14.5853C11.5194 16.7601 11.4124 18.9491 11.4404 21.1275C11.4664 23.1633 11.8643 25.1394 13.0994 26.7923C14.2243 28.2975 15.8395 29.4071 17.6666 29.8289C18.6512 30.0566 19.6565 30.0727 20.6531 29.9277C21.1362 29.8571 21.6225 29.749 22.081 29.5784C22.5885 29.389 22.9533 29.1102 23.2948 28.6925C23.4563 28.4943 23.3786 28.0725 23.0569 28.1122C22.5705 28.1718 22.1264 28.2436 21.6601 28.3891L21.5933 28.4104C21.1288 28.5608 20.6478 28.673 20.1622 28.7207C19.1675 28.8181 18.1576 28.72 17.2048 28.4151C15.6534 27.918 14.3173 26.8105 13.4609 25.4188C12.4443 23.7692 12.3294 21.8966 12.3441 19.9998C12.3598 17.9184 12.4268 15.8358 12.5361 13.7566L12.5547 13.4101C12.6125 12.3401 12.6683 11.2695 12.7174 10.1989C12.7327 9.86304 12.7559 9.52452 12.7979 9.18936C13.1812 8.96234 13.5247 8.64935 13.7486 8.26314C14.1984 8.45121 14.6714 8.58688 15.1067 8.69502C16.1149 8.94568 17.1616 9.00654 18.1877 8.84957C18.4645 8.96516 18.7468 9.06679 19.0335 9.15424C19.1109 9.18896 19.1884 9.22308 19.2658 9.25653C19.9569 9.55542 20.6578 9.80864 21.3873 9.99402L21.5665 10.0392C21.9504 10.1349 22.3673 10.2291 22.7759 10.2587C22.843 10.2848 22.9154 10.307 22.9945 10.3265C23.3665 10.4178 23.7526 10.4467 24.1339 10.4145C24.5054 10.3829 24.7738 10.0034 24.5692 9.64811C24.4197 9.38885 24.2688 9.13026 24.1167 8.87234C24.6462 9.09533 25.193 9.28071 25.7445 9.43788C26.3012 9.59639 26.866 9.73005 27.4315 9.85297C27.7338 9.91812 28.0373 9.97588 28.339 10.041C28.5549 10.0874 28.8864 10.1116 29.0626 10.2553C29.2572 10.4131 29.3123 10.7812 29.3861 11.0082C29.4832 11.3031 29.5742 11.5993 29.6572 11.8989C29.8226 12.4966 29.9581 13.1032 30.0631 13.7157C30.1681 14.3289 30.2386 14.9482 30.2778 15.5695C30.3169 16.1901 30.2997 16.8148 30.3628 17.4327C30.3967 17.7605 30.7448 17.9291 31.0019 17.7C31.0321 17.6732 31.0625 17.646 31.0926 17.6185L31.1375 17.5771C31.3574 17.3756 31.5707 17.162 31.7467 16.9216C31.7786 16.8772 31.8092 16.8309 31.8377 16.7839C31.8424 16.7839 31.8464 16.7825 31.851 16.7792L31.8998 16.742C32.4372 16.3377 33.3349 15.8106 33.8589 16.4823C34.0258 16.6963 34.1113 16.9688 34.1823 17.2316L34.3068 17.7021C34.3873 18.0092 34.4631 18.318 34.5074 18.6323C34.6077 19.3362 34.5572 20.1476 34.0781 20.7118C33.8868 20.9374 33.623 21.0986 33.3287 21.141C33.1646 21.1638 33.0025 21.1356 32.8397 21.1148C32.6742 21.0939 32.5148 21.1275 32.3493 21.1114C32.0862 21.0852 31.9713 21.4036 32.0696 21.6037C32.1228 21.7112 32.1853 21.8039 32.2563 21.8825C32.1993 21.9322 32.1447 21.9859 32.0922 22.0423C31.9367 22.0927 31.7973 22.2008 31.6929 22.3439C31.6085 22.4594 31.5647 22.585 31.5574 22.7174C31.5481 22.7503 31.5402 22.7838 31.5328 22.8181L31.3902 23.052C31.3589 23.1033 31.3277 23.1539 31.2963 23.2036C30.9336 23.7813 30.5309 24.2702 30.0306 24.731C29.5489 25.1743 29.026 25.5713 28.5735 26.0468L28.5202 26.1033C28.0983 26.5527 27.6536 27.0967 27.8187 27.7501C27.8613 27.918 28.0932 28.0389 28.2446 27.9254C28.7316 27.56 28.9769 26.9811 29.3901 26.5378C29.8154 26.081 30.2864 25.6707 30.7129 25.2153C31.1163 24.7854 31.4345 24.2984 31.6743 23.7625C31.77 23.8693 31.9095 23.9452 32.1028 23.9747C32.4351 24.0251 32.7447 23.8283 32.8895 23.5375C32.9826 23.5791 33.0775 23.6167 33.1733 23.6463C33.6769 23.8021 33.9938 23.2359 33.8037 22.8174C33.7021 22.5931 33.5752 22.3983 33.4177 22.2344C33.9101 22.1659 34.4111 21.9087 34.7346 21.5876C35.5465 20.7809 35.6581 19.5686 35.4754 18.4906C35.3784 17.919 35.211 17.3407 34.9937 16.804C34.9559 16.7107 34.9153 16.6166 34.8708 16.5239C34.8954 16.5233 34.9207 16.5125 34.9366 16.4917C35.0834 16.2889 35.2621 16.123 35.3711 15.8959C35.4715 15.6877 35.583 15.4768 35.6621 15.2599C35.8249 14.8159 35.9046 14.3148 35.9577 13.8453C36.0674 12.8842 36.0249 11.9291 35.8793 10.974C35.6316 9.34721 35.0331 7.79042 34.1514 6.42439C34.1994 6.39889 34.2454 6.3681 34.2882 6.3317L34.3094 6.31303L34.3438 6.2816C34.5954 6.05142 34.5737 5.62001 34.3438 5.38687L34.2712 5.3133C34.1793 5.22097 34.1 5.14781 33.9515 5.04728C33.9296 5.03243 33.9072 5.01846 33.8845 5.00543C33.9623 4.86022 33.9892 4.69042 33.9351 4.5031C33.7464 3.85051 32.8176 3.87361 32.2288 4.1582C31.5775 3.57056 30.8553 3.06043 30.0725 2.64736C28.2081 1.66404 26.1 0.978271 24.0416 0.559152ZM33.6788 17.747C33.3307 17.6322 32.8682 17.8733 32.5553 18.0184C32.1586 18.2024 31.8211 18.4744 31.4942 18.7619C31.3314 18.9057 31.3023 19.1407 31.3427 19.3416C31.3468 19.3617 31.3507 19.3825 31.3554 19.4034C31.3986 19.6176 31.6351 19.7862 31.8444 19.7802C32.2823 19.7681 32.4908 19.3859 32.7387 19.0622C32.7679 19.1145 32.8044 19.1629 32.8497 19.1992L32.8802 19.2234C32.9831 19.3025 33.0965 19.3658 33.2324 19.3597C33.3287 19.355 33.421 19.3301 33.5061 19.2851C33.7187 19.1716 33.8123 18.8936 33.7546 18.6672C33.7187 18.5248 33.6363 18.4133 33.5287 18.3361L33.5688 18.3083C33.6547 18.2479 33.733 18.1843 33.794 18.0903L33.8078 18.0681H33.8024C33.8689 17.9526 33.8256 17.7954 33.6788 17.747Z" fill="black"/>
<path fill-rule="evenodd" clip-rule="evenodd" d="M17.2336 24.5062C17.7241 24.6495 18.2505 24.6623 18.7505 24.5143C19.204 24.3801 19.6696 24.0846 20.0033 23.6937C20.2998 23.3464 20.4918 22.9244 20.4843 22.4739C20.4834 22.4224 20.4652 22.3795 20.4371 22.3462C20.4069 22.3103 20.3647 22.2856 20.3196 22.2749C20.2731 22.2639 20.224 22.2678 20.1821 22.287C20.1443 22.3044 20.1118 22.3338 20.0915 22.3769C20.0402 22.4449 19.9891 22.5119 19.9378 22.577C19.5254 23.0907 19.1261 23.4746 18.5059 23.6123C18.1695 23.687 17.8334 23.6539 17.5251 23.5398C17.195 23.4178 16.8967 23.2032 16.6629 22.9286C16.5572 22.8045 16.4325 22.7539 16.3105 22.753C16.1723 22.7521 16.0357 22.8169 15.9327 22.9204C15.8316 23.0222 15.7638 23.1606 15.7577 23.3053C15.7523 23.4323 15.7934 23.5649 15.9026 23.6833C16.2625 24.0731 16.7289 24.3588 17.2336 24.5062ZM17.2487 18.0722C16.7459 18.3805 15.9799 19.0994 16.5207 19.8637C17.1574 20.5376 18.074 19.7649 18.5258 19.4155C18.9446 19.1447 19.4152 19.8412 19.0266 20.1574C15.7625 22.5953 14.4379 18.1528 16.9944 17.7097C17.2759 17.6609 17.3804 17.9768 17.2487 18.0722ZM21.952 16.7157C22.1136 16.6114 22.3037 16.5756 22.5143 16.6723C22.679 16.7478 22.9677 16.9996 23.1687 17.3306C23.3062 17.557 23.4036 17.8227 23.3833 18.0993C23.3786 18.1636 23.4022 18.211 23.4393 18.246C23.4686 18.2737 23.511 18.294 23.5607 18.3004C23.6029 18.3058 23.6502 18.3009 23.6887 18.2888C23.7618 18.2658 23.8005 18.2179 23.8151 18.1789C23.9558 17.8019 23.8951 17.3813 23.7375 17.0018C23.5246 16.4896 23.1382 16.0606 22.885 15.9223C22.4517 15.6856 21.9405 15.6747 21.5066 15.9159C21.1373 16.1212 20.9063 16.4526 20.6766 16.7904C20.6278 16.8623 20.5793 16.9335 20.5292 17.0036C20.4288 17.1439 20.4189 17.2831 20.4577 17.4025C20.5008 17.5347 20.6106 17.6463 20.7479 17.7047C20.8748 17.7587 21.0221 17.7662 21.1525 17.7108C21.2626 17.6639 21.3636 17.5726 21.4276 17.4177C21.5352 17.1567 21.7147 16.8688 21.952 16.7157ZM13.7448 17.2963C13.8555 17.3544 13.942 17.372 14.0648 17.3349C14.1327 17.3143 14.1998 17.2749 14.2523 17.2219C14.3044 17.1694 14.342 17.104 14.3566 17.0316C14.3925 16.8528 14.4895 16.6854 14.6277 16.5763C14.7458 16.483 14.8949 16.4336 15.0603 16.4615C15.2388 16.4915 15.4088 16.607 15.5259 16.7431C15.565 16.7887 15.5957 16.8404 15.6266 16.8918C15.6843 16.9879 15.7403 17.0772 15.8199 17.1478C15.8501 17.1746 15.8955 17.1932 15.9396 17.1932C15.9575 17.1932 15.9756 17.1903 15.9929 17.1848C16.1705 17.005 16.2047 16.8685 16.199 16.7332C16.193 16.5913 16.1375 16.4476 16.0479 16.3136C15.8376 15.9991 15.4385 15.7413 15.1691 15.6829C14.8002 15.6029 14.4339 15.6989 14.1401 15.9067C13.8379 16.1206 13.614 16.4526 13.5441 16.8268C13.5273 16.9169 13.5345 17.0142 13.5685 17.0986C13.6018 17.181 13.6597 17.2516 13.7448 17.2963ZM21.1384 13.3629C21.3598 13.5805 21.6218 13.6142 21.8869 13.6441C22.0342 13.661 22.1517 13.6745 22.2674 13.7009C22.5855 13.7733 22.8998 13.8823 23.1866 14.0394C23.4864 14.2036 23.8131 14.4017 24.0481 14.6553C24.104 14.7157 24.1567 14.7791 24.2095 14.8425C24.2576 14.9004 24.3039 14.9562 24.3528 15.0099C24.4089 15.0716 24.4621 15.1363 24.5151 15.2008C24.5479 15.2553 24.5543 15.2687 24.5609 15.2826C24.5709 15.3036 24.5824 15.327 24.5956 15.3521C24.6137 15.3866 24.6348 15.4243 24.657 15.4585C24.6939 15.5209 24.7136 15.5381 24.7307 15.5458C24.7591 15.5586 24.786 15.5649 24.8121 15.5615C24.8366 15.5583 24.8596 15.5464 24.8824 15.527C24.996 15.4301 25.0296 15.2712 25.0261 15.1024C25.0209 14.8463 24.9273 14.5628 24.841 14.3885C24.6403 13.9835 24.3619 13.5625 24.0272 13.2602C23.6453 12.9152 23.2275 12.654 22.7476 12.474C22.4493 12.3621 22.104 12.2594 21.7791 12.2723C21.5452 12.2817 21.322 12.3518 21.1376 12.527C21.0244 12.6345 20.97 12.7874 20.97 12.9402C20.97 13.0961 21.0265 13.2529 21.1384 13.3629ZM13.2945 15.3554C13.3086 15.3786 13.3281 15.3947 13.3498 15.4043C13.3725 15.4144 13.3979 15.4173 13.4222 15.4132C13.4465 15.4091 13.4695 15.398 13.4878 15.381C13.5053 15.3648 13.5187 15.3433 13.5246 15.3169C13.6716 14.6657 13.957 14.1812 14.5662 13.8687C14.8658 13.715 15.2104 13.6174 15.5366 13.5395C15.6313 13.5169 15.7315 13.5022 15.8324 13.4874C16.1485 13.4408 16.4669 13.3875 16.673 13.1297C16.7971 12.9744 16.8493 12.7758 16.8198 12.5942C16.7921 12.4233 16.693 12.2665 16.5129 12.1725C16.0647 11.9387 15.5076 12.1681 15.055 12.3636C15.0214 12.3781 14.9884 12.3923 14.9562 12.406C14.5135 12.5945 14.1098 12.8433 13.7779 13.1992C13.5146 13.4815 13.2706 13.8988 13.1723 14.3281C13.0906 14.6852 13.1098 15.0499 13.2945 15.3554Z" fill="black"/>
<path fill-rule="evenodd" clip-rule="evenodd" d="M11.2896 18.4817C12.098 19.3243 13.4475 19.5661 14.523 19.1142C17.2845 17.9502 15.9328 14.3199 13.8031 13.345C13.537 13.2781 13.1817 13.1194 12.8576 13.0834C12.8283 13.0688 12.7646 13.1108 12.6873 13.0711C10.3389 13.3356 9.80408 17.0131 11.2896 18.4817ZM20.1968 18.6973C21.1034 19.9104 22.789 20.2847 24.1661 19.7207C26.8868 18.6399 25.9218 15.4207 24.0604 14.1586C20.1283 12.6681 18.5046 16.4606 20.1968 18.6973ZM26.0945 16.0095C26.0971 16.0083 26.0996 16.0076 26.1022 16.0064C26.0878 16.0001 26.0734 15.9937 26.0591 15.9872C26.0638 15.9995 26.0688 16.0116 26.0734 16.0239C26.0804 16.019 26.0866 16.0133 26.0945 16.0095ZM9.41791 14.6982C9.63989 14.6986 9.96055 14.7354 10.1443 14.8908C10.5975 13.3491 12.2701 11.9223 13.7248 12.9627C14.8703 13.3344 15.7204 14.1586 16.2035 15.2543C17.0746 14.7316 18.4443 14.9548 19.1996 15.646C19.6943 13.997 20.9118 13.4196 22.361 13.3344C23.9427 13.073 25.5192 14.6226 26.0111 15.8657C26.4201 15.8188 27.0313 15.6875 27.416 15.9421C29.9133 15.2814 34.2794 14.9172 34.7871 15.2843C35.1489 15.4243 35.3474 16.2858 34.842 16.3323C34.4017 16.2692 34.8934 15.701 34.4496 15.639C32.0844 15.4911 29.7883 15.9716 27.4482 16.1733C27.2393 16.4568 26.5642 16.5516 26.2041 16.4377C26.7713 18.5465 25.5468 19.9811 23.7122 20.4109C20.8714 21.0692 18.3998 18.5056 19.1426 15.8391C18.2821 15.4072 17.2922 15.4257 16.3547 15.6532C17.9213 21.4692 8.63605 21.2082 10.0863 15.0901C9.12116 15.5744 8.91156 14.7959 9.41791 14.6982Z" fill="black"/>
</svg>
